G04*
G04 #@! TF.GenerationSoftware,Altium Limited,Altium Designer,21.7.2 (23)*
G04*
G04 Layer_Physical_Order=6*
G04 Layer_Color=16737945*
%FSLAX43Y43*%
%MOMM*%
G71*
G04*
G04 #@! TF.SameCoordinates,8EE3E7A9-439F-4166-B7BB-5AAA8F906105*
G04*
G04*
G04 #@! TF.FilePolarity,Positive*
G04*
G01*
G75*
%ADD11C,0.250*%
%ADD12C,0.150*%
%ADD14C,0.100*%
%ADD148C,0.185*%
%ADD149C,0.120*%
%ADD151C,4.200*%
%ADD152O,1.600X1.300*%
%ADD153R,3.450X3.450*%
%ADD154R,1.000X1.800*%
%ADD155C,1.150*%
%ADD158R,1.250X1.250*%
%ADD159C,6.000*%
%ADD161R,1.800X1.000*%
%ADD162P,3.818X4X180.0*%
%ADD163P,1.626X4X180.0*%
%ADD164C,0.600*%
%ADD165C,0.400*%
%ADD166C,0.700*%
%ADD180C,0.220*%
G36*
X51000Y189700D02*
X58455Y189700D01*
X58455Y189700D01*
X58455Y189700D01*
X58457D01*
X58572Y189698D01*
X58768Y189659D01*
X58964Y189578D01*
X59140Y189460D01*
X59215Y189385D01*
X68673Y179927D01*
X68760Y179840D01*
X68832Y179775D01*
X68850Y179763D01*
X68850Y179763D01*
X68851Y179762D01*
X68993Y179667D01*
X69173Y179593D01*
X69364Y179555D01*
X69461Y179550D01*
X100851D01*
X100851Y179550D01*
X100851Y179550D01*
X100852D01*
X100969Y179548D01*
X101167Y179508D01*
X101364Y179427D01*
X101542Y179308D01*
X101618Y179232D01*
X102944Y177906D01*
X103029Y177821D01*
X103029Y177821D01*
X103112Y177734D01*
X103225Y177565D01*
X103308Y177366D01*
X103350Y177154D01*
X103350Y177046D01*
X103350Y139311D01*
X103350Y139311D01*
X103355Y139214D01*
X103393Y139023D01*
X103467Y138843D01*
X103575Y138682D01*
X103640Y138610D01*
X113185Y129065D01*
X113185Y129065D01*
X113260Y128990D01*
X113378Y128814D01*
X113459Y128618D01*
X113500Y128411D01*
X113500Y128305D01*
X113500Y51000D01*
X113500Y51000D01*
Y50902D01*
X113462Y50708D01*
X113386Y50526D01*
X113277Y50363D01*
X113137Y50223D01*
X112974Y50114D01*
X112792Y50038D01*
X112598Y50000D01*
X51000D01*
X51000Y50000D01*
X50901Y50000D01*
X50708Y50038D01*
X50526Y50114D01*
X50363Y50223D01*
X50223Y50363D01*
X50114Y50526D01*
X50038Y50708D01*
X50000Y50902D01*
X50000Y51000D01*
Y188700D01*
X50000Y188798D01*
X50038Y188992D01*
X50114Y189174D01*
X50223Y189337D01*
X50363Y189477D01*
X50526Y189586D01*
X50708Y189662D01*
X50902Y189700D01*
X51000Y189700D01*
D02*
G37*
%LPC*%
G36*
X68940Y170850D02*
X68760D01*
X68595Y170781D01*
X68550Y170736D01*
X68505Y170781D01*
X68340Y170850D01*
X68160D01*
X67995Y170781D01*
X67869Y170655D01*
X67800Y170490D01*
Y170310D01*
X67869Y170145D01*
X67914Y170100D01*
X67869Y170055D01*
X67800Y169890D01*
Y169710D01*
X67869Y169545D01*
X67995Y169419D01*
X68160Y169350D01*
X68340D01*
X68505Y169419D01*
X68550Y169464D01*
X68595Y169419D01*
X68760Y169350D01*
X68940D01*
X69105Y169419D01*
X69231Y169545D01*
X69300Y169710D01*
Y169890D01*
X69231Y170055D01*
X69186Y170100D01*
X69231Y170145D01*
X69300Y170310D01*
Y170490D01*
X69231Y170655D01*
X69105Y170781D01*
X68940Y170850D01*
D02*
G37*
G36*
X77890Y169900D02*
X77710D01*
X77545Y169831D01*
X77500Y169786D01*
X77455Y169831D01*
X77290Y169900D01*
X77110D01*
X76945Y169831D01*
X76819Y169705D01*
X76750Y169540D01*
Y169360D01*
X76819Y169195D01*
X76864Y169150D01*
X76819Y169105D01*
X76750Y168940D01*
Y168760D01*
X76819Y168595D01*
X76945Y168469D01*
X77110Y168400D01*
X77290D01*
X77455Y168469D01*
X77500Y168514D01*
X77545Y168469D01*
X77710Y168400D01*
X77890D01*
X78055Y168469D01*
X78181Y168595D01*
X78250Y168760D01*
Y168940D01*
X78181Y169105D01*
X78136Y169150D01*
X78181Y169195D01*
X78250Y169360D01*
Y169540D01*
X78181Y169705D01*
X78055Y169831D01*
X77890Y169900D01*
D02*
G37*
G36*
X60990Y167250D02*
X60810D01*
X60645Y167181D01*
X60519Y167055D01*
X60467Y166931D01*
X60333D01*
X60281Y167055D01*
X60155Y167181D01*
X59990Y167250D01*
X59810D01*
X59645Y167181D01*
X59519Y167055D01*
X59467Y166931D01*
X59333D01*
X59281Y167055D01*
X59155Y167181D01*
X58990Y167250D01*
X58810D01*
X58645Y167181D01*
X58519Y167055D01*
X58450Y166890D01*
Y166710D01*
X58519Y166545D01*
X58645Y166419D01*
X58810Y166350D01*
X58990D01*
X59155Y166419D01*
X59281Y166545D01*
X59333Y166669D01*
X59467D01*
X59519Y166545D01*
X59645Y166419D01*
X59810Y166350D01*
X59990D01*
X60155Y166419D01*
X60281Y166545D01*
X60333Y166669D01*
X60467D01*
X60519Y166545D01*
X60645Y166419D01*
X60810Y166350D01*
X60990D01*
X61155Y166419D01*
X61281Y166545D01*
X61350Y166710D01*
Y166890D01*
X61281Y167055D01*
X61155Y167181D01*
X60990Y167250D01*
D02*
G37*
G36*
X76990D02*
X76810D01*
X76645Y167181D01*
X76519Y167055D01*
X76467Y166931D01*
X76333D01*
X76281Y167055D01*
X76155Y167181D01*
X75990Y167250D01*
X75810D01*
X75645Y167181D01*
X75519Y167055D01*
X75467Y166931D01*
X75333D01*
X75281Y167055D01*
X75155Y167181D01*
X74990Y167250D01*
X74810D01*
X74645Y167181D01*
X74519Y167055D01*
X74450Y166890D01*
Y166710D01*
X74519Y166545D01*
X74645Y166419D01*
X74810Y166350D01*
X74990D01*
X75155Y166419D01*
X75281Y166545D01*
X75333Y166669D01*
X75467D01*
X75519Y166545D01*
X75645Y166419D01*
X75810Y166350D01*
X75990D01*
X76155Y166419D01*
X76281Y166545D01*
X76333Y166669D01*
X76467D01*
X76519Y166545D01*
X76645Y166419D01*
X76810Y166350D01*
X76990D01*
X77155Y166419D01*
X77281Y166545D01*
X77350Y166710D01*
Y166890D01*
X77281Y167055D01*
X77155Y167181D01*
X76990Y167250D01*
D02*
G37*
G36*
X68990D02*
X68810D01*
X68645Y167181D01*
X68519Y167055D01*
X68467Y166931D01*
X68333D01*
X68281Y167055D01*
X68155Y167181D01*
X67990Y167250D01*
X67810D01*
X67645Y167181D01*
X67519Y167055D01*
X67467Y166931D01*
X67333D01*
X67281Y167055D01*
X67155Y167181D01*
X66990Y167250D01*
X66810D01*
X66645Y167181D01*
X66519Y167055D01*
X66450Y166890D01*
Y166710D01*
X66519Y166545D01*
X66645Y166419D01*
X66810Y166350D01*
X66990D01*
X67155Y166419D01*
X67281Y166545D01*
X67333Y166669D01*
X67467D01*
X67519Y166545D01*
X67645Y166419D01*
X67810Y166350D01*
X67990D01*
X68155Y166419D01*
X68281Y166545D01*
X68333Y166669D01*
X68467D01*
X68519Y166545D01*
X68645Y166419D01*
X68810Y166350D01*
X68990D01*
X69155Y166419D01*
X69281Y166545D01*
X69350Y166710D01*
Y166890D01*
X69281Y167055D01*
X69155Y167181D01*
X68990Y167250D01*
D02*
G37*
G36*
X87470Y168284D02*
X87206D01*
X86952Y168216D01*
X86724Y168084D01*
X86538Y167898D01*
X86406Y167670D01*
X86338Y167416D01*
Y167152D01*
X86406Y166898D01*
X86538Y166670D01*
X86724Y166484D01*
X86952Y166352D01*
X87206Y166284D01*
X87470D01*
X87724Y166352D01*
X87952Y166484D01*
X88138Y166670D01*
X88270Y166898D01*
X88338Y167152D01*
Y167416D01*
X88270Y167670D01*
X88138Y167898D01*
X87952Y168084D01*
X87724Y168216D01*
X87470Y168284D01*
D02*
G37*
G36*
X83926Y165164D02*
X83787D01*
X83658Y165111D01*
X83560Y165012D01*
X83507Y164883D01*
Y164744D01*
X83417Y164714D01*
X83412D01*
X83283Y164661D01*
X83185Y164562D01*
X83132Y164433D01*
Y164294D01*
X83185Y164166D01*
X83283Y164067D01*
X83412Y164014D01*
X83419D01*
X83507Y163893D01*
Y163754D01*
X83417Y163723D01*
X83412D01*
X83283Y163670D01*
X83185Y163571D01*
X83132Y163443D01*
Y163304D01*
X83185Y163175D01*
X83283Y163076D01*
X83412Y163023D01*
X83551D01*
X83680Y163076D01*
X83778Y163175D01*
X83832Y163304D01*
Y163443D01*
X83921Y163473D01*
X83926D01*
X84055Y163526D01*
X84153Y163625D01*
X84207Y163754D01*
Y163893D01*
X84153Y164021D01*
X84055Y164120D01*
X83926Y164173D01*
X83919D01*
X83832Y164294D01*
Y164433D01*
X83921Y164464D01*
X83926D01*
X84055Y164517D01*
X84153Y164616D01*
X84207Y164744D01*
Y164883D01*
X84153Y165012D01*
X84055Y165111D01*
X83926Y165164D01*
D02*
G37*
G36*
X83920Y162950D02*
X83780D01*
X83652Y162897D01*
X83553Y162798D01*
X83500Y162670D01*
Y162530D01*
X83553Y162402D01*
X83652Y162303D01*
X83780Y162250D01*
X83920D01*
X84048Y162303D01*
X84147Y162402D01*
X84200Y162530D01*
Y162670D01*
X84147Y162798D01*
X84048Y162897D01*
X83920Y162950D01*
D02*
G37*
G36*
Y161950D02*
X83780D01*
X83652Y161897D01*
X83553Y161798D01*
X83500Y161670D01*
Y161530D01*
X83553Y161402D01*
X83652Y161303D01*
X83780Y161250D01*
X83920D01*
X84048Y161303D01*
X84147Y161402D01*
X84200Y161530D01*
Y161670D01*
X84147Y161798D01*
X84048Y161897D01*
X83920Y161950D01*
D02*
G37*
G36*
X83968Y160915D02*
X83832D01*
X83707Y160863D01*
X83612Y160768D01*
X83560Y160643D01*
Y160507D01*
X83534Y160469D01*
X73475D01*
Y160475D01*
X72646Y160434D01*
X71824Y160313D01*
X71018Y160111D01*
X70236Y159831D01*
X69486Y159476D01*
X68773Y159049D01*
X68106Y158554D01*
X67491Y157997D01*
X66933Y157381D01*
X66439Y156714D01*
X66012Y156002D01*
X65657Y155251D01*
X65377Y154469D01*
X65175Y153663D01*
X65053Y152842D01*
X65012Y152012D01*
X65019D01*
Y148443D01*
X65019Y148325D01*
X65017Y148323D01*
X65011Y148323D01*
X65011Y148323D01*
X65011Y148316D01*
X65019Y148309D01*
X65019Y147168D01*
X65015Y147090D01*
X65005Y147071D01*
X65014Y147050D01*
X65030Y146929D01*
X65055Y146495D01*
X65184Y145736D01*
X65397Y144997D01*
X65691Y144287D01*
X66063Y143613D01*
X66508Y142986D01*
X66809Y142650D01*
X66874Y142577D01*
X66872Y142564D01*
X66880Y142544D01*
X66908Y142535D01*
X66980Y142463D01*
X67145Y142298D01*
X67133Y142285D01*
X67135Y142284D01*
X67159Y142285D01*
X67236Y142208D01*
X67774Y141669D01*
X67774Y141669D01*
X67774Y141669D01*
X67773Y141668D01*
X67774Y141667D01*
X67776Y141664D01*
X67913Y141486D01*
X67991Y141297D01*
X67937Y141243D01*
X67885Y141118D01*
Y140982D01*
X67937Y140857D01*
X68032Y140762D01*
X68157Y140710D01*
X68293D01*
X68418Y140762D01*
X68513Y140857D01*
X68565Y140982D01*
Y141118D01*
X68513Y141243D01*
X68418Y141338D01*
X68386Y141351D01*
X68383Y141378D01*
X68282Y141620D01*
X68380Y141718D01*
X68622Y141617D01*
X68649Y141614D01*
X68662Y141582D01*
X68757Y141487D01*
X68882Y141435D01*
X69018D01*
X69143Y141487D01*
X69238Y141582D01*
X69290Y141707D01*
Y141843D01*
X69238Y141968D01*
X69143Y142063D01*
X69018Y142115D01*
X68882D01*
X68757Y142063D01*
X68703Y142009D01*
X68514Y142087D01*
X68333Y142226D01*
X68332Y142225D01*
X68332Y142225D01*
X67585Y142972D01*
X67584Y142972D01*
X67584Y142973D01*
X67582Y142974D01*
X67499Y143067D01*
X67129Y143481D01*
X66735Y144036D01*
X66406Y144631D01*
X66146Y145259D01*
X65958Y145913D01*
X65844Y146583D01*
X65806Y147260D01*
X65806Y147262D01*
X65806Y147264D01*
X65806Y147265D01*
X65806Y147265D01*
Y152012D01*
X65804Y152025D01*
X65851Y152871D01*
X65995Y153720D01*
X66234Y154546D01*
X66563Y155341D01*
X66979Y156094D01*
X67477Y156796D01*
X68050Y157437D01*
X68692Y158011D01*
X69393Y158508D01*
X70146Y158925D01*
X70941Y159254D01*
X71768Y159492D01*
X72616Y159636D01*
X73463Y159684D01*
X73475Y159681D01*
X83534D01*
X83560Y159643D01*
Y159507D01*
X83612Y159382D01*
X83707Y159287D01*
X83832Y159235D01*
X83968D01*
X84093Y159287D01*
X84188Y159382D01*
X84240Y159507D01*
Y159643D01*
X84188Y159768D01*
X84093Y159863D01*
X83968Y159915D01*
X83962D01*
X83953Y159928D01*
X83841Y160004D01*
Y160146D01*
X83953Y160222D01*
X83962Y160235D01*
X83968D01*
X84093Y160287D01*
X84188Y160382D01*
X84240Y160507D01*
Y160643D01*
X84188Y160768D01*
X84093Y160863D01*
X83968Y160915D01*
D02*
G37*
G36*
X83946Y158934D02*
X83806D01*
X83678Y158881D01*
X83579Y158782D01*
X83526Y158654D01*
Y158514D01*
X83579Y158386D01*
X83678Y158287D01*
X83806Y158234D01*
X83946D01*
X84074Y158287D01*
X84173Y158386D01*
X84226Y158514D01*
Y158654D01*
X84173Y158782D01*
X84074Y158881D01*
X83946Y158934D01*
D02*
G37*
G36*
Y157934D02*
X83806D01*
X83678Y157881D01*
X83579Y157782D01*
X83526Y157654D01*
Y157514D01*
X83579Y157386D01*
X83678Y157287D01*
X83806Y157234D01*
X83946D01*
X84074Y157287D01*
X84173Y157386D01*
X84226Y157514D01*
Y157654D01*
X84173Y157782D01*
X84074Y157881D01*
X83946Y157934D01*
D02*
G37*
G36*
Y156934D02*
X83806D01*
X83678Y156881D01*
X83579Y156782D01*
X83526Y156654D01*
Y156514D01*
X83579Y156386D01*
X83678Y156287D01*
X83806Y156234D01*
X83946D01*
X84074Y156287D01*
X84173Y156386D01*
X84226Y156514D01*
Y156654D01*
X84173Y156782D01*
X84074Y156881D01*
X83946Y156934D01*
D02*
G37*
G36*
Y155934D02*
X83806D01*
X83678Y155881D01*
X83579Y155782D01*
X83526Y155654D01*
Y155514D01*
X83579Y155386D01*
X83678Y155287D01*
X83806Y155234D01*
X83946D01*
X84074Y155287D01*
X84173Y155386D01*
X84226Y155514D01*
Y155654D01*
X84173Y155782D01*
X84074Y155881D01*
X83946Y155934D01*
D02*
G37*
G36*
X60990Y154600D02*
X60810D01*
X60645Y154531D01*
X60519Y154405D01*
X60467Y154281D01*
X60333Y154281D01*
X60281Y154405D01*
X60155Y154531D01*
X59990Y154600D01*
X59810D01*
X59645Y154531D01*
X59519Y154405D01*
X59467Y154281D01*
X59333Y154281D01*
X59281Y154405D01*
X59155Y154531D01*
X58990Y154600D01*
X58810D01*
X58645Y154531D01*
X58519Y154405D01*
X58450Y154240D01*
Y154060D01*
X58519Y153895D01*
X58645Y153769D01*
X58810Y153700D01*
X58990D01*
X59155Y153769D01*
X59281Y153895D01*
X59333Y154019D01*
X59467Y154019D01*
X59519Y153895D01*
X59645Y153769D01*
X59810Y153700D01*
X59990D01*
X60155Y153769D01*
X60281Y153895D01*
X60333Y154019D01*
X60467Y154019D01*
X60519Y153895D01*
X60645Y153769D01*
X60810Y153700D01*
X60990D01*
X61155Y153769D01*
X61281Y153895D01*
X61350Y154060D01*
Y154240D01*
X61281Y154405D01*
X61155Y154531D01*
X60990Y154600D01*
D02*
G37*
G36*
X76990Y154600D02*
X76810D01*
X76645Y154531D01*
X76519Y154405D01*
X76467Y154281D01*
X76333D01*
X76281Y154405D01*
X76155Y154531D01*
X75990Y154600D01*
X75810D01*
X75645Y154531D01*
X75519Y154405D01*
X75467Y154281D01*
X75333D01*
X75281Y154405D01*
X75155Y154531D01*
X74990Y154600D01*
X74810D01*
X74645Y154531D01*
X74519Y154405D01*
X74450Y154240D01*
Y154060D01*
X74519Y153895D01*
X74645Y153769D01*
X74810Y153700D01*
X74990D01*
X75155Y153769D01*
X75281Y153895D01*
X75333Y154019D01*
X75467D01*
X75519Y153895D01*
X75645Y153769D01*
X75810Y153700D01*
X75990D01*
X76155Y153769D01*
X76281Y153895D01*
X76333Y154019D01*
X76467D01*
X76519Y153895D01*
X76645Y153769D01*
X76810Y153700D01*
X76990D01*
X77155Y153769D01*
X77281Y153895D01*
X77350Y154060D01*
Y154240D01*
X77281Y154405D01*
X77155Y154531D01*
X76990Y154600D01*
D02*
G37*
G36*
X68990D02*
X68810D01*
X68645Y154531D01*
X68519Y154405D01*
X68467Y154281D01*
X68333D01*
X68281Y154405D01*
X68155Y154531D01*
X67990Y154600D01*
X67810D01*
X67645Y154531D01*
X67519Y154405D01*
X67467Y154281D01*
X67333D01*
X67281Y154405D01*
X67155Y154531D01*
X66990Y154600D01*
X66810D01*
X66645Y154531D01*
X66519Y154405D01*
X66450Y154240D01*
Y154060D01*
X66519Y153895D01*
X66645Y153769D01*
X66810Y153700D01*
X66990D01*
X67155Y153769D01*
X67281Y153895D01*
X67333Y154019D01*
X67467D01*
X67519Y153895D01*
X67645Y153769D01*
X67810Y153700D01*
X67990D01*
X68155Y153769D01*
X68281Y153895D01*
X68333Y154019D01*
X68467D01*
X68519Y153895D01*
X68645Y153769D01*
X68810Y153700D01*
X68990D01*
X69155Y153769D01*
X69281Y153895D01*
X69350Y154060D01*
Y154240D01*
X69281Y154405D01*
X69155Y154531D01*
X68990Y154600D01*
D02*
G37*
G36*
X80640Y153250D02*
X80460D01*
X80295Y153181D01*
X80169Y153055D01*
X80100Y152890D01*
Y152710D01*
X80169Y152545D01*
X80295Y152419D01*
X80460Y152350D01*
X80640D01*
X80805Y152419D01*
X80931Y152545D01*
X81000Y152710D01*
Y152890D01*
X80931Y153055D01*
X80805Y153181D01*
X80640Y153250D01*
D02*
G37*
G36*
X79340D02*
X79160D01*
X78995Y153181D01*
X78869Y153055D01*
X78800Y152890D01*
Y152710D01*
X78869Y152545D01*
X78995Y152419D01*
X79160Y152350D01*
X79340D01*
X79505Y152419D01*
X79631Y152545D01*
X79700Y152710D01*
Y152890D01*
X79631Y153055D01*
X79505Y153181D01*
X79340Y153250D01*
D02*
G37*
G36*
X76640D02*
X76460D01*
X76295Y153181D01*
X76169Y153055D01*
X76100Y152890D01*
Y152710D01*
X76169Y152545D01*
X76295Y152419D01*
X76460Y152350D01*
X76640D01*
X76805Y152419D01*
X76931Y152545D01*
X77000Y152710D01*
Y152890D01*
X76931Y153055D01*
X76805Y153181D01*
X76640Y153250D01*
D02*
G37*
G36*
X75340D02*
X75160D01*
X74995Y153181D01*
X74869Y153055D01*
X74800Y152890D01*
Y152710D01*
X74869Y152545D01*
X74995Y152419D01*
X75160Y152350D01*
X75340D01*
X75505Y152419D01*
X75631Y152545D01*
X75700Y152710D01*
Y152890D01*
X75631Y153055D01*
X75505Y153181D01*
X75340Y153250D01*
D02*
G37*
G36*
X72640D02*
X72460D01*
X72295Y153181D01*
X72169Y153055D01*
X72100Y152890D01*
Y152710D01*
X72169Y152545D01*
X72295Y152419D01*
X72460Y152350D01*
X72640D01*
X72805Y152419D01*
X72931Y152545D01*
X73000Y152710D01*
Y152890D01*
X72931Y153055D01*
X72805Y153181D01*
X72640Y153250D01*
D02*
G37*
G36*
X71340D02*
X71160D01*
X70995Y153181D01*
X70869Y153055D01*
X70800Y152890D01*
Y152710D01*
X70869Y152545D01*
X70995Y152419D01*
X71160Y152350D01*
X71340D01*
X71505Y152419D01*
X71631Y152545D01*
X71700Y152710D01*
Y152890D01*
X71631Y153055D01*
X71505Y153181D01*
X71340Y153250D01*
D02*
G37*
G36*
X68640D02*
X68460D01*
X68295Y153181D01*
X68169Y153055D01*
X68100Y152890D01*
Y152710D01*
X68169Y152545D01*
X68295Y152419D01*
X68460Y152350D01*
X68640D01*
X68805Y152419D01*
X68931Y152545D01*
X69000Y152710D01*
Y152890D01*
X68931Y153055D01*
X68805Y153181D01*
X68640Y153250D01*
D02*
G37*
G36*
X67340D02*
X67160D01*
X66995Y153181D01*
X66869Y153055D01*
X66800Y152890D01*
Y152710D01*
X66869Y152545D01*
X66995Y152419D01*
X67160Y152350D01*
X67340D01*
X67505Y152419D01*
X67631Y152545D01*
X67700Y152710D01*
Y152890D01*
X67631Y153055D01*
X67505Y153181D01*
X67340Y153250D01*
D02*
G37*
G36*
X90870Y163934D02*
X90730D01*
X90602Y163881D01*
X90503Y163782D01*
X90469Y163700D01*
X85507Y158738D01*
X85438Y158635D01*
X85414Y158514D01*
Y143443D01*
X83957Y141986D01*
X82698D01*
X82649Y142113D01*
X82695Y142182D01*
X82719Y142303D01*
Y147477D01*
X83510Y148268D01*
X83724D01*
X83806Y148234D01*
X83946D01*
X84074Y148287D01*
X84173Y148386D01*
X84226Y148514D01*
Y148654D01*
X84173Y148782D01*
X84074Y148881D01*
X83946Y148934D01*
X83806D01*
X83724Y148900D01*
X83379D01*
X83336Y148891D01*
X83273Y149008D01*
X83532Y149268D01*
X83724D01*
X83806Y149234D01*
X83946D01*
X84074Y149287D01*
X84173Y149386D01*
X84226Y149514D01*
Y149654D01*
X84173Y149782D01*
X84074Y149881D01*
X83946Y149934D01*
X83806D01*
X83724Y149900D01*
X83401D01*
X83352Y149890D01*
X83289Y150007D01*
X83550Y150268D01*
X83724D01*
X83806Y150234D01*
X83946D01*
X84074Y150287D01*
X84173Y150386D01*
X84226Y150514D01*
Y150654D01*
X84173Y150782D01*
X84074Y150881D01*
X83946Y150934D01*
X83806D01*
X83724Y150900D01*
X83419D01*
X83372Y150891D01*
X83310Y151008D01*
X83570Y151268D01*
X83724D01*
X83806Y151234D01*
X83946D01*
X84074Y151287D01*
X84173Y151386D01*
X84226Y151514D01*
Y151654D01*
X84173Y151782D01*
X84074Y151881D01*
X83946Y151934D01*
X83806D01*
X83724Y151900D01*
X83439D01*
X83318Y151876D01*
X83215Y151807D01*
X81349Y149941D01*
X81280Y149838D01*
X81256Y149717D01*
Y142803D01*
X75396Y136943D01*
X75328Y136841D01*
X75304Y136720D01*
Y129751D01*
X69969Y124416D01*
X65600D01*
X65479Y124392D01*
X65377Y124324D01*
X65313Y124260D01*
X65280Y124238D01*
X59826Y118785D01*
X59758Y118682D01*
X59734Y118561D01*
Y118352D01*
X59700Y118270D01*
Y118130D01*
X59753Y118002D01*
X59852Y117903D01*
X59980Y117850D01*
X60120D01*
X60248Y117903D01*
X60300Y117955D01*
X60352Y117903D01*
X60480Y117850D01*
X60620D01*
X60748Y117903D01*
X60800Y117955D01*
X60852Y117903D01*
X60980Y117850D01*
X61120D01*
X61248Y117903D01*
X61300Y117955D01*
X61352Y117903D01*
X61480Y117850D01*
X61620D01*
X61748Y117903D01*
X61847Y118002D01*
X61900Y118130D01*
Y118270D01*
X61866Y118352D01*
Y118719D01*
X65981Y122834D01*
X66003Y122830D01*
X66045Y122692D01*
X62176Y118823D01*
X62108Y118721D01*
X62084Y118600D01*
Y118352D01*
X62050Y118270D01*
Y118130D01*
X62103Y118002D01*
X62202Y117903D01*
X62330Y117850D01*
X62470D01*
X62598Y117903D01*
X62650Y117955D01*
X62702Y117903D01*
X62830Y117850D01*
X62970D01*
X63098Y117903D01*
X63150Y117955D01*
X63202Y117903D01*
X63330Y117850D01*
X63470D01*
X63598Y117903D01*
X63650Y117955D01*
X63702Y117903D01*
X63830Y117850D01*
X63970D01*
X64098Y117903D01*
X64197Y118002D01*
X64250Y118130D01*
Y118270D01*
X64216Y118352D01*
Y118769D01*
X67270Y121823D01*
X67410D01*
X67458Y121705D01*
X64550Y118797D01*
X64482Y118695D01*
X64458Y118574D01*
Y118403D01*
X64453Y118398D01*
X64400Y118270D01*
Y118130D01*
X64453Y118002D01*
X64552Y117903D01*
X64680Y117850D01*
X64820D01*
X64948Y117903D01*
X65000Y117955D01*
X65052Y117903D01*
X65180Y117850D01*
X65320D01*
X65448Y117903D01*
X65500Y117955D01*
X65552Y117903D01*
X65680Y117850D01*
X65820D01*
X65948Y117903D01*
X66000Y117955D01*
X66052Y117903D01*
X66180Y117850D01*
X66320D01*
X66448Y117903D01*
X66547Y118002D01*
X66600Y118130D01*
Y118270D01*
X66577Y118324D01*
Y118730D01*
X68590Y120743D01*
X68730D01*
X68778Y120625D01*
X66877Y118724D01*
X66808Y118621D01*
X66784Y118500D01*
Y118352D01*
X66750Y118270D01*
Y118130D01*
X66803Y118002D01*
X66902Y117903D01*
X67030Y117850D01*
X67170D01*
X67298Y117903D01*
X67350Y117955D01*
X67402Y117903D01*
X67530Y117850D01*
X67670D01*
X67798Y117903D01*
X67850Y117955D01*
X67902Y117903D01*
X68030Y117850D01*
X68170D01*
X68298Y117903D01*
X68350Y117955D01*
X68402Y117903D01*
X68530Y117850D01*
X68670D01*
X68798Y117903D01*
X68897Y118002D01*
X68950Y118130D01*
Y118270D01*
X68916Y118352D01*
Y118669D01*
X69910Y119663D01*
X70050D01*
X70098Y119545D01*
X69250Y118697D01*
X69182Y118595D01*
X69158Y118474D01*
Y118403D01*
X69153Y118398D01*
X69100Y118270D01*
Y118130D01*
X69153Y118002D01*
X69252Y117903D01*
X69380Y117850D01*
X69520D01*
X69648Y117903D01*
X69700Y117955D01*
X69752Y117903D01*
X69880Y117850D01*
X70020D01*
X70148Y117903D01*
X70200Y117955D01*
X70252Y117903D01*
X70380Y117850D01*
X70520D01*
X70648Y117903D01*
X70747Y118002D01*
X70800Y118130D01*
Y118270D01*
X70790Y118294D01*
Y118561D01*
X71082Y118853D01*
X71529D01*
X71597Y118726D01*
X71583Y118705D01*
X71559Y118584D01*
Y118410D01*
X71525Y118328D01*
Y118188D01*
X71578Y118060D01*
X71677Y117961D01*
X71805Y117908D01*
X71945D01*
X72073Y117961D01*
X72172Y118060D01*
X72225Y118188D01*
Y118328D01*
X72191Y118410D01*
Y118453D01*
X80973Y127235D01*
X81042Y127338D01*
X81066Y127459D01*
Y134119D01*
X83410Y136463D01*
X83560Y136433D01*
X83579Y136386D01*
X83678Y136287D01*
X83806Y136234D01*
X83946D01*
X83991Y136253D01*
X87929D01*
X88705Y135477D01*
X88699Y135449D01*
X88561Y135407D01*
X88134Y135834D01*
X88027Y135906D01*
X87900Y135931D01*
X83982D01*
X83892Y135949D01*
X83816Y135934D01*
X83806D01*
X83798Y135930D01*
X83758Y135923D01*
X83725Y135900D01*
X83678Y135881D01*
X83579Y135782D01*
X83526Y135654D01*
Y135514D01*
X83554Y135447D01*
X83556Y135435D01*
X83563Y135426D01*
X83579Y135386D01*
X83610Y135355D01*
X83625Y135333D01*
X83647Y135318D01*
X83678Y135287D01*
X83718Y135271D01*
X83727Y135264D01*
X83739Y135262D01*
X83806Y135234D01*
X83946D01*
X84029Y135269D01*
X87763D01*
X88319Y134713D01*
Y133439D01*
X88192Y133405D01*
X88138Y133498D01*
X87952Y133684D01*
X87724Y133816D01*
X87470Y133884D01*
X87206D01*
X86952Y133816D01*
X86724Y133684D01*
X86538Y133498D01*
X86406Y133270D01*
X86338Y133016D01*
Y132752D01*
X86406Y132498D01*
X86538Y132270D01*
X86724Y132084D01*
X86952Y131952D01*
X87206Y131884D01*
X87470D01*
X87724Y131952D01*
X87952Y132084D01*
X88138Y132270D01*
X88192Y132363D01*
X88319Y132329D01*
Y124097D01*
X88344Y123970D01*
X88416Y123862D01*
X90469Y121809D01*
X90452Y121722D01*
X90353Y121623D01*
X90319Y121541D01*
X90122Y121344D01*
X90000Y121402D01*
Y121495D01*
X89947Y121623D01*
X89848Y121722D01*
X89720Y121775D01*
X89580D01*
X89452Y121722D01*
X89400Y121670D01*
X89348Y121722D01*
X89220Y121775D01*
X89080D01*
X88952Y121722D01*
X88900Y121670D01*
X88848Y121722D01*
X88720Y121775D01*
X88580D01*
X88452Y121722D01*
X88390Y121660D01*
X88343Y121707D01*
X88215Y121760D01*
X88075D01*
X87947Y121707D01*
X87909Y121669D01*
X87843Y121734D01*
X87715Y121787D01*
X87575D01*
X87447Y121734D01*
X87348Y121636D01*
X87345Y121627D01*
X87304Y121586D01*
X75775D01*
X75654Y121562D01*
X75551Y121493D01*
X73076Y119019D01*
X73008Y118916D01*
X72984Y118795D01*
Y118352D01*
X72950Y118270D01*
Y118130D01*
X73003Y118002D01*
X73102Y117903D01*
X73230Y117850D01*
X73370D01*
X73498Y117903D01*
X73550Y117955D01*
X73602Y117903D01*
X73730Y117850D01*
X73870D01*
X73998Y117903D01*
X74050Y117955D01*
X74102Y117903D01*
X74230Y117850D01*
X74370D01*
X74409Y117866D01*
X74536Y117782D01*
Y115146D01*
X73276Y113886D01*
X73208Y113784D01*
X73184Y113663D01*
Y109652D01*
X73150Y109570D01*
Y109430D01*
X73203Y109302D01*
X73302Y109203D01*
X73430Y109150D01*
X73570D01*
X73698Y109203D01*
X73797Y109302D01*
X73850Y109430D01*
Y109570D01*
X73816Y109652D01*
Y113532D01*
X75076Y114792D01*
X75145Y114894D01*
X75169Y115015D01*
Y118959D01*
X76353Y120144D01*
X89685D01*
X89806Y120168D01*
X89908Y120237D01*
X90742Y121070D01*
X90815Y121050D01*
X90869Y120999D01*
Y115012D01*
X90313Y114456D01*
X87875D01*
X87748Y114431D01*
X87641Y114359D01*
X86747Y113465D01*
X86702Y113447D01*
X86603Y113348D01*
X86550Y113220D01*
Y113080D01*
X86569Y113035D01*
Y110800D01*
X86594Y110673D01*
X86666Y110566D01*
X88669Y108563D01*
Y108071D01*
X88542Y108030D01*
X87848Y108724D01*
X87745Y108792D01*
X87624Y108816D01*
X79000D01*
X78879Y108792D01*
X78776Y108724D01*
X78119Y108066D01*
X77952D01*
X77870Y108100D01*
X77730D01*
X77602Y108047D01*
X77503Y107948D01*
X77450Y107820D01*
Y107680D01*
X77503Y107552D01*
X77555Y107500D01*
X77503Y107448D01*
X77450Y107320D01*
Y107180D01*
X77503Y107052D01*
X77555Y107000D01*
X77503Y106948D01*
X77450Y106820D01*
Y106680D01*
X77503Y106552D01*
X77602Y106453D01*
X77730Y106400D01*
X77870D01*
X77952Y106434D01*
X78250D01*
X78371Y106458D01*
X78474Y106526D01*
X79531Y107584D01*
X81243D01*
X81328Y107457D01*
X81300Y107390D01*
Y107210D01*
X81369Y107045D01*
X81414Y107000D01*
X81369Y106955D01*
X81300Y106790D01*
Y106610D01*
X81369Y106445D01*
X81495Y106319D01*
X81660Y106250D01*
X81840D01*
X82005Y106319D01*
X82131Y106445D01*
X82200Y106610D01*
Y106790D01*
X82131Y106955D01*
X82086Y107000D01*
X82131Y107045D01*
X82200Y107210D01*
Y107390D01*
X82172Y107457D01*
X82257Y107584D01*
X86769D01*
X87519Y106834D01*
X87553Y106752D01*
X87652Y106653D01*
X87743Y106615D01*
X87790Y106483D01*
X85113Y103806D01*
X82265D01*
X82220Y103825D01*
X82080D01*
X81952Y103772D01*
X81853Y103673D01*
X81800Y103545D01*
Y103405D01*
X81853Y103277D01*
X81952Y103178D01*
X82080Y103125D01*
X82220D01*
X82265Y103144D01*
X84709D01*
X84758Y103026D01*
X82466Y100734D01*
X82394Y100627D01*
X82369Y100500D01*
Y99205D01*
X82242Y99152D01*
X81034Y100359D01*
X80927Y100431D01*
X80800Y100456D01*
X61625D01*
X61498Y100431D01*
X61391Y100359D01*
X56666Y95634D01*
X56666Y95634D01*
X56594Y95527D01*
X56569Y95400D01*
X56569Y64287D01*
X56047Y63765D01*
X56002Y63747D01*
X55903Y63648D01*
X55850Y63520D01*
Y63380D01*
X55903Y63252D01*
X56002Y63153D01*
X56130Y63100D01*
X56270D01*
X56398Y63153D01*
X56497Y63252D01*
X56515Y63297D01*
X57134Y63916D01*
X57203Y64019D01*
X57206Y64023D01*
X57348Y64086D01*
X57435Y64050D01*
X57615D01*
X57780Y64119D01*
X57906Y64245D01*
X57975Y64410D01*
Y64590D01*
X57906Y64755D01*
X57861Y64800D01*
X57906Y64845D01*
X57975Y65010D01*
Y65190D01*
X57906Y65355D01*
X57780Y65481D01*
X57615Y65550D01*
X57435D01*
X57358Y65518D01*
X57231Y65603D01*
X57231Y95263D01*
X61762Y99794D01*
X80663D01*
X81835Y98622D01*
X81853Y98577D01*
X81897Y98533D01*
X81938Y98450D01*
X81897Y98367D01*
X81853Y98323D01*
X81800Y98195D01*
Y98055D01*
X81819Y98010D01*
Y96850D01*
X81844Y96723D01*
X81916Y96616D01*
X99316Y79216D01*
X99423Y79144D01*
X99550Y79119D01*
X104300D01*
X104427Y79144D01*
X104534Y79216D01*
X104703Y79385D01*
X104748Y79403D01*
X104847Y79502D01*
X104900Y79630D01*
Y79770D01*
X104847Y79898D01*
X104748Y79997D01*
X104620Y80050D01*
X104480D01*
X104352Y79997D01*
X104253Y79898D01*
X104235Y79853D01*
X104163Y79781D01*
X102034D01*
X101987Y79908D01*
X102050Y80060D01*
Y80240D01*
X101981Y80405D01*
X101855Y80531D01*
X101690Y80600D01*
X101510D01*
X101345Y80531D01*
X101219Y80405D01*
X101150Y80240D01*
Y80060D01*
X101213Y79908D01*
X101166Y79781D01*
X99687D01*
X82481Y96987D01*
Y97988D01*
X82934Y98441D01*
X83006Y98548D01*
X83031Y98675D01*
Y100363D01*
X89634Y106966D01*
X89706Y107073D01*
X89731Y107200D01*
Y108800D01*
X89706Y108927D01*
X89634Y109034D01*
X87631Y111037D01*
Y112863D01*
X88237Y113469D01*
X90675D01*
X90675Y113469D01*
X90738Y113352D01*
X89609Y112223D01*
X89527Y112189D01*
X89428Y112090D01*
X89375Y111962D01*
Y111822D01*
X89428Y111694D01*
X89527Y111595D01*
X89655Y111542D01*
X89795D01*
X89923Y111595D01*
X90022Y111694D01*
X90056Y111776D01*
X92049Y113769D01*
X92117Y113871D01*
X92141Y113992D01*
Y121880D01*
X92117Y122001D01*
X92049Y122104D01*
X89906Y124246D01*
Y125650D01*
X90012Y125720D01*
X90060Y125700D01*
X90240D01*
X90405Y125769D01*
X90531Y125895D01*
X90600Y126060D01*
Y126240D01*
X90531Y126405D01*
X90486Y126450D01*
X90531Y126495D01*
X90600Y126660D01*
Y126840D01*
X90531Y127005D01*
X90405Y127131D01*
X90240Y127200D01*
X90060D01*
X90012Y127180D01*
X89906Y127250D01*
Y137243D01*
X90916Y138253D01*
X90998Y138287D01*
X91097Y138386D01*
X91150Y138514D01*
Y138654D01*
X91097Y138782D01*
X90998Y138881D01*
X90870Y138934D01*
X90730D01*
X90602Y138881D01*
X90503Y138782D01*
X90469Y138700D01*
X89367Y137598D01*
X89298Y137495D01*
X89274Y137374D01*
Y136011D01*
X89157Y135962D01*
X88300Y136818D01*
X88193Y136890D01*
X88066Y136915D01*
X86142D01*
X86089Y137042D01*
X90393Y141346D01*
X90446Y141373D01*
X90538Y141357D01*
X90557Y141348D01*
X90602Y141303D01*
X90730Y141250D01*
X90870D01*
X90998Y141303D01*
X91097Y141402D01*
X91150Y141530D01*
Y141670D01*
X91097Y141798D01*
X90998Y141897D01*
X90870Y141950D01*
X90730D01*
X90643Y141914D01*
X90516Y141977D01*
Y147853D01*
X90916Y148253D01*
X90998Y148287D01*
X91097Y148386D01*
X91150Y148514D01*
Y148654D01*
X91097Y148782D01*
X90998Y148881D01*
X90870Y148934D01*
X90777D01*
X90719Y149056D01*
X90916Y149253D01*
X90998Y149287D01*
X91097Y149386D01*
X91150Y149514D01*
Y149654D01*
X91097Y149782D01*
X90998Y149881D01*
X90870Y149934D01*
X90777D01*
X90719Y150056D01*
X90916Y150253D01*
X90998Y150287D01*
X91097Y150386D01*
X91150Y150514D01*
Y150654D01*
X91097Y150782D01*
X90998Y150881D01*
X90870Y150934D01*
X90777D01*
X90719Y151056D01*
X90900Y151237D01*
X90940Y151245D01*
X91060Y151324D01*
X91060D01*
X91139Y151444D01*
X91167Y151584D01*
X91139Y151724D01*
X91060Y151844D01*
X90940Y151923D01*
X90800Y151951D01*
X90792Y151949D01*
X90730Y152067D01*
X90916Y152253D01*
X90998Y152287D01*
X91097Y152386D01*
X91150Y152514D01*
Y152654D01*
X91097Y152782D01*
X90998Y152881D01*
X90870Y152934D01*
X90777D01*
X90719Y153056D01*
X90916Y153253D01*
X90998Y153287D01*
X91097Y153386D01*
X91150Y153514D01*
Y153654D01*
X91097Y153782D01*
X90998Y153881D01*
X90870Y153934D01*
X90777D01*
X90719Y154056D01*
X90916Y154253D01*
X90998Y154287D01*
X91097Y154386D01*
X91150Y154514D01*
Y154654D01*
X91097Y154782D01*
X90998Y154881D01*
X90870Y154934D01*
X90777D01*
X90719Y155056D01*
X90916Y155253D01*
X90998Y155287D01*
X91097Y155386D01*
X91150Y155514D01*
Y155654D01*
X91097Y155782D01*
X90998Y155881D01*
X90870Y155934D01*
X90777D01*
X90719Y156056D01*
X90916Y156253D01*
X90998Y156287D01*
X91097Y156386D01*
X91150Y156514D01*
Y156654D01*
X91097Y156782D01*
X90998Y156881D01*
X90870Y156934D01*
X90777D01*
X90719Y157056D01*
X90916Y157253D01*
X90998Y157287D01*
X91097Y157386D01*
X91150Y157514D01*
Y157654D01*
X91097Y157782D01*
X90998Y157881D01*
X90870Y157934D01*
X90777D01*
X90719Y158056D01*
X90916Y158253D01*
X90998Y158287D01*
X91097Y158386D01*
X91150Y158514D01*
Y158654D01*
X91097Y158782D01*
X90998Y158881D01*
X90870Y158934D01*
X90777D01*
X90719Y159056D01*
X90916Y159253D01*
X90998Y159287D01*
X91097Y159386D01*
X91150Y159514D01*
Y159654D01*
X91097Y159782D01*
X90998Y159881D01*
X90870Y159934D01*
X90777D01*
X90719Y160056D01*
X90916Y160253D01*
X90998Y160287D01*
X91097Y160386D01*
X91150Y160514D01*
Y160654D01*
X91097Y160782D01*
X90998Y160881D01*
X90870Y160934D01*
X90777D01*
X90719Y161056D01*
X90916Y161253D01*
X90998Y161287D01*
X91097Y161386D01*
X91150Y161514D01*
Y161654D01*
X91097Y161782D01*
X90998Y161881D01*
X90870Y161934D01*
X90777D01*
X90719Y162056D01*
X90916Y162253D01*
X90998Y162287D01*
X91097Y162386D01*
X91150Y162514D01*
Y162654D01*
X91097Y162782D01*
X90998Y162881D01*
X90870Y162934D01*
X90777D01*
X90719Y163056D01*
X90916Y163253D01*
X90998Y163287D01*
X91097Y163386D01*
X91150Y163514D01*
Y163654D01*
X91097Y163782D01*
X90998Y163881D01*
X90870Y163934D01*
D02*
G37*
G36*
X79090Y148350D02*
X78910D01*
X78745Y148281D01*
X78619Y148155D01*
X78550Y147990D01*
Y147810D01*
X78619Y147645D01*
X78664Y147600D01*
X78619Y147555D01*
X78550Y147390D01*
Y147210D01*
X78619Y147045D01*
X78745Y146919D01*
X78910Y146850D01*
X79090D01*
X79255Y146919D01*
X79381Y147045D01*
X79450Y147210D01*
Y147390D01*
X79381Y147555D01*
X79336Y147600D01*
X79381Y147645D01*
X79450Y147810D01*
Y147990D01*
X79381Y148155D01*
X79255Y148281D01*
X79090Y148350D01*
D02*
G37*
G36*
X75090D02*
X74910D01*
X74745Y148281D01*
X74619Y148155D01*
X74550Y147990D01*
Y147810D01*
X74619Y147645D01*
X74664Y147600D01*
X74619Y147555D01*
X74550Y147390D01*
Y147210D01*
X74619Y147045D01*
X74745Y146919D01*
X74910Y146850D01*
X75090D01*
X75255Y146919D01*
X75381Y147045D01*
X75450Y147210D01*
Y147390D01*
X75381Y147555D01*
X75336Y147600D01*
X75381Y147645D01*
X75450Y147810D01*
Y147990D01*
X75381Y148155D01*
X75255Y148281D01*
X75090Y148350D01*
D02*
G37*
G36*
X71090D02*
X70910D01*
X70745Y148281D01*
X70619Y148155D01*
X70550Y147990D01*
Y147810D01*
X70619Y147645D01*
X70664Y147600D01*
X70619Y147555D01*
X70550Y147390D01*
Y147210D01*
X70619Y147045D01*
X70745Y146919D01*
X70910Y146850D01*
X71090D01*
X71255Y146919D01*
X71381Y147045D01*
X71450Y147210D01*
Y147390D01*
X71381Y147555D01*
X71336Y147600D01*
X71381Y147645D01*
X71450Y147810D01*
Y147990D01*
X71381Y148155D01*
X71255Y148281D01*
X71090Y148350D01*
D02*
G37*
G36*
X67090D02*
X66910D01*
X66745Y148281D01*
X66619Y148155D01*
X66550Y147990D01*
Y147810D01*
X66619Y147645D01*
X66664Y147600D01*
X66619Y147555D01*
X66550Y147390D01*
Y147210D01*
X66619Y147045D01*
X66745Y146919D01*
X66910Y146850D01*
X67090D01*
X67255Y146919D01*
X67381Y147045D01*
X67450Y147210D01*
Y147390D01*
X67381Y147555D01*
X67336Y147600D01*
X67381Y147645D01*
X67450Y147810D01*
Y147990D01*
X67381Y148155D01*
X67255Y148281D01*
X67090Y148350D01*
D02*
G37*
G36*
X52700Y142787D02*
X52641Y142779D01*
X52447Y142699D01*
X52279Y142571D01*
X52151Y142403D01*
X52108Y142300D01*
X52700D01*
Y142787D01*
D02*
G37*
G36*
X55150Y142807D02*
X54850D01*
X54641Y142779D01*
X54447Y142699D01*
X54279Y142571D01*
X54151Y142403D01*
X54071Y142209D01*
X54064Y142159D01*
X53936D01*
X53929Y142209D01*
X53849Y142403D01*
X53721Y142571D01*
X53553Y142699D01*
X53359Y142779D01*
X53300Y142787D01*
Y142000D01*
Y141213D01*
X53359Y141221D01*
X53553Y141301D01*
X53721Y141429D01*
X53849Y141597D01*
X53929Y141791D01*
X53936Y141841D01*
X54064D01*
X54071Y141791D01*
X54151Y141597D01*
X54279Y141429D01*
X54447Y141301D01*
X54641Y141221D01*
X54850Y141193D01*
X55150D01*
X55359Y141221D01*
X55553Y141301D01*
X55721Y141429D01*
X55849Y141597D01*
X55929Y141791D01*
X55957Y142000D01*
X55929Y142209D01*
X55849Y142403D01*
X55721Y142571D01*
X55553Y142699D01*
X55359Y142779D01*
X55150Y142807D01*
D02*
G37*
G36*
X52700Y141700D02*
X52108D01*
X52151Y141597D01*
X52279Y141429D01*
X52447Y141301D01*
X52641Y141221D01*
X52700Y141213D01*
Y141700D01*
D02*
G37*
G36*
X52700Y140787D02*
X52641Y140779D01*
X52447Y140699D01*
X52279Y140571D01*
X52151Y140403D01*
X52108Y140300D01*
X52700D01*
Y140787D01*
D02*
G37*
G36*
X90870Y140950D02*
X90730D01*
X90602Y140897D01*
X90503Y140798D01*
X90450Y140670D01*
Y140530D01*
X90503Y140402D01*
X90602Y140303D01*
X90730Y140250D01*
X90870D01*
X90998Y140303D01*
X91097Y140402D01*
X91150Y140530D01*
Y140670D01*
X91097Y140798D01*
X90998Y140897D01*
X90870Y140950D01*
D02*
G37*
G36*
X73270Y141350D02*
X73130D01*
X73002Y141297D01*
X72903Y141198D01*
X72850Y141070D01*
Y140930D01*
X72903Y140802D01*
X72905Y140800D01*
X72903Y140798D01*
X72850Y140670D01*
Y140530D01*
X72903Y140402D01*
X73002Y140303D01*
X73130Y140250D01*
X73270D01*
X73398Y140303D01*
X73497Y140402D01*
X73550Y140530D01*
Y140670D01*
X73497Y140798D01*
X73495Y140800D01*
X73497Y140802D01*
X73550Y140930D01*
Y141070D01*
X73497Y141198D01*
X73398Y141297D01*
X73270Y141350D01*
D02*
G37*
G36*
X72220D02*
X72080D01*
X71952Y141297D01*
X71853Y141198D01*
X71800Y141070D01*
Y140930D01*
X71853Y140802D01*
X71855Y140800D01*
X71853Y140798D01*
X71800Y140670D01*
Y140530D01*
X71853Y140402D01*
X71952Y140303D01*
X72080Y140250D01*
X72220D01*
X72348Y140303D01*
X72447Y140402D01*
X72500Y140530D01*
Y140670D01*
X72447Y140798D01*
X72445Y140800D01*
X72447Y140802D01*
X72500Y140930D01*
Y141070D01*
X72447Y141198D01*
X72348Y141297D01*
X72220Y141350D01*
D02*
G37*
G36*
X71220D02*
X71080D01*
X70952Y141297D01*
X70853Y141198D01*
X70800Y141070D01*
Y140930D01*
X70853Y140802D01*
X70855Y140800D01*
X70853Y140798D01*
X70800Y140670D01*
Y140530D01*
X70853Y140402D01*
X70952Y140303D01*
X71080Y140250D01*
X71220D01*
X71348Y140303D01*
X71447Y140402D01*
X71500Y140530D01*
Y140670D01*
X71447Y140798D01*
X71445Y140800D01*
X71447Y140802D01*
X71500Y140930D01*
Y141070D01*
X71447Y141198D01*
X71348Y141297D01*
X71220Y141350D01*
D02*
G37*
G36*
X55150Y140807D02*
X54850D01*
X54641Y140779D01*
X54447Y140699D01*
X54279Y140571D01*
X54151Y140403D01*
X54071Y140209D01*
X54064Y140159D01*
X53936D01*
X53929Y140209D01*
X53849Y140403D01*
X53721Y140571D01*
X53553Y140699D01*
X53359Y140779D01*
X53300Y140787D01*
Y140000D01*
Y139213D01*
X53359Y139221D01*
X53553Y139301D01*
X53721Y139429D01*
X53849Y139597D01*
X53929Y139791D01*
X53936Y139841D01*
X54064D01*
X54071Y139791D01*
X54151Y139597D01*
X54279Y139429D01*
X54447Y139301D01*
X54641Y139221D01*
X54850Y139193D01*
X55150D01*
X55359Y139221D01*
X55553Y139301D01*
X55721Y139429D01*
X55818Y139556D01*
X55967Y139586D01*
X58084Y137469D01*
Y136529D01*
X57967Y136480D01*
X56223Y138223D01*
X56121Y138292D01*
X56000Y138316D01*
X55885D01*
X55849Y138403D01*
X55721Y138571D01*
X55553Y138699D01*
X55359Y138779D01*
X55150Y138807D01*
X54850D01*
X54641Y138779D01*
X54447Y138699D01*
X54279Y138571D01*
X54151Y138403D01*
X54071Y138209D01*
X54064Y138159D01*
X53936D01*
X53929Y138209D01*
X53849Y138403D01*
X53721Y138571D01*
X53553Y138699D01*
X53359Y138779D01*
X53300Y138787D01*
Y138000D01*
Y137213D01*
X53359Y137221D01*
X53553Y137301D01*
X53721Y137429D01*
X53849Y137597D01*
X53929Y137791D01*
X53936Y137841D01*
X54064D01*
X54071Y137791D01*
X54151Y137597D01*
X54279Y137429D01*
X54447Y137301D01*
X54641Y137221D01*
X54850Y137193D01*
X55150D01*
X55359Y137221D01*
X55553Y137301D01*
X55721Y137429D01*
X55818Y137556D01*
X55967Y137586D01*
X57784Y135769D01*
Y134829D01*
X57667Y134780D01*
X56223Y136223D01*
X56121Y136292D01*
X56000Y136316D01*
X55885D01*
X55849Y136403D01*
X55721Y136571D01*
X55553Y136699D01*
X55359Y136779D01*
X55150Y136807D01*
X54850D01*
X54641Y136779D01*
X54447Y136699D01*
X54279Y136571D01*
X54151Y136403D01*
X54071Y136209D01*
X54064Y136159D01*
X53936D01*
X53929Y136209D01*
X53849Y136403D01*
X53721Y136571D01*
X53553Y136699D01*
X53359Y136779D01*
X53300Y136787D01*
Y136000D01*
Y135213D01*
X53359Y135221D01*
X53553Y135301D01*
X53721Y135429D01*
X53849Y135597D01*
X53929Y135791D01*
X53936Y135841D01*
X54064D01*
X54071Y135791D01*
X54151Y135597D01*
X54279Y135429D01*
X54447Y135301D01*
X54641Y135221D01*
X54850Y135193D01*
X55150D01*
X55359Y135221D01*
X55553Y135301D01*
X55721Y135429D01*
X55818Y135556D01*
X55967Y135586D01*
X57484Y134069D01*
Y133129D01*
X57367Y133080D01*
X56223Y134223D01*
X56121Y134292D01*
X56000Y134316D01*
X55885D01*
X55849Y134403D01*
X55721Y134571D01*
X55553Y134699D01*
X55359Y134779D01*
X55150Y134807D01*
X54850D01*
X54641Y134779D01*
X54447Y134699D01*
X54279Y134571D01*
X54151Y134403D01*
X54071Y134209D01*
X54064Y134159D01*
X53936D01*
X53929Y134209D01*
X53849Y134403D01*
X53721Y134571D01*
X53553Y134699D01*
X53359Y134779D01*
X53300Y134787D01*
Y134000D01*
Y133213D01*
X53359Y133221D01*
X53553Y133301D01*
X53721Y133429D01*
X53849Y133597D01*
X53929Y133791D01*
X53936Y133841D01*
X54064D01*
X54071Y133791D01*
X54151Y133597D01*
X54279Y133429D01*
X54447Y133301D01*
X54641Y133221D01*
X54850Y133193D01*
X55150D01*
X55359Y133221D01*
X55553Y133301D01*
X55721Y133429D01*
X55818Y133556D01*
X55967Y133586D01*
X57184Y132369D01*
Y121831D01*
X53992Y118638D01*
X53923Y118536D01*
X53899Y118415D01*
Y104406D01*
X53923Y104285D01*
X53992Y104183D01*
X54564Y103610D01*
X54567Y103607D01*
X54807Y103367D01*
X54819Y103358D01*
X54901Y103276D01*
X54984Y103221D01*
X55002Y103203D01*
X55130Y103150D01*
X55270D01*
X55398Y103203D01*
X55497Y103302D01*
X55550Y103430D01*
Y103570D01*
X55497Y103698D01*
X55445Y103750D01*
X55497Y103802D01*
X55550Y103930D01*
Y104070D01*
X55497Y104198D01*
X55445Y104250D01*
X55497Y104302D01*
X55550Y104430D01*
Y104570D01*
X55497Y104698D01*
X55445Y104750D01*
X55497Y104802D01*
X55550Y104930D01*
Y105070D01*
X55497Y105198D01*
X55468Y105227D01*
X55424Y105294D01*
X55376Y105341D01*
Y117929D01*
X58624Y121176D01*
X58692Y121279D01*
X58716Y121400D01*
Y137600D01*
X58692Y137721D01*
X58624Y137824D01*
X56223Y140223D01*
X56121Y140292D01*
X56000Y140316D01*
X55885D01*
X55849Y140403D01*
X55721Y140571D01*
X55553Y140699D01*
X55359Y140779D01*
X55150Y140807D01*
D02*
G37*
G36*
X52700Y139700D02*
X52108D01*
X52151Y139597D01*
X52279Y139429D01*
X52447Y139301D01*
X52641Y139221D01*
X52700Y139213D01*
Y139700D01*
D02*
G37*
G36*
X52700Y138787D02*
X52641Y138779D01*
X52447Y138699D01*
X52279Y138571D01*
X52151Y138403D01*
X52108Y138300D01*
X52700D01*
Y138787D01*
D02*
G37*
G36*
Y137700D02*
X52108D01*
X52151Y137597D01*
X52279Y137429D01*
X52447Y137301D01*
X52641Y137221D01*
X52700Y137213D01*
Y137700D01*
D02*
G37*
G36*
X74920Y138200D02*
X74780D01*
X74652Y138147D01*
X74553Y138048D01*
X74500Y137920D01*
Y137780D01*
X74553Y137652D01*
X74605Y137600D01*
X74553Y137548D01*
X74500Y137420D01*
Y137280D01*
X74553Y137152D01*
X74652Y137053D01*
X74780Y137000D01*
X74920D01*
X75048Y137053D01*
X75147Y137152D01*
X75200Y137280D01*
Y137420D01*
X75147Y137548D01*
X75095Y137600D01*
X75147Y137652D01*
X75200Y137780D01*
Y137920D01*
X75147Y138048D01*
X75048Y138147D01*
X74920Y138200D01*
D02*
G37*
G36*
X69420Y139200D02*
X69280D01*
X69198Y139166D01*
X68550D01*
X68429Y139142D01*
X68326Y139073D01*
X63676Y134423D01*
X63608Y134321D01*
X63584Y134200D01*
Y125631D01*
X57016Y119063D01*
X56948Y118961D01*
X56924Y118840D01*
Y110760D01*
X56948Y110639D01*
X57016Y110536D01*
X58169Y109384D01*
X58203Y109302D01*
X58302Y109203D01*
X58430Y109150D01*
X58570D01*
X58698Y109203D01*
X58797Y109302D01*
X58850Y109430D01*
Y109570D01*
X58797Y109698D01*
X58698Y109797D01*
X58616Y109831D01*
X57556Y110891D01*
Y117800D01*
X57630Y117850D01*
X57770D01*
X57898Y117903D01*
X57950Y117955D01*
X58002Y117903D01*
X58130Y117850D01*
X58270D01*
X58398Y117903D01*
X58450Y117955D01*
X58502Y117903D01*
X58630Y117850D01*
X58770D01*
X58898Y117903D01*
X58950Y117955D01*
X59002Y117903D01*
X59130Y117850D01*
X59270D01*
X59398Y117903D01*
X59497Y118002D01*
X59550Y118130D01*
Y118270D01*
X59516Y118352D01*
Y119142D01*
X65203Y124829D01*
X65272Y124932D01*
X65296Y125053D01*
Y133567D01*
X68263Y136534D01*
X69198D01*
X69280Y136500D01*
X69420D01*
X69548Y136553D01*
X69647Y136652D01*
X69700Y136780D01*
Y136920D01*
X69647Y137048D01*
X69595Y137100D01*
X69647Y137152D01*
X69700Y137280D01*
Y137420D01*
X69647Y137548D01*
X69595Y137600D01*
X69647Y137652D01*
X69700Y137780D01*
Y137920D01*
X69647Y138048D01*
X69595Y138100D01*
X69647Y138152D01*
X69700Y138280D01*
Y138420D01*
X69647Y138548D01*
X69595Y138600D01*
X69647Y138652D01*
X69700Y138780D01*
Y138920D01*
X69647Y139048D01*
X69548Y139147D01*
X69420Y139200D01*
D02*
G37*
G36*
X52700Y136787D02*
X52641Y136779D01*
X52447Y136699D01*
X52279Y136571D01*
X52151Y136403D01*
X52108Y136300D01*
X52700D01*
Y136787D01*
D02*
G37*
G36*
X90870Y136950D02*
X90730D01*
X90602Y136897D01*
X90503Y136798D01*
X90450Y136670D01*
Y136530D01*
X90503Y136402D01*
X90602Y136303D01*
X90730Y136250D01*
X90870D01*
X90998Y136303D01*
X91097Y136402D01*
X91150Y136530D01*
Y136670D01*
X91097Y136798D01*
X90998Y136897D01*
X90870Y136950D01*
D02*
G37*
G36*
X69470Y136200D02*
X69330D01*
X69202Y136147D01*
X69200Y136145D01*
X69198Y136147D01*
X69070Y136200D01*
X68930D01*
X68802Y136147D01*
X68703Y136048D01*
X68650Y135920D01*
Y135780D01*
X68703Y135652D01*
X68802Y135553D01*
X68930Y135500D01*
X69070D01*
X69198Y135553D01*
X69200Y135555D01*
X69202Y135553D01*
X69330Y135500D01*
X69470D01*
X69598Y135553D01*
X69697Y135652D01*
X69750Y135780D01*
Y135920D01*
X69697Y136048D01*
X69598Y136147D01*
X69470Y136200D01*
D02*
G37*
G36*
X73225Y139680D02*
X70931D01*
X70833Y139660D01*
X70751Y139605D01*
X70395Y139249D01*
X70340Y139167D01*
X70320Y139069D01*
Y135775D01*
X70340Y135677D01*
X70395Y135595D01*
X70477Y135540D01*
X70575Y135520D01*
X73225D01*
X73323Y135540D01*
X73405Y135595D01*
X73461Y135677D01*
X73480Y135775D01*
Y139425D01*
X73461Y139523D01*
X73405Y139605D01*
X73323Y139660D01*
X73225Y139680D01*
D02*
G37*
G36*
X90870Y135950D02*
X90730D01*
X90602Y135897D01*
X90503Y135798D01*
X90450Y135670D01*
Y135530D01*
X90503Y135402D01*
X90602Y135303D01*
X90730Y135250D01*
X90870D01*
X90998Y135303D01*
X91097Y135402D01*
X91150Y135530D01*
Y135670D01*
X91097Y135798D01*
X90998Y135897D01*
X90870Y135950D01*
D02*
G37*
G36*
X52700Y135700D02*
X52108D01*
X52151Y135597D01*
X52279Y135429D01*
X52447Y135301D01*
X52641Y135221D01*
X52700Y135213D01*
Y135700D01*
D02*
G37*
G36*
X52700Y134787D02*
X52641Y134779D01*
X52447Y134699D01*
X52279Y134571D01*
X52151Y134403D01*
X52108Y134300D01*
X52700D01*
Y134787D01*
D02*
G37*
G36*
X72720Y134950D02*
X72580D01*
X72452Y134897D01*
X72353Y134798D01*
X72300Y134670D01*
Y134530D01*
X72353Y134402D01*
X72355Y134400D01*
X72353Y134398D01*
X72300Y134270D01*
Y134130D01*
X72353Y134002D01*
X72452Y133903D01*
X72580Y133850D01*
X72720D01*
X72848Y133903D01*
X72947Y134002D01*
X73000Y134130D01*
Y134270D01*
X72947Y134398D01*
X72945Y134400D01*
X72947Y134402D01*
X73000Y134530D01*
Y134670D01*
X72947Y134798D01*
X72848Y134897D01*
X72720Y134950D01*
D02*
G37*
G36*
X52700Y133700D02*
X52108D01*
X52151Y133597D01*
X52279Y133429D01*
X52447Y133301D01*
X52641Y133221D01*
X52700Y133213D01*
Y133700D01*
D02*
G37*
G36*
X73820Y133350D02*
X73680D01*
X73552Y133297D01*
X73453Y133198D01*
X73400Y133070D01*
Y132930D01*
X73453Y132802D01*
X73552Y132703D01*
X73680Y132650D01*
X73820D01*
X73948Y132703D01*
X74047Y132802D01*
X74100Y132930D01*
Y133070D01*
X74047Y133198D01*
X73948Y133297D01*
X73820Y133350D01*
D02*
G37*
G36*
X70120D02*
X69980D01*
X69852Y133297D01*
X69753Y133198D01*
X69700Y133070D01*
Y132930D01*
X69753Y132802D01*
X69852Y132703D01*
X69980Y132650D01*
X70120D01*
X70248Y132703D01*
X70347Y132802D01*
X70400Y132930D01*
Y133070D01*
X70347Y133198D01*
X70248Y133297D01*
X70120Y133350D01*
D02*
G37*
G36*
X52700Y132787D02*
X52641Y132779D01*
X52447Y132699D01*
X52279Y132571D01*
X52151Y132403D01*
X52108Y132300D01*
X52700D01*
Y132787D01*
D02*
G37*
G36*
X55150Y132807D02*
X54850D01*
X54641Y132779D01*
X54447Y132699D01*
X54279Y132571D01*
X54151Y132403D01*
X54071Y132209D01*
X54064Y132159D01*
X53936D01*
X53929Y132209D01*
X53849Y132403D01*
X53721Y132571D01*
X53553Y132699D01*
X53359Y132779D01*
X53300Y132787D01*
Y132000D01*
Y131213D01*
X53359Y131221D01*
X53553Y131301D01*
X53721Y131429D01*
X53849Y131597D01*
X53929Y131791D01*
X53936Y131841D01*
X54064D01*
X54071Y131791D01*
X54151Y131597D01*
X54279Y131429D01*
X54447Y131301D01*
X54641Y131221D01*
X54850Y131193D01*
X55150D01*
X55359Y131221D01*
X55553Y131301D01*
X55721Y131429D01*
X55849Y131597D01*
X55929Y131791D01*
X55957Y132000D01*
X55929Y132209D01*
X55849Y132403D01*
X55721Y132571D01*
X55553Y132699D01*
X55359Y132779D01*
X55150Y132807D01*
D02*
G37*
G36*
X52700Y131700D02*
X52108D01*
X52151Y131597D01*
X52279Y131429D01*
X52447Y131301D01*
X52641Y131221D01*
X52700Y131213D01*
Y131700D01*
D02*
G37*
G36*
X95070Y131425D02*
X94930D01*
X94802Y131372D01*
X94703Y131273D01*
X94650Y131145D01*
Y131005D01*
X94703Y130877D01*
X94802Y130778D01*
X94930Y130725D01*
X95070D01*
X95198Y130778D01*
X95297Y130877D01*
X95350Y131005D01*
Y131145D01*
X95297Y131273D01*
X95198Y131372D01*
X95070Y131425D01*
D02*
G37*
G36*
X91870D02*
X91730D01*
X91602Y131372D01*
X91503Y131273D01*
X91450Y131145D01*
Y131005D01*
X91503Y130877D01*
X91602Y130778D01*
X91730Y130725D01*
X91870D01*
X91998Y130778D01*
X92097Y130877D01*
X92150Y131005D01*
Y131145D01*
X92097Y131273D01*
X91998Y131372D01*
X91870Y131425D01*
D02*
G37*
G36*
X86070D02*
X85930D01*
X85802Y131372D01*
X85703Y131273D01*
X85650Y131145D01*
Y131005D01*
X85703Y130877D01*
X85802Y130778D01*
X85930Y130725D01*
X86070D01*
X86198Y130778D01*
X86297Y130877D01*
X86350Y131005D01*
Y131145D01*
X86297Y131273D01*
X86198Y131372D01*
X86070Y131425D01*
D02*
G37*
G36*
X82870D02*
X82730D01*
X82602Y131372D01*
X82503Y131273D01*
X82450Y131145D01*
Y131005D01*
X82503Y130877D01*
X82602Y130778D01*
X82730Y130725D01*
X82870D01*
X82998Y130778D01*
X83097Y130877D01*
X83150Y131005D01*
Y131145D01*
X83097Y131273D01*
X82998Y131372D01*
X82870Y131425D01*
D02*
G37*
G36*
X52700Y130787D02*
X52641Y130779D01*
X52447Y130699D01*
X52279Y130571D01*
X52151Y130403D01*
X52108Y130300D01*
X52700D01*
Y130787D01*
D02*
G37*
G36*
X55150Y130807D02*
X54850D01*
X54641Y130779D01*
X54447Y130699D01*
X54279Y130571D01*
X54151Y130403D01*
X54071Y130209D01*
X54064Y130159D01*
X53936D01*
X53929Y130209D01*
X53849Y130403D01*
X53721Y130571D01*
X53553Y130699D01*
X53359Y130779D01*
X53300Y130787D01*
Y130000D01*
Y129213D01*
X53359Y129221D01*
X53553Y129301D01*
X53721Y129429D01*
X53849Y129597D01*
X53929Y129791D01*
X53936Y129841D01*
X54064D01*
X54071Y129791D01*
X54151Y129597D01*
X54279Y129429D01*
X54447Y129301D01*
X54641Y129221D01*
X54850Y129193D01*
X55150D01*
X55359Y129221D01*
X55553Y129301D01*
X55721Y129429D01*
X55849Y129597D01*
X55929Y129791D01*
X55957Y130000D01*
X55929Y130209D01*
X55849Y130403D01*
X55721Y130571D01*
X55553Y130699D01*
X55359Y130779D01*
X55150Y130807D01*
D02*
G37*
G36*
X66090Y130450D02*
X65910D01*
X65745Y130381D01*
X65619Y130255D01*
X65550Y130090D01*
Y129910D01*
X65619Y129745D01*
X65745Y129619D01*
X65910Y129550D01*
X66090D01*
X66255Y129619D01*
X66381Y129745D01*
X66450Y129910D01*
Y130090D01*
X66381Y130255D01*
X66255Y130381D01*
X66090Y130450D01*
D02*
G37*
G36*
X52700Y129700D02*
X52108D01*
X52151Y129597D01*
X52279Y129429D01*
X52447Y129301D01*
X52641Y129221D01*
X52700Y129213D01*
Y129700D01*
D02*
G37*
G36*
X73820Y130250D02*
X73680D01*
X73552Y130197D01*
X73453Y130098D01*
X73400Y129970D01*
Y129830D01*
X73453Y129702D01*
X73455Y129700D01*
X73453Y129698D01*
X73400Y129570D01*
Y129430D01*
X73453Y129302D01*
X73552Y129203D01*
X73680Y129150D01*
X73820D01*
X73948Y129203D01*
X74047Y129302D01*
X74100Y129430D01*
Y129570D01*
X74047Y129698D01*
X74045Y129700D01*
X74047Y129702D01*
X74100Y129830D01*
Y129970D01*
X74047Y130098D01*
X73948Y130197D01*
X73820Y130250D01*
D02*
G37*
G36*
X72520Y129800D02*
X72380D01*
X72252Y129747D01*
X72153Y129648D01*
X72100Y129520D01*
Y129380D01*
X72153Y129252D01*
X72252Y129153D01*
X72380Y129100D01*
X72520D01*
X72648Y129153D01*
X72747Y129252D01*
X72800Y129380D01*
Y129520D01*
X72747Y129648D01*
X72648Y129747D01*
X72520Y129800D01*
D02*
G37*
G36*
X71420D02*
X71280D01*
X71152Y129747D01*
X71053Y129648D01*
X71000Y129520D01*
Y129380D01*
X71053Y129252D01*
X71152Y129153D01*
X71280Y129100D01*
X71420D01*
X71548Y129153D01*
X71647Y129252D01*
X71700Y129380D01*
Y129520D01*
X71647Y129648D01*
X71548Y129747D01*
X71420Y129800D01*
D02*
G37*
G36*
X95070Y124125D02*
X94930D01*
X94802Y124072D01*
X94703Y123973D01*
X94650Y123845D01*
Y123705D01*
X94703Y123577D01*
X94802Y123478D01*
X94930Y123425D01*
X95070D01*
X95198Y123478D01*
X95297Y123577D01*
X95350Y123705D01*
Y123845D01*
X95297Y123973D01*
X95198Y124072D01*
X95070Y124125D01*
D02*
G37*
G36*
X91870D02*
X91730D01*
X91602Y124072D01*
X91503Y123973D01*
X91450Y123845D01*
Y123705D01*
X91503Y123577D01*
X91602Y123478D01*
X91730Y123425D01*
X91870D01*
X91998Y123478D01*
X92097Y123577D01*
X92150Y123705D01*
Y123845D01*
X92097Y123973D01*
X91998Y124072D01*
X91870Y124125D01*
D02*
G37*
G36*
X86070D02*
X85930D01*
X85802Y124072D01*
X85703Y123973D01*
X85650Y123845D01*
Y123705D01*
X85703Y123577D01*
X85802Y123478D01*
X85930Y123425D01*
X86070D01*
X86198Y123478D01*
X86297Y123577D01*
X86350Y123705D01*
Y123845D01*
X86297Y123973D01*
X86198Y124072D01*
X86070Y124125D01*
D02*
G37*
G36*
X82870D02*
X82730D01*
X82602Y124072D01*
X82503Y123973D01*
X82450Y123845D01*
Y123705D01*
X82503Y123577D01*
X82602Y123478D01*
X82730Y123425D01*
X82870D01*
X82998Y123478D01*
X83097Y123577D01*
X83150Y123705D01*
Y123845D01*
X83097Y123973D01*
X82998Y124072D01*
X82870Y124125D01*
D02*
G37*
G36*
X87690Y124275D02*
X87510D01*
X87345Y124206D01*
X87219Y124080D01*
X87150Y123915D01*
Y123735D01*
X87219Y123570D01*
X87264Y123525D01*
X87219Y123480D01*
X87150Y123315D01*
Y123135D01*
X87219Y122970D01*
X87345Y122844D01*
X87510Y122775D01*
X87690D01*
X87855Y122844D01*
X87981Y122970D01*
X88050Y123135D01*
Y123315D01*
X87981Y123480D01*
X87936Y123525D01*
X87981Y123570D01*
X88050Y123735D01*
Y123915D01*
X87981Y124080D01*
X87855Y124206D01*
X87690Y124275D01*
D02*
G37*
G36*
X96470Y118575D02*
X96330D01*
X96202Y118522D01*
X96103Y118423D01*
X96050Y118295D01*
Y118155D01*
X96103Y118027D01*
X96202Y117928D01*
X96330Y117875D01*
X96470D01*
X96598Y117928D01*
X96697Y118027D01*
X96750Y118155D01*
Y118295D01*
X96697Y118423D01*
X96598Y118522D01*
X96470Y118575D01*
D02*
G37*
G36*
X81470D02*
X81330D01*
X81202Y118522D01*
X81103Y118423D01*
X81050Y118295D01*
Y118155D01*
X81103Y118027D01*
X81202Y117928D01*
X81330Y117875D01*
X81470D01*
X81598Y117928D01*
X81697Y118027D01*
X81750Y118155D01*
Y118295D01*
X81697Y118423D01*
X81598Y118522D01*
X81470Y118575D01*
D02*
G37*
G36*
X90220Y115800D02*
X90080D01*
X89952Y115747D01*
X89853Y115648D01*
X89800Y115520D01*
Y115380D01*
X89853Y115252D01*
X89952Y115153D01*
X90080Y115100D01*
X90220D01*
X90348Y115153D01*
X90447Y115252D01*
X90500Y115380D01*
Y115520D01*
X90447Y115648D01*
X90348Y115747D01*
X90220Y115800D01*
D02*
G37*
G36*
X85365Y114150D02*
X85185D01*
X85020Y114081D01*
X84975Y114036D01*
X84930Y114081D01*
X84765Y114150D01*
X84585D01*
X84420Y114081D01*
X84294Y113955D01*
X84225Y113790D01*
Y113610D01*
X84294Y113445D01*
X84420Y113319D01*
X84585Y113250D01*
X84765D01*
X84930Y113319D01*
X84975Y113364D01*
X85020Y113319D01*
X85185Y113250D01*
X85365D01*
X85530Y113319D01*
X85656Y113445D01*
X85725Y113610D01*
Y113790D01*
X85656Y113955D01*
X85530Y114081D01*
X85365Y114150D01*
D02*
G37*
G36*
X60120Y116650D02*
X59980D01*
X59852Y116597D01*
X59753Y116498D01*
X59700Y116370D01*
Y116230D01*
X59734Y116148D01*
Y114950D01*
X59758Y114829D01*
X59826Y114727D01*
X62169Y112384D01*
X62203Y112302D01*
X62302Y112203D01*
X62430Y112150D01*
X62570D01*
X62698Y112203D01*
X62797Y112302D01*
X62850Y112430D01*
Y112570D01*
X62797Y112698D01*
X62698Y112797D01*
X62616Y112831D01*
X60366Y115081D01*
Y116148D01*
X60400Y116230D01*
Y116370D01*
X60347Y116498D01*
X60248Y116597D01*
X60120Y116650D01*
D02*
G37*
G36*
X60570Y112850D02*
X60430D01*
X60302Y112797D01*
X60203Y112698D01*
X60150Y112570D01*
Y112430D01*
X60203Y112302D01*
X60302Y112203D01*
X60430Y112150D01*
X60570D01*
X60698Y112203D01*
X60797Y112302D01*
X60850Y112430D01*
Y112570D01*
X60797Y112698D01*
X60698Y112797D01*
X60570Y112850D01*
D02*
G37*
G36*
X71945Y116592D02*
X71805D01*
X71677Y116539D01*
X71578Y116440D01*
X71544Y116358D01*
X67002Y111816D01*
X63652D01*
X63570Y111850D01*
X63430D01*
X63302Y111797D01*
X63203Y111698D01*
X63150Y111570D01*
Y111430D01*
X63203Y111302D01*
X63302Y111203D01*
X63430Y111150D01*
X63570D01*
X63652Y111184D01*
X67133D01*
X67254Y111208D01*
X67356Y111276D01*
X71991Y115911D01*
X72073Y115945D01*
X72172Y116044D01*
X72225Y116172D01*
Y116312D01*
X72172Y116440D01*
X72073Y116539D01*
X71945Y116592D01*
D02*
G37*
G36*
X69570Y111850D02*
X69430D01*
X69302Y111797D01*
X69203Y111698D01*
X69150Y111570D01*
Y111430D01*
X69203Y111302D01*
X69302Y111203D01*
X69430Y111150D01*
X69570D01*
X69698Y111203D01*
X69797Y111302D01*
X69850Y111430D01*
Y111570D01*
X69797Y111698D01*
X69698Y111797D01*
X69570Y111850D01*
D02*
G37*
G36*
X71570Y110850D02*
X71430D01*
X71302Y110797D01*
X71203Y110698D01*
X71150Y110570D01*
Y110430D01*
X71203Y110302D01*
X71302Y110203D01*
X71430Y110150D01*
X71570D01*
X71698Y110203D01*
X71797Y110302D01*
X71850Y110430D01*
Y110570D01*
X71797Y110698D01*
X71698Y110797D01*
X71570Y110850D01*
D02*
G37*
G36*
X68620Y109850D02*
X68480D01*
X68352Y109797D01*
X68253Y109698D01*
X68200Y109570D01*
Y109430D01*
X68253Y109302D01*
X68352Y109203D01*
X68480Y109150D01*
X68620D01*
X68748Y109203D01*
X68847Y109302D01*
X68900Y109430D01*
Y109570D01*
X68847Y109698D01*
X68748Y109797D01*
X68620Y109850D01*
D02*
G37*
G36*
X67570D02*
X67430D01*
X67302Y109797D01*
X67203Y109698D01*
X67150Y109570D01*
Y109430D01*
X67203Y109302D01*
X67302Y109203D01*
X67430Y109150D01*
X67570D01*
X67698Y109203D01*
X67797Y109302D01*
X67850Y109430D01*
Y109570D01*
X67797Y109698D01*
X67698Y109797D01*
X67570Y109850D01*
D02*
G37*
G36*
X65570D02*
X65430D01*
X65302Y109797D01*
X65203Y109698D01*
X65150Y109570D01*
Y109430D01*
X65203Y109302D01*
X65302Y109203D01*
X65430Y109150D01*
X65570D01*
X65698Y109203D01*
X65797Y109302D01*
X65850Y109430D01*
Y109570D01*
X65797Y109698D01*
X65698Y109797D01*
X65570Y109850D01*
D02*
G37*
G36*
X64570D02*
X64430D01*
X64302Y109797D01*
X64203Y109698D01*
X64150Y109570D01*
Y109430D01*
X64203Y109302D01*
X64302Y109203D01*
X64430Y109150D01*
X64570D01*
X64698Y109203D01*
X64797Y109302D01*
X64850Y109430D01*
Y109570D01*
X64797Y109698D01*
X64698Y109797D01*
X64570Y109850D01*
D02*
G37*
G36*
X69570Y108850D02*
X69430D01*
X69302Y108797D01*
X69203Y108698D01*
X69150Y108570D01*
Y108430D01*
X69203Y108302D01*
X69302Y108203D01*
X69430Y108150D01*
X69570D01*
X69698Y108203D01*
X69797Y108302D01*
X69850Y108430D01*
Y108570D01*
X69797Y108698D01*
X69698Y108797D01*
X69570Y108850D01*
D02*
G37*
G36*
X63570D02*
X63430D01*
X63302Y108797D01*
X63203Y108698D01*
X63150Y108570D01*
Y108430D01*
X63203Y108302D01*
X63302Y108203D01*
X63430Y108150D01*
X63570D01*
X63698Y108203D01*
X63797Y108302D01*
X63850Y108430D01*
Y108570D01*
X63797Y108698D01*
X63698Y108797D01*
X63570Y108850D01*
D02*
G37*
G36*
X69570Y107850D02*
X69430D01*
X69302Y107797D01*
X69203Y107698D01*
X69150Y107570D01*
Y107430D01*
X69203Y107302D01*
X69302Y107203D01*
X69430Y107150D01*
X69570D01*
X69698Y107203D01*
X69797Y107302D01*
X69850Y107430D01*
Y107570D01*
X69797Y107698D01*
X69698Y107797D01*
X69570Y107850D01*
D02*
G37*
G36*
X63570D02*
X63430D01*
X63302Y107797D01*
X63203Y107698D01*
X63150Y107570D01*
Y107430D01*
X63203Y107302D01*
X63302Y107203D01*
X63430Y107150D01*
X63570D01*
X63698Y107203D01*
X63797Y107302D01*
X63850Y107430D01*
Y107570D01*
X63797Y107698D01*
X63698Y107797D01*
X63570Y107850D01*
D02*
G37*
G36*
X69570Y105850D02*
X69430D01*
X69302Y105797D01*
X69203Y105698D01*
X69150Y105570D01*
Y105430D01*
X69203Y105302D01*
X69302Y105203D01*
X69430Y105150D01*
X69570D01*
X69698Y105203D01*
X69797Y105302D01*
X69850Y105430D01*
Y105570D01*
X69797Y105698D01*
X69698Y105797D01*
X69570Y105850D01*
D02*
G37*
G36*
X63570D02*
X63430D01*
X63302Y105797D01*
X63203Y105698D01*
X63150Y105570D01*
Y105430D01*
X63203Y105302D01*
X63302Y105203D01*
X63430Y105150D01*
X63570D01*
X63698Y105203D01*
X63797Y105302D01*
X63850Y105430D01*
Y105570D01*
X63797Y105698D01*
X63698Y105797D01*
X63570Y105850D01*
D02*
G37*
G36*
X73570Y104850D02*
X73430D01*
X73302Y104797D01*
X73203Y104698D01*
X73169Y104616D01*
X72869Y104316D01*
X69893D01*
X69850Y104380D01*
Y104520D01*
X69797Y104648D01*
X69698Y104747D01*
X69570Y104800D01*
X69430D01*
X69302Y104747D01*
X69203Y104648D01*
X69150Y104520D01*
Y104380D01*
X69107Y104316D01*
X63917D01*
X63846Y104422D01*
X63850Y104430D01*
Y104570D01*
X63797Y104698D01*
X63698Y104797D01*
X63570Y104850D01*
X63430D01*
X63302Y104797D01*
X63203Y104698D01*
X63150Y104570D01*
Y104430D01*
X63154Y104422D01*
X63083Y104316D01*
X57252D01*
X57170Y104350D01*
X57030D01*
X56902Y104297D01*
X56803Y104198D01*
X56750Y104070D01*
Y103930D01*
X56803Y103802D01*
X56902Y103703D01*
X57030Y103650D01*
X57170D01*
X57252Y103684D01*
X64083D01*
X64154Y103578D01*
X64150Y103570D01*
Y103430D01*
X64203Y103302D01*
X64302Y103203D01*
X64430Y103150D01*
X64570D01*
X64698Y103203D01*
X64797Y103302D01*
X64850Y103430D01*
Y103570D01*
X64846Y103578D01*
X64917Y103684D01*
X65083D01*
X65154Y103578D01*
X65150Y103570D01*
Y103430D01*
X65203Y103302D01*
X65302Y103203D01*
X65430Y103150D01*
X65570D01*
X65698Y103203D01*
X65797Y103302D01*
X65850Y103430D01*
Y103570D01*
X65846Y103578D01*
X65917Y103684D01*
X67083D01*
X67154Y103578D01*
X67150Y103570D01*
Y103430D01*
X67203Y103302D01*
X67302Y103203D01*
X67430Y103150D01*
X67570D01*
X67698Y103203D01*
X67797Y103302D01*
X67850Y103430D01*
Y103570D01*
X67846Y103578D01*
X67917Y103684D01*
X73000D01*
X73121Y103708D01*
X73223Y103776D01*
X73616Y104169D01*
X73698Y104203D01*
X73797Y104302D01*
X73850Y104430D01*
Y104570D01*
X73797Y104698D01*
X73698Y104797D01*
X73570Y104850D01*
D02*
G37*
G36*
X71570Y102850D02*
X71430D01*
X71302Y102797D01*
X71203Y102698D01*
X71150Y102570D01*
Y102430D01*
X71203Y102302D01*
X71302Y102203D01*
X71430Y102150D01*
X71570D01*
X71698Y102203D01*
X71797Y102302D01*
X71850Y102430D01*
Y102570D01*
X71797Y102698D01*
X71698Y102797D01*
X71570Y102850D01*
D02*
G37*
G36*
X81840Y103050D02*
X81660D01*
X81495Y102981D01*
X81369Y102855D01*
X81300Y102690D01*
Y102510D01*
X81369Y102345D01*
X81414Y102300D01*
X81369Y102255D01*
X81300Y102090D01*
Y101910D01*
X81369Y101745D01*
X81495Y101619D01*
X81660Y101550D01*
X81840D01*
X82005Y101619D01*
X82131Y101745D01*
X82200Y101910D01*
Y102090D01*
X82131Y102255D01*
X82086Y102300D01*
X82131Y102345D01*
X82200Y102510D01*
Y102690D01*
X82131Y102855D01*
X82005Y102981D01*
X81840Y103050D01*
D02*
G37*
G36*
X64570Y101850D02*
X64430D01*
X64302Y101797D01*
X64203Y101698D01*
X64150Y101570D01*
Y101430D01*
X64203Y101302D01*
X64302Y101203D01*
X64430Y101150D01*
X64570D01*
X64698Y101203D01*
X64797Y101302D01*
X64850Y101430D01*
Y101570D01*
X64797Y101698D01*
X64698Y101797D01*
X64570Y101850D01*
D02*
G37*
G36*
X91020Y101877D02*
X90841D01*
X90676Y101808D01*
X90549Y101682D01*
X90480Y101516D01*
Y101452D01*
X90417D01*
X90251Y101384D01*
X90125Y101257D01*
X90056Y101092D01*
Y100913D01*
X90125Y100747D01*
X90251Y100621D01*
X90417Y100552D01*
X90596D01*
X90761Y100621D01*
X90888Y100747D01*
X90956Y100913D01*
Y100977D01*
X91020D01*
X91185Y101045D01*
X91312Y101172D01*
X91380Y101337D01*
Y101516D01*
X91312Y101682D01*
X91185Y101808D01*
X91020Y101877D01*
D02*
G37*
G36*
X73570Y98850D02*
X73430D01*
X73302Y98797D01*
X73203Y98698D01*
X73150Y98570D01*
Y98430D01*
X73177Y98366D01*
Y98158D01*
X73059Y98109D01*
X72832Y98337D01*
Y98387D01*
X72850Y98430D01*
Y98570D01*
X72797Y98698D01*
X72698Y98797D01*
X72570Y98850D01*
X72430D01*
X72302Y98797D01*
X72203Y98698D01*
X72150Y98570D01*
Y98430D01*
X72169Y98384D01*
Y98199D01*
X72194Y98073D01*
X72266Y97965D01*
X80064Y90167D01*
X80063Y90163D01*
X80002Y90050D01*
X79860D01*
X79695Y89981D01*
X79650Y89936D01*
X79605Y89981D01*
X79440Y90050D01*
X79260D01*
X79095Y89981D01*
X79050Y89936D01*
X79005Y89981D01*
X78840Y90050D01*
X78660D01*
X78495Y89981D01*
X78369Y89855D01*
X78300Y89690D01*
Y89510D01*
X78369Y89345D01*
X78495Y89219D01*
X78660Y89150D01*
X78840D01*
X79005Y89219D01*
X79050Y89264D01*
X79095Y89219D01*
X79260Y89150D01*
X79440D01*
X79605Y89219D01*
X79650Y89264D01*
X79695Y89219D01*
X79860Y89150D01*
X80040D01*
X80205Y89219D01*
X80331Y89345D01*
X80400Y89510D01*
Y89652D01*
X80513Y89713D01*
X80517Y89714D01*
X88923Y81308D01*
X89031Y81236D01*
X89158Y81211D01*
X90520D01*
X91214Y80517D01*
X91211Y80504D01*
X91152Y80400D01*
X91008D01*
X90843Y80331D01*
X90716Y80205D01*
X90648Y80039D01*
Y79860D01*
X90716Y79695D01*
X90843Y79568D01*
X91008Y79500D01*
X91072D01*
Y79436D01*
X91140Y79270D01*
X91267Y79144D01*
X91432Y79075D01*
X91611D01*
X91777Y79144D01*
X91903Y79270D01*
X91956Y79398D01*
X92089Y79444D01*
X92439Y79094D01*
X92458Y79049D01*
X92556Y78951D01*
X92685Y78898D01*
X92824D01*
X92953Y78951D01*
X93051Y79049D01*
X93104Y79178D01*
Y79251D01*
X93178D01*
X93306Y79304D01*
X93405Y79403D01*
X93458Y79531D01*
Y79671D01*
X93405Y79799D01*
X93306Y79898D01*
X93261Y79916D01*
X91043Y82134D01*
X90936Y82206D01*
X90809Y82231D01*
X89437D01*
X73839Y97829D01*
Y98405D01*
X73850Y98430D01*
Y98570D01*
X73797Y98698D01*
X73698Y98797D01*
X73570Y98850D01*
D02*
G37*
G36*
X62190Y93300D02*
X62010D01*
X61845Y93231D01*
X61775Y93161D01*
X61705Y93231D01*
X61540Y93300D01*
X61360D01*
X61195Y93231D01*
X61125Y93161D01*
X61055Y93231D01*
X60890Y93300D01*
X60710D01*
X60545Y93231D01*
X60419Y93105D01*
X60350Y92940D01*
Y92760D01*
X60419Y92595D01*
X60545Y92469D01*
X60710Y92400D01*
X60890D01*
X61055Y92469D01*
X61125Y92539D01*
X61195Y92469D01*
X61360Y92400D01*
X61540D01*
X61705Y92469D01*
X61775Y92539D01*
X61845Y92469D01*
X62010Y92400D01*
X62190D01*
X62355Y92469D01*
X62481Y92595D01*
X62550Y92760D01*
Y92940D01*
X62481Y93105D01*
X62355Y93231D01*
X62190Y93300D01*
D02*
G37*
G36*
X94190Y92150D02*
X94010D01*
X93845Y92081D01*
X93719Y91955D01*
X93650Y91790D01*
Y91610D01*
X93719Y91445D01*
X93764Y91400D01*
X93719Y91355D01*
X93650Y91190D01*
Y91010D01*
X93719Y90845D01*
X93845Y90719D01*
X94010Y90650D01*
X94190D01*
X94355Y90719D01*
X94481Y90845D01*
X94550Y91010D01*
Y91190D01*
X94481Y91355D01*
X94436Y91400D01*
X94481Y91445D01*
X94550Y91610D01*
Y91790D01*
X94481Y91955D01*
X94355Y92081D01*
X94190Y92150D01*
D02*
G37*
G36*
X68495Y89500D02*
X68355D01*
X68227Y89447D01*
X68128Y89348D01*
X68075Y89220D01*
Y89080D01*
X68128Y88952D01*
X68227Y88853D01*
X68355Y88800D01*
X68495D01*
X68623Y88853D01*
X68722Y88952D01*
X68775Y89080D01*
Y89220D01*
X68722Y89348D01*
X68623Y89447D01*
X68495Y89500D01*
D02*
G37*
G36*
X104615Y87138D02*
X104435D01*
X104270Y87070D01*
X104144Y86943D01*
X104075Y86778D01*
Y86599D01*
X104144Y86433D01*
X104189Y86388D01*
X104144Y86343D01*
X104075Y86178D01*
Y85999D01*
X104144Y85833D01*
X104270Y85707D01*
X104435Y85638D01*
X104615D01*
X104780Y85707D01*
X104906Y85833D01*
X104975Y85999D01*
Y86178D01*
X104906Y86343D01*
X104861Y86388D01*
X104906Y86433D01*
X104975Y86599D01*
Y86778D01*
X104906Y86943D01*
X104780Y87070D01*
X104615Y87138D01*
D02*
G37*
G36*
X66245Y84175D02*
X66105D01*
X65977Y84122D01*
X65878Y84023D01*
X65825Y83895D01*
Y83755D01*
X65878Y83627D01*
X65977Y83528D01*
X66105Y83475D01*
X66245D01*
X66373Y83528D01*
X66472Y83627D01*
X66525Y83755D01*
Y83895D01*
X66472Y84023D01*
X66373Y84122D01*
X66245Y84175D01*
D02*
G37*
G36*
X71990Y76050D02*
X71810D01*
X71645Y75981D01*
X71600Y75936D01*
X71555Y75981D01*
X71390Y76050D01*
X71210D01*
X71045Y75981D01*
X70919Y75855D01*
X70850Y75690D01*
Y75510D01*
X70919Y75345D01*
X71045Y75219D01*
X71210Y75150D01*
X71390D01*
X71555Y75219D01*
X71600Y75264D01*
X71645Y75219D01*
X71810Y75150D01*
X71990D01*
X72155Y75219D01*
X72281Y75345D01*
X72350Y75510D01*
Y75690D01*
X72281Y75855D01*
X72155Y75981D01*
X71990Y76050D01*
D02*
G37*
G36*
X59890Y75650D02*
X59710D01*
X59545Y75581D01*
X59513Y75549D01*
X59480Y75581D01*
X59315Y75650D01*
X59135D01*
X58970Y75581D01*
X58844Y75455D01*
X58775Y75290D01*
Y75110D01*
X58844Y74945D01*
X58970Y74819D01*
X59135Y74750D01*
X59315D01*
X59480Y74819D01*
X59513Y74851D01*
X59545Y74819D01*
X59710Y74750D01*
X59890D01*
X60055Y74819D01*
X60181Y74945D01*
X60250Y75110D01*
Y75290D01*
X60181Y75455D01*
X60055Y75581D01*
X59890Y75650D01*
D02*
G37*
G36*
X54490D02*
X54310D01*
X54145Y75581D01*
X54100Y75536D01*
X54055Y75581D01*
X53890Y75650D01*
X53710D01*
X53545Y75581D01*
X53419Y75455D01*
X53350Y75290D01*
Y75110D01*
X53419Y74945D01*
X53545Y74819D01*
X53710Y74750D01*
X53890D01*
X54055Y74819D01*
X54100Y74864D01*
X54145Y74819D01*
X54310Y74750D01*
X54490D01*
X54655Y74819D01*
X54781Y74945D01*
X54850Y75110D01*
Y75290D01*
X54781Y75455D01*
X54655Y75581D01*
X54490Y75650D01*
D02*
G37*
G36*
X65570Y98850D02*
X65430D01*
X65302Y98797D01*
X65203Y98698D01*
X65150Y98570D01*
Y98430D01*
X65203Y98302D01*
X65302Y98203D01*
X65347Y98185D01*
X73344Y90188D01*
Y84490D01*
X73325Y84445D01*
Y84305D01*
X73344Y84260D01*
Y81312D01*
X69516Y77484D01*
X69444Y77377D01*
X69419Y77250D01*
Y75755D01*
X69369Y75705D01*
X69300Y75540D01*
Y75360D01*
X69369Y75195D01*
X69495Y75069D01*
X69660Y75000D01*
X69840D01*
X70005Y75069D01*
X70131Y75195D01*
X70200Y75360D01*
Y75540D01*
X70131Y75705D01*
X70081Y75755D01*
Y77113D01*
X73909Y80941D01*
X73981Y81048D01*
X74006Y81175D01*
Y84260D01*
X74025Y84305D01*
Y84445D01*
X74006Y84490D01*
Y90325D01*
X73981Y90452D01*
X73909Y90559D01*
X65815Y98653D01*
X65797Y98698D01*
X65698Y98797D01*
X65570Y98850D01*
D02*
G37*
G36*
X64570D02*
X64430D01*
X64302Y98797D01*
X64203Y98698D01*
X64150Y98570D01*
Y98430D01*
X64169Y98385D01*
Y78800D01*
X64194Y78673D01*
X64266Y78566D01*
X65619Y77213D01*
Y75755D01*
X65569Y75705D01*
X65500Y75540D01*
Y75360D01*
X65569Y75195D01*
X65695Y75069D01*
X65860Y75000D01*
X66040D01*
X66205Y75069D01*
X66331Y75195D01*
X66400Y75360D01*
Y75540D01*
X66331Y75705D01*
X66281Y75755D01*
Y77350D01*
X66256Y77477D01*
X66184Y77584D01*
X64831Y78937D01*
Y98385D01*
X64850Y98430D01*
Y98570D01*
X64797Y98698D01*
X64698Y98797D01*
X64570Y98850D01*
D02*
G37*
G36*
X68890Y71950D02*
X68710D01*
X68547Y71882D01*
X67000D01*
X66854Y71853D01*
X66730Y71770D01*
X65550Y70590D01*
X65432Y70639D01*
Y71368D01*
X65450Y71410D01*
Y71590D01*
X65381Y71755D01*
X65255Y71881D01*
X65090Y71950D01*
X64910D01*
X64745Y71881D01*
X64619Y71755D01*
X64550Y71590D01*
Y71410D01*
X64619Y71245D01*
X64668Y71196D01*
Y59832D01*
X64650Y59790D01*
Y59610D01*
X64719Y59445D01*
X64845Y59319D01*
X65010Y59250D01*
X65190D01*
X65212Y59259D01*
X65318Y59189D01*
Y58858D01*
X65008Y58549D01*
X64845Y58481D01*
X64719Y58355D01*
X64650Y58190D01*
Y58010D01*
X64719Y57845D01*
X64845Y57719D01*
X65010Y57650D01*
X65190D01*
X65355Y57719D01*
X65481Y57845D01*
X65549Y58008D01*
X65970Y58430D01*
X66053Y58554D01*
X66082Y58700D01*
Y70042D01*
X67158Y71118D01*
X68547D01*
X68710Y71050D01*
X68890D01*
X69055Y71119D01*
X69181Y71245D01*
X69250Y71410D01*
Y71590D01*
X69181Y71755D01*
X69055Y71881D01*
X68890Y71950D01*
D02*
G37*
G36*
X68790Y60150D02*
X68610D01*
X68445Y60081D01*
X68319Y59955D01*
X68250Y59790D01*
Y59610D01*
X68319Y59445D01*
X68445Y59319D01*
X68610Y59250D01*
X68790D01*
X68955Y59319D01*
X69081Y59445D01*
X69150Y59610D01*
Y59790D01*
X69081Y59955D01*
X68955Y60081D01*
X68790Y60150D01*
D02*
G37*
G36*
X93648Y59257D02*
Y58697D01*
X94208D01*
X94174Y58827D01*
X94078Y58992D01*
X93943Y59127D01*
X93778Y59223D01*
X93648Y59257D01*
D02*
G37*
G36*
X93348D02*
X93218Y59223D01*
X93053Y59127D01*
X92918Y58992D01*
X92822Y58827D01*
X92788Y58697D01*
X93348D01*
Y59257D01*
D02*
G37*
G36*
X91648D02*
Y58697D01*
X92208D01*
X92174Y58827D01*
X92078Y58992D01*
X91943Y59127D01*
X91778Y59223D01*
X91648Y59257D01*
D02*
G37*
G36*
X91348D02*
X91218Y59223D01*
X91053Y59127D01*
X90918Y58992D01*
X90822Y58827D01*
X90788Y58697D01*
X91348D01*
Y59257D01*
D02*
G37*
G36*
X94208Y58397D02*
X93648D01*
Y57837D01*
X93778Y57871D01*
X93943Y57967D01*
X94078Y58102D01*
X94174Y58267D01*
X94208Y58397D01*
D02*
G37*
G36*
X93348D02*
X92788D01*
X92822Y58267D01*
X92918Y58102D01*
X93053Y57967D01*
X93218Y57871D01*
X93348Y57837D01*
Y58397D01*
D02*
G37*
G36*
X92208D02*
X91648D01*
Y57837D01*
X91778Y57871D01*
X91943Y57967D01*
X92078Y58102D01*
X92174Y58267D01*
X92208Y58397D01*
D02*
G37*
G36*
X91348D02*
X90788D01*
X90822Y58267D01*
X90918Y58102D01*
X91053Y57967D01*
X91218Y57871D01*
X91348Y57837D01*
Y58397D01*
D02*
G37*
G36*
X98223Y59272D02*
X96773D01*
Y57822D01*
X98223D01*
Y59272D01*
D02*
G37*
G36*
X95593D02*
X95403D01*
X95218Y59223D01*
X95053Y59127D01*
X94918Y58992D01*
X94822Y58827D01*
X94773Y58642D01*
Y58452D01*
X94822Y58267D01*
X94918Y58102D01*
X95053Y57967D01*
X95218Y57871D01*
X95403Y57822D01*
X95593D01*
X95778Y57871D01*
X95943Y57967D01*
X96078Y58102D01*
X96174Y58267D01*
X96223Y58452D01*
Y58642D01*
X96174Y58827D01*
X96078Y58992D01*
X95943Y59127D01*
X95778Y59223D01*
X95593Y59272D01*
D02*
G37*
G36*
X68790Y58550D02*
X68610D01*
X68445Y58481D01*
X68319Y58355D01*
X68250Y58190D01*
Y58010D01*
X68319Y57845D01*
X68445Y57719D01*
X68610Y57650D01*
X68790D01*
X68955Y57719D01*
X69081Y57845D01*
X69150Y58010D01*
Y58190D01*
X69081Y58355D01*
X68955Y58481D01*
X68790Y58550D01*
D02*
G37*
%LPD*%
G36*
X73225Y135775D02*
X70575D01*
Y139069D01*
X70931Y139425D01*
X73225D01*
Y135775D01*
D02*
G37*
D11*
X67000Y71500D02*
X68800D01*
X65700Y70200D02*
X67000Y71500D01*
X65100Y58100D02*
X65700Y58700D01*
Y70200D01*
X65050Y59750D02*
X65100Y59700D01*
X65000Y71500D02*
X65050Y71450D01*
Y59750D02*
Y71450D01*
D12*
X89000Y107224D02*
Y108700D01*
X82150Y103475D02*
X85251D01*
X89000Y107224D01*
X90658Y81543D02*
X91634Y80566D01*
X72501Y98199D02*
X89158Y81543D01*
X90658D01*
X88650Y124097D02*
X91200Y121547D01*
X88650Y124097D02*
Y134850D01*
X89100Y124071D02*
X91500Y121671D01*
X89100Y124071D02*
Y135550D01*
X91500Y114625D02*
Y121671D01*
X91200Y114875D02*
Y121547D01*
X90450Y114125D02*
X91200Y114875D01*
X87300Y113000D02*
X88100Y113800D01*
X87300Y110900D02*
Y113000D01*
X88100Y113800D02*
X90675D01*
X87300Y110900D02*
X89400Y108800D01*
Y107200D02*
Y108800D01*
X90675Y113800D02*
X91500Y114625D01*
X82700Y100500D02*
X89400Y107200D01*
X64500Y78800D02*
Y98500D01*
Y78800D02*
X65950Y77350D01*
X73508Y97692D02*
Y98492D01*
Y97692D02*
X89300Y81900D01*
X72500Y98500D02*
X72501Y98499D01*
Y98199D02*
Y98499D01*
X90809Y81900D02*
X93108Y79601D01*
X89300Y81900D02*
X90809D01*
X91634Y80368D02*
X92754Y79248D01*
X91634Y80368D02*
Y80566D01*
X86900Y113150D02*
X87875Y114125D01*
X90450D01*
X80800Y100125D02*
X82150Y98775D01*
X56900Y95400D02*
X61625Y100125D01*
X80800D01*
X82150Y96850D02*
Y98125D01*
X99550Y79450D02*
X104300D01*
X82150Y96850D02*
X99550Y79450D01*
X73675Y81175D02*
Y84375D01*
X69750Y75450D02*
Y77250D01*
X73675Y81175D01*
X65950Y75450D02*
Y77350D01*
X86900Y110800D02*
X89000Y108700D01*
X82700Y98675D02*
Y100500D01*
X82150Y98125D02*
X82700Y98675D01*
X83876Y136584D02*
X88066D01*
X89100Y135550D01*
X87900Y135600D02*
X88650Y134850D01*
X86900Y110800D02*
Y113150D01*
X56200Y63450D02*
X56900Y64150D01*
X56900Y95400D02*
X56900Y64150D01*
X104300Y79450D02*
X104550Y79700D01*
X65500Y98500D02*
X73675Y90325D01*
Y84375D02*
Y90325D01*
X83892Y135600D02*
X87900D01*
D14*
X65213Y148323D02*
G03*
X65213Y148316I9218J-0D01*
G01*
X65215Y147077D02*
G03*
X65213Y147097I-100J-3D01*
G01*
X65215Y147077D02*
G03*
X67034Y142687I6655J185D01*
G01*
X67045Y142672D02*
G03*
X67034Y142687I-85J-53D01*
G01*
X67283Y142434D02*
G03*
X67282Y142435I-71J-71D01*
G01*
X67915Y141802D02*
G03*
X67911Y141806I-757J-752D01*
G01*
X68225Y141050D02*
G03*
X67915Y141802I-1067J0D01*
G01*
X65613Y147262D02*
G03*
X67445Y142837I6258J-0D01*
G01*
X73475Y159875D02*
G03*
X65613Y152012I0J-7863D01*
G01*
X73475Y160275D02*
G03*
X65213Y152012I0J-8263D01*
G01*
X83600Y160275D02*
G03*
X83900Y160575I0J300D01*
G01*
Y159575D02*
G03*
X83600Y159875I-300J0D01*
G01*
X68195Y142088D02*
G03*
X68950Y141775I755J755D01*
G01*
X65213Y148323D02*
X65213Y148325D01*
X67045Y142672D02*
X67282Y142435D01*
X67283Y142434D02*
X67911Y141806D01*
X65213Y147097D02*
X65213Y148316D01*
Y148325D02*
Y152012D01*
X67448Y142835D02*
X68195Y142088D01*
X65613Y147262D02*
X65613Y147265D01*
Y152012D01*
X67445Y142837D02*
X67448Y142835D01*
X73475Y159875D02*
X83600D01*
X73475Y160275D02*
X83600D01*
D148*
X83876Y135584D02*
X83892Y135600D01*
D149*
X83439Y151584D02*
X83876D01*
X81573Y142673D02*
Y149717D01*
X83439Y151584D01*
X83419Y150584D02*
X83876D01*
X81842Y149008D02*
X83419Y150584D01*
X81842Y142542D02*
Y149008D01*
X82113Y142413D02*
Y148295D01*
X83401Y149584D02*
X83876D01*
X82113Y148295D02*
X83401Y149584D01*
X83379Y148584D02*
X83876D01*
X82402Y147607D02*
X83379Y148584D01*
X82402Y142303D02*
Y147607D01*
X89590Y124115D02*
X91825Y121880D01*
X89590Y124115D02*
Y137374D01*
X90800Y138584D01*
X85730Y158514D02*
X90800Y163584D01*
X85730Y143312D02*
Y158514D01*
X84088Y141670D02*
X85730Y143312D01*
X76700Y136182D02*
X82188Y141670D01*
X84088D01*
X76700Y129136D02*
Y136182D01*
X55060Y118060D02*
X58400Y121400D01*
X55200Y105000D02*
Y105070D01*
X55060Y105210D02*
X55200Y105070D01*
X55060Y105210D02*
Y118060D01*
X55124Y104500D02*
X55200D01*
X54790Y104830D02*
Y118190D01*
Y104830D02*
X55030Y104590D01*
X55034D01*
X55124Y104500D01*
X64980Y125053D02*
Y133698D01*
X68132Y136850D01*
X59200Y118200D02*
Y119273D01*
X64980Y125053D01*
X64710Y133810D02*
X68250Y137350D01*
X64710Y125164D02*
Y133810D01*
X58700Y119154D02*
X64710Y125164D01*
X58700Y118200D02*
Y119154D01*
X58200Y118200D02*
Y119036D01*
X64440Y125276D01*
Y133940D01*
X68350Y137850D01*
X57700Y118918D02*
X64170Y125388D01*
Y134070D01*
X68450Y138350D01*
X57700Y118200D02*
Y118918D01*
X71875Y118584D02*
X80750Y127459D01*
X71875Y118258D02*
Y118584D01*
X80750Y134250D02*
X83700Y137200D01*
X80750Y127459D02*
Y134250D01*
X72078Y119169D02*
X80480Y127571D01*
Y134380D01*
X83600Y137500D01*
X80210Y134510D02*
X83500Y137800D01*
X80210Y127682D02*
Y134510D01*
X71966Y119439D02*
X80210Y127682D01*
X71855Y119709D02*
X79940Y127794D01*
Y134640D01*
X83400Y138100D01*
X79670Y127906D02*
Y134770D01*
X71743Y119979D02*
X79670Y127906D01*
Y134770D02*
X83300Y138400D01*
X70474Y118224D02*
Y118692D01*
X70951Y119169D01*
X72078D01*
X70839Y119439D02*
X71966D01*
X69950Y118550D02*
X70839Y119439D01*
X70709Y119709D02*
X71855D01*
X69474Y118474D02*
X70709Y119709D01*
X69779Y119979D02*
X71743D01*
X68600Y118800D02*
X69779Y119979D01*
X69649Y120249D02*
X71631D01*
X79400Y128018D01*
Y134900D01*
X68100Y118700D02*
X69649Y120249D01*
X79130Y128130D02*
Y135030D01*
X71519Y120519D02*
X79130Y128130D01*
X69519Y120519D02*
X71519D01*
X67654Y118654D02*
X69519Y120519D01*
X69389Y120789D02*
X71407D01*
X78860Y128242D02*
Y135160D01*
X71407Y120789D02*
X78860Y128242D01*
X67100Y118500D02*
X69389Y120789D01*
X68459Y121059D02*
X71295D01*
X78590Y128353D01*
Y135290D01*
X66261Y118861D02*
X68459Y121059D01*
X68329Y121329D02*
X71184D01*
X78320Y128465D02*
Y135420D01*
X71184Y121329D02*
X78320Y128465D01*
X65786Y118786D02*
X68329Y121329D01*
X68199Y121599D02*
X71072D01*
X78050Y128577D01*
Y135550D01*
X65304Y118704D02*
X68199Y121599D01*
X70960Y121869D02*
X77780Y128689D01*
Y135680D01*
X68069Y121869D02*
X70960D01*
X64774Y118574D02*
X68069Y121869D01*
X67139Y122139D02*
X70848D01*
X63900Y118900D02*
X67139Y122139D01*
X70848D02*
X77510Y128801D01*
X70736Y122409D02*
X77240Y128913D01*
X63400Y118800D02*
X67009Y122409D01*
X70736D01*
X62900Y118700D02*
X66879Y122679D01*
X70624D02*
X76970Y129024D01*
X66879Y122679D02*
X70624D01*
X66749Y122949D02*
X70513D01*
X62400Y118600D02*
X66749Y122949D01*
X70513D02*
X76700Y129136D01*
X65919Y123219D02*
X70401D01*
X61550Y118850D02*
X65919Y123219D01*
X70401D02*
X76430Y129248D01*
X79400Y134900D02*
X83200Y138700D01*
X79130Y135030D02*
X83100Y139000D01*
X78860Y135160D02*
X83000Y139300D01*
X78590Y135290D02*
X82900Y139600D01*
X77510Y128801D02*
Y135810D01*
X77240Y128913D02*
Y135940D01*
X76970Y129024D02*
Y136070D01*
X76430Y129248D02*
Y136330D01*
X78320Y135420D02*
X82800Y139900D01*
X78050Y135550D02*
X82700Y140200D01*
X77780Y135680D02*
X82600Y140500D01*
X77510Y135810D02*
X82500Y140800D01*
X77240Y135940D02*
X82400Y141100D01*
X76970Y136070D02*
X82300Y141400D01*
X76430Y136330D02*
X82402Y142303D01*
X70289Y123489D02*
X76160Y129360D01*
Y136460D01*
X75890Y129490D02*
Y136590D01*
X70194Y123794D02*
X75890Y129490D01*
X76160Y136460D02*
X82113Y142413D01*
X73300Y118795D02*
X75775Y121270D01*
X87435D01*
X87602Y121438D02*
X87645D01*
X87435Y121270D02*
X87602Y121438D01*
X76222Y120460D02*
X89685D01*
X90650Y121425D01*
X88238Y120730D02*
X88643Y121135D01*
X76048Y120730D02*
X88238D01*
X88643Y121418D02*
X88650Y121425D01*
X88643Y121135D02*
Y121418D01*
X87787Y121000D02*
X88145Y121358D01*
X75936Y121000D02*
X87787D01*
X88145Y121358D02*
Y121410D01*
X73300Y118200D02*
Y118795D01*
X74030Y119094D02*
X75936Y121000D01*
X74030Y119077D02*
Y119094D01*
X73800Y118200D02*
Y118848D01*
X74030Y119077D01*
X74300Y118200D02*
Y118982D01*
X76048Y120730D01*
X68132Y136850D02*
X69350D01*
X57240Y110760D02*
X58500Y109500D01*
X57240Y118840D02*
X63900Y125500D01*
X57240Y110760D02*
Y118840D01*
X54485Y104635D02*
Y118285D01*
Y104635D02*
X55030Y104090D01*
X55034D02*
X55124Y104000D01*
X55200D01*
X54485Y118285D02*
X57800Y121600D01*
X55030Y104090D02*
X55034D01*
X54790Y103830D02*
Y103831D01*
X54215Y104406D02*
X54790Y103831D01*
X54215Y104406D02*
Y118415D01*
X54790Y103830D02*
X55030Y103590D01*
X55034D01*
X55124Y103500D01*
X54215Y118415D02*
X57500Y121700D01*
X55124Y103500D02*
X55200D01*
X74853Y119090D02*
X76222Y120460D01*
X91825Y113992D02*
Y121880D01*
X74853Y115015D02*
Y119090D01*
X73500Y113663D02*
X74853Y115015D01*
X75620Y136720D02*
X81573Y142673D01*
X75890Y136590D02*
X81842Y142542D01*
X75620Y129620D02*
Y136720D01*
X70100Y124100D02*
X75620Y129620D01*
X79180Y108180D02*
X87320D01*
X78250Y107250D02*
X79180Y108180D01*
X77800Y107250D02*
X78250D01*
X79000Y108500D02*
X87624D01*
X78250Y107750D02*
X79000Y108500D01*
X77800Y107750D02*
X78250D01*
X86900Y107900D02*
X87850Y106950D01*
X78250Y106750D02*
X79400Y107900D01*
X86900D01*
X87624Y108500D02*
X88474Y107650D01*
X60550Y118650D02*
X65694Y123794D01*
X60550Y118200D02*
Y118650D01*
X65694Y123794D02*
X70194D01*
X65600Y124100D02*
X70100D01*
X60050Y118561D02*
X65503Y124014D01*
X65514D02*
X65600Y124100D01*
X65503Y124014D02*
X65514D01*
X60050Y118200D02*
Y118561D01*
X65789Y123489D02*
X70289D01*
X61050Y118750D02*
X65789Y123489D01*
X61050Y118200D02*
Y118750D01*
X61550Y118200D02*
Y118850D01*
X63900Y118200D02*
Y118900D01*
X63400Y118200D02*
Y118800D01*
X62900Y118200D02*
Y118700D01*
X62400Y118200D02*
Y118600D01*
X64774Y118224D02*
Y118574D01*
X65304Y118254D02*
Y118704D01*
X65786Y118236D02*
Y118786D01*
X66261Y118211D02*
Y118861D01*
X70450Y118200D02*
X70474Y118224D01*
X69950Y118200D02*
Y118550D01*
X69450Y118200D02*
X69474Y118224D01*
Y118474D01*
X68600Y118200D02*
Y118800D01*
X68100Y118200D02*
Y118700D01*
X67654Y118254D02*
Y118654D01*
X67600Y118200D02*
X67654Y118254D01*
X67100Y118200D02*
Y118500D01*
X65750Y118200D02*
X65786Y118236D01*
X63900Y125500D02*
Y134200D01*
X68550Y138850D01*
X69350D01*
X68450Y138350D02*
X69350D01*
X68350Y137850D02*
X69350D01*
X68250Y137350D02*
X69350D01*
X54790Y118190D02*
X58100Y121500D01*
X58400Y121400D02*
Y137600D01*
X58100Y121500D02*
Y135900D01*
X57800Y121600D02*
Y134200D01*
X57500Y121700D02*
Y132500D01*
X56000Y140000D02*
X58400Y137600D01*
X55000Y140000D02*
X56000D01*
X55000Y138000D02*
X56000D01*
X58100Y135900D01*
X56000Y136000D02*
X57800Y134200D01*
X55000Y136000D02*
X56000D01*
X55000Y134000D02*
X56000D01*
X57500Y132500D01*
X82300Y141400D02*
X84200D01*
X82400Y141100D02*
X84400D01*
X82500Y140800D02*
X84500D01*
X82600Y140500D02*
X84600D01*
X82700Y140200D02*
X84700D01*
X82800Y139900D02*
X84800D01*
X82900Y139600D02*
X84900D01*
X83000Y139300D02*
X85000D01*
X83100Y139000D02*
X85200D01*
X83200Y138700D02*
X85300D01*
X83300Y138400D02*
X85400D01*
X83400Y138100D02*
X85500D01*
X83500Y137800D02*
X85600D01*
X83600Y137500D02*
X85700D01*
X83700Y137200D02*
X85800D01*
X84200Y141400D02*
X86000Y143200D01*
Y157784D02*
X90800Y162584D01*
X86000Y143200D02*
Y157784D01*
X86300Y157084D02*
X90800Y161584D01*
X84400Y141100D02*
X86300Y143000D01*
Y157084D01*
X84500Y140800D02*
X86600Y142900D01*
Y156384D02*
X90800Y160584D01*
X86600Y142900D02*
Y156384D01*
X86900Y155684D02*
X90800Y159584D01*
X84600Y140500D02*
X86900Y142800D01*
Y155684D01*
X87200Y142700D02*
Y154984D01*
X84700Y140200D02*
X87200Y142700D01*
Y154984D02*
X90800Y158584D01*
X87500Y154284D02*
X90800Y157584D01*
X87500Y142600D02*
Y154284D01*
X84800Y139900D02*
X87500Y142600D01*
X87800Y142500D02*
Y153584D01*
X90800Y156584D01*
X84900Y139600D02*
X87800Y142500D01*
X88100Y152884D02*
X90800Y155584D01*
X88100Y142400D02*
Y152884D01*
X85000Y139300D02*
X88100Y142400D01*
X88400Y142200D02*
Y152184D01*
X90800Y154584D01*
X85200Y139000D02*
X88400Y142200D01*
X85300Y138700D02*
X88700Y142100D01*
Y151484D02*
X90800Y153584D01*
X88700Y142100D02*
Y151484D01*
X85400Y138400D02*
X89000Y142000D01*
Y150784D02*
X90800Y152584D01*
X89000Y142000D02*
Y150784D01*
X85500Y138100D02*
X89300Y141900D01*
Y150084D02*
X90800Y151584D01*
X89300Y141900D02*
Y150084D01*
X85600Y137800D02*
X89600Y141800D01*
Y149384D01*
X90800Y150584D01*
X85700Y137500D02*
X89900Y141700D01*
Y148684D02*
X90800Y149584D01*
X89900Y141700D02*
Y148684D01*
X85800Y137200D02*
X90200Y141600D01*
Y147984D02*
X90800Y148584D01*
X90200Y141600D02*
Y147984D01*
X89725Y111892D02*
X91825Y113992D01*
X73500Y109500D02*
Y113663D01*
X67133Y111500D02*
X71875Y116242D01*
X63500Y111500D02*
X67133D01*
X73000Y104000D02*
X73500Y104500D01*
X57100Y104000D02*
X73000D01*
X64750Y118200D02*
X64774Y118224D01*
X66250Y118200D02*
X66261Y118211D01*
X65250Y118200D02*
X65304Y118254D01*
X60050Y114950D02*
Y116300D01*
Y114950D02*
X62500Y112500D01*
X77800Y106750D02*
X78250D01*
X88262Y107238D02*
X88300Y107200D01*
X87320Y108180D02*
X88262Y107238D01*
X88474Y107650D02*
X88550D01*
X83848Y135556D02*
X83876Y135584D01*
D151*
X76670Y175730D02*
D03*
X99530Y149695D02*
D03*
X53810Y154775D02*
D03*
X109690Y103340D02*
D03*
X109690Y74130D02*
D03*
X81750Y53810D02*
D03*
X53810Y88735D02*
D03*
X86068D02*
D03*
D152*
X55000Y140000D02*
D03*
Y138000D02*
D03*
Y136000D02*
D03*
Y134000D02*
D03*
X53000Y142000D02*
D03*
Y140000D02*
D03*
Y138000D02*
D03*
Y136000D02*
D03*
Y134000D02*
D03*
Y132000D02*
D03*
Y130000D02*
D03*
D153*
X88900Y118425D02*
D03*
D154*
X72350Y169150D02*
D03*
D155*
X91498Y58547D02*
D03*
X93498D02*
D03*
D158*
X95630Y85575D02*
D03*
D159*
X53810Y53810D02*
D03*
X109690D02*
D03*
X99530Y175730D02*
D03*
X53810Y185890D02*
D03*
Y123660D02*
D03*
X109690D02*
D03*
D161*
X79900Y151300D02*
D03*
X75900Y151300D02*
D03*
X71900D02*
D03*
X67900D02*
D03*
D162*
X90648Y105917D02*
D03*
D163*
X94191Y77811D02*
D03*
D164*
X83800Y145600D02*
D03*
X83150Y147600D02*
D03*
X83800D02*
D03*
X91550Y164584D02*
D03*
X90900D02*
D03*
X91550Y165584D02*
D03*
X90900D02*
D03*
X83150D02*
D03*
X83800D02*
D03*
X107500Y73000D02*
D03*
X54000Y86000D02*
D03*
Y91500D02*
D03*
X84000Y53000D02*
D03*
X79000Y175000D02*
D03*
X79500Y53000D02*
D03*
X74000Y55000D02*
D03*
X66000D02*
D03*
X72250Y67000D02*
D03*
X69750Y69750D02*
D03*
X67000D02*
D03*
X72250D02*
D03*
X63750D02*
D03*
X58356Y188580D02*
D03*
X65100Y58100D02*
D03*
Y59700D02*
D03*
X68800Y71500D02*
D03*
X65000D02*
D03*
X58000Y139000D02*
D03*
Y143000D02*
D03*
X68000Y125000D02*
D03*
X70000Y127000D02*
D03*
X66000D02*
D03*
X60000Y125000D02*
D03*
Y129000D02*
D03*
Y133000D02*
D03*
Y137000D02*
D03*
X90900Y139600D02*
D03*
X91550D02*
D03*
X82650Y119900D02*
D03*
X105000Y82375D02*
D03*
X53500Y119000D02*
D03*
Y115000D02*
D03*
Y111000D02*
D03*
Y107000D02*
D03*
Y103000D02*
D03*
Y99000D02*
D03*
X62000Y75500D02*
D03*
X61000Y73500D02*
D03*
Y69000D02*
D03*
Y65000D02*
D03*
X56500Y146500D02*
D03*
X51000Y183000D02*
D03*
Y179000D02*
D03*
Y175000D02*
D03*
Y171000D02*
D03*
Y167000D02*
D03*
Y163000D02*
D03*
Y159000D02*
D03*
Y147000D02*
D03*
Y155000D02*
D03*
Y151000D02*
D03*
Y119000D02*
D03*
Y115000D02*
D03*
Y111000D02*
D03*
Y107000D02*
D03*
Y103000D02*
D03*
Y99000D02*
D03*
Y95000D02*
D03*
Y91000D02*
D03*
Y87500D02*
D03*
Y83000D02*
D03*
Y79000D02*
D03*
Y75000D02*
D03*
Y71000D02*
D03*
Y67000D02*
D03*
Y63000D02*
D03*
Y59000D02*
D03*
X94000Y178500D02*
D03*
X90000D02*
D03*
X86000D02*
D03*
X60000Y187000D02*
D03*
X62000Y185000D02*
D03*
X64000Y183000D02*
D03*
X68000Y179000D02*
D03*
X66000Y181000D02*
D03*
X70000Y178500D02*
D03*
X82000D02*
D03*
X74000D02*
D03*
X78000D02*
D03*
X93250Y141250D02*
D03*
X94250Y138750D02*
D03*
X92500D02*
D03*
X94250Y136250D02*
D03*
X92500D02*
D03*
X91550Y145600D02*
D03*
X90900D02*
D03*
X83150D02*
D03*
X91550Y142600D02*
D03*
X90900D02*
D03*
Y134600D02*
D03*
X83800D02*
D03*
X83150Y142600D02*
D03*
X83800D02*
D03*
X91550Y134600D02*
D03*
X83150D02*
D03*
X98800Y117675D02*
D03*
X93991Y117683D02*
D03*
X78991D02*
D03*
X83800Y117675D02*
D03*
X66500Y146000D02*
D03*
X64000D02*
D03*
X95800Y126600D02*
D03*
X93400Y127425D02*
D03*
X91000Y128250D02*
D03*
X92550Y128975D02*
D03*
X91050Y131350D02*
D03*
X92200Y132500D02*
D03*
X93400Y131300D02*
D03*
X94600Y132500D02*
D03*
X95750Y131350D02*
D03*
X94250Y128950D02*
D03*
X95800Y128250D02*
D03*
X91000Y126600D02*
D03*
X92550Y125875D02*
D03*
X91050Y123500D02*
D03*
X92200Y122350D02*
D03*
X93400Y123550D02*
D03*
X94600Y122350D02*
D03*
X95750Y123500D02*
D03*
X94250Y125875D02*
D03*
X85250D02*
D03*
X86750Y123500D02*
D03*
X85600Y122350D02*
D03*
X84400Y123550D02*
D03*
X83200Y122350D02*
D03*
X82050Y123500D02*
D03*
X83550Y125875D02*
D03*
X82000Y126600D02*
D03*
X86800Y128250D02*
D03*
X85250Y128975D02*
D03*
X86750Y131350D02*
D03*
X85600Y132500D02*
D03*
X92450Y117700D02*
D03*
X93300Y115950D02*
D03*
Y119450D02*
D03*
X95150Y119900D02*
D03*
Y115500D02*
D03*
X97636Y119892D02*
D03*
Y115492D02*
D03*
X80164D02*
D03*
Y119892D02*
D03*
X82650Y115500D02*
D03*
X84500Y119450D02*
D03*
Y115950D02*
D03*
X85350Y117700D02*
D03*
X84400Y131300D02*
D03*
X69750Y75450D02*
D03*
X65950D02*
D03*
X62000Y127000D02*
D03*
Y131000D02*
D03*
Y135000D02*
D03*
Y139000D02*
D03*
X60000Y141000D02*
D03*
X102000Y163000D02*
D03*
X52000Y189000D02*
D03*
X78000Y115000D02*
D03*
X112000Y105000D02*
D03*
X58000Y95000D02*
D03*
X108000Y57000D02*
D03*
X52000D02*
D03*
X90000Y119525D02*
D03*
Y118425D02*
D03*
Y117325D02*
D03*
X88900Y119525D02*
D03*
Y118425D02*
D03*
Y117325D02*
D03*
X87800Y119525D02*
D03*
Y118425D02*
D03*
X87800Y117325D02*
D03*
X72350Y168650D02*
D03*
Y169650D02*
D03*
X53810Y55910D02*
D03*
X52325Y55295D02*
D03*
X51710Y53810D02*
D03*
X52325Y52325D02*
D03*
X53810Y51710D02*
D03*
X55295Y52325D02*
D03*
X55910Y53810D02*
D03*
X55295Y55295D02*
D03*
X109690Y55910D02*
D03*
X108205Y55295D02*
D03*
X107590Y53810D02*
D03*
X108205Y52325D02*
D03*
X109690Y51710D02*
D03*
X111175Y52325D02*
D03*
X111790Y53810D02*
D03*
X111175Y55295D02*
D03*
X109690Y125760D02*
D03*
X108205Y125145D02*
D03*
X107590Y123660D02*
D03*
X108205Y122175D02*
D03*
X109690Y121560D02*
D03*
X111175Y122175D02*
D03*
X111790Y123660D02*
D03*
X111175Y125145D02*
D03*
X99530Y177830D02*
D03*
X98045Y177215D02*
D03*
X97430Y175730D02*
D03*
X98045Y174245D02*
D03*
X99530Y173630D02*
D03*
X101015Y174245D02*
D03*
X101630Y175730D02*
D03*
X101015Y177215D02*
D03*
X53810Y187990D02*
D03*
X52325Y187375D02*
D03*
X51710Y185890D02*
D03*
X52325Y184405D02*
D03*
X53810Y183790D02*
D03*
X55295Y184405D02*
D03*
X55910Y185890D02*
D03*
X55295Y187375D02*
D03*
X53810Y125760D02*
D03*
X52325Y125145D02*
D03*
X51710Y123660D02*
D03*
X52325Y122175D02*
D03*
X53810Y121560D02*
D03*
X55295Y122175D02*
D03*
X55910Y123660D02*
D03*
X55295Y125145D02*
D03*
X108000Y101000D02*
D03*
X76000Y78000D02*
D03*
X52000Y51000D02*
D03*
X102000Y59000D02*
D03*
X98000Y143000D02*
D03*
X56000Y81000D02*
D03*
Y85000D02*
D03*
X54000Y83000D02*
D03*
X52000Y85000D02*
D03*
X66000Y79000D02*
D03*
X62000D02*
D03*
X102000Y51000D02*
D03*
X98000D02*
D03*
X96000Y53000D02*
D03*
X92000D02*
D03*
X94000Y51000D02*
D03*
X88000Y53000D02*
D03*
X90000Y51000D02*
D03*
X86000D02*
D03*
X82000D02*
D03*
X106000D02*
D03*
X100000Y53000D02*
D03*
X102000Y55000D02*
D03*
X98000D02*
D03*
X94000D02*
D03*
X90000D02*
D03*
X86000D02*
D03*
X84000Y57000D02*
D03*
X82000Y59000D02*
D03*
X86000D02*
D03*
X88000Y57000D02*
D03*
X92000Y61000D02*
D03*
X94000Y63000D02*
D03*
X104000Y57000D02*
D03*
X106000Y55000D02*
D03*
X104000Y53000D02*
D03*
X106000Y59000D02*
D03*
X112000Y57000D02*
D03*
X110000Y59000D02*
D03*
X112000Y61000D02*
D03*
X108000D02*
D03*
X110000Y63000D02*
D03*
X112000Y65000D02*
D03*
X106000Y63000D02*
D03*
X104000Y61000D02*
D03*
X108000Y65000D02*
D03*
X100000Y145000D02*
D03*
Y141000D02*
D03*
X102000Y147000D02*
D03*
Y143000D02*
D03*
Y139000D02*
D03*
X104000Y137000D02*
D03*
X106000Y135000D02*
D03*
X108000Y133000D02*
D03*
X110000Y131000D02*
D03*
Y127000D02*
D03*
X108000Y129000D02*
D03*
X106000Y127000D02*
D03*
X112000Y129000D02*
D03*
Y109000D02*
D03*
Y113000D02*
D03*
X110000Y111000D02*
D03*
X112000Y117000D02*
D03*
X110000Y115000D02*
D03*
X112000Y121000D02*
D03*
X110000Y119000D02*
D03*
X106000Y123000D02*
D03*
X108000Y117000D02*
D03*
Y113000D02*
D03*
Y109000D02*
D03*
X106000Y111000D02*
D03*
X104000Y109000D02*
D03*
X100000D02*
D03*
X98000Y107000D02*
D03*
X96000Y109000D02*
D03*
X102000Y111000D02*
D03*
X104000Y113000D02*
D03*
X102000Y115000D02*
D03*
X106000D02*
D03*
X104000Y117000D02*
D03*
X102000Y119000D02*
D03*
X106000D02*
D03*
X104000Y121000D02*
D03*
X102000Y123000D02*
D03*
X104000Y125000D02*
D03*
X80000Y78000D02*
D03*
X84000D02*
D03*
X102000Y127000D02*
D03*
X100000Y129000D02*
D03*
X104000D02*
D03*
X106000Y131000D02*
D03*
X102000D02*
D03*
X100000Y137000D02*
D03*
X102000Y135000D02*
D03*
X98000Y131000D02*
D03*
X104000Y133000D02*
D03*
X100000D02*
D03*
X98000Y139000D02*
D03*
Y135000D02*
D03*
X52000Y117000D02*
D03*
X80000Y142000D02*
D03*
X81000Y145000D02*
D03*
X80000Y146000D02*
D03*
X78000D02*
D03*
X76000D02*
D03*
X74000D02*
D03*
X72000D02*
D03*
X70000D02*
D03*
X52000Y149000D02*
D03*
X60000Y145000D02*
D03*
X54000Y147000D02*
D03*
X56000Y149000D02*
D03*
X54000Y151000D02*
D03*
X52000Y157000D02*
D03*
Y161000D02*
D03*
X54000Y159000D02*
D03*
X52000Y153000D02*
D03*
X56000D02*
D03*
Y157000D02*
D03*
Y161000D02*
D03*
X54000Y163000D02*
D03*
X52000Y165000D02*
D03*
X54000Y167000D02*
D03*
X56000Y165000D02*
D03*
X52000Y169000D02*
D03*
Y173000D02*
D03*
X56000Y169000D02*
D03*
X54000Y171000D02*
D03*
Y175000D02*
D03*
X56000Y173000D02*
D03*
X52000Y177000D02*
D03*
X56000D02*
D03*
X54000Y179000D02*
D03*
X52000Y181000D02*
D03*
X56000D02*
D03*
X60000Y177000D02*
D03*
X58000Y179000D02*
D03*
Y183000D02*
D03*
X60000Y181000D02*
D03*
X58000Y187000D02*
D03*
X60000Y185000D02*
D03*
X56000Y189000D02*
D03*
X62000Y179000D02*
D03*
X64000Y177000D02*
D03*
X62000Y183000D02*
D03*
X64000Y181000D02*
D03*
X70000Y175000D02*
D03*
X68000Y177000D02*
D03*
X66000Y179000D02*
D03*
Y175000D02*
D03*
X58000D02*
D03*
X62000D02*
D03*
X72000Y177000D02*
D03*
X74000Y175000D02*
D03*
X80000Y177000D02*
D03*
X84000D02*
D03*
X88000D02*
D03*
X96000D02*
D03*
X92000D02*
D03*
X86000Y175000D02*
D03*
X94000D02*
D03*
X96000Y173000D02*
D03*
X90000Y175000D02*
D03*
X102000Y171000D02*
D03*
X82000Y175000D02*
D03*
X100000Y169000D02*
D03*
X98000Y171000D02*
D03*
Y167000D02*
D03*
X100000Y165000D02*
D03*
X102000Y167000D02*
D03*
X94000Y171000D02*
D03*
X96000Y165000D02*
D03*
Y169000D02*
D03*
X94000Y167000D02*
D03*
X100000Y161000D02*
D03*
X98000Y163000D02*
D03*
X102000Y159000D02*
D03*
Y155000D02*
D03*
Y151000D02*
D03*
X94000Y155000D02*
D03*
X100000Y153000D02*
D03*
X98000Y155000D02*
D03*
X94000Y163000D02*
D03*
X96000Y161000D02*
D03*
X98000Y159000D02*
D03*
X100000Y157000D02*
D03*
X94000Y159000D02*
D03*
X96000Y157000D02*
D03*
Y153000D02*
D03*
X98000Y147000D02*
D03*
X94000Y151000D02*
D03*
X96000Y149000D02*
D03*
Y145000D02*
D03*
X62000Y143000D02*
D03*
X94000Y147000D02*
D03*
X92000Y145000D02*
D03*
X94000Y143000D02*
D03*
X96000Y133000D02*
D03*
X72000Y78000D02*
D03*
X100000Y125000D02*
D03*
X78000Y123000D02*
D03*
X98000Y127000D02*
D03*
X80000Y125000D02*
D03*
X98000Y123000D02*
D03*
X100000Y121000D02*
D03*
Y117000D02*
D03*
Y113000D02*
D03*
X98000Y111000D02*
D03*
X96000Y113000D02*
D03*
X92000D02*
D03*
X94000Y111000D02*
D03*
X78000Y119000D02*
D03*
X86000Y107000D02*
D03*
X80000Y113000D02*
D03*
X78000Y111000D02*
D03*
X82000D02*
D03*
X86000Y103000D02*
D03*
X88000Y101000D02*
D03*
X86000Y99000D02*
D03*
X102000Y107000D02*
D03*
X106000D02*
D03*
X98000Y75000D02*
D03*
X110000Y67000D02*
D03*
X108000Y69000D02*
D03*
X112000D02*
D03*
X110000Y71000D02*
D03*
X112000Y73000D02*
D03*
Y77000D02*
D03*
Y81000D02*
D03*
Y85000D02*
D03*
Y89000D02*
D03*
X110000Y79000D02*
D03*
Y83000D02*
D03*
Y87000D02*
D03*
Y91000D02*
D03*
X112000Y93000D02*
D03*
X110000Y107000D02*
D03*
X108000Y105000D02*
D03*
X112000Y101000D02*
D03*
X110000Y99000D02*
D03*
X112000Y97000D02*
D03*
X110000Y95000D02*
D03*
X108000Y97000D02*
D03*
Y93000D02*
D03*
Y89000D02*
D03*
Y85000D02*
D03*
Y81000D02*
D03*
X106000Y75000D02*
D03*
X108000Y77000D02*
D03*
X100000D02*
D03*
X102000Y75000D02*
D03*
X104000Y73000D02*
D03*
X106000Y71000D02*
D03*
Y67000D02*
D03*
X104000Y65000D02*
D03*
X100000Y61000D02*
D03*
X102000Y63000D02*
D03*
X98000D02*
D03*
X104000Y69000D02*
D03*
Y77000D02*
D03*
X100000Y81000D02*
D03*
Y85000D02*
D03*
X104000Y89000D02*
D03*
X100000D02*
D03*
X90000Y59000D02*
D03*
X88000Y61000D02*
D03*
X84000D02*
D03*
X80000D02*
D03*
X90000Y63000D02*
D03*
X92000Y57000D02*
D03*
X100000D02*
D03*
X96000D02*
D03*
Y65000D02*
D03*
X100000D02*
D03*
X98000Y67000D02*
D03*
X92000Y65000D02*
D03*
X94000Y67000D02*
D03*
X102000D02*
D03*
Y71000D02*
D03*
X100000Y69000D02*
D03*
Y73000D02*
D03*
X96000Y69000D02*
D03*
Y73000D02*
D03*
X98000Y71000D02*
D03*
X86000Y95000D02*
D03*
X90000Y91000D02*
D03*
X88000Y93000D02*
D03*
X84000D02*
D03*
X82000Y95000D02*
D03*
X74000D02*
D03*
X90000D02*
D03*
X82000Y87000D02*
D03*
X90000D02*
D03*
X88000Y97000D02*
D03*
X90000Y99000D02*
D03*
X82000Y91000D02*
D03*
X78000Y95000D02*
D03*
X70000D02*
D03*
X66000D02*
D03*
X52000Y113000D02*
D03*
Y109000D02*
D03*
Y105000D02*
D03*
Y101000D02*
D03*
X62000Y95000D02*
D03*
X52000Y97000D02*
D03*
X54000Y95000D02*
D03*
X52000Y81000D02*
D03*
Y93000D02*
D03*
X56000D02*
D03*
X86000Y83000D02*
D03*
X88000Y81000D02*
D03*
Y85000D02*
D03*
X90000Y83000D02*
D03*
X84000Y85000D02*
D03*
X86000Y79000D02*
D03*
X84000Y81000D02*
D03*
X82000Y83000D02*
D03*
Y79000D02*
D03*
X78000D02*
D03*
X74000D02*
D03*
X76000Y61000D02*
D03*
X78000Y59000D02*
D03*
X74000D02*
D03*
X72000Y61000D02*
D03*
X80000Y57000D02*
D03*
X76000Y53000D02*
D03*
X78000Y55000D02*
D03*
X78000Y51000D02*
D03*
X74000D02*
D03*
X72000Y53000D02*
D03*
X70000Y51000D02*
D03*
X76000Y57000D02*
D03*
X72000D02*
D03*
X70000Y55000D02*
D03*
X68000Y53000D02*
D03*
X70000Y79000D02*
D03*
X54000D02*
D03*
X58000D02*
D03*
X52000Y77000D02*
D03*
Y73000D02*
D03*
X62000Y71000D02*
D03*
X52000Y69000D02*
D03*
X62000Y59000D02*
D03*
X60000Y61000D02*
D03*
X52000Y65000D02*
D03*
X62000Y67000D02*
D03*
Y63000D02*
D03*
X56000Y61000D02*
D03*
X52000D02*
D03*
X62000Y55000D02*
D03*
X60000Y57000D02*
D03*
X58000Y59000D02*
D03*
X54000D02*
D03*
X56000Y57000D02*
D03*
X58000Y55000D02*
D03*
X66000Y51000D02*
D03*
X64000Y53000D02*
D03*
X62000Y51000D02*
D03*
X60000Y53000D02*
D03*
X58000Y51000D02*
D03*
X95884Y85321D02*
D03*
Y85829D02*
D03*
X95376D02*
D03*
Y85321D02*
D03*
X103875Y82350D02*
D03*
X102750Y82375D02*
D03*
X91550Y147600D02*
D03*
X90900D02*
D03*
X80400Y151300D02*
D03*
X79400D02*
D03*
X75400Y151300D02*
D03*
X76400D02*
D03*
X71400D02*
D03*
X72400D02*
D03*
X68400D02*
D03*
X67400D02*
D03*
X89870Y105917D02*
D03*
X90648Y105139D02*
D03*
X91425Y105917D02*
D03*
X90648Y106695D02*
D03*
X94191Y77811D02*
D03*
X83200Y132500D02*
D03*
X82050Y131350D02*
D03*
X83550Y128975D02*
D03*
X82000Y128250D02*
D03*
X96400Y117125D02*
D03*
X81400D02*
D03*
D165*
X87645Y121438D02*
D03*
X88145Y121410D02*
D03*
X68225Y141050D02*
D03*
X68950Y141775D02*
D03*
X72650Y140600D02*
D03*
X73675Y84375D02*
D03*
X63500Y111500D02*
D03*
X71875Y116242D02*
D03*
Y118258D02*
D03*
X83876Y136584D02*
D03*
X82150Y103475D02*
D03*
X65500Y98500D02*
D03*
X64500D02*
D03*
X58500Y109500D02*
D03*
X55200Y103500D02*
D03*
Y104000D02*
D03*
Y104500D02*
D03*
Y105000D02*
D03*
X57100Y104000D02*
D03*
X82150Y98125D02*
D03*
Y98775D02*
D03*
X77800Y107750D02*
D03*
Y107250D02*
D03*
Y106750D02*
D03*
X60050Y116300D02*
D03*
X74300Y118200D02*
D03*
X73800D02*
D03*
X73300D02*
D03*
X70450D02*
D03*
X69950D02*
D03*
X69450D02*
D03*
X68600D02*
D03*
X68100D02*
D03*
X67600D02*
D03*
X67100D02*
D03*
X66250D02*
D03*
X65750D02*
D03*
X65250D02*
D03*
X64750D02*
D03*
X63900D02*
D03*
X63400D02*
D03*
X62900D02*
D03*
X62400D02*
D03*
X61550D02*
D03*
X61050D02*
D03*
X60550D02*
D03*
X60050D02*
D03*
X59200D02*
D03*
X58700D02*
D03*
X58200D02*
D03*
X57700D02*
D03*
X90800Y163584D02*
D03*
X69350Y136850D02*
D03*
Y138850D02*
D03*
X86900Y113150D02*
D03*
X104550Y79700D02*
D03*
X62500Y112500D02*
D03*
X89725Y111892D02*
D03*
X73500Y109500D02*
D03*
X93108Y79601D02*
D03*
X92754Y79248D02*
D03*
X72500Y98500D02*
D03*
X73500D02*
D03*
X73500Y104500D02*
D03*
X69500Y109500D02*
D03*
X63500D02*
D03*
X69500Y103500D02*
D03*
X63500D02*
D03*
X67500Y104500D02*
D03*
X65500D02*
D03*
X67500Y105500D02*
D03*
X68500D02*
D03*
Y104500D02*
D03*
X68450Y107500D02*
D03*
X65500Y105500D02*
D03*
X64500D02*
D03*
Y104500D02*
D03*
Y107500D02*
D03*
X67500Y108500D02*
D03*
X68500D02*
D03*
X65500D02*
D03*
X64500D02*
D03*
X67450Y107500D02*
D03*
X65500D02*
D03*
X56200Y63450D02*
D03*
X83876Y151584D02*
D03*
Y150584D02*
D03*
Y149584D02*
D03*
Y148584D02*
D03*
Y135584D02*
D03*
X90800Y138584D02*
D03*
Y148584D02*
D03*
Y149584D02*
D03*
Y150584D02*
D03*
Y151584D02*
D03*
Y152584D02*
D03*
Y153584D02*
D03*
Y154584D02*
D03*
Y155584D02*
D03*
Y156584D02*
D03*
Y157584D02*
D03*
Y158584D02*
D03*
Y159584D02*
D03*
Y160584D02*
D03*
Y161584D02*
D03*
Y162584D02*
D03*
X83900Y159575D02*
D03*
Y160575D02*
D03*
X88550Y107650D02*
D03*
X88300Y107200D02*
D03*
X87850Y106950D02*
D03*
X88650Y121425D02*
D03*
X90725Y115200D02*
D03*
X89150Y115450D02*
D03*
X87150D02*
D03*
X88150D02*
D03*
X90650Y121425D02*
D03*
X69350Y138350D02*
D03*
Y137850D02*
D03*
Y137350D02*
D03*
X71150Y134600D02*
D03*
X74400Y138850D02*
D03*
Y136850D02*
D03*
D166*
X98536Y96687D02*
D03*
X96758D02*
D03*
X94980D02*
D03*
Y98313D02*
D03*
X96758D02*
D03*
X98536D02*
D03*
X100314D02*
D03*
Y96687D02*
D03*
X102092D02*
D03*
Y98313D02*
D03*
X103870D02*
D03*
Y96687D02*
D03*
X98536Y103012D02*
D03*
X100314D02*
D03*
X98536Y104587D02*
D03*
X100314D02*
D03*
X103235Y103012D02*
D03*
Y104587D02*
D03*
X98536Y91988D02*
D03*
Y90413D02*
D03*
X100314Y91988D02*
D03*
Y90413D02*
D03*
D180*
X90800Y151584D02*
X90800Y151584D01*
M02*
