G04*
G04 #@! TF.GenerationSoftware,Altium Limited,Altium Designer,21.7.2 (23)*
G04*
G04 Layer_Physical_Order=8*
G04 Layer_Color=16711680*
%FSLAX43Y43*%
%MOMM*%
G71*
G04*
G04 #@! TF.SameCoordinates,CDD7AD83-C9AE-4F87-97AC-33ADADA6BBDB*
G04*
G04*
G04 #@! TF.FilePolarity,Positive*
G04*
G01*
G75*
%ADD11C,0.250*%
%ADD17C,0.300*%
G04:AMPARAMS|DCode=23|XSize=0.61mm|YSize=0.6mm|CornerRadius=0.15mm|HoleSize=0mm|Usage=FLASHONLY|Rotation=180.000|XOffset=0mm|YOffset=0mm|HoleType=Round|Shape=RoundedRectangle|*
%AMROUNDEDRECTD23*
21,1,0.610,0.300,0,0,180.0*
21,1,0.310,0.600,0,0,180.0*
1,1,0.300,-0.155,0.150*
1,1,0.300,0.155,0.150*
1,1,0.300,0.155,-0.150*
1,1,0.300,-0.155,-0.150*
%
%ADD23ROUNDEDRECTD23*%
G04:AMPARAMS|DCode=26|XSize=0.5mm|YSize=0.6mm|CornerRadius=0.125mm|HoleSize=0mm|Usage=FLASHONLY|Rotation=90.000|XOffset=0mm|YOffset=0mm|HoleType=Round|Shape=RoundedRectangle|*
%AMROUNDEDRECTD26*
21,1,0.500,0.350,0,0,90.0*
21,1,0.250,0.600,0,0,90.0*
1,1,0.250,0.175,0.125*
1,1,0.250,0.175,-0.125*
1,1,0.250,-0.175,-0.125*
1,1,0.250,-0.175,0.125*
%
%ADD26ROUNDEDRECTD26*%
G04:AMPARAMS|DCode=36|XSize=0.5mm|YSize=0.6mm|CornerRadius=0.125mm|HoleSize=0mm|Usage=FLASHONLY|Rotation=180.000|XOffset=0mm|YOffset=0mm|HoleType=Round|Shape=RoundedRectangle|*
%AMROUNDEDRECTD36*
21,1,0.500,0.350,0,0,180.0*
21,1,0.250,0.600,0,0,180.0*
1,1,0.250,-0.125,0.175*
1,1,0.250,0.125,0.175*
1,1,0.250,0.125,-0.175*
1,1,0.250,-0.125,-0.175*
%
%ADD36ROUNDEDRECTD36*%
G04:AMPARAMS|DCode=37|XSize=0.9mm|YSize=0.8mm|CornerRadius=0.2mm|HoleSize=0mm|Usage=FLASHONLY|Rotation=0.000|XOffset=0mm|YOffset=0mm|HoleType=Round|Shape=RoundedRectangle|*
%AMROUNDEDRECTD37*
21,1,0.900,0.400,0,0,0.0*
21,1,0.500,0.800,0,0,0.0*
1,1,0.400,0.250,-0.200*
1,1,0.400,-0.250,-0.200*
1,1,0.400,-0.250,0.200*
1,1,0.400,0.250,0.200*
%
%ADD37ROUNDEDRECTD37*%
G04:AMPARAMS|DCode=41|XSize=0.61mm|YSize=0.6mm|CornerRadius=0.15mm|HoleSize=0mm|Usage=FLASHONLY|Rotation=270.000|XOffset=0mm|YOffset=0mm|HoleType=Round|Shape=RoundedRectangle|*
%AMROUNDEDRECTD41*
21,1,0.610,0.300,0,0,270.0*
21,1,0.310,0.600,0,0,270.0*
1,1,0.300,-0.150,-0.155*
1,1,0.300,-0.150,0.155*
1,1,0.300,0.150,0.155*
1,1,0.300,0.150,-0.155*
%
%ADD41ROUNDEDRECTD41*%
G04:AMPARAMS|DCode=44|XSize=0.9mm|YSize=0.8mm|CornerRadius=0.2mm|HoleSize=0mm|Usage=FLASHONLY|Rotation=270.000|XOffset=0mm|YOffset=0mm|HoleType=Round|Shape=RoundedRectangle|*
%AMROUNDEDRECTD44*
21,1,0.900,0.400,0,0,270.0*
21,1,0.500,0.800,0,0,270.0*
1,1,0.400,-0.200,-0.250*
1,1,0.400,-0.200,0.250*
1,1,0.400,0.200,0.250*
1,1,0.400,0.200,-0.250*
%
%ADD44ROUNDEDRECTD44*%
%ADD76C,0.140*%
%ADD77C,0.400*%
%ADD78C,0.500*%
%ADD146C,0.185*%
%ADD149C,4.200*%
%ADD150O,1.600X1.300*%
%ADD151R,3.450X3.450*%
%ADD152R,1.000X1.800*%
%ADD153C,1.150*%
%ADD154R,1.150X1.150*%
%ADD155O,0.500X1.500*%
%ADD156R,1.250X1.250*%
%ADD157C,6.000*%
%ADD158C,1.500*%
%ADD159R,1.800X1.000*%
%ADD160P,3.818X4X180.0*%
%ADD161P,1.626X4X180.0*%
%ADD162C,0.600*%
%ADD163C,0.400*%
%ADD164C,0.700*%
%ADD179O,2.337X0.610*%
G36*
X58455Y189417D02*
X58653Y189391D01*
X58838Y189314D01*
X58997Y189192D01*
X58997Y189192D01*
Y189192D01*
X59088Y189105D01*
X68455Y179738D01*
X68539Y179644D01*
Y179644D01*
X68637Y179568D01*
X68816Y179431D01*
X69139Y179297D01*
X69485Y179252D01*
Y179258D01*
X69495Y179260D01*
X100865D01*
X100875Y179258D01*
Y179257D01*
X101073Y179231D01*
X101258Y179154D01*
X101417Y179032D01*
X101419Y179029D01*
X102827Y177621D01*
X102833Y177613D01*
X102832Y177612D01*
X102954Y177453D01*
X103031Y177268D01*
X103057Y177070D01*
X103058D01*
X103060Y177060D01*
Y139461D01*
X103052Y139335D01*
X103052Y139335D01*
X103068Y139212D01*
X103097Y138989D01*
X103231Y138666D01*
X103444Y138389D01*
X103448Y138393D01*
X103456Y138387D01*
X112987Y128856D01*
X112993Y128848D01*
X112992Y128847D01*
X113114Y128688D01*
X113191Y128503D01*
X113217Y128305D01*
X113218D01*
X113218Y51000D01*
X113216D01*
X113192Y50815D01*
X113120Y50642D01*
X113007Y50493D01*
X112858Y50380D01*
X112685Y50308D01*
X112500Y50284D01*
Y50282D01*
X51000D01*
Y50284D01*
X50815Y50308D01*
X50642Y50380D01*
X50493Y50493D01*
X50380Y50642D01*
X50308Y50815D01*
X50284Y51000D01*
X50282D01*
Y188700D01*
X50284D01*
X50308Y188885D01*
X50380Y189058D01*
X50493Y189207D01*
X50642Y189320D01*
X50815Y189392D01*
X51000Y189416D01*
Y189418D01*
X58455D01*
Y189417D01*
D02*
G37*
%LPC*%
G36*
X68940Y170850D02*
X68760D01*
X68595Y170781D01*
X68550Y170736D01*
X68505Y170781D01*
X68340Y170850D01*
X68160D01*
X67995Y170781D01*
X67869Y170655D01*
X67800Y170490D01*
Y170310D01*
X67869Y170145D01*
X67914Y170100D01*
X67869Y170055D01*
X67800Y169890D01*
Y169710D01*
X67869Y169545D01*
X67995Y169419D01*
X68160Y169350D01*
X68340D01*
X68505Y169419D01*
X68550Y169464D01*
X68595Y169419D01*
X68760Y169350D01*
X68940D01*
X69105Y169419D01*
X69231Y169545D01*
X69300Y169710D01*
Y169890D01*
X69231Y170055D01*
X69186Y170100D01*
X69231Y170145D01*
X69300Y170310D01*
Y170490D01*
X69231Y170655D01*
X69105Y170781D01*
X68940Y170850D01*
D02*
G37*
G36*
X77890Y169900D02*
X77710D01*
X77545Y169831D01*
X77500Y169786D01*
X77455Y169831D01*
X77290Y169900D01*
X77110D01*
X76945Y169831D01*
X76819Y169705D01*
X76750Y169540D01*
Y169360D01*
X76819Y169195D01*
X76864Y169150D01*
X76819Y169105D01*
X76750Y168940D01*
Y168760D01*
X76819Y168595D01*
X76945Y168469D01*
X77110Y168400D01*
X77290D01*
X77455Y168469D01*
X77500Y168514D01*
X77545Y168469D01*
X77710Y168400D01*
X77890D01*
X78055Y168469D01*
X78181Y168595D01*
X78250Y168760D01*
Y168940D01*
X78181Y169105D01*
X78136Y169150D01*
X78181Y169195D01*
X78250Y169360D01*
Y169540D01*
X78181Y169705D01*
X78055Y169831D01*
X77890Y169900D01*
D02*
G37*
G36*
X73000Y170200D02*
X72550D01*
Y169350D01*
X73000D01*
Y170200D01*
D02*
G37*
G36*
X72150D02*
X71700D01*
Y169350D01*
X72150D01*
Y170200D01*
D02*
G37*
G36*
X73000Y168950D02*
X72550D01*
Y168100D01*
X73000D01*
Y168950D01*
D02*
G37*
G36*
X72150D02*
X71700D01*
Y168100D01*
X72150D01*
Y168950D01*
D02*
G37*
G36*
X60990Y167250D02*
X60810D01*
X60645Y167181D01*
X60519Y167055D01*
X60467Y166931D01*
X60333D01*
X60281Y167055D01*
X60155Y167181D01*
X59990Y167250D01*
X59810D01*
X59645Y167181D01*
X59519Y167055D01*
X59467Y166931D01*
X59333D01*
X59281Y167055D01*
X59155Y167181D01*
X58990Y167250D01*
X58810D01*
X58645Y167181D01*
X58519Y167055D01*
X58450Y166890D01*
Y166710D01*
X58519Y166545D01*
X58645Y166419D01*
X58810Y166350D01*
X58990D01*
X59155Y166419D01*
X59281Y166545D01*
X59333Y166669D01*
X59467D01*
X59519Y166545D01*
X59645Y166419D01*
X59810Y166350D01*
X59990D01*
X60155Y166419D01*
X60281Y166545D01*
X60333Y166669D01*
X60467D01*
X60519Y166545D01*
X60645Y166419D01*
X60810Y166350D01*
X60990D01*
X61155Y166419D01*
X61281Y166545D01*
X61350Y166710D01*
Y166890D01*
X61281Y167055D01*
X61155Y167181D01*
X60990Y167250D01*
D02*
G37*
G36*
X76990D02*
X76810D01*
X76645Y167181D01*
X76519Y167055D01*
X76467Y166931D01*
X76333D01*
X76281Y167055D01*
X76155Y167181D01*
X75990Y167250D01*
X75810D01*
X75645Y167181D01*
X75519Y167055D01*
X75467Y166931D01*
X75333D01*
X75281Y167055D01*
X75155Y167181D01*
X74990Y167250D01*
X74810D01*
X74645Y167181D01*
X74519Y167055D01*
X74450Y166890D01*
Y166710D01*
X74519Y166545D01*
X74645Y166419D01*
X74810Y166350D01*
X74990D01*
X75155Y166419D01*
X75281Y166545D01*
X75333Y166669D01*
X75467D01*
X75519Y166545D01*
X75645Y166419D01*
X75810Y166350D01*
X75990D01*
X76155Y166419D01*
X76281Y166545D01*
X76333Y166669D01*
X76467D01*
X76519Y166545D01*
X76645Y166419D01*
X76810Y166350D01*
X76990D01*
X77155Y166419D01*
X77281Y166545D01*
X77350Y166710D01*
Y166890D01*
X77281Y167055D01*
X77155Y167181D01*
X76990Y167250D01*
D02*
G37*
G36*
X68990D02*
X68810D01*
X68645Y167181D01*
X68519Y167055D01*
X68467Y166931D01*
X68333D01*
X68281Y167055D01*
X68155Y167181D01*
X67990Y167250D01*
X67810D01*
X67645Y167181D01*
X67519Y167055D01*
X67467Y166931D01*
X67333D01*
X67281Y167055D01*
X67155Y167181D01*
X66990Y167250D01*
X66810D01*
X66645Y167181D01*
X66519Y167055D01*
X66450Y166890D01*
Y166710D01*
X66519Y166545D01*
X66645Y166419D01*
X66810Y166350D01*
X66990D01*
X67155Y166419D01*
X67281Y166545D01*
X67333Y166669D01*
X67467D01*
X67519Y166545D01*
X67645Y166419D01*
X67810Y166350D01*
X67990D01*
X68155Y166419D01*
X68281Y166545D01*
X68333Y166669D01*
X68467D01*
X68519Y166545D01*
X68645Y166419D01*
X68810Y166350D01*
X68990D01*
X69155Y166419D01*
X69281Y166545D01*
X69350Y166710D01*
Y166890D01*
X69281Y167055D01*
X69155Y167181D01*
X68990Y167250D01*
D02*
G37*
G36*
X87470Y168284D02*
X87206D01*
X86952Y168216D01*
X86724Y168084D01*
X86538Y167898D01*
X86406Y167670D01*
X86338Y167416D01*
Y167152D01*
X86406Y166898D01*
X86538Y166670D01*
X86724Y166484D01*
X86952Y166352D01*
X87206Y166284D01*
X87470D01*
X87724Y166352D01*
X87952Y166484D01*
X88138Y166670D01*
X88270Y166898D01*
X88338Y167152D01*
Y167416D01*
X88270Y167670D01*
X88138Y167898D01*
X87952Y168084D01*
X87724Y168216D01*
X87470Y168284D01*
D02*
G37*
G36*
X85138Y166048D02*
X84474D01*
X84297Y166012D01*
X84146Y165912D01*
X84143Y165906D01*
X84048Y165897D01*
X83920Y165950D01*
X83780D01*
X83652Y165897D01*
X83650Y165895D01*
X83648Y165897D01*
X83520Y165950D01*
X83380D01*
X83252Y165897D01*
X83153Y165798D01*
X83100Y165670D01*
Y165530D01*
X83153Y165402D01*
X83252Y165303D01*
X83380Y165250D01*
X83520D01*
X83598Y165283D01*
X83658Y165248D01*
X83658Y165111D01*
X83560Y165012D01*
X83507Y164883D01*
Y164744D01*
X83417Y164714D01*
X83412D01*
X83283Y164661D01*
X83185Y164562D01*
X83132Y164433D01*
Y164294D01*
X83185Y164166D01*
X83283Y164067D01*
X83412Y164014D01*
X83419D01*
X83507Y163893D01*
Y163754D01*
X83417Y163723D01*
X83412D01*
X83283Y163670D01*
X83185Y163571D01*
X83132Y163443D01*
Y163304D01*
X83185Y163175D01*
X83283Y163076D01*
X83412Y163023D01*
X83551D01*
X83680Y163076D01*
X83696Y163093D01*
X84040D01*
X84104Y162966D01*
X84097Y162957D01*
X83850D01*
X83816Y162950D01*
X83780D01*
X83748Y162937D01*
X83713Y162930D01*
X83684Y162910D01*
X83652Y162897D01*
X83627Y162872D01*
X83598Y162852D01*
X83578Y162823D01*
X83553Y162798D01*
X83540Y162766D01*
X83520Y162737D01*
X83513Y162702D01*
X83500Y162670D01*
Y162634D01*
X83493Y162600D01*
X83500Y162566D01*
Y162530D01*
X83513Y162498D01*
X83520Y162463D01*
X83540Y162434D01*
X83553Y162402D01*
X83578Y162377D01*
X83598Y162348D01*
X83627Y162328D01*
X83652Y162303D01*
X83684Y162290D01*
X83713Y162270D01*
X83748Y162263D01*
X83780Y162250D01*
X83816D01*
X83850Y162243D01*
X84166D01*
X84297Y162156D01*
X84331Y162149D01*
Y162019D01*
X84297Y162012D01*
X84214Y161957D01*
X83850D01*
X83816Y161950D01*
X83780D01*
X83748Y161937D01*
X83713Y161930D01*
X83684Y161910D01*
X83652Y161897D01*
X83627Y161872D01*
X83598Y161852D01*
X83578Y161823D01*
X83553Y161798D01*
X83540Y161766D01*
X83520Y161737D01*
X83513Y161702D01*
X83500Y161670D01*
Y161634D01*
X83493Y161600D01*
X83500Y161566D01*
Y161530D01*
X83513Y161498D01*
X83520Y161463D01*
X83540Y161434D01*
X83553Y161402D01*
X83578Y161377D01*
X83598Y161348D01*
X83627Y161328D01*
X83652Y161303D01*
X83684Y161290D01*
X83713Y161270D01*
X83748Y161263D01*
X83780Y161250D01*
X83816D01*
X83850Y161243D01*
X84166D01*
X84297Y161156D01*
X84331Y161149D01*
Y161019D01*
X84297Y161012D01*
X84146Y160912D01*
X84121Y160874D01*
X84098Y160872D01*
X83970Y160925D01*
X83830D01*
X83702Y160872D01*
X83603Y160773D01*
X83550Y160645D01*
Y160505D01*
X83603Y160377D01*
X83702Y160278D01*
X83830Y160225D01*
X83970D01*
X84098Y160278D01*
X84134Y160275D01*
X84146Y160256D01*
X84297Y160156D01*
X84331Y160149D01*
Y160019D01*
X84297Y160012D01*
X84146Y159912D01*
X84121Y159874D01*
X84098Y159872D01*
X83970Y159925D01*
X83830D01*
X83702Y159872D01*
X83603Y159773D01*
X83550Y159645D01*
Y159505D01*
X83603Y159377D01*
X83702Y159278D01*
X83830Y159225D01*
X83970D01*
X84098Y159278D01*
X84134Y159275D01*
X84146Y159256D01*
X84297Y159156D01*
X84331Y159149D01*
Y159019D01*
X84297Y159012D01*
X84146Y158912D01*
X84129Y158886D01*
X84074Y158881D01*
X83946Y158934D01*
X83806D01*
X83678Y158881D01*
X83579Y158782D01*
X83526Y158654D01*
Y158514D01*
X83579Y158386D01*
X83678Y158287D01*
X83806Y158234D01*
X83946D01*
X84074Y158287D01*
X84129Y158282D01*
X84146Y158256D01*
X84297Y158156D01*
X84331Y158149D01*
Y158019D01*
X84297Y158012D01*
X84146Y157912D01*
X84129Y157886D01*
X84074Y157881D01*
X83946Y157934D01*
X83806D01*
X83678Y157881D01*
X83579Y157782D01*
X83526Y157654D01*
Y157514D01*
X83579Y157386D01*
X83678Y157287D01*
X83806Y157234D01*
X83946D01*
X84074Y157287D01*
X84129Y157282D01*
X84146Y157256D01*
X84297Y157156D01*
X84331Y157149D01*
Y157019D01*
X84297Y157012D01*
X84146Y156912D01*
X84129Y156886D01*
X84074Y156881D01*
X83946Y156934D01*
X83806D01*
X83678Y156881D01*
X83579Y156782D01*
X83526Y156654D01*
Y156514D01*
X83579Y156386D01*
X83678Y156287D01*
X83806Y156234D01*
X83946D01*
X84074Y156287D01*
X84129Y156282D01*
X84146Y156256D01*
X84297Y156156D01*
X84331Y156149D01*
Y156019D01*
X84297Y156012D01*
X84146Y155912D01*
X84129Y155886D01*
X84074Y155881D01*
X83946Y155934D01*
X83806D01*
X83678Y155881D01*
X83579Y155782D01*
X83526Y155654D01*
Y155514D01*
X83579Y155386D01*
X83678Y155287D01*
X83806Y155234D01*
X83946D01*
X84074Y155287D01*
X84129Y155282D01*
X84146Y155256D01*
X84297Y155156D01*
X84331Y155149D01*
Y155019D01*
X84297Y155012D01*
X84146Y154912D01*
X84046Y154761D01*
X84011Y154584D01*
X84046Y154407D01*
X84146Y154256D01*
X84297Y154156D01*
X84331Y154149D01*
Y154019D01*
X84297Y154012D01*
X84146Y153912D01*
X84046Y153761D01*
X84011Y153584D01*
X84046Y153407D01*
X84146Y153256D01*
X84297Y153156D01*
X84331Y153149D01*
Y153019D01*
X84297Y153012D01*
X84146Y152912D01*
X84046Y152761D01*
X84011Y152584D01*
X84046Y152407D01*
X84146Y152256D01*
X84297Y152156D01*
X84331Y152149D01*
Y152019D01*
X84297Y152012D01*
X84146Y151912D01*
X84129Y151886D01*
X84074Y151881D01*
X83946Y151934D01*
X83806D01*
X83678Y151881D01*
X83579Y151782D01*
X83526Y151654D01*
Y151514D01*
X83579Y151386D01*
X83678Y151287D01*
X83806Y151234D01*
X83946D01*
X84074Y151287D01*
X84129Y151282D01*
X84146Y151256D01*
X84297Y151156D01*
X84331Y151149D01*
Y151019D01*
X84297Y151012D01*
X84146Y150912D01*
X84129Y150886D01*
X84074Y150881D01*
X83946Y150934D01*
X83806D01*
X83678Y150881D01*
X83579Y150782D01*
X83526Y150654D01*
Y150514D01*
X83579Y150386D01*
X83678Y150287D01*
X83806Y150234D01*
X83946D01*
X84074Y150287D01*
X84129Y150282D01*
X84146Y150256D01*
X84297Y150156D01*
X84331Y150149D01*
Y150019D01*
X84297Y150012D01*
X84146Y149912D01*
X84129Y149886D01*
X84074Y149881D01*
X83946Y149934D01*
X83806D01*
X83678Y149881D01*
X83579Y149782D01*
X83526Y149654D01*
Y149514D01*
X83579Y149386D01*
X83678Y149287D01*
X83806Y149234D01*
X83946D01*
X84074Y149287D01*
X84129Y149282D01*
X84146Y149256D01*
X84297Y149156D01*
X84331Y149149D01*
Y149019D01*
X84297Y149012D01*
X84146Y148912D01*
X84129Y148886D01*
X84074Y148881D01*
X83946Y148934D01*
X83806D01*
X83678Y148881D01*
X83579Y148782D01*
X83526Y148654D01*
Y148514D01*
X83579Y148386D01*
X83678Y148287D01*
X83806Y148234D01*
X83946D01*
X84074Y148287D01*
X84129Y148282D01*
X84146Y148256D01*
X84297Y148156D01*
X84331Y148149D01*
Y148019D01*
X84297Y148012D01*
X84146Y147912D01*
X84107Y147852D01*
X84048Y147847D01*
X83920Y147900D01*
X83780D01*
X83652Y147847D01*
X83650Y147845D01*
X83648Y147847D01*
X83520Y147900D01*
X83380D01*
X83252Y147847D01*
X83153Y147748D01*
X83100Y147620D01*
Y147480D01*
X83153Y147352D01*
X83252Y147253D01*
X83380Y147200D01*
X83520D01*
X83648Y147253D01*
X83650Y147255D01*
X83652Y147253D01*
X83780Y147200D01*
X83920D01*
X84048Y147253D01*
X84060Y147265D01*
X84147Y147256D01*
X84297Y147156D01*
X84331Y147149D01*
Y147019D01*
X84297Y147012D01*
X84146Y146912D01*
X84046Y146761D01*
X84011Y146584D01*
X84046Y146407D01*
X84146Y146256D01*
X84297Y146156D01*
X84331Y146149D01*
Y146019D01*
X84297Y146012D01*
X84146Y145912D01*
X84093Y145832D01*
X84017Y145883D01*
X83900Y145906D01*
X83783Y145883D01*
X83684Y145816D01*
X83617Y145717D01*
X83594Y145600D01*
X83617Y145483D01*
X83684Y145384D01*
X83692Y145376D01*
X83791Y145309D01*
X83908Y145286D01*
X84025Y145309D01*
X84084Y145349D01*
X84146Y145256D01*
X84297Y145156D01*
X84331Y145149D01*
Y145019D01*
X84297Y145012D01*
X84146Y144912D01*
X84046Y144761D01*
X84011Y144584D01*
X84046Y144407D01*
X84146Y144256D01*
X84297Y144156D01*
X84331Y144149D01*
Y144019D01*
X84297Y144012D01*
X84146Y143912D01*
X84046Y143761D01*
X84011Y143584D01*
X84046Y143407D01*
X84146Y143256D01*
X84297Y143156D01*
X84331Y143149D01*
Y143019D01*
X84297Y143012D01*
X84146Y142912D01*
X84093Y142832D01*
X84017Y142883D01*
X83900Y142906D01*
X83783Y142883D01*
X83684Y142816D01*
X83617Y142717D01*
X83594Y142600D01*
X83617Y142483D01*
X83684Y142384D01*
X83692Y142376D01*
X83791Y142309D01*
X83908Y142286D01*
X84025Y142309D01*
X84084Y142349D01*
X84146Y142256D01*
X84297Y142156D01*
X84331Y142149D01*
Y142019D01*
X84297Y142012D01*
X84146Y141912D01*
X84046Y141761D01*
X84011Y141584D01*
X84046Y141407D01*
X84146Y141256D01*
X84297Y141156D01*
X84331Y141149D01*
Y141019D01*
X84297Y141012D01*
X84146Y140912D01*
X84046Y140761D01*
X84011Y140584D01*
X84046Y140407D01*
X84146Y140256D01*
X84297Y140156D01*
X84331Y140149D01*
Y140019D01*
X84297Y140012D01*
X84146Y139912D01*
X84046Y139761D01*
X84011Y139584D01*
X84046Y139407D01*
X84146Y139256D01*
X84297Y139156D01*
X84331Y139149D01*
Y139019D01*
X84297Y139012D01*
X84146Y138912D01*
X84046Y138761D01*
X84011Y138584D01*
X84046Y138407D01*
X84146Y138256D01*
X84297Y138156D01*
X84331Y138149D01*
Y138019D01*
X84297Y138012D01*
X84146Y137912D01*
X84046Y137761D01*
X84011Y137584D01*
X84046Y137407D01*
X84146Y137256D01*
X84297Y137156D01*
X84331Y137149D01*
Y137019D01*
X84297Y137012D01*
X84146Y136912D01*
X84129Y136886D01*
X84074Y136881D01*
X83946Y136934D01*
X83806D01*
X83678Y136881D01*
X83579Y136782D01*
X83526Y136654D01*
Y136514D01*
X83579Y136386D01*
X83678Y136287D01*
X83806Y136234D01*
X83946D01*
X84074Y136287D01*
X84129Y136282D01*
X84146Y136256D01*
X84297Y136156D01*
X84331Y136149D01*
Y136019D01*
X84297Y136012D01*
X84146Y135912D01*
X84129Y135886D01*
X84074Y135881D01*
X83946Y135934D01*
X83806D01*
X83678Y135881D01*
X83579Y135782D01*
X83526Y135654D01*
Y135514D01*
X83579Y135386D01*
X83678Y135287D01*
X83806Y135234D01*
X83946D01*
X84074Y135287D01*
X84129Y135282D01*
X84146Y135256D01*
X84297Y135156D01*
X84331Y135149D01*
Y135019D01*
X84297Y135012D01*
X84146Y134912D01*
X84061Y134784D01*
X85338D01*
X86615D01*
X86529Y134912D01*
X86379Y135012D01*
X86345Y135019D01*
Y135149D01*
X86379Y135156D01*
X86529Y135256D01*
X86630Y135407D01*
X86665Y135584D01*
X86630Y135761D01*
X86529Y135912D01*
X86379Y136012D01*
X86345Y136019D01*
Y136149D01*
X86379Y136156D01*
X86529Y136256D01*
X86630Y136407D01*
X86665Y136584D01*
X86630Y136761D01*
X86529Y136912D01*
X86379Y137012D01*
X86345Y137019D01*
Y137149D01*
X86379Y137156D01*
X86529Y137256D01*
X86630Y137407D01*
X86665Y137584D01*
X86630Y137761D01*
X86529Y137912D01*
X86379Y138012D01*
X86345Y138019D01*
Y138149D01*
X86379Y138156D01*
X86529Y138256D01*
X86630Y138407D01*
X86665Y138584D01*
X86630Y138761D01*
X86529Y138912D01*
X86379Y139012D01*
X86345Y139019D01*
Y139149D01*
X86379Y139156D01*
X86529Y139256D01*
X86630Y139407D01*
X86665Y139584D01*
X86630Y139761D01*
X86529Y139912D01*
X86379Y140012D01*
X86345Y140019D01*
Y140149D01*
X86379Y140156D01*
X86529Y140256D01*
X86630Y140407D01*
X86665Y140584D01*
X86630Y140761D01*
X86529Y140912D01*
X86379Y141012D01*
X86345Y141019D01*
Y141149D01*
X86379Y141156D01*
X86529Y141256D01*
X86630Y141407D01*
X86665Y141584D01*
X86630Y141761D01*
X86529Y141912D01*
X86379Y142012D01*
X86345Y142019D01*
Y142149D01*
X86379Y142156D01*
X86529Y142256D01*
X86615Y142384D01*
X85338D01*
Y142784D01*
X86615D01*
X86529Y142912D01*
X86379Y143012D01*
X86345Y143019D01*
Y143149D01*
X86379Y143156D01*
X86529Y143256D01*
X86630Y143407D01*
X86665Y143584D01*
X86630Y143761D01*
X86529Y143912D01*
X86379Y144012D01*
X86345Y144019D01*
Y144149D01*
X86379Y144156D01*
X86529Y144256D01*
X86630Y144407D01*
X86665Y144584D01*
X86630Y144761D01*
X86529Y144912D01*
X86379Y145012D01*
X86345Y145019D01*
Y145149D01*
X86379Y145156D01*
X86529Y145256D01*
X86615Y145384D01*
X85338D01*
Y145784D01*
X86615D01*
X86529Y145912D01*
X86379Y146012D01*
X86345Y146019D01*
Y146149D01*
X86379Y146156D01*
X86529Y146256D01*
X86630Y146407D01*
X86665Y146584D01*
X86630Y146761D01*
X86529Y146912D01*
X86379Y147012D01*
X86345Y147019D01*
Y147149D01*
X86379Y147156D01*
X86529Y147256D01*
X86615Y147384D01*
X85338D01*
Y147784D01*
X86615D01*
X86529Y147912D01*
X86379Y148012D01*
X86345Y148019D01*
Y148149D01*
X86379Y148156D01*
X86529Y148256D01*
X86630Y148407D01*
X86665Y148584D01*
X86630Y148761D01*
X86529Y148912D01*
X86379Y149012D01*
X86345Y149019D01*
Y149149D01*
X86379Y149156D01*
X86529Y149256D01*
X86630Y149407D01*
X86665Y149584D01*
X86630Y149761D01*
X86529Y149912D01*
X86379Y150012D01*
X86345Y150019D01*
Y150149D01*
X86379Y150156D01*
X86529Y150256D01*
X86630Y150407D01*
X86665Y150584D01*
X86630Y150761D01*
X86529Y150912D01*
X86379Y151012D01*
X86345Y151019D01*
Y151149D01*
X86379Y151156D01*
X86529Y151256D01*
X86630Y151407D01*
X86665Y151584D01*
X86630Y151761D01*
X86529Y151912D01*
X86379Y152012D01*
X86345Y152019D01*
Y152149D01*
X86379Y152156D01*
X86529Y152256D01*
X86630Y152407D01*
X86665Y152584D01*
X86630Y152761D01*
X86529Y152912D01*
X86379Y153012D01*
X86345Y153019D01*
Y153149D01*
X86379Y153156D01*
X86529Y153256D01*
X86630Y153407D01*
X86665Y153584D01*
X86630Y153761D01*
X86529Y153912D01*
X86379Y154012D01*
X86345Y154019D01*
Y154149D01*
X86379Y154156D01*
X86529Y154256D01*
X86630Y154407D01*
X86665Y154584D01*
X86630Y154761D01*
X86529Y154912D01*
X86379Y155012D01*
X86345Y155019D01*
Y155149D01*
X86379Y155156D01*
X86529Y155256D01*
X86630Y155407D01*
X86665Y155584D01*
X86630Y155761D01*
X86529Y155912D01*
X86379Y156012D01*
X86345Y156019D01*
Y156149D01*
X86379Y156156D01*
X86529Y156256D01*
X86630Y156407D01*
X86665Y156584D01*
X86630Y156761D01*
X86529Y156912D01*
X86379Y157012D01*
X86345Y157019D01*
Y157149D01*
X86379Y157156D01*
X86529Y157256D01*
X86630Y157407D01*
X86665Y157584D01*
X86630Y157761D01*
X86529Y157912D01*
X86379Y158012D01*
X86345Y158019D01*
Y158149D01*
X86379Y158156D01*
X86529Y158256D01*
X86630Y158407D01*
X86665Y158584D01*
X86630Y158761D01*
X86529Y158912D01*
X86379Y159012D01*
X86345Y159019D01*
Y159149D01*
X86379Y159156D01*
X86529Y159256D01*
X86630Y159407D01*
X86665Y159584D01*
X86630Y159761D01*
X86529Y159912D01*
X86379Y160012D01*
X86345Y160019D01*
Y160149D01*
X86379Y160156D01*
X86529Y160256D01*
X86630Y160407D01*
X86665Y160584D01*
X86630Y160761D01*
X86529Y160912D01*
X86379Y161012D01*
X86345Y161019D01*
Y161149D01*
X86379Y161156D01*
X86529Y161256D01*
X86630Y161407D01*
X86665Y161584D01*
X86630Y161761D01*
X86529Y161912D01*
X86379Y162012D01*
X86345Y162019D01*
Y162149D01*
X86379Y162156D01*
X86529Y162256D01*
X86630Y162407D01*
X86665Y162584D01*
X86630Y162761D01*
X86529Y162912D01*
X86379Y163012D01*
X86345Y163019D01*
Y163149D01*
X86379Y163156D01*
X86529Y163256D01*
X86630Y163407D01*
X86665Y163584D01*
X86630Y163761D01*
X86529Y163912D01*
X86379Y164012D01*
X86345Y164019D01*
Y164149D01*
X86379Y164156D01*
X86529Y164256D01*
X86630Y164407D01*
X86665Y164584D01*
X86630Y164761D01*
X86529Y164912D01*
X86379Y165012D01*
X86345Y165019D01*
Y165149D01*
X86379Y165156D01*
X86529Y165256D01*
X86615Y165384D01*
X85338D01*
Y165584D01*
X85138D01*
Y166048D01*
D02*
G37*
G36*
X86202D02*
X85538D01*
Y165784D01*
X86615D01*
X86529Y165912D01*
X86379Y166012D01*
X86202Y166048D01*
D02*
G37*
G36*
X89138D02*
X88474D01*
X88297Y166012D01*
X88147Y165912D01*
X88061Y165784D01*
X89138D01*
Y166048D01*
D02*
G37*
G36*
X90202D02*
X89538D01*
Y165584D01*
X89338D01*
Y165384D01*
X88061D01*
X88147Y165256D01*
X88297Y165156D01*
X88331Y165149D01*
Y165019D01*
X88297Y165012D01*
X88147Y164912D01*
X88061Y164784D01*
X89338D01*
Y164384D01*
X88061D01*
X88147Y164256D01*
X88297Y164156D01*
X88331Y164149D01*
Y164019D01*
X88297Y164012D01*
X88147Y163912D01*
X88046Y163761D01*
X88011Y163584D01*
X88046Y163407D01*
X88147Y163256D01*
X88297Y163156D01*
X88331Y163149D01*
Y163019D01*
X88297Y163012D01*
X88147Y162912D01*
X88046Y162761D01*
X88011Y162584D01*
X88046Y162407D01*
X88147Y162256D01*
X88297Y162156D01*
X88331Y162149D01*
Y162019D01*
X88297Y162012D01*
X88147Y161912D01*
X88046Y161761D01*
X88011Y161584D01*
X88046Y161407D01*
X88147Y161256D01*
X88297Y161156D01*
X88331Y161149D01*
Y161019D01*
X88297Y161012D01*
X88147Y160912D01*
X88046Y160761D01*
X88011Y160584D01*
X88046Y160407D01*
X88147Y160256D01*
X88297Y160156D01*
X88331Y160149D01*
Y160019D01*
X88297Y160012D01*
X88147Y159912D01*
X88046Y159761D01*
X88011Y159584D01*
X88046Y159407D01*
X88147Y159256D01*
X88297Y159156D01*
X88331Y159149D01*
Y159019D01*
X88297Y159012D01*
X88147Y158912D01*
X88046Y158761D01*
X88011Y158584D01*
X88046Y158407D01*
X88147Y158256D01*
X88297Y158156D01*
X88331Y158149D01*
Y158019D01*
X88297Y158012D01*
X88147Y157912D01*
X88046Y157761D01*
X88011Y157584D01*
X88046Y157407D01*
X88147Y157256D01*
X88297Y157156D01*
X88331Y157149D01*
Y157019D01*
X88297Y157012D01*
X88147Y156912D01*
X88046Y156761D01*
X88011Y156584D01*
X88046Y156407D01*
X88147Y156256D01*
X88297Y156156D01*
X88331Y156149D01*
Y156019D01*
X88297Y156012D01*
X88147Y155912D01*
X88046Y155761D01*
X88011Y155584D01*
X88046Y155407D01*
X88147Y155256D01*
X88297Y155156D01*
X88331Y155149D01*
Y155019D01*
X88297Y155012D01*
X88147Y154912D01*
X88046Y154761D01*
X88011Y154584D01*
X88046Y154407D01*
X88147Y154256D01*
X88297Y154156D01*
X88331Y154149D01*
Y154019D01*
X88297Y154012D01*
X88147Y153912D01*
X88046Y153761D01*
X88011Y153584D01*
X88046Y153407D01*
X88147Y153256D01*
X88297Y153156D01*
X88331Y153149D01*
Y153019D01*
X88297Y153012D01*
X88147Y152912D01*
X88046Y152761D01*
X88011Y152584D01*
X88046Y152407D01*
X88147Y152256D01*
X88297Y152156D01*
X88331Y152149D01*
Y152019D01*
X88297Y152012D01*
X88147Y151912D01*
X88046Y151761D01*
X88011Y151584D01*
X88046Y151407D01*
X88147Y151256D01*
X88297Y151156D01*
X88331Y151149D01*
Y151019D01*
X88297Y151012D01*
X88147Y150912D01*
X88046Y150761D01*
X88011Y150584D01*
X88046Y150407D01*
X88147Y150256D01*
X88297Y150156D01*
X88331Y150149D01*
Y150019D01*
X88297Y150012D01*
X88147Y149912D01*
X88046Y149761D01*
X88011Y149584D01*
X88046Y149407D01*
X88147Y149256D01*
X88297Y149156D01*
X88331Y149149D01*
Y149019D01*
X88297Y149012D01*
X88147Y148912D01*
X88046Y148761D01*
X88011Y148584D01*
X88046Y148407D01*
X88147Y148256D01*
X88297Y148156D01*
X88331Y148149D01*
Y148019D01*
X88297Y148012D01*
X88147Y147912D01*
X88061Y147784D01*
X89338D01*
Y147384D01*
X88061D01*
X88147Y147256D01*
X88297Y147156D01*
X88331Y147149D01*
Y147019D01*
X88297Y147012D01*
X88147Y146912D01*
X88046Y146761D01*
X88011Y146584D01*
X88046Y146407D01*
X88147Y146256D01*
X88297Y146156D01*
X88331Y146149D01*
Y146019D01*
X88297Y146012D01*
X88147Y145912D01*
X88061Y145784D01*
X89338D01*
X90615D01*
X90529Y145912D01*
X90379Y146012D01*
X90345Y146019D01*
Y146149D01*
X90379Y146156D01*
X90529Y146256D01*
X90630Y146407D01*
X90665Y146584D01*
X90630Y146761D01*
X90529Y146912D01*
X90379Y147012D01*
X90345Y147019D01*
Y147149D01*
X90379Y147156D01*
X90529Y147256D01*
X90555Y147294D01*
X90652Y147303D01*
X90780Y147250D01*
X90920D01*
X91048Y147303D01*
X91050Y147305D01*
X91052Y147303D01*
X91180Y147250D01*
X91320D01*
X91448Y147303D01*
X91547Y147402D01*
X91600Y147530D01*
Y147670D01*
X91547Y147798D01*
X91448Y147897D01*
X91320Y147950D01*
X91180D01*
X91052Y147897D01*
X91050Y147895D01*
X91048Y147897D01*
X90920Y147950D01*
X90780D01*
X90652Y147897D01*
X90532Y147909D01*
X90529Y147912D01*
X90379Y148012D01*
X90345Y148019D01*
Y148149D01*
X90379Y148156D01*
X90529Y148256D01*
X90547Y148282D01*
X90602Y148287D01*
X90730Y148234D01*
X90870D01*
X90998Y148287D01*
X91097Y148386D01*
X91150Y148514D01*
Y148654D01*
X91097Y148782D01*
X90998Y148881D01*
X90870Y148934D01*
X90730D01*
X90602Y148881D01*
X90547Y148886D01*
X90529Y148912D01*
X90379Y149012D01*
X90345Y149019D01*
Y149149D01*
X90379Y149156D01*
X90529Y149256D01*
X90547Y149282D01*
X90602Y149287D01*
X90730Y149234D01*
X90870D01*
X90998Y149287D01*
X91097Y149386D01*
X91150Y149514D01*
Y149654D01*
X91097Y149782D01*
X90998Y149881D01*
X90870Y149934D01*
X90730D01*
X90602Y149881D01*
X90547Y149886D01*
X90529Y149912D01*
X90379Y150012D01*
X90345Y150019D01*
Y150149D01*
X90379Y150156D01*
X90529Y150256D01*
X90547Y150282D01*
X90602Y150287D01*
X90730Y150234D01*
X90870D01*
X90998Y150287D01*
X91097Y150386D01*
X91150Y150514D01*
Y150654D01*
X91097Y150782D01*
X90998Y150881D01*
X90870Y150934D01*
X90730D01*
X90602Y150881D01*
X90547Y150886D01*
X90529Y150912D01*
X90379Y151012D01*
X90345Y151019D01*
Y151149D01*
X90379Y151156D01*
X90529Y151256D01*
X90547Y151282D01*
X90602Y151287D01*
X90730Y151234D01*
X90870D01*
X90998Y151287D01*
X91097Y151386D01*
X91150Y151514D01*
Y151654D01*
X91097Y151782D01*
X90998Y151881D01*
X90870Y151934D01*
X90730D01*
X90602Y151881D01*
X90547Y151886D01*
X90529Y151912D01*
X90379Y152012D01*
X90345Y152019D01*
Y152149D01*
X90379Y152156D01*
X90529Y152256D01*
X90547Y152282D01*
X90602Y152287D01*
X90730Y152234D01*
X90870D01*
X90998Y152287D01*
X91097Y152386D01*
X91150Y152514D01*
Y152654D01*
X91097Y152782D01*
X90998Y152881D01*
X90870Y152934D01*
X90730D01*
X90602Y152881D01*
X90547Y152886D01*
X90529Y152912D01*
X90379Y153012D01*
X90345Y153019D01*
Y153149D01*
X90379Y153156D01*
X90529Y153256D01*
X90547Y153282D01*
X90602Y153287D01*
X90730Y153234D01*
X90870D01*
X90998Y153287D01*
X91097Y153386D01*
X91150Y153514D01*
Y153654D01*
X91097Y153782D01*
X90998Y153881D01*
X90870Y153934D01*
X90730D01*
X90602Y153881D01*
X90547Y153886D01*
X90529Y153912D01*
X90379Y154012D01*
X90345Y154019D01*
Y154149D01*
X90379Y154156D01*
X90529Y154256D01*
X90547Y154282D01*
X90602Y154287D01*
X90730Y154234D01*
X90870D01*
X90998Y154287D01*
X91097Y154386D01*
X91150Y154514D01*
Y154654D01*
X91097Y154782D01*
X90998Y154881D01*
X90870Y154934D01*
X90730D01*
X90602Y154881D01*
X90547Y154886D01*
X90529Y154912D01*
X90379Y155012D01*
X90345Y155019D01*
Y155149D01*
X90379Y155156D01*
X90529Y155256D01*
X90547Y155282D01*
X90602Y155287D01*
X90730Y155234D01*
X90870D01*
X90998Y155287D01*
X91097Y155386D01*
X91150Y155514D01*
Y155654D01*
X91097Y155782D01*
X90998Y155881D01*
X90870Y155934D01*
X90730D01*
X90602Y155881D01*
X90547Y155886D01*
X90529Y155912D01*
X90379Y156012D01*
X90345Y156019D01*
Y156149D01*
X90379Y156156D01*
X90529Y156256D01*
X90547Y156282D01*
X90602Y156287D01*
X90730Y156234D01*
X90870D01*
X90998Y156287D01*
X91097Y156386D01*
X91150Y156514D01*
Y156654D01*
X91097Y156782D01*
X90998Y156881D01*
X90870Y156934D01*
X90730D01*
X90602Y156881D01*
X90547Y156886D01*
X90529Y156912D01*
X90379Y157012D01*
X90345Y157019D01*
Y157149D01*
X90379Y157156D01*
X90529Y157256D01*
X90547Y157282D01*
X90602Y157287D01*
X90730Y157234D01*
X90870D01*
X90998Y157287D01*
X91097Y157386D01*
X91150Y157514D01*
Y157654D01*
X91097Y157782D01*
X90998Y157881D01*
X90870Y157934D01*
X90730D01*
X90602Y157881D01*
X90547Y157886D01*
X90529Y157912D01*
X90379Y158012D01*
X90345Y158019D01*
Y158149D01*
X90379Y158156D01*
X90529Y158256D01*
X90547Y158282D01*
X90602Y158287D01*
X90730Y158234D01*
X90870D01*
X90998Y158287D01*
X91097Y158386D01*
X91150Y158514D01*
Y158654D01*
X91097Y158782D01*
X90998Y158881D01*
X90870Y158934D01*
X90730D01*
X90602Y158881D01*
X90547Y158886D01*
X90529Y158912D01*
X90379Y159012D01*
X90345Y159019D01*
Y159149D01*
X90379Y159156D01*
X90529Y159256D01*
X90547Y159282D01*
X90602Y159287D01*
X90730Y159234D01*
X90870D01*
X90998Y159287D01*
X91097Y159386D01*
X91150Y159514D01*
Y159654D01*
X91097Y159782D01*
X90998Y159881D01*
X90870Y159934D01*
X90730D01*
X90602Y159881D01*
X90547Y159886D01*
X90529Y159912D01*
X90379Y160012D01*
X90345Y160019D01*
Y160149D01*
X90379Y160156D01*
X90529Y160256D01*
X90547Y160282D01*
X90602Y160287D01*
X90730Y160234D01*
X90870D01*
X90998Y160287D01*
X91097Y160386D01*
X91150Y160514D01*
Y160654D01*
X91097Y160782D01*
X90998Y160881D01*
X90870Y160934D01*
X90730D01*
X90602Y160881D01*
X90547Y160886D01*
X90529Y160912D01*
X90379Y161012D01*
X90345Y161019D01*
Y161149D01*
X90379Y161156D01*
X90529Y161256D01*
X90547Y161282D01*
X90602Y161287D01*
X90730Y161234D01*
X90870D01*
X90998Y161287D01*
X91097Y161386D01*
X91150Y161514D01*
Y161654D01*
X91097Y161782D01*
X90998Y161881D01*
X90870Y161934D01*
X90730D01*
X90602Y161881D01*
X90547Y161886D01*
X90529Y161912D01*
X90379Y162012D01*
X90345Y162019D01*
Y162149D01*
X90379Y162156D01*
X90529Y162256D01*
X90547Y162282D01*
X90602Y162287D01*
X90730Y162234D01*
X90870D01*
X90998Y162287D01*
X91097Y162386D01*
X91150Y162514D01*
Y162654D01*
X91097Y162782D01*
X90998Y162881D01*
X90870Y162934D01*
X90730D01*
X90602Y162881D01*
X90547Y162886D01*
X90529Y162912D01*
X90379Y163012D01*
X90345Y163019D01*
Y163149D01*
X90379Y163156D01*
X90529Y163256D01*
X90547Y163282D01*
X90602Y163287D01*
X90730Y163234D01*
X90870D01*
X90998Y163287D01*
X91097Y163386D01*
X91150Y163514D01*
Y163654D01*
X91097Y163782D01*
X90998Y163881D01*
X90870Y163934D01*
X90730D01*
X90602Y163881D01*
X90547Y163886D01*
X90529Y163912D01*
X90379Y164012D01*
X90345Y164019D01*
Y164149D01*
X90379Y164156D01*
X90529Y164256D01*
X90539Y164270D01*
X90627Y164278D01*
X90755Y164225D01*
X90895D01*
X91023Y164278D01*
X91025Y164280D01*
X91027Y164278D01*
X91155Y164225D01*
X91295D01*
X91423Y164278D01*
X91522Y164377D01*
X91575Y164505D01*
Y164645D01*
X91522Y164773D01*
X91423Y164872D01*
X91295Y164925D01*
X91155D01*
X91027Y164872D01*
X91025Y164870D01*
X91023Y164872D01*
X90895Y164925D01*
X90755D01*
X90627Y164872D01*
X90551Y164879D01*
X90529Y164912D01*
X90379Y165012D01*
X90345Y165019D01*
Y165149D01*
X90379Y165156D01*
X90529Y165256D01*
X90556Y165296D01*
X90627Y165303D01*
X90755Y165250D01*
X90895D01*
X91023Y165303D01*
X91025Y165305D01*
X91027Y165303D01*
X91155Y165250D01*
X91295D01*
X91423Y165303D01*
X91522Y165402D01*
X91575Y165530D01*
Y165670D01*
X91522Y165798D01*
X91423Y165897D01*
X91295Y165950D01*
X91155D01*
X91027Y165897D01*
X91025Y165895D01*
X91023Y165897D01*
X90895Y165950D01*
X90755D01*
X90627Y165897D01*
X90534Y165906D01*
X90529Y165912D01*
X90379Y166012D01*
X90202Y166048D01*
D02*
G37*
G36*
X60990Y154600D02*
X60810D01*
X60645Y154531D01*
X60519Y154405D01*
X60467Y154281D01*
X60333Y154281D01*
X60281Y154405D01*
X60155Y154531D01*
X59990Y154600D01*
X59810D01*
X59645Y154531D01*
X59519Y154405D01*
X59467Y154281D01*
X59333Y154281D01*
X59281Y154405D01*
X59155Y154531D01*
X58990Y154600D01*
X58810D01*
X58645Y154531D01*
X58519Y154405D01*
X58450Y154240D01*
Y154060D01*
X58519Y153895D01*
X58645Y153769D01*
X58810Y153700D01*
X58990D01*
X59155Y153769D01*
X59281Y153895D01*
X59333Y154019D01*
X59467Y154019D01*
X59519Y153895D01*
X59645Y153769D01*
X59810Y153700D01*
X59990D01*
X60155Y153769D01*
X60281Y153895D01*
X60333Y154019D01*
X60467Y154019D01*
X60519Y153895D01*
X60645Y153769D01*
X60810Y153700D01*
X60990D01*
X61155Y153769D01*
X61281Y153895D01*
X61350Y154060D01*
Y154240D01*
X61281Y154405D01*
X61155Y154531D01*
X60990Y154600D01*
D02*
G37*
G36*
X76990Y154600D02*
X76810D01*
X76645Y154531D01*
X76519Y154405D01*
X76467Y154281D01*
X76333D01*
X76281Y154405D01*
X76155Y154531D01*
X75990Y154600D01*
X75810D01*
X75645Y154531D01*
X75519Y154405D01*
X75467Y154281D01*
X75333D01*
X75281Y154405D01*
X75155Y154531D01*
X74990Y154600D01*
X74810D01*
X74645Y154531D01*
X74519Y154405D01*
X74450Y154240D01*
Y154060D01*
X74519Y153895D01*
X74645Y153769D01*
X74810Y153700D01*
X74990D01*
X75155Y153769D01*
X75281Y153895D01*
X75333Y154019D01*
X75467D01*
X75519Y153895D01*
X75645Y153769D01*
X75810Y153700D01*
X75990D01*
X76155Y153769D01*
X76281Y153895D01*
X76333Y154019D01*
X76467D01*
X76519Y153895D01*
X76645Y153769D01*
X76810Y153700D01*
X76990D01*
X77155Y153769D01*
X77281Y153895D01*
X77350Y154060D01*
Y154240D01*
X77281Y154405D01*
X77155Y154531D01*
X76990Y154600D01*
D02*
G37*
G36*
X68990D02*
X68810D01*
X68645Y154531D01*
X68519Y154405D01*
X68467Y154281D01*
X68333D01*
X68281Y154405D01*
X68155Y154531D01*
X67990Y154600D01*
X67810D01*
X67645Y154531D01*
X67519Y154405D01*
X67467Y154281D01*
X67333D01*
X67281Y154405D01*
X67155Y154531D01*
X66990Y154600D01*
X66810D01*
X66645Y154531D01*
X66519Y154405D01*
X66450Y154240D01*
Y154060D01*
X66519Y153895D01*
X66645Y153769D01*
X66810Y153700D01*
X66990D01*
X67155Y153769D01*
X67281Y153895D01*
X67333Y154019D01*
X67467D01*
X67519Y153895D01*
X67645Y153769D01*
X67810Y153700D01*
X67990D01*
X68155Y153769D01*
X68281Y153895D01*
X68333Y154019D01*
X68467D01*
X68519Y153895D01*
X68645Y153769D01*
X68810Y153700D01*
X68990D01*
X69155Y153769D01*
X69281Y153895D01*
X69350Y154060D01*
Y154240D01*
X69281Y154405D01*
X69155Y154531D01*
X68990Y154600D01*
D02*
G37*
G36*
X80640Y153250D02*
X80460D01*
X80295Y153181D01*
X80169Y153055D01*
X80100Y152890D01*
Y152710D01*
X80169Y152545D01*
X80295Y152419D01*
X80460Y152350D01*
X80640D01*
X80805Y152419D01*
X80931Y152545D01*
X81000Y152710D01*
Y152890D01*
X80931Y153055D01*
X80805Y153181D01*
X80640Y153250D01*
D02*
G37*
G36*
X79340D02*
X79160D01*
X78995Y153181D01*
X78869Y153055D01*
X78800Y152890D01*
Y152710D01*
X78869Y152545D01*
X78995Y152419D01*
X79160Y152350D01*
X79340D01*
X79505Y152419D01*
X79631Y152545D01*
X79700Y152710D01*
Y152890D01*
X79631Y153055D01*
X79505Y153181D01*
X79340Y153250D01*
D02*
G37*
G36*
X76640D02*
X76460D01*
X76295Y153181D01*
X76169Y153055D01*
X76100Y152890D01*
Y152710D01*
X76169Y152545D01*
X76295Y152419D01*
X76460Y152350D01*
X76640D01*
X76805Y152419D01*
X76931Y152545D01*
X77000Y152710D01*
Y152890D01*
X76931Y153055D01*
X76805Y153181D01*
X76640Y153250D01*
D02*
G37*
G36*
X75340D02*
X75160D01*
X74995Y153181D01*
X74869Y153055D01*
X74800Y152890D01*
Y152710D01*
X74869Y152545D01*
X74995Y152419D01*
X75160Y152350D01*
X75340D01*
X75505Y152419D01*
X75631Y152545D01*
X75700Y152710D01*
Y152890D01*
X75631Y153055D01*
X75505Y153181D01*
X75340Y153250D01*
D02*
G37*
G36*
X72640D02*
X72460D01*
X72295Y153181D01*
X72169Y153055D01*
X72100Y152890D01*
Y152710D01*
X72169Y152545D01*
X72295Y152419D01*
X72460Y152350D01*
X72640D01*
X72805Y152419D01*
X72931Y152545D01*
X73000Y152710D01*
Y152890D01*
X72931Y153055D01*
X72805Y153181D01*
X72640Y153250D01*
D02*
G37*
G36*
X71340D02*
X71160D01*
X70995Y153181D01*
X70869Y153055D01*
X70800Y152890D01*
Y152710D01*
X70869Y152545D01*
X70995Y152419D01*
X71160Y152350D01*
X71340D01*
X71505Y152419D01*
X71631Y152545D01*
X71700Y152710D01*
Y152890D01*
X71631Y153055D01*
X71505Y153181D01*
X71340Y153250D01*
D02*
G37*
G36*
X68640D02*
X68460D01*
X68295Y153181D01*
X68169Y153055D01*
X68100Y152890D01*
Y152710D01*
X68169Y152545D01*
X68295Y152419D01*
X68460Y152350D01*
X68640D01*
X68805Y152419D01*
X68931Y152545D01*
X69000Y152710D01*
Y152890D01*
X68931Y153055D01*
X68805Y153181D01*
X68640Y153250D01*
D02*
G37*
G36*
X67340D02*
X67160D01*
X66995Y153181D01*
X66869Y153055D01*
X66800Y152890D01*
Y152710D01*
X66869Y152545D01*
X66995Y152419D01*
X67160Y152350D01*
X67340D01*
X67505Y152419D01*
X67631Y152545D01*
X67700Y152710D01*
Y152890D01*
X67631Y153055D01*
X67505Y153181D01*
X67340Y153250D01*
D02*
G37*
G36*
X80950Y151950D02*
X80100D01*
Y151500D01*
X80950D01*
Y151950D01*
D02*
G37*
G36*
X79700D02*
X78850D01*
Y151500D01*
X79700D01*
Y151950D01*
D02*
G37*
G36*
X76950Y151950D02*
X76100D01*
Y151500D01*
X76950D01*
Y151950D01*
D02*
G37*
G36*
X68950D02*
X68100D01*
Y151500D01*
X68950D01*
Y151950D01*
D02*
G37*
G36*
X75700D02*
X74850D01*
Y151500D01*
X75700D01*
Y151950D01*
D02*
G37*
G36*
X67700D02*
X66850D01*
Y151500D01*
X67700D01*
Y151950D01*
D02*
G37*
G36*
X72950D02*
X72100D01*
Y151500D01*
X72950D01*
Y151950D01*
D02*
G37*
G36*
X71700D02*
X70850D01*
Y151500D01*
X71700D01*
Y151950D01*
D02*
G37*
G36*
X80950Y151100D02*
X80100D01*
Y150650D01*
X80950D01*
Y151100D01*
D02*
G37*
G36*
X79700D02*
X78850D01*
Y150650D01*
X79700D01*
Y151100D01*
D02*
G37*
G36*
X76950Y151100D02*
X76100D01*
Y150650D01*
X76950D01*
Y151100D01*
D02*
G37*
G36*
X75700D02*
X74850D01*
Y150650D01*
X75700D01*
Y151100D01*
D02*
G37*
G36*
X72950Y151100D02*
X72100D01*
Y150650D01*
X72950D01*
Y151100D01*
D02*
G37*
G36*
X71700D02*
X70850D01*
Y150650D01*
X71700D01*
Y151100D01*
D02*
G37*
G36*
X68950Y151100D02*
X68100D01*
Y150650D01*
X68950D01*
Y151100D01*
D02*
G37*
G36*
X67700D02*
X66850D01*
Y150650D01*
X67700D01*
Y151100D01*
D02*
G37*
G36*
X79090Y148350D02*
X78910D01*
X78745Y148281D01*
X78619Y148155D01*
X78550Y147990D01*
Y147810D01*
X78619Y147645D01*
X78664Y147600D01*
X78619Y147555D01*
X78550Y147390D01*
Y147210D01*
X78619Y147045D01*
X78745Y146919D01*
X78910Y146850D01*
X79090D01*
X79255Y146919D01*
X79381Y147045D01*
X79450Y147210D01*
Y147390D01*
X79381Y147555D01*
X79336Y147600D01*
X79381Y147645D01*
X79450Y147810D01*
Y147990D01*
X79381Y148155D01*
X79255Y148281D01*
X79090Y148350D01*
D02*
G37*
G36*
X75090D02*
X74910D01*
X74745Y148281D01*
X74619Y148155D01*
X74550Y147990D01*
Y147810D01*
X74619Y147645D01*
X74664Y147600D01*
X74619Y147555D01*
X74550Y147390D01*
Y147210D01*
X74619Y147045D01*
X74745Y146919D01*
X74910Y146850D01*
X75090D01*
X75255Y146919D01*
X75381Y147045D01*
X75450Y147210D01*
Y147390D01*
X75381Y147555D01*
X75336Y147600D01*
X75381Y147645D01*
X75450Y147810D01*
Y147990D01*
X75381Y148155D01*
X75255Y148281D01*
X75090Y148350D01*
D02*
G37*
G36*
X71090D02*
X70910D01*
X70745Y148281D01*
X70619Y148155D01*
X70550Y147990D01*
Y147810D01*
X70619Y147645D01*
X70664Y147600D01*
X70619Y147555D01*
X70550Y147390D01*
Y147210D01*
X70619Y147045D01*
X70745Y146919D01*
X70910Y146850D01*
X71090D01*
X71255Y146919D01*
X71381Y147045D01*
X71450Y147210D01*
Y147390D01*
X71381Y147555D01*
X71336Y147600D01*
X71381Y147645D01*
X71450Y147810D01*
Y147990D01*
X71381Y148155D01*
X71255Y148281D01*
X71090Y148350D01*
D02*
G37*
G36*
X67090D02*
X66910D01*
X66745Y148281D01*
X66619Y148155D01*
X66550Y147990D01*
Y147810D01*
X66619Y147645D01*
X66664Y147600D01*
X66619Y147555D01*
X66550Y147390D01*
Y147210D01*
X66619Y147045D01*
X66745Y146919D01*
X66910Y146850D01*
X67090D01*
X67255Y146919D01*
X67381Y147045D01*
X67450Y147210D01*
Y147390D01*
X67381Y147555D01*
X67336Y147600D01*
X67381Y147645D01*
X67450Y147810D01*
Y147990D01*
X67381Y148155D01*
X67255Y148281D01*
X67090Y148350D01*
D02*
G37*
G36*
X73400Y143781D02*
X72900D01*
X72763Y143754D01*
X72648Y143676D01*
X72584Y143581D01*
X72324D01*
X72187Y143554D01*
X72072Y143476D01*
X71898Y143302D01*
X71820Y143187D01*
X71793Y143050D01*
Y142942D01*
X71777Y142931D01*
X71716Y142840D01*
X71715Y142834D01*
X71585D01*
X71584Y142840D01*
X71523Y142931D01*
X71432Y142992D01*
X71350Y143008D01*
Y142607D01*
X71150D01*
Y142407D01*
X70710D01*
X70716Y142375D01*
X70777Y142284D01*
X70868Y142223D01*
X70893Y142218D01*
Y142089D01*
X70868Y142084D01*
X70777Y142023D01*
X70716Y141932D01*
X70710Y141900D01*
X71150D01*
Y141500D01*
X70710D01*
X70716Y141468D01*
X70777Y141377D01*
X70820Y141348D01*
X70841Y141322D01*
X70853Y141210D01*
X70850Y141190D01*
X70840Y141166D01*
X70820Y141137D01*
X70813Y141102D01*
X70800Y141070D01*
Y141034D01*
X70793Y141000D01*
X70793Y141000D01*
Y140334D01*
X70777Y140323D01*
X70716Y140232D01*
X70715Y140226D01*
X70585D01*
X70584Y140232D01*
X70523Y140323D01*
X70432Y140384D01*
X70350Y140400D01*
Y140000D01*
Y139600D01*
X70432Y139616D01*
X70523Y139677D01*
X70584Y139768D01*
X70585Y139774D01*
X70715D01*
X70716Y139768D01*
X70777Y139677D01*
X70791Y139667D01*
X70799Y139629D01*
X70791Y139515D01*
X70460Y139184D01*
X70413Y139069D01*
Y137305D01*
X70405Y137297D01*
X70286Y137248D01*
X70232Y137284D01*
X70200Y137290D01*
Y136850D01*
X69800D01*
Y137314D01*
X69711Y137372D01*
X69700Y137390D01*
Y137420D01*
X69647Y137548D01*
X69595Y137600D01*
X69647Y137652D01*
X69700Y137780D01*
Y137920D01*
X69647Y138048D01*
X69595Y138100D01*
X69647Y138152D01*
X69700Y138280D01*
Y138420D01*
X69647Y138548D01*
X69595Y138600D01*
X69647Y138652D01*
X69700Y138780D01*
Y138920D01*
X69647Y139048D01*
X69548Y139147D01*
X69420Y139200D01*
X69280D01*
X69152Y139147D01*
X69053Y139048D01*
X69000Y138920D01*
Y138780D01*
X69053Y138652D01*
X69105Y138600D01*
X69053Y138548D01*
X69000Y138420D01*
Y138280D01*
X69053Y138152D01*
X69105Y138100D01*
X69053Y138048D01*
X69000Y137920D01*
Y137780D01*
X69053Y137652D01*
X69105Y137600D01*
X69053Y137548D01*
X69000Y137420D01*
Y137280D01*
X69053Y137152D01*
X69105Y137100D01*
X69053Y137048D01*
X69000Y136920D01*
Y136780D01*
X69053Y136652D01*
X69152Y136553D01*
X69280Y136500D01*
X69420D01*
X69498Y136533D01*
X69555Y136550D01*
X69667Y136492D01*
X69677Y136477D01*
X69768Y136416D01*
X69774Y136415D01*
Y136285D01*
X69768Y136284D01*
X69677Y136223D01*
X69666Y136207D01*
X69000D01*
X68966Y136200D01*
X68930D01*
X68898Y136187D01*
X68863Y136180D01*
X68834Y136160D01*
X68802Y136147D01*
X68777Y136122D01*
X68748Y136102D01*
X68728Y136073D01*
X68703Y136048D01*
X68690Y136016D01*
X68670Y135987D01*
X68663Y135952D01*
X68650Y135920D01*
Y135884D01*
X68643Y135850D01*
X68650Y135816D01*
Y135780D01*
X68663Y135748D01*
X68670Y135713D01*
X68690Y135684D01*
X68703Y135652D01*
X68728Y135627D01*
X68748Y135598D01*
X68777Y135578D01*
X68802Y135553D01*
X68834Y135540D01*
X68863Y135520D01*
X68898Y135513D01*
X68930Y135500D01*
X68966D01*
X69000Y135493D01*
X69666D01*
X69677Y135477D01*
X69768Y135416D01*
X69875Y135395D01*
X70125D01*
X70232Y135416D01*
X70323Y135477D01*
X70384Y135568D01*
X70384Y135570D01*
X70526Y135633D01*
X70575Y135613D01*
X72195D01*
X72203Y135605D01*
X72252Y135486D01*
X72216Y135432D01*
X72195Y135325D01*
Y135075D01*
X72216Y134968D01*
X72277Y134877D01*
X72293Y134866D01*
Y134200D01*
X72300Y134165D01*
Y134130D01*
X72313Y134098D01*
X72320Y134063D01*
X72340Y134034D01*
X72353Y134002D01*
X72378Y133977D01*
X72398Y133948D01*
X72398Y133948D01*
X72427Y133928D01*
X72452Y133903D01*
X72484Y133890D01*
X72513Y133870D01*
X72548Y133863D01*
X72580Y133850D01*
X72616D01*
X72650Y133843D01*
X72684Y133850D01*
X72720D01*
X72752Y133863D01*
X72787Y133870D01*
X72816Y133890D01*
X72848Y133903D01*
X72873Y133928D01*
X72902Y133948D01*
X72922Y133977D01*
X72947Y134002D01*
X72960Y134034D01*
X72980Y134063D01*
X72987Y134098D01*
X73000Y134130D01*
Y134166D01*
X73007Y134200D01*
X73007Y134200D01*
Y134866D01*
X73023Y134877D01*
X73084Y134968D01*
X73085Y134974D01*
X73215D01*
X73216Y134968D01*
X73277Y134877D01*
X73368Y134816D01*
X73450Y134800D01*
Y135200D01*
Y135600D01*
X73445Y135599D01*
X73361Y135712D01*
X73387Y135775D01*
Y139425D01*
X73370Y139468D01*
X73370Y139485D01*
X73438Y139607D01*
X73482Y139616D01*
X73573Y139677D01*
X73634Y139768D01*
X73635Y139774D01*
X73765D01*
X73766Y139768D01*
X73827Y139677D01*
X73918Y139616D01*
X74000Y139600D01*
Y140000D01*
Y140400D01*
X73918Y140384D01*
X73827Y140323D01*
X73766Y140232D01*
X73765Y140226D01*
X73635D01*
X73634Y140232D01*
X73573Y140323D01*
X73557Y140334D01*
Y141184D01*
X73652Y141248D01*
X73730Y141363D01*
X73757Y141500D01*
Y141900D01*
X73730Y142037D01*
X73652Y142152D01*
X73537Y142230D01*
X73400Y142257D01*
X72900D01*
X72763Y142230D01*
X72662Y142162D01*
X72592Y142180D01*
X72533Y142210D01*
X72528Y142249D01*
X72527Y142290D01*
X72584Y142375D01*
X72605Y142482D01*
Y142647D01*
X72732Y142715D01*
X72763Y142694D01*
X72900Y142667D01*
X73400D01*
X73537Y142694D01*
X73652Y142772D01*
X73730Y142887D01*
X73757Y143024D01*
Y143424D01*
X73730Y143561D01*
X73652Y143676D01*
X73537Y143754D01*
X73400Y143781D01*
D02*
G37*
G36*
X70950Y143008D02*
X70868Y142992D01*
X70777Y142931D01*
X70716Y142840D01*
X70710Y142807D01*
X70950D01*
Y143008D01*
D02*
G37*
G36*
X90615Y145384D02*
X89338D01*
X88061D01*
X88147Y145256D01*
X88297Y145156D01*
X88331Y145149D01*
Y145019D01*
X88297Y145012D01*
X88147Y144912D01*
X88046Y144761D01*
X88011Y144584D01*
X88046Y144407D01*
X88147Y144256D01*
X88297Y144156D01*
X88331Y144149D01*
Y144019D01*
X88297Y144012D01*
X88147Y143912D01*
X88046Y143761D01*
X88011Y143584D01*
X88046Y143407D01*
X88147Y143256D01*
X88297Y143156D01*
X88331Y143149D01*
Y143019D01*
X88297Y143012D01*
X88147Y142912D01*
X88061Y142784D01*
X89338D01*
X90615D01*
X90529Y142912D01*
X90379Y143012D01*
X90345Y143019D01*
Y143149D01*
X90379Y143156D01*
X90529Y143256D01*
X90630Y143407D01*
X90665Y143584D01*
X90630Y143761D01*
X90529Y143912D01*
X90379Y144012D01*
X90345Y144019D01*
Y144149D01*
X90379Y144156D01*
X90529Y144256D01*
X90630Y144407D01*
X90665Y144584D01*
X90630Y144761D01*
X90529Y144912D01*
X90379Y145012D01*
X90345Y145019D01*
Y145149D01*
X90379Y145156D01*
X90529Y145256D01*
X90615Y145384D01*
D02*
G37*
G36*
X52700Y142787D02*
X52641Y142779D01*
X52447Y142699D01*
X52279Y142571D01*
X52151Y142403D01*
X52108Y142300D01*
X52700D01*
Y142787D01*
D02*
G37*
G36*
X55150Y142807D02*
X54850D01*
X54641Y142779D01*
X54447Y142699D01*
X54279Y142571D01*
X54151Y142403D01*
X54071Y142209D01*
X54064Y142159D01*
X53936D01*
X53929Y142209D01*
X53849Y142403D01*
X53721Y142571D01*
X53553Y142699D01*
X53359Y142779D01*
X53300Y142787D01*
Y142000D01*
Y141213D01*
X53359Y141221D01*
X53553Y141301D01*
X53721Y141429D01*
X53849Y141597D01*
X53929Y141791D01*
X53936Y141841D01*
X54064D01*
X54071Y141791D01*
X54151Y141597D01*
X54279Y141429D01*
X54447Y141301D01*
X54641Y141221D01*
X54850Y141193D01*
X55150D01*
X55359Y141221D01*
X55553Y141301D01*
X55721Y141429D01*
X55849Y141597D01*
X55929Y141791D01*
X55957Y142000D01*
X55929Y142209D01*
X55849Y142403D01*
X55721Y142571D01*
X55553Y142699D01*
X55359Y142779D01*
X55150Y142807D01*
D02*
G37*
G36*
X69020Y142125D02*
X68880D01*
X68752Y142072D01*
X68653Y141973D01*
X68600Y141845D01*
Y141705D01*
X68653Y141577D01*
X68752Y141478D01*
X68880Y141425D01*
X69020D01*
X69148Y141478D01*
X69247Y141577D01*
X69300Y141705D01*
Y141845D01*
X69247Y141973D01*
X69148Y142072D01*
X69020Y142125D01*
D02*
G37*
G36*
X90615Y142384D02*
X89338D01*
X88061D01*
X88147Y142256D01*
X88297Y142156D01*
X88331Y142149D01*
Y142019D01*
X88297Y142012D01*
X88147Y141912D01*
X88046Y141761D01*
X88011Y141584D01*
X88046Y141407D01*
X88147Y141256D01*
X88297Y141156D01*
X88331Y141149D01*
Y141019D01*
X88297Y141012D01*
X88147Y140912D01*
X88046Y140761D01*
X88011Y140584D01*
X88046Y140407D01*
X88147Y140256D01*
X88297Y140156D01*
X88331Y140149D01*
Y140019D01*
X88297Y140012D01*
X88147Y139912D01*
X88061Y139784D01*
X89338D01*
X90615D01*
X90529Y139912D01*
X90379Y140012D01*
X90345Y140019D01*
Y140149D01*
X90379Y140156D01*
X90529Y140256D01*
X90558Y140299D01*
X90602Y140303D01*
X90730Y140250D01*
X90870D01*
X90998Y140303D01*
X91097Y140402D01*
X91150Y140530D01*
Y140670D01*
X91097Y140798D01*
X90998Y140897D01*
X90870Y140950D01*
X90730D01*
X90602Y140897D01*
X90535Y140903D01*
X90529Y140912D01*
X90379Y141012D01*
X90345Y141019D01*
Y141149D01*
X90379Y141156D01*
X90529Y141256D01*
X90558Y141299D01*
X90602Y141303D01*
X90730Y141250D01*
X90870D01*
X90998Y141303D01*
X91097Y141402D01*
X91150Y141530D01*
Y141670D01*
X91097Y141798D01*
X90998Y141897D01*
X90870Y141950D01*
X90730D01*
X90602Y141897D01*
X90535Y141903D01*
X90529Y141912D01*
X90379Y142012D01*
X90345Y142019D01*
Y142149D01*
X90379Y142156D01*
X90529Y142256D01*
X90615Y142384D01*
D02*
G37*
G36*
X52700Y141700D02*
X52108D01*
X52151Y141597D01*
X52279Y141429D01*
X52447Y141301D01*
X52641Y141221D01*
X52700Y141213D01*
Y141700D01*
D02*
G37*
G36*
X68295Y141400D02*
X68155D01*
X68027Y141347D01*
X67928Y141248D01*
X67875Y141120D01*
Y140980D01*
X67928Y140852D01*
X68027Y140753D01*
X68155Y140700D01*
X68295D01*
X68423Y140753D01*
X68522Y140852D01*
X68575Y140980D01*
Y141120D01*
X68522Y141248D01*
X68423Y141347D01*
X68295Y141400D01*
D02*
G37*
G36*
X52700Y140787D02*
X52641Y140779D01*
X52447Y140699D01*
X52279Y140571D01*
X52151Y140403D01*
X52108Y140300D01*
X52700D01*
Y140787D01*
D02*
G37*
G36*
X74400Y140400D02*
Y140200D01*
X74640D01*
X74634Y140232D01*
X74573Y140323D01*
X74482Y140384D01*
X74400Y140400D01*
D02*
G37*
G36*
X69950D02*
X69868Y140384D01*
X69777Y140323D01*
X69716Y140232D01*
X69710Y140200D01*
X69950D01*
Y140400D01*
D02*
G37*
G36*
X55150Y140807D02*
X54850D01*
X54641Y140779D01*
X54447Y140699D01*
X54279Y140571D01*
X54151Y140403D01*
X54071Y140209D01*
X54064Y140159D01*
X53936D01*
X53929Y140209D01*
X53849Y140403D01*
X53721Y140571D01*
X53553Y140699D01*
X53359Y140779D01*
X53300Y140787D01*
Y140000D01*
Y139213D01*
X53359Y139221D01*
X53553Y139301D01*
X53721Y139429D01*
X53849Y139597D01*
X53929Y139791D01*
X53936Y139841D01*
X54064D01*
X54071Y139791D01*
X54151Y139597D01*
X54279Y139429D01*
X54447Y139301D01*
X54641Y139221D01*
X54850Y139193D01*
X55150D01*
X55359Y139221D01*
X55553Y139301D01*
X55721Y139429D01*
X55849Y139597D01*
X55929Y139791D01*
X55957Y140000D01*
X55929Y140209D01*
X55849Y140403D01*
X55721Y140571D01*
X55553Y140699D01*
X55359Y140779D01*
X55150Y140807D01*
D02*
G37*
G36*
X74640Y139800D02*
X74400D01*
Y139600D01*
X74482Y139616D01*
X74573Y139677D01*
X74634Y139768D01*
X74640Y139800D01*
D02*
G37*
G36*
X69950Y139800D02*
X69710D01*
X69716Y139768D01*
X69777Y139677D01*
X69868Y139616D01*
X69950Y139600D01*
Y139800D01*
D02*
G37*
G36*
X52700Y139700D02*
X52108D01*
X52151Y139597D01*
X52279Y139429D01*
X52447Y139301D01*
X52641Y139221D01*
X52700Y139213D01*
Y139700D01*
D02*
G37*
G36*
X52700Y138787D02*
X52641Y138779D01*
X52447Y138699D01*
X52279Y138571D01*
X52151Y138403D01*
X52108Y138300D01*
X52700D01*
Y138787D01*
D02*
G37*
G36*
X90615Y139384D02*
X89338D01*
X88061D01*
X88147Y139256D01*
X88297Y139156D01*
X88331Y139149D01*
Y139019D01*
X88297Y139012D01*
X88147Y138912D01*
X88046Y138761D01*
X88011Y138584D01*
X88046Y138407D01*
X88147Y138256D01*
X88297Y138156D01*
X88331Y138149D01*
Y138019D01*
X88297Y138012D01*
X88147Y137912D01*
X88061Y137784D01*
X89338D01*
X90615D01*
X90529Y137912D01*
X90379Y138012D01*
X90345Y138019D01*
Y138149D01*
X90379Y138156D01*
X90529Y138256D01*
X90547Y138282D01*
X90602Y138287D01*
X90730Y138234D01*
X90870D01*
X90998Y138287D01*
X91097Y138386D01*
X91150Y138514D01*
Y138654D01*
X91097Y138782D01*
X90998Y138881D01*
X90870Y138934D01*
X90730D01*
X90602Y138881D01*
X90547Y138886D01*
X90529Y138912D01*
X90379Y139012D01*
X90345Y139019D01*
Y139149D01*
X90379Y139156D01*
X90529Y139256D01*
X90615Y139384D01*
D02*
G37*
G36*
X55150Y138807D02*
X54850D01*
X54641Y138779D01*
X54447Y138699D01*
X54279Y138571D01*
X54151Y138403D01*
X54071Y138209D01*
X54064Y138159D01*
X53936D01*
X53929Y138209D01*
X53849Y138403D01*
X53721Y138571D01*
X53553Y138699D01*
X53359Y138779D01*
X53300Y138787D01*
Y138000D01*
Y137213D01*
X53359Y137221D01*
X53553Y137301D01*
X53721Y137429D01*
X53849Y137597D01*
X53929Y137791D01*
X53936Y137841D01*
X54064D01*
X54071Y137791D01*
X54151Y137597D01*
X54279Y137429D01*
X54447Y137301D01*
X54641Y137221D01*
X54850Y137193D01*
X55150D01*
X55359Y137221D01*
X55553Y137301D01*
X55721Y137429D01*
X55849Y137597D01*
X55929Y137791D01*
X55957Y138000D01*
X55929Y138209D01*
X55849Y138403D01*
X55721Y138571D01*
X55553Y138699D01*
X55359Y138779D01*
X55150Y138807D01*
D02*
G37*
G36*
X77050Y138207D02*
X77050D01*
Y137800D01*
X77407D01*
Y137850D01*
X77380Y137987D01*
X77302Y138102D01*
X77187Y138180D01*
X77050Y138207D01*
D02*
G37*
G36*
X76650D02*
X76513Y138180D01*
X76398Y138102D01*
X76320Y137987D01*
X76293Y137850D01*
Y137800D01*
X76650D01*
Y138207D01*
D02*
G37*
G36*
X52700Y137700D02*
X52108D01*
X52151Y137597D01*
X52279Y137429D01*
X52447Y137301D01*
X52641Y137221D01*
X52700Y137213D01*
Y137700D01*
D02*
G37*
G36*
X76650Y137400D02*
X76293D01*
Y137350D01*
X76320Y137213D01*
X76398Y137098D01*
X76513Y137020D01*
X76650Y136993D01*
Y137400D01*
D02*
G37*
G36*
X77407D02*
X77050D01*
Y136993D01*
X77050D01*
X77187Y137020D01*
X77302Y137098D01*
X77380Y137213D01*
X77407Y137350D01*
Y137400D01*
D02*
G37*
G36*
X75650Y138207D02*
X75250D01*
X75250Y138207D01*
X74850D01*
X74816Y138200D01*
X74780D01*
X74748Y138187D01*
X74713Y138180D01*
X74684Y138160D01*
X74652Y138147D01*
X74627Y138122D01*
X74598Y138102D01*
X74578Y138073D01*
X74553Y138048D01*
X74540Y138016D01*
X74520Y137987D01*
X74513Y137952D01*
X74500Y137920D01*
Y137884D01*
X74493Y137850D01*
X74500Y137816D01*
Y137780D01*
X74513Y137748D01*
X74520Y137713D01*
X74540Y137684D01*
X74553Y137652D01*
X74578Y137627D01*
X74596Y137600D01*
X74578Y137573D01*
X74553Y137548D01*
X74540Y137516D01*
X74520Y137487D01*
X74513Y137452D01*
X74500Y137420D01*
Y137384D01*
X74493Y137350D01*
X74500Y137316D01*
Y137280D01*
X74513Y137248D01*
X74520Y137213D01*
X74540Y137184D01*
X74553Y137152D01*
X74578Y137127D01*
X74598Y137098D01*
X74627Y137078D01*
X74652Y137053D01*
X74684Y137040D01*
X74713Y137020D01*
X74748Y137013D01*
X74780Y137000D01*
X74816D01*
X74850Y136993D01*
X75250D01*
X75250Y136993D01*
X75650D01*
X75787Y137020D01*
X75902Y137098D01*
X75980Y137213D01*
X76007Y137350D01*
Y137850D01*
X75980Y137987D01*
X75902Y138102D01*
X75787Y138180D01*
X75650Y138207D01*
D02*
G37*
G36*
X52700Y136787D02*
X52641Y136779D01*
X52447Y136699D01*
X52279Y136571D01*
X52151Y136403D01*
X52108Y136300D01*
X52700D01*
Y136787D01*
D02*
G37*
G36*
X90615Y137384D02*
X89338D01*
X88061D01*
X88147Y137256D01*
X88297Y137156D01*
X88331Y137149D01*
Y137019D01*
X88297Y137012D01*
X88147Y136912D01*
X88046Y136761D01*
X88011Y136584D01*
X88046Y136407D01*
X88147Y136256D01*
X88297Y136156D01*
X88331Y136149D01*
Y136019D01*
X88297Y136012D01*
X88147Y135912D01*
X88046Y135761D01*
X88011Y135584D01*
X88046Y135407D01*
X88147Y135256D01*
X88297Y135156D01*
X88331Y135149D01*
Y135019D01*
X88297Y135012D01*
X88147Y134912D01*
X88061Y134784D01*
X89338D01*
X90615D01*
X90529Y134912D01*
X90379Y135012D01*
X90345Y135019D01*
Y135149D01*
X90379Y135156D01*
X90529Y135256D01*
X90558Y135299D01*
X90602Y135303D01*
X90730Y135250D01*
X90870D01*
X90998Y135303D01*
X91097Y135402D01*
X91150Y135530D01*
Y135670D01*
X91097Y135798D01*
X90998Y135897D01*
X90870Y135950D01*
X90730D01*
X90602Y135897D01*
X90535Y135903D01*
X90529Y135912D01*
X90379Y136012D01*
X90345Y136019D01*
Y136149D01*
X90379Y136156D01*
X90529Y136256D01*
X90558Y136299D01*
X90602Y136303D01*
X90730Y136250D01*
X90870D01*
X90998Y136303D01*
X91097Y136402D01*
X91150Y136530D01*
Y136670D01*
X91097Y136798D01*
X90998Y136897D01*
X90870Y136950D01*
X90730D01*
X90602Y136897D01*
X90535Y136903D01*
X90529Y136912D01*
X90379Y137012D01*
X90345Y137019D01*
Y137149D01*
X90379Y137156D01*
X90529Y137256D01*
X90615Y137384D01*
D02*
G37*
G36*
X55150Y136807D02*
X54850D01*
X54641Y136779D01*
X54447Y136699D01*
X54279Y136571D01*
X54151Y136403D01*
X54071Y136209D01*
X54064Y136159D01*
X53936D01*
X53929Y136209D01*
X53849Y136403D01*
X53721Y136571D01*
X53553Y136699D01*
X53359Y136779D01*
X53300Y136787D01*
Y136000D01*
Y135213D01*
X53359Y135221D01*
X53553Y135301D01*
X53721Y135429D01*
X53849Y135597D01*
X53929Y135791D01*
X53936Y135841D01*
X54064D01*
X54071Y135791D01*
X54151Y135597D01*
X54279Y135429D01*
X54447Y135301D01*
X54641Y135221D01*
X54850Y135193D01*
X55150D01*
X55359Y135221D01*
X55553Y135301D01*
X55721Y135429D01*
X55849Y135597D01*
X55929Y135791D01*
X55957Y136000D01*
X55929Y136209D01*
X55849Y136403D01*
X55721Y136571D01*
X55553Y136699D01*
X55359Y136779D01*
X55150Y136807D01*
D02*
G37*
G36*
X73850Y135600D02*
Y135400D01*
X74090D01*
X74084Y135432D01*
X74023Y135523D01*
X73932Y135584D01*
X73850Y135600D01*
D02*
G37*
G36*
X52700Y135700D02*
X52108D01*
X52151Y135597D01*
X52279Y135429D01*
X52447Y135301D01*
X52641Y135221D01*
X52700Y135213D01*
Y135700D01*
D02*
G37*
G36*
X74090Y135000D02*
X73850D01*
Y134800D01*
X73932Y134816D01*
X74023Y134877D01*
X74084Y134968D01*
X74090Y135000D01*
D02*
G37*
G36*
X52700Y134787D02*
X52641Y134779D01*
X52447Y134699D01*
X52279Y134571D01*
X52151Y134403D01*
X52108Y134300D01*
X52700D01*
Y134787D01*
D02*
G37*
G36*
X55150Y134807D02*
X54850D01*
X54641Y134779D01*
X54447Y134699D01*
X54279Y134571D01*
X54151Y134403D01*
X54071Y134209D01*
X54064Y134159D01*
X53936D01*
X53929Y134209D01*
X53849Y134403D01*
X53721Y134571D01*
X53553Y134699D01*
X53359Y134779D01*
X53300Y134787D01*
Y134000D01*
Y133213D01*
X53359Y133221D01*
X53553Y133301D01*
X53721Y133429D01*
X53849Y133597D01*
X53929Y133791D01*
X53936Y133841D01*
X54064D01*
X54071Y133791D01*
X54151Y133597D01*
X54279Y133429D01*
X54447Y133301D01*
X54641Y133221D01*
X54850Y133193D01*
X55150D01*
X55359Y133221D01*
X55553Y133301D01*
X55721Y133429D01*
X55849Y133597D01*
X55929Y133791D01*
X55957Y134000D01*
X55929Y134209D01*
X55849Y134403D01*
X55721Y134571D01*
X55553Y134699D01*
X55359Y134779D01*
X55150Y134807D01*
D02*
G37*
G36*
X90615Y134384D02*
X89538D01*
Y134120D01*
X90202D01*
X90379Y134156D01*
X90529Y134256D01*
X90615Y134384D01*
D02*
G37*
G36*
X89138D02*
X88061D01*
X88147Y134256D01*
X88297Y134156D01*
X88474Y134120D01*
X89138D01*
Y134384D01*
D02*
G37*
G36*
X86615D02*
X85538D01*
Y134120D01*
X86202D01*
X86379Y134156D01*
X86529Y134256D01*
X86615Y134384D01*
D02*
G37*
G36*
X85138D02*
X84061D01*
X84146Y134256D01*
X84297Y134156D01*
X84474Y134120D01*
X85138D01*
Y134384D01*
D02*
G37*
G36*
X52700Y133700D02*
X52108D01*
X52151Y133597D01*
X52279Y133429D01*
X52447Y133301D01*
X52641Y133221D01*
X52700Y133213D01*
Y133700D01*
D02*
G37*
G36*
X73820Y133350D02*
X73680D01*
X73552Y133297D01*
X73453Y133198D01*
X73400Y133070D01*
Y132930D01*
X73453Y132802D01*
X73552Y132703D01*
X73680Y132650D01*
X73820D01*
X73948Y132703D01*
X74047Y132802D01*
X74100Y132930D01*
Y133070D01*
X74047Y133198D01*
X73948Y133297D01*
X73820Y133350D01*
D02*
G37*
G36*
X70120D02*
X69980D01*
X69852Y133297D01*
X69753Y133198D01*
X69700Y133070D01*
Y132930D01*
X69753Y132802D01*
X69852Y132703D01*
X69980Y132650D01*
X70120D01*
X70248Y132703D01*
X70347Y132802D01*
X70400Y132930D01*
Y133070D01*
X70347Y133198D01*
X70248Y133297D01*
X70120Y133350D01*
D02*
G37*
G36*
X52700Y132787D02*
X52641Y132779D01*
X52447Y132699D01*
X52279Y132571D01*
X52151Y132403D01*
X52108Y132300D01*
X52700D01*
Y132787D01*
D02*
G37*
G36*
X55150Y132807D02*
X54850D01*
X54641Y132779D01*
X54447Y132699D01*
X54279Y132571D01*
X54151Y132403D01*
X54071Y132209D01*
X54064Y132159D01*
X53936D01*
X53929Y132209D01*
X53849Y132403D01*
X53721Y132571D01*
X53553Y132699D01*
X53359Y132779D01*
X53300Y132787D01*
Y132000D01*
Y131213D01*
X53359Y131221D01*
X53553Y131301D01*
X53721Y131429D01*
X53849Y131597D01*
X53929Y131791D01*
X53936Y131841D01*
X54064D01*
X54071Y131791D01*
X54151Y131597D01*
X54279Y131429D01*
X54447Y131301D01*
X54641Y131221D01*
X54850Y131193D01*
X55150D01*
X55359Y131221D01*
X55553Y131301D01*
X55721Y131429D01*
X55849Y131597D01*
X55929Y131791D01*
X55957Y132000D01*
X55929Y132209D01*
X55849Y132403D01*
X55721Y132571D01*
X55553Y132699D01*
X55359Y132779D01*
X55150Y132807D01*
D02*
G37*
G36*
X87470Y133884D02*
X87206D01*
X86952Y133816D01*
X86724Y133684D01*
X86538Y133498D01*
X86406Y133270D01*
X86338Y133016D01*
Y132752D01*
X86406Y132498D01*
X86538Y132270D01*
X86724Y132084D01*
X86952Y131952D01*
X87206Y131884D01*
X87470D01*
X87724Y131952D01*
X87952Y132084D01*
X88138Y132270D01*
X88270Y132498D01*
X88338Y132752D01*
Y133016D01*
X88270Y133270D01*
X88138Y133498D01*
X87952Y133684D01*
X87724Y133816D01*
X87470Y133884D01*
D02*
G37*
G36*
X52700Y131700D02*
X52108D01*
X52151Y131597D01*
X52279Y131429D01*
X52447Y131301D01*
X52641Y131221D01*
X52700Y131213D01*
Y131700D01*
D02*
G37*
G36*
X95070Y131425D02*
X94930D01*
X94802Y131372D01*
X94703Y131273D01*
X94650Y131145D01*
Y131005D01*
X94667Y130963D01*
X94642Y130946D01*
X94575Y130847D01*
X94565Y130793D01*
X94435D01*
X94425Y130847D01*
X94358Y130946D01*
X94259Y131012D01*
X94142Y131036D01*
X93842D01*
X93725Y131012D01*
X93626Y130946D01*
X93559Y130847D01*
X93536Y130730D01*
Y130522D01*
X93264D01*
Y130730D01*
X93241Y130847D01*
X93174Y130946D01*
X93075Y131012D01*
X92958Y131036D01*
X92658D01*
X92541Y131012D01*
X92442Y130946D01*
X92375Y130847D01*
X92365Y130793D01*
X92235D01*
X92225Y130847D01*
X92158Y130946D01*
X92133Y130963D01*
X92150Y131005D01*
Y131145D01*
X92097Y131273D01*
X91998Y131372D01*
X91870Y131425D01*
X91730D01*
X91602Y131372D01*
X91503Y131273D01*
X91450Y131145D01*
Y131005D01*
X91464Y130972D01*
X91426Y130946D01*
X91359Y130847D01*
X91336Y130730D01*
Y130420D01*
X91359Y130303D01*
X91426Y130204D01*
X91525Y130138D01*
X91642Y130114D01*
X91942D01*
X92059Y130138D01*
X92158Y130204D01*
X92225Y130303D01*
X92235Y130357D01*
X92365D01*
X92375Y130303D01*
X92442Y130204D01*
X92541Y130138D01*
X92658Y130114D01*
X92958D01*
X92961Y130115D01*
X92975Y130100D01*
X93055Y130047D01*
X93100Y130038D01*
X93117Y129966D01*
X93113Y129906D01*
X93029Y129849D01*
X92963Y129750D01*
X92939Y129633D01*
Y129333D01*
X92963Y129216D01*
X93029Y129117D01*
X93128Y129050D01*
X93182Y129040D01*
Y128910D01*
X93128Y128900D01*
X93029Y128833D01*
X92963Y128734D01*
X92949Y128667D01*
X93400D01*
X93851D01*
X93837Y128734D01*
X93771Y128833D01*
X93672Y128900D01*
X93618Y128910D01*
Y129040D01*
X93672Y129050D01*
X93771Y129117D01*
X93837Y129216D01*
X93861Y129333D01*
Y129633D01*
X93837Y129750D01*
X93771Y129849D01*
X93687Y129906D01*
X93683Y129966D01*
X93700Y130038D01*
X93745Y130047D01*
X93825Y130100D01*
X93839Y130115D01*
X93842Y130114D01*
X94142D01*
X94259Y130138D01*
X94358Y130204D01*
X94425Y130303D01*
X94435Y130357D01*
X94565D01*
X94575Y130303D01*
X94642Y130204D01*
X94741Y130138D01*
X94858Y130114D01*
X95158D01*
X95275Y130138D01*
X95374Y130204D01*
X95441Y130303D01*
X95464Y130420D01*
Y130730D01*
X95441Y130847D01*
X95374Y130946D01*
X95336Y130972D01*
X95350Y131005D01*
Y131145D01*
X95297Y131273D01*
X95198Y131372D01*
X95070Y131425D01*
D02*
G37*
G36*
X86070D02*
X85930D01*
X85802Y131372D01*
X85703Y131273D01*
X85650Y131145D01*
Y131005D01*
X85667Y130963D01*
X85642Y130946D01*
X85575Y130847D01*
X85565Y130793D01*
X85435D01*
X85425Y130847D01*
X85358Y130946D01*
X85259Y131012D01*
X85142Y131036D01*
X84842D01*
X84725Y131012D01*
X84626Y130946D01*
X84559Y130847D01*
X84536Y130730D01*
Y130522D01*
X84264D01*
Y130730D01*
X84241Y130847D01*
X84174Y130946D01*
X84075Y131012D01*
X83958Y131036D01*
X83658D01*
X83541Y131012D01*
X83442Y130946D01*
X83375Y130847D01*
X83365Y130793D01*
X83235D01*
X83225Y130847D01*
X83158Y130946D01*
X83133Y130963D01*
X83150Y131005D01*
Y131145D01*
X83097Y131273D01*
X82998Y131372D01*
X82870Y131425D01*
X82730D01*
X82602Y131372D01*
X82503Y131273D01*
X82450Y131145D01*
Y131005D01*
X82464Y130972D01*
X82426Y130946D01*
X82359Y130847D01*
X82336Y130730D01*
Y130420D01*
X82359Y130303D01*
X82426Y130204D01*
X82525Y130138D01*
X82642Y130114D01*
X82942D01*
X83059Y130138D01*
X83158Y130204D01*
X83225Y130303D01*
X83235Y130357D01*
X83365D01*
X83375Y130303D01*
X83442Y130204D01*
X83541Y130138D01*
X83658Y130114D01*
X83958D01*
X83961Y130115D01*
X83975Y130100D01*
X84055Y130047D01*
X84100Y130038D01*
X84117Y129966D01*
X84113Y129906D01*
X84029Y129849D01*
X83963Y129750D01*
X83939Y129633D01*
Y129333D01*
X83963Y129216D01*
X84029Y129117D01*
X84128Y129050D01*
X84182Y129040D01*
Y128910D01*
X84128Y128900D01*
X84029Y128833D01*
X83963Y128734D01*
X83949Y128667D01*
X84400D01*
X84851D01*
X84837Y128734D01*
X84771Y128833D01*
X84672Y128900D01*
X84618Y128910D01*
Y129040D01*
X84672Y129050D01*
X84771Y129117D01*
X84837Y129216D01*
X84861Y129333D01*
Y129633D01*
X84837Y129750D01*
X84771Y129849D01*
X84687Y129906D01*
X84683Y129966D01*
X84700Y130038D01*
X84745Y130047D01*
X84825Y130100D01*
X84839Y130115D01*
X84842Y130114D01*
X85142D01*
X85259Y130138D01*
X85358Y130204D01*
X85425Y130303D01*
X85435Y130357D01*
X85565D01*
X85575Y130303D01*
X85642Y130204D01*
X85741Y130138D01*
X85858Y130114D01*
X86158D01*
X86275Y130138D01*
X86374Y130204D01*
X86441Y130303D01*
X86464Y130420D01*
Y130730D01*
X86441Y130847D01*
X86374Y130946D01*
X86336Y130972D01*
X86350Y131005D01*
Y131145D01*
X86297Y131273D01*
X86198Y131372D01*
X86070Y131425D01*
D02*
G37*
G36*
X52700Y130787D02*
X52641Y130779D01*
X52447Y130699D01*
X52279Y130571D01*
X52151Y130403D01*
X52108Y130300D01*
X52700D01*
Y130787D01*
D02*
G37*
G36*
X55150Y130807D02*
X54850D01*
X54641Y130779D01*
X54447Y130699D01*
X54279Y130571D01*
X54151Y130403D01*
X54071Y130209D01*
X54064Y130159D01*
X53936D01*
X53929Y130209D01*
X53849Y130403D01*
X53721Y130571D01*
X53553Y130699D01*
X53359Y130779D01*
X53300Y130787D01*
Y130000D01*
Y129213D01*
X53359Y129221D01*
X53553Y129301D01*
X53721Y129429D01*
X53849Y129597D01*
X53929Y129791D01*
X53936Y129841D01*
X54064D01*
X54071Y129791D01*
X54151Y129597D01*
X54279Y129429D01*
X54447Y129301D01*
X54641Y129221D01*
X54850Y129193D01*
X55150D01*
X55359Y129221D01*
X55553Y129301D01*
X55721Y129429D01*
X55849Y129597D01*
X55929Y129791D01*
X55957Y130000D01*
X55929Y130209D01*
X55849Y130403D01*
X55721Y130571D01*
X55553Y130699D01*
X55359Y130779D01*
X55150Y130807D01*
D02*
G37*
G36*
X66090Y130450D02*
X65910D01*
X65745Y130381D01*
X65619Y130255D01*
X65550Y130090D01*
Y129910D01*
X65619Y129745D01*
X65745Y129619D01*
X65910Y129550D01*
X66090D01*
X66255Y129619D01*
X66381Y129745D01*
X66450Y129910D01*
Y130090D01*
X66381Y130255D01*
X66255Y130381D01*
X66090Y130450D01*
D02*
G37*
G36*
X72520Y129800D02*
X72380D01*
X72252Y129747D01*
X72153Y129648D01*
X72126Y129584D01*
X71989Y129491D01*
X71964Y129454D01*
X71837D01*
X71811Y129491D01*
X71674Y129584D01*
X71647Y129648D01*
X71548Y129747D01*
X71420Y129800D01*
X71280D01*
X71152Y129747D01*
X71053Y129648D01*
X71000Y129520D01*
Y129380D01*
X71053Y129252D01*
X71152Y129153D01*
X71280Y129100D01*
X71420D01*
X71521Y129042D01*
X71546Y129015D01*
Y128850D01*
X71542D01*
X71575Y128507D01*
X71675Y128177D01*
X71838Y127873D01*
X72057Y127607D01*
X72323Y127388D01*
X72627Y127225D01*
X72957Y127125D01*
X73300Y127092D01*
Y127096D01*
X85393D01*
X85404Y127098D01*
X85965Y127054D01*
X86523Y126920D01*
X87053Y126700D01*
X87542Y126401D01*
X87978Y126028D01*
X88351Y125592D01*
X88650Y125103D01*
X88870Y124573D01*
X89004Y124015D01*
X89048Y123454D01*
X89046Y123443D01*
Y122961D01*
X89037Y122837D01*
X89037Y122836D01*
X89040Y122833D01*
X88881Y122626D01*
X88841Y122530D01*
X88800D01*
X88693Y122509D01*
X88602Y122448D01*
X88541Y122357D01*
X88540Y122351D01*
X88410D01*
X88409Y122357D01*
X88348Y122448D01*
X88257Y122509D01*
X88175Y122525D01*
Y122125D01*
X87975D01*
Y121925D01*
X87535D01*
X87541Y121893D01*
X87541Y121892D01*
X87491Y121738D01*
X87452Y121722D01*
X87353Y121623D01*
X87300Y121495D01*
Y121355D01*
X87353Y121227D01*
X87452Y121128D01*
X87580Y121075D01*
X87720D01*
X87848Y121128D01*
X87900Y121180D01*
X87952Y121128D01*
X88080Y121075D01*
X88220D01*
X88348Y121128D01*
X88400Y121180D01*
X88452Y121128D01*
X88580Y121075D01*
X88720D01*
X88848Y121128D01*
X88900Y121180D01*
X88952Y121128D01*
X89080Y121075D01*
X89220D01*
X89348Y121128D01*
X89400Y121180D01*
X89452Y121128D01*
X89580Y121075D01*
X89720D01*
X89848Y121128D01*
X89947Y121227D01*
X90000Y121355D01*
Y121495D01*
X89959Y121593D01*
X89983Y121665D01*
X89991Y121680D01*
X90025Y121725D01*
X90107Y121741D01*
X90198Y121802D01*
X90259Y121893D01*
X90260Y121899D01*
X90390D01*
X90391Y121893D01*
X90422Y121847D01*
X90440Y121769D01*
X90408Y121678D01*
X90353Y121623D01*
X90300Y121495D01*
Y121355D01*
X90353Y121227D01*
X90452Y121128D01*
X90580Y121075D01*
X90720D01*
X90848Y121128D01*
X90947Y121227D01*
X91000Y121355D01*
Y121495D01*
X90959Y121593D01*
X90983Y121665D01*
X90991Y121680D01*
X91025Y121725D01*
X91107Y121741D01*
X91198Y121802D01*
X91259Y121893D01*
X91265Y121925D01*
X90825D01*
Y122125D01*
X90625D01*
Y122525D01*
X90543Y122509D01*
X90452Y122448D01*
X90391Y122357D01*
X90390Y122351D01*
X90260D01*
X90259Y122357D01*
X90198Y122448D01*
X90107Y122509D01*
X90000Y122530D01*
X89959D01*
X89919Y122626D01*
X89760Y122833D01*
X89763Y122836D01*
X89763Y122837D01*
X89754Y122961D01*
Y123443D01*
X89759D01*
X89722Y124013D01*
X89611Y124573D01*
X89427Y125114D01*
X89174Y125626D01*
X88857Y126101D01*
X88481Y126531D01*
X88051Y126907D01*
X87576Y127224D01*
X87064Y127477D01*
X86523Y127661D01*
X85963Y127772D01*
X85393Y127809D01*
Y127804D01*
X73300D01*
X73298Y127804D01*
X73029Y127839D01*
X72777Y127944D01*
X72560Y128110D01*
X72394Y128327D01*
X72289Y128579D01*
X72254Y128848D01*
X72254Y128850D01*
Y129015D01*
X72279Y129042D01*
X72380Y129100D01*
X72520D01*
X72648Y129153D01*
X72747Y129252D01*
X72800Y129380D01*
Y129520D01*
X72747Y129648D01*
X72648Y129747D01*
X72520Y129800D01*
D02*
G37*
G36*
X52700Y129700D02*
X52108D01*
X52151Y129597D01*
X52279Y129429D01*
X52447Y129301D01*
X52641Y129221D01*
X52700Y129213D01*
Y129700D01*
D02*
G37*
G36*
X73820Y130250D02*
X73680D01*
X73552Y130197D01*
X73453Y130098D01*
X73400Y129970D01*
Y129830D01*
X73453Y129702D01*
X73455Y129700D01*
X73453Y129698D01*
X73400Y129570D01*
Y129430D01*
X73453Y129302D01*
X73552Y129203D01*
X73680Y129150D01*
X73820D01*
X73948Y129203D01*
X74047Y129302D01*
X74100Y129430D01*
Y129570D01*
X74047Y129698D01*
X74045Y129700D01*
X74047Y129702D01*
X74100Y129830D01*
Y129970D01*
X74047Y130098D01*
X73948Y130197D01*
X73820Y130250D01*
D02*
G37*
G36*
X93851Y128267D02*
X93600D01*
Y128020D01*
X93672Y128034D01*
X93771Y128101D01*
X93837Y128200D01*
X93851Y128267D01*
D02*
G37*
G36*
X93200D02*
X92949D01*
X92963Y128200D01*
X93029Y128101D01*
X93128Y128034D01*
X93200Y128020D01*
Y128267D01*
D02*
G37*
G36*
X84851Y128267D02*
X84600D01*
Y128020D01*
X84672Y128034D01*
X84771Y128101D01*
X84837Y128200D01*
X84851Y128267D01*
D02*
G37*
G36*
X84200D02*
X83949D01*
X83963Y128200D01*
X84029Y128101D01*
X84128Y128034D01*
X84200Y128020D01*
Y128267D01*
D02*
G37*
G36*
X84600Y126830D02*
Y126583D01*
X84851D01*
X84837Y126650D01*
X84771Y126749D01*
X84672Y126816D01*
X84600Y126830D01*
D02*
G37*
G36*
X84200D02*
X84128Y126816D01*
X84029Y126749D01*
X83963Y126650D01*
X83949Y126583D01*
X84200D01*
Y126830D01*
D02*
G37*
G36*
X93600D02*
Y126583D01*
X93851D01*
X93837Y126650D01*
X93771Y126749D01*
X93672Y126816D01*
X93600Y126830D01*
D02*
G37*
G36*
X93200Y126830D02*
X93128Y126816D01*
X93029Y126749D01*
X92963Y126650D01*
X92949Y126583D01*
X93200D01*
Y126830D01*
D02*
G37*
G36*
X90240Y127200D02*
X90060D01*
X89895Y127131D01*
X89769Y127005D01*
X89700Y126840D01*
Y126660D01*
X89769Y126495D01*
X89814Y126450D01*
X89769Y126405D01*
X89700Y126240D01*
Y126060D01*
X89769Y125895D01*
X89895Y125769D01*
X90060Y125700D01*
X90240D01*
X90405Y125769D01*
X90531Y125895D01*
X90600Y126060D01*
Y126240D01*
X90531Y126405D01*
X90486Y126450D01*
X90531Y126495D01*
X90600Y126660D01*
Y126840D01*
X90531Y127005D01*
X90405Y127131D01*
X90240Y127200D01*
D02*
G37*
G36*
X93851Y126183D02*
X93400D01*
X92949D01*
X92963Y126116D01*
X93029Y126017D01*
X93128Y125950D01*
X93182Y125940D01*
Y125810D01*
X93128Y125800D01*
X93029Y125733D01*
X92963Y125634D01*
X92939Y125517D01*
Y125217D01*
X92963Y125100D01*
X93029Y125001D01*
X93113Y124944D01*
X93117Y124884D01*
X93100Y124812D01*
X93055Y124803D01*
X92975Y124750D01*
X92961Y124735D01*
X92958Y124736D01*
X92658D01*
X92541Y124712D01*
X92442Y124646D01*
X92375Y124547D01*
X92365Y124493D01*
X92235D01*
X92225Y124547D01*
X92158Y124646D01*
X92059Y124712D01*
X91942Y124736D01*
X91642D01*
X91525Y124712D01*
X91426Y124646D01*
X91359Y124547D01*
X91336Y124430D01*
Y124120D01*
X91359Y124003D01*
X91426Y123904D01*
X91464Y123878D01*
X91450Y123845D01*
Y123705D01*
X91503Y123577D01*
X91602Y123478D01*
X91730Y123425D01*
X91870D01*
X91998Y123478D01*
X92097Y123577D01*
X92150Y123705D01*
Y123845D01*
X92133Y123887D01*
X92158Y123904D01*
X92225Y124003D01*
X92235Y124057D01*
X92365D01*
X92375Y124003D01*
X92442Y123904D01*
X92541Y123838D01*
X92658Y123814D01*
X92958D01*
X93075Y123838D01*
X93174Y123904D01*
X93241Y124003D01*
X93264Y124120D01*
Y124328D01*
X93536D01*
Y124120D01*
X93559Y124003D01*
X93626Y123904D01*
X93725Y123838D01*
X93842Y123814D01*
X94142D01*
X94259Y123838D01*
X94358Y123904D01*
X94425Y124003D01*
X94435Y124057D01*
X94565D01*
X94575Y124003D01*
X94642Y123904D01*
X94667Y123887D01*
X94650Y123845D01*
Y123705D01*
X94703Y123577D01*
X94802Y123478D01*
X94930Y123425D01*
X95070D01*
X95198Y123478D01*
X95297Y123577D01*
X95350Y123705D01*
Y123845D01*
X95336Y123878D01*
X95374Y123904D01*
X95441Y124003D01*
X95464Y124120D01*
Y124430D01*
X95441Y124547D01*
X95374Y124646D01*
X95275Y124712D01*
X95158Y124736D01*
X94858D01*
X94741Y124712D01*
X94642Y124646D01*
X94575Y124547D01*
X94565Y124493D01*
X94435D01*
X94425Y124547D01*
X94358Y124646D01*
X94259Y124712D01*
X94142Y124736D01*
X93842D01*
X93839Y124735D01*
X93825Y124750D01*
X93745Y124803D01*
X93700Y124812D01*
X93683Y124884D01*
X93687Y124944D01*
X93771Y125001D01*
X93837Y125100D01*
X93861Y125217D01*
Y125517D01*
X93837Y125634D01*
X93771Y125733D01*
X93672Y125800D01*
X93618Y125810D01*
Y125940D01*
X93672Y125950D01*
X93771Y126017D01*
X93837Y126116D01*
X93851Y126183D01*
D02*
G37*
G36*
X84851Y126183D02*
X84400D01*
X83949D01*
X83963Y126116D01*
X84029Y126017D01*
X84128Y125950D01*
X84182Y125940D01*
Y125810D01*
X84128Y125800D01*
X84029Y125733D01*
X83963Y125634D01*
X83939Y125517D01*
Y125217D01*
X83963Y125100D01*
X84029Y125001D01*
X84113Y124944D01*
X84117Y124884D01*
X84100Y124812D01*
X84055Y124803D01*
X83975Y124750D01*
X83961Y124735D01*
X83958Y124736D01*
X83658D01*
X83541Y124712D01*
X83442Y124646D01*
X83375Y124547D01*
X83365Y124493D01*
X83235D01*
X83225Y124547D01*
X83158Y124646D01*
X83059Y124712D01*
X82942Y124736D01*
X82642D01*
X82525Y124712D01*
X82426Y124646D01*
X82359Y124547D01*
X82336Y124430D01*
Y124120D01*
X82359Y124003D01*
X82426Y123904D01*
X82464Y123878D01*
X82450Y123845D01*
Y123705D01*
X82503Y123577D01*
X82602Y123478D01*
X82730Y123425D01*
X82870D01*
X82998Y123478D01*
X83097Y123577D01*
X83150Y123705D01*
Y123845D01*
X83133Y123887D01*
X83158Y123904D01*
X83225Y124003D01*
X83235Y124057D01*
X83365D01*
X83375Y124003D01*
X83442Y123904D01*
X83541Y123838D01*
X83658Y123814D01*
X83958D01*
X84075Y123838D01*
X84174Y123904D01*
X84241Y124003D01*
X84264Y124120D01*
Y124328D01*
X84536D01*
Y124120D01*
X84559Y124003D01*
X84626Y123904D01*
X84725Y123838D01*
X84842Y123814D01*
X85142D01*
X85259Y123838D01*
X85358Y123904D01*
X85425Y124003D01*
X85435Y124057D01*
X85565D01*
X85575Y124003D01*
X85642Y123904D01*
X85667Y123887D01*
X85650Y123845D01*
Y123705D01*
X85703Y123577D01*
X85802Y123478D01*
X85930Y123425D01*
X86070D01*
X86198Y123478D01*
X86297Y123577D01*
X86350Y123705D01*
Y123845D01*
X86336Y123878D01*
X86374Y123904D01*
X86441Y124003D01*
X86464Y124120D01*
Y124430D01*
X86441Y124547D01*
X86374Y124646D01*
X86275Y124712D01*
X86158Y124736D01*
X85858D01*
X85741Y124712D01*
X85642Y124646D01*
X85575Y124547D01*
X85565Y124493D01*
X85435D01*
X85425Y124547D01*
X85358Y124646D01*
X85259Y124712D01*
X85142Y124736D01*
X84842D01*
X84839Y124735D01*
X84825Y124750D01*
X84745Y124803D01*
X84700Y124812D01*
X84683Y124884D01*
X84687Y124944D01*
X84771Y125001D01*
X84837Y125100D01*
X84861Y125217D01*
Y125517D01*
X84837Y125634D01*
X84771Y125733D01*
X84672Y125800D01*
X84618Y125810D01*
Y125940D01*
X84672Y125950D01*
X84771Y126017D01*
X84837Y126116D01*
X84851Y126183D01*
D02*
G37*
G36*
X87690Y124275D02*
X87510D01*
X87345Y124206D01*
X87219Y124080D01*
X87150Y123915D01*
Y123735D01*
X87219Y123570D01*
X87264Y123525D01*
X87219Y123480D01*
X87150Y123315D01*
Y123135D01*
X87219Y122970D01*
X87345Y122844D01*
X87510Y122775D01*
X87690D01*
X87855Y122844D01*
X87981Y122970D01*
X88050Y123135D01*
Y123315D01*
X87981Y123480D01*
X87936Y123525D01*
X87981Y123570D01*
X88050Y123735D01*
Y123915D01*
X87981Y124080D01*
X87855Y124206D01*
X87690Y124275D01*
D02*
G37*
G36*
X87775Y122525D02*
X87693Y122509D01*
X87602Y122448D01*
X87541Y122357D01*
X87535Y122325D01*
X87775D01*
Y122525D01*
D02*
G37*
G36*
X91025D02*
Y122325D01*
X91265D01*
X91259Y122357D01*
X91198Y122448D01*
X91107Y122509D01*
X91025Y122525D01*
D02*
G37*
G36*
X90775Y120300D02*
X89100D01*
Y118625D01*
X90775D01*
Y120300D01*
D02*
G37*
G36*
X88700D02*
X87025D01*
Y118625D01*
X88700D01*
Y120300D01*
D02*
G37*
G36*
X97055Y118639D02*
X96745D01*
X96628Y118616D01*
X96530Y118550D01*
X96470Y118575D01*
X96330D01*
X96202Y118522D01*
X96103Y118423D01*
X96050Y118295D01*
Y118155D01*
X96103Y118027D01*
X96202Y117928D01*
X96330Y117875D01*
X96470D01*
X96486Y117882D01*
X96529Y117817D01*
X96628Y117750D01*
X96682Y117740D01*
Y117610D01*
X96628Y117600D01*
X96529Y117533D01*
X96463Y117434D01*
X96449Y117367D01*
X96900D01*
Y117167D01*
D01*
Y117367D01*
X97351D01*
X97337Y117434D01*
X97271Y117533D01*
X97172Y117600D01*
X97118Y117610D01*
Y117740D01*
X97172Y117750D01*
X97271Y117817D01*
X97337Y117916D01*
X97361Y118033D01*
Y118333D01*
X97337Y118450D01*
X97271Y118549D01*
X97172Y118616D01*
X97055Y118639D01*
D02*
G37*
G36*
X70520Y118550D02*
X70380D01*
X70252Y118497D01*
X70200Y118445D01*
X70148Y118497D01*
X70020Y118550D01*
X69880D01*
X69752Y118497D01*
X69700Y118445D01*
X69648Y118497D01*
X69520Y118550D01*
X69380D01*
X69252Y118497D01*
X69153Y118398D01*
X69100Y118270D01*
Y118130D01*
X69153Y118002D01*
X69252Y117903D01*
X69380Y117850D01*
X69520D01*
X69648Y117903D01*
X69700Y117955D01*
X69752Y117903D01*
X69880Y117850D01*
X70020D01*
X70148Y117903D01*
X70200Y117955D01*
X70252Y117903D01*
X70380Y117850D01*
X70520D01*
X70648Y117903D01*
X70747Y118002D01*
X70800Y118130D01*
Y118270D01*
X70747Y118398D01*
X70648Y118497D01*
X70520Y118550D01*
D02*
G37*
G36*
X74370D02*
X74230D01*
X74102Y118497D01*
X74050Y118445D01*
X73998Y118497D01*
X73870Y118550D01*
X73730D01*
X73602Y118497D01*
X73550Y118445D01*
X73498Y118497D01*
X73370Y118550D01*
X73230D01*
X73102Y118497D01*
X73003Y118398D01*
X72950Y118270D01*
Y118130D01*
X73003Y118002D01*
X73102Y117903D01*
X73230Y117850D01*
X73370D01*
X73498Y117903D01*
X73550Y117955D01*
X73602Y117903D01*
X73730Y117850D01*
X73870D01*
X73998Y117903D01*
X74050Y117955D01*
X74102Y117903D01*
X74230Y117850D01*
X74370D01*
X74498Y117903D01*
X74597Y118002D01*
X74650Y118130D01*
Y118270D01*
X74597Y118398D01*
X74498Y118497D01*
X74370Y118550D01*
D02*
G37*
G36*
X68670D02*
X68530D01*
X68402Y118497D01*
X68350Y118445D01*
X68298Y118497D01*
X68170Y118550D01*
X68030D01*
X67902Y118497D01*
X67850Y118445D01*
X67798Y118497D01*
X67670Y118550D01*
X67530D01*
X67402Y118497D01*
X67350Y118445D01*
X67298Y118497D01*
X67170Y118550D01*
X67030D01*
X66902Y118497D01*
X66803Y118398D01*
X66750Y118270D01*
Y118130D01*
X66803Y118002D01*
X66902Y117903D01*
X67030Y117850D01*
X67170D01*
X67298Y117903D01*
X67350Y117955D01*
X67402Y117903D01*
X67530Y117850D01*
X67670D01*
X67798Y117903D01*
X67850Y117955D01*
X67902Y117903D01*
X68030Y117850D01*
X68170D01*
X68298Y117903D01*
X68350Y117955D01*
X68402Y117903D01*
X68530Y117850D01*
X68670D01*
X68798Y117903D01*
X68897Y118002D01*
X68950Y118130D01*
Y118270D01*
X68897Y118398D01*
X68798Y118497D01*
X68670Y118550D01*
D02*
G37*
G36*
X66320D02*
X66180D01*
X66052Y118497D01*
X66000Y118445D01*
X65948Y118497D01*
X65820Y118550D01*
X65680D01*
X65552Y118497D01*
X65500Y118445D01*
X65448Y118497D01*
X65320Y118550D01*
X65180D01*
X65052Y118497D01*
X65000Y118445D01*
X64948Y118497D01*
X64820Y118550D01*
X64680D01*
X64552Y118497D01*
X64453Y118398D01*
X64400Y118270D01*
Y118130D01*
X64453Y118002D01*
X64552Y117903D01*
X64680Y117850D01*
X64820D01*
X64948Y117903D01*
X65000Y117955D01*
X65052Y117903D01*
X65180Y117850D01*
X65320D01*
X65448Y117903D01*
X65500Y117955D01*
X65552Y117903D01*
X65680Y117850D01*
X65820D01*
X65948Y117903D01*
X66000Y117955D01*
X66052Y117903D01*
X66180Y117850D01*
X66320D01*
X66448Y117903D01*
X66547Y118002D01*
X66600Y118130D01*
Y118270D01*
X66547Y118398D01*
X66448Y118497D01*
X66320Y118550D01*
D02*
G37*
G36*
X63970D02*
X63830D01*
X63702Y118497D01*
X63650Y118445D01*
X63598Y118497D01*
X63470Y118550D01*
X63330D01*
X63202Y118497D01*
X63150Y118445D01*
X63098Y118497D01*
X62970Y118550D01*
X62830D01*
X62702Y118497D01*
X62650Y118445D01*
X62598Y118497D01*
X62470Y118550D01*
X62330D01*
X62202Y118497D01*
X62103Y118398D01*
X62050Y118270D01*
Y118130D01*
X62103Y118002D01*
X62202Y117903D01*
X62330Y117850D01*
X62470D01*
X62598Y117903D01*
X62650Y117955D01*
X62702Y117903D01*
X62830Y117850D01*
X62970D01*
X63098Y117903D01*
X63150Y117955D01*
X63202Y117903D01*
X63330Y117850D01*
X63470D01*
X63598Y117903D01*
X63650Y117955D01*
X63702Y117903D01*
X63830Y117850D01*
X63970D01*
X64098Y117903D01*
X64197Y118002D01*
X64250Y118130D01*
Y118270D01*
X64197Y118398D01*
X64098Y118497D01*
X63970Y118550D01*
D02*
G37*
G36*
X61620D02*
X61480D01*
X61352Y118497D01*
X61300Y118445D01*
X61248Y118497D01*
X61120Y118550D01*
X60980D01*
X60852Y118497D01*
X60800Y118445D01*
X60748Y118497D01*
X60620Y118550D01*
X60480D01*
X60352Y118497D01*
X60300Y118445D01*
X60248Y118497D01*
X60120Y118550D01*
X59980D01*
X59852Y118497D01*
X59753Y118398D01*
X59700Y118270D01*
Y118130D01*
X59753Y118002D01*
X59852Y117903D01*
X59980Y117850D01*
X60120D01*
X60248Y117903D01*
X60300Y117955D01*
X60352Y117903D01*
X60480Y117850D01*
X60620D01*
X60748Y117903D01*
X60800Y117955D01*
X60852Y117903D01*
X60980Y117850D01*
X61120D01*
X61248Y117903D01*
X61300Y117955D01*
X61352Y117903D01*
X61480Y117850D01*
X61620D01*
X61748Y117903D01*
X61847Y118002D01*
X61900Y118130D01*
Y118270D01*
X61847Y118398D01*
X61748Y118497D01*
X61620Y118550D01*
D02*
G37*
G36*
X59270D02*
X59130D01*
X59002Y118497D01*
X58950Y118445D01*
X58898Y118497D01*
X58770Y118550D01*
X58630D01*
X58502Y118497D01*
X58450Y118445D01*
X58398Y118497D01*
X58270Y118550D01*
X58130D01*
X58002Y118497D01*
X57950Y118445D01*
X57898Y118497D01*
X57770Y118550D01*
X57630D01*
X57502Y118497D01*
X57403Y118398D01*
X57350Y118270D01*
Y118130D01*
X57403Y118002D01*
X57502Y117903D01*
X57630Y117850D01*
X57770D01*
X57898Y117903D01*
X57950Y117955D01*
X58002Y117903D01*
X58130Y117850D01*
X58270D01*
X58398Y117903D01*
X58450Y117955D01*
X58502Y117903D01*
X58630Y117850D01*
X58770D01*
X58898Y117903D01*
X58950Y117955D01*
X59002Y117903D01*
X59130Y117850D01*
X59270D01*
X59398Y117903D01*
X59497Y118002D01*
X59550Y118130D01*
Y118270D01*
X59497Y118398D01*
X59398Y118497D01*
X59270Y118550D01*
D02*
G37*
G36*
X71945Y118608D02*
X71805D01*
X71677Y118555D01*
X71578Y118456D01*
X71525Y118328D01*
Y118188D01*
X71578Y118060D01*
X71677Y117961D01*
X71805Y117908D01*
X71945D01*
X72073Y117961D01*
X72172Y118060D01*
X72225Y118188D01*
Y118328D01*
X72172Y118456D01*
X72073Y118555D01*
X71945Y118608D01*
D02*
G37*
G36*
X81055Y118639D02*
X80745D01*
X80628Y118616D01*
X80529Y118549D01*
X80463Y118450D01*
X80439Y118333D01*
Y118033D01*
X80463Y117916D01*
X80529Y117817D01*
X80628Y117750D01*
X80682Y117740D01*
Y117610D01*
X80628Y117600D01*
X80529Y117533D01*
X80463Y117434D01*
X80449Y117367D01*
X80900D01*
X81351D01*
X81337Y117434D01*
X81271Y117533D01*
X81172Y117600D01*
X81118Y117610D01*
Y117740D01*
X81172Y117750D01*
X81271Y117817D01*
X81314Y117882D01*
X81330Y117875D01*
X81470D01*
X81598Y117928D01*
X81697Y118027D01*
X81750Y118155D01*
Y118295D01*
X81697Y118423D01*
X81598Y118522D01*
X81470Y118575D01*
X81330D01*
X81270Y118550D01*
X81172Y118616D01*
X81055Y118639D01*
D02*
G37*
G36*
X97351Y116967D02*
X97100D01*
Y116720D01*
X97172Y116734D01*
X97271Y116801D01*
X97337Y116900D01*
X97351Y116967D01*
D02*
G37*
G36*
X81351D02*
X81100D01*
Y116720D01*
X81172Y116734D01*
X81271Y116801D01*
X81337Y116900D01*
X81351Y116967D01*
D02*
G37*
G36*
X80700D02*
X80449D01*
X80463Y116900D01*
X80529Y116801D01*
X80628Y116734D01*
X80700Y116720D01*
Y116967D01*
D02*
G37*
G36*
X96700D02*
X96449D01*
X96463Y116900D01*
X96529Y116801D01*
X96628Y116734D01*
X96700Y116720D01*
Y116967D01*
D02*
G37*
G36*
X90775Y118225D02*
X89100D01*
Y116550D01*
X90775D01*
Y118225D01*
D02*
G37*
G36*
X88700D02*
X87025D01*
Y116550D01*
X88700D01*
Y118225D01*
D02*
G37*
G36*
X60120Y116650D02*
X59980D01*
X59852Y116597D01*
X59753Y116498D01*
X59700Y116370D01*
Y116230D01*
X59753Y116102D01*
X59852Y116003D01*
X59980Y115950D01*
X60120D01*
X60248Y116003D01*
X60347Y116102D01*
X60400Y116230D01*
Y116370D01*
X60347Y116498D01*
X60248Y116597D01*
X60120Y116650D01*
D02*
G37*
G36*
X71945Y116592D02*
X71805D01*
X71677Y116539D01*
X71578Y116440D01*
X71525Y116312D01*
Y116172D01*
X71578Y116044D01*
X71677Y115945D01*
X71805Y115892D01*
X71945D01*
X72073Y115945D01*
X72172Y116044D01*
X72225Y116172D01*
Y116312D01*
X72172Y116440D01*
X72073Y116539D01*
X71945Y116592D01*
D02*
G37*
G36*
X90220Y115800D02*
X90080D01*
X89952Y115747D01*
X89853Y115648D01*
X89800Y115520D01*
Y115380D01*
X89853Y115252D01*
X89952Y115153D01*
X90080Y115100D01*
X90220D01*
X90348Y115153D01*
X90447Y115252D01*
X90500Y115380D01*
Y115520D01*
X90447Y115648D01*
X90348Y115747D01*
X90220Y115800D01*
D02*
G37*
G36*
X85365Y114150D02*
X85185D01*
X85020Y114081D01*
X84975Y114036D01*
X84930Y114081D01*
X84765Y114150D01*
X84585D01*
X84420Y114081D01*
X84294Y113955D01*
X84225Y113790D01*
Y113610D01*
X84294Y113445D01*
X84420Y113319D01*
X84585Y113250D01*
X84765D01*
X84930Y113319D01*
X84975Y113364D01*
X85020Y113319D01*
X85185Y113250D01*
X85365D01*
X85530Y113319D01*
X85656Y113445D01*
X85725Y113610D01*
Y113790D01*
X85656Y113955D01*
X85530Y114081D01*
X85365Y114150D01*
D02*
G37*
G36*
X86970Y113500D02*
X86830D01*
X86702Y113447D01*
X86603Y113348D01*
X86550Y113220D01*
Y113080D01*
X86603Y112952D01*
X86702Y112853D01*
X86830Y112800D01*
X86970D01*
X87098Y112853D01*
X87197Y112952D01*
X87250Y113080D01*
Y113220D01*
X87197Y113348D01*
X87098Y113447D01*
X86970Y113500D01*
D02*
G37*
G36*
X62570Y112850D02*
X62430D01*
X62302Y112797D01*
X62203Y112698D01*
X62150Y112570D01*
Y112430D01*
X62133Y112405D01*
X61825D01*
X61718Y112384D01*
X61627Y112323D01*
X61566Y112232D01*
X61565Y112226D01*
X61435D01*
X61434Y112232D01*
X61373Y112323D01*
X61282Y112384D01*
X61175Y112405D01*
X60991D01*
X60850Y112547D01*
Y112570D01*
X60797Y112698D01*
X60698Y112797D01*
X60570Y112850D01*
X60430D01*
X60302Y112797D01*
X60203Y112698D01*
X60150Y112570D01*
Y112430D01*
X60203Y112302D01*
X60302Y112203D01*
X60430Y112150D01*
X60453D01*
X60545Y112059D01*
Y111875D01*
X60566Y111768D01*
X60627Y111677D01*
X60718Y111616D01*
X60825Y111595D01*
X61175D01*
X61282Y111616D01*
X61373Y111677D01*
X61434Y111768D01*
X61435Y111774D01*
X61565D01*
X61566Y111768D01*
X61627Y111677D01*
X61718Y111616D01*
X61800Y111600D01*
Y112000D01*
X62200D01*
Y111600D01*
X62282Y111616D01*
X62373Y111677D01*
X62434Y111768D01*
X62455Y111875D01*
Y112125D01*
X62476Y112150D01*
X62570D01*
X62698Y112203D01*
X62797Y112302D01*
X62850Y112430D01*
Y112570D01*
X62797Y112698D01*
X62698Y112797D01*
X62570Y112850D01*
D02*
G37*
G36*
X89795Y112242D02*
X89655D01*
X89527Y112189D01*
X89428Y112090D01*
X89375Y111962D01*
Y111822D01*
X89428Y111694D01*
X89527Y111595D01*
X89655Y111542D01*
X89795D01*
X89923Y111595D01*
X90022Y111694D01*
X90075Y111822D01*
Y111962D01*
X90022Y112090D01*
X89923Y112189D01*
X89795Y112242D01*
D02*
G37*
G36*
X69570Y111850D02*
X69430D01*
X69302Y111797D01*
X69203Y111698D01*
X69150Y111570D01*
Y111547D01*
X69009Y111405D01*
X68825D01*
X68718Y111384D01*
X68627Y111323D01*
X68566Y111232D01*
X68565Y111226D01*
X68435D01*
X68434Y111232D01*
X68373Y111323D01*
X68282Y111384D01*
X68200Y111400D01*
Y111000D01*
Y110600D01*
X68282Y110616D01*
X68373Y110677D01*
X68434Y110768D01*
X68435Y110774D01*
X68565D01*
X68566Y110768D01*
X68627Y110677D01*
X68718Y110616D01*
X68825Y110595D01*
X69175D01*
X69282Y110616D01*
X69373Y110677D01*
X69434Y110768D01*
X69455Y110875D01*
Y111059D01*
X69547Y111150D01*
X69570D01*
X69698Y111203D01*
X69797Y111302D01*
X69850Y111430D01*
Y111570D01*
X69797Y111698D01*
X69698Y111797D01*
X69570Y111850D01*
D02*
G37*
G36*
X67800Y111400D02*
X67718Y111384D01*
X67627Y111323D01*
X67566Y111232D01*
X67560Y111200D01*
X67800D01*
Y111400D01*
D02*
G37*
G36*
X63570Y111850D02*
X63430D01*
X63302Y111797D01*
X63203Y111698D01*
X63150Y111570D01*
Y111430D01*
X63203Y111302D01*
X63302Y111203D01*
X63430Y111150D01*
X63570D01*
X63698Y111203D01*
X63797Y111302D01*
X63850Y111430D01*
Y111570D01*
X63797Y111698D01*
X63698Y111797D01*
X63570Y111850D01*
D02*
G37*
G36*
X67800Y110800D02*
X67560D01*
X67566Y110768D01*
X67627Y110677D01*
X67718Y110616D01*
X67800Y110600D01*
Y110800D01*
D02*
G37*
G36*
X71570Y110850D02*
X71430D01*
X71302Y110797D01*
X71203Y110698D01*
X71150Y110570D01*
Y110547D01*
X71009Y110405D01*
X70825D01*
X70718Y110384D01*
X70627Y110323D01*
X70566Y110232D01*
X70565Y110226D01*
X70435D01*
X70434Y110232D01*
X70373Y110323D01*
X70282Y110384D01*
X70200Y110400D01*
Y110000D01*
Y109600D01*
X70282Y109616D01*
X70373Y109677D01*
X70434Y109768D01*
X70435Y109774D01*
X70565D01*
X70566Y109768D01*
X70627Y109677D01*
X70718Y109616D01*
X70825Y109595D01*
X71175D01*
X71282Y109616D01*
X71373Y109677D01*
X71434Y109768D01*
X71455Y109875D01*
Y110059D01*
X71547Y110150D01*
X71570D01*
X71698Y110203D01*
X71797Y110302D01*
X71850Y110430D01*
Y110570D01*
X71797Y110698D01*
X71698Y110797D01*
X71570Y110850D01*
D02*
G37*
G36*
X66200Y110440D02*
Y110200D01*
X66400D01*
X66384Y110282D01*
X66323Y110373D01*
X66232Y110434D01*
X66200Y110440D01*
D02*
G37*
G36*
X66800D02*
X66768Y110434D01*
X66677Y110373D01*
X66616Y110282D01*
X66600Y110200D01*
X66800D01*
Y110440D01*
D02*
G37*
G36*
X69800Y110400D02*
X69718Y110384D01*
X69627Y110323D01*
X69566Y110232D01*
X69560Y110200D01*
X69800D01*
Y110400D01*
D02*
G37*
G36*
X65200Y110440D02*
Y110000D01*
X64800D01*
Y110440D01*
X64768Y110434D01*
X64677Y110373D01*
X64616Y110282D01*
X64595Y110175D01*
Y109867D01*
X64570Y109850D01*
X64430D01*
X64302Y109797D01*
X64203Y109698D01*
X64150Y109570D01*
Y109430D01*
X64203Y109302D01*
X64302Y109203D01*
X64430Y109150D01*
X64453D01*
X64595Y109009D01*
Y108825D01*
X64616Y108718D01*
X64677Y108627D01*
X64768Y108566D01*
X64875Y108545D01*
X65125D01*
X65232Y108566D01*
X65323Y108627D01*
X65384Y108718D01*
X65405Y108825D01*
Y108955D01*
X65532Y109015D01*
X65595Y108967D01*
Y108825D01*
X65616Y108718D01*
X65677Y108627D01*
X65768Y108566D01*
X65875Y108545D01*
X66125D01*
X66232Y108566D01*
X66323Y108627D01*
X66384Y108718D01*
X66405Y108825D01*
Y109175D01*
X66384Y109282D01*
X66323Y109373D01*
X66232Y109434D01*
X66226Y109435D01*
Y109565D01*
X66232Y109566D01*
X66323Y109627D01*
X66384Y109718D01*
X66400Y109800D01*
X66000D01*
Y110000D01*
X65800D01*
Y110440D01*
X65768Y110434D01*
X65677Y110373D01*
X65616Y110282D01*
X65595Y110175D01*
Y109867D01*
X65570Y109850D01*
X65430D01*
X65405Y109867D01*
Y110175D01*
X65384Y110282D01*
X65323Y110373D01*
X65232Y110434D01*
X65200Y110440D01*
D02*
G37*
G36*
X68200D02*
Y110000D01*
X67800D01*
Y110440D01*
X67768Y110434D01*
X67677Y110373D01*
X67616Y110282D01*
X67595Y110175D01*
Y109867D01*
X67570Y109850D01*
X67430D01*
X67405Y109867D01*
Y110175D01*
X67384Y110282D01*
X67323Y110373D01*
X67232Y110434D01*
X67200Y110440D01*
Y110000D01*
X67000D01*
Y109800D01*
X66600D01*
X66616Y109718D01*
X66677Y109627D01*
X66768Y109566D01*
X66774Y109565D01*
Y109435D01*
X66768Y109434D01*
X66677Y109373D01*
X66616Y109282D01*
X66595Y109175D01*
Y108825D01*
X66616Y108718D01*
X66677Y108627D01*
X66768Y108566D01*
X66875Y108545D01*
X67125D01*
X67232Y108566D01*
X67323Y108627D01*
X67384Y108718D01*
X67405Y108825D01*
Y108967D01*
X67468Y109015D01*
X67595Y108955D01*
Y108825D01*
X67616Y108718D01*
X67677Y108627D01*
X67768Y108566D01*
X67875Y108545D01*
X68125D01*
X68232Y108566D01*
X68323Y108627D01*
X68384Y108718D01*
X68405Y108825D01*
Y108965D01*
X68423Y108977D01*
X68597Y109150D01*
X68620D01*
X68748Y109203D01*
X68847Y109302D01*
X68900Y109430D01*
Y109570D01*
X68847Y109698D01*
X68748Y109797D01*
X68620Y109850D01*
X68520D01*
X68480Y109850D01*
X68405Y109956D01*
Y110175D01*
X68384Y110282D01*
X68323Y110373D01*
X68232Y110434D01*
X68200Y110440D01*
D02*
G37*
G36*
X69800Y109800D02*
X69560D01*
X69566Y109768D01*
X69627Y109677D01*
X69718Y109616D01*
X69800Y109600D01*
Y109800D01*
D02*
G37*
G36*
X73570Y109850D02*
X73430D01*
X73302Y109797D01*
X73203Y109698D01*
X73150Y109570D01*
Y109430D01*
X73203Y109302D01*
X73302Y109203D01*
X73430Y109150D01*
X73570D01*
X73698Y109203D01*
X73797Y109302D01*
X73850Y109430D01*
Y109570D01*
X73797Y109698D01*
X73698Y109797D01*
X73570Y109850D01*
D02*
G37*
G36*
X58570D02*
X58430D01*
X58302Y109797D01*
X58203Y109698D01*
X58150Y109570D01*
Y109430D01*
X58203Y109302D01*
X58302Y109203D01*
X58430Y109150D01*
X58570D01*
X58698Y109203D01*
X58797Y109302D01*
X58850Y109430D01*
Y109570D01*
X58797Y109698D01*
X58698Y109797D01*
X58570Y109850D01*
D02*
G37*
G36*
X88620Y108000D02*
X88480D01*
X88352Y107947D01*
X88253Y107848D01*
X88200Y107720D01*
Y107580D01*
X88215Y107544D01*
X88102Y107497D01*
X88003Y107398D01*
X87956Y107285D01*
X87920Y107300D01*
X87780D01*
X87652Y107247D01*
X87553Y107148D01*
X87500Y107020D01*
Y106880D01*
X87553Y106752D01*
X87652Y106653D01*
X87780Y106600D01*
X87920D01*
X88048Y106653D01*
X88147Y106752D01*
X88194Y106865D01*
X88230Y106850D01*
X88370D01*
X88498Y106903D01*
X88597Y107002D01*
X88650Y107130D01*
Y107270D01*
X88635Y107306D01*
X88748Y107353D01*
X88847Y107452D01*
X88900Y107580D01*
Y107720D01*
X88847Y107848D01*
X88748Y107947D01*
X88620Y108000D01*
D02*
G37*
G36*
X69570Y108850D02*
X69430D01*
X69302Y108797D01*
X69203Y108698D01*
X69150Y108570D01*
Y108547D01*
X69009Y108405D01*
X68825D01*
X68718Y108384D01*
X68627Y108323D01*
X68566Y108232D01*
X68545Y108125D01*
Y107875D01*
X68566Y107768D01*
X68627Y107677D01*
X68718Y107616D01*
X68825Y107595D01*
X68955D01*
X69015Y107468D01*
X68967Y107405D01*
X68825D01*
X68718Y107384D01*
X68627Y107323D01*
X68566Y107232D01*
X68545Y107125D01*
Y106875D01*
X68566Y106768D01*
X68627Y106677D01*
X68718Y106616D01*
X68825Y106595D01*
X69175D01*
X69282Y106616D01*
X69373Y106677D01*
X69434Y106768D01*
X69435Y106774D01*
X69565D01*
X69566Y106768D01*
X69627Y106677D01*
X69718Y106616D01*
X69800Y106600D01*
Y107000D01*
X70000D01*
Y107200D01*
X70440D01*
X70434Y107232D01*
X70373Y107323D01*
X70282Y107384D01*
X70175Y107405D01*
X69867D01*
X69850Y107430D01*
Y107570D01*
X69867Y107595D01*
X70175D01*
X70282Y107616D01*
X70373Y107677D01*
X70434Y107768D01*
X70440Y107800D01*
X70000D01*
Y108200D01*
X70440D01*
X70434Y108232D01*
X70373Y108323D01*
X70282Y108384D01*
X70175Y108405D01*
X69867D01*
X69850Y108430D01*
Y108570D01*
X69797Y108698D01*
X69698Y108797D01*
X69570Y108850D01*
D02*
G37*
G36*
X70440Y106800D02*
X70200D01*
Y106600D01*
X70282Y106616D01*
X70373Y106677D01*
X70434Y106768D01*
X70440Y106800D01*
D02*
G37*
G36*
X62800Y106800D02*
X62560D01*
X62566Y106768D01*
X62627Y106677D01*
X62718Y106616D01*
X62800Y106600D01*
Y106800D01*
D02*
G37*
G36*
X63570Y108850D02*
X63430D01*
X63302Y108797D01*
X63203Y108698D01*
X63150Y108570D01*
Y108430D01*
X63133Y108405D01*
X62825D01*
X62718Y108384D01*
X62627Y108323D01*
X62566Y108232D01*
X62560Y108200D01*
X63000D01*
Y107800D01*
X62560D01*
X62566Y107768D01*
X62627Y107677D01*
X62718Y107616D01*
X62825Y107595D01*
X63133D01*
X63150Y107570D01*
Y107430D01*
X63133Y107405D01*
X62825D01*
X62718Y107384D01*
X62627Y107323D01*
X62566Y107232D01*
X62560Y107200D01*
X63000D01*
Y107000D01*
X63200D01*
Y106600D01*
X63282Y106616D01*
X63373Y106677D01*
X63434Y106768D01*
X63435Y106774D01*
X63565D01*
X63566Y106768D01*
X63627Y106677D01*
X63718Y106616D01*
X63825Y106595D01*
X64175D01*
X64282Y106616D01*
X64373Y106677D01*
X64434Y106768D01*
X64455Y106875D01*
Y107125D01*
X64434Y107232D01*
X64373Y107323D01*
X64282Y107384D01*
X64175Y107405D01*
X64033D01*
X63985Y107468D01*
X64045Y107595D01*
X64175D01*
X64282Y107616D01*
X64373Y107677D01*
X64434Y107768D01*
X64455Y107875D01*
Y108125D01*
X64434Y108232D01*
X64373Y108323D01*
X64282Y108384D01*
X64175Y108405D01*
X63991D01*
X63850Y108547D01*
Y108570D01*
X63797Y108698D01*
X63698Y108797D01*
X63570Y108850D01*
D02*
G37*
G36*
X77870Y108100D02*
X77730D01*
X77602Y108047D01*
X77503Y107948D01*
X77450Y107820D01*
Y107680D01*
X77503Y107552D01*
X77555Y107500D01*
X77503Y107448D01*
X77450Y107320D01*
Y107180D01*
X77503Y107052D01*
X77555Y107000D01*
X77503Y106948D01*
X77450Y106820D01*
Y106680D01*
X77503Y106552D01*
X77602Y106453D01*
X77730Y106400D01*
X77870D01*
X77998Y106453D01*
X78097Y106552D01*
X78150Y106680D01*
Y106820D01*
X78097Y106948D01*
X78045Y107000D01*
X78097Y107052D01*
X78150Y107180D01*
Y107320D01*
X78097Y107448D01*
X78045Y107500D01*
X78097Y107552D01*
X78150Y107680D01*
Y107820D01*
X78097Y107948D01*
X77998Y108047D01*
X77870Y108100D01*
D02*
G37*
G36*
X81840Y107750D02*
X81660D01*
X81495Y107681D01*
X81369Y107555D01*
X81300Y107390D01*
Y107210D01*
X81369Y107045D01*
X81414Y107000D01*
X81369Y106955D01*
X81300Y106790D01*
Y106610D01*
X81369Y106445D01*
X81495Y106319D01*
X81660Y106250D01*
X81840D01*
X82005Y106319D01*
X82131Y106445D01*
X82200Y106610D01*
Y106790D01*
X82131Y106955D01*
X82086Y107000D01*
X82131Y107045D01*
X82200Y107210D01*
Y107390D01*
X82131Y107555D01*
X82005Y107681D01*
X81840Y107750D01*
D02*
G37*
G36*
X64175Y106405D02*
X63825D01*
X63718Y106384D01*
X63627Y106323D01*
X63566Y106232D01*
X63565Y106226D01*
X63435D01*
X63434Y106232D01*
X63373Y106323D01*
X63282Y106384D01*
X63200Y106400D01*
Y106000D01*
X63000D01*
Y105800D01*
X62560D01*
X62566Y105768D01*
X62627Y105677D01*
X62718Y105616D01*
X62825Y105595D01*
X63133D01*
X63150Y105570D01*
Y105430D01*
X63133Y105405D01*
X62825D01*
X62718Y105384D01*
X62627Y105323D01*
X62566Y105232D01*
X62560Y105200D01*
X63000D01*
Y104800D01*
X62560D01*
X62566Y104768D01*
X62627Y104677D01*
X62718Y104616D01*
X62825Y104595D01*
X63133D01*
X63150Y104570D01*
Y104430D01*
X63203Y104302D01*
X63302Y104203D01*
X63430Y104150D01*
X63570D01*
X63698Y104203D01*
X63797Y104302D01*
X63850Y104430D01*
Y104453D01*
X63991Y104595D01*
X64175D01*
X64282Y104616D01*
X64373Y104677D01*
X64434Y104768D01*
X64455Y104875D01*
Y105125D01*
X64434Y105232D01*
X64373Y105323D01*
X64282Y105384D01*
X64175Y105405D01*
X64045D01*
X63985Y105532D01*
X64033Y105595D01*
X64175D01*
X64282Y105616D01*
X64373Y105677D01*
X64434Y105768D01*
X64455Y105875D01*
Y106125D01*
X64434Y106232D01*
X64373Y106323D01*
X64282Y106384D01*
X64175Y106405D01*
D02*
G37*
G36*
X70200Y106400D02*
Y106200D01*
X70440D01*
X70434Y106232D01*
X70373Y106323D01*
X70282Y106384D01*
X70200Y106400D01*
D02*
G37*
G36*
X62800Y106400D02*
X62718Y106384D01*
X62627Y106323D01*
X62566Y106232D01*
X62560Y106200D01*
X62800D01*
Y106400D01*
D02*
G37*
G36*
X90648Y108038D02*
X89728Y107119D01*
X90648Y106200D01*
X91567Y107119D01*
X90648Y108038D01*
D02*
G37*
G36*
X89445Y106836D02*
X88526Y105917D01*
X89446Y104998D01*
X90365Y105917D01*
X89445Y106836D01*
D02*
G37*
G36*
X91850Y106836D02*
X90930Y105917D01*
X91850Y104998D01*
X92769Y105917D01*
X91850Y106836D01*
D02*
G37*
G36*
X73570Y104850D02*
X73430D01*
X73302Y104797D01*
X73203Y104698D01*
X73150Y104570D01*
Y104430D01*
X73203Y104302D01*
X73302Y104203D01*
X73430Y104150D01*
X73570D01*
X73698Y104203D01*
X73797Y104302D01*
X73850Y104430D01*
Y104570D01*
X73797Y104698D01*
X73698Y104797D01*
X73570Y104850D01*
D02*
G37*
G36*
X69175Y106405D02*
X68825D01*
X68718Y106384D01*
X68627Y106323D01*
X68566Y106232D01*
X68545Y106125D01*
Y105875D01*
X68566Y105768D01*
X68627Y105677D01*
X68718Y105616D01*
X68825Y105595D01*
X68967D01*
X69015Y105532D01*
X68955Y105405D01*
X68825D01*
X68718Y105384D01*
X68627Y105323D01*
X68566Y105232D01*
X68545Y105125D01*
Y104875D01*
X68566Y104768D01*
X68627Y104677D01*
X68718Y104616D01*
X68825Y104595D01*
X68965D01*
X68977Y104577D01*
X69150Y104403D01*
Y104380D01*
X69203Y104252D01*
X69302Y104153D01*
X69430Y104100D01*
X69570D01*
X69698Y104153D01*
X69797Y104252D01*
X69850Y104380D01*
Y104480D01*
X69850Y104520D01*
X69956Y104595D01*
X70175D01*
X70282Y104616D01*
X70373Y104677D01*
X70434Y104768D01*
X70440Y104800D01*
X70000D01*
Y105200D01*
X70440D01*
X70434Y105232D01*
X70373Y105323D01*
X70282Y105384D01*
X70175Y105405D01*
X69867D01*
X69850Y105430D01*
Y105570D01*
X69867Y105595D01*
X70175D01*
X70282Y105616D01*
X70373Y105677D01*
X70434Y105768D01*
X70440Y105800D01*
X70000D01*
Y106000D01*
X69800D01*
Y106400D01*
X69718Y106384D01*
X69627Y106323D01*
X69566Y106232D01*
X69565Y106226D01*
X69435D01*
X69434Y106232D01*
X69373Y106323D01*
X69282Y106384D01*
X69175Y106405D01*
D02*
G37*
G36*
X66125Y104455D02*
X65875D01*
X65768Y104434D01*
X65677Y104373D01*
X65616Y104282D01*
X65595Y104175D01*
Y104033D01*
X65532Y103985D01*
X65405Y104045D01*
Y104175D01*
X65384Y104282D01*
X65323Y104373D01*
X65232Y104434D01*
X65125Y104455D01*
X64875D01*
X64768Y104434D01*
X64677Y104373D01*
X64616Y104282D01*
X64595Y104175D01*
Y103991D01*
X64453Y103850D01*
X64430D01*
X64302Y103797D01*
X64203Y103698D01*
X64150Y103570D01*
Y103430D01*
X64203Y103302D01*
X64302Y103203D01*
X64430Y103150D01*
X64570D01*
X64595Y103133D01*
Y102825D01*
X64616Y102718D01*
X64677Y102627D01*
X64768Y102566D01*
X64800Y102560D01*
Y103000D01*
X65200D01*
Y102560D01*
X65232Y102566D01*
X65323Y102627D01*
X65384Y102718D01*
X65405Y102825D01*
Y103133D01*
X65430Y103150D01*
X65570D01*
X65595Y103133D01*
Y102825D01*
X65616Y102718D01*
X65677Y102627D01*
X65768Y102566D01*
X65800Y102560D01*
Y103000D01*
X66000D01*
Y103200D01*
X66400D01*
X66384Y103282D01*
X66323Y103373D01*
X66232Y103434D01*
X66226Y103435D01*
Y103565D01*
X66232Y103566D01*
X66323Y103627D01*
X66384Y103718D01*
X66405Y103825D01*
Y104175D01*
X66384Y104282D01*
X66323Y104373D01*
X66232Y104434D01*
X66125Y104455D01*
D02*
G37*
G36*
X90648Y105634D02*
X89728Y104715D01*
X90648Y103795D01*
X91567Y104715D01*
X90648Y105634D01*
D02*
G37*
G36*
X57170Y104350D02*
X57030D01*
X56902Y104297D01*
X56803Y104198D01*
X56750Y104070D01*
Y103930D01*
X56803Y103802D01*
X56902Y103703D01*
X57030Y103650D01*
X57170D01*
X57298Y103703D01*
X57397Y103802D01*
X57450Y103930D01*
Y104070D01*
X57397Y104198D01*
X57298Y104297D01*
X57170Y104350D01*
D02*
G37*
G36*
X71175Y103405D02*
X70825D01*
X70718Y103384D01*
X70627Y103323D01*
X70566Y103232D01*
X70565Y103226D01*
X70435D01*
X70434Y103232D01*
X70373Y103323D01*
X70282Y103384D01*
X70200Y103400D01*
Y103000D01*
Y102600D01*
X70282Y102616D01*
X70373Y102677D01*
X70434Y102768D01*
X70435Y102774D01*
X70565D01*
X70566Y102768D01*
X70627Y102677D01*
X70718Y102616D01*
X70825Y102595D01*
X71009D01*
X71150Y102453D01*
Y102430D01*
X71203Y102302D01*
X71302Y102203D01*
X71430Y102150D01*
X71570D01*
X71698Y102203D01*
X71797Y102302D01*
X71850Y102430D01*
Y102570D01*
X71797Y102698D01*
X71698Y102797D01*
X71570Y102850D01*
X71547D01*
X71455Y102941D01*
Y103125D01*
X71434Y103232D01*
X71373Y103323D01*
X71282Y103384D01*
X71175Y103405D01*
D02*
G37*
G36*
X69800Y103400D02*
X69718Y103384D01*
X69627Y103323D01*
X69566Y103232D01*
X69560Y103200D01*
X69800D01*
Y103400D01*
D02*
G37*
G36*
X55270Y105350D02*
X55130D01*
X55002Y105297D01*
X54903Y105198D01*
X54850Y105070D01*
Y104930D01*
X54903Y104802D01*
X54955Y104750D01*
X54903Y104698D01*
X54850Y104570D01*
Y104430D01*
X54903Y104302D01*
X54955Y104250D01*
X54903Y104198D01*
X54850Y104070D01*
Y103930D01*
X54903Y103802D01*
X54955Y103750D01*
X54903Y103698D01*
X54850Y103570D01*
Y103430D01*
X54903Y103302D01*
X55002Y103203D01*
X55130Y103150D01*
X55270D01*
X55398Y103203D01*
X55497Y103302D01*
X55550Y103430D01*
Y103570D01*
X55497Y103698D01*
X55445Y103750D01*
X55497Y103802D01*
X55550Y103930D01*
Y104070D01*
X55497Y104198D01*
X55445Y104250D01*
X55497Y104302D01*
X55550Y104430D01*
Y104570D01*
X55497Y104698D01*
X55445Y104750D01*
X55497Y104802D01*
X55550Y104930D01*
Y105070D01*
X55497Y105198D01*
X55398Y105297D01*
X55270Y105350D01*
D02*
G37*
G36*
X82220Y103825D02*
X82080D01*
X81952Y103772D01*
X81853Y103673D01*
X81800Y103545D01*
Y103405D01*
X81853Y103277D01*
X81952Y103178D01*
X82080Y103125D01*
X82220D01*
X82348Y103178D01*
X82447Y103277D01*
X82500Y103405D01*
Y103545D01*
X82447Y103673D01*
X82348Y103772D01*
X82220Y103825D01*
D02*
G37*
G36*
X69800Y102800D02*
X69560D01*
X69566Y102768D01*
X69627Y102677D01*
X69718Y102616D01*
X69800Y102600D01*
Y102800D01*
D02*
G37*
G36*
X67125Y104455D02*
X66875D01*
X66768Y104434D01*
X66677Y104373D01*
X66616Y104282D01*
X66595Y104175D01*
Y103825D01*
X66616Y103718D01*
X66677Y103627D01*
X66768Y103566D01*
X66774Y103565D01*
Y103435D01*
X66768Y103434D01*
X66677Y103373D01*
X66616Y103282D01*
X66600Y103200D01*
X67000D01*
Y103000D01*
X67200D01*
Y102560D01*
X67232Y102566D01*
X67323Y102627D01*
X67384Y102718D01*
X67405Y102825D01*
Y103133D01*
X67430Y103150D01*
X67570D01*
X67698Y103203D01*
X67797Y103302D01*
X67850Y103430D01*
Y103570D01*
X67797Y103698D01*
X67698Y103797D01*
X67570Y103850D01*
X67547D01*
X67405Y103991D01*
Y104175D01*
X67384Y104282D01*
X67323Y104373D01*
X67232Y104434D01*
X67125Y104455D01*
D02*
G37*
G36*
X66800Y102800D02*
X66600D01*
X66616Y102718D01*
X66677Y102627D01*
X66768Y102566D01*
X66800Y102560D01*
Y102800D01*
D02*
G37*
G36*
X66400D02*
X66200D01*
Y102560D01*
X66232Y102566D01*
X66323Y102627D01*
X66384Y102718D01*
X66400Y102800D01*
D02*
G37*
G36*
X66200Y102400D02*
Y102200D01*
X66440D01*
X66434Y102232D01*
X66373Y102323D01*
X66282Y102384D01*
X66200Y102400D01*
D02*
G37*
G36*
X65175Y102405D02*
X64825D01*
X64718Y102384D01*
X64627Y102323D01*
X64566Y102232D01*
X64545Y102125D01*
Y101941D01*
X64453Y101850D01*
X64430D01*
X64302Y101797D01*
X64203Y101698D01*
X64150Y101570D01*
Y101430D01*
X64203Y101302D01*
X64302Y101203D01*
X64430Y101150D01*
X64570D01*
X64698Y101203D01*
X64797Y101302D01*
X64850Y101430D01*
Y101453D01*
X64991Y101595D01*
X65175D01*
X65282Y101616D01*
X65373Y101677D01*
X65434Y101768D01*
X65435Y101774D01*
X65565D01*
X65566Y101768D01*
X65627Y101677D01*
X65718Y101616D01*
X65800Y101600D01*
Y102000D01*
Y102400D01*
X65718Y102384D01*
X65627Y102323D01*
X65566Y102232D01*
X65565Y102226D01*
X65435D01*
X65434Y102232D01*
X65373Y102323D01*
X65282Y102384D01*
X65175Y102405D01*
D02*
G37*
G36*
X66440Y101800D02*
X66200D01*
Y101600D01*
X66282Y101616D01*
X66373Y101677D01*
X66434Y101768D01*
X66440Y101800D01*
D02*
G37*
G36*
X81840Y103050D02*
X81660D01*
X81495Y102981D01*
X81369Y102855D01*
X81300Y102690D01*
Y102510D01*
X81369Y102345D01*
X81414Y102300D01*
X81369Y102255D01*
X81300Y102090D01*
Y101910D01*
X81369Y101745D01*
X81495Y101619D01*
X81660Y101550D01*
X81840D01*
X82005Y101619D01*
X82131Y101745D01*
X82200Y101910D01*
Y102090D01*
X82131Y102255D01*
X82086Y102300D01*
X82131Y102345D01*
X82200Y102510D01*
Y102690D01*
X82131Y102855D01*
X82005Y102981D01*
X81840Y103050D01*
D02*
G37*
G36*
X91020Y101877D02*
X90841D01*
X90676Y101808D01*
X90549Y101682D01*
X90480Y101516D01*
Y101452D01*
X90417D01*
X90251Y101384D01*
X90125Y101257D01*
X90056Y101092D01*
Y100913D01*
X90125Y100747D01*
X90251Y100621D01*
X90417Y100552D01*
X90596D01*
X90761Y100621D01*
X90888Y100747D01*
X90956Y100913D01*
Y100977D01*
X91020D01*
X91185Y101045D01*
X91312Y101172D01*
X91380Y101337D01*
Y101516D01*
X91312Y101682D01*
X91185Y101808D01*
X91020Y101877D01*
D02*
G37*
G36*
X73570Y98850D02*
X73430D01*
X73302Y98797D01*
X73203Y98698D01*
X73150Y98570D01*
Y98430D01*
X73203Y98302D01*
X73302Y98203D01*
X73430Y98150D01*
X73570D01*
X73698Y98203D01*
X73797Y98302D01*
X73850Y98430D01*
Y98570D01*
X73797Y98698D01*
X73698Y98797D01*
X73570Y98850D01*
D02*
G37*
G36*
X72570D02*
X72430D01*
X72302Y98797D01*
X72203Y98698D01*
X72150Y98570D01*
Y98430D01*
X72203Y98302D01*
X72302Y98203D01*
X72430Y98150D01*
X72570D01*
X72698Y98203D01*
X72797Y98302D01*
X72850Y98430D01*
Y98570D01*
X72797Y98698D01*
X72698Y98797D01*
X72570Y98850D01*
D02*
G37*
G36*
X65570D02*
X65430D01*
X65302Y98797D01*
X65203Y98698D01*
X65150Y98570D01*
Y98430D01*
X65203Y98302D01*
X65302Y98203D01*
X65430Y98150D01*
X65570D01*
X65698Y98203D01*
X65797Y98302D01*
X65850Y98430D01*
Y98570D01*
X65797Y98698D01*
X65698Y98797D01*
X65570Y98850D01*
D02*
G37*
G36*
X64570D02*
X64430D01*
X64302Y98797D01*
X64203Y98698D01*
X64150Y98570D01*
Y98430D01*
X64203Y98302D01*
X64302Y98203D01*
X64430Y98150D01*
X64570D01*
X64698Y98203D01*
X64797Y98302D01*
X64850Y98430D01*
Y98570D01*
X64797Y98698D01*
X64698Y98797D01*
X64570Y98850D01*
D02*
G37*
G36*
X82220Y99125D02*
X82080D01*
X81952Y99072D01*
X81853Y98973D01*
X81800Y98845D01*
Y98705D01*
X81853Y98577D01*
X81897Y98533D01*
X81938Y98450D01*
X81897Y98367D01*
X81853Y98323D01*
X81800Y98195D01*
Y98055D01*
X81853Y97927D01*
X81952Y97828D01*
X82080Y97775D01*
X82220D01*
X82348Y97828D01*
X82447Y97927D01*
X82500Y98055D01*
Y98195D01*
X82447Y98323D01*
X82403Y98367D01*
X82362Y98450D01*
X82403Y98533D01*
X82447Y98577D01*
X82500Y98705D01*
Y98845D01*
X82447Y98973D01*
X82348Y99072D01*
X82220Y99125D01*
D02*
G37*
G36*
X62190Y93300D02*
X62010D01*
X61845Y93231D01*
X61775Y93161D01*
X61705Y93231D01*
X61540Y93300D01*
X61360D01*
X61195Y93231D01*
X61125Y93161D01*
X61055Y93231D01*
X60890Y93300D01*
X60710D01*
X60545Y93231D01*
X60419Y93105D01*
X60350Y92940D01*
Y92760D01*
X60419Y92595D01*
X60545Y92469D01*
X60710Y92400D01*
X60890D01*
X61055Y92469D01*
X61125Y92539D01*
X61195Y92469D01*
X61360Y92400D01*
X61540D01*
X61705Y92469D01*
X61775Y92539D01*
X61845Y92469D01*
X62010Y92400D01*
X62190D01*
X62355Y92469D01*
X62481Y92595D01*
X62550Y92760D01*
Y92940D01*
X62481Y93105D01*
X62355Y93231D01*
X62190Y93300D01*
D02*
G37*
G36*
X94190Y92150D02*
X94010D01*
X93845Y92081D01*
X93719Y91955D01*
X93650Y91790D01*
Y91610D01*
X93719Y91445D01*
X93764Y91400D01*
X93719Y91355D01*
X93650Y91190D01*
Y91010D01*
X93719Y90845D01*
X93845Y90719D01*
X94010Y90650D01*
X94190D01*
X94355Y90719D01*
X94481Y90845D01*
X94550Y91010D01*
Y91190D01*
X94481Y91355D01*
X94436Y91400D01*
X94481Y91445D01*
X94550Y91610D01*
Y91790D01*
X94481Y91955D01*
X94355Y92081D01*
X94190Y92150D01*
D02*
G37*
G36*
X80040Y90050D02*
X79860D01*
X79695Y89981D01*
X79650Y89936D01*
X79605Y89981D01*
X79440Y90050D01*
X79260D01*
X79095Y89981D01*
X79050Y89936D01*
X79005Y89981D01*
X78840Y90050D01*
X78660D01*
X78495Y89981D01*
X78369Y89855D01*
X78300Y89690D01*
Y89510D01*
X78369Y89345D01*
X78495Y89219D01*
X78660Y89150D01*
X78840D01*
X79005Y89219D01*
X79050Y89264D01*
X79095Y89219D01*
X79260Y89150D01*
X79440D01*
X79605Y89219D01*
X79650Y89264D01*
X79695Y89219D01*
X79860Y89150D01*
X80040D01*
X80205Y89219D01*
X80331Y89345D01*
X80400Y89510D01*
Y89690D01*
X80331Y89855D01*
X80205Y89981D01*
X80040Y90050D01*
D02*
G37*
G36*
X68495Y89500D02*
X68355D01*
X68227Y89447D01*
X68128Y89348D01*
X68075Y89220D01*
Y89080D01*
X68128Y88952D01*
X68227Y88853D01*
X68355Y88800D01*
X68495D01*
X68623Y88853D01*
X68722Y88952D01*
X68775Y89080D01*
Y89220D01*
X68722Y89348D01*
X68623Y89447D01*
X68495Y89500D01*
D02*
G37*
G36*
X96405Y86350D02*
X95830D01*
Y85775D01*
X96405D01*
Y86350D01*
D02*
G37*
G36*
X95430D02*
X94855D01*
Y85775D01*
X95430D01*
Y86350D01*
D02*
G37*
G36*
X104615Y87138D02*
X104435D01*
X104270Y87070D01*
X104144Y86943D01*
X104075Y86778D01*
Y86599D01*
X104144Y86433D01*
X104189Y86388D01*
X104144Y86343D01*
X104075Y86178D01*
Y85999D01*
X104144Y85833D01*
X104270Y85707D01*
X104435Y85638D01*
X104615D01*
X104780Y85707D01*
X104906Y85833D01*
X104975Y85999D01*
Y86178D01*
X104906Y86343D01*
X104861Y86388D01*
X104906Y86433D01*
X104975Y86599D01*
Y86778D01*
X104906Y86943D01*
X104780Y87070D01*
X104615Y87138D01*
D02*
G37*
G36*
X96405Y85375D02*
X95830D01*
Y84800D01*
X96405D01*
Y85375D01*
D02*
G37*
G36*
X95430D02*
X94855D01*
Y84800D01*
X95430D01*
Y85375D01*
D02*
G37*
G36*
X73745Y84725D02*
X73605D01*
X73477Y84672D01*
X73378Y84573D01*
X73325Y84445D01*
Y84305D01*
X73378Y84177D01*
X73477Y84078D01*
X73605Y84025D01*
X73745D01*
X73873Y84078D01*
X73972Y84177D01*
X74025Y84305D01*
Y84445D01*
X73972Y84573D01*
X73873Y84672D01*
X73745Y84725D01*
D02*
G37*
G36*
X66245Y84175D02*
X66105D01*
X65977Y84122D01*
X65878Y84023D01*
X65825Y83895D01*
Y83755D01*
X65878Y83627D01*
X65977Y83528D01*
X66105Y83475D01*
X66245D01*
X66373Y83528D01*
X66472Y83627D01*
X66525Y83755D01*
Y83895D01*
X66472Y84023D01*
X66373Y84122D01*
X66245Y84175D01*
D02*
G37*
G36*
X101690Y80600D02*
X101510D01*
X101345Y80531D01*
X101219Y80405D01*
X101150Y80240D01*
Y80060D01*
X101219Y79895D01*
X101345Y79769D01*
X101510Y79700D01*
X101690D01*
X101855Y79769D01*
X101981Y79895D01*
X102050Y80060D01*
Y80240D01*
X101981Y80405D01*
X101855Y80531D01*
X101690Y80600D01*
D02*
G37*
G36*
X104620Y80050D02*
X104480D01*
X104352Y79997D01*
X104253Y79898D01*
X104200Y79770D01*
Y79630D01*
X104253Y79502D01*
X104352Y79403D01*
X104480Y79350D01*
X104620D01*
X104748Y79403D01*
X104847Y79502D01*
X104900Y79630D01*
Y79770D01*
X104847Y79898D01*
X104748Y79997D01*
X104620Y80050D01*
D02*
G37*
G36*
X91187Y80400D02*
X91008D01*
X90843Y80331D01*
X90716Y80205D01*
X90648Y80039D01*
Y79860D01*
X90716Y79695D01*
X90843Y79568D01*
X91008Y79500D01*
X91072D01*
Y79436D01*
X91140Y79270D01*
X91267Y79144D01*
X91432Y79075D01*
X91611D01*
X91777Y79144D01*
X91903Y79270D01*
X91972Y79436D01*
Y79615D01*
X91903Y79780D01*
X91777Y79907D01*
X91611Y79975D01*
X91548D01*
Y80039D01*
X91479Y80205D01*
X91353Y80331D01*
X91187Y80400D01*
D02*
G37*
G36*
X93178Y79951D02*
X93038D01*
X92910Y79898D01*
X92811Y79799D01*
X92758Y79671D01*
Y79598D01*
X92685D01*
X92556Y79544D01*
X92458Y79446D01*
X92404Y79317D01*
Y79178D01*
X92458Y79049D01*
X92556Y78951D01*
X92685Y78898D01*
X92824D01*
X92953Y78951D01*
X93051Y79049D01*
X93104Y79178D01*
Y79251D01*
X93178D01*
X93306Y79304D01*
X93405Y79403D01*
X93458Y79531D01*
Y79671D01*
X93405Y79799D01*
X93306Y79898D01*
X93178Y79951D01*
D02*
G37*
G36*
X94191Y78836D02*
X93820Y78465D01*
X94191Y78093D01*
X94563Y78465D01*
X94191Y78836D01*
D02*
G37*
G36*
X94845Y78182D02*
X94474Y77811D01*
X94845Y77439D01*
X95217Y77811D01*
X94845Y78182D01*
D02*
G37*
G36*
X93537Y78182D02*
X93166Y77811D01*
X93537Y77439D01*
X93908Y77811D01*
X93537Y78182D01*
D02*
G37*
G36*
X94191Y77528D02*
X93820Y77157D01*
X94191Y76785D01*
X94563Y77157D01*
X94191Y77528D01*
D02*
G37*
G36*
X71990Y76050D02*
X71810D01*
X71645Y75981D01*
X71600Y75936D01*
X71555Y75981D01*
X71390Y76050D01*
X71210D01*
X71045Y75981D01*
X70919Y75855D01*
X70850Y75690D01*
Y75510D01*
X70919Y75345D01*
X71045Y75219D01*
X71210Y75150D01*
X71390D01*
X71555Y75219D01*
X71600Y75264D01*
X71645Y75219D01*
X71810Y75150D01*
X71990D01*
X72155Y75219D01*
X72281Y75345D01*
X72350Y75510D01*
Y75690D01*
X72281Y75855D01*
X72155Y75981D01*
X71990Y76050D01*
D02*
G37*
G36*
X59890Y75650D02*
X59710D01*
X59545Y75581D01*
X59513Y75549D01*
X59480Y75581D01*
X59315Y75650D01*
X59135D01*
X58970Y75581D01*
X58844Y75455D01*
X58775Y75290D01*
Y75110D01*
X58844Y74945D01*
X58970Y74819D01*
X59135Y74750D01*
X59315D01*
X59480Y74819D01*
X59513Y74851D01*
X59545Y74819D01*
X59710Y74750D01*
X59890D01*
X60055Y74819D01*
X60181Y74945D01*
X60250Y75110D01*
Y75290D01*
X60181Y75455D01*
X60055Y75581D01*
X59890Y75650D01*
D02*
G37*
G36*
X54490D02*
X54310D01*
X54145Y75581D01*
X54100Y75536D01*
X54055Y75581D01*
X53890Y75650D01*
X53710D01*
X53545Y75581D01*
X53419Y75455D01*
X53350Y75290D01*
Y75110D01*
X53419Y74945D01*
X53545Y74819D01*
X53710Y74750D01*
X53890D01*
X54055Y74819D01*
X54100Y74864D01*
X54145Y74819D01*
X54310Y74750D01*
X54490D01*
X54655Y74819D01*
X54781Y74945D01*
X54850Y75110D01*
Y75290D01*
X54781Y75455D01*
X54655Y75581D01*
X54490Y75650D01*
D02*
G37*
G36*
X69840Y75900D02*
X69660D01*
X69495Y75831D01*
X69369Y75705D01*
X69300Y75540D01*
Y75360D01*
X69369Y75195D01*
X69495Y75069D01*
X69660Y75000D01*
X69840D01*
X70005Y75069D01*
X70131Y75195D01*
X70200Y75360D01*
Y75540D01*
X70131Y75705D01*
X70005Y75831D01*
X69840Y75900D01*
D02*
G37*
G36*
X66040D02*
X65860D01*
X65695Y75831D01*
X65569Y75705D01*
X65500Y75540D01*
Y75360D01*
X65569Y75195D01*
X65695Y75069D01*
X65860Y75000D01*
X66040D01*
X66205Y75069D01*
X66331Y75195D01*
X66400Y75360D01*
Y75540D01*
X66331Y75705D01*
X66205Y75831D01*
X66040Y75900D01*
D02*
G37*
G36*
X68890Y71950D02*
X68710D01*
X68545Y71881D01*
X68419Y71755D01*
X68350Y71590D01*
Y71410D01*
X68419Y71245D01*
X68545Y71119D01*
X68710Y71050D01*
X68890D01*
X69055Y71119D01*
X69181Y71245D01*
X69250Y71410D01*
Y71590D01*
X69181Y71755D01*
X69055Y71881D01*
X68890Y71950D01*
D02*
G37*
G36*
X65090D02*
X64910D01*
X64745Y71881D01*
X64619Y71755D01*
X64550Y71590D01*
Y71410D01*
X64619Y71245D01*
X64745Y71119D01*
X64910Y71050D01*
X65090D01*
X65255Y71119D01*
X65381Y71245D01*
X65450Y71410D01*
Y71590D01*
X65381Y71755D01*
X65255Y71881D01*
X65090Y71950D01*
D02*
G37*
G36*
X57615Y65550D02*
X57435D01*
X57270Y65481D01*
X57144Y65355D01*
X57075Y65190D01*
Y65010D01*
X57144Y64845D01*
X57189Y64800D01*
X57144Y64755D01*
X57075Y64590D01*
Y64410D01*
X57144Y64245D01*
X57270Y64119D01*
X57435Y64050D01*
X57615D01*
X57780Y64119D01*
X57906Y64245D01*
X57975Y64410D01*
Y64590D01*
X57906Y64755D01*
X57861Y64800D01*
X57906Y64845D01*
X57975Y65010D01*
Y65190D01*
X57906Y65355D01*
X57780Y65481D01*
X57615Y65550D01*
D02*
G37*
G36*
X56270Y63800D02*
X56130D01*
X56002Y63747D01*
X55903Y63648D01*
X55850Y63520D01*
Y63380D01*
X55903Y63252D01*
X56002Y63153D01*
X56130Y63100D01*
X56270D01*
X56398Y63153D01*
X56497Y63252D01*
X56550Y63380D01*
Y63520D01*
X56497Y63648D01*
X56398Y63747D01*
X56270Y63800D01*
D02*
G37*
G36*
X97700Y62690D02*
Y62450D01*
X97900D01*
X97884Y62532D01*
X97823Y62623D01*
X97732Y62684D01*
X97700Y62690D01*
D02*
G37*
G36*
X95700Y62690D02*
Y62450D01*
X95900D01*
X95884Y62532D01*
X95823Y62623D01*
X95732Y62684D01*
X95700Y62690D01*
D02*
G37*
G36*
X95300D02*
X95268Y62684D01*
X95177Y62623D01*
X95116Y62532D01*
X95100Y62450D01*
X95300D01*
Y62690D01*
D02*
G37*
G36*
X97300D02*
X97268Y62684D01*
X97177Y62623D01*
X97116Y62532D01*
X97100Y62450D01*
X97300D01*
Y62690D01*
D02*
G37*
G36*
X68790Y60150D02*
X68610D01*
X68445Y60081D01*
X68319Y59955D01*
X68250Y59790D01*
Y59610D01*
X68319Y59445D01*
X68445Y59319D01*
X68610Y59250D01*
X68790D01*
X68955Y59319D01*
X69081Y59445D01*
X69150Y59610D01*
Y59790D01*
X69081Y59955D01*
X68955Y60081D01*
X68790Y60150D01*
D02*
G37*
G36*
X65190D02*
X65010D01*
X64845Y60081D01*
X64719Y59955D01*
X64650Y59790D01*
Y59610D01*
X64719Y59445D01*
X64845Y59319D01*
X65010Y59250D01*
X65190D01*
X65355Y59319D01*
X65481Y59445D01*
X65550Y59610D01*
Y59790D01*
X65481Y59955D01*
X65355Y60081D01*
X65190Y60150D01*
D02*
G37*
G36*
X93698Y59244D02*
Y58747D01*
X94195D01*
X94174Y58827D01*
X94078Y58992D01*
X93943Y59127D01*
X93778Y59223D01*
X93698Y59244D01*
D02*
G37*
G36*
X93298D02*
X93218Y59223D01*
X93053Y59127D01*
X92918Y58992D01*
X92822Y58827D01*
X92801Y58747D01*
X93298D01*
Y59244D01*
D02*
G37*
G36*
X91698D02*
Y58747D01*
X92195D01*
X92174Y58827D01*
X92078Y58992D01*
X91943Y59127D01*
X91778Y59223D01*
X91698Y59244D01*
D02*
G37*
G36*
X91298D02*
X91218Y59223D01*
X91053Y59127D01*
X90918Y58992D01*
X90822Y58827D01*
X90801Y58747D01*
X91298D01*
Y59244D01*
D02*
G37*
G36*
X94195Y58347D02*
X93698D01*
Y57850D01*
X93778Y57871D01*
X93943Y57967D01*
X94078Y58102D01*
X94174Y58267D01*
X94195Y58347D01*
D02*
G37*
G36*
X93298D02*
X92801D01*
X92822Y58267D01*
X92918Y58102D01*
X93053Y57967D01*
X93218Y57871D01*
X93298Y57850D01*
Y58347D01*
D02*
G37*
G36*
X92195D02*
X91698D01*
Y57850D01*
X91778Y57871D01*
X91943Y57967D01*
X92078Y58102D01*
X92174Y58267D01*
X92195Y58347D01*
D02*
G37*
G36*
X91298D02*
X90801D01*
X90822Y58267D01*
X90918Y58102D01*
X91053Y57967D01*
X91218Y57871D01*
X91298Y57850D01*
Y58347D01*
D02*
G37*
G36*
X97900Y62050D02*
X97500D01*
X97100D01*
X97116Y61968D01*
X97177Y61877D01*
X97268Y61816D01*
X97274Y61815D01*
Y61685D01*
X97268Y61684D01*
X97177Y61623D01*
X97116Y61532D01*
X97095Y61425D01*
Y61272D01*
X97092Y61259D01*
Y61208D01*
X97090Y61198D01*
X97090Y61198D01*
Y59272D01*
X96773D01*
Y57822D01*
X98223D01*
Y59272D01*
X97906D01*
Y61190D01*
X97908Y61200D01*
X97908Y61200D01*
Y61259D01*
X97905Y61272D01*
Y61425D01*
X97884Y61532D01*
X97823Y61623D01*
X97732Y61684D01*
X97726Y61685D01*
Y61815D01*
X97732Y61816D01*
X97823Y61877D01*
X97884Y61968D01*
X97900Y62050D01*
D02*
G37*
G36*
X95900D02*
X95500D01*
X95100D01*
X95116Y61968D01*
X95177Y61877D01*
X95268Y61816D01*
X95274Y61815D01*
Y61685D01*
X95268Y61684D01*
X95177Y61623D01*
X95116Y61532D01*
X95095Y61425D01*
Y61262D01*
X95092Y61250D01*
Y59150D01*
X95053Y59127D01*
X94918Y58992D01*
X94822Y58827D01*
X94773Y58642D01*
Y58452D01*
X94822Y58267D01*
X94918Y58102D01*
X95053Y57967D01*
X95218Y57871D01*
X95403Y57822D01*
X95593D01*
X95778Y57871D01*
X95943Y57967D01*
X96078Y58102D01*
X96174Y58267D01*
X96223Y58452D01*
Y58642D01*
X96174Y58827D01*
X96078Y58992D01*
X95943Y59127D01*
X95908Y59148D01*
Y61250D01*
X95905Y61262D01*
Y61425D01*
X95884Y61532D01*
X95823Y61623D01*
X95732Y61684D01*
X95726Y61685D01*
Y61815D01*
X95732Y61816D01*
X95823Y61877D01*
X95884Y61968D01*
X95900Y62050D01*
D02*
G37*
G36*
X68790Y58550D02*
X68610D01*
X68445Y58481D01*
X68319Y58355D01*
X68250Y58190D01*
Y58010D01*
X68319Y57845D01*
X68445Y57719D01*
X68610Y57650D01*
X68790D01*
X68955Y57719D01*
X69081Y57845D01*
X69150Y58010D01*
Y58190D01*
X69081Y58355D01*
X68955Y58481D01*
X68790Y58550D01*
D02*
G37*
G36*
X65190D02*
X65010D01*
X64845Y58481D01*
X64719Y58355D01*
X64650Y58190D01*
Y58010D01*
X64719Y57845D01*
X64845Y57719D01*
X65010Y57650D01*
X65190D01*
X65355Y57719D01*
X65481Y57845D01*
X65550Y58010D01*
Y58190D01*
X65481Y58355D01*
X65355Y58481D01*
X65190Y58550D01*
D02*
G37*
%LPD*%
G36*
X73225Y135775D02*
X70575D01*
Y139069D01*
X70931Y139425D01*
X73225D01*
Y135775D01*
D02*
G37*
D11*
X60825Y112125D02*
Y112175D01*
X60500Y112500D02*
Y112500D01*
X60950Y112000D02*
X61000D01*
X60825Y112125D02*
X60950Y112000D01*
X60500Y112500D02*
X60825Y112175D01*
X69175Y111175D02*
X69500Y111500D01*
X69000Y111000D02*
X69050D01*
X69175Y111125D01*
Y111175D01*
X71050Y110000D02*
X71175Y110125D01*
X71000Y110000D02*
X71050D01*
X71175Y110175D02*
X71500Y110500D01*
X71175Y110125D02*
Y110175D01*
X64500Y101500D02*
X64825Y101825D01*
Y101875D02*
X64950Y102000D01*
X64825Y101825D02*
Y101875D01*
X64950Y102000D02*
X65000D01*
X65825Y103825D02*
X65875D01*
X66000Y103950D01*
X65500Y103500D02*
X65825Y103825D01*
X66000Y103950D02*
Y104000D01*
X64500Y103500D02*
X64500D01*
X65000Y103950D02*
Y104000D01*
X64825Y103825D02*
X64875D01*
X65000Y103950D01*
X64500Y103500D02*
X64825Y103825D01*
X69175Y104775D02*
Y104875D01*
Y104775D02*
X69500Y104450D01*
X69050Y105000D02*
X69175Y104875D01*
X69000Y105000D02*
X69050D01*
X69000Y106000D02*
X69050D01*
X69175Y105875D01*
Y105825D02*
X69500Y105500D01*
X69175Y105825D02*
Y105875D01*
Y107125D02*
Y107175D01*
X69000Y107000D02*
X69050D01*
X69175Y107125D01*
Y107175D02*
X69500Y107500D01*
X69050Y108000D02*
X69175Y108125D01*
Y108175D01*
X69500Y108500D01*
X69000Y108000D02*
X69050D01*
X68225Y109175D02*
X68550Y109500D01*
X68125Y109175D02*
X68225D01*
X68000Y109050D02*
X68125Y109175D01*
X68000Y109000D02*
Y109050D01*
X67125Y109175D02*
X67175D01*
X67500Y109500D01*
X67500D01*
X67000Y109000D02*
Y109050D01*
X67125Y109175D01*
X65500Y109500D02*
X65825Y109175D01*
X65875D02*
X66000Y109050D01*
X65825Y109175D02*
X65875D01*
X66000Y109000D02*
Y109050D01*
X64875Y109175D02*
X65000Y109050D01*
X64500Y109500D02*
X64825Y109175D01*
X65000Y109000D02*
Y109050D01*
X64825Y109175D02*
X64875D01*
X63825Y108125D02*
Y108175D01*
Y108125D02*
X63950Y108000D01*
X64000D01*
X63500Y108500D02*
X63825Y108175D01*
Y107125D02*
X63950Y107000D01*
X63825Y107125D02*
Y107175D01*
X63500Y107500D02*
X63825Y107175D01*
X63950Y107000D02*
X64000D01*
X63825Y105875D02*
X63950Y106000D01*
X64000D01*
X63825Y105825D02*
Y105875D01*
X63500Y105500D02*
X63825Y105825D01*
Y104825D02*
Y104875D01*
X63950Y105000D02*
X64000D01*
X63825Y104875D02*
X63950Y105000D01*
X63500Y104500D02*
X63825Y104825D01*
X71050Y103000D02*
X71175Y102875D01*
Y102825D02*
Y102875D01*
X71000Y103000D02*
X71050D01*
X71175Y102825D02*
X71500Y102500D01*
X67175Y103825D02*
X67500Y103500D01*
X67000Y103950D02*
Y104000D01*
Y103950D02*
X67125Y103825D01*
X67175D01*
X85104Y164364D02*
X85335Y164594D01*
X85104Y163373D02*
X85335Y163604D01*
X85116Y164814D02*
X85335Y164594D01*
X85116Y163823D02*
X85335Y163604D01*
X83857Y164814D02*
X85116D01*
X83482Y164364D02*
X85104D01*
X83857Y163823D02*
X85116D01*
X83482Y163373D02*
X85104D01*
D17*
X83900Y145600D02*
X83908Y145592D01*
X83900Y142600D02*
X83908Y142592D01*
X85330Y145592D02*
X85338Y145584D01*
X85330Y142592D02*
X85338Y142584D01*
D23*
X84400Y128467D02*
D03*
Y129483D02*
D03*
Y126383D02*
D03*
Y125367D02*
D03*
X93400Y129483D02*
D03*
Y128467D02*
D03*
Y126383D02*
D03*
Y125367D02*
D03*
X80900Y118183D02*
D03*
Y117167D02*
D03*
X96900Y118183D02*
D03*
Y117167D02*
D03*
D26*
X89825Y122125D02*
D03*
X71150Y141700D02*
D03*
X72150D02*
D03*
X71150Y142607D02*
D03*
X72150D02*
D03*
X70150Y140000D02*
D03*
X71150D02*
D03*
X73200D02*
D03*
X74200D02*
D03*
X73650Y135200D02*
D03*
X72650D02*
D03*
X90825Y122125D02*
D03*
X88975D02*
D03*
X87975D02*
D03*
X69000Y111000D02*
D03*
X68000D02*
D03*
X71000Y110000D02*
D03*
X70000D02*
D03*
Y108000D02*
D03*
X69000D02*
D03*
X70000Y107000D02*
D03*
X69000D02*
D03*
X70000Y106000D02*
D03*
X69000D02*
D03*
X70000Y105000D02*
D03*
X69000D02*
D03*
X71000Y103000D02*
D03*
X70000D02*
D03*
X65000Y102000D02*
D03*
X66000D02*
D03*
X63000Y105000D02*
D03*
X64000D02*
D03*
X63000Y106000D02*
D03*
X64000D02*
D03*
X63000Y108000D02*
D03*
X64000D02*
D03*
X63000Y107000D02*
D03*
X64000D02*
D03*
X61000Y112000D02*
D03*
X62000D02*
D03*
D36*
X97500Y62250D02*
D03*
Y61250D02*
D03*
X95500Y62250D02*
D03*
Y61250D02*
D03*
X70000Y136850D02*
D03*
Y135850D02*
D03*
X68000Y110000D02*
D03*
Y109000D02*
D03*
X67000Y110000D02*
D03*
Y109000D02*
D03*
X65000Y110000D02*
D03*
Y109000D02*
D03*
X66000Y110000D02*
D03*
Y109000D02*
D03*
X65000Y103000D02*
D03*
Y104000D02*
D03*
X67000Y103000D02*
D03*
Y104000D02*
D03*
X66000Y103000D02*
D03*
Y104000D02*
D03*
D37*
X73150Y141700D02*
D03*
Y143224D02*
D03*
D41*
X92808Y124275D02*
D03*
X91792D02*
D03*
X95008D02*
D03*
X93992D02*
D03*
X86008Y124275D02*
D03*
X84992D02*
D03*
X83808D02*
D03*
X82792D02*
D03*
X86008Y130575D02*
D03*
X84992D02*
D03*
X83808D02*
D03*
X82792D02*
D03*
X93992Y130575D02*
D03*
X95008D02*
D03*
X91792D02*
D03*
X92808D02*
D03*
D44*
X75450Y137600D02*
D03*
X76850D02*
D03*
D76*
X89270Y123443D02*
G03*
X85393Y127320I-3877J0D01*
G01*
X89530Y123443D02*
G03*
X85393Y127580I-4137J0D01*
G01*
X71770Y128850D02*
G03*
X73300Y127320I1530J0D01*
G01*
X71770Y129030D02*
G03*
X71350Y129450I-420J0D01*
G01*
X89201Y122671D02*
G03*
X89270Y122837I-166J166D01*
G01*
X89201Y122671D02*
G03*
X88975Y122125I546J-546D01*
G01*
X72030Y128850D02*
G03*
X73300Y127580I1270J0D01*
G01*
X72450Y129450D02*
G03*
X72030Y129030I0J-420D01*
G01*
X89825Y122125D02*
G03*
X89599Y122671I-773J0D01*
G01*
X89530Y122837D02*
G03*
X89599Y122671I235J0D01*
G01*
X89530Y122837D02*
Y123443D01*
X73300Y127580D02*
X85393D01*
X73300Y127320D02*
X85393D01*
X89270Y122837D02*
Y123443D01*
X71770Y128850D02*
Y129030D01*
X72030Y128850D02*
Y129030D01*
D77*
X73200Y141000D02*
Y141650D01*
Y140600D02*
Y141000D01*
Y140050D02*
Y140600D01*
X73150Y141700D02*
X73200Y141650D01*
X73150Y140000D02*
X73200Y140050D01*
X83850Y161600D02*
X85322D01*
X85338Y161584D01*
X83850Y162600D02*
X85322D01*
X85338Y162584D01*
X72150Y142607D02*
X72150Y142607D01*
Y143050D01*
X72324Y143224D02*
X73150D01*
X72150Y143050D02*
X72324Y143224D01*
X72150Y141700D02*
Y142607D01*
X72150Y142607D02*
X72150Y142607D01*
Y140600D02*
Y141000D01*
X71150Y140600D02*
Y141000D01*
Y140000D02*
Y140600D01*
X71150Y141000D02*
X71150Y141000D01*
X69000Y135850D02*
X69400D01*
X70000D01*
X72650Y134600D02*
Y135200D01*
Y134200D02*
Y134600D01*
Y134200D02*
X72650Y134200D01*
X75250Y137850D02*
X75450Y137650D01*
Y137600D02*
Y137650D01*
X75250Y137350D02*
X75450Y137550D01*
Y137600D01*
X74850Y137350D02*
X75250D01*
X74850Y137850D02*
X75250D01*
X72150Y141000D02*
Y141650D01*
X72150Y141650D02*
X72150Y141650D01*
D78*
X97500Y61200D02*
Y61259D01*
X97498Y58547D02*
Y61198D01*
X97500Y61200D01*
X95500Y58549D02*
Y61250D01*
X95498Y58547D02*
X95500Y58549D01*
D146*
X89150Y121950D02*
G03*
X88975Y122125I-175J0D01*
G01*
X89825D02*
G03*
X89650Y121950I0J-175D01*
G01*
X90761Y141584D02*
G03*
X90800Y141600I0J55D01*
G01*
X90761Y140584D02*
G03*
X90800Y140600I0J55D01*
G01*
X80942Y118225D02*
G03*
X80900Y118183I0J-42D01*
G01*
X96900D02*
G03*
X96858Y118225I-42J0D01*
G01*
X89150Y121425D02*
Y121950D01*
X89650Y121425D02*
Y121950D01*
X89338Y136584D02*
X90800D01*
X82792Y130575D02*
Y131075D01*
X89338Y135584D02*
X90800D01*
X86008Y130575D02*
Y131075D01*
X82800Y123775D02*
Y124275D01*
X86008Y123775D02*
Y124275D01*
X95008Y130575D02*
Y131075D01*
X89338Y141584D02*
X90761D01*
X91792Y130575D02*
Y131075D01*
X89338Y140584D02*
X90761D01*
X83876Y135584D02*
X85338D01*
X83876Y136584D02*
X85338D01*
X89338Y163584D02*
X90800D01*
X83939Y159591D02*
X85362D01*
X83939Y160591D02*
X85362D01*
X83876Y158584D02*
X85338D01*
X83876Y157584D02*
X85338D01*
X83876Y156584D02*
X85338D01*
X83876Y155584D02*
X85338D01*
X83876Y151584D02*
X85338D01*
X83876Y150584D02*
X85338D01*
X83876Y149584D02*
X85338D01*
X83876Y148584D02*
X85338D01*
X89338Y138584D02*
X90800D01*
X89338Y148584D02*
X90800D01*
X89338Y149584D02*
X90800D01*
X89338Y150584D02*
X90800D01*
X89338Y151584D02*
X90800D01*
X89338Y152584D02*
X90800D01*
X89338Y153584D02*
X90800D01*
X89338Y154584D02*
X90800D01*
X89338Y155584D02*
X90800D01*
X89338Y156584D02*
X90800D01*
X89338Y157584D02*
X90800D01*
X89338Y158584D02*
X90800D01*
X89338Y159584D02*
X90800D01*
X89338Y160584D02*
X90800D01*
X89338Y161584D02*
X90800D01*
X89338Y162584D02*
X90800D01*
Y135584D02*
Y135600D01*
Y136584D02*
Y136600D01*
X83800Y130575D02*
X83850D01*
X84150Y130275D01*
X82792Y131075D02*
X82800D01*
X84400Y130275D02*
X84400Y130275D01*
Y129483D02*
Y130275D01*
X86000Y131075D02*
X86008D01*
X84150Y130275D02*
X84400D01*
X84950Y130575D02*
X85000D01*
X84650Y130275D02*
X84950Y130575D01*
X84400Y130275D02*
X84650D01*
X86000Y123775D02*
X86008D01*
X83800Y124275D02*
X83850D01*
X82792Y124275D02*
X82800D01*
X84400Y124575D02*
Y125367D01*
X84150Y124575D02*
X84400D01*
X83850Y124275D02*
X84150Y124575D01*
X84400D02*
X84650D01*
X84950Y124275D01*
X84400Y124575D02*
X84400Y124575D01*
X84950Y124275D02*
X85000D01*
X80942Y118225D02*
X81400D01*
X93400Y130275D02*
X93650D01*
X93950Y130575D01*
X94000D01*
X93400Y124575D02*
X93400Y124575D01*
X95000Y123775D02*
Y124275D01*
X95008D01*
X93950Y124275D02*
X94000D01*
X93650Y124575D02*
X93950Y124275D01*
X93400Y124575D02*
X93650D01*
X96400Y118225D02*
X96858D01*
X91792Y131075D02*
X91800D01*
X95000D02*
X95008D01*
X91792Y123775D02*
X91800D01*
X93400Y129483D02*
Y130275D01*
X93400Y130275D02*
X93400Y130275D01*
X93150Y130275D02*
X93400D01*
X92850Y130575D02*
X93150Y130275D01*
X92800Y130575D02*
X92850D01*
X91792Y123775D02*
Y124275D01*
X92800Y124275D02*
X92850D01*
X93150Y124575D01*
X93400D01*
X93400Y124575D02*
Y125367D01*
D149*
X76670Y175730D02*
D03*
X99530Y149695D02*
D03*
X53810Y154775D02*
D03*
X109690Y103340D02*
D03*
X109690Y74130D02*
D03*
X81750Y53810D02*
D03*
X53810Y88735D02*
D03*
X86068D02*
D03*
D150*
X55000Y142000D02*
D03*
Y140000D02*
D03*
Y138000D02*
D03*
Y136000D02*
D03*
Y134000D02*
D03*
Y132000D02*
D03*
Y130000D02*
D03*
X53000Y142000D02*
D03*
Y140000D02*
D03*
Y138000D02*
D03*
Y136000D02*
D03*
Y134000D02*
D03*
Y132000D02*
D03*
Y130000D02*
D03*
D151*
X88900Y118425D02*
D03*
D152*
X72350Y169150D02*
D03*
D153*
X91498Y58547D02*
D03*
X93498D02*
D03*
X95498D02*
D03*
D154*
X97498D02*
D03*
D155*
X71900Y137600D02*
D03*
D156*
X95630Y85575D02*
D03*
D157*
X53810Y53810D02*
D03*
X109690D02*
D03*
X99530Y175730D02*
D03*
X53810Y185890D02*
D03*
Y123660D02*
D03*
X109690D02*
D03*
D158*
X87338Y132884D02*
D03*
Y167284D02*
D03*
D159*
X79900Y151300D02*
D03*
X75900Y151300D02*
D03*
X71900D02*
D03*
X67900D02*
D03*
D160*
X90648Y105917D02*
D03*
D161*
X94191Y77811D02*
D03*
D162*
X107500Y73000D02*
D03*
X54000Y86000D02*
D03*
Y91500D02*
D03*
X84000Y53000D02*
D03*
X79000Y175000D02*
D03*
X79500Y53000D02*
D03*
X74000Y55000D02*
D03*
X66000D02*
D03*
X72250Y67000D02*
D03*
X69750Y69750D02*
D03*
X67000D02*
D03*
X72250D02*
D03*
X63750D02*
D03*
X58356Y188580D02*
D03*
X65100Y58100D02*
D03*
X68700D02*
D03*
Y59700D02*
D03*
X65100D02*
D03*
X68800Y71500D02*
D03*
X65000D02*
D03*
X58000Y139000D02*
D03*
Y143000D02*
D03*
X68000Y125000D02*
D03*
X70000Y127000D02*
D03*
X66000D02*
D03*
X60000Y125000D02*
D03*
Y129000D02*
D03*
Y133000D02*
D03*
Y137000D02*
D03*
X90825Y139600D02*
D03*
X91400D02*
D03*
X82650Y119900D02*
D03*
X105000Y82375D02*
D03*
X81750Y106700D02*
D03*
Y107300D02*
D03*
X53500Y119000D02*
D03*
Y115000D02*
D03*
Y111000D02*
D03*
Y107000D02*
D03*
Y103000D02*
D03*
Y99000D02*
D03*
X62000Y75500D02*
D03*
X61000Y73500D02*
D03*
Y69000D02*
D03*
Y65000D02*
D03*
X56500Y146500D02*
D03*
X51000Y183000D02*
D03*
Y179000D02*
D03*
Y175000D02*
D03*
Y171000D02*
D03*
Y167000D02*
D03*
Y163000D02*
D03*
Y159000D02*
D03*
Y147000D02*
D03*
Y155000D02*
D03*
Y151000D02*
D03*
Y119000D02*
D03*
Y115000D02*
D03*
Y111000D02*
D03*
Y107000D02*
D03*
Y103000D02*
D03*
Y99000D02*
D03*
Y95000D02*
D03*
Y91000D02*
D03*
Y87500D02*
D03*
Y83000D02*
D03*
Y79000D02*
D03*
Y75000D02*
D03*
Y71000D02*
D03*
Y67000D02*
D03*
Y63000D02*
D03*
Y59000D02*
D03*
X94000Y178500D02*
D03*
X90000D02*
D03*
X86000D02*
D03*
X60000Y187000D02*
D03*
X62000Y185000D02*
D03*
X64000Y183000D02*
D03*
X68000Y179000D02*
D03*
X66000Y181000D02*
D03*
X70000Y178500D02*
D03*
X82000D02*
D03*
X74000D02*
D03*
X78000D02*
D03*
X93250Y141250D02*
D03*
X94250Y138750D02*
D03*
X92500D02*
D03*
X94250Y136250D02*
D03*
X92500D02*
D03*
X91400Y145600D02*
D03*
X90800D02*
D03*
X83300D02*
D03*
X83900D02*
D03*
X91400Y142600D02*
D03*
X90800D02*
D03*
Y134600D02*
D03*
X83900D02*
D03*
X83300Y142600D02*
D03*
X83900D02*
D03*
X91400Y134600D02*
D03*
X83300D02*
D03*
X98800Y117675D02*
D03*
X93991Y117683D02*
D03*
X78991D02*
D03*
X83800Y117675D02*
D03*
X66500Y146000D02*
D03*
X64000D02*
D03*
X95800Y126600D02*
D03*
X93400Y127425D02*
D03*
X91000Y128250D02*
D03*
X92550Y128975D02*
D03*
X91050Y131350D02*
D03*
X92200Y132500D02*
D03*
X93400Y131300D02*
D03*
X94600Y132500D02*
D03*
X95750Y131350D02*
D03*
X94250Y128950D02*
D03*
X95800Y128250D02*
D03*
X91000Y126600D02*
D03*
X92550Y125875D02*
D03*
X91050Y123500D02*
D03*
X92200Y122350D02*
D03*
X93400Y123550D02*
D03*
X94600Y122350D02*
D03*
X95750Y123500D02*
D03*
X94250Y125875D02*
D03*
X85250D02*
D03*
X86750Y123500D02*
D03*
X85600Y122350D02*
D03*
X84400Y123550D02*
D03*
X83200Y122350D02*
D03*
X82050Y123500D02*
D03*
X83550Y125875D02*
D03*
X82000Y126600D02*
D03*
X86800Y128250D02*
D03*
X85250Y128975D02*
D03*
X86750Y131350D02*
D03*
X85600Y132500D02*
D03*
X92450Y117700D02*
D03*
X93300Y115950D02*
D03*
Y119450D02*
D03*
X95150Y119900D02*
D03*
Y115500D02*
D03*
X97636Y119892D02*
D03*
Y115492D02*
D03*
X80164D02*
D03*
Y119892D02*
D03*
X82650Y115500D02*
D03*
X84500Y119450D02*
D03*
Y115950D02*
D03*
X85350Y117700D02*
D03*
X71300Y75600D02*
D03*
X71900D02*
D03*
X94100Y91700D02*
D03*
Y91100D02*
D03*
X66000Y130000D02*
D03*
X84400Y131300D02*
D03*
X79350Y89600D02*
D03*
X78750D02*
D03*
X79950D02*
D03*
X69750Y75450D02*
D03*
X65950D02*
D03*
X62000Y127000D02*
D03*
Y131000D02*
D03*
Y135000D02*
D03*
Y139000D02*
D03*
X60000Y141000D02*
D03*
X59800Y75200D02*
D03*
X53800D02*
D03*
X54400D02*
D03*
X102000Y163000D02*
D03*
X62100Y92850D02*
D03*
X61450D02*
D03*
X60800D02*
D03*
X81750Y102600D02*
D03*
Y102000D02*
D03*
X52000Y189000D02*
D03*
X78000Y115000D02*
D03*
X112000Y105000D02*
D03*
X58000Y95000D02*
D03*
X108000Y57000D02*
D03*
X52000D02*
D03*
X90000Y119525D02*
D03*
Y118425D02*
D03*
Y117325D02*
D03*
X88900Y119525D02*
D03*
Y118425D02*
D03*
Y117325D02*
D03*
X87800Y119525D02*
D03*
Y118425D02*
D03*
X87800Y117325D02*
D03*
X68850Y170400D02*
D03*
X68250D02*
D03*
Y169800D02*
D03*
X68850D02*
D03*
X72350Y168650D02*
D03*
Y169650D02*
D03*
X77800Y168850D02*
D03*
Y169450D02*
D03*
X77200Y168850D02*
D03*
Y169450D02*
D03*
X76900Y166800D02*
D03*
X75900D02*
D03*
Y154150D02*
D03*
X74900D02*
D03*
X76900D02*
D03*
X74900Y166800D02*
D03*
X53810Y55910D02*
D03*
X52325Y55295D02*
D03*
X51710Y53810D02*
D03*
X52325Y52325D02*
D03*
X53810Y51710D02*
D03*
X55295Y52325D02*
D03*
X55910Y53810D02*
D03*
X55295Y55295D02*
D03*
X109690Y55910D02*
D03*
X108205Y55295D02*
D03*
X107590Y53810D02*
D03*
X108205Y52325D02*
D03*
X109690Y51710D02*
D03*
X111175Y52325D02*
D03*
X111790Y53810D02*
D03*
X111175Y55295D02*
D03*
X109690Y125760D02*
D03*
X108205Y125145D02*
D03*
X107590Y123660D02*
D03*
X108205Y122175D02*
D03*
X109690Y121560D02*
D03*
X111175Y122175D02*
D03*
X111790Y123660D02*
D03*
X111175Y125145D02*
D03*
X99530Y177830D02*
D03*
X98045Y177215D02*
D03*
X97430Y175730D02*
D03*
X98045Y174245D02*
D03*
X99530Y173630D02*
D03*
X101015Y174245D02*
D03*
X101630Y175730D02*
D03*
X101015Y177215D02*
D03*
X53810Y187990D02*
D03*
X52325Y187375D02*
D03*
X51710Y185890D02*
D03*
X52325Y184405D02*
D03*
X53810Y183790D02*
D03*
X55295Y184405D02*
D03*
X55910Y185890D02*
D03*
X55295Y187375D02*
D03*
X53810Y125760D02*
D03*
X52325Y125145D02*
D03*
X51710Y123660D02*
D03*
X52325Y122175D02*
D03*
X53810Y121560D02*
D03*
X55295Y122175D02*
D03*
X55910Y123660D02*
D03*
X55295Y125145D02*
D03*
X108000Y101000D02*
D03*
X76000Y78000D02*
D03*
X52000Y51000D02*
D03*
X102000Y59000D02*
D03*
X98000Y143000D02*
D03*
X56000Y81000D02*
D03*
Y85000D02*
D03*
X54000Y83000D02*
D03*
X52000Y85000D02*
D03*
X66000Y79000D02*
D03*
X62000D02*
D03*
X102000Y51000D02*
D03*
X98000D02*
D03*
X96000Y53000D02*
D03*
X92000D02*
D03*
X94000Y51000D02*
D03*
X88000Y53000D02*
D03*
X90000Y51000D02*
D03*
X86000D02*
D03*
X82000D02*
D03*
X106000D02*
D03*
X100000Y53000D02*
D03*
X102000Y55000D02*
D03*
X98000D02*
D03*
X94000D02*
D03*
X90000D02*
D03*
X86000D02*
D03*
X84000Y57000D02*
D03*
X82000Y59000D02*
D03*
X86000D02*
D03*
X88000Y57000D02*
D03*
X92000Y61000D02*
D03*
X94000Y63000D02*
D03*
X104000Y57000D02*
D03*
X106000Y55000D02*
D03*
X104000Y53000D02*
D03*
X106000Y59000D02*
D03*
X112000Y57000D02*
D03*
X110000Y59000D02*
D03*
X112000Y61000D02*
D03*
X108000D02*
D03*
X110000Y63000D02*
D03*
X112000Y65000D02*
D03*
X106000Y63000D02*
D03*
X104000Y61000D02*
D03*
X108000Y65000D02*
D03*
X100000Y145000D02*
D03*
Y141000D02*
D03*
X102000Y147000D02*
D03*
Y143000D02*
D03*
Y139000D02*
D03*
X104000Y137000D02*
D03*
X106000Y135000D02*
D03*
X108000Y133000D02*
D03*
X110000Y131000D02*
D03*
Y127000D02*
D03*
X108000Y129000D02*
D03*
X106000Y127000D02*
D03*
X112000Y129000D02*
D03*
Y109000D02*
D03*
Y113000D02*
D03*
X110000Y111000D02*
D03*
X112000Y117000D02*
D03*
X110000Y115000D02*
D03*
X112000Y121000D02*
D03*
X110000Y119000D02*
D03*
X106000Y123000D02*
D03*
X108000Y117000D02*
D03*
Y113000D02*
D03*
Y109000D02*
D03*
X106000Y111000D02*
D03*
X104000Y109000D02*
D03*
X100000D02*
D03*
X98000Y107000D02*
D03*
X96000Y109000D02*
D03*
X102000Y111000D02*
D03*
X104000Y113000D02*
D03*
X102000Y115000D02*
D03*
X106000D02*
D03*
X104000Y117000D02*
D03*
X102000Y119000D02*
D03*
X106000D02*
D03*
X104000Y121000D02*
D03*
X102000Y123000D02*
D03*
X104000Y125000D02*
D03*
X80000Y78000D02*
D03*
X84000D02*
D03*
X102000Y127000D02*
D03*
X100000Y129000D02*
D03*
X104000D02*
D03*
X106000Y131000D02*
D03*
X102000D02*
D03*
X100000Y137000D02*
D03*
X102000Y135000D02*
D03*
X98000Y131000D02*
D03*
X104000Y133000D02*
D03*
X100000D02*
D03*
X98000Y139000D02*
D03*
Y135000D02*
D03*
X52000Y117000D02*
D03*
X80000Y142000D02*
D03*
X81000Y145000D02*
D03*
X80000Y146000D02*
D03*
X78000D02*
D03*
X76000D02*
D03*
X74000D02*
D03*
X72000D02*
D03*
X70000D02*
D03*
X52000Y149000D02*
D03*
X60000Y145000D02*
D03*
X54000Y147000D02*
D03*
X56000Y149000D02*
D03*
X54000Y151000D02*
D03*
X52000Y157000D02*
D03*
Y161000D02*
D03*
X54000Y159000D02*
D03*
X52000Y153000D02*
D03*
X56000D02*
D03*
Y157000D02*
D03*
Y161000D02*
D03*
X54000Y163000D02*
D03*
X52000Y165000D02*
D03*
X54000Y167000D02*
D03*
X56000Y165000D02*
D03*
X52000Y169000D02*
D03*
Y173000D02*
D03*
X56000Y169000D02*
D03*
X54000Y171000D02*
D03*
Y175000D02*
D03*
X56000Y173000D02*
D03*
X52000Y177000D02*
D03*
X56000D02*
D03*
X54000Y179000D02*
D03*
X52000Y181000D02*
D03*
X56000D02*
D03*
X60000Y177000D02*
D03*
X58000Y179000D02*
D03*
Y183000D02*
D03*
X60000Y181000D02*
D03*
X58000Y187000D02*
D03*
X60000Y185000D02*
D03*
X56000Y189000D02*
D03*
X62000Y179000D02*
D03*
X64000Y177000D02*
D03*
X62000Y183000D02*
D03*
X64000Y181000D02*
D03*
X70000Y175000D02*
D03*
X68000Y177000D02*
D03*
X66000Y179000D02*
D03*
Y175000D02*
D03*
X58000D02*
D03*
X62000D02*
D03*
X72000Y177000D02*
D03*
X74000Y175000D02*
D03*
X80000Y177000D02*
D03*
X84000D02*
D03*
X88000D02*
D03*
X96000D02*
D03*
X92000D02*
D03*
X86000Y175000D02*
D03*
X94000D02*
D03*
X96000Y173000D02*
D03*
X90000Y175000D02*
D03*
X102000Y171000D02*
D03*
X82000Y175000D02*
D03*
X100000Y169000D02*
D03*
X98000Y171000D02*
D03*
Y167000D02*
D03*
X100000Y165000D02*
D03*
X102000Y167000D02*
D03*
X94000Y171000D02*
D03*
X96000Y165000D02*
D03*
Y169000D02*
D03*
X94000Y167000D02*
D03*
X100000Y161000D02*
D03*
X98000Y163000D02*
D03*
X102000Y159000D02*
D03*
Y155000D02*
D03*
Y151000D02*
D03*
X94000Y155000D02*
D03*
X100000Y153000D02*
D03*
X98000Y155000D02*
D03*
X94000Y163000D02*
D03*
X96000Y161000D02*
D03*
X98000Y159000D02*
D03*
X100000Y157000D02*
D03*
X94000Y159000D02*
D03*
X96000Y157000D02*
D03*
Y153000D02*
D03*
X98000Y147000D02*
D03*
X94000Y151000D02*
D03*
X96000Y149000D02*
D03*
Y145000D02*
D03*
X62000Y143000D02*
D03*
X94000Y147000D02*
D03*
X92000Y145000D02*
D03*
X94000Y143000D02*
D03*
X96000Y133000D02*
D03*
X72000Y78000D02*
D03*
X100000Y125000D02*
D03*
X78000Y123000D02*
D03*
X98000Y127000D02*
D03*
X80000Y125000D02*
D03*
X98000Y123000D02*
D03*
X100000Y121000D02*
D03*
Y117000D02*
D03*
Y113000D02*
D03*
X98000Y111000D02*
D03*
X96000Y113000D02*
D03*
X92000D02*
D03*
X94000Y111000D02*
D03*
X78000Y119000D02*
D03*
X86000Y107000D02*
D03*
X80000Y113000D02*
D03*
X78000Y111000D02*
D03*
X82000D02*
D03*
X86000Y103000D02*
D03*
X88000Y101000D02*
D03*
X86000Y99000D02*
D03*
X102000Y107000D02*
D03*
X106000D02*
D03*
X98000Y75000D02*
D03*
X110000Y67000D02*
D03*
X108000Y69000D02*
D03*
X112000D02*
D03*
X110000Y71000D02*
D03*
X112000Y73000D02*
D03*
Y77000D02*
D03*
Y81000D02*
D03*
Y85000D02*
D03*
Y89000D02*
D03*
X110000Y79000D02*
D03*
Y83000D02*
D03*
Y87000D02*
D03*
Y91000D02*
D03*
X112000Y93000D02*
D03*
X110000Y107000D02*
D03*
X108000Y105000D02*
D03*
X112000Y101000D02*
D03*
X110000Y99000D02*
D03*
X112000Y97000D02*
D03*
X110000Y95000D02*
D03*
X108000Y97000D02*
D03*
Y93000D02*
D03*
Y89000D02*
D03*
Y85000D02*
D03*
Y81000D02*
D03*
X106000Y75000D02*
D03*
X108000Y77000D02*
D03*
X100000D02*
D03*
X102000Y75000D02*
D03*
X104000Y73000D02*
D03*
X106000Y71000D02*
D03*
Y67000D02*
D03*
X104000Y65000D02*
D03*
X100000Y61000D02*
D03*
X102000Y63000D02*
D03*
X98000D02*
D03*
X104000Y69000D02*
D03*
Y77000D02*
D03*
X100000Y81000D02*
D03*
Y85000D02*
D03*
X104000Y89000D02*
D03*
X100000D02*
D03*
X90000Y59000D02*
D03*
X88000Y61000D02*
D03*
X84000D02*
D03*
X80000D02*
D03*
X90000Y63000D02*
D03*
X92000Y57000D02*
D03*
X100000D02*
D03*
X96000D02*
D03*
Y65000D02*
D03*
X100000D02*
D03*
X98000Y67000D02*
D03*
X92000Y65000D02*
D03*
X94000Y67000D02*
D03*
X102000D02*
D03*
Y71000D02*
D03*
X100000Y69000D02*
D03*
Y73000D02*
D03*
X96000Y69000D02*
D03*
Y73000D02*
D03*
X98000Y71000D02*
D03*
X86000Y95000D02*
D03*
X90000Y91000D02*
D03*
X88000Y93000D02*
D03*
X84000D02*
D03*
X82000Y95000D02*
D03*
X74000D02*
D03*
X90000D02*
D03*
X82000Y87000D02*
D03*
X90000D02*
D03*
X88000Y97000D02*
D03*
X90000Y99000D02*
D03*
X82000Y91000D02*
D03*
X78000Y95000D02*
D03*
X70000D02*
D03*
X66000D02*
D03*
X52000Y113000D02*
D03*
Y109000D02*
D03*
Y105000D02*
D03*
Y101000D02*
D03*
X62000Y95000D02*
D03*
X52000Y97000D02*
D03*
X54000Y95000D02*
D03*
X52000Y81000D02*
D03*
Y93000D02*
D03*
X56000D02*
D03*
X86000Y83000D02*
D03*
X88000Y81000D02*
D03*
Y85000D02*
D03*
X90000Y83000D02*
D03*
X84000Y85000D02*
D03*
X86000Y79000D02*
D03*
X84000Y81000D02*
D03*
X82000Y83000D02*
D03*
Y79000D02*
D03*
X78000D02*
D03*
X74000D02*
D03*
X76000Y61000D02*
D03*
X78000Y59000D02*
D03*
X74000D02*
D03*
X72000Y61000D02*
D03*
X80000Y57000D02*
D03*
X76000Y53000D02*
D03*
X78000Y55000D02*
D03*
X78000Y51000D02*
D03*
X74000D02*
D03*
X72000Y53000D02*
D03*
X70000Y51000D02*
D03*
X76000Y57000D02*
D03*
X72000D02*
D03*
X70000Y55000D02*
D03*
X68000Y53000D02*
D03*
X70000Y79000D02*
D03*
X54000D02*
D03*
X58000D02*
D03*
X52000Y77000D02*
D03*
Y73000D02*
D03*
X62000Y71000D02*
D03*
X52000Y69000D02*
D03*
X62000Y59000D02*
D03*
X60000Y61000D02*
D03*
X52000Y65000D02*
D03*
X62000Y67000D02*
D03*
Y63000D02*
D03*
X56000Y61000D02*
D03*
X52000D02*
D03*
X62000Y55000D02*
D03*
X60000Y57000D02*
D03*
X58000Y59000D02*
D03*
X54000D02*
D03*
X56000Y57000D02*
D03*
X58000Y55000D02*
D03*
X66000Y51000D02*
D03*
X64000Y53000D02*
D03*
X62000Y51000D02*
D03*
X60000Y53000D02*
D03*
X58000Y51000D02*
D03*
X71350Y138700D02*
D03*
X72450D02*
D03*
X71350Y137600D02*
D03*
X72450D02*
D03*
X71350Y136500D02*
D03*
X72450D02*
D03*
X95884Y85321D02*
D03*
Y85829D02*
D03*
X95376D02*
D03*
Y85321D02*
D03*
X104525Y86688D02*
D03*
Y86088D02*
D03*
X103875Y82350D02*
D03*
X102750Y82375D02*
D03*
X101600Y80150D02*
D03*
X80400Y151300D02*
D03*
X79400D02*
D03*
X75400Y151300D02*
D03*
X76400D02*
D03*
X71400D02*
D03*
X72400D02*
D03*
X68400D02*
D03*
X67400D02*
D03*
X89870Y105917D02*
D03*
X90648Y105139D02*
D03*
X91425Y105917D02*
D03*
X90648Y106695D02*
D03*
X58900Y154150D02*
D03*
X59900Y154150D02*
D03*
X60900Y154150D02*
D03*
X94191Y77811D02*
D03*
X66900Y154150D02*
D03*
X68900D02*
D03*
X67900D02*
D03*
X66900Y166800D02*
D03*
X68900D02*
D03*
X67900D02*
D03*
X58900D02*
D03*
X60900D02*
D03*
X59900D02*
D03*
X80550Y152800D02*
D03*
X79250D02*
D03*
X76550D02*
D03*
X75250D02*
D03*
X67250D02*
D03*
X68550D02*
D03*
X72550D02*
D03*
X71250D02*
D03*
X67000Y147900D02*
D03*
X75000Y147300D02*
D03*
X71000Y147900D02*
D03*
Y147300D02*
D03*
X79000Y147900D02*
D03*
X67000Y147300D02*
D03*
X75000Y147900D02*
D03*
X79000Y147300D02*
D03*
X59225Y75200D02*
D03*
X57525Y65100D02*
D03*
Y64500D02*
D03*
X91522Y79525D02*
D03*
X91098Y79950D02*
D03*
X90506Y101002D02*
D03*
X90930Y101427D02*
D03*
X84675Y113700D02*
D03*
X85275D02*
D03*
X83200Y132500D02*
D03*
X82050Y131350D02*
D03*
X83550Y128975D02*
D03*
X82000Y128250D02*
D03*
X87600Y123225D02*
D03*
Y123825D02*
D03*
X90150Y126150D02*
D03*
Y126750D02*
D03*
X96400Y117125D02*
D03*
X81400D02*
D03*
D163*
X73200Y141000D02*
D03*
Y140600D02*
D03*
X72650D02*
D03*
X73675Y84375D02*
D03*
X63500Y111500D02*
D03*
X71875Y116242D02*
D03*
Y118258D02*
D03*
X83876Y136584D02*
D03*
X82150Y103475D02*
D03*
X65500Y98500D02*
D03*
X64500D02*
D03*
X58500Y109500D02*
D03*
X68425Y89150D02*
D03*
X66175Y83825D02*
D03*
X55200Y103500D02*
D03*
Y104000D02*
D03*
Y104500D02*
D03*
Y105000D02*
D03*
X57100Y104000D02*
D03*
X82150Y98125D02*
D03*
Y98775D02*
D03*
X77800Y107750D02*
D03*
Y107250D02*
D03*
Y106750D02*
D03*
X60050Y116300D02*
D03*
X74300Y118200D02*
D03*
X73800D02*
D03*
X73300D02*
D03*
X70450D02*
D03*
X69950D02*
D03*
X69450D02*
D03*
X68600D02*
D03*
X68100D02*
D03*
X67600D02*
D03*
X67100D02*
D03*
X66250D02*
D03*
X65750D02*
D03*
X65250D02*
D03*
X64750D02*
D03*
X63900D02*
D03*
X63400D02*
D03*
X62900D02*
D03*
X62400D02*
D03*
X61550D02*
D03*
X61050D02*
D03*
X60550D02*
D03*
X60050D02*
D03*
X59200D02*
D03*
X58700D02*
D03*
X58200D02*
D03*
X57700D02*
D03*
X90800Y163584D02*
D03*
X69350Y136850D02*
D03*
Y138850D02*
D03*
X91800Y131075D02*
D03*
X86900Y113150D02*
D03*
X104550Y79700D02*
D03*
X70050Y133000D02*
D03*
X90825Y165600D02*
D03*
X91250Y147600D02*
D03*
X90850D02*
D03*
X62500Y112500D02*
D03*
X89725Y111892D02*
D03*
X73500Y109500D02*
D03*
X93108Y79601D02*
D03*
X92754Y79248D02*
D03*
X72500Y98500D02*
D03*
X73500D02*
D03*
X73500Y104500D02*
D03*
X69500Y109500D02*
D03*
X65500D02*
D03*
X64500D02*
D03*
X63500D02*
D03*
X69500Y103500D02*
D03*
X63500D02*
D03*
X67500Y104500D02*
D03*
X65500D02*
D03*
X67500Y105500D02*
D03*
X68500D02*
D03*
Y104500D02*
D03*
X68450Y107500D02*
D03*
X65500Y105500D02*
D03*
X64500D02*
D03*
Y104500D02*
D03*
Y107500D02*
D03*
X67500Y108500D02*
D03*
X68500D02*
D03*
X65500D02*
D03*
X64500D02*
D03*
X67450Y107500D02*
D03*
X65500D02*
D03*
X71500Y102500D02*
D03*
X64500Y101500D02*
D03*
X60500Y112500D02*
D03*
X71500Y110500D02*
D03*
X69500Y111500D02*
D03*
Y105500D02*
D03*
Y104450D02*
D03*
Y107500D02*
D03*
Y108500D02*
D03*
X67500Y103500D02*
D03*
X65500D02*
D03*
X64500D02*
D03*
X63500Y104500D02*
D03*
Y105500D02*
D03*
Y107500D02*
D03*
Y108500D02*
D03*
X68550Y109500D02*
D03*
X67500D02*
D03*
X83850Y161600D02*
D03*
Y162600D02*
D03*
X90825Y164575D02*
D03*
X91225D02*
D03*
Y165600D02*
D03*
X83850Y147550D02*
D03*
X83450D02*
D03*
X73750Y129500D02*
D03*
Y129900D02*
D03*
X73750Y133000D02*
D03*
X56200Y63450D02*
D03*
X83450Y165600D02*
D03*
X83850D02*
D03*
X83876Y158584D02*
D03*
Y157584D02*
D03*
Y156584D02*
D03*
Y155584D02*
D03*
Y151584D02*
D03*
Y150584D02*
D03*
Y149584D02*
D03*
Y148584D02*
D03*
Y135584D02*
D03*
X90800Y138584D02*
D03*
Y148584D02*
D03*
Y149584D02*
D03*
Y150584D02*
D03*
Y151584D02*
D03*
Y152584D02*
D03*
Y153584D02*
D03*
Y154584D02*
D03*
Y155584D02*
D03*
Y156584D02*
D03*
Y157584D02*
D03*
Y158584D02*
D03*
Y159584D02*
D03*
Y160584D02*
D03*
Y161584D02*
D03*
Y162584D02*
D03*
X83900Y159575D02*
D03*
Y160575D02*
D03*
X68950Y141775D02*
D03*
X68225Y141050D02*
D03*
X88550Y107650D02*
D03*
X88300Y107200D02*
D03*
X87850Y106950D02*
D03*
X90800Y140600D02*
D03*
Y141600D02*
D03*
Y136600D02*
D03*
Y135600D02*
D03*
X86000Y131075D02*
D03*
X82800D02*
D03*
X86000Y123775D02*
D03*
X82800D02*
D03*
X72450Y129450D02*
D03*
X71350D02*
D03*
X87650Y121425D02*
D03*
X88150D02*
D03*
X88650D02*
D03*
X95000Y123775D02*
D03*
X95000Y131075D02*
D03*
X96400Y118225D02*
D03*
X90725Y115200D02*
D03*
X89150Y115450D02*
D03*
X90150D02*
D03*
X87150D02*
D03*
X88150D02*
D03*
X89150Y121425D02*
D03*
X89650D02*
D03*
X90650D02*
D03*
X81400Y118225D02*
D03*
X91800Y123775D02*
D03*
X72650Y134600D02*
D03*
X72650Y134200D02*
D03*
X69350Y138350D02*
D03*
Y137850D02*
D03*
Y137350D02*
D03*
X74850D02*
D03*
Y137850D02*
D03*
X69000Y135850D02*
D03*
X72150Y141000D02*
D03*
Y140600D02*
D03*
X71150Y141000D02*
D03*
X69400Y135850D02*
D03*
X71150Y140600D02*
D03*
X71150Y134600D02*
D03*
X74400Y138850D02*
D03*
Y136850D02*
D03*
X83482Y164364D02*
D03*
X83857Y164814D02*
D03*
X83482Y163373D02*
D03*
X83857Y163823D02*
D03*
D164*
X98536Y96687D02*
D03*
X96758D02*
D03*
X94980D02*
D03*
Y98313D02*
D03*
X96758D02*
D03*
X98536D02*
D03*
X100314D02*
D03*
Y96687D02*
D03*
X102092D02*
D03*
Y98313D02*
D03*
X103870D02*
D03*
Y96687D02*
D03*
X98536Y103012D02*
D03*
X100314D02*
D03*
X98536Y104587D02*
D03*
X100314D02*
D03*
X103235Y103012D02*
D03*
Y104587D02*
D03*
X98536Y91988D02*
D03*
Y90413D02*
D03*
X100314Y91988D02*
D03*
Y90413D02*
D03*
D179*
X85338Y148584D02*
D03*
Y164584D02*
D03*
Y165584D02*
D03*
Y163584D02*
D03*
Y151584D02*
D03*
Y160584D02*
D03*
Y154584D02*
D03*
Y144584D02*
D03*
Y161584D02*
D03*
Y147584D02*
D03*
Y152584D02*
D03*
Y146584D02*
D03*
Y155584D02*
D03*
Y159584D02*
D03*
Y157584D02*
D03*
Y156584D02*
D03*
Y158584D02*
D03*
Y145584D02*
D03*
Y153584D02*
D03*
Y162584D02*
D03*
Y143584D02*
D03*
Y150584D02*
D03*
Y149584D02*
D03*
Y142584D02*
D03*
X89338Y153584D02*
D03*
Y162584D02*
D03*
Y154584D02*
D03*
X85338Y139584D02*
D03*
Y134584D02*
D03*
Y141584D02*
D03*
Y138584D02*
D03*
Y135584D02*
D03*
Y137584D02*
D03*
X89338Y138584D02*
D03*
Y137584D02*
D03*
Y134584D02*
D03*
Y140584D02*
D03*
Y135584D02*
D03*
X85338Y136584D02*
D03*
Y140584D02*
D03*
X89338Y165584D02*
D03*
Y164584D02*
D03*
Y163584D02*
D03*
Y161584D02*
D03*
Y160584D02*
D03*
Y159584D02*
D03*
Y158584D02*
D03*
Y157584D02*
D03*
Y156584D02*
D03*
Y155584D02*
D03*
Y152584D02*
D03*
Y151584D02*
D03*
Y150584D02*
D03*
Y149584D02*
D03*
Y148584D02*
D03*
Y147584D02*
D03*
Y146584D02*
D03*
Y145584D02*
D03*
Y144584D02*
D03*
Y143584D02*
D03*
Y142584D02*
D03*
Y141584D02*
D03*
Y139584D02*
D03*
Y136584D02*
D03*
M02*
