G04*
G04 #@! TF.GenerationSoftware,Altium Limited,Altium Designer,21.7.2 (23)*
G04*
G04 Layer_Physical_Order=7*
G04 Layer_Color=128*
%FSLAX43Y43*%
%MOMM*%
G71*
G04*
G04 #@! TF.SameCoordinates,5A851601-7680-42F0-B5C6-608C5AADBA52*
G04*
G04*
G04 #@! TF.FilePolarity,Negative*
G04*
G01*
G75*
%ADD169C,1.016*%
%ADD170C,1.508*%
%ADD171C,1.308*%
%ADD172C,2.008*%
%ADD173C,0.808*%
%ADD174C,0.708*%
D169*
X50000Y50000D02*
X113500D01*
Y128740D01*
X103340Y138900D02*
X113500Y128740D01*
X103340Y138900D02*
Y177508D01*
X101308Y179540D02*
X103340Y177508D01*
X69050Y179540D02*
X101308D01*
X58890Y189700D02*
X69050Y179540D01*
X50000Y189700D02*
X58890D01*
X50000Y50000D02*
Y189700D01*
D170*
X55000Y142000D02*
D03*
Y140000D02*
D03*
Y138000D02*
D03*
Y136000D02*
D03*
Y134000D02*
D03*
Y132000D02*
D03*
Y130000D02*
D03*
D171*
X95498Y58547D02*
D03*
X97498D02*
D03*
D172*
X87338Y132884D02*
D03*
Y167284D02*
D03*
D173*
X65100Y58100D02*
D03*
X68700D02*
D03*
Y59700D02*
D03*
X65100D02*
D03*
X68800Y71500D02*
D03*
X65000D02*
D03*
X81750Y106700D02*
D03*
Y107300D02*
D03*
X71300Y75600D02*
D03*
X71900D02*
D03*
X94100Y91700D02*
D03*
Y91100D02*
D03*
X66000Y130000D02*
D03*
X79350Y89600D02*
D03*
X78750D02*
D03*
X79950D02*
D03*
X69750Y75450D02*
D03*
X65950D02*
D03*
X59800Y75200D02*
D03*
X53800D02*
D03*
X54400D02*
D03*
X62100Y92850D02*
D03*
X61450D02*
D03*
X60800D02*
D03*
X81750Y102600D02*
D03*
Y102000D02*
D03*
X68850Y170400D02*
D03*
X68250D02*
D03*
Y169800D02*
D03*
X68850D02*
D03*
X77800Y168850D02*
D03*
Y169450D02*
D03*
X77200Y168850D02*
D03*
Y169450D02*
D03*
X76900Y166800D02*
D03*
X75900D02*
D03*
Y154150D02*
D03*
X74900D02*
D03*
X76900D02*
D03*
X74900Y166800D02*
D03*
X104525Y86688D02*
D03*
Y86088D02*
D03*
X101600Y80150D02*
D03*
X58900Y154150D02*
D03*
X59900Y154150D02*
D03*
X60900Y154150D02*
D03*
X66900Y154150D02*
D03*
X68900D02*
D03*
X67900D02*
D03*
X66900Y166800D02*
D03*
X68900D02*
D03*
X67900D02*
D03*
X58900D02*
D03*
X60900D02*
D03*
X59900D02*
D03*
X80550Y152800D02*
D03*
X79250D02*
D03*
X76550D02*
D03*
X75250D02*
D03*
X67250D02*
D03*
X68550D02*
D03*
X72550D02*
D03*
X71250D02*
D03*
X67000Y147900D02*
D03*
X75000Y147300D02*
D03*
X71000Y147900D02*
D03*
Y147300D02*
D03*
X79000Y147900D02*
D03*
X67000Y147300D02*
D03*
X75000Y147900D02*
D03*
X79000Y147300D02*
D03*
X59225Y75200D02*
D03*
X57525Y65100D02*
D03*
Y64500D02*
D03*
X91522Y79525D02*
D03*
X91098Y79950D02*
D03*
X90506Y101002D02*
D03*
X90930Y101427D02*
D03*
X84675Y113700D02*
D03*
X85275D02*
D03*
X87600Y123225D02*
D03*
Y123825D02*
D03*
X90150Y126150D02*
D03*
Y126750D02*
D03*
D174*
X73200Y141000D02*
D03*
Y140600D02*
D03*
X73675Y84375D02*
D03*
X63500Y111500D02*
D03*
X71875Y116242D02*
D03*
Y118258D02*
D03*
X83876Y136584D02*
D03*
X82150Y103475D02*
D03*
X65500Y98500D02*
D03*
X64500D02*
D03*
X58500Y109500D02*
D03*
X68425Y89150D02*
D03*
X66175Y83825D02*
D03*
X55200Y103500D02*
D03*
Y104000D02*
D03*
Y104500D02*
D03*
Y105000D02*
D03*
X57100Y104000D02*
D03*
X82150Y98125D02*
D03*
Y98775D02*
D03*
X77800Y107750D02*
D03*
Y107250D02*
D03*
Y106750D02*
D03*
X60050Y116300D02*
D03*
X74300Y118200D02*
D03*
X73800D02*
D03*
X73300D02*
D03*
X70450D02*
D03*
X69950D02*
D03*
X69450D02*
D03*
X68600D02*
D03*
X68100D02*
D03*
X67600D02*
D03*
X67100D02*
D03*
X66250D02*
D03*
X65750D02*
D03*
X65250D02*
D03*
X64750D02*
D03*
X63900D02*
D03*
X63400D02*
D03*
X62900D02*
D03*
X62400D02*
D03*
X61550D02*
D03*
X61050D02*
D03*
X60550D02*
D03*
X60050D02*
D03*
X59200D02*
D03*
X58700D02*
D03*
X58200D02*
D03*
X57700D02*
D03*
X90800Y163584D02*
D03*
X69350Y136850D02*
D03*
Y138850D02*
D03*
X91800Y131075D02*
D03*
X86900Y113150D02*
D03*
X104550Y79700D02*
D03*
X70050Y133000D02*
D03*
X90825Y165600D02*
D03*
X91250Y147600D02*
D03*
X90850D02*
D03*
X62500Y112500D02*
D03*
X89725Y111892D02*
D03*
X73500Y109500D02*
D03*
X93108Y79601D02*
D03*
X92754Y79248D02*
D03*
X72500Y98500D02*
D03*
X73500D02*
D03*
X73500Y104500D02*
D03*
X65500Y109500D02*
D03*
X64500D02*
D03*
X71500Y102500D02*
D03*
X64500Y101500D02*
D03*
X60500Y112500D02*
D03*
X71500Y110500D02*
D03*
X69500Y111500D02*
D03*
Y105500D02*
D03*
Y104450D02*
D03*
Y107500D02*
D03*
Y108500D02*
D03*
X67500Y103500D02*
D03*
X65500D02*
D03*
X64500D02*
D03*
X63500Y104500D02*
D03*
Y105500D02*
D03*
Y107500D02*
D03*
Y108500D02*
D03*
X68550Y109500D02*
D03*
X67500D02*
D03*
X83850Y161600D02*
D03*
Y162600D02*
D03*
X90825Y164575D02*
D03*
X91225D02*
D03*
Y165600D02*
D03*
X83850Y147550D02*
D03*
X83450D02*
D03*
X73750Y129500D02*
D03*
Y129900D02*
D03*
X73750Y133000D02*
D03*
X56200Y63450D02*
D03*
X83450Y165600D02*
D03*
X83850D02*
D03*
X83876Y158584D02*
D03*
Y157584D02*
D03*
Y156584D02*
D03*
Y155584D02*
D03*
Y151584D02*
D03*
Y150584D02*
D03*
Y149584D02*
D03*
Y148584D02*
D03*
Y135584D02*
D03*
X90800Y138584D02*
D03*
Y148584D02*
D03*
Y149584D02*
D03*
Y150584D02*
D03*
Y151584D02*
D03*
Y152584D02*
D03*
Y153584D02*
D03*
Y154584D02*
D03*
Y155584D02*
D03*
Y156584D02*
D03*
Y157584D02*
D03*
Y158584D02*
D03*
Y159584D02*
D03*
Y160584D02*
D03*
Y161584D02*
D03*
Y162584D02*
D03*
X83900Y159575D02*
D03*
Y160575D02*
D03*
X68950Y141775D02*
D03*
X68225Y141050D02*
D03*
X88550Y107650D02*
D03*
X88300Y107200D02*
D03*
X87850Y106950D02*
D03*
X90800Y140600D02*
D03*
Y141600D02*
D03*
Y136600D02*
D03*
Y135600D02*
D03*
X86000Y131075D02*
D03*
X82800D02*
D03*
X86000Y123775D02*
D03*
X82800D02*
D03*
X72450Y129450D02*
D03*
X71350D02*
D03*
X87650Y121425D02*
D03*
X88150D02*
D03*
X88650D02*
D03*
X95000Y123775D02*
D03*
X95000Y131075D02*
D03*
X96400Y118225D02*
D03*
X90150Y115450D02*
D03*
X89150Y121425D02*
D03*
X89650D02*
D03*
X90650D02*
D03*
X81400Y118225D02*
D03*
X91800Y123775D02*
D03*
X72650Y134600D02*
D03*
X72650Y134200D02*
D03*
X69350Y138350D02*
D03*
Y137850D02*
D03*
Y137350D02*
D03*
X74850D02*
D03*
Y137850D02*
D03*
X69000Y135850D02*
D03*
X72150Y141000D02*
D03*
Y140600D02*
D03*
X71150Y141000D02*
D03*
X69400Y135850D02*
D03*
X71150Y140600D02*
D03*
X83482Y164364D02*
D03*
X83857Y164814D02*
D03*
X83482Y163373D02*
D03*
X83857Y163823D02*
D03*
M02*
