G04*
G04 #@! TF.GenerationSoftware,Altium Limited,Altium Designer,21.7.2 (23)*
G04*
G04 Layer_Physical_Order=6*
G04 Layer_Color=16737945*
%FSLAX43Y43*%
%MOMM*%
G71*
G04*
G04 #@! TF.SameCoordinates,A774AA4E-E338-4311-BF28-223F750F7C6B*
G04*
G04*
G04 #@! TF.FilePolarity,Positive*
G04*
G01*
G75*
%ADD11C,0.250*%
%ADD12C,0.150*%
%ADD14C,0.100*%
%ADD146C,0.185*%
%ADD147C,0.120*%
%ADD149O,3.600X3.660*%
%ADD150O,1.600X1.300*%
%ADD151R,3.450X3.450*%
%ADD152R,1.000X1.800*%
%ADD153C,1.150*%
%ADD156R,1.250X1.250*%
%ADD157C,6.000*%
%ADD159R,1.800X1.000*%
%ADD160P,3.818X4X180.0*%
%ADD161P,1.626X4X180.0*%
%ADD162C,0.600*%
%ADD163C,0.400*%
%ADD164C,0.700*%
%ADD178C,0.220*%
G36*
X58455Y189417D02*
X58653Y189391D01*
X58838Y189314D01*
X58997Y189192D01*
X58997Y189192D01*
Y189192D01*
X59088Y189105D01*
X68455Y179738D01*
X68539Y179644D01*
Y179644D01*
X68637Y179568D01*
X68816Y179431D01*
X69139Y179297D01*
X69485Y179252D01*
Y179258D01*
X69495Y179260D01*
X100865D01*
X100875Y179258D01*
Y179257D01*
X101073Y179231D01*
X101258Y179154D01*
X101417Y179032D01*
X101419Y179029D01*
X102827Y177621D01*
X102833Y177613D01*
X102832Y177612D01*
X102954Y177453D01*
X103031Y177268D01*
X103057Y177070D01*
X103058D01*
X103060Y177060D01*
Y139461D01*
X103052Y139335D01*
X103052Y139335D01*
X103068Y139212D01*
X103097Y138989D01*
X103231Y138666D01*
X103444Y138389D01*
X103448Y138393D01*
X103456Y138387D01*
X112987Y128856D01*
X112993Y128848D01*
X112992Y128847D01*
X113114Y128688D01*
X113191Y128503D01*
X113217Y128305D01*
X113218D01*
X113218Y51000D01*
X113216D01*
X113192Y50815D01*
X113120Y50642D01*
X113007Y50493D01*
X112858Y50380D01*
X112685Y50308D01*
X112500Y50284D01*
Y50282D01*
X51000D01*
Y50284D01*
X50815Y50308D01*
X50642Y50380D01*
X50493Y50493D01*
X50380Y50642D01*
X50308Y50815D01*
X50284Y51000D01*
X50282D01*
Y188700D01*
X50284D01*
X50308Y188885D01*
X50380Y189058D01*
X50493Y189207D01*
X50642Y189320D01*
X50815Y189392D01*
X51000Y189416D01*
Y189418D01*
X58455D01*
Y189417D01*
D02*
G37*
%LPC*%
G36*
X68940Y170850D02*
X68760D01*
X68595Y170781D01*
X68550Y170736D01*
X68505Y170781D01*
X68340Y170850D01*
X68160D01*
X67995Y170781D01*
X67869Y170655D01*
X67800Y170490D01*
Y170310D01*
X67869Y170145D01*
X67914Y170100D01*
X67869Y170055D01*
X67800Y169890D01*
Y169710D01*
X67869Y169545D01*
X67995Y169419D01*
X68160Y169350D01*
X68340D01*
X68505Y169419D01*
X68550Y169464D01*
X68595Y169419D01*
X68760Y169350D01*
X68940D01*
X69105Y169419D01*
X69231Y169545D01*
X69300Y169710D01*
Y169890D01*
X69231Y170055D01*
X69186Y170100D01*
X69231Y170145D01*
X69300Y170310D01*
Y170490D01*
X69231Y170655D01*
X69105Y170781D01*
X68940Y170850D01*
D02*
G37*
G36*
X77890Y169900D02*
X77710D01*
X77545Y169831D01*
X77500Y169786D01*
X77455Y169831D01*
X77290Y169900D01*
X77110D01*
X76945Y169831D01*
X76819Y169705D01*
X76750Y169540D01*
Y169360D01*
X76819Y169195D01*
X76864Y169150D01*
X76819Y169105D01*
X76750Y168940D01*
Y168760D01*
X76819Y168595D01*
X76945Y168469D01*
X77110Y168400D01*
X77290D01*
X77455Y168469D01*
X77500Y168514D01*
X77545Y168469D01*
X77710Y168400D01*
X77890D01*
X78055Y168469D01*
X78181Y168595D01*
X78250Y168760D01*
Y168940D01*
X78181Y169105D01*
X78136Y169150D01*
X78181Y169195D01*
X78250Y169360D01*
Y169540D01*
X78181Y169705D01*
X78055Y169831D01*
X77890Y169900D01*
D02*
G37*
G36*
X73000Y170200D02*
X72550D01*
Y169350D01*
X73000D01*
Y170200D01*
D02*
G37*
G36*
X72150D02*
X71700D01*
Y169350D01*
X72150D01*
Y170200D01*
D02*
G37*
G36*
X73000Y168950D02*
X72550D01*
Y168100D01*
X73000D01*
Y168950D01*
D02*
G37*
G36*
X72150D02*
X71700D01*
Y168100D01*
X72150D01*
Y168950D01*
D02*
G37*
G36*
X60990Y167250D02*
X60810D01*
X60645Y167181D01*
X60519Y167055D01*
X60467Y166931D01*
X60333D01*
X60281Y167055D01*
X60155Y167181D01*
X59990Y167250D01*
X59810D01*
X59645Y167181D01*
X59519Y167055D01*
X59467Y166931D01*
X59333D01*
X59281Y167055D01*
X59155Y167181D01*
X58990Y167250D01*
X58810D01*
X58645Y167181D01*
X58519Y167055D01*
X58450Y166890D01*
Y166710D01*
X58519Y166545D01*
X58645Y166419D01*
X58810Y166350D01*
X58990D01*
X59155Y166419D01*
X59281Y166545D01*
X59333Y166669D01*
X59467D01*
X59519Y166545D01*
X59645Y166419D01*
X59810Y166350D01*
X59990D01*
X60155Y166419D01*
X60281Y166545D01*
X60333Y166669D01*
X60467D01*
X60519Y166545D01*
X60645Y166419D01*
X60810Y166350D01*
X60990D01*
X61155Y166419D01*
X61281Y166545D01*
X61350Y166710D01*
Y166890D01*
X61281Y167055D01*
X61155Y167181D01*
X60990Y167250D01*
D02*
G37*
G36*
X76990D02*
X76810D01*
X76645Y167181D01*
X76519Y167055D01*
X76467Y166931D01*
X76333D01*
X76281Y167055D01*
X76155Y167181D01*
X75990Y167250D01*
X75810D01*
X75645Y167181D01*
X75519Y167055D01*
X75467Y166931D01*
X75333D01*
X75281Y167055D01*
X75155Y167181D01*
X74990Y167250D01*
X74810D01*
X74645Y167181D01*
X74519Y167055D01*
X74450Y166890D01*
Y166710D01*
X74519Y166545D01*
X74645Y166419D01*
X74810Y166350D01*
X74990D01*
X75155Y166419D01*
X75281Y166545D01*
X75333Y166669D01*
X75467D01*
X75519Y166545D01*
X75645Y166419D01*
X75810Y166350D01*
X75990D01*
X76155Y166419D01*
X76281Y166545D01*
X76333Y166669D01*
X76467D01*
X76519Y166545D01*
X76645Y166419D01*
X76810Y166350D01*
X76990D01*
X77155Y166419D01*
X77281Y166545D01*
X77350Y166710D01*
Y166890D01*
X77281Y167055D01*
X77155Y167181D01*
X76990Y167250D01*
D02*
G37*
G36*
X68990D02*
X68810D01*
X68645Y167181D01*
X68519Y167055D01*
X68467Y166931D01*
X68333D01*
X68281Y167055D01*
X68155Y167181D01*
X67990Y167250D01*
X67810D01*
X67645Y167181D01*
X67519Y167055D01*
X67467Y166931D01*
X67333D01*
X67281Y167055D01*
X67155Y167181D01*
X66990Y167250D01*
X66810D01*
X66645Y167181D01*
X66519Y167055D01*
X66450Y166890D01*
Y166710D01*
X66519Y166545D01*
X66645Y166419D01*
X66810Y166350D01*
X66990D01*
X67155Y166419D01*
X67281Y166545D01*
X67333Y166669D01*
X67467D01*
X67519Y166545D01*
X67645Y166419D01*
X67810Y166350D01*
X67990D01*
X68155Y166419D01*
X68281Y166545D01*
X68333Y166669D01*
X68467D01*
X68519Y166545D01*
X68645Y166419D01*
X68810Y166350D01*
X68990D01*
X69155Y166419D01*
X69281Y166545D01*
X69350Y166710D01*
Y166890D01*
X69281Y167055D01*
X69155Y167181D01*
X68990Y167250D01*
D02*
G37*
G36*
X87470Y168284D02*
X87206D01*
X86952Y168216D01*
X86724Y168084D01*
X86538Y167898D01*
X86406Y167670D01*
X86338Y167416D01*
Y167152D01*
X86406Y166898D01*
X86538Y166670D01*
X86724Y166484D01*
X86952Y166352D01*
X87206Y166284D01*
X87470D01*
X87724Y166352D01*
X87952Y166484D01*
X88138Y166670D01*
X88270Y166898D01*
X88338Y167152D01*
Y167416D01*
X88270Y167670D01*
X88138Y167898D01*
X87952Y168084D01*
X87724Y168216D01*
X87470Y168284D01*
D02*
G37*
G36*
X91295Y165950D02*
X91155D01*
X91027Y165897D01*
X91025Y165895D01*
X91023Y165897D01*
X90895Y165950D01*
X90755D01*
X90627Y165897D01*
X90528Y165798D01*
X90475Y165670D01*
Y165530D01*
X90528Y165402D01*
X90627Y165303D01*
X90755Y165250D01*
X90895D01*
X91023Y165303D01*
X91025Y165305D01*
X91027Y165303D01*
X91155Y165250D01*
X91295D01*
X91423Y165303D01*
X91522Y165402D01*
X91575Y165530D01*
Y165670D01*
X91522Y165798D01*
X91423Y165897D01*
X91295Y165950D01*
D02*
G37*
G36*
X83920D02*
X83780D01*
X83652Y165897D01*
X83650Y165895D01*
X83648Y165897D01*
X83520Y165950D01*
X83380D01*
X83252Y165897D01*
X83153Y165798D01*
X83100Y165670D01*
Y165530D01*
X83153Y165402D01*
X83252Y165303D01*
X83380Y165250D01*
X83520D01*
X83598Y165283D01*
X83658Y165248D01*
X83658Y165111D01*
X83560Y165012D01*
X83507Y164883D01*
Y164744D01*
X83417Y164714D01*
X83412D01*
X83283Y164661D01*
X83185Y164562D01*
X83132Y164433D01*
Y164294D01*
X83185Y164166D01*
X83283Y164067D01*
X83412Y164014D01*
X83419D01*
X83507Y163893D01*
Y163754D01*
X83417Y163723D01*
X83412D01*
X83283Y163670D01*
X83185Y163571D01*
X83132Y163443D01*
Y163304D01*
X83185Y163175D01*
X83283Y163076D01*
X83412Y163023D01*
X83551D01*
X83680Y163076D01*
X83778Y163175D01*
X83832Y163304D01*
Y163443D01*
X83921Y163473D01*
X83926D01*
X84055Y163526D01*
X84153Y163625D01*
X84207Y163754D01*
Y163893D01*
X84153Y164021D01*
X84055Y164120D01*
X83926Y164173D01*
X83919D01*
X83832Y164294D01*
Y164433D01*
X83921Y164464D01*
X83926D01*
X84055Y164517D01*
X84153Y164616D01*
X84207Y164744D01*
Y164883D01*
X84153Y165012D01*
X84055Y165111D01*
X83985Y165140D01*
Y165277D01*
X84048Y165303D01*
X84147Y165402D01*
X84200Y165530D01*
Y165670D01*
X84147Y165798D01*
X84048Y165897D01*
X83920Y165950D01*
D02*
G37*
G36*
X91295Y164925D02*
X91155D01*
X91027Y164872D01*
X91025Y164870D01*
X91023Y164872D01*
X90895Y164925D01*
X90755D01*
X90627Y164872D01*
X90528Y164773D01*
X90475Y164645D01*
Y164505D01*
X90528Y164377D01*
X90627Y164278D01*
X90755Y164225D01*
X90895D01*
X91023Y164278D01*
X91025Y164280D01*
X91027Y164278D01*
X91155Y164225D01*
X91295D01*
X91423Y164278D01*
X91522Y164377D01*
X91575Y164505D01*
Y164645D01*
X91522Y164773D01*
X91423Y164872D01*
X91295Y164925D01*
D02*
G37*
G36*
X83920Y162950D02*
X83780D01*
X83652Y162897D01*
X83553Y162798D01*
X83500Y162670D01*
Y162530D01*
X83553Y162402D01*
X83652Y162303D01*
X83780Y162250D01*
X83920D01*
X84048Y162303D01*
X84147Y162402D01*
X84200Y162530D01*
Y162670D01*
X84147Y162798D01*
X84048Y162897D01*
X83920Y162950D01*
D02*
G37*
G36*
Y161950D02*
X83780D01*
X83652Y161897D01*
X83553Y161798D01*
X83500Y161670D01*
Y161530D01*
X83553Y161402D01*
X83652Y161303D01*
X83780Y161250D01*
X83920D01*
X84048Y161303D01*
X84147Y161402D01*
X84200Y161530D01*
Y161670D01*
X84147Y161798D01*
X84048Y161897D01*
X83920Y161950D01*
D02*
G37*
G36*
X83970Y160925D02*
X83830D01*
X83702Y160872D01*
X83603Y160773D01*
X83550Y160645D01*
X83550Y160505D01*
X83439Y160443D01*
X82297Y160398D01*
X81043Y160249D01*
X79803Y160003D01*
X78587Y159660D01*
X77402Y159222D01*
X76254Y158693D01*
X75152Y158076D01*
X74101Y157374D01*
X73109Y156592D01*
X72181Y155734D01*
X71323Y154806D01*
X70541Y153814D01*
X69839Y152763D01*
X69222Y151661D01*
X69074Y151341D01*
X68950Y151368D01*
Y151950D01*
X68100D01*
Y151300D01*
Y150650D01*
X68638D01*
X68706Y150543D01*
X68693Y150513D01*
X68255Y149328D01*
X67912Y148112D01*
X67666Y146872D01*
X67517Y145618D01*
X67468Y144355D01*
X67476D01*
Y143228D01*
X67476Y143228D01*
Y142908D01*
X67470D01*
X67511Y142492D01*
X67632Y142092D01*
X67829Y141723D01*
X68026Y141484D01*
X68027Y141347D01*
X68000Y141320D01*
X67928Y141248D01*
X67875Y141120D01*
Y140980D01*
X67928Y140852D01*
X68027Y140753D01*
X68155Y140700D01*
X68295D01*
X68423Y140753D01*
X68522Y140852D01*
X68575Y140980D01*
Y141120D01*
X68535Y141217D01*
X68553Y141308D01*
X68536Y141392D01*
X68626Y141481D01*
X68710Y141465D01*
X68760Y141475D01*
X68880Y141425D01*
X69020D01*
X69148Y141478D01*
X69247Y141577D01*
X69300Y141705D01*
Y141845D01*
X69247Y141973D01*
X69148Y142072D01*
X69020Y142125D01*
X68880D01*
X68752Y142072D01*
X68696Y142016D01*
X68556Y142009D01*
X68534Y142017D01*
X68388Y142207D01*
X68248Y142545D01*
X68202Y142898D01*
X68204Y142908D01*
Y143068D01*
X68204Y143068D01*
Y144355D01*
X68201Y144368D01*
X68248Y145560D01*
X68390Y146758D01*
X68625Y147941D01*
X68953Y149101D01*
X69370Y150233D01*
X69875Y151328D01*
X70464Y152380D01*
X70683Y152707D01*
X70814Y152676D01*
X70869Y152545D01*
X70995Y152419D01*
X71160Y152350D01*
X71340D01*
X71505Y152419D01*
X71631Y152545D01*
X71700Y152710D01*
Y152890D01*
X71631Y153055D01*
X71505Y153181D01*
X71340Y153250D01*
X71198D01*
X71119Y153360D01*
X71134Y153383D01*
X71881Y154330D01*
X72699Y155216D01*
X73585Y156034D01*
X74532Y156781D01*
X75535Y157451D01*
X76587Y158040D01*
X77682Y158545D01*
X78814Y158962D01*
X79974Y159290D01*
X81157Y159525D01*
X82355Y159667D01*
X83439Y159709D01*
X83460Y159697D01*
X83550Y159587D01*
Y159505D01*
X83603Y159377D01*
X83702Y159278D01*
X83830Y159225D01*
X83970D01*
X84098Y159278D01*
X84197Y159377D01*
X84250Y159505D01*
Y159645D01*
X84197Y159773D01*
X84098Y159872D01*
X83978Y159922D01*
X83949Y159964D01*
X83879Y160012D01*
Y160139D01*
X83949Y160186D01*
X83978Y160228D01*
X84098Y160278D01*
X84197Y160377D01*
X84250Y160505D01*
Y160645D01*
X84197Y160773D01*
X84098Y160872D01*
X83970Y160925D01*
D02*
G37*
G36*
X83946Y158934D02*
X83806D01*
X83678Y158881D01*
X83579Y158782D01*
X83526Y158654D01*
Y158514D01*
X83579Y158386D01*
X83678Y158287D01*
X83806Y158234D01*
X83946D01*
X84074Y158287D01*
X84173Y158386D01*
X84226Y158514D01*
Y158654D01*
X84173Y158782D01*
X84074Y158881D01*
X83946Y158934D01*
D02*
G37*
G36*
Y157934D02*
X83806D01*
X83678Y157881D01*
X83579Y157782D01*
X83526Y157654D01*
Y157514D01*
X83579Y157386D01*
X83678Y157287D01*
X83806Y157234D01*
X83946D01*
X84074Y157287D01*
X84173Y157386D01*
X84226Y157514D01*
Y157654D01*
X84173Y157782D01*
X84074Y157881D01*
X83946Y157934D01*
D02*
G37*
G36*
X90870Y163934D02*
X90730D01*
X90602Y163881D01*
X90503Y163782D01*
X90450Y163654D01*
Y163537D01*
X84349Y157435D01*
X84302Y157366D01*
X84286Y157284D01*
Y156835D01*
X84224Y156806D01*
X84159Y156796D01*
X84074Y156881D01*
X83946Y156934D01*
X83806D01*
X83678Y156881D01*
X83579Y156782D01*
X83526Y156654D01*
Y156514D01*
X83579Y156386D01*
X83678Y156287D01*
X83806Y156234D01*
X83946D01*
X84074Y156287D01*
X84159Y156372D01*
X84224Y156362D01*
X84286Y156333D01*
Y155835D01*
X84224Y155806D01*
X84159Y155796D01*
X84074Y155881D01*
X83946Y155934D01*
X83806D01*
X83678Y155881D01*
X83579Y155782D01*
X83526Y155654D01*
Y155514D01*
X83579Y155386D01*
X83678Y155287D01*
X83806Y155234D01*
X83946D01*
X84074Y155287D01*
X84159Y155372D01*
X84224Y155362D01*
X84286Y155333D01*
Y151835D01*
X84224Y151806D01*
X84159Y151796D01*
X84074Y151881D01*
X83946Y151934D01*
X83806D01*
X83678Y151881D01*
X83579Y151782D01*
X83526Y151654D01*
Y151537D01*
X81349Y149359D01*
X81302Y149290D01*
X81286Y149208D01*
Y142689D01*
X75649Y137051D01*
X75602Y136982D01*
X75586Y136900D01*
Y130100D01*
Y129889D01*
X70011Y124314D01*
X65600D01*
X65518Y124298D01*
X65449Y124251D01*
X65385Y124188D01*
X65352Y124166D01*
X59899Y118713D01*
X59852Y118643D01*
X59836Y118561D01*
Y118481D01*
X59753Y118398D01*
X59700Y118270D01*
Y118130D01*
X59753Y118002D01*
X59852Y117903D01*
X59980Y117850D01*
X60120D01*
X60248Y117903D01*
X60300Y117955D01*
X60352Y117903D01*
X60480Y117850D01*
X60620D01*
X60748Y117903D01*
X60800Y117955D01*
X60852Y117903D01*
X60980Y117850D01*
X61120D01*
X61248Y117903D01*
X61300Y117955D01*
X61352Y117903D01*
X61480Y117850D01*
X61620D01*
X61748Y117903D01*
X61847Y118002D01*
X61900Y118130D01*
Y118270D01*
X61847Y118398D01*
X61764Y118481D01*
Y118761D01*
X65972Y122969D01*
X66300D01*
X66349Y122852D01*
X62249Y118751D01*
X62202Y118682D01*
X62186Y118600D01*
Y118481D01*
X62103Y118398D01*
X62050Y118270D01*
Y118130D01*
X62103Y118002D01*
X62202Y117903D01*
X62330Y117850D01*
X62470D01*
X62598Y117903D01*
X62650Y117955D01*
X62702Y117903D01*
X62830Y117850D01*
X62970D01*
X63098Y117903D01*
X63150Y117955D01*
X63202Y117903D01*
X63330Y117850D01*
X63470D01*
X63598Y117903D01*
X63650Y117955D01*
X63702Y117903D01*
X63830Y117850D01*
X63970D01*
X64098Y117903D01*
X64197Y118002D01*
X64250Y118130D01*
Y118270D01*
X64197Y118398D01*
X64114Y118481D01*
Y118811D01*
X67100Y121797D01*
X67528D01*
X67577Y121680D01*
X64622Y118725D01*
X64576Y118656D01*
X64560Y118574D01*
Y118500D01*
X64552Y118497D01*
X64453Y118398D01*
X64400Y118270D01*
Y118130D01*
X64453Y118002D01*
X64552Y117903D01*
X64680Y117850D01*
X64820D01*
X64948Y117903D01*
X65000Y117955D01*
X65052Y117903D01*
X65180Y117850D01*
X65320D01*
X65448Y117903D01*
X65500Y117955D01*
X65552Y117903D01*
X65680Y117850D01*
X65820D01*
X65948Y117903D01*
X66000Y117955D01*
X66052Y117903D01*
X66180Y117850D01*
X66320D01*
X66448Y117903D01*
X66547Y118002D01*
X66600Y118130D01*
Y118270D01*
X66547Y118398D01*
X66475Y118470D01*
Y118773D01*
X68277Y120575D01*
X68706D01*
X68755Y120457D01*
X66949Y118651D01*
X66902Y118582D01*
X66886Y118500D01*
Y118481D01*
X66803Y118398D01*
X66750Y118270D01*
Y118130D01*
X66803Y118002D01*
X66902Y117903D01*
X67030Y117850D01*
X67170D01*
X67298Y117903D01*
X67350Y117955D01*
X67402Y117903D01*
X67530Y117850D01*
X67670D01*
X67798Y117903D01*
X67850Y117955D01*
X67902Y117903D01*
X68030Y117850D01*
X68170D01*
X68298Y117903D01*
X68350Y117955D01*
X68402Y117903D01*
X68530Y117850D01*
X68670D01*
X68798Y117903D01*
X68897Y118002D01*
X68950Y118130D01*
Y118270D01*
X68897Y118398D01*
X68814Y118481D01*
Y118711D01*
X69455Y119352D01*
X69884D01*
X69932Y119235D01*
X69322Y118625D01*
X69276Y118556D01*
X69265Y118502D01*
X69252Y118497D01*
X69153Y118398D01*
X69100Y118270D01*
Y118130D01*
X69153Y118002D01*
X69252Y117903D01*
X69380Y117850D01*
X69520D01*
X69648Y117903D01*
X69700Y117955D01*
X69752Y117903D01*
X69880Y117850D01*
X70020D01*
X70148Y117903D01*
X70200Y117955D01*
X70252Y117903D01*
X70380Y117850D01*
X70520D01*
X70648Y117903D01*
X70747Y118002D01*
X70800Y118130D01*
Y118270D01*
X70758Y118372D01*
X70809Y118458D01*
X70837Y118486D01*
X71453D01*
X71538Y118359D01*
X71525Y118328D01*
Y118188D01*
X71578Y118060D01*
X71677Y117961D01*
X71805Y117908D01*
X71945D01*
X72073Y117961D01*
X72172Y118060D01*
X72225Y118188D01*
Y118305D01*
X72969Y119049D01*
X73086Y119000D01*
Y118481D01*
X73003Y118398D01*
X72950Y118270D01*
Y118130D01*
X73003Y118002D01*
X73102Y117903D01*
X73230Y117850D01*
X73370D01*
X73498Y117903D01*
X73550Y117955D01*
X73602Y117903D01*
X73730Y117850D01*
X73870D01*
X73998Y117903D01*
X74050Y117955D01*
X74102Y117903D01*
X74230Y117850D01*
X74370D01*
X74409Y117866D01*
X74536Y117781D01*
Y115002D01*
X73349Y113814D01*
X73302Y113745D01*
X73286Y113663D01*
Y109781D01*
X73203Y109698D01*
X73150Y109570D01*
Y109430D01*
X73203Y109302D01*
X73302Y109203D01*
X73430Y109150D01*
X73570D01*
X73698Y109203D01*
X73797Y109302D01*
X73850Y109430D01*
Y109570D01*
X73797Y109698D01*
X73714Y109781D01*
Y113574D01*
X74901Y114761D01*
X74948Y114831D01*
X74964Y114913D01*
Y119036D01*
X76314Y120386D01*
X86934D01*
X87025Y120300D01*
X87025Y120259D01*
Y118625D01*
X88900D01*
X90775D01*
Y120300D01*
X89983D01*
X89944Y120427D01*
X89976Y120449D01*
X90603Y121075D01*
X90720D01*
X90794Y121106D01*
X90921Y121035D01*
Y114920D01*
X90355Y114354D01*
X87875D01*
X87787Y114337D01*
X87713Y114287D01*
X86926Y113500D01*
X86830D01*
X86702Y113447D01*
X86603Y113348D01*
X86550Y113220D01*
Y113080D01*
X86603Y112952D01*
X86671Y112884D01*
Y110800D01*
X86688Y110712D01*
X86738Y110638D01*
X88771Y108605D01*
Y108075D01*
X88644Y107990D01*
X88620Y108000D01*
X88480D01*
X88443Y107984D01*
X87776Y108651D01*
X87706Y108698D01*
X87624Y108714D01*
X79000D01*
X78918Y108698D01*
X78849Y108651D01*
X78161Y107964D01*
X78081D01*
X77998Y108047D01*
X77870Y108100D01*
X77730D01*
X77602Y108047D01*
X77503Y107948D01*
X77450Y107820D01*
Y107680D01*
X77503Y107552D01*
X77555Y107500D01*
X77503Y107448D01*
X77450Y107320D01*
Y107180D01*
X77503Y107052D01*
X77555Y107000D01*
X77503Y106948D01*
X77450Y106820D01*
Y106680D01*
X77503Y106552D01*
X77602Y106453D01*
X77730Y106400D01*
X77870D01*
X77998Y106453D01*
X78081Y106536D01*
X78250D01*
X78332Y106552D01*
X78401Y106599D01*
X79489Y107686D01*
X81320D01*
X81372Y107559D01*
X81369Y107555D01*
X81300Y107390D01*
Y107210D01*
X81369Y107045D01*
X81414Y107000D01*
X81369Y106955D01*
X81300Y106790D01*
Y106610D01*
X81369Y106445D01*
X81495Y106319D01*
X81660Y106250D01*
X81840D01*
X82005Y106319D01*
X82131Y106445D01*
X82200Y106610D01*
Y106790D01*
X82131Y106955D01*
X82086Y107000D01*
X82131Y107045D01*
X82200Y107210D01*
Y107390D01*
X82131Y107555D01*
X82128Y107559D01*
X82180Y107686D01*
X86811D01*
X87500Y106997D01*
Y106880D01*
X87553Y106752D01*
X87652Y106653D01*
X87780Y106600D01*
X87796D01*
X87849Y106473D01*
X85080Y103704D01*
X82416D01*
X82348Y103772D01*
X82220Y103825D01*
X82080D01*
X81952Y103772D01*
X81853Y103673D01*
X81800Y103545D01*
Y103405D01*
X81853Y103277D01*
X81952Y103178D01*
X82080Y103125D01*
X82220D01*
X82348Y103178D01*
X82416Y103246D01*
X84955D01*
X85004Y103128D01*
X82538Y100662D01*
X82488Y100588D01*
X82471Y100500D01*
Y99129D01*
X82348Y99072D01*
X82220Y99125D01*
X82124D01*
X80962Y100287D01*
X80888Y100337D01*
X80800Y100354D01*
X61625D01*
X61537Y100337D01*
X61463Y100287D01*
X61463Y100287D01*
X56738Y95562D01*
X56738Y95562D01*
X56688Y95488D01*
X56671Y95400D01*
X56671Y64245D01*
X56226Y63800D01*
X56130D01*
X56002Y63747D01*
X55903Y63648D01*
X55850Y63520D01*
Y63380D01*
X55903Y63252D01*
X56002Y63153D01*
X56130Y63100D01*
X56270D01*
X56398Y63153D01*
X56497Y63252D01*
X56550Y63380D01*
Y63476D01*
X57062Y63988D01*
X57062Y63988D01*
X57112Y64062D01*
X57118Y64091D01*
X57252Y64137D01*
X57270Y64119D01*
X57435Y64050D01*
X57615D01*
X57780Y64119D01*
X57906Y64245D01*
X57975Y64410D01*
Y64590D01*
X57906Y64755D01*
X57861Y64800D01*
X57906Y64845D01*
X57975Y65010D01*
Y65190D01*
X57906Y65355D01*
X57780Y65481D01*
X57615Y65550D01*
X57435D01*
X57270Y65481D01*
X57256Y65468D01*
X57129Y65520D01*
X57129Y95305D01*
X61720Y99896D01*
X80705D01*
X81800Y98801D01*
Y98705D01*
X81853Y98577D01*
X81897Y98533D01*
X81938Y98450D01*
X81897Y98367D01*
X81853Y98323D01*
X81800Y98195D01*
Y98055D01*
X81853Y97927D01*
X81921Y97859D01*
Y96850D01*
X81938Y96762D01*
X81988Y96688D01*
X99388Y79288D01*
X99462Y79238D01*
X99550Y79221D01*
X99550Y79221D01*
X104300D01*
X104388Y79238D01*
X104462Y79288D01*
X104524Y79350D01*
X104620D01*
X104748Y79403D01*
X104847Y79502D01*
X104900Y79630D01*
Y79770D01*
X104847Y79898D01*
X104748Y79997D01*
X104620Y80050D01*
X104480D01*
X104352Y79997D01*
X104253Y79898D01*
X104200Y79770D01*
Y79679D01*
X101945D01*
X101893Y79806D01*
X101981Y79895D01*
X102050Y80060D01*
Y80240D01*
X101981Y80405D01*
X101855Y80531D01*
X101690Y80600D01*
X101510D01*
X101345Y80531D01*
X101219Y80405D01*
X101150Y80240D01*
Y80060D01*
X101219Y79895D01*
X101307Y79806D01*
X101255Y79679D01*
X99645D01*
X82379Y96945D01*
Y97859D01*
X82447Y97927D01*
X82500Y98055D01*
Y98151D01*
X82862Y98513D01*
X82912Y98587D01*
X82929Y98675D01*
X82929Y98675D01*
Y100405D01*
X88412Y105887D01*
X88574Y105869D01*
X89446Y104998D01*
X90506Y106058D01*
X91567Y107119D01*
X90648Y108038D01*
X89746Y107137D01*
X89629Y107199D01*
X89629Y107200D01*
Y109825D01*
X89612Y109913D01*
X89562Y109987D01*
X89429Y110120D01*
Y111527D01*
X89556Y111583D01*
X89655Y111542D01*
X89795D01*
X89923Y111595D01*
X90022Y111694D01*
X90075Y111822D01*
Y111939D01*
X91976Y113841D01*
X92023Y113910D01*
X92039Y113992D01*
Y122075D01*
X92023Y122157D01*
X91976Y122226D01*
X91011Y123191D01*
X91010Y123192D01*
X90742Y123460D01*
X90741Y123461D01*
X89854Y124349D01*
Y125648D01*
X89981Y125733D01*
X90060Y125700D01*
X90240D01*
X90405Y125769D01*
X90531Y125895D01*
X90600Y126060D01*
Y126240D01*
X90531Y126405D01*
X90486Y126450D01*
X90531Y126495D01*
X90600Y126660D01*
Y126840D01*
X90531Y127005D01*
X90405Y127131D01*
X90240Y127200D01*
X90060D01*
X89981Y127167D01*
X89854Y127252D01*
Y137335D01*
X90753Y138234D01*
X90870D01*
X90998Y138287D01*
X91097Y138386D01*
X91150Y138514D01*
Y138654D01*
X91097Y138782D01*
X90998Y138881D01*
X90870Y138934D01*
X90730D01*
X90602Y138881D01*
X90503Y138782D01*
X90450Y138654D01*
Y138537D01*
X89489Y137575D01*
X89442Y137506D01*
X89426Y137424D01*
Y135678D01*
X89384Y135663D01*
X89299Y135657D01*
X89262Y135712D01*
X89262Y135712D01*
X88228Y136746D01*
X88154Y136796D01*
X88066Y136813D01*
X84208D01*
X84171Y136859D01*
X84230Y136986D01*
X85800D01*
X85882Y137002D01*
X85951Y137049D01*
X90351Y141449D01*
X90492Y141430D01*
X90503Y141402D01*
X90602Y141303D01*
X90730Y141250D01*
X90870D01*
X90998Y141303D01*
X91097Y141402D01*
X91150Y141530D01*
Y141670D01*
X91097Y141798D01*
X90998Y141897D01*
X90870Y141950D01*
X90730D01*
X90602Y141897D01*
X90541Y141836D01*
X90414Y141889D01*
Y147406D01*
X90541Y147431D01*
X90553Y147402D01*
X90652Y147303D01*
X90780Y147250D01*
X90920D01*
X91048Y147303D01*
X91050Y147305D01*
X91052Y147303D01*
X91180Y147250D01*
X91320D01*
X91448Y147303D01*
X91547Y147402D01*
X91600Y147530D01*
Y147670D01*
X91547Y147798D01*
X91448Y147897D01*
X91320Y147950D01*
X91180D01*
X91052Y147897D01*
X91050Y147895D01*
X91048Y147897D01*
X90920Y147950D01*
X90780D01*
X90652Y147897D01*
X90579Y147824D01*
X90468Y147845D01*
X90446Y147857D01*
X90437Y147918D01*
X90753Y148234D01*
X90870D01*
X90998Y148287D01*
X91097Y148386D01*
X91150Y148514D01*
Y148654D01*
X91097Y148782D01*
X90998Y148881D01*
X90870Y148934D01*
X90730D01*
X90602Y148881D01*
X90503Y148782D01*
X90450Y148654D01*
Y148537D01*
X90231Y148318D01*
X90114Y148367D01*
Y148595D01*
X90753Y149234D01*
X90870D01*
X90998Y149287D01*
X91097Y149386D01*
X91150Y149514D01*
Y149654D01*
X91097Y149782D01*
X90998Y149881D01*
X90870Y149934D01*
X90730D01*
X90602Y149881D01*
X90503Y149782D01*
X90450Y149654D01*
Y149537D01*
X89931Y149018D01*
X89814Y149067D01*
Y149295D01*
X90753Y150234D01*
X90870D01*
X90998Y150287D01*
X91097Y150386D01*
X91150Y150514D01*
Y150654D01*
X91097Y150782D01*
X90998Y150881D01*
X90870Y150934D01*
X90730D01*
X90602Y150881D01*
X90503Y150782D01*
X90450Y150654D01*
Y150537D01*
X89631Y149718D01*
X89514Y149767D01*
Y149995D01*
X90753Y151234D01*
X90870D01*
X90998Y151287D01*
X91097Y151386D01*
X91150Y151514D01*
Y151654D01*
X91097Y151782D01*
X90998Y151881D01*
X90870Y151934D01*
X90730D01*
X90602Y151881D01*
X90503Y151782D01*
X90450Y151654D01*
Y151537D01*
X89331Y150418D01*
X89214Y150467D01*
Y150695D01*
X90753Y152234D01*
X90870D01*
X90998Y152287D01*
X91097Y152386D01*
X91150Y152514D01*
Y152654D01*
X91097Y152782D01*
X90998Y152881D01*
X90870Y152934D01*
X90730D01*
X90602Y152881D01*
X90503Y152782D01*
X90450Y152654D01*
Y152537D01*
X89031Y151118D01*
X88914Y151167D01*
Y151395D01*
X90753Y153234D01*
X90870D01*
X90998Y153287D01*
X91097Y153386D01*
X91150Y153514D01*
Y153654D01*
X91097Y153782D01*
X90998Y153881D01*
X90870Y153934D01*
X90730D01*
X90602Y153881D01*
X90503Y153782D01*
X90450Y153654D01*
Y153537D01*
X88731Y151818D01*
X88614Y151867D01*
Y152095D01*
X90753Y154234D01*
X90870D01*
X90998Y154287D01*
X91097Y154386D01*
X91150Y154514D01*
Y154654D01*
X91097Y154782D01*
X90998Y154881D01*
X90870Y154934D01*
X90730D01*
X90602Y154881D01*
X90503Y154782D01*
X90450Y154654D01*
Y154537D01*
X88431Y152518D01*
X88314Y152567D01*
Y152795D01*
X90753Y155234D01*
X90870D01*
X90998Y155287D01*
X91097Y155386D01*
X91150Y155514D01*
Y155654D01*
X91097Y155782D01*
X90998Y155881D01*
X90870Y155934D01*
X90730D01*
X90602Y155881D01*
X90503Y155782D01*
X90450Y155654D01*
Y155537D01*
X88131Y153218D01*
X88014Y153267D01*
Y153495D01*
X90753Y156234D01*
X90870D01*
X90998Y156287D01*
X91097Y156386D01*
X91150Y156514D01*
Y156654D01*
X91097Y156782D01*
X90998Y156881D01*
X90870Y156934D01*
X90730D01*
X90602Y156881D01*
X90503Y156782D01*
X90450Y156654D01*
Y156537D01*
X87831Y153918D01*
X87714Y153967D01*
Y154195D01*
X90753Y157234D01*
X90870D01*
X90998Y157287D01*
X91097Y157386D01*
X91150Y157514D01*
Y157654D01*
X91097Y157782D01*
X90998Y157881D01*
X90870Y157934D01*
X90730D01*
X90602Y157881D01*
X90503Y157782D01*
X90450Y157654D01*
Y157537D01*
X87531Y154618D01*
X87414Y154667D01*
Y154895D01*
X90753Y158234D01*
X90870D01*
X90998Y158287D01*
X91097Y158386D01*
X91150Y158514D01*
Y158654D01*
X91097Y158782D01*
X90998Y158881D01*
X90870Y158934D01*
X90730D01*
X90602Y158881D01*
X90503Y158782D01*
X90450Y158654D01*
Y158537D01*
X87231Y155318D01*
X87114Y155367D01*
Y155595D01*
X90753Y159234D01*
X90870D01*
X90998Y159287D01*
X91097Y159386D01*
X91150Y159514D01*
Y159654D01*
X91097Y159782D01*
X90998Y159881D01*
X90870Y159934D01*
X90730D01*
X90602Y159881D01*
X90503Y159782D01*
X90450Y159654D01*
Y159537D01*
X86931Y156018D01*
X86814Y156067D01*
Y156295D01*
X90753Y160234D01*
X90870D01*
X90998Y160287D01*
X91097Y160386D01*
X91150Y160514D01*
Y160654D01*
X91097Y160782D01*
X90998Y160881D01*
X90870Y160934D01*
X90730D01*
X90602Y160881D01*
X90503Y160782D01*
X90450Y160654D01*
Y160537D01*
X86631Y156718D01*
X86514Y156767D01*
Y156995D01*
X90753Y161234D01*
X90870D01*
X90998Y161287D01*
X91097Y161386D01*
X91150Y161514D01*
Y161654D01*
X91097Y161782D01*
X90998Y161881D01*
X90870Y161934D01*
X90730D01*
X90602Y161881D01*
X90503Y161782D01*
X90450Y161654D01*
Y161537D01*
X86331Y157418D01*
X86214Y157467D01*
Y157695D01*
X90753Y162234D01*
X90870D01*
X90998Y162287D01*
X91097Y162386D01*
X91150Y162514D01*
Y162654D01*
X91097Y162782D01*
X90998Y162881D01*
X90870Y162934D01*
X90730D01*
X90602Y162881D01*
X90503Y162782D01*
X90450Y162654D01*
Y162537D01*
X85849Y157935D01*
X85802Y157866D01*
X85786Y157784D01*
Y143289D01*
X84111Y141614D01*
X82583D01*
X82534Y141731D01*
X82871Y142069D01*
X82918Y142138D01*
X82934Y142220D01*
Y142731D01*
X84651Y144449D01*
X84698Y144518D01*
X84714Y144600D01*
Y157195D01*
X90753Y163234D01*
X90870D01*
X90998Y163287D01*
X91097Y163386D01*
X91150Y163514D01*
Y163654D01*
X91097Y163782D01*
X90998Y163881D01*
X90870Y163934D01*
D02*
G37*
G36*
X60990Y154600D02*
X60810D01*
X60645Y154531D01*
X60519Y154405D01*
X60467Y154281D01*
X60333Y154281D01*
X60281Y154405D01*
X60155Y154531D01*
X59990Y154600D01*
X59810D01*
X59645Y154531D01*
X59519Y154405D01*
X59467Y154281D01*
X59333Y154281D01*
X59281Y154405D01*
X59155Y154531D01*
X58990Y154600D01*
X58810D01*
X58645Y154531D01*
X58519Y154405D01*
X58450Y154240D01*
Y154060D01*
X58519Y153895D01*
X58645Y153769D01*
X58810Y153700D01*
X58990D01*
X59155Y153769D01*
X59281Y153895D01*
X59333Y154019D01*
X59467Y154019D01*
X59519Y153895D01*
X59645Y153769D01*
X59810Y153700D01*
X59990D01*
X60155Y153769D01*
X60281Y153895D01*
X60333Y154019D01*
X60467Y154019D01*
X60519Y153895D01*
X60645Y153769D01*
X60810Y153700D01*
X60990D01*
X61155Y153769D01*
X61281Y153895D01*
X61350Y154060D01*
Y154240D01*
X61281Y154405D01*
X61155Y154531D01*
X60990Y154600D01*
D02*
G37*
G36*
X76990Y154600D02*
X76810D01*
X76645Y154531D01*
X76519Y154405D01*
X76467Y154281D01*
X76333D01*
X76281Y154405D01*
X76155Y154531D01*
X75990Y154600D01*
X75810D01*
X75645Y154531D01*
X75519Y154405D01*
X75467Y154281D01*
X75333D01*
X75281Y154405D01*
X75155Y154531D01*
X74990Y154600D01*
X74810D01*
X74645Y154531D01*
X74519Y154405D01*
X74450Y154240D01*
Y154060D01*
X74519Y153895D01*
X74645Y153769D01*
X74810Y153700D01*
X74990D01*
X75155Y153769D01*
X75281Y153895D01*
X75333Y154019D01*
X75467D01*
X75519Y153895D01*
X75645Y153769D01*
X75810Y153700D01*
X75990D01*
X76155Y153769D01*
X76281Y153895D01*
X76333Y154019D01*
X76467D01*
X76519Y153895D01*
X76645Y153769D01*
X76810Y153700D01*
X76990D01*
X77155Y153769D01*
X77281Y153895D01*
X77350Y154060D01*
Y154240D01*
X77281Y154405D01*
X77155Y154531D01*
X76990Y154600D01*
D02*
G37*
G36*
X68990D02*
X68810D01*
X68645Y154531D01*
X68519Y154405D01*
X68467Y154281D01*
X68333D01*
X68281Y154405D01*
X68155Y154531D01*
X67990Y154600D01*
X67810D01*
X67645Y154531D01*
X67519Y154405D01*
X67467Y154281D01*
X67333D01*
X67281Y154405D01*
X67155Y154531D01*
X66990Y154600D01*
X66810D01*
X66645Y154531D01*
X66519Y154405D01*
X66450Y154240D01*
Y154060D01*
X66519Y153895D01*
X66645Y153769D01*
X66810Y153700D01*
X66990D01*
X67155Y153769D01*
X67281Y153895D01*
X67333Y154019D01*
X67467D01*
X67519Y153895D01*
X67645Y153769D01*
X67810Y153700D01*
X67990D01*
X68155Y153769D01*
X68281Y153895D01*
X68333Y154019D01*
X68467D01*
X68519Y153895D01*
X68645Y153769D01*
X68810Y153700D01*
X68990D01*
X69155Y153769D01*
X69281Y153895D01*
X69350Y154060D01*
Y154240D01*
X69281Y154405D01*
X69155Y154531D01*
X68990Y154600D01*
D02*
G37*
G36*
X80640Y153250D02*
X80460D01*
X80295Y153181D01*
X80169Y153055D01*
X80100Y152890D01*
Y152710D01*
X80169Y152545D01*
X80295Y152419D01*
X80460Y152350D01*
X80640D01*
X80805Y152419D01*
X80931Y152545D01*
X81000Y152710D01*
Y152890D01*
X80931Y153055D01*
X80805Y153181D01*
X80640Y153250D01*
D02*
G37*
G36*
X79340D02*
X79160D01*
X78995Y153181D01*
X78869Y153055D01*
X78800Y152890D01*
Y152710D01*
X78869Y152545D01*
X78995Y152419D01*
X79160Y152350D01*
X79340D01*
X79505Y152419D01*
X79631Y152545D01*
X79700Y152710D01*
Y152890D01*
X79631Y153055D01*
X79505Y153181D01*
X79340Y153250D01*
D02*
G37*
G36*
X76640D02*
X76460D01*
X76295Y153181D01*
X76169Y153055D01*
X76100Y152890D01*
Y152710D01*
X76169Y152545D01*
X76295Y152419D01*
X76460Y152350D01*
X76640D01*
X76805Y152419D01*
X76931Y152545D01*
X77000Y152710D01*
Y152890D01*
X76931Y153055D01*
X76805Y153181D01*
X76640Y153250D01*
D02*
G37*
G36*
X75340D02*
X75160D01*
X74995Y153181D01*
X74869Y153055D01*
X74800Y152890D01*
Y152710D01*
X74869Y152545D01*
X74995Y152419D01*
X75160Y152350D01*
X75340D01*
X75505Y152419D01*
X75631Y152545D01*
X75700Y152710D01*
Y152890D01*
X75631Y153055D01*
X75505Y153181D01*
X75340Y153250D01*
D02*
G37*
G36*
X72640D02*
X72460D01*
X72295Y153181D01*
X72169Y153055D01*
X72100Y152890D01*
Y152710D01*
X72169Y152545D01*
X72295Y152419D01*
X72460Y152350D01*
X72640D01*
X72805Y152419D01*
X72931Y152545D01*
X73000Y152710D01*
Y152890D01*
X72931Y153055D01*
X72805Y153181D01*
X72640Y153250D01*
D02*
G37*
G36*
X68640D02*
X68460D01*
X68295Y153181D01*
X68169Y153055D01*
X68100Y152890D01*
Y152710D01*
X68169Y152545D01*
X68295Y152419D01*
X68460Y152350D01*
X68640D01*
X68805Y152419D01*
X68931Y152545D01*
X69000Y152710D01*
Y152890D01*
X68931Y153055D01*
X68805Y153181D01*
X68640Y153250D01*
D02*
G37*
G36*
X67340D02*
X67160D01*
X66995Y153181D01*
X66869Y153055D01*
X66800Y152890D01*
Y152710D01*
X66869Y152545D01*
X66995Y152419D01*
X67160Y152350D01*
X67340D01*
X67505Y152419D01*
X67631Y152545D01*
X67700Y152710D01*
Y152890D01*
X67631Y153055D01*
X67505Y153181D01*
X67340Y153250D01*
D02*
G37*
G36*
X80950Y151950D02*
X80100D01*
Y151500D01*
X80950D01*
Y151950D01*
D02*
G37*
G36*
X79700D02*
X78850D01*
Y151500D01*
X79700D01*
Y151950D01*
D02*
G37*
G36*
X76950Y151950D02*
X76100D01*
Y151500D01*
X76950D01*
Y151950D01*
D02*
G37*
G36*
X75700D02*
X74850D01*
Y151500D01*
X75700D01*
Y151950D01*
D02*
G37*
G36*
X67700D02*
X66850D01*
Y151500D01*
X67700D01*
Y151950D01*
D02*
G37*
G36*
X72950D02*
X72100D01*
Y151500D01*
X72950D01*
Y151950D01*
D02*
G37*
G36*
X71700D02*
X70850D01*
Y151500D01*
X71700D01*
Y151950D01*
D02*
G37*
G36*
X80950Y151100D02*
X80100D01*
Y150650D01*
X80950D01*
Y151100D01*
D02*
G37*
G36*
X79700D02*
X78850D01*
Y150650D01*
X79700D01*
Y151100D01*
D02*
G37*
G36*
X76950Y151100D02*
X76100D01*
Y150650D01*
X76950D01*
Y151100D01*
D02*
G37*
G36*
X75700D02*
X74850D01*
Y150650D01*
X75700D01*
Y151100D01*
D02*
G37*
G36*
X72950Y151100D02*
X72100D01*
Y150650D01*
X72950D01*
Y151100D01*
D02*
G37*
G36*
X71700D02*
X70850D01*
Y150650D01*
X71700D01*
Y151100D01*
D02*
G37*
G36*
X67700Y151100D02*
X66850D01*
Y150650D01*
X67700D01*
Y151100D01*
D02*
G37*
G36*
X79090Y148350D02*
X78910D01*
X78745Y148281D01*
X78619Y148155D01*
X78550Y147990D01*
Y147810D01*
X78619Y147645D01*
X78664Y147600D01*
X78619Y147555D01*
X78550Y147390D01*
Y147210D01*
X78619Y147045D01*
X78745Y146919D01*
X78910Y146850D01*
X79090D01*
X79255Y146919D01*
X79381Y147045D01*
X79450Y147210D01*
Y147390D01*
X79381Y147555D01*
X79336Y147600D01*
X79381Y147645D01*
X79450Y147810D01*
Y147990D01*
X79381Y148155D01*
X79255Y148281D01*
X79090Y148350D01*
D02*
G37*
G36*
X75090D02*
X74910D01*
X74745Y148281D01*
X74619Y148155D01*
X74550Y147990D01*
Y147810D01*
X74619Y147645D01*
X74664Y147600D01*
X74619Y147555D01*
X74550Y147390D01*
Y147210D01*
X74619Y147045D01*
X74745Y146919D01*
X74910Y146850D01*
X75090D01*
X75255Y146919D01*
X75381Y147045D01*
X75450Y147210D01*
Y147390D01*
X75381Y147555D01*
X75336Y147600D01*
X75381Y147645D01*
X75450Y147810D01*
Y147990D01*
X75381Y148155D01*
X75255Y148281D01*
X75090Y148350D01*
D02*
G37*
G36*
X71090D02*
X70910D01*
X70745Y148281D01*
X70619Y148155D01*
X70550Y147990D01*
Y147810D01*
X70619Y147645D01*
X70664Y147600D01*
X70619Y147555D01*
X70550Y147390D01*
Y147210D01*
X70619Y147045D01*
X70745Y146919D01*
X70910Y146850D01*
X71090D01*
X71255Y146919D01*
X71381Y147045D01*
X71450Y147210D01*
Y147390D01*
X71381Y147555D01*
X71336Y147600D01*
X71381Y147645D01*
X71450Y147810D01*
Y147990D01*
X71381Y148155D01*
X71255Y148281D01*
X71090Y148350D01*
D02*
G37*
G36*
X67090D02*
X66910D01*
X66745Y148281D01*
X66619Y148155D01*
X66550Y147990D01*
Y147810D01*
X66619Y147645D01*
X66664Y147600D01*
X66619Y147555D01*
X66550Y147390D01*
Y147210D01*
X66619Y147045D01*
X66745Y146919D01*
X66910Y146850D01*
X67090D01*
X67255Y146919D01*
X67381Y147045D01*
X67450Y147210D01*
Y147390D01*
X67381Y147555D01*
X67336Y147600D01*
X67381Y147645D01*
X67450Y147810D01*
Y147990D01*
X67381Y148155D01*
X67255Y148281D01*
X67090Y148350D01*
D02*
G37*
G36*
X52700Y142787D02*
X52641Y142779D01*
X52447Y142699D01*
X52279Y142571D01*
X52151Y142403D01*
X52108Y142300D01*
X52700D01*
Y142787D01*
D02*
G37*
G36*
X55150Y142807D02*
X54850D01*
X54641Y142779D01*
X54447Y142699D01*
X54279Y142571D01*
X54151Y142403D01*
X54071Y142209D01*
X54064Y142159D01*
X53936D01*
X53929Y142209D01*
X53849Y142403D01*
X53721Y142571D01*
X53553Y142699D01*
X53359Y142779D01*
X53300Y142787D01*
Y142000D01*
Y141213D01*
X53359Y141221D01*
X53553Y141301D01*
X53721Y141429D01*
X53849Y141597D01*
X53929Y141791D01*
X53936Y141841D01*
X54064D01*
X54071Y141791D01*
X54151Y141597D01*
X54279Y141429D01*
X54447Y141301D01*
X54641Y141221D01*
X54850Y141193D01*
X55150D01*
X55359Y141221D01*
X55553Y141301D01*
X55721Y141429D01*
X55849Y141597D01*
X55929Y141791D01*
X55957Y142000D01*
X55929Y142209D01*
X55849Y142403D01*
X55721Y142571D01*
X55553Y142699D01*
X55359Y142779D01*
X55150Y142807D01*
D02*
G37*
G36*
X52700Y141700D02*
X52108D01*
X52151Y141597D01*
X52279Y141429D01*
X52447Y141301D01*
X52641Y141221D01*
X52700Y141213D01*
Y141700D01*
D02*
G37*
G36*
X52700Y140787D02*
X52641Y140779D01*
X52447Y140699D01*
X52279Y140571D01*
X52151Y140403D01*
X52108Y140300D01*
X52700D01*
Y140787D01*
D02*
G37*
G36*
X90870Y140950D02*
X90730D01*
X90602Y140897D01*
X90503Y140798D01*
X90450Y140670D01*
Y140530D01*
X90503Y140402D01*
X90602Y140303D01*
X90730Y140250D01*
X90870D01*
X90998Y140303D01*
X91097Y140402D01*
X91150Y140530D01*
Y140670D01*
X91097Y140798D01*
X90998Y140897D01*
X90870Y140950D01*
D02*
G37*
G36*
X73270Y141350D02*
X73130D01*
X73002Y141297D01*
X72903Y141198D01*
X72850Y141070D01*
Y140930D01*
X72903Y140802D01*
X72905Y140800D01*
X72903Y140798D01*
X72850Y140670D01*
Y140530D01*
X72903Y140402D01*
X73002Y140303D01*
X73130Y140250D01*
X73270D01*
X73398Y140303D01*
X73497Y140402D01*
X73550Y140530D01*
Y140670D01*
X73497Y140798D01*
X73495Y140800D01*
X73497Y140802D01*
X73550Y140930D01*
Y141070D01*
X73497Y141198D01*
X73398Y141297D01*
X73270Y141350D01*
D02*
G37*
G36*
X72220D02*
X72080D01*
X71952Y141297D01*
X71853Y141198D01*
X71800Y141070D01*
Y140930D01*
X71853Y140802D01*
X71855Y140800D01*
X71853Y140798D01*
X71800Y140670D01*
Y140530D01*
X71853Y140402D01*
X71952Y140303D01*
X72080Y140250D01*
X72220D01*
X72348Y140303D01*
X72447Y140402D01*
X72500Y140530D01*
Y140670D01*
X72447Y140798D01*
X72445Y140800D01*
X72447Y140802D01*
X72500Y140930D01*
Y141070D01*
X72447Y141198D01*
X72348Y141297D01*
X72220Y141350D01*
D02*
G37*
G36*
X71220D02*
X71080D01*
X70952Y141297D01*
X70853Y141198D01*
X70800Y141070D01*
Y140930D01*
X70853Y140802D01*
X70855Y140800D01*
X70853Y140798D01*
X70800Y140670D01*
Y140530D01*
X70853Y140402D01*
X70952Y140303D01*
X71080Y140250D01*
X71220D01*
X71348Y140303D01*
X71447Y140402D01*
X71500Y140530D01*
Y140670D01*
X71447Y140798D01*
X71445Y140800D01*
X71447Y140802D01*
X71500Y140930D01*
Y141070D01*
X71447Y141198D01*
X71348Y141297D01*
X71220Y141350D01*
D02*
G37*
G36*
X55150Y140807D02*
X54850D01*
X54641Y140779D01*
X54447Y140699D01*
X54279Y140571D01*
X54151Y140403D01*
X54071Y140209D01*
X54064Y140159D01*
X53936D01*
X53929Y140209D01*
X53849Y140403D01*
X53721Y140571D01*
X53553Y140699D01*
X53359Y140779D01*
X53300Y140787D01*
Y140000D01*
Y139213D01*
X53359Y139221D01*
X53553Y139301D01*
X53721Y139429D01*
X53849Y139597D01*
X53929Y139791D01*
X53936Y139841D01*
X54064D01*
X54071Y139791D01*
X54151Y139597D01*
X54279Y139429D01*
X54447Y139301D01*
X54641Y139221D01*
X54850Y139193D01*
X55150D01*
X55359Y139221D01*
X55553Y139301D01*
X55721Y139429D01*
X55849Y139597D01*
X55879Y139669D01*
X56003Y139694D01*
X58186Y137511D01*
Y136283D01*
X58069Y136234D01*
X56151Y138151D01*
X56082Y138198D01*
X56000Y138214D01*
X55927D01*
X55849Y138403D01*
X55721Y138571D01*
X55553Y138699D01*
X55359Y138779D01*
X55150Y138807D01*
X54850D01*
X54641Y138779D01*
X54447Y138699D01*
X54279Y138571D01*
X54151Y138403D01*
X54071Y138209D01*
X54064Y138159D01*
X53936D01*
X53929Y138209D01*
X53849Y138403D01*
X53721Y138571D01*
X53553Y138699D01*
X53359Y138779D01*
X53300Y138787D01*
Y138000D01*
Y137213D01*
X53359Y137221D01*
X53553Y137301D01*
X53721Y137429D01*
X53849Y137597D01*
X53929Y137791D01*
X53936Y137841D01*
X54064D01*
X54071Y137791D01*
X54151Y137597D01*
X54279Y137429D01*
X54447Y137301D01*
X54641Y137221D01*
X54850Y137193D01*
X55150D01*
X55359Y137221D01*
X55553Y137301D01*
X55721Y137429D01*
X55849Y137597D01*
X55879Y137669D01*
X56003Y137694D01*
X57886Y135811D01*
Y134583D01*
X57769Y134534D01*
X56151Y136151D01*
X56082Y136198D01*
X56000Y136214D01*
X55927D01*
X55849Y136403D01*
X55721Y136571D01*
X55553Y136699D01*
X55359Y136779D01*
X55150Y136807D01*
X54850D01*
X54641Y136779D01*
X54447Y136699D01*
X54279Y136571D01*
X54151Y136403D01*
X54071Y136209D01*
X54064Y136159D01*
X53936D01*
X53929Y136209D01*
X53849Y136403D01*
X53721Y136571D01*
X53553Y136699D01*
X53359Y136779D01*
X53300Y136787D01*
Y136000D01*
Y135213D01*
X53359Y135221D01*
X53553Y135301D01*
X53721Y135429D01*
X53849Y135597D01*
X53929Y135791D01*
X53936Y135841D01*
X54064D01*
X54071Y135791D01*
X54151Y135597D01*
X54279Y135429D01*
X54447Y135301D01*
X54641Y135221D01*
X54850Y135193D01*
X55150D01*
X55359Y135221D01*
X55553Y135301D01*
X55721Y135429D01*
X55849Y135597D01*
X55879Y135669D01*
X56003Y135694D01*
X57586Y134111D01*
Y132883D01*
X57469Y132834D01*
X56151Y134151D01*
X56082Y134198D01*
X56000Y134214D01*
X55927D01*
X55849Y134403D01*
X55721Y134571D01*
X55553Y134699D01*
X55359Y134779D01*
X55150Y134807D01*
X54850D01*
X54641Y134779D01*
X54447Y134699D01*
X54279Y134571D01*
X54151Y134403D01*
X54071Y134209D01*
X54064Y134159D01*
X53936D01*
X53929Y134209D01*
X53849Y134403D01*
X53721Y134571D01*
X53553Y134699D01*
X53359Y134779D01*
X53300Y134787D01*
Y134000D01*
Y133213D01*
X53359Y133221D01*
X53553Y133301D01*
X53721Y133429D01*
X53849Y133597D01*
X53929Y133791D01*
X53936Y133841D01*
X54064D01*
X54071Y133791D01*
X54151Y133597D01*
X54279Y133429D01*
X54447Y133301D01*
X54641Y133221D01*
X54850Y133193D01*
X55150D01*
X55359Y133221D01*
X55553Y133301D01*
X55721Y133429D01*
X55849Y133597D01*
X55879Y133669D01*
X56003Y133694D01*
X57286Y132411D01*
Y121789D01*
X54149Y118651D01*
X54102Y118582D01*
X54086Y118500D01*
Y104391D01*
X54102Y104309D01*
X54149Y104239D01*
X54850Y103538D01*
Y103430D01*
X54903Y103302D01*
X55002Y103203D01*
X55130Y103150D01*
X55270D01*
X55398Y103203D01*
X55497Y103302D01*
X55550Y103430D01*
Y103570D01*
X55497Y103698D01*
X55445Y103750D01*
X55497Y103802D01*
X55550Y103930D01*
Y104070D01*
X55497Y104198D01*
X55445Y104250D01*
X55497Y104302D01*
X55550Y104430D01*
Y104570D01*
X55497Y104698D01*
X55445Y104750D01*
X55497Y104802D01*
X55550Y104930D01*
Y105070D01*
X55497Y105198D01*
X55414Y105281D01*
Y118111D01*
X58551Y121249D01*
X58598Y121318D01*
X58614Y121400D01*
Y137600D01*
X58598Y137682D01*
X58551Y137751D01*
X56151Y140151D01*
X56082Y140198D01*
X56000Y140214D01*
X55927D01*
X55849Y140403D01*
X55721Y140571D01*
X55553Y140699D01*
X55359Y140779D01*
X55150Y140807D01*
D02*
G37*
G36*
X52700Y139700D02*
X52108D01*
X52151Y139597D01*
X52279Y139429D01*
X52447Y139301D01*
X52641Y139221D01*
X52700Y139213D01*
Y139700D01*
D02*
G37*
G36*
X52700Y138787D02*
X52641Y138779D01*
X52447Y138699D01*
X52279Y138571D01*
X52151Y138403D01*
X52108Y138300D01*
X52700D01*
Y138787D01*
D02*
G37*
G36*
Y137700D02*
X52108D01*
X52151Y137597D01*
X52279Y137429D01*
X52447Y137301D01*
X52641Y137221D01*
X52700Y137213D01*
Y137700D01*
D02*
G37*
G36*
X74920Y138200D02*
X74780D01*
X74652Y138147D01*
X74553Y138048D01*
X74500Y137920D01*
Y137780D01*
X74553Y137652D01*
X74605Y137600D01*
X74553Y137548D01*
X74500Y137420D01*
Y137280D01*
X74553Y137152D01*
X74652Y137053D01*
X74780Y137000D01*
X74920D01*
X75048Y137053D01*
X75147Y137152D01*
X75200Y137280D01*
Y137420D01*
X75147Y137548D01*
X75095Y137600D01*
X75147Y137652D01*
X75200Y137780D01*
Y137920D01*
X75147Y138048D01*
X75048Y138147D01*
X74920Y138200D01*
D02*
G37*
G36*
X69420Y139200D02*
X69280D01*
X69152Y139147D01*
X69069Y139064D01*
X68550D01*
X68468Y139048D01*
X68399Y139001D01*
X63749Y134351D01*
X63702Y134282D01*
X63686Y134200D01*
Y125589D01*
X57189Y119091D01*
X57142Y119022D01*
X57126Y118940D01*
Y110660D01*
X57142Y110578D01*
X57189Y110509D01*
X58150Y109547D01*
Y109430D01*
X58203Y109302D01*
X58302Y109203D01*
X58430Y109150D01*
X58570D01*
X58698Y109203D01*
X58797Y109302D01*
X58850Y109430D01*
Y109570D01*
X58797Y109698D01*
X58698Y109797D01*
X58570Y109850D01*
X58453D01*
X57554Y110749D01*
Y117799D01*
X57630Y117850D01*
X57770D01*
X57898Y117903D01*
X57950Y117955D01*
X58002Y117903D01*
X58130Y117850D01*
X58270D01*
X58398Y117903D01*
X58450Y117955D01*
X58502Y117903D01*
X58630Y117850D01*
X58770D01*
X58898Y117903D01*
X58950Y117955D01*
X59002Y117903D01*
X59130Y117850D01*
X59270D01*
X59398Y117903D01*
X59497Y118002D01*
X59550Y118130D01*
Y118270D01*
X59497Y118398D01*
X59414Y118481D01*
Y118811D01*
X65251Y124649D01*
X65298Y124718D01*
X65314Y124800D01*
Y133761D01*
X68189Y136636D01*
X69069D01*
X69152Y136553D01*
X69280Y136500D01*
X69420D01*
X69548Y136553D01*
X69647Y136652D01*
X69700Y136780D01*
Y136920D01*
X69647Y137048D01*
X69595Y137100D01*
X69647Y137152D01*
X69700Y137280D01*
Y137420D01*
X69647Y137548D01*
X69595Y137600D01*
X69647Y137652D01*
X69700Y137780D01*
Y137920D01*
X69647Y138048D01*
X69595Y138100D01*
X69647Y138152D01*
X69700Y138280D01*
Y138420D01*
X69647Y138548D01*
X69595Y138600D01*
X69647Y138652D01*
X69700Y138780D01*
Y138920D01*
X69647Y139048D01*
X69548Y139147D01*
X69420Y139200D01*
D02*
G37*
G36*
X52700Y136787D02*
X52641Y136779D01*
X52447Y136699D01*
X52279Y136571D01*
X52151Y136403D01*
X52108Y136300D01*
X52700D01*
Y136787D01*
D02*
G37*
G36*
X90870Y136950D02*
X90730D01*
X90602Y136897D01*
X90503Y136798D01*
X90450Y136670D01*
Y136530D01*
X90503Y136402D01*
X90602Y136303D01*
X90730Y136250D01*
X90870D01*
X90998Y136303D01*
X91097Y136402D01*
X91150Y136530D01*
Y136670D01*
X91097Y136798D01*
X90998Y136897D01*
X90870Y136950D01*
D02*
G37*
G36*
X69470Y136200D02*
X69330D01*
X69202Y136147D01*
X69200Y136145D01*
X69198Y136147D01*
X69070Y136200D01*
X68930D01*
X68802Y136147D01*
X68703Y136048D01*
X68650Y135920D01*
Y135780D01*
X68703Y135652D01*
X68802Y135553D01*
X68930Y135500D01*
X69070D01*
X69198Y135553D01*
X69200Y135555D01*
X69202Y135553D01*
X69330Y135500D01*
X69470D01*
X69598Y135553D01*
X69697Y135652D01*
X69750Y135780D01*
Y135920D01*
X69697Y136048D01*
X69598Y136147D01*
X69470Y136200D01*
D02*
G37*
G36*
X73225Y139587D02*
X70931D01*
X70816Y139540D01*
X70460Y139184D01*
X70413Y139069D01*
Y135775D01*
X70460Y135660D01*
X70575Y135613D01*
X73225D01*
X73340Y135660D01*
X73387Y135775D01*
Y139425D01*
X73340Y139540D01*
X73225Y139587D01*
D02*
G37*
G36*
X90870Y135950D02*
X90730D01*
X90602Y135897D01*
X90503Y135798D01*
X90450Y135670D01*
Y135530D01*
X90503Y135402D01*
X90602Y135303D01*
X90730Y135250D01*
X90870D01*
X90998Y135303D01*
X91097Y135402D01*
X91150Y135530D01*
Y135670D01*
X91097Y135798D01*
X90998Y135897D01*
X90870Y135950D01*
D02*
G37*
G36*
X52700Y135700D02*
X52108D01*
X52151Y135597D01*
X52279Y135429D01*
X52447Y135301D01*
X52641Y135221D01*
X52700Y135213D01*
Y135700D01*
D02*
G37*
G36*
X52700Y134787D02*
X52641Y134779D01*
X52447Y134699D01*
X52279Y134571D01*
X52151Y134403D01*
X52108Y134300D01*
X52700D01*
Y134787D01*
D02*
G37*
G36*
X72720Y134950D02*
X72580D01*
X72452Y134897D01*
X72353Y134798D01*
X72300Y134670D01*
Y134530D01*
X72353Y134402D01*
X72355Y134400D01*
X72353Y134398D01*
X72300Y134270D01*
Y134130D01*
X72353Y134002D01*
X72452Y133903D01*
X72580Y133850D01*
X72720D01*
X72848Y133903D01*
X72947Y134002D01*
X73000Y134130D01*
Y134270D01*
X72947Y134398D01*
X72945Y134400D01*
X72947Y134402D01*
X73000Y134530D01*
Y134670D01*
X72947Y134798D01*
X72848Y134897D01*
X72720Y134950D01*
D02*
G37*
G36*
X52700Y133700D02*
X52108D01*
X52151Y133597D01*
X52279Y133429D01*
X52447Y133301D01*
X52641Y133221D01*
X52700Y133213D01*
Y133700D01*
D02*
G37*
G36*
X73820Y133350D02*
X73680D01*
X73552Y133297D01*
X73453Y133198D01*
X73400Y133070D01*
Y132930D01*
X73453Y132802D01*
X73552Y132703D01*
X73680Y132650D01*
X73820D01*
X73948Y132703D01*
X74047Y132802D01*
X74100Y132930D01*
Y133070D01*
X74047Y133198D01*
X73948Y133297D01*
X73820Y133350D01*
D02*
G37*
G36*
X70120D02*
X69980D01*
X69852Y133297D01*
X69753Y133198D01*
X69700Y133070D01*
Y132930D01*
X69753Y132802D01*
X69852Y132703D01*
X69980Y132650D01*
X70120D01*
X70248Y132703D01*
X70347Y132802D01*
X70400Y132930D01*
Y133070D01*
X70347Y133198D01*
X70248Y133297D01*
X70120Y133350D01*
D02*
G37*
G36*
X52700Y132787D02*
X52641Y132779D01*
X52447Y132699D01*
X52279Y132571D01*
X52151Y132403D01*
X52108Y132300D01*
X52700D01*
Y132787D01*
D02*
G37*
G36*
X55150Y132807D02*
X54850D01*
X54641Y132779D01*
X54447Y132699D01*
X54279Y132571D01*
X54151Y132403D01*
X54071Y132209D01*
X54064Y132159D01*
X53936D01*
X53929Y132209D01*
X53849Y132403D01*
X53721Y132571D01*
X53553Y132699D01*
X53359Y132779D01*
X53300Y132787D01*
Y132000D01*
Y131213D01*
X53359Y131221D01*
X53553Y131301D01*
X53721Y131429D01*
X53849Y131597D01*
X53929Y131791D01*
X53936Y131841D01*
X54064D01*
X54071Y131791D01*
X54151Y131597D01*
X54279Y131429D01*
X54447Y131301D01*
X54641Y131221D01*
X54850Y131193D01*
X55150D01*
X55359Y131221D01*
X55553Y131301D01*
X55721Y131429D01*
X55849Y131597D01*
X55929Y131791D01*
X55957Y132000D01*
X55929Y132209D01*
X55849Y132403D01*
X55721Y132571D01*
X55553Y132699D01*
X55359Y132779D01*
X55150Y132807D01*
D02*
G37*
G36*
X52700Y131700D02*
X52108D01*
X52151Y131597D01*
X52279Y131429D01*
X52447Y131301D01*
X52641Y131221D01*
X52700Y131213D01*
Y131700D01*
D02*
G37*
G36*
X95070Y131425D02*
X94930D01*
X94802Y131372D01*
X94703Y131273D01*
X94650Y131145D01*
Y131005D01*
X94703Y130877D01*
X94802Y130778D01*
X94930Y130725D01*
X95070D01*
X95198Y130778D01*
X95297Y130877D01*
X95350Y131005D01*
Y131145D01*
X95297Y131273D01*
X95198Y131372D01*
X95070Y131425D01*
D02*
G37*
G36*
X91870D02*
X91730D01*
X91602Y131372D01*
X91503Y131273D01*
X91450Y131145D01*
Y131005D01*
X91503Y130877D01*
X91602Y130778D01*
X91730Y130725D01*
X91870D01*
X91998Y130778D01*
X92097Y130877D01*
X92150Y131005D01*
Y131145D01*
X92097Y131273D01*
X91998Y131372D01*
X91870Y131425D01*
D02*
G37*
G36*
X52700Y130787D02*
X52641Y130779D01*
X52447Y130699D01*
X52279Y130571D01*
X52151Y130403D01*
X52108Y130300D01*
X52700D01*
Y130787D01*
D02*
G37*
G36*
X55150Y130807D02*
X54850D01*
X54641Y130779D01*
X54447Y130699D01*
X54279Y130571D01*
X54151Y130403D01*
X54071Y130209D01*
X54064Y130159D01*
X53936D01*
X53929Y130209D01*
X53849Y130403D01*
X53721Y130571D01*
X53553Y130699D01*
X53359Y130779D01*
X53300Y130787D01*
Y130000D01*
Y129213D01*
X53359Y129221D01*
X53553Y129301D01*
X53721Y129429D01*
X53849Y129597D01*
X53929Y129791D01*
X53936Y129841D01*
X54064D01*
X54071Y129791D01*
X54151Y129597D01*
X54279Y129429D01*
X54447Y129301D01*
X54641Y129221D01*
X54850Y129193D01*
X55150D01*
X55359Y129221D01*
X55553Y129301D01*
X55721Y129429D01*
X55849Y129597D01*
X55929Y129791D01*
X55957Y130000D01*
X55929Y130209D01*
X55849Y130403D01*
X55721Y130571D01*
X55553Y130699D01*
X55359Y130779D01*
X55150Y130807D01*
D02*
G37*
G36*
X66090Y130450D02*
X65910D01*
X65745Y130381D01*
X65619Y130255D01*
X65550Y130090D01*
Y129910D01*
X65619Y129745D01*
X65745Y129619D01*
X65910Y129550D01*
X66090D01*
X66255Y129619D01*
X66381Y129745D01*
X66450Y129910D01*
Y130090D01*
X66381Y130255D01*
X66255Y130381D01*
X66090Y130450D01*
D02*
G37*
G36*
X52700Y129700D02*
X52108D01*
X52151Y129597D01*
X52279Y129429D01*
X52447Y129301D01*
X52641Y129221D01*
X52700Y129213D01*
Y129700D01*
D02*
G37*
G36*
X73820Y130250D02*
X73680D01*
X73552Y130197D01*
X73453Y130098D01*
X73400Y129970D01*
Y129830D01*
X73453Y129702D01*
X73455Y129700D01*
X73453Y129698D01*
X73400Y129570D01*
Y129430D01*
X73453Y129302D01*
X73552Y129203D01*
X73680Y129150D01*
X73820D01*
X73948Y129203D01*
X74047Y129302D01*
X74100Y129430D01*
Y129570D01*
X74047Y129698D01*
X74045Y129700D01*
X74047Y129702D01*
X74100Y129830D01*
Y129970D01*
X74047Y130098D01*
X73948Y130197D01*
X73820Y130250D01*
D02*
G37*
G36*
X72520Y129800D02*
X72380D01*
X72252Y129747D01*
X72153Y129648D01*
X72100Y129520D01*
Y129380D01*
X72153Y129252D01*
X72252Y129153D01*
X72380Y129100D01*
X72520D01*
X72648Y129153D01*
X72747Y129252D01*
X72800Y129380D01*
Y129520D01*
X72747Y129648D01*
X72648Y129747D01*
X72520Y129800D01*
D02*
G37*
G36*
X71420D02*
X71280D01*
X71152Y129747D01*
X71053Y129648D01*
X71000Y129520D01*
Y129380D01*
X71053Y129252D01*
X71152Y129153D01*
X71280Y129100D01*
X71420D01*
X71548Y129153D01*
X71647Y129252D01*
X71700Y129380D01*
Y129520D01*
X71647Y129648D01*
X71548Y129747D01*
X71420Y129800D01*
D02*
G37*
G36*
X95070Y124125D02*
X94930D01*
X94802Y124072D01*
X94703Y123973D01*
X94650Y123845D01*
Y123705D01*
X94703Y123577D01*
X94802Y123478D01*
X94930Y123425D01*
X95070D01*
X95198Y123478D01*
X95297Y123577D01*
X95350Y123705D01*
Y123845D01*
X95297Y123973D01*
X95198Y124072D01*
X95070Y124125D01*
D02*
G37*
G36*
X91870D02*
X91730D01*
X91602Y124072D01*
X91503Y123973D01*
X91450Y123845D01*
Y123705D01*
X91503Y123577D01*
X91602Y123478D01*
X91730Y123425D01*
X91870D01*
X91998Y123478D01*
X92097Y123577D01*
X92150Y123705D01*
Y123845D01*
X92097Y123973D01*
X91998Y124072D01*
X91870Y124125D01*
D02*
G37*
G36*
X96470Y118575D02*
X96330D01*
X96202Y118522D01*
X96103Y118423D01*
X96050Y118295D01*
Y118155D01*
X96103Y118027D01*
X96202Y117928D01*
X96330Y117875D01*
X96470D01*
X96598Y117928D01*
X96697Y118027D01*
X96750Y118155D01*
Y118295D01*
X96697Y118423D01*
X96598Y118522D01*
X96470Y118575D01*
D02*
G37*
G36*
X81470D02*
X81330D01*
X81202Y118522D01*
X81103Y118423D01*
X81050Y118295D01*
Y118155D01*
X81103Y118027D01*
X81202Y117928D01*
X81330Y117875D01*
X81470D01*
X81598Y117928D01*
X81697Y118027D01*
X81750Y118155D01*
Y118295D01*
X81697Y118423D01*
X81598Y118522D01*
X81470Y118575D01*
D02*
G37*
G36*
X90775Y118225D02*
X89100D01*
Y116550D01*
X90775D01*
Y118225D01*
D02*
G37*
G36*
X88700D02*
X87025D01*
Y116550D01*
X88700D01*
Y118225D01*
D02*
G37*
G36*
X90220Y115800D02*
X90080D01*
X89952Y115747D01*
X89853Y115648D01*
X89800Y115520D01*
Y115380D01*
X89853Y115252D01*
X89952Y115153D01*
X90080Y115100D01*
X90220D01*
X90348Y115153D01*
X90447Y115252D01*
X90500Y115380D01*
Y115520D01*
X90447Y115648D01*
X90348Y115747D01*
X90220Y115800D01*
D02*
G37*
G36*
X85365Y114150D02*
X85185D01*
X85020Y114081D01*
X84975Y114036D01*
X84930Y114081D01*
X84765Y114150D01*
X84585D01*
X84420Y114081D01*
X84294Y113955D01*
X84225Y113790D01*
Y113610D01*
X84294Y113445D01*
X84420Y113319D01*
X84585Y113250D01*
X84765D01*
X84930Y113319D01*
X84975Y113364D01*
X85020Y113319D01*
X85185Y113250D01*
X85365D01*
X85530Y113319D01*
X85656Y113445D01*
X85725Y113610D01*
Y113790D01*
X85656Y113955D01*
X85530Y114081D01*
X85365Y114150D01*
D02*
G37*
G36*
X60120Y116650D02*
X59980D01*
X59852Y116597D01*
X59753Y116498D01*
X59700Y116370D01*
Y116230D01*
X59753Y116102D01*
X59836Y116019D01*
Y114950D01*
X59852Y114868D01*
X59899Y114799D01*
X62150Y112547D01*
Y112430D01*
X62203Y112302D01*
X62302Y112203D01*
X62430Y112150D01*
X62570D01*
X62698Y112203D01*
X62797Y112302D01*
X62850Y112430D01*
Y112570D01*
X62797Y112698D01*
X62698Y112797D01*
X62570Y112850D01*
X62453D01*
X60264Y115039D01*
Y116019D01*
X60347Y116102D01*
X60400Y116230D01*
Y116370D01*
X60347Y116498D01*
X60248Y116597D01*
X60120Y116650D01*
D02*
G37*
G36*
X60570Y112850D02*
X60430D01*
X60302Y112797D01*
X60203Y112698D01*
X60150Y112570D01*
Y112430D01*
X60203Y112302D01*
X60302Y112203D01*
X60430Y112150D01*
X60570D01*
X60698Y112203D01*
X60797Y112302D01*
X60850Y112430D01*
Y112570D01*
X60797Y112698D01*
X60698Y112797D01*
X60570Y112850D01*
D02*
G37*
G36*
X71945Y116592D02*
X71805D01*
X71677Y116539D01*
X71578Y116440D01*
X71525Y116312D01*
Y116195D01*
X67044Y111714D01*
X63781D01*
X63698Y111797D01*
X63570Y111850D01*
X63430D01*
X63302Y111797D01*
X63203Y111698D01*
X63150Y111570D01*
Y111430D01*
X63203Y111302D01*
X63302Y111203D01*
X63430Y111150D01*
X63570D01*
X63698Y111203D01*
X63781Y111286D01*
X67133D01*
X67215Y111302D01*
X67284Y111349D01*
X71828Y115892D01*
X71945D01*
X72073Y115945D01*
X72172Y116044D01*
X72225Y116172D01*
Y116312D01*
X72172Y116440D01*
X72073Y116539D01*
X71945Y116592D01*
D02*
G37*
G36*
X69570Y111850D02*
X69430D01*
X69302Y111797D01*
X69203Y111698D01*
X69150Y111570D01*
Y111430D01*
X69203Y111302D01*
X69302Y111203D01*
X69430Y111150D01*
X69570D01*
X69698Y111203D01*
X69797Y111302D01*
X69850Y111430D01*
Y111570D01*
X69797Y111698D01*
X69698Y111797D01*
X69570Y111850D01*
D02*
G37*
G36*
X71570Y110850D02*
X71430D01*
X71302Y110797D01*
X71203Y110698D01*
X71150Y110570D01*
Y110430D01*
X71203Y110302D01*
X71302Y110203D01*
X71430Y110150D01*
X71570D01*
X71698Y110203D01*
X71797Y110302D01*
X71850Y110430D01*
Y110570D01*
X71797Y110698D01*
X71698Y110797D01*
X71570Y110850D01*
D02*
G37*
G36*
X68620Y109850D02*
X68480D01*
X68352Y109797D01*
X68253Y109698D01*
X68200Y109570D01*
Y109430D01*
X68253Y109302D01*
X68352Y109203D01*
X68480Y109150D01*
X68620D01*
X68748Y109203D01*
X68847Y109302D01*
X68900Y109430D01*
Y109570D01*
X68847Y109698D01*
X68748Y109797D01*
X68620Y109850D01*
D02*
G37*
G36*
X67570D02*
X67430D01*
X67302Y109797D01*
X67203Y109698D01*
X67150Y109570D01*
Y109430D01*
X67203Y109302D01*
X67302Y109203D01*
X67430Y109150D01*
X67570D01*
X67698Y109203D01*
X67797Y109302D01*
X67850Y109430D01*
Y109570D01*
X67797Y109698D01*
X67698Y109797D01*
X67570Y109850D01*
D02*
G37*
G36*
X65570D02*
X65430D01*
X65302Y109797D01*
X65203Y109698D01*
X65150Y109570D01*
Y109430D01*
X65203Y109302D01*
X65302Y109203D01*
X65430Y109150D01*
X65570D01*
X65698Y109203D01*
X65797Y109302D01*
X65850Y109430D01*
Y109570D01*
X65797Y109698D01*
X65698Y109797D01*
X65570Y109850D01*
D02*
G37*
G36*
X64570D02*
X64430D01*
X64302Y109797D01*
X64203Y109698D01*
X64150Y109570D01*
Y109430D01*
X64203Y109302D01*
X64302Y109203D01*
X64430Y109150D01*
X64570D01*
X64698Y109203D01*
X64797Y109302D01*
X64850Y109430D01*
Y109570D01*
X64797Y109698D01*
X64698Y109797D01*
X64570Y109850D01*
D02*
G37*
G36*
X69570Y108850D02*
X69430D01*
X69302Y108797D01*
X69203Y108698D01*
X69150Y108570D01*
Y108430D01*
X69203Y108302D01*
X69302Y108203D01*
X69430Y108150D01*
X69570D01*
X69698Y108203D01*
X69797Y108302D01*
X69850Y108430D01*
Y108570D01*
X69797Y108698D01*
X69698Y108797D01*
X69570Y108850D01*
D02*
G37*
G36*
X63570D02*
X63430D01*
X63302Y108797D01*
X63203Y108698D01*
X63150Y108570D01*
Y108430D01*
X63203Y108302D01*
X63302Y108203D01*
X63430Y108150D01*
X63570D01*
X63698Y108203D01*
X63797Y108302D01*
X63850Y108430D01*
Y108570D01*
X63797Y108698D01*
X63698Y108797D01*
X63570Y108850D01*
D02*
G37*
G36*
X69570Y107850D02*
X69430D01*
X69302Y107797D01*
X69203Y107698D01*
X69150Y107570D01*
Y107430D01*
X69203Y107302D01*
X69302Y107203D01*
X69430Y107150D01*
X69570D01*
X69698Y107203D01*
X69797Y107302D01*
X69850Y107430D01*
Y107570D01*
X69797Y107698D01*
X69698Y107797D01*
X69570Y107850D01*
D02*
G37*
G36*
X63570D02*
X63430D01*
X63302Y107797D01*
X63203Y107698D01*
X63150Y107570D01*
Y107430D01*
X63203Y107302D01*
X63302Y107203D01*
X63430Y107150D01*
X63570D01*
X63698Y107203D01*
X63797Y107302D01*
X63850Y107430D01*
Y107570D01*
X63797Y107698D01*
X63698Y107797D01*
X63570Y107850D01*
D02*
G37*
G36*
X69570Y105850D02*
X69430D01*
X69302Y105797D01*
X69203Y105698D01*
X69150Y105570D01*
Y105430D01*
X69203Y105302D01*
X69302Y105203D01*
X69430Y105150D01*
X69570D01*
X69698Y105203D01*
X69797Y105302D01*
X69850Y105430D01*
Y105570D01*
X69797Y105698D01*
X69698Y105797D01*
X69570Y105850D01*
D02*
G37*
G36*
X63570D02*
X63430D01*
X63302Y105797D01*
X63203Y105698D01*
X63150Y105570D01*
Y105430D01*
X63203Y105302D01*
X63302Y105203D01*
X63430Y105150D01*
X63570D01*
X63698Y105203D01*
X63797Y105302D01*
X63850Y105430D01*
Y105570D01*
X63797Y105698D01*
X63698Y105797D01*
X63570Y105850D01*
D02*
G37*
G36*
X91850Y106836D02*
X90930Y105917D01*
X91850Y104998D01*
X92769Y105917D01*
X91850Y106836D01*
D02*
G37*
G36*
X73570Y104850D02*
X73430D01*
X73302Y104797D01*
X73203Y104698D01*
X73150Y104570D01*
Y104453D01*
X72911Y104214D01*
X69919D01*
X69834Y104341D01*
X69850Y104380D01*
Y104520D01*
X69797Y104648D01*
X69698Y104747D01*
X69570Y104800D01*
X69430D01*
X69302Y104747D01*
X69203Y104648D01*
X69150Y104520D01*
Y104380D01*
X69166Y104341D01*
X69081Y104214D01*
X63875D01*
X63813Y104341D01*
X63850Y104430D01*
Y104570D01*
X63797Y104698D01*
X63698Y104797D01*
X63570Y104850D01*
X63430D01*
X63302Y104797D01*
X63203Y104698D01*
X63150Y104570D01*
Y104430D01*
X63187Y104341D01*
X63125Y104214D01*
X57381D01*
X57298Y104297D01*
X57170Y104350D01*
X57030D01*
X56902Y104297D01*
X56803Y104198D01*
X56750Y104070D01*
Y103930D01*
X56803Y103802D01*
X56902Y103703D01*
X57030Y103650D01*
X57170D01*
X57298Y103703D01*
X57381Y103786D01*
X64125D01*
X64187Y103659D01*
X64150Y103570D01*
Y103430D01*
X64203Y103302D01*
X64302Y103203D01*
X64430Y103150D01*
X64570D01*
X64698Y103203D01*
X64797Y103302D01*
X64850Y103430D01*
Y103570D01*
X64813Y103659D01*
X64875Y103786D01*
X65125D01*
X65187Y103659D01*
X65150Y103570D01*
Y103430D01*
X65203Y103302D01*
X65302Y103203D01*
X65430Y103150D01*
X65570D01*
X65698Y103203D01*
X65797Y103302D01*
X65850Y103430D01*
Y103570D01*
X65813Y103659D01*
X65875Y103786D01*
X67125D01*
X67187Y103659D01*
X67150Y103570D01*
Y103430D01*
X67203Y103302D01*
X67302Y103203D01*
X67430Y103150D01*
X67570D01*
X67698Y103203D01*
X67797Y103302D01*
X67850Y103430D01*
Y103570D01*
X67813Y103659D01*
X67875Y103786D01*
X73000D01*
X73082Y103802D01*
X73151Y103849D01*
X73453Y104150D01*
X73570D01*
X73698Y104203D01*
X73797Y104302D01*
X73850Y104430D01*
Y104570D01*
X73797Y104698D01*
X73698Y104797D01*
X73570Y104850D01*
D02*
G37*
G36*
X90648Y105634D02*
X89728Y104715D01*
X90648Y103795D01*
X91567Y104715D01*
X90648Y105634D01*
D02*
G37*
G36*
X71570Y102850D02*
X71430D01*
X71302Y102797D01*
X71203Y102698D01*
X71150Y102570D01*
Y102430D01*
X71203Y102302D01*
X71302Y102203D01*
X71430Y102150D01*
X71570D01*
X71698Y102203D01*
X71797Y102302D01*
X71850Y102430D01*
Y102570D01*
X71797Y102698D01*
X71698Y102797D01*
X71570Y102850D01*
D02*
G37*
G36*
X81840Y103050D02*
X81660D01*
X81495Y102981D01*
X81369Y102855D01*
X81300Y102690D01*
Y102510D01*
X81369Y102345D01*
X81414Y102300D01*
X81369Y102255D01*
X81300Y102090D01*
Y101910D01*
X81369Y101745D01*
X81495Y101619D01*
X81660Y101550D01*
X81840D01*
X82005Y101619D01*
X82131Y101745D01*
X82200Y101910D01*
Y102090D01*
X82131Y102255D01*
X82086Y102300D01*
X82131Y102345D01*
X82200Y102510D01*
Y102690D01*
X82131Y102855D01*
X82005Y102981D01*
X81840Y103050D01*
D02*
G37*
G36*
X64570Y101850D02*
X64430D01*
X64302Y101797D01*
X64203Y101698D01*
X64150Y101570D01*
Y101430D01*
X64203Y101302D01*
X64302Y101203D01*
X64430Y101150D01*
X64570D01*
X64698Y101203D01*
X64797Y101302D01*
X64850Y101430D01*
Y101570D01*
X64797Y101698D01*
X64698Y101797D01*
X64570Y101850D01*
D02*
G37*
G36*
X91020Y101877D02*
X90841D01*
X90676Y101808D01*
X90549Y101682D01*
X90480Y101516D01*
Y101452D01*
X90417D01*
X90251Y101384D01*
X90125Y101257D01*
X90056Y101092D01*
Y100913D01*
X90125Y100747D01*
X90251Y100621D01*
X90417Y100552D01*
X90596D01*
X90761Y100621D01*
X90888Y100747D01*
X90956Y100913D01*
Y100977D01*
X91020D01*
X91185Y101045D01*
X91312Y101172D01*
X91380Y101337D01*
Y101516D01*
X91312Y101682D01*
X91185Y101808D01*
X91020Y101877D01*
D02*
G37*
G36*
X73570Y98850D02*
X73430D01*
X73302Y98797D01*
X73203Y98698D01*
X73150Y98570D01*
Y98430D01*
X73203Y98302D01*
X73279Y98226D01*
Y97912D01*
X73161Y97863D01*
X72760Y98265D01*
X72797Y98302D01*
X72850Y98430D01*
Y98570D01*
X72797Y98698D01*
X72698Y98797D01*
X72570Y98850D01*
X72430D01*
X72302Y98797D01*
X72203Y98698D01*
X72150Y98570D01*
Y98430D01*
X72203Y98302D01*
X72271Y98234D01*
Y98199D01*
X72289Y98112D01*
X72338Y98037D01*
X88900Y81476D01*
X88900Y81476D01*
X88974Y81426D01*
X89062Y81408D01*
X90467D01*
X91329Y80547D01*
X91323Y80481D01*
X91187Y80400D01*
X91008D01*
X90843Y80331D01*
X90716Y80205D01*
X90648Y80039D01*
Y79860D01*
X90716Y79695D01*
X90843Y79568D01*
X91008Y79500D01*
X91072D01*
Y79436D01*
X91140Y79270D01*
X91267Y79144D01*
X91432Y79075D01*
X91611D01*
X91777Y79144D01*
X91903Y79270D01*
X91972Y79436D01*
Y79526D01*
X92099Y79579D01*
X92404Y79273D01*
Y79178D01*
X92458Y79049D01*
X92556Y78951D01*
X92685Y78898D01*
X92824D01*
X92953Y78951D01*
X93051Y79049D01*
X93104Y79178D01*
Y79251D01*
X93178D01*
X93306Y79304D01*
X93405Y79403D01*
X93458Y79531D01*
Y79671D01*
X93405Y79799D01*
X93306Y79898D01*
X93178Y79951D01*
X93082D01*
X90971Y82062D01*
X90897Y82112D01*
X90809Y82129D01*
X89395D01*
X73737Y97787D01*
Y98242D01*
X73797Y98302D01*
X73850Y98430D01*
Y98570D01*
X73797Y98698D01*
X73698Y98797D01*
X73570Y98850D01*
D02*
G37*
G36*
X62190Y93300D02*
X62010D01*
X61845Y93231D01*
X61775Y93161D01*
X61705Y93231D01*
X61540Y93300D01*
X61360D01*
X61195Y93231D01*
X61125Y93161D01*
X61055Y93231D01*
X60890Y93300D01*
X60710D01*
X60545Y93231D01*
X60419Y93105D01*
X60350Y92940D01*
Y92760D01*
X60419Y92595D01*
X60545Y92469D01*
X60710Y92400D01*
X60890D01*
X61055Y92469D01*
X61125Y92539D01*
X61195Y92469D01*
X61360Y92400D01*
X61540D01*
X61705Y92469D01*
X61775Y92539D01*
X61845Y92469D01*
X62010Y92400D01*
X62190D01*
X62355Y92469D01*
X62481Y92595D01*
X62550Y92760D01*
Y92940D01*
X62481Y93105D01*
X62355Y93231D01*
X62190Y93300D01*
D02*
G37*
G36*
X94190Y92150D02*
X94010D01*
X93845Y92081D01*
X93719Y91955D01*
X93650Y91790D01*
Y91610D01*
X93719Y91445D01*
X93764Y91400D01*
X93719Y91355D01*
X93650Y91190D01*
Y91010D01*
X93719Y90845D01*
X93845Y90719D01*
X94010Y90650D01*
X94190D01*
X94355Y90719D01*
X94481Y90845D01*
X94550Y91010D01*
Y91190D01*
X94481Y91355D01*
X94436Y91400D01*
X94481Y91445D01*
X94550Y91610D01*
Y91790D01*
X94481Y91955D01*
X94355Y92081D01*
X94190Y92150D01*
D02*
G37*
G36*
X80040Y90050D02*
X79860D01*
X79695Y89981D01*
X79650Y89936D01*
X79605Y89981D01*
X79440Y90050D01*
X79260D01*
X79095Y89981D01*
X79050Y89936D01*
X79005Y89981D01*
X78840Y90050D01*
X78660D01*
X78495Y89981D01*
X78369Y89855D01*
X78300Y89690D01*
Y89510D01*
X78369Y89345D01*
X78495Y89219D01*
X78660Y89150D01*
X78840D01*
X79005Y89219D01*
X79050Y89264D01*
X79095Y89219D01*
X79260Y89150D01*
X79440D01*
X79605Y89219D01*
X79650Y89264D01*
X79695Y89219D01*
X79860Y89150D01*
X80040D01*
X80205Y89219D01*
X80331Y89345D01*
X80400Y89510D01*
Y89690D01*
X80331Y89855D01*
X80205Y89981D01*
X80040Y90050D01*
D02*
G37*
G36*
X68495Y89500D02*
X68355D01*
X68227Y89447D01*
X68128Y89348D01*
X68075Y89220D01*
Y89080D01*
X68128Y88952D01*
X68227Y88853D01*
X68355Y88800D01*
X68495D01*
X68623Y88853D01*
X68722Y88952D01*
X68775Y89080D01*
Y89220D01*
X68722Y89348D01*
X68623Y89447D01*
X68495Y89500D01*
D02*
G37*
G36*
X96405Y86350D02*
X95830D01*
Y85775D01*
X96405D01*
Y86350D01*
D02*
G37*
G36*
X95430D02*
X94855D01*
Y85775D01*
X95430D01*
Y86350D01*
D02*
G37*
G36*
X104615Y87138D02*
X104435D01*
X104270Y87070D01*
X104144Y86943D01*
X104075Y86778D01*
Y86599D01*
X104144Y86433D01*
X104189Y86388D01*
X104144Y86343D01*
X104075Y86178D01*
Y85999D01*
X104144Y85833D01*
X104270Y85707D01*
X104435Y85638D01*
X104615D01*
X104780Y85707D01*
X104906Y85833D01*
X104975Y85999D01*
Y86178D01*
X104906Y86343D01*
X104861Y86388D01*
X104906Y86433D01*
X104975Y86599D01*
Y86778D01*
X104906Y86943D01*
X104780Y87070D01*
X104615Y87138D01*
D02*
G37*
G36*
X96405Y85375D02*
X95830D01*
Y84800D01*
X96405D01*
Y85375D01*
D02*
G37*
G36*
X95430D02*
X94855D01*
Y84800D01*
X95430D01*
Y85375D01*
D02*
G37*
G36*
X66245Y84175D02*
X66105D01*
X65977Y84122D01*
X65878Y84023D01*
X65825Y83895D01*
Y83755D01*
X65878Y83627D01*
X65977Y83528D01*
X66105Y83475D01*
X66245D01*
X66373Y83528D01*
X66472Y83627D01*
X66525Y83755D01*
Y83895D01*
X66472Y84023D01*
X66373Y84122D01*
X66245Y84175D01*
D02*
G37*
G36*
X94191Y78836D02*
X93820Y78465D01*
X94191Y78093D01*
X94563Y78465D01*
X94191Y78836D01*
D02*
G37*
G36*
X94845Y78182D02*
X94474Y77811D01*
X94845Y77439D01*
X95217Y77811D01*
X94845Y78182D01*
D02*
G37*
G36*
X93537Y78182D02*
X93166Y77811D01*
X93537Y77439D01*
X93908Y77811D01*
X93537Y78182D01*
D02*
G37*
G36*
X94191Y77528D02*
X93820Y77157D01*
X94191Y76785D01*
X94563Y77157D01*
X94191Y77528D01*
D02*
G37*
G36*
X71990Y76050D02*
X71810D01*
X71645Y75981D01*
X71600Y75936D01*
X71555Y75981D01*
X71390Y76050D01*
X71210D01*
X71045Y75981D01*
X70919Y75855D01*
X70850Y75690D01*
Y75510D01*
X70919Y75345D01*
X71045Y75219D01*
X71210Y75150D01*
X71390D01*
X71555Y75219D01*
X71600Y75264D01*
X71645Y75219D01*
X71810Y75150D01*
X71990D01*
X72155Y75219D01*
X72281Y75345D01*
X72350Y75510D01*
Y75690D01*
X72281Y75855D01*
X72155Y75981D01*
X71990Y76050D01*
D02*
G37*
G36*
X59890Y75650D02*
X59710D01*
X59545Y75581D01*
X59513Y75549D01*
X59480Y75581D01*
X59315Y75650D01*
X59135D01*
X58970Y75581D01*
X58844Y75455D01*
X58775Y75290D01*
Y75110D01*
X58844Y74945D01*
X58970Y74819D01*
X59135Y74750D01*
X59315D01*
X59480Y74819D01*
X59513Y74851D01*
X59545Y74819D01*
X59710Y74750D01*
X59890D01*
X60055Y74819D01*
X60181Y74945D01*
X60250Y75110D01*
Y75290D01*
X60181Y75455D01*
X60055Y75581D01*
X59890Y75650D01*
D02*
G37*
G36*
X54490D02*
X54310D01*
X54145Y75581D01*
X54100Y75536D01*
X54055Y75581D01*
X53890Y75650D01*
X53710D01*
X53545Y75581D01*
X53419Y75455D01*
X53350Y75290D01*
Y75110D01*
X53419Y74945D01*
X53545Y74819D01*
X53710Y74750D01*
X53890D01*
X54055Y74819D01*
X54100Y74864D01*
X54145Y74819D01*
X54310Y74750D01*
X54490D01*
X54655Y74819D01*
X54781Y74945D01*
X54850Y75110D01*
Y75290D01*
X54781Y75455D01*
X54655Y75581D01*
X54490Y75650D01*
D02*
G37*
G36*
X65570Y98850D02*
X65430D01*
X65302Y98797D01*
X65203Y98698D01*
X65150Y98570D01*
Y98430D01*
X65203Y98302D01*
X65302Y98203D01*
X65430Y98150D01*
X65526D01*
X73446Y90230D01*
Y84641D01*
X73378Y84573D01*
X73325Y84445D01*
Y84305D01*
X73378Y84177D01*
X73446Y84109D01*
Y81270D01*
X69588Y77412D01*
X69538Y77338D01*
X69521Y77250D01*
Y75842D01*
X69495Y75831D01*
X69369Y75705D01*
X69300Y75540D01*
Y75360D01*
X69369Y75195D01*
X69495Y75069D01*
X69660Y75000D01*
X69840D01*
X70005Y75069D01*
X70131Y75195D01*
X70200Y75360D01*
Y75540D01*
X70131Y75705D01*
X70005Y75831D01*
X69979Y75842D01*
Y77155D01*
X73837Y81013D01*
X73887Y81087D01*
X73904Y81175D01*
Y84109D01*
X73972Y84177D01*
X74025Y84305D01*
Y84445D01*
X73972Y84573D01*
X73904Y84641D01*
Y90325D01*
X73887Y90413D01*
X73837Y90487D01*
X65850Y98474D01*
Y98570D01*
X65797Y98698D01*
X65698Y98797D01*
X65570Y98850D01*
D02*
G37*
G36*
X64570D02*
X64430D01*
X64302Y98797D01*
X64203Y98698D01*
X64150Y98570D01*
Y98430D01*
X64203Y98302D01*
X64271Y98234D01*
Y78800D01*
X64288Y78712D01*
X64338Y78638D01*
X65721Y77255D01*
Y75842D01*
X65695Y75831D01*
X65569Y75705D01*
X65500Y75540D01*
Y75360D01*
X65569Y75195D01*
X65695Y75069D01*
X65860Y75000D01*
X66040D01*
X66205Y75069D01*
X66331Y75195D01*
X66400Y75360D01*
Y75540D01*
X66331Y75705D01*
X66205Y75831D01*
X66179Y75842D01*
Y77350D01*
X66162Y77438D01*
X66112Y77512D01*
X64729Y78895D01*
Y98234D01*
X64797Y98302D01*
X64850Y98430D01*
Y98570D01*
X64797Y98698D01*
X64698Y98797D01*
X64570Y98850D01*
D02*
G37*
G36*
X68890Y71950D02*
X68710D01*
X68545Y71881D01*
X68444Y71780D01*
X67000D01*
X66893Y71759D01*
X66802Y71698D01*
X65502Y70398D01*
X65457Y70332D01*
X65331Y70353D01*
X65330Y70353D01*
Y71194D01*
X65381Y71245D01*
X65450Y71410D01*
Y71590D01*
X65381Y71755D01*
X65255Y71881D01*
X65090Y71950D01*
X64910D01*
X64745Y71881D01*
X64619Y71755D01*
X64550Y71590D01*
Y71410D01*
X64619Y71245D01*
X64745Y71119D01*
X64770Y71108D01*
Y60006D01*
X64719Y59955D01*
X64650Y59790D01*
Y59610D01*
X64719Y59445D01*
X64845Y59319D01*
X65010Y59250D01*
X65190D01*
X65293Y59293D01*
X65420Y59217D01*
Y58816D01*
X65153Y58550D01*
X65010D01*
X64845Y58481D01*
X64719Y58355D01*
X64650Y58190D01*
Y58010D01*
X64719Y57845D01*
X64845Y57719D01*
X65010Y57650D01*
X65190D01*
X65355Y57719D01*
X65481Y57845D01*
X65550Y58010D01*
Y58153D01*
X65898Y58502D01*
X65959Y58593D01*
X65980Y58700D01*
Y70084D01*
X67116Y71220D01*
X68444D01*
X68545Y71119D01*
X68710Y71050D01*
X68890D01*
X69055Y71119D01*
X69181Y71245D01*
X69250Y71410D01*
Y71590D01*
X69181Y71755D01*
X69055Y71881D01*
X68890Y71950D01*
D02*
G37*
G36*
X68790Y60150D02*
X68610D01*
X68445Y60081D01*
X68319Y59955D01*
X68250Y59790D01*
Y59610D01*
X68319Y59445D01*
X68445Y59319D01*
X68610Y59250D01*
X68790D01*
X68955Y59319D01*
X69081Y59445D01*
X69150Y59610D01*
Y59790D01*
X69081Y59955D01*
X68955Y60081D01*
X68790Y60150D01*
D02*
G37*
G36*
X93698Y59244D02*
Y58747D01*
X94195D01*
X94174Y58827D01*
X94078Y58992D01*
X93943Y59127D01*
X93778Y59223D01*
X93698Y59244D01*
D02*
G37*
G36*
X93298D02*
X93218Y59223D01*
X93053Y59127D01*
X92918Y58992D01*
X92822Y58827D01*
X92801Y58747D01*
X93298D01*
Y59244D01*
D02*
G37*
G36*
X91698D02*
Y58747D01*
X92195D01*
X92174Y58827D01*
X92078Y58992D01*
X91943Y59127D01*
X91778Y59223D01*
X91698Y59244D01*
D02*
G37*
G36*
X91298D02*
X91218Y59223D01*
X91053Y59127D01*
X90918Y58992D01*
X90822Y58827D01*
X90801Y58747D01*
X91298D01*
Y59244D01*
D02*
G37*
G36*
X94195Y58347D02*
X93698D01*
Y57850D01*
X93778Y57871D01*
X93943Y57967D01*
X94078Y58102D01*
X94174Y58267D01*
X94195Y58347D01*
D02*
G37*
G36*
X93298D02*
X92801D01*
X92822Y58267D01*
X92918Y58102D01*
X93053Y57967D01*
X93218Y57871D01*
X93298Y57850D01*
Y58347D01*
D02*
G37*
G36*
X92195D02*
X91698D01*
Y57850D01*
X91778Y57871D01*
X91943Y57967D01*
X92078Y58102D01*
X92174Y58267D01*
X92195Y58347D01*
D02*
G37*
G36*
X91298D02*
X90801D01*
X90822Y58267D01*
X90918Y58102D01*
X91053Y57967D01*
X91218Y57871D01*
X91298Y57850D01*
Y58347D01*
D02*
G37*
G36*
X98223Y59272D02*
X96773D01*
Y57822D01*
X98223D01*
Y59272D01*
D02*
G37*
G36*
X95593D02*
X95403D01*
X95218Y59223D01*
X95053Y59127D01*
X94918Y58992D01*
X94822Y58827D01*
X94773Y58642D01*
Y58452D01*
X94822Y58267D01*
X94918Y58102D01*
X95053Y57967D01*
X95218Y57871D01*
X95403Y57822D01*
X95593D01*
X95778Y57871D01*
X95943Y57967D01*
X96078Y58102D01*
X96174Y58267D01*
X96223Y58452D01*
Y58642D01*
X96174Y58827D01*
X96078Y58992D01*
X95943Y59127D01*
X95778Y59223D01*
X95593Y59272D01*
D02*
G37*
G36*
X68790Y58550D02*
X68610D01*
X68445Y58481D01*
X68319Y58355D01*
X68250Y58190D01*
Y58010D01*
X68319Y57845D01*
X68445Y57719D01*
X68610Y57650D01*
X68790D01*
X68955Y57719D01*
X69081Y57845D01*
X69150Y58010D01*
Y58190D01*
X69081Y58355D01*
X68955Y58481D01*
X68790Y58550D01*
D02*
G37*
%LPD*%
G36*
X83145Y147371D02*
X83153Y147352D01*
X83252Y147253D01*
X83380Y147200D01*
X83520D01*
X83648Y147253D01*
X83650Y147255D01*
X83652Y147253D01*
X83780Y147200D01*
X83920D01*
X84048Y147253D01*
X84147Y147352D01*
X84159Y147381D01*
X84286Y147356D01*
Y144689D01*
X82731Y143134D01*
X82614Y143183D01*
Y147019D01*
X82996Y147401D01*
X83145Y147371D01*
D02*
G37*
G36*
X83526Y136544D02*
Y136514D01*
X83579Y136386D01*
X83678Y136287D01*
X83806Y136234D01*
X83946D01*
X84074Y136287D01*
X84142Y136355D01*
X87971D01*
X88871Y135455D01*
Y135133D01*
X88744Y135081D01*
X88062Y135762D01*
X87988Y135812D01*
X87900Y135829D01*
X84126D01*
X84074Y135881D01*
X83946Y135934D01*
X83806D01*
X83678Y135881D01*
X83579Y135782D01*
X83526Y135654D01*
Y135514D01*
X83579Y135386D01*
X83678Y135287D01*
X83806Y135234D01*
X83946D01*
X84074Y135287D01*
X84158Y135371D01*
X87805D01*
X88421Y134755D01*
Y133198D01*
X88294Y133181D01*
X88270Y133270D01*
X88138Y133498D01*
X87952Y133684D01*
X87724Y133816D01*
X87470Y133884D01*
X87206D01*
X86952Y133816D01*
X86724Y133684D01*
X86538Y133498D01*
X86406Y133270D01*
X86338Y133016D01*
Y132752D01*
X86406Y132498D01*
X86538Y132270D01*
X86724Y132084D01*
X86952Y131952D01*
X87206Y131884D01*
X87470D01*
X87724Y131952D01*
X87952Y132084D01*
X88138Y132270D01*
X88270Y132498D01*
X88294Y132587D01*
X88421Y132570D01*
Y124000D01*
X88438Y123912D01*
X88488Y123838D01*
X90478Y121847D01*
X90461Y121757D01*
X90438Y121708D01*
X90353Y121623D01*
X90300Y121495D01*
Y121378D01*
X89736Y120814D01*
X88720D01*
X88671Y120931D01*
X88759Y121019D01*
X88805Y121088D01*
X88807Y121098D01*
X88920Y121160D01*
X88952Y121128D01*
X89080Y121075D01*
X89220D01*
X89348Y121128D01*
X89400Y121180D01*
X89452Y121128D01*
X89580Y121075D01*
X89720D01*
X89848Y121128D01*
X89947Y121227D01*
X90000Y121355D01*
Y121495D01*
X89947Y121623D01*
X89848Y121722D01*
X89720Y121775D01*
X89580D01*
X89452Y121722D01*
X89400Y121670D01*
X89348Y121722D01*
X89220Y121775D01*
X89080D01*
X88952Y121722D01*
X88900Y121670D01*
X88848Y121722D01*
X88720Y121775D01*
X88580D01*
X88452Y121722D01*
X88400Y121670D01*
X88348Y121722D01*
X88220Y121775D01*
X88080D01*
X87952Y121722D01*
X87900Y121670D01*
X87848Y121722D01*
X87720Y121775D01*
X87580D01*
X87452Y121722D01*
X87369Y121639D01*
X75725D01*
X75676Y121756D01*
X81651Y127732D01*
X81698Y127801D01*
X81714Y127883D01*
Y134911D01*
X83399Y136596D01*
X83526Y136544D01*
D02*
G37*
G36*
X90329Y113778D02*
X89038Y112487D01*
X88988Y112413D01*
X88971Y112325D01*
Y110025D01*
X88988Y109937D01*
X89038Y109863D01*
X89171Y109730D01*
Y109033D01*
X89044Y108981D01*
X87129Y110895D01*
Y112884D01*
X87197Y112952D01*
X87250Y113080D01*
Y113176D01*
X87970Y113896D01*
X90280D01*
X90329Y113778D01*
D02*
G37*
%LPC*%
G36*
X86070Y131425D02*
X85930D01*
X85802Y131372D01*
X85703Y131273D01*
X85650Y131145D01*
Y131005D01*
X85703Y130877D01*
X85802Y130778D01*
X85930Y130725D01*
X86070D01*
X86198Y130778D01*
X86297Y130877D01*
X86350Y131005D01*
Y131145D01*
X86297Y131273D01*
X86198Y131372D01*
X86070Y131425D01*
D02*
G37*
G36*
X82870D02*
X82730D01*
X82602Y131372D01*
X82503Y131273D01*
X82450Y131145D01*
Y131005D01*
X82503Y130877D01*
X82602Y130778D01*
X82730Y130725D01*
X82870D01*
X82998Y130778D01*
X83097Y130877D01*
X83150Y131005D01*
Y131145D01*
X83097Y131273D01*
X82998Y131372D01*
X82870Y131425D01*
D02*
G37*
G36*
X86070Y124125D02*
X85930D01*
X85802Y124072D01*
X85703Y123973D01*
X85650Y123845D01*
Y123705D01*
X85703Y123577D01*
X85802Y123478D01*
X85930Y123425D01*
X86070D01*
X86198Y123478D01*
X86297Y123577D01*
X86350Y123705D01*
Y123845D01*
X86297Y123973D01*
X86198Y124072D01*
X86070Y124125D01*
D02*
G37*
G36*
X82870D02*
X82730D01*
X82602Y124072D01*
X82503Y123973D01*
X82450Y123845D01*
Y123705D01*
X82503Y123577D01*
X82602Y123478D01*
X82730Y123425D01*
X82870D01*
X82998Y123478D01*
X83097Y123577D01*
X83150Y123705D01*
Y123845D01*
X83097Y123973D01*
X82998Y124072D01*
X82870Y124125D01*
D02*
G37*
G36*
X87690Y124275D02*
X87510D01*
X87345Y124206D01*
X87219Y124080D01*
X87150Y123915D01*
Y123735D01*
X87219Y123570D01*
X87264Y123525D01*
X87219Y123480D01*
X87150Y123315D01*
Y123135D01*
X87219Y122970D01*
X87345Y122844D01*
X87510Y122775D01*
X87690D01*
X87855Y122844D01*
X87981Y122970D01*
X88050Y123135D01*
Y123315D01*
X87981Y123480D01*
X87936Y123525D01*
X87981Y123570D01*
X88050Y123735D01*
Y123915D01*
X87981Y124080D01*
X87855Y124206D01*
X87690Y124275D01*
D02*
G37*
%LPD*%
G36*
X73225Y135775D02*
X70575D01*
Y139069D01*
X70931Y139425D01*
X73225D01*
Y135775D01*
D02*
G37*
D11*
X67000Y71500D02*
X68800D01*
X65700Y70200D02*
X67000Y71500D01*
X65100Y58100D02*
X65700Y58700D01*
Y70200D01*
X65050Y59750D02*
X65100Y59700D01*
X65000Y71500D02*
X65050Y71450D01*
Y59750D02*
Y71450D01*
D12*
X64500Y78800D02*
Y98500D01*
Y78800D02*
X65950Y77350D01*
X73508Y97692D02*
Y98492D01*
Y97692D02*
X89300Y81900D01*
X72500Y98500D02*
X72501Y98499D01*
Y98199D02*
Y98499D01*
Y98199D02*
X89062Y81638D01*
X90809Y81900D02*
X93108Y79601D01*
X89300Y81900D02*
X90809D01*
X89062Y81638D02*
X90562D01*
X91634Y80566D01*
Y80368D02*
X92754Y79248D01*
X91634Y80368D02*
Y80566D01*
X89200Y110025D02*
Y112325D01*
X91500Y114625D02*
Y121800D01*
X89200Y112325D02*
X91500Y114625D01*
X86900Y113150D02*
X87875Y114125D01*
X90450D02*
X91150Y114825D01*
X87875Y114125D02*
X90450D01*
X80800Y100125D02*
X82150Y98775D01*
X56900Y95400D02*
X61625Y100125D01*
X80800D01*
X82150Y96850D02*
Y98125D01*
X99550Y79450D02*
X104300D01*
X82150Y96850D02*
X99550Y79450D01*
X89100Y124200D02*
X91500Y121800D01*
X91150Y114825D02*
Y121500D01*
X73675Y81175D02*
Y84375D01*
X69750Y75450D02*
Y77250D01*
X73675Y81175D01*
X65950Y75450D02*
Y77350D01*
X85175Y103475D02*
X89000Y107300D01*
X86900Y110800D02*
X89000Y108700D01*
Y107300D02*
Y108700D01*
X82700Y98675D02*
Y100500D01*
X89400Y107200D01*
X82150Y98125D02*
X82700Y98675D01*
X82150Y103475D02*
X85175D01*
X89200Y110025D02*
X89400Y109825D01*
Y107200D02*
Y109825D01*
X89100Y124200D02*
Y135550D01*
X83876Y136584D02*
X88066D01*
X89100Y135550D01*
X88650Y124000D02*
X91150Y121500D01*
X88650Y124000D02*
Y134850D01*
X87900Y135600D02*
X88650Y134850D01*
X86900Y110800D02*
Y113150D01*
X56200Y63450D02*
X56900Y64150D01*
X56900Y95400D02*
X56900Y64150D01*
X104300Y79450D02*
X104550Y79700D01*
X65500Y98500D02*
X73675Y90325D01*
Y84375D02*
Y90325D01*
X83892Y135600D02*
X87900D01*
D14*
X83900Y159575D02*
G03*
X83560Y159915I-340J0D01*
G01*
D02*
G03*
X68000Y144355I0J-15560D01*
G01*
X68000Y142908D02*
G03*
X68467Y141777I1602J0D01*
G01*
X83560Y160235D02*
G03*
X83900Y160575I0J340D01*
G01*
X83560Y160235D02*
G03*
X67680Y144355I0J-15880D01*
G01*
X67680Y142908D02*
G03*
X68241Y141550I1922J0D01*
G01*
X68467Y141777D02*
G03*
X68950Y141775I242J238D01*
G01*
X68243Y141068D02*
G03*
X68241Y141550I-240J240D01*
G01*
X68000Y142908D02*
Y143068D01*
X68000Y143068D02*
Y144355D01*
X67680Y143228D02*
Y144355D01*
X67680Y142908D02*
Y143228D01*
X67680Y143228D01*
X68000Y143068D02*
X68000Y143068D01*
D146*
X83876Y135584D02*
X83892Y135600D01*
D147*
X79180Y108180D02*
X87320D01*
X78250Y107250D02*
X79180Y108180D01*
X77800Y107250D02*
X78250D01*
X79000Y108500D02*
X87624D01*
X78250Y107750D02*
X79000Y108500D01*
X77800Y107750D02*
X78250D01*
X86900Y107900D02*
X87850Y106950D01*
X78250Y106750D02*
X79400Y107900D01*
X86900D01*
X87624Y108500D02*
X88474Y107650D01*
X76225Y120600D02*
X89825D01*
X74750Y119125D02*
X76225Y120600D01*
X89825D02*
X90650Y121425D01*
X74300Y119200D02*
X75945Y120845D01*
X88282D01*
X65100Y124800D02*
Y133850D01*
X59200Y118900D02*
X65100Y124800D01*
X59200Y118200D02*
Y118900D01*
X64800Y124900D02*
Y133900D01*
X58700Y118200D02*
Y118800D01*
X64800Y124900D01*
X58200Y118200D02*
Y118700D01*
X64500Y125000D01*
Y134000D01*
X57700Y118600D02*
X64200Y125100D01*
Y134100D01*
X57700Y118200D02*
Y118600D01*
X60550Y118650D02*
X65694Y123794D01*
X60550Y118200D02*
Y118650D01*
X65694Y123794D02*
X70194D01*
X65600Y124100D02*
X70100D01*
X60050Y118561D02*
X65503Y124014D01*
X65514D02*
X65600Y124100D01*
X65503Y124014D02*
X65514D01*
X60050Y118200D02*
Y118561D01*
X65789Y123489D02*
X70289D01*
X61050Y118750D02*
X65789Y123489D01*
X61050Y118200D02*
Y118750D01*
X61550Y118200D02*
Y118850D01*
X65883Y123183D02*
X70383D01*
X61550Y118850D02*
X65883Y123183D01*
X67011Y122011D02*
X70811D01*
X63900Y118900D02*
X67011Y122011D01*
X63900Y118200D02*
Y118900D01*
X66917Y122317D02*
X70717D01*
X63400Y118800D02*
X66917Y122317D01*
X63400Y118200D02*
Y118800D01*
X62900Y118200D02*
Y118700D01*
X66800Y122600D02*
X70600D01*
X62900Y118700D02*
X66800Y122600D01*
X66678Y122878D02*
X70478D01*
X62400Y118200D02*
Y118600D01*
X66678Y122878D01*
X67906Y121705D02*
X70906D01*
X64774Y118224D02*
Y118574D01*
X67906Y121705D01*
X68000Y121400D02*
X71000D01*
X65304Y118254D02*
Y118704D01*
X68000Y121400D01*
X65786Y118236D02*
Y118786D01*
X68094Y121094D01*
X71094D01*
X66261Y118861D02*
X68189Y120789D01*
X66261Y118211D02*
Y118861D01*
X68189Y120789D02*
X71189D01*
X70700Y118700D02*
X71900D01*
X70474Y118224D02*
Y118474D01*
X70700Y118700D01*
X70450Y118200D02*
X70474Y118224D01*
X69950Y118550D02*
X70400Y119000D01*
X69950Y118200D02*
Y118550D01*
X70400Y119000D02*
X71800D01*
X70300Y119300D02*
X71700D01*
X69450Y118200D02*
X69474Y118224D01*
Y118474D01*
X70300Y119300D01*
X69367Y119567D02*
X71567D01*
X68600Y118800D02*
X69367Y119567D01*
X68600Y118200D02*
Y118800D01*
X68100Y118700D02*
X69272Y119872D01*
X68100Y118200D02*
Y118700D01*
X69272Y119872D02*
X71472D01*
X69178Y120178D02*
X71378D01*
X67654Y118254D02*
Y118654D01*
X69178Y120178D01*
X67600Y118200D02*
X67654Y118254D01*
X67100Y118200D02*
Y118500D01*
X69100Y120500D01*
X71300D01*
X80000Y129944D02*
Y135500D01*
Y128400D02*
Y129944D01*
X65750Y118200D02*
X65786Y118236D01*
X70100Y124100D02*
X75800Y129800D01*
Y130100D01*
X76100Y129700D02*
Y130089D01*
X70194Y123794D02*
X76100Y129700D01*
X70289Y123489D02*
X76400Y129600D01*
Y130078D01*
X76700Y129500D02*
Y130067D01*
X70383Y123183D02*
X76700Y129500D01*
X77000Y129400D02*
Y130055D01*
X70478Y122878D02*
X77000Y129400D01*
X77300Y129300D02*
Y130044D01*
X70600Y122600D02*
X77300Y129300D01*
X77600Y129200D02*
Y130033D01*
X70717Y122317D02*
X77600Y129200D01*
X70811Y122011D02*
X77900Y129100D01*
Y130022D01*
X70906Y121705D02*
X78200Y129000D01*
Y130011D01*
X71000Y121400D02*
X78500Y128900D01*
Y130000D01*
X71094Y121094D02*
X78800Y128800D01*
Y129989D01*
X57340Y118940D02*
X63900Y125500D01*
Y134200D01*
X57340Y110660D02*
Y118940D01*
X63900Y134200D02*
X68550Y138850D01*
X69350D01*
X64200Y134100D02*
X68450Y138350D01*
X69350D01*
X65100Y133850D02*
X68100Y136850D01*
X69350D01*
X64500Y134000D02*
X68350Y137850D01*
X69350D01*
X64800Y133900D02*
X68250Y137350D01*
X69350D01*
X54300Y118500D02*
X57500Y121700D01*
X54300Y104391D02*
X55191Y103500D01*
X54300Y104391D02*
Y118500D01*
X54600Y118400D02*
X57800Y121600D01*
X54600Y104591D02*
X55191Y104000D01*
X54600Y104591D02*
Y118400D01*
X55191Y104500D02*
X55200D01*
X54900Y118300D02*
X58100Y121500D01*
X54840Y104851D02*
Y105149D01*
X54900Y105209D02*
Y118300D01*
X54840Y104851D02*
X55191Y104500D01*
X54840Y105149D02*
X54900Y105209D01*
X55200Y118200D02*
X58400Y121400D01*
Y137600D01*
X55200Y105000D02*
Y118200D01*
X58100Y121500D02*
Y135900D01*
X57800Y121600D02*
Y134200D01*
X57500Y121700D02*
Y132500D01*
X56000Y140000D02*
X58400Y137600D01*
X55000Y140000D02*
X56000D01*
X55000Y138000D02*
X56000D01*
X58100Y135900D01*
X56000Y136000D02*
X57800Y134200D01*
X55000Y136000D02*
X56000D01*
X55000Y134000D02*
X56000D01*
X57500Y132500D01*
X79100Y128700D02*
Y129978D01*
X71189Y120789D02*
X79100Y128700D01*
X71300Y120500D02*
X79400Y128600D01*
Y129967D01*
X79700Y128500D02*
Y129955D01*
X71378Y120178D02*
X79700Y128500D01*
X71472Y119872D02*
X80000Y128400D01*
X71567Y119567D02*
X80300Y128300D01*
Y129933D01*
X80600Y128200D02*
Y129922D01*
X71700Y119300D02*
X80600Y128200D01*
X71900Y118700D02*
X81200Y128000D01*
X80900Y128100D02*
Y129911D01*
X71800Y119000D02*
X80900Y128100D01*
X81200Y128000D02*
Y128950D01*
Y135100D01*
X81500Y127883D02*
Y135000D01*
X71875Y118258D02*
X81500Y127883D01*
X75800Y136900D02*
X81500Y142600D01*
X75800Y130100D02*
Y136900D01*
X76100Y136800D02*
X81800Y142500D01*
X76100Y130089D02*
Y136800D01*
X76400Y136700D02*
X82100Y142400D01*
X76400Y130078D02*
Y136700D01*
X76700Y130067D02*
Y136600D01*
X82400Y142300D01*
X77000Y130055D02*
Y136500D01*
X82720Y142220D01*
X77300Y136400D02*
X82300Y141400D01*
X77300Y130044D02*
Y136400D01*
X77600Y130033D02*
Y136300D01*
X82400Y141100D01*
X77900Y136200D02*
X82500Y140800D01*
X77900Y130022D02*
Y136200D01*
X78200Y136100D02*
X82600Y140500D01*
X78200Y130011D02*
Y136100D01*
X78500Y136000D02*
X82700Y140200D01*
X78500Y130000D02*
Y136000D01*
X78800Y135900D02*
X82800Y139900D01*
X78800Y129989D02*
Y135900D01*
X79100Y135800D02*
X82900Y139600D01*
X79100Y129978D02*
Y135800D01*
X80600Y135300D02*
X83400Y138100D01*
X80600Y129922D02*
Y135300D01*
X82400Y142300D02*
Y147108D01*
X83876Y148584D01*
X82100Y147808D02*
X83876Y149584D01*
X82100Y142400D02*
Y147808D01*
X81800Y142500D02*
Y148508D01*
X83876Y150584D01*
X81500Y142600D02*
Y149208D01*
X83876Y151584D01*
X82720Y142220D02*
Y142820D01*
X84500Y144600D01*
Y157284D01*
X82300Y141400D02*
X84200D01*
X82400Y141100D02*
X84400D01*
X82500Y140800D02*
X84500D01*
X82600Y140500D02*
X84600D01*
X82700Y140200D02*
X84700D01*
X82800Y139900D02*
X84800D01*
X82900Y139600D02*
X84900D01*
X79400Y135700D02*
X83000Y139300D01*
X79400Y129967D02*
Y135700D01*
X83000Y139300D02*
X85000D01*
X79700Y135600D02*
X83100Y139000D01*
X79700Y129955D02*
Y135600D01*
X83100Y139000D02*
X85200D01*
X80000Y135500D02*
X83200Y138700D01*
X85300D01*
X80300Y135400D02*
X83300Y138400D01*
X80300Y129933D02*
Y135400D01*
X83300Y138400D02*
X85400D01*
X83400Y138100D02*
X85500D01*
X80900Y135200D02*
X83500Y137800D01*
X80900Y129911D02*
Y135200D01*
X83500Y137800D02*
X85600D01*
X81200Y135100D02*
X83600Y137500D01*
X85700D01*
X81500Y135000D02*
X83700Y137200D01*
X85800D01*
X84200Y141400D02*
X86000Y143200D01*
Y157784D02*
X90800Y162584D01*
X86000Y143200D02*
Y157784D01*
X86300Y157084D02*
X90800Y161584D01*
X84400Y141100D02*
X86300Y143000D01*
Y157084D01*
X84500Y140800D02*
X86600Y142900D01*
Y156384D02*
X90800Y160584D01*
X86600Y142900D02*
Y156384D01*
X86900Y155684D02*
X90800Y159584D01*
X84600Y140500D02*
X86900Y142800D01*
Y155684D01*
X87200Y142700D02*
Y154984D01*
X84700Y140200D02*
X87200Y142700D01*
Y154984D02*
X90800Y158584D01*
X87500Y154284D02*
X90800Y157584D01*
X87500Y142600D02*
Y154284D01*
X84800Y139900D02*
X87500Y142600D01*
X87800Y142500D02*
Y153584D01*
X90800Y156584D01*
X84900Y139600D02*
X87800Y142500D01*
X88100Y152884D02*
X90800Y155584D01*
X88100Y142400D02*
Y152884D01*
X85000Y139300D02*
X88100Y142400D01*
X88400Y142200D02*
Y152184D01*
X90800Y154584D01*
X85200Y139000D02*
X88400Y142200D01*
X85300Y138700D02*
X88700Y142100D01*
Y151484D02*
X90800Y153584D01*
X88700Y142100D02*
Y151484D01*
X85400Y138400D02*
X89000Y142000D01*
Y150784D02*
X90800Y152584D01*
X89000Y142000D02*
Y150784D01*
X85500Y138100D02*
X89300Y141900D01*
Y150084D02*
X90800Y151584D01*
X89300Y141900D02*
Y150084D01*
X85600Y137800D02*
X89600Y141800D01*
Y149384D01*
X90800Y150584D01*
X85700Y137500D02*
X89900Y141700D01*
Y148684D02*
X90800Y149584D01*
X89900Y141700D02*
Y148684D01*
X85800Y137200D02*
X90200Y141600D01*
Y147984D02*
X90800Y148584D01*
X90200Y141600D02*
Y147984D01*
X84500Y157284D02*
X90800Y163584D01*
X91825Y113992D02*
Y122075D01*
X90860Y123040D02*
X91825Y122075D01*
X89725Y111892D02*
X91825Y113992D01*
X74750Y114913D02*
Y119125D01*
X73500Y113663D02*
X74750Y114913D01*
X73500Y109500D02*
Y113663D01*
X74300Y118200D02*
Y119200D01*
X73800Y119200D02*
X75750Y121150D01*
X73800Y118200D02*
Y119200D01*
X73300Y118200D02*
Y119200D01*
X75525Y121425D01*
X67133Y111500D02*
X71875Y116242D01*
X63500Y111500D02*
X67133D01*
X89640Y124260D02*
Y137424D01*
Y124260D02*
X90590Y123310D01*
X90859Y123040D02*
X90860D01*
X90590Y123309D02*
X90859Y123040D01*
X90590Y123309D02*
Y123310D01*
X88282Y120845D02*
X88607Y121170D01*
Y121382D01*
X88650Y121425D01*
X87501Y121065D02*
X87902D01*
X75750Y121150D02*
X87416D01*
X87501Y121065D01*
X88150Y121349D02*
Y121425D01*
X88057Y121220D02*
Y121257D01*
X88150Y121349D01*
X87902Y121065D02*
X88057Y121220D01*
X75525Y121425D02*
X87650D01*
X73000Y104000D02*
X73500Y104500D01*
X57100Y104000D02*
X73000D01*
X55191Y103500D02*
X55200D01*
X55191Y104000D02*
X55200D01*
X57340Y110660D02*
X58500Y109500D01*
X64750Y118200D02*
X64774Y118224D01*
X66250Y118200D02*
X66261Y118211D01*
X65250Y118200D02*
X65304Y118254D01*
X60050Y114950D02*
Y116300D01*
Y114950D02*
X62500Y112500D01*
X77800Y106750D02*
X78250D01*
X88262Y107238D02*
X88300Y107200D01*
X87320Y108180D02*
X88262Y107238D01*
X88474Y107650D02*
X88550D01*
X83848Y135556D02*
X83876Y135584D01*
X89640Y137424D02*
X90800Y138584D01*
D149*
X76670Y175730D02*
D03*
X86068Y88735D02*
D03*
X53810D02*
D03*
X81750Y53810D02*
D03*
X109690Y103340D02*
D03*
X53810Y154775D02*
D03*
X99530Y149695D02*
D03*
X109690Y74130D02*
D03*
D150*
X55000Y140000D02*
D03*
Y138000D02*
D03*
Y136000D02*
D03*
Y134000D02*
D03*
X53000Y142000D02*
D03*
Y140000D02*
D03*
Y138000D02*
D03*
Y136000D02*
D03*
Y134000D02*
D03*
Y132000D02*
D03*
Y130000D02*
D03*
D151*
X88900Y118425D02*
D03*
D152*
X72350Y169150D02*
D03*
D153*
X91498Y58547D02*
D03*
X93498D02*
D03*
D156*
X95630Y85575D02*
D03*
D157*
X53810Y53810D02*
D03*
X109690D02*
D03*
X99530Y175730D02*
D03*
X53810Y185890D02*
D03*
Y123660D02*
D03*
X109690D02*
D03*
D159*
X79900Y151300D02*
D03*
X75900Y151300D02*
D03*
X71900D02*
D03*
X67900D02*
D03*
D160*
X90648Y105917D02*
D03*
D161*
X94191Y77811D02*
D03*
D162*
X79000Y175000D02*
D03*
X79500Y53000D02*
D03*
X74000Y55000D02*
D03*
X66000D02*
D03*
X72250Y67000D02*
D03*
X69750Y69750D02*
D03*
X67000D02*
D03*
X72250D02*
D03*
X63750D02*
D03*
X58356Y188580D02*
D03*
X65100Y58100D02*
D03*
Y59700D02*
D03*
X68800Y71500D02*
D03*
X65000D02*
D03*
X58000Y139000D02*
D03*
Y143000D02*
D03*
X68000Y125000D02*
D03*
X70000Y127000D02*
D03*
X66000D02*
D03*
X60000Y125000D02*
D03*
Y129000D02*
D03*
Y133000D02*
D03*
Y137000D02*
D03*
X90825Y139600D02*
D03*
X91400D02*
D03*
X82650Y119900D02*
D03*
X105000Y82375D02*
D03*
X53500Y119000D02*
D03*
Y115000D02*
D03*
Y111000D02*
D03*
Y107000D02*
D03*
Y103000D02*
D03*
Y99000D02*
D03*
X62000Y75500D02*
D03*
X61000Y73500D02*
D03*
Y69000D02*
D03*
Y65000D02*
D03*
X56500Y146500D02*
D03*
X51000Y183000D02*
D03*
Y179000D02*
D03*
Y175000D02*
D03*
Y171000D02*
D03*
Y167000D02*
D03*
Y163000D02*
D03*
Y159000D02*
D03*
Y147000D02*
D03*
Y155000D02*
D03*
Y151000D02*
D03*
Y119000D02*
D03*
Y115000D02*
D03*
Y111000D02*
D03*
Y107000D02*
D03*
Y103000D02*
D03*
Y99000D02*
D03*
Y95000D02*
D03*
Y91000D02*
D03*
Y87500D02*
D03*
Y83000D02*
D03*
Y79000D02*
D03*
Y75000D02*
D03*
Y71000D02*
D03*
Y67000D02*
D03*
Y63000D02*
D03*
Y59000D02*
D03*
X94000Y178500D02*
D03*
X90000D02*
D03*
X86000D02*
D03*
X60000Y187000D02*
D03*
X62000Y185000D02*
D03*
X64000Y183000D02*
D03*
X68000Y179000D02*
D03*
X66000Y181000D02*
D03*
X70000Y178500D02*
D03*
X82000D02*
D03*
X74000D02*
D03*
X78000D02*
D03*
X93250Y141250D02*
D03*
X94250Y138750D02*
D03*
X92500D02*
D03*
X94250Y136250D02*
D03*
X92500D02*
D03*
X91400Y145600D02*
D03*
X90800D02*
D03*
X83300D02*
D03*
X83900D02*
D03*
X91400Y142600D02*
D03*
X90800D02*
D03*
Y134600D02*
D03*
X83900D02*
D03*
X83300Y142600D02*
D03*
X83900D02*
D03*
X91400Y134600D02*
D03*
X83300D02*
D03*
X98800Y117675D02*
D03*
X93991Y117683D02*
D03*
X78991D02*
D03*
X83800Y117675D02*
D03*
X66500Y146000D02*
D03*
X64000D02*
D03*
X95800Y126600D02*
D03*
X93400Y127425D02*
D03*
X91000Y128250D02*
D03*
X92550Y128975D02*
D03*
X91050Y131350D02*
D03*
X92200Y132500D02*
D03*
X93400Y131300D02*
D03*
X94600Y132500D02*
D03*
X95750Y131350D02*
D03*
X94250Y128950D02*
D03*
X95800Y128250D02*
D03*
X91000Y126600D02*
D03*
X92550Y125875D02*
D03*
X91050Y123500D02*
D03*
X92200Y122350D02*
D03*
X93400Y123550D02*
D03*
X94600Y122350D02*
D03*
X95750Y123500D02*
D03*
X94250Y125875D02*
D03*
X85250D02*
D03*
X86750Y123500D02*
D03*
X85600Y122350D02*
D03*
X84400Y123550D02*
D03*
X83200Y122350D02*
D03*
X82050Y123500D02*
D03*
X83550Y125875D02*
D03*
X82000Y126600D02*
D03*
X86800Y128250D02*
D03*
X85250Y128975D02*
D03*
X86750Y131350D02*
D03*
X85600Y132500D02*
D03*
X92450Y117700D02*
D03*
X93300Y115950D02*
D03*
Y119450D02*
D03*
X95150Y119900D02*
D03*
Y115500D02*
D03*
X97636Y119892D02*
D03*
Y115492D02*
D03*
X80164D02*
D03*
Y119892D02*
D03*
X82650Y115500D02*
D03*
X84500Y119450D02*
D03*
Y115950D02*
D03*
X85350Y117700D02*
D03*
X84400Y131300D02*
D03*
X69750Y75450D02*
D03*
X65950D02*
D03*
X62000Y127000D02*
D03*
Y131000D02*
D03*
Y135000D02*
D03*
Y139000D02*
D03*
X60000Y141000D02*
D03*
X102000Y163000D02*
D03*
X52000Y189000D02*
D03*
X78000Y115000D02*
D03*
X112000Y105000D02*
D03*
X58000Y95000D02*
D03*
X108000Y57000D02*
D03*
X52000D02*
D03*
X90000Y118425D02*
D03*
X88900D02*
D03*
Y117325D02*
D03*
X87800Y118425D02*
D03*
X72350Y168650D02*
D03*
Y169650D02*
D03*
X53810Y55910D02*
D03*
X52325Y55295D02*
D03*
X51710Y53810D02*
D03*
X52325Y52325D02*
D03*
X53810Y51710D02*
D03*
X55295Y52325D02*
D03*
X55910Y53810D02*
D03*
X55295Y55295D02*
D03*
X109690Y55910D02*
D03*
X108205Y55295D02*
D03*
X107590Y53810D02*
D03*
X108205Y52325D02*
D03*
X109690Y51710D02*
D03*
X111175Y52325D02*
D03*
X111790Y53810D02*
D03*
X111175Y55295D02*
D03*
X109690Y125760D02*
D03*
X108205Y125145D02*
D03*
X107590Y123660D02*
D03*
X108205Y122175D02*
D03*
X109690Y121560D02*
D03*
X111175Y122175D02*
D03*
X111790Y123660D02*
D03*
X111175Y125145D02*
D03*
X99530Y177830D02*
D03*
X98045Y177215D02*
D03*
X97430Y175730D02*
D03*
X98045Y174245D02*
D03*
X99530Y173630D02*
D03*
X101015Y174245D02*
D03*
X101630Y175730D02*
D03*
X101015Y177215D02*
D03*
X53810Y187990D02*
D03*
X52325Y187375D02*
D03*
X51710Y185890D02*
D03*
X52325Y184405D02*
D03*
X53810Y183790D02*
D03*
X55295Y184405D02*
D03*
X55910Y185890D02*
D03*
X55295Y187375D02*
D03*
X53810Y125760D02*
D03*
X52325Y125145D02*
D03*
X51710Y123660D02*
D03*
X52325Y122175D02*
D03*
X53810Y121560D02*
D03*
X55295Y122175D02*
D03*
X55910Y123660D02*
D03*
X55295Y125145D02*
D03*
X108000Y101000D02*
D03*
X76000Y78000D02*
D03*
X52000Y51000D02*
D03*
X102000Y59000D02*
D03*
X98000Y143000D02*
D03*
X56000Y81000D02*
D03*
Y85000D02*
D03*
X54000Y83000D02*
D03*
X52000Y85000D02*
D03*
X66000Y79000D02*
D03*
X62000D02*
D03*
X102000Y51000D02*
D03*
X98000D02*
D03*
X96000Y53000D02*
D03*
X92000D02*
D03*
X94000Y51000D02*
D03*
X88000Y53000D02*
D03*
X90000Y51000D02*
D03*
X86000D02*
D03*
X84000Y53000D02*
D03*
X82000Y51000D02*
D03*
X106000D02*
D03*
X100000Y53000D02*
D03*
X102000Y55000D02*
D03*
X98000D02*
D03*
X94000D02*
D03*
X90000D02*
D03*
X86000D02*
D03*
X84000Y57000D02*
D03*
X82000Y59000D02*
D03*
X86000D02*
D03*
X88000Y57000D02*
D03*
X92000Y61000D02*
D03*
X94000Y63000D02*
D03*
X104000Y57000D02*
D03*
X106000Y55000D02*
D03*
X104000Y53000D02*
D03*
X106000Y59000D02*
D03*
X112000Y57000D02*
D03*
X110000Y59000D02*
D03*
X112000Y61000D02*
D03*
X108000D02*
D03*
X110000Y63000D02*
D03*
X112000Y65000D02*
D03*
X106000Y63000D02*
D03*
X104000Y61000D02*
D03*
X108000Y65000D02*
D03*
X100000Y145000D02*
D03*
Y141000D02*
D03*
X102000Y147000D02*
D03*
Y143000D02*
D03*
Y139000D02*
D03*
X104000Y137000D02*
D03*
X106000Y135000D02*
D03*
X108000Y133000D02*
D03*
X110000Y131000D02*
D03*
Y127000D02*
D03*
X108000Y129000D02*
D03*
X106000Y127000D02*
D03*
X112000Y129000D02*
D03*
Y109000D02*
D03*
Y113000D02*
D03*
X110000Y111000D02*
D03*
X112000Y117000D02*
D03*
X110000Y115000D02*
D03*
X112000Y121000D02*
D03*
X110000Y119000D02*
D03*
X106000Y123000D02*
D03*
X108000Y117000D02*
D03*
Y113000D02*
D03*
Y109000D02*
D03*
X106000Y111000D02*
D03*
X104000Y109000D02*
D03*
X100000D02*
D03*
X98000Y107000D02*
D03*
X96000Y109000D02*
D03*
X102000Y111000D02*
D03*
X104000Y113000D02*
D03*
X102000Y115000D02*
D03*
X106000D02*
D03*
X104000Y117000D02*
D03*
X102000Y119000D02*
D03*
X106000D02*
D03*
X104000Y121000D02*
D03*
X102000Y123000D02*
D03*
X104000Y125000D02*
D03*
X80000Y78000D02*
D03*
X84000D02*
D03*
X102000Y127000D02*
D03*
X100000Y129000D02*
D03*
X104000D02*
D03*
X106000Y131000D02*
D03*
X102000D02*
D03*
X100000Y137000D02*
D03*
X102000Y135000D02*
D03*
X98000Y131000D02*
D03*
X104000Y133000D02*
D03*
X100000D02*
D03*
X98000Y139000D02*
D03*
Y135000D02*
D03*
X52000Y117000D02*
D03*
X80000Y142000D02*
D03*
X81000Y145000D02*
D03*
X80000Y146000D02*
D03*
X78000D02*
D03*
X76000D02*
D03*
X74000D02*
D03*
X72000D02*
D03*
X70000D02*
D03*
X52000Y149000D02*
D03*
X60000Y145000D02*
D03*
X54000Y147000D02*
D03*
X56000Y149000D02*
D03*
X54000Y151000D02*
D03*
X52000Y157000D02*
D03*
Y161000D02*
D03*
X54000Y159000D02*
D03*
X52000Y153000D02*
D03*
X56000D02*
D03*
Y157000D02*
D03*
Y161000D02*
D03*
X54000Y163000D02*
D03*
X52000Y165000D02*
D03*
X54000Y167000D02*
D03*
X56000Y165000D02*
D03*
X52000Y169000D02*
D03*
Y173000D02*
D03*
X56000Y169000D02*
D03*
X54000Y171000D02*
D03*
Y175000D02*
D03*
X56000Y173000D02*
D03*
X52000Y177000D02*
D03*
X56000D02*
D03*
X54000Y179000D02*
D03*
X52000Y181000D02*
D03*
X56000D02*
D03*
X60000Y177000D02*
D03*
X58000Y179000D02*
D03*
Y183000D02*
D03*
X60000Y181000D02*
D03*
X58000Y187000D02*
D03*
X60000Y185000D02*
D03*
X56000Y189000D02*
D03*
X62000Y179000D02*
D03*
X64000Y177000D02*
D03*
X62000Y183000D02*
D03*
X64000Y181000D02*
D03*
X70000Y175000D02*
D03*
X68000Y177000D02*
D03*
X66000Y179000D02*
D03*
Y175000D02*
D03*
X58000D02*
D03*
X62000D02*
D03*
X72000Y177000D02*
D03*
X74000Y175000D02*
D03*
X80000Y177000D02*
D03*
X84000D02*
D03*
X88000D02*
D03*
X96000D02*
D03*
X92000D02*
D03*
X86000Y175000D02*
D03*
X94000D02*
D03*
X96000Y173000D02*
D03*
X90000Y175000D02*
D03*
X102000Y171000D02*
D03*
X82000Y175000D02*
D03*
X100000Y169000D02*
D03*
X98000Y171000D02*
D03*
Y167000D02*
D03*
X100000Y165000D02*
D03*
X102000Y167000D02*
D03*
X94000Y171000D02*
D03*
X96000Y165000D02*
D03*
Y169000D02*
D03*
X94000Y167000D02*
D03*
X100000Y161000D02*
D03*
X98000Y163000D02*
D03*
X102000Y159000D02*
D03*
Y155000D02*
D03*
Y151000D02*
D03*
X94000Y155000D02*
D03*
X100000Y153000D02*
D03*
X98000Y155000D02*
D03*
X94000Y163000D02*
D03*
X96000Y161000D02*
D03*
X98000Y159000D02*
D03*
X100000Y157000D02*
D03*
X94000Y159000D02*
D03*
X96000Y157000D02*
D03*
Y153000D02*
D03*
X98000Y147000D02*
D03*
X94000Y151000D02*
D03*
X96000Y149000D02*
D03*
Y145000D02*
D03*
X62000Y143000D02*
D03*
X94000Y147000D02*
D03*
X92000Y145000D02*
D03*
X94000Y143000D02*
D03*
X96000Y133000D02*
D03*
X72000Y78000D02*
D03*
X100000Y125000D02*
D03*
X78000Y123000D02*
D03*
X98000Y127000D02*
D03*
X80000Y125000D02*
D03*
X98000Y123000D02*
D03*
X100000Y121000D02*
D03*
Y117000D02*
D03*
Y113000D02*
D03*
X98000Y111000D02*
D03*
X96000Y113000D02*
D03*
X92000D02*
D03*
X94000Y111000D02*
D03*
X78000Y119000D02*
D03*
X86000Y107000D02*
D03*
X80000Y113000D02*
D03*
X78000Y111000D02*
D03*
X82000D02*
D03*
X86000Y103000D02*
D03*
X88000Y101000D02*
D03*
X86000Y99000D02*
D03*
X102000Y107000D02*
D03*
X106000D02*
D03*
X98000Y75000D02*
D03*
X110000Y67000D02*
D03*
X108000Y69000D02*
D03*
X112000D02*
D03*
X110000Y71000D02*
D03*
X112000Y73000D02*
D03*
Y77000D02*
D03*
Y81000D02*
D03*
Y85000D02*
D03*
Y89000D02*
D03*
X110000Y79000D02*
D03*
Y83000D02*
D03*
Y87000D02*
D03*
Y91000D02*
D03*
X112000Y93000D02*
D03*
X110000Y107000D02*
D03*
X108000Y105000D02*
D03*
X112000Y101000D02*
D03*
X110000Y99000D02*
D03*
X112000Y97000D02*
D03*
X110000Y95000D02*
D03*
X108000Y97000D02*
D03*
Y93000D02*
D03*
Y89000D02*
D03*
Y85000D02*
D03*
Y81000D02*
D03*
X106000Y75000D02*
D03*
X108000Y77000D02*
D03*
X100000D02*
D03*
X102000Y75000D02*
D03*
X104000Y73000D02*
D03*
X106000Y71000D02*
D03*
Y67000D02*
D03*
X104000Y65000D02*
D03*
X100000Y61000D02*
D03*
X102000Y63000D02*
D03*
X98000D02*
D03*
X104000Y69000D02*
D03*
Y77000D02*
D03*
X100000Y81000D02*
D03*
Y85000D02*
D03*
X104000Y89000D02*
D03*
X100000D02*
D03*
X90000Y59000D02*
D03*
X88000Y61000D02*
D03*
X84000D02*
D03*
X80000D02*
D03*
X90000Y63000D02*
D03*
X92000Y57000D02*
D03*
X100000D02*
D03*
X96000D02*
D03*
Y65000D02*
D03*
X100000D02*
D03*
X98000Y67000D02*
D03*
X92000Y65000D02*
D03*
X94000Y67000D02*
D03*
X102000D02*
D03*
Y71000D02*
D03*
X100000Y69000D02*
D03*
Y73000D02*
D03*
X96000Y69000D02*
D03*
Y73000D02*
D03*
X98000Y71000D02*
D03*
X86000Y95000D02*
D03*
X90000Y91000D02*
D03*
X88000Y93000D02*
D03*
X84000D02*
D03*
X82000Y95000D02*
D03*
X74000D02*
D03*
X90000D02*
D03*
X82000Y87000D02*
D03*
X90000D02*
D03*
X88000Y97000D02*
D03*
X90000Y99000D02*
D03*
X82000Y91000D02*
D03*
X78000Y95000D02*
D03*
X70000D02*
D03*
X66000D02*
D03*
X52000Y113000D02*
D03*
Y109000D02*
D03*
Y105000D02*
D03*
Y101000D02*
D03*
X62000Y95000D02*
D03*
X52000Y97000D02*
D03*
X54000Y95000D02*
D03*
Y91000D02*
D03*
X52000Y81000D02*
D03*
Y93000D02*
D03*
X56000Y89000D02*
D03*
Y93000D02*
D03*
X86000Y83000D02*
D03*
X88000Y81000D02*
D03*
Y85000D02*
D03*
X90000Y83000D02*
D03*
X84000Y85000D02*
D03*
X86000Y79000D02*
D03*
X84000Y81000D02*
D03*
X82000Y83000D02*
D03*
Y79000D02*
D03*
X78000D02*
D03*
X74000D02*
D03*
X76000Y61000D02*
D03*
X78000Y59000D02*
D03*
X74000D02*
D03*
X72000Y61000D02*
D03*
X80000Y57000D02*
D03*
X76000Y53000D02*
D03*
X78000Y55000D02*
D03*
X78000Y51000D02*
D03*
X74000D02*
D03*
X72000Y53000D02*
D03*
X70000Y51000D02*
D03*
X76000Y57000D02*
D03*
X72000D02*
D03*
X70000Y55000D02*
D03*
X68000Y53000D02*
D03*
X70000Y79000D02*
D03*
X54000D02*
D03*
X58000D02*
D03*
X52000Y77000D02*
D03*
Y73000D02*
D03*
X62000Y71000D02*
D03*
X52000Y69000D02*
D03*
X62000Y59000D02*
D03*
X60000Y61000D02*
D03*
X52000Y65000D02*
D03*
X62000Y67000D02*
D03*
Y63000D02*
D03*
X56000Y61000D02*
D03*
X52000D02*
D03*
X62000Y55000D02*
D03*
X60000Y57000D02*
D03*
X58000Y59000D02*
D03*
X54000D02*
D03*
X56000Y57000D02*
D03*
X58000Y55000D02*
D03*
X66000Y51000D02*
D03*
X64000Y53000D02*
D03*
X62000Y51000D02*
D03*
X60000Y53000D02*
D03*
X58000Y51000D02*
D03*
X95884Y85321D02*
D03*
Y85829D02*
D03*
X95376D02*
D03*
Y85321D02*
D03*
X103875Y82350D02*
D03*
X102750Y82375D02*
D03*
X80400Y151300D02*
D03*
X79400D02*
D03*
X75400Y151300D02*
D03*
X76400D02*
D03*
X71400D02*
D03*
X72400D02*
D03*
X67400D02*
D03*
X94191Y77811D02*
D03*
X83200Y132500D02*
D03*
X82050Y131350D02*
D03*
X83550Y128975D02*
D03*
X82000Y128250D02*
D03*
X96400Y117125D02*
D03*
X81400D02*
D03*
D163*
X72650Y140600D02*
D03*
X73675Y84375D02*
D03*
X63500Y111500D02*
D03*
X71875Y116242D02*
D03*
Y118258D02*
D03*
X83876Y136584D02*
D03*
X82150Y103475D02*
D03*
X65500Y98500D02*
D03*
X64500D02*
D03*
X58500Y109500D02*
D03*
X55200Y103500D02*
D03*
Y104000D02*
D03*
Y104500D02*
D03*
Y105000D02*
D03*
X57100Y104000D02*
D03*
X82150Y98125D02*
D03*
Y98775D02*
D03*
X77800Y107750D02*
D03*
Y107250D02*
D03*
Y106750D02*
D03*
X60050Y116300D02*
D03*
X74300Y118200D02*
D03*
X73800D02*
D03*
X73300D02*
D03*
X70450D02*
D03*
X69950D02*
D03*
X69450D02*
D03*
X68600D02*
D03*
X68100D02*
D03*
X67600D02*
D03*
X67100D02*
D03*
X66250D02*
D03*
X65750D02*
D03*
X65250D02*
D03*
X64750D02*
D03*
X63900D02*
D03*
X63400D02*
D03*
X62900D02*
D03*
X62400D02*
D03*
X61550D02*
D03*
X61050D02*
D03*
X60550D02*
D03*
X60050D02*
D03*
X59200D02*
D03*
X58700D02*
D03*
X58200D02*
D03*
X57700D02*
D03*
X90800Y163584D02*
D03*
X69350Y136850D02*
D03*
Y138850D02*
D03*
X86900Y113150D02*
D03*
X104550Y79700D02*
D03*
X62500Y112500D02*
D03*
X89725Y111892D02*
D03*
X73500Y109500D02*
D03*
X93108Y79601D02*
D03*
X92754Y79248D02*
D03*
X72500Y98500D02*
D03*
X73500D02*
D03*
X73500Y104500D02*
D03*
X69500Y109500D02*
D03*
X63500D02*
D03*
X69500Y103500D02*
D03*
X63500D02*
D03*
X67500Y104500D02*
D03*
X65500D02*
D03*
X67500Y105500D02*
D03*
X68500D02*
D03*
Y104500D02*
D03*
X68450Y107500D02*
D03*
X65500Y105500D02*
D03*
X64500D02*
D03*
Y104500D02*
D03*
Y107500D02*
D03*
X67500Y108500D02*
D03*
X68500D02*
D03*
X65500D02*
D03*
X64500D02*
D03*
X67450Y107500D02*
D03*
X65500D02*
D03*
X56200Y63450D02*
D03*
X83876Y151584D02*
D03*
Y150584D02*
D03*
Y149584D02*
D03*
Y148584D02*
D03*
Y135584D02*
D03*
X90800Y138584D02*
D03*
Y148584D02*
D03*
Y149584D02*
D03*
Y150584D02*
D03*
Y151584D02*
D03*
Y152584D02*
D03*
Y153584D02*
D03*
Y154584D02*
D03*
Y155584D02*
D03*
Y156584D02*
D03*
Y157584D02*
D03*
Y158584D02*
D03*
Y159584D02*
D03*
Y160584D02*
D03*
Y161584D02*
D03*
Y162584D02*
D03*
X83900Y159575D02*
D03*
Y160575D02*
D03*
X68950Y141775D02*
D03*
X68225Y141050D02*
D03*
X88550Y107650D02*
D03*
X88300Y107200D02*
D03*
X87850Y106950D02*
D03*
X87650Y121425D02*
D03*
X88150D02*
D03*
X88650D02*
D03*
X90725Y115200D02*
D03*
X89150Y115450D02*
D03*
X87150D02*
D03*
X88150D02*
D03*
X90650Y121425D02*
D03*
X69350Y138350D02*
D03*
Y137850D02*
D03*
Y137350D02*
D03*
X71150Y134600D02*
D03*
X74400Y138850D02*
D03*
Y136850D02*
D03*
D164*
X98536Y96687D02*
D03*
X96758D02*
D03*
X94980D02*
D03*
Y98313D02*
D03*
X96758D02*
D03*
X98536D02*
D03*
X100314D02*
D03*
Y96687D02*
D03*
X102092D02*
D03*
Y98313D02*
D03*
X103870D02*
D03*
Y96687D02*
D03*
X98536Y103012D02*
D03*
X100314D02*
D03*
X98536Y104587D02*
D03*
X100314D02*
D03*
X103235Y103012D02*
D03*
Y104587D02*
D03*
X98536Y91988D02*
D03*
Y90413D02*
D03*
X100314Y91988D02*
D03*
Y90413D02*
D03*
D178*
X90800Y151584D02*
X90800Y151584D01*
M02*
