G04*
G04 #@! TF.GenerationSoftware,Altium Limited,Altium Designer,21.7.2 (23)*
G04*
G04 Layer_Color=16711935*
%FSLAX43Y43*%
%MOMM*%
G71*
G04*
G04 #@! TF.SameCoordinates,A774AA4E-E338-4311-BF28-223F750F7C6B*
G04*
G04*
G04 #@! TF.FilePolarity,Negative*
G04*
G01*
G75*
%ADD74C,0.800*%
%ADD75C,0.550*%
%ADD77C,0.400*%
G04:AMPARAMS|DCode=84|XSize=0.63mm|YSize=0.62mm|CornerRadius=0.16mm|HoleSize=0mm|Usage=FLASHONLY|Rotation=180.000|XOffset=0mm|YOffset=0mm|HoleType=Round|Shape=RoundedRectangle|*
%AMROUNDEDRECTD84*
21,1,0.630,0.300,0,0,180.0*
21,1,0.310,0.620,0,0,180.0*
1,1,0.320,-0.155,0.150*
1,1,0.320,0.155,0.150*
1,1,0.320,0.155,-0.150*
1,1,0.320,-0.155,-0.150*
%
%ADD84ROUNDEDRECTD84*%
G04:AMPARAMS|DCode=87|XSize=0.52mm|YSize=0.62mm|CornerRadius=0.135mm|HoleSize=0mm|Usage=FLASHONLY|Rotation=90.000|XOffset=0mm|YOffset=0mm|HoleType=Round|Shape=RoundedRectangle|*
%AMROUNDEDRECTD87*
21,1,0.520,0.350,0,0,90.0*
21,1,0.250,0.620,0,0,90.0*
1,1,0.270,0.175,0.125*
1,1,0.270,0.175,-0.125*
1,1,0.270,-0.175,-0.125*
1,1,0.270,-0.175,0.125*
%
%ADD87ROUNDEDRECTD87*%
G04:AMPARAMS|DCode=97|XSize=0.52mm|YSize=0.62mm|CornerRadius=0.135mm|HoleSize=0mm|Usage=FLASHONLY|Rotation=180.000|XOffset=0mm|YOffset=0mm|HoleType=Round|Shape=RoundedRectangle|*
%AMROUNDEDRECTD97*
21,1,0.520,0.350,0,0,180.0*
21,1,0.250,0.620,0,0,180.0*
1,1,0.270,-0.125,0.175*
1,1,0.270,0.125,0.175*
1,1,0.270,0.125,-0.175*
1,1,0.270,-0.125,-0.175*
%
%ADD97ROUNDEDRECTD97*%
G04:AMPARAMS|DCode=98|XSize=0.92mm|YSize=0.82mm|CornerRadius=0.21mm|HoleSize=0mm|Usage=FLASHONLY|Rotation=0.000|XOffset=0mm|YOffset=0mm|HoleType=Round|Shape=RoundedRectangle|*
%AMROUNDEDRECTD98*
21,1,0.920,0.400,0,0,0.0*
21,1,0.500,0.820,0,0,0.0*
1,1,0.420,0.250,-0.200*
1,1,0.420,-0.250,-0.200*
1,1,0.420,-0.250,0.200*
1,1,0.420,0.250,0.200*
%
%ADD98ROUNDEDRECTD98*%
G04:AMPARAMS|DCode=101|XSize=0.63mm|YSize=0.62mm|CornerRadius=0.16mm|HoleSize=0mm|Usage=FLASHONLY|Rotation=270.000|XOffset=0mm|YOffset=0mm|HoleType=Round|Shape=RoundedRectangle|*
%AMROUNDEDRECTD101*
21,1,0.630,0.300,0,0,270.0*
21,1,0.310,0.620,0,0,270.0*
1,1,0.320,-0.150,-0.155*
1,1,0.320,-0.150,0.155*
1,1,0.320,0.150,0.155*
1,1,0.320,0.150,-0.155*
%
%ADD101ROUNDEDRECTD101*%
G04:AMPARAMS|DCode=104|XSize=0.92mm|YSize=0.82mm|CornerRadius=0.21mm|HoleSize=0mm|Usage=FLASHONLY|Rotation=270.000|XOffset=0mm|YOffset=0mm|HoleType=Round|Shape=RoundedRectangle|*
%AMROUNDEDRECTD104*
21,1,0.920,0.400,0,0,270.0*
21,1,0.500,0.820,0,0,270.0*
1,1,0.420,-0.200,-0.250*
1,1,0.420,-0.200,0.250*
1,1,0.420,0.200,0.250*
1,1,0.420,0.200,-0.250*
%
%ADD104ROUNDEDRECTD104*%
%ADD133O,3.620X3.680*%
%ADD134O,1.620X1.320*%
%ADD137C,1.302*%
%ADD138R,1.302X1.302*%
%ADD141C,6.020*%
%ADD142C,1.520*%
%ADD180O,2.357X0.630*%
G36*
X58652Y189191D02*
X58727Y189160D01*
X58823Y189086D01*
X58823Y189086D01*
X58823Y189086D01*
X58823Y189086D01*
X68490Y179419D01*
X68580Y179337D01*
X68782Y179203D01*
X69006Y179110D01*
X69243Y179063D01*
X69365Y179057D01*
X100861Y179057D01*
X100918Y179057D01*
X101031Y179034D01*
X101137Y178990D01*
X101178Y178963D01*
X101273Y178886D01*
X101273Y178886D01*
X101273Y178886D01*
X101273Y178886D01*
X102647Y177513D01*
X102697Y177462D01*
X102776Y177343D01*
X102831Y177212D01*
X102850Y177117D01*
X102858Y177000D01*
Y177000D01*
X102858Y177000D01*
X102859Y177000D01*
X102810Y139394D01*
X102817Y139241D01*
X102876Y138943D01*
X102993Y138661D01*
X103162Y138408D01*
X103264Y138295D01*
X103264Y138295D01*
X112882Y128678D01*
X112910Y128649D01*
X112956Y128581D01*
X112987Y128506D01*
X112987Y128502D01*
X113002Y128386D01*
Y128386D01*
X113002Y128386D01*
X113002Y128386D01*
X113002Y51107D01*
Y50987D01*
X112911Y50767D01*
X112742Y50598D01*
X112522Y50507D01*
X112402Y50507D01*
X112402Y50507D01*
X112402Y50507D01*
X100000D01*
X100000Y61500D01*
X100000Y61500D01*
X100000Y61500D01*
X100000Y61648D01*
X99942Y61938D01*
X99829Y62211D01*
X99665Y62456D01*
X99456Y62665D01*
X99211Y62829D01*
X98938Y62942D01*
X98648Y63000D01*
X98500Y63000D01*
X90500Y63000D01*
X90500Y63000D01*
X90352D01*
X90062Y62942D01*
X89789Y62829D01*
X89544Y62665D01*
X89335Y62456D01*
X89171Y62211D01*
X89058Y61938D01*
X89000Y61648D01*
Y61500D01*
Y50507D01*
X50943D01*
X50741Y50591D01*
X50586Y50745D01*
X50502Y50947D01*
Y51057D01*
Y188607D01*
Y188726D01*
X50594Y188947D01*
X50763Y189115D01*
X50983Y189207D01*
X51102Y189207D01*
X51102Y189207D01*
X58532Y189207D01*
X58572Y189207D01*
X58652Y189191D01*
D02*
G37*
%LPC*%
G36*
X91250Y171250D02*
X91250Y171250D01*
X59250Y171250D01*
X59102Y171250D01*
X58812Y171192D01*
X58539Y171079D01*
X58294Y170915D01*
X58085Y170706D01*
X57921Y170460D01*
X57808Y170188D01*
X57750Y169898D01*
X57750Y169750D01*
Y154750D01*
Y154602D01*
X57808Y154312D01*
X57921Y154039D01*
X58085Y153794D01*
X58294Y153585D01*
X58539Y153421D01*
X58812Y153308D01*
X59102Y153250D01*
X59250D01*
X63500Y153250D01*
X63647Y153243D01*
X63935Y153185D01*
X64207Y153073D01*
X64452Y152910D01*
X64660Y152702D01*
X64823Y152457D01*
X64935Y152185D01*
X64993Y151897D01*
X65000Y151750D01*
X65000D01*
X65000Y151750D01*
Y127250D01*
Y127102D01*
X65058Y126812D01*
X65171Y126539D01*
X65335Y126294D01*
X65544Y126085D01*
X65789Y125921D01*
X66062Y125808D01*
X66352Y125750D01*
X66500D01*
X78250Y125750D01*
X78397Y125743D01*
X78685Y125685D01*
X78957Y125573D01*
X79202Y125409D01*
X79410Y125202D01*
X79573Y124957D01*
X79685Y124685D01*
X79743Y124397D01*
X79750Y124250D01*
X79750Y124250D01*
X79750Y124250D01*
Y119500D01*
Y113750D01*
Y112602D01*
X79808Y112312D01*
X79921Y112039D01*
X80085Y111794D01*
X80294Y111585D01*
X80539Y111421D01*
X80812Y111308D01*
X81102Y111250D01*
X96648D01*
X96938Y111308D01*
X97211Y111421D01*
X97456Y111585D01*
X97665Y111794D01*
X97829Y112039D01*
X97942Y112312D01*
X98000Y112602D01*
Y112750D01*
Y119500D01*
X98000Y131000D01*
X98000Y131148D01*
X97942Y131438D01*
X97829Y131711D01*
X97665Y131956D01*
X97456Y132165D01*
X97210Y132329D01*
X96937Y132442D01*
X96648Y132500D01*
X96500Y132500D01*
X96500Y132500D01*
X96500Y132500D01*
X94250D01*
X94103Y132507D01*
X93815Y132565D01*
X93543Y132677D01*
X93298Y132840D01*
X93090Y133048D01*
X92927Y133293D01*
X92815Y133564D01*
X92757Y133853D01*
X92750Y134000D01*
X92750Y134000D01*
X92750Y169750D01*
X92750Y169898D01*
X92692Y170188D01*
X92579Y170461D01*
X92415Y170706D01*
X92206Y170915D01*
X91960Y171079D01*
X91687Y171192D01*
X91398Y171250D01*
X91250Y171250D01*
X91250Y171250D01*
D02*
G37*
G36*
X55398Y144000D02*
X55250Y144000D01*
X52750Y144000D01*
Y144000D01*
X52750Y144000D01*
X52602Y144000D01*
X52312Y143942D01*
X52039Y143829D01*
X51794Y143665D01*
X51585Y143456D01*
X51421Y143211D01*
X51308Y142938D01*
X51250Y142648D01*
Y142500D01*
Y129500D01*
X51250D01*
X51250Y129500D01*
X51250Y129352D01*
X51308Y129062D01*
X51421Y128789D01*
X51585Y128544D01*
X51794Y128335D01*
X52039Y128171D01*
X52312Y128058D01*
X52602Y128000D01*
X55250D01*
X55398Y128000D01*
X55688Y128057D01*
X55961Y128170D01*
X56207Y128334D01*
X56416Y128543D01*
X56580Y128789D01*
X56693Y129062D01*
X56750Y129352D01*
X56750Y129500D01*
X56750Y142500D01*
X56750Y142500D01*
X56750Y142500D01*
X56750Y142648D01*
X56693Y142938D01*
X56579Y143211D01*
X56415Y143456D01*
X56206Y143665D01*
X55961Y143829D01*
X55688Y143943D01*
X55398Y144000D01*
D02*
G37*
G36*
X91750Y108750D02*
X88750Y108750D01*
X88602D01*
X88312Y108692D01*
X88039Y108579D01*
X87794Y108415D01*
X87585Y108206D01*
X87421Y107961D01*
X87308Y107688D01*
X87250Y107398D01*
X87250Y107250D01*
X87250Y107250D01*
X87250Y107250D01*
X87250Y101750D01*
X87250Y101602D01*
X87308Y101312D01*
X87421Y101039D01*
X87585Y100794D01*
X87794Y100585D01*
X88039Y100421D01*
X88312Y100308D01*
X88602Y100250D01*
X88750Y100250D01*
X88750Y100250D01*
X88750Y100250D01*
X91750Y100250D01*
X91898Y100250D01*
X92188Y100308D01*
X92461Y100421D01*
X92706Y100585D01*
X92915Y100794D01*
X93079Y101039D01*
X93192Y101312D01*
X93250Y101602D01*
X93250Y101750D01*
X93250Y101750D01*
X93250Y101750D01*
X93250Y107250D01*
X93250Y107398D01*
X93192Y107688D01*
X93079Y107961D01*
X92915Y108206D01*
X92706Y108415D01*
X92461Y108579D01*
X92188Y108692D01*
X91898Y108750D01*
X91750Y108750D01*
X91750Y108750D01*
D02*
G37*
G36*
X75398Y119750D02*
X75250Y119750D01*
X55750Y119750D01*
X55750Y119750D01*
X55602D01*
X55312Y119692D01*
X55039Y119579D01*
X54794Y119415D01*
X54585Y119206D01*
X54421Y118961D01*
X54308Y118688D01*
X54250Y118398D01*
Y118250D01*
Y98000D01*
X54250Y97852D01*
X54308Y97562D01*
X54421Y97289D01*
X54585Y97044D01*
X54794Y96835D01*
X55039Y96671D01*
X55312Y96558D01*
X55602Y96500D01*
X55750Y96500D01*
X83000D01*
X83148Y96500D01*
X83438Y96558D01*
X83711Y96671D01*
X83956Y96835D01*
X84165Y97044D01*
X84329Y97289D01*
X84442Y97562D01*
X84500Y97852D01*
X84500Y98000D01*
X84500Y107750D01*
X84500Y107750D01*
X84500Y107750D01*
X84500Y107898D01*
X84442Y108188D01*
X84329Y108461D01*
X84165Y108706D01*
X83956Y108915D01*
X83711Y109079D01*
X83438Y109192D01*
X83148Y109250D01*
X83000Y109250D01*
X78750Y109250D01*
X78250D01*
X78103Y109257D01*
X77815Y109315D01*
X77543Y109427D01*
X77298Y109590D01*
X77090Y109798D01*
X76927Y110043D01*
X76815Y110315D01*
X76757Y110603D01*
X76750Y110750D01*
X76750Y118250D01*
X76750Y118250D01*
X76750Y118250D01*
X76750Y118398D01*
X76692Y118688D01*
X76579Y118961D01*
X76415Y119206D01*
X76206Y119415D01*
X75961Y119579D01*
X75688Y119692D01*
X75398Y119750D01*
D02*
G37*
G36*
X79500Y93750D02*
X79500Y93750D01*
X61250Y93750D01*
X61102Y93750D01*
X60812Y93692D01*
X60539Y93579D01*
X60294Y93415D01*
X60085Y93206D01*
X59921Y92961D01*
X59808Y92688D01*
X59750Y92398D01*
X59750Y92250D01*
Y84250D01*
Y84102D01*
X59808Y83812D01*
X59921Y83539D01*
X60085Y83294D01*
X60294Y83085D01*
X60539Y82921D01*
X60812Y82808D01*
X61102Y82750D01*
X61250D01*
Y82750D01*
X79648D01*
X79938Y82808D01*
X80211Y82921D01*
X80456Y83085D01*
X80665Y83294D01*
X80829Y83539D01*
X80942Y83812D01*
X81000Y84102D01*
X81000Y84250D01*
X81000Y84250D01*
X81000Y92250D01*
X81000Y92398D01*
X80942Y92688D01*
X80829Y92961D01*
X80665Y93206D01*
X80456Y93415D01*
X80211Y93579D01*
X79938Y93692D01*
X79648Y93750D01*
X79500Y93750D01*
X79500Y93750D01*
D02*
G37*
G36*
X94000Y92750D02*
X94000Y92750D01*
X91000Y92750D01*
X90852Y92750D01*
X90562Y92692D01*
X90289Y92579D01*
X90044Y92415D01*
X89835Y92206D01*
X89671Y91961D01*
X89558Y91688D01*
X89500Y91398D01*
X89500Y91250D01*
X89500Y91250D01*
X89500Y91250D01*
X89500Y80000D01*
X89500Y79852D01*
X89558Y79562D01*
X89671Y79289D01*
X89835Y79044D01*
X90044Y78835D01*
X90289Y78671D01*
X90562Y78558D01*
X90852Y78500D01*
X91000Y78500D01*
X94000D01*
X94148Y78500D01*
X94438Y78558D01*
X94711Y78671D01*
X94956Y78835D01*
X95165Y79044D01*
X95329Y79289D01*
X95442Y79562D01*
X95500Y79852D01*
X95500Y80000D01*
X95500Y80000D01*
X95500Y91250D01*
X95500Y91398D01*
X95442Y91688D01*
X95329Y91961D01*
X95165Y92206D01*
X94956Y92415D01*
X94711Y92579D01*
X94438Y92692D01*
X94148Y92750D01*
X94000Y92750D01*
X94000Y92750D01*
D02*
G37*
G36*
X105250Y87500D02*
X105250Y87500D01*
X102250Y87500D01*
X102102Y87500D01*
X101812Y87442D01*
X101539Y87329D01*
X101294Y87165D01*
X101085Y86956D01*
X100921Y86711D01*
X100808Y86438D01*
X100750Y86148D01*
X100750Y86000D01*
X100750Y86000D01*
X100750Y86000D01*
Y80500D01*
X100750Y80352D01*
X100808Y80062D01*
X100921Y79789D01*
X101085Y79544D01*
X101294Y79335D01*
X101539Y79171D01*
X101812Y79058D01*
X102102Y79000D01*
X102250Y79000D01*
X102250Y79000D01*
X105398D01*
X105688Y79058D01*
X105961Y79171D01*
X106206Y79335D01*
X106415Y79544D01*
X106579Y79789D01*
X106692Y80062D01*
X106750Y80352D01*
Y80500D01*
X106750D01*
X106750Y86000D01*
X106750Y86148D01*
X106692Y86438D01*
X106579Y86711D01*
X106415Y86956D01*
X106206Y87165D01*
X105961Y87329D01*
X105688Y87442D01*
X105398Y87500D01*
X105250Y87500D01*
X105250Y87500D01*
D02*
G37*
G36*
X71250Y77250D02*
X71250Y77250D01*
X65000Y77250D01*
X64852Y77250D01*
X64562Y77192D01*
X64289Y77079D01*
X64044Y76915D01*
X63835Y76706D01*
X63671Y76461D01*
X63558Y76188D01*
X63500Y75898D01*
X63500Y75750D01*
Y72250D01*
Y72102D01*
X63558Y71812D01*
X63671Y71539D01*
X63835Y71294D01*
X64044Y71085D01*
X64289Y70921D01*
X64562Y70808D01*
X64852Y70750D01*
X65000D01*
X65000Y70750D01*
X71250D01*
X71398Y70750D01*
X71688Y70808D01*
X71961Y70921D01*
X72206Y71085D01*
X72415Y71294D01*
X72579Y71539D01*
X72692Y71812D01*
X72750Y72102D01*
X72750Y72250D01*
X72750Y72250D01*
X72750Y75750D01*
X72750Y75898D01*
X72692Y76188D01*
X72579Y76461D01*
X72415Y76706D01*
X72206Y76915D01*
X71961Y77079D01*
X71688Y77192D01*
X71398Y77250D01*
X71250Y77250D01*
X71250Y77250D01*
D02*
G37*
G36*
X54352Y77250D02*
X54062Y77192D01*
X53789Y77079D01*
X53544Y76915D01*
X53335Y76706D01*
X53171Y76461D01*
X53058Y76188D01*
X53000Y75898D01*
X53000Y75750D01*
Y64000D01*
X53000Y63852D01*
X53058Y63562D01*
X53171Y63289D01*
X53335Y63044D01*
X53544Y62835D01*
X53789Y62671D01*
X54062Y62558D01*
X54352Y62500D01*
X54500Y62500D01*
X59000D01*
X59148Y62500D01*
X59438Y62558D01*
X59710Y62671D01*
X59956Y62835D01*
X60165Y63044D01*
X60329Y63289D01*
X60442Y63562D01*
X60500Y63852D01*
X60500Y64000D01*
X60500Y64000D01*
X60500Y75750D01*
X60500Y75898D01*
X60442Y76188D01*
X60329Y76461D01*
X60165Y76706D01*
X59956Y76915D01*
X59711Y77079D01*
X59438Y77192D01*
X59148Y77250D01*
X59000Y77250D01*
X59000Y77250D01*
X59000Y77250D01*
X54500Y77250D01*
X54352Y77250D01*
D02*
G37*
G36*
X68000Y60500D02*
X68000Y60500D01*
X65750Y60500D01*
X65602Y60500D01*
X65312Y60442D01*
X65039Y60329D01*
X64794Y60165D01*
X64585Y59956D01*
X64421Y59711D01*
X64308Y59438D01*
X64250Y59148D01*
X64250Y59000D01*
Y58602D01*
X64308Y58312D01*
X64421Y58039D01*
X64585Y57794D01*
X64794Y57585D01*
X65039Y57421D01*
X65312Y57308D01*
X65602Y57250D01*
X68148Y57250D01*
X68438Y57308D01*
X68711Y57421D01*
X68956Y57585D01*
X69165Y57794D01*
X69329Y58039D01*
X69442Y58312D01*
X69500Y58602D01*
X69500Y58750D01*
X69500Y58750D01*
X69500D01*
X69500Y59000D01*
X69500Y59148D01*
X69442Y59438D01*
X69329Y59711D01*
X69165Y59956D01*
X68956Y60165D01*
X68711Y60329D01*
X68438Y60442D01*
X68148Y60500D01*
X68000Y60500D01*
X68000Y60500D01*
D02*
G37*
%LPD*%
G36*
X73238Y139526D02*
X73251Y139523D01*
X73264Y139519D01*
X73276Y139513D01*
X73287Y139506D01*
X73297Y139497D01*
X73306Y139487D01*
X73313Y139476D01*
X73319Y139464D01*
X73323Y139451D01*
X73326Y139438D01*
X73327Y139425D01*
Y135775D01*
X73326Y135762D01*
X73323Y135749D01*
X73319Y135736D01*
X73313Y135724D01*
X73306Y135713D01*
X73297Y135703D01*
X73287Y135694D01*
X73276Y135687D01*
X73264Y135681D01*
X73251Y135677D01*
X73238Y135674D01*
X73225Y135673D01*
X70575D01*
X70562Y135674D01*
X70549Y135677D01*
X70536Y135681D01*
X70524Y135687D01*
X70513Y135694D01*
X70503Y135703D01*
X70494Y135713D01*
X70487Y135724D01*
X70481Y135736D01*
X70477Y135749D01*
X70474Y135762D01*
X70473Y135775D01*
Y139069D01*
X70474Y139082D01*
X70477Y139095D01*
X70481Y139108D01*
X70487Y139120D01*
X70494Y139131D01*
X70503Y139141D01*
X70859Y139497D01*
X70869Y139506D01*
X70880Y139513D01*
X70892Y139519D01*
X70905Y139523D01*
X70918Y139526D01*
X70931Y139527D01*
X73225D01*
X73238Y139526D01*
D02*
G37*
D74*
X71900Y128847D02*
G03*
X73297Y127450I1397J0D01*
G01*
X89400Y123445D02*
G03*
X85395Y127450I-4005J0D01*
G01*
X71900Y128847D02*
Y128917D01*
X89400Y122967D02*
Y123445D01*
X73297Y127450D02*
X85395D01*
D75*
X72450Y129450D02*
G03*
X72030Y129030I0J-420D01*
G01*
X71770D02*
G03*
X71350Y129450I-420J0D01*
G01*
X89825Y122125D02*
G03*
X89599Y122671I-773J0D01*
G01*
X89201D02*
G03*
X88975Y122125I546J-546D01*
G01*
X89201Y122671D02*
G03*
X89270Y122837I-166J166D01*
G01*
X89530Y122837D02*
G03*
X89599Y122671I235J0D01*
G01*
D77*
X90000Y140600D02*
X90800D01*
X90000Y141600D02*
X90800D01*
X90000Y135600D02*
X90800D01*
X90000Y136600D02*
X90800D01*
X89650Y121425D02*
Y121950D01*
X89150Y121425D02*
Y121950D01*
D84*
X84400Y128467D02*
D03*
Y129483D02*
D03*
Y126383D02*
D03*
Y125367D02*
D03*
X93400Y129483D02*
D03*
Y128467D02*
D03*
Y126383D02*
D03*
Y125367D02*
D03*
X80900Y118183D02*
D03*
Y117167D02*
D03*
X96900Y118183D02*
D03*
Y117167D02*
D03*
D87*
X89825Y122125D02*
D03*
X71150Y141700D02*
D03*
X72150D02*
D03*
X71150Y142607D02*
D03*
X72150D02*
D03*
X70150Y140000D02*
D03*
X71150D02*
D03*
X73200D02*
D03*
X74200D02*
D03*
X73650Y135200D02*
D03*
X72650D02*
D03*
X90825Y122125D02*
D03*
X88975D02*
D03*
X87975D02*
D03*
X69000Y111000D02*
D03*
X68000D02*
D03*
X71000Y110000D02*
D03*
X70000D02*
D03*
Y108000D02*
D03*
X69000D02*
D03*
X70000Y107000D02*
D03*
X69000D02*
D03*
X70000Y106000D02*
D03*
X69000D02*
D03*
X70000Y105000D02*
D03*
X69000D02*
D03*
X71000Y103000D02*
D03*
X70000D02*
D03*
X65000Y102000D02*
D03*
X66000D02*
D03*
X63000Y105000D02*
D03*
X64000D02*
D03*
X63000Y106000D02*
D03*
X64000D02*
D03*
X63000Y108000D02*
D03*
X64000D02*
D03*
X63000Y107000D02*
D03*
X64000D02*
D03*
X61000Y112000D02*
D03*
X62000D02*
D03*
D97*
X97500Y62250D02*
D03*
Y61250D02*
D03*
X95500Y62250D02*
D03*
Y61250D02*
D03*
X70000Y136850D02*
D03*
Y135850D02*
D03*
X68000Y110000D02*
D03*
Y109000D02*
D03*
X67000Y110000D02*
D03*
Y109000D02*
D03*
X65000Y110000D02*
D03*
Y109000D02*
D03*
X66000Y110000D02*
D03*
Y109000D02*
D03*
X65000Y103000D02*
D03*
Y104000D02*
D03*
X67000Y103000D02*
D03*
Y104000D02*
D03*
X66000Y103000D02*
D03*
Y104000D02*
D03*
D98*
X73150Y141700D02*
D03*
Y143224D02*
D03*
D101*
X92808Y124275D02*
D03*
X91792D02*
D03*
X95008D02*
D03*
X93992D02*
D03*
X86008Y124275D02*
D03*
X84992D02*
D03*
X83808D02*
D03*
X82792D02*
D03*
X86008Y130575D02*
D03*
X84992D02*
D03*
X83808D02*
D03*
X82792D02*
D03*
X93992Y130575D02*
D03*
X95008D02*
D03*
X91792D02*
D03*
X92808D02*
D03*
D104*
X75450Y137600D02*
D03*
X76850D02*
D03*
D133*
X76670Y175730D02*
D03*
X86068Y88735D02*
D03*
X53810D02*
D03*
X81750Y53810D02*
D03*
X109690Y103340D02*
D03*
X53810Y154775D02*
D03*
X99530Y149695D02*
D03*
X109690Y74130D02*
D03*
D134*
X55000Y142000D02*
D03*
Y140000D02*
D03*
Y138000D02*
D03*
Y136000D02*
D03*
Y134000D02*
D03*
Y132000D02*
D03*
Y130000D02*
D03*
X53000Y142000D02*
D03*
Y140000D02*
D03*
Y138000D02*
D03*
Y136000D02*
D03*
Y134000D02*
D03*
Y132000D02*
D03*
Y130000D02*
D03*
D137*
X91498Y58547D02*
D03*
X93498D02*
D03*
X95498D02*
D03*
D138*
X97498D02*
D03*
D141*
X53810Y53810D02*
D03*
X109690D02*
D03*
X99530Y175730D02*
D03*
X53810Y185890D02*
D03*
Y123660D02*
D03*
X109690D02*
D03*
D142*
X87338Y132884D02*
D03*
Y167284D02*
D03*
D180*
X85338Y148584D02*
D03*
Y164584D02*
D03*
Y165584D02*
D03*
Y163584D02*
D03*
Y151584D02*
D03*
Y160584D02*
D03*
Y154584D02*
D03*
Y144584D02*
D03*
Y161584D02*
D03*
Y147584D02*
D03*
Y152584D02*
D03*
Y146584D02*
D03*
Y155584D02*
D03*
Y159584D02*
D03*
Y157584D02*
D03*
Y156584D02*
D03*
Y158584D02*
D03*
Y145584D02*
D03*
Y153584D02*
D03*
Y162584D02*
D03*
Y143584D02*
D03*
Y150584D02*
D03*
Y149584D02*
D03*
Y142584D02*
D03*
X89338Y153584D02*
D03*
Y162584D02*
D03*
Y154584D02*
D03*
X85338Y139584D02*
D03*
Y134584D02*
D03*
Y141584D02*
D03*
Y138584D02*
D03*
Y135584D02*
D03*
Y137584D02*
D03*
X89338Y138584D02*
D03*
Y137584D02*
D03*
Y134584D02*
D03*
Y140584D02*
D03*
Y135584D02*
D03*
X85338Y136584D02*
D03*
Y140584D02*
D03*
X89338Y165584D02*
D03*
Y164584D02*
D03*
Y163584D02*
D03*
Y161584D02*
D03*
Y160584D02*
D03*
Y159584D02*
D03*
Y158584D02*
D03*
Y157584D02*
D03*
Y156584D02*
D03*
Y155584D02*
D03*
Y152584D02*
D03*
Y151584D02*
D03*
Y150584D02*
D03*
Y149584D02*
D03*
Y148584D02*
D03*
Y147584D02*
D03*
Y146584D02*
D03*
Y145584D02*
D03*
Y144584D02*
D03*
Y143584D02*
D03*
Y142584D02*
D03*
Y141584D02*
D03*
Y139584D02*
D03*
Y136584D02*
D03*
M02*
