G04*
G04 #@! TF.GenerationSoftware,Altium Limited,Altium Designer,21.7.2 (23)*
G04*
G04 Layer_Physical_Order=8*
G04 Layer_Color=16711680*
%FSLAX43Y43*%
%MOMM*%
G71*
G04*
G04 #@! TF.SameCoordinates,E45341BC-5B8A-4208-AAAD-0714A86AB049*
G04*
G04*
G04 #@! TF.FilePolarity,Positive*
G04*
G01*
G75*
%ADD11C,0.250*%
%ADD17C,0.300*%
G04:AMPARAMS|DCode=22|XSize=0.61mm|YSize=0.6mm|CornerRadius=0.15mm|HoleSize=0mm|Usage=FLASHONLY|Rotation=270.000|XOffset=0mm|YOffset=0mm|HoleType=Round|Shape=RoundedRectangle|*
%AMROUNDEDRECTD22*
21,1,0.610,0.300,0,0,270.0*
21,1,0.310,0.600,0,0,270.0*
1,1,0.300,-0.150,-0.155*
1,1,0.300,-0.150,0.155*
1,1,0.300,0.150,0.155*
1,1,0.300,0.150,-0.155*
%
%ADD22ROUNDEDRECTD22*%
G04:AMPARAMS|DCode=27|XSize=0.5mm|YSize=0.6mm|CornerRadius=0.125mm|HoleSize=0mm|Usage=FLASHONLY|Rotation=270.000|XOffset=0mm|YOffset=0mm|HoleType=Round|Shape=RoundedRectangle|*
%AMROUNDEDRECTD27*
21,1,0.500,0.350,0,0,270.0*
21,1,0.250,0.600,0,0,270.0*
1,1,0.250,-0.175,-0.125*
1,1,0.250,-0.175,0.125*
1,1,0.250,0.175,0.125*
1,1,0.250,0.175,-0.125*
%
%ADD27ROUNDEDRECTD27*%
G04:AMPARAMS|DCode=28|XSize=0.5mm|YSize=0.6mm|CornerRadius=0.125mm|HoleSize=0mm|Usage=FLASHONLY|Rotation=0.000|XOffset=0mm|YOffset=0mm|HoleType=Round|Shape=RoundedRectangle|*
%AMROUNDEDRECTD28*
21,1,0.500,0.350,0,0,0.0*
21,1,0.250,0.600,0,0,0.0*
1,1,0.250,0.125,-0.175*
1,1,0.250,-0.125,-0.175*
1,1,0.250,-0.125,0.175*
1,1,0.250,0.125,0.175*
%
%ADD28ROUNDEDRECTD28*%
G04:AMPARAMS|DCode=37|XSize=0.9mm|YSize=0.8mm|CornerRadius=0.2mm|HoleSize=0mm|Usage=FLASHONLY|Rotation=270.000|XOffset=0mm|YOffset=0mm|HoleType=Round|Shape=RoundedRectangle|*
%AMROUNDEDRECTD37*
21,1,0.900,0.400,0,0,270.0*
21,1,0.500,0.800,0,0,270.0*
1,1,0.400,-0.200,-0.250*
1,1,0.400,-0.200,0.250*
1,1,0.400,0.200,0.250*
1,1,0.400,0.200,-0.250*
%
%ADD37ROUNDEDRECTD37*%
G04:AMPARAMS|DCode=42|XSize=0.61mm|YSize=0.6mm|CornerRadius=0.15mm|HoleSize=0mm|Usage=FLASHONLY|Rotation=180.000|XOffset=0mm|YOffset=0mm|HoleType=Round|Shape=RoundedRectangle|*
%AMROUNDEDRECTD42*
21,1,0.610,0.300,0,0,180.0*
21,1,0.310,0.600,0,0,180.0*
1,1,0.300,-0.155,0.150*
1,1,0.300,0.155,0.150*
1,1,0.300,0.155,-0.150*
1,1,0.300,-0.155,-0.150*
%
%ADD42ROUNDEDRECTD42*%
G04:AMPARAMS|DCode=52|XSize=0.9mm|YSize=0.8mm|CornerRadius=0.2mm|HoleSize=0mm|Usage=FLASHONLY|Rotation=0.000|XOffset=0mm|YOffset=0mm|HoleType=Round|Shape=RoundedRectangle|*
%AMROUNDEDRECTD52*
21,1,0.900,0.400,0,0,0.0*
21,1,0.500,0.800,0,0,0.0*
1,1,0.400,0.250,-0.200*
1,1,0.400,-0.250,-0.200*
1,1,0.400,-0.250,0.200*
1,1,0.400,0.250,0.200*
%
%ADD52ROUNDEDRECTD52*%
%ADD76C,0.500*%
%ADD78C,0.400*%
%ADD79C,0.600*%
%ADD147C,0.170*%
%ADD148C,0.115*%
%ADD149C,0.185*%
%ADD151C,4.500*%
%ADD152R,1.150X1.150*%
%ADD153C,1.150*%
%ADD154O,1.600X1.300*%
%ADD155R,3.450X3.450*%
%ADD156R,1.000X1.800*%
%ADD157O,0.500X1.500*%
%ADD158R,1.250X1.250*%
%ADD159C,6.000*%
%ADD160C,1.500*%
%ADD161R,1.800X1.000*%
%ADD162P,3.818X4X180.0*%
%ADD163P,1.626X4X180.0*%
%ADD164C,0.600*%
%ADD165C,0.400*%
%ADD166C,0.700*%
%ADD180O,2.337X0.610*%
G36*
X51000Y189700D02*
X58455Y189700D01*
X58455Y189700D01*
X58455Y189700D01*
X58457D01*
X58572Y189698D01*
X58768Y189659D01*
X58964Y189578D01*
X59140Y189460D01*
X59215Y189385D01*
X68673Y179927D01*
X68760Y179840D01*
X68832Y179775D01*
X68850Y179763D01*
X68850Y179763D01*
X68851Y179762D01*
X68993Y179667D01*
X69173Y179593D01*
X69364Y179555D01*
X69461Y179550D01*
X100851D01*
X100851Y179550D01*
X100851Y179550D01*
X100852D01*
X100969Y179548D01*
X101167Y179508D01*
X101364Y179427D01*
X101542Y179308D01*
X101618Y179232D01*
X102944Y177906D01*
X103029Y177821D01*
X103029Y177821D01*
X103112Y177734D01*
X103225Y177565D01*
X103308Y177366D01*
X103350Y177154D01*
X103350Y177046D01*
X103350Y139311D01*
X103350Y139311D01*
X103355Y139214D01*
X103393Y139023D01*
X103467Y138843D01*
X103575Y138682D01*
X103640Y138610D01*
X113185Y129065D01*
X113185Y129065D01*
X113260Y128990D01*
X113378Y128814D01*
X113459Y128618D01*
X113500Y128411D01*
X113500Y128305D01*
X113500Y51000D01*
X113500Y51000D01*
Y50902D01*
X113462Y50708D01*
X113386Y50526D01*
X113277Y50363D01*
X113137Y50223D01*
X112974Y50114D01*
X112792Y50038D01*
X112598Y50000D01*
X51000D01*
X51000Y50000D01*
X50901Y50000D01*
X50708Y50038D01*
X50526Y50114D01*
X50363Y50223D01*
X50223Y50363D01*
X50114Y50526D01*
X50038Y50708D01*
X50000Y50902D01*
X50000Y51000D01*
Y188700D01*
X50000Y188798D01*
X50038Y188992D01*
X50114Y189174D01*
X50223Y189337D01*
X50363Y189477D01*
X50526Y189586D01*
X50708Y189662D01*
X50902Y189700D01*
X51000Y189700D01*
D02*
G37*
%LPC*%
G36*
X68850Y170859D02*
X68250D01*
X68206Y170850D01*
X68160D01*
X68119Y170833D01*
X68074Y170824D01*
X68037Y170799D01*
X67995Y170781D01*
X67963Y170750D01*
X67926Y170724D01*
X67900Y170687D01*
X67869Y170655D01*
X67851Y170613D01*
X67826Y170576D01*
X67817Y170531D01*
X67800Y170490D01*
Y170444D01*
X67791Y170400D01*
Y169800D01*
X67800Y169756D01*
Y169710D01*
X67817Y169669D01*
X67826Y169624D01*
X67851Y169587D01*
X67869Y169545D01*
X67900Y169513D01*
X67926Y169476D01*
X67963Y169450D01*
X67995Y169419D01*
X68037Y169401D01*
X68074Y169376D01*
X68119Y169367D01*
X68160Y169350D01*
X68206D01*
X68250Y169341D01*
X68850D01*
X68894Y169350D01*
X68940D01*
X68981Y169367D01*
X69026Y169376D01*
X69063Y169401D01*
X69105Y169419D01*
X69137Y169450D01*
X69174Y169476D01*
X69200Y169513D01*
X69231Y169545D01*
X69249Y169587D01*
X69274Y169624D01*
X69283Y169669D01*
X69300Y169710D01*
Y169756D01*
X69309Y169800D01*
Y170400D01*
X69300Y170444D01*
Y170490D01*
X69283Y170531D01*
X69274Y170576D01*
X69249Y170613D01*
X69231Y170655D01*
X69200Y170687D01*
X69174Y170724D01*
X69137Y170750D01*
X69105Y170781D01*
X69063Y170799D01*
X69026Y170824D01*
X68981Y170833D01*
X68940Y170850D01*
X68894D01*
X68850Y170859D01*
D02*
G37*
G36*
X77800Y169909D02*
X77200D01*
X77156Y169900D01*
X77110D01*
X77069Y169883D01*
X77024Y169874D01*
X76987Y169849D01*
X76945Y169831D01*
X76913Y169800D01*
X76876Y169774D01*
X76850Y169737D01*
X76819Y169705D01*
X76801Y169663D01*
X76776Y169626D01*
X76767Y169581D01*
X76750Y169540D01*
Y169494D01*
X76741Y169450D01*
Y168850D01*
X76750Y168806D01*
Y168760D01*
X76767Y168719D01*
X76776Y168674D01*
X76801Y168637D01*
X76819Y168595D01*
X76850Y168563D01*
X76876Y168526D01*
X76913Y168500D01*
X76945Y168469D01*
X76987Y168451D01*
X77024Y168426D01*
X77069Y168417D01*
X77110Y168400D01*
X77156D01*
X77200Y168391D01*
X77800D01*
X77844Y168400D01*
X77890D01*
X77931Y168417D01*
X77976Y168426D01*
X78013Y168451D01*
X78055Y168469D01*
X78087Y168500D01*
X78124Y168526D01*
X78150Y168563D01*
X78181Y168595D01*
X78199Y168637D01*
X78224Y168674D01*
X78233Y168719D01*
X78250Y168760D01*
Y168806D01*
X78259Y168850D01*
Y169450D01*
X78250Y169494D01*
Y169540D01*
X78233Y169581D01*
X78224Y169626D01*
X78199Y169663D01*
X78181Y169705D01*
X78150Y169737D01*
X78124Y169774D01*
X78087Y169800D01*
X78055Y169831D01*
X78013Y169849D01*
X77976Y169874D01*
X77931Y169883D01*
X77890Y169900D01*
X77844D01*
X77800Y169909D01*
D02*
G37*
G36*
X76900Y167259D02*
X74900D01*
X74856Y167250D01*
X74810D01*
X74769Y167233D01*
X74724Y167224D01*
X74687Y167199D01*
X74645Y167181D01*
X74613Y167150D01*
X74576Y167124D01*
X74550Y167087D01*
X74519Y167055D01*
X74501Y167013D01*
X74476Y166976D01*
X74467Y166931D01*
X74450Y166890D01*
Y166844D01*
X74441Y166800D01*
X74450Y166756D01*
Y166710D01*
X74467Y166669D01*
X74476Y166624D01*
X74501Y166587D01*
X74519Y166545D01*
X74550Y166513D01*
X74576Y166476D01*
X74613Y166450D01*
X74645Y166419D01*
X74687Y166401D01*
X74724Y166376D01*
X74769Y166367D01*
X74810Y166350D01*
X74856D01*
X74900Y166341D01*
X76900D01*
X76944Y166350D01*
X76990D01*
X77031Y166367D01*
X77076Y166376D01*
X77113Y166401D01*
X77155Y166419D01*
X77187Y166450D01*
X77224Y166476D01*
X77250Y166513D01*
X77281Y166545D01*
X77299Y166587D01*
X77324Y166624D01*
X77333Y166669D01*
X77350Y166710D01*
Y166756D01*
X77359Y166800D01*
X77350Y166844D01*
Y166890D01*
X77333Y166931D01*
X77324Y166976D01*
X77299Y167013D01*
X77281Y167055D01*
X77250Y167087D01*
X77224Y167124D01*
X77187Y167150D01*
X77155Y167181D01*
X77113Y167199D01*
X77076Y167224D01*
X77031Y167233D01*
X76990Y167250D01*
X76944D01*
X76900Y167259D01*
D02*
G37*
G36*
X68900D02*
X66900D01*
X66856Y167250D01*
X66810D01*
X66769Y167233D01*
X66724Y167224D01*
X66687Y167199D01*
X66645Y167181D01*
X66613Y167150D01*
X66576Y167124D01*
X66550Y167087D01*
X66519Y167055D01*
X66501Y167013D01*
X66476Y166976D01*
X66467Y166931D01*
X66450Y166890D01*
Y166844D01*
X66441Y166800D01*
X66450Y166756D01*
Y166710D01*
X66467Y166669D01*
X66476Y166624D01*
X66501Y166587D01*
X66519Y166545D01*
X66550Y166513D01*
X66576Y166476D01*
X66613Y166450D01*
X66645Y166419D01*
X66687Y166401D01*
X66724Y166376D01*
X66769Y166367D01*
X66810Y166350D01*
X66856D01*
X66900Y166341D01*
X68900D01*
X68944Y166350D01*
X68990D01*
X69031Y166367D01*
X69076Y166376D01*
X69113Y166401D01*
X69155Y166419D01*
X69187Y166450D01*
X69224Y166476D01*
X69250Y166513D01*
X69281Y166545D01*
X69299Y166587D01*
X69324Y166624D01*
X69333Y166669D01*
X69350Y166710D01*
Y166756D01*
X69359Y166800D01*
X69350Y166844D01*
Y166890D01*
X69333Y166931D01*
X69324Y166976D01*
X69299Y167013D01*
X69281Y167055D01*
X69250Y167087D01*
X69224Y167124D01*
X69187Y167150D01*
X69155Y167181D01*
X69113Y167199D01*
X69076Y167224D01*
X69031Y167233D01*
X68990Y167250D01*
X68944D01*
X68900Y167259D01*
D02*
G37*
G36*
X60900D02*
X58900D01*
X58856Y167250D01*
X58810D01*
X58769Y167233D01*
X58724Y167224D01*
X58687Y167199D01*
X58645Y167181D01*
X58613Y167150D01*
X58576Y167124D01*
X58550Y167087D01*
X58519Y167055D01*
X58501Y167013D01*
X58476Y166976D01*
X58467Y166931D01*
X58450Y166890D01*
Y166844D01*
X58441Y166800D01*
X58450Y166756D01*
Y166710D01*
X58467Y166669D01*
X58476Y166624D01*
X58501Y166587D01*
X58519Y166545D01*
X58550Y166513D01*
X58576Y166476D01*
X58613Y166450D01*
X58645Y166419D01*
X58687Y166401D01*
X58724Y166376D01*
X58769Y166367D01*
X58810Y166350D01*
X58856D01*
X58900Y166341D01*
X60900D01*
X60944Y166350D01*
X60990D01*
X61031Y166367D01*
X61076Y166376D01*
X61113Y166401D01*
X61155Y166419D01*
X61187Y166450D01*
X61224Y166476D01*
X61250Y166513D01*
X61281Y166545D01*
X61299Y166587D01*
X61324Y166624D01*
X61333Y166669D01*
X61350Y166710D01*
Y166756D01*
X61359Y166800D01*
X61350Y166844D01*
Y166890D01*
X61333Y166931D01*
X61324Y166976D01*
X61299Y167013D01*
X61281Y167055D01*
X61250Y167087D01*
X61224Y167124D01*
X61187Y167150D01*
X61155Y167181D01*
X61113Y167199D01*
X61076Y167224D01*
X61031Y167233D01*
X60990Y167250D01*
X60944D01*
X60900Y167259D01*
D02*
G37*
G36*
X87470Y168284D02*
X87206D01*
X86952Y168216D01*
X86724Y168084D01*
X86538Y167898D01*
X86406Y167670D01*
X86338Y167416D01*
Y167152D01*
X86406Y166898D01*
X86538Y166670D01*
X86724Y166484D01*
X86952Y166352D01*
X87206Y166284D01*
X87470D01*
X87724Y166352D01*
X87952Y166484D01*
X88138Y166670D01*
X88270Y166898D01*
X88338Y167152D01*
Y167416D01*
X88270Y167670D01*
X88138Y167898D01*
X87952Y168084D01*
X87724Y168216D01*
X87470Y168284D01*
D02*
G37*
G36*
X90202Y166048D02*
X89488D01*
Y165734D01*
X90635D01*
X90630Y165761D01*
X90529Y165912D01*
X90379Y166012D01*
X90202Y166048D01*
D02*
G37*
G36*
X86202D02*
X85488D01*
Y165734D01*
X86635D01*
X86630Y165761D01*
X86529Y165912D01*
X86379Y166012D01*
X86202Y166048D01*
D02*
G37*
G36*
X89188D02*
X88474D01*
X88297Y166012D01*
X88147Y165912D01*
X88046Y165761D01*
X88041Y165734D01*
X89188D01*
Y166048D01*
D02*
G37*
G36*
X85188D02*
X84474D01*
X84297Y166012D01*
X84146Y165912D01*
X84046Y165761D01*
X84041Y165734D01*
X85188D01*
Y166048D01*
D02*
G37*
G36*
X86635Y165434D02*
X85338D01*
X84041D01*
X84046Y165407D01*
X84138Y165268D01*
X84135Y165216D01*
X84111Y165127D01*
X84101Y165124D01*
X84040Y165117D01*
X83926Y165164D01*
X83787D01*
X83658Y165111D01*
X83560Y165012D01*
X83507Y164883D01*
Y164744D01*
X83417Y164714D01*
X83412D01*
X83283Y164661D01*
X83185Y164562D01*
X83132Y164433D01*
Y164294D01*
X83185Y164166D01*
X83283Y164067D01*
X83412Y164014D01*
X83419D01*
X83507Y163893D01*
Y163754D01*
X83417Y163723D01*
X83412D01*
X83283Y163670D01*
X83185Y163571D01*
X83132Y163443D01*
Y163304D01*
X83185Y163175D01*
X83283Y163076D01*
X83412Y163023D01*
X83551D01*
X83680Y163076D01*
X83696Y163093D01*
X84040D01*
X84104Y162966D01*
X84097Y162957D01*
X83850D01*
X83816Y162950D01*
X83780D01*
X83748Y162937D01*
X83713Y162930D01*
X83684Y162910D01*
X83652Y162897D01*
X83627Y162872D01*
X83598Y162852D01*
X83578Y162823D01*
X83553Y162798D01*
X83540Y162766D01*
X83520Y162737D01*
X83513Y162702D01*
X83500Y162670D01*
Y162634D01*
X83493Y162600D01*
X83500Y162566D01*
Y162530D01*
X83513Y162498D01*
X83520Y162463D01*
X83540Y162434D01*
X83553Y162402D01*
X83578Y162377D01*
X83598Y162348D01*
X83627Y162328D01*
X83652Y162303D01*
X83684Y162290D01*
X83713Y162270D01*
X83748Y162263D01*
X83780Y162250D01*
X83816D01*
X83850Y162243D01*
X84166D01*
X84297Y162156D01*
X84331Y162149D01*
Y162019D01*
X84297Y162012D01*
X84214Y161957D01*
X83850D01*
X83816Y161950D01*
X83780D01*
X83748Y161937D01*
X83713Y161930D01*
X83684Y161910D01*
X83652Y161897D01*
X83627Y161872D01*
X83598Y161852D01*
X83578Y161823D01*
X83553Y161798D01*
X83540Y161766D01*
X83520Y161737D01*
X83513Y161702D01*
X83500Y161670D01*
Y161634D01*
X83493Y161600D01*
X83500Y161566D01*
Y161530D01*
X83513Y161498D01*
X83520Y161463D01*
X83540Y161434D01*
X83553Y161402D01*
X83578Y161377D01*
X83598Y161348D01*
X83627Y161328D01*
X83652Y161303D01*
X83684Y161290D01*
X83713Y161270D01*
X83748Y161263D01*
X83780Y161250D01*
X83816D01*
X83850Y161243D01*
X84166D01*
X84297Y161156D01*
X84331Y161149D01*
Y161019D01*
X84297Y161012D01*
X84146Y160912D01*
X84121Y160874D01*
X84098Y160872D01*
X83970Y160925D01*
X83830D01*
X83702Y160872D01*
X83603Y160773D01*
X83550Y160645D01*
Y160505D01*
X83603Y160377D01*
X83702Y160278D01*
X83830Y160225D01*
X83970D01*
X84098Y160278D01*
X84134Y160275D01*
X84146Y160256D01*
X84297Y160156D01*
X84331Y160149D01*
Y160019D01*
X84297Y160012D01*
X84146Y159912D01*
X84121Y159874D01*
X84098Y159872D01*
X83970Y159925D01*
X83830D01*
X83702Y159872D01*
X83603Y159773D01*
X83550Y159645D01*
Y159505D01*
X83603Y159377D01*
X83702Y159278D01*
X83830Y159225D01*
X83970D01*
X84098Y159278D01*
X84134Y159275D01*
X84146Y159256D01*
X84297Y159156D01*
X84331Y159149D01*
Y159019D01*
X84297Y159012D01*
X84146Y158912D01*
X84129Y158886D01*
X84074Y158881D01*
X83946Y158934D01*
X83806D01*
X83678Y158881D01*
X83579Y158782D01*
X83526Y158654D01*
Y158514D01*
X83579Y158386D01*
X83678Y158287D01*
X83806Y158234D01*
X83946D01*
X84074Y158287D01*
X84129Y158282D01*
X84146Y158256D01*
X84297Y158156D01*
X84331Y158149D01*
Y158019D01*
X84297Y158012D01*
X84146Y157912D01*
X84129Y157886D01*
X84074Y157881D01*
X83946Y157934D01*
X83806D01*
X83678Y157881D01*
X83579Y157782D01*
X83526Y157654D01*
Y157514D01*
X83579Y157386D01*
X83678Y157287D01*
X83806Y157234D01*
X83946D01*
X84074Y157287D01*
X84129Y157282D01*
X84146Y157256D01*
X84297Y157156D01*
X84331Y157149D01*
Y157019D01*
X84297Y157012D01*
X84146Y156912D01*
X84129Y156886D01*
X84074Y156881D01*
X83946Y156934D01*
X83806D01*
X83678Y156881D01*
X83579Y156782D01*
X83526Y156654D01*
Y156514D01*
X83579Y156386D01*
X83678Y156287D01*
X83806Y156234D01*
X83946D01*
X84074Y156287D01*
X84129Y156282D01*
X84146Y156256D01*
X84297Y156156D01*
X84331Y156149D01*
Y156019D01*
X84297Y156012D01*
X84146Y155912D01*
X84129Y155886D01*
X84074Y155881D01*
X83946Y155934D01*
X83806D01*
X83678Y155881D01*
X83579Y155782D01*
X83526Y155654D01*
Y155514D01*
X83579Y155386D01*
X83678Y155287D01*
X83806Y155234D01*
X83946D01*
X84074Y155287D01*
X84129Y155282D01*
X84146Y155256D01*
X84297Y155156D01*
X84331Y155149D01*
Y155019D01*
X84297Y155012D01*
X84146Y154912D01*
X84046Y154761D01*
X84011Y154584D01*
X84046Y154407D01*
X84146Y154256D01*
X84297Y154156D01*
X84331Y154149D01*
Y154019D01*
X84297Y154012D01*
X84146Y153912D01*
X84046Y153761D01*
X84011Y153584D01*
X84046Y153407D01*
X84146Y153256D01*
X84297Y153156D01*
X84331Y153149D01*
Y153019D01*
X84297Y153012D01*
X84146Y152912D01*
X84046Y152761D01*
X84011Y152584D01*
X84046Y152407D01*
X84146Y152256D01*
X84297Y152156D01*
X84331Y152149D01*
Y152019D01*
X84297Y152012D01*
X84146Y151912D01*
X84129Y151886D01*
X84074Y151881D01*
X83946Y151934D01*
X83806D01*
X83678Y151881D01*
X83579Y151782D01*
X83526Y151654D01*
Y151514D01*
X83579Y151386D01*
X83678Y151287D01*
X83806Y151234D01*
X83946D01*
X84074Y151287D01*
X84129Y151282D01*
X84146Y151256D01*
X84297Y151156D01*
X84331Y151149D01*
Y151019D01*
X84297Y151012D01*
X84146Y150912D01*
X84129Y150886D01*
X84074Y150881D01*
X83946Y150934D01*
X83806D01*
X83678Y150881D01*
X83579Y150782D01*
X83526Y150654D01*
Y150514D01*
X83579Y150386D01*
X83678Y150287D01*
X83806Y150234D01*
X83946D01*
X84074Y150287D01*
X84129Y150282D01*
X84146Y150256D01*
X84297Y150156D01*
X84331Y150149D01*
Y150019D01*
X84297Y150012D01*
X84146Y149912D01*
X84129Y149886D01*
X84074Y149881D01*
X83946Y149934D01*
X83806D01*
X83678Y149881D01*
X83579Y149782D01*
X83526Y149654D01*
Y149514D01*
X83579Y149386D01*
X83678Y149287D01*
X83806Y149234D01*
X83946D01*
X84074Y149287D01*
X84129Y149282D01*
X84146Y149256D01*
X84297Y149156D01*
X84331Y149149D01*
Y149019D01*
X84297Y149012D01*
X84146Y148912D01*
X84129Y148886D01*
X84074Y148881D01*
X83946Y148934D01*
X83806D01*
X83678Y148881D01*
X83579Y148782D01*
X83526Y148654D01*
Y148514D01*
X83579Y148386D01*
X83678Y148287D01*
X83806Y148234D01*
X83946D01*
X84074Y148287D01*
X84129Y148282D01*
X84146Y148256D01*
X84297Y148156D01*
X84331Y148149D01*
Y148019D01*
X84297Y148012D01*
X84146Y147912D01*
X84046Y147761D01*
X84041Y147734D01*
X85338D01*
X86635D01*
X86630Y147761D01*
X86529Y147912D01*
X86379Y148012D01*
X86345Y148019D01*
Y148149D01*
X86379Y148156D01*
X86529Y148256D01*
X86630Y148407D01*
X86665Y148584D01*
X86630Y148761D01*
X86529Y148912D01*
X86379Y149012D01*
X86345Y149019D01*
Y149149D01*
X86379Y149156D01*
X86529Y149256D01*
X86630Y149407D01*
X86665Y149584D01*
X86630Y149761D01*
X86529Y149912D01*
X86379Y150012D01*
X86345Y150019D01*
Y150149D01*
X86379Y150156D01*
X86529Y150256D01*
X86630Y150407D01*
X86665Y150584D01*
X86630Y150761D01*
X86529Y150912D01*
X86379Y151012D01*
X86345Y151019D01*
Y151149D01*
X86379Y151156D01*
X86529Y151256D01*
X86630Y151407D01*
X86665Y151584D01*
X86630Y151761D01*
X86529Y151912D01*
X86379Y152012D01*
X86345Y152019D01*
Y152149D01*
X86379Y152156D01*
X86529Y152256D01*
X86630Y152407D01*
X86665Y152584D01*
X86630Y152761D01*
X86529Y152912D01*
X86379Y153012D01*
X86345Y153019D01*
Y153149D01*
X86379Y153156D01*
X86529Y153256D01*
X86630Y153407D01*
X86665Y153584D01*
X86630Y153761D01*
X86529Y153912D01*
X86379Y154012D01*
X86345Y154019D01*
Y154149D01*
X86379Y154156D01*
X86529Y154256D01*
X86630Y154407D01*
X86665Y154584D01*
X86630Y154761D01*
X86529Y154912D01*
X86379Y155012D01*
X86345Y155019D01*
Y155149D01*
X86379Y155156D01*
X86529Y155256D01*
X86630Y155407D01*
X86665Y155584D01*
X86630Y155761D01*
X86529Y155912D01*
X86379Y156012D01*
X86345Y156019D01*
Y156149D01*
X86379Y156156D01*
X86529Y156256D01*
X86630Y156407D01*
X86665Y156584D01*
X86630Y156761D01*
X86529Y156912D01*
X86379Y157012D01*
X86345Y157019D01*
Y157149D01*
X86379Y157156D01*
X86529Y157256D01*
X86630Y157407D01*
X86665Y157584D01*
X86630Y157761D01*
X86529Y157912D01*
X86379Y158012D01*
X86345Y158019D01*
Y158149D01*
X86379Y158156D01*
X86529Y158256D01*
X86630Y158407D01*
X86665Y158584D01*
X86630Y158761D01*
X86529Y158912D01*
X86379Y159012D01*
X86345Y159019D01*
Y159149D01*
X86379Y159156D01*
X86529Y159256D01*
X86630Y159407D01*
X86665Y159584D01*
X86630Y159761D01*
X86529Y159912D01*
X86379Y160012D01*
X86345Y160019D01*
Y160149D01*
X86379Y160156D01*
X86529Y160256D01*
X86630Y160407D01*
X86665Y160584D01*
X86630Y160761D01*
X86529Y160912D01*
X86379Y161012D01*
X86345Y161019D01*
Y161149D01*
X86379Y161156D01*
X86529Y161256D01*
X86630Y161407D01*
X86665Y161584D01*
X86630Y161761D01*
X86529Y161912D01*
X86379Y162012D01*
X86345Y162019D01*
Y162149D01*
X86379Y162156D01*
X86529Y162256D01*
X86630Y162407D01*
X86665Y162584D01*
X86630Y162761D01*
X86529Y162912D01*
X86379Y163012D01*
X86345Y163019D01*
Y163149D01*
X86379Y163156D01*
X86529Y163256D01*
X86630Y163407D01*
X86665Y163584D01*
X86630Y163761D01*
X86529Y163912D01*
X86379Y164012D01*
X86345Y164019D01*
Y164149D01*
X86379Y164156D01*
X86529Y164256D01*
X86630Y164407D01*
X86665Y164584D01*
X86630Y164761D01*
X86529Y164912D01*
X86379Y165012D01*
X86345Y165019D01*
Y165149D01*
X86379Y165156D01*
X86529Y165256D01*
X86630Y165407D01*
X86635Y165434D01*
D02*
G37*
G36*
X90635D02*
X89338D01*
X88041D01*
X88046Y165407D01*
X88147Y165256D01*
X88297Y165156D01*
X88331Y165149D01*
Y165019D01*
X88297Y165012D01*
X88147Y164912D01*
X88046Y164761D01*
X88041Y164734D01*
X89338D01*
X90635D01*
X90630Y164761D01*
X90529Y164912D01*
X90379Y165012D01*
X90345Y165019D01*
Y165149D01*
X90379Y165156D01*
X90529Y165256D01*
X90630Y165407D01*
X90635Y165434D01*
D02*
G37*
G36*
X90635Y164434D02*
X89338D01*
X88041D01*
X88046Y164407D01*
X88147Y164256D01*
X88297Y164156D01*
X88331Y164149D01*
Y164019D01*
X88297Y164012D01*
X88147Y163912D01*
X88046Y163761D01*
X88011Y163584D01*
X88046Y163407D01*
X88147Y163256D01*
X88297Y163156D01*
X88331Y163149D01*
Y163019D01*
X88297Y163012D01*
X88147Y162912D01*
X88046Y162761D01*
X88011Y162584D01*
X88046Y162407D01*
X88147Y162256D01*
X88297Y162156D01*
X88331Y162149D01*
Y162019D01*
X88297Y162012D01*
X88147Y161912D01*
X88046Y161761D01*
X88011Y161584D01*
X88046Y161407D01*
X88147Y161256D01*
X88297Y161156D01*
X88331Y161149D01*
Y161019D01*
X88297Y161012D01*
X88147Y160912D01*
X88046Y160761D01*
X88011Y160584D01*
X88046Y160407D01*
X88147Y160256D01*
X88297Y160156D01*
X88331Y160149D01*
Y160019D01*
X88297Y160012D01*
X88147Y159912D01*
X88046Y159761D01*
X88011Y159584D01*
X88046Y159407D01*
X88147Y159256D01*
X88297Y159156D01*
X88331Y159149D01*
Y159019D01*
X88297Y159012D01*
X88147Y158912D01*
X88046Y158761D01*
X88011Y158584D01*
X88046Y158407D01*
X88147Y158256D01*
X88297Y158156D01*
X88331Y158149D01*
Y158019D01*
X88297Y158012D01*
X88147Y157912D01*
X88046Y157761D01*
X88011Y157584D01*
X88046Y157407D01*
X88147Y157256D01*
X88297Y157156D01*
X88331Y157149D01*
Y157019D01*
X88297Y157012D01*
X88147Y156912D01*
X88046Y156761D01*
X88011Y156584D01*
X88046Y156407D01*
X88147Y156256D01*
X88297Y156156D01*
X88331Y156149D01*
Y156019D01*
X88297Y156012D01*
X88147Y155912D01*
X88046Y155761D01*
X88011Y155584D01*
X88046Y155407D01*
X88147Y155256D01*
X88297Y155156D01*
X88331Y155149D01*
Y155019D01*
X88297Y155012D01*
X88147Y154912D01*
X88046Y154761D01*
X88011Y154584D01*
X88046Y154407D01*
X88147Y154256D01*
X88297Y154156D01*
X88331Y154149D01*
Y154019D01*
X88297Y154012D01*
X88147Y153912D01*
X88046Y153761D01*
X88011Y153584D01*
X88046Y153407D01*
X88147Y153256D01*
X88297Y153156D01*
X88331Y153149D01*
Y153019D01*
X88297Y153012D01*
X88147Y152912D01*
X88046Y152761D01*
X88011Y152584D01*
X88046Y152407D01*
X88147Y152256D01*
X88297Y152156D01*
X88331Y152149D01*
Y152019D01*
X88297Y152012D01*
X88147Y151912D01*
X88046Y151761D01*
X88011Y151584D01*
X88046Y151407D01*
X88147Y151256D01*
X88297Y151156D01*
X88331Y151149D01*
Y151019D01*
X88297Y151012D01*
X88147Y150912D01*
X88046Y150761D01*
X88011Y150584D01*
X88046Y150407D01*
X88147Y150256D01*
X88297Y150156D01*
X88331Y150149D01*
Y150019D01*
X88297Y150012D01*
X88147Y149912D01*
X88046Y149761D01*
X88011Y149584D01*
X88046Y149407D01*
X88147Y149256D01*
X88297Y149156D01*
X88331Y149149D01*
Y149019D01*
X88297Y149012D01*
X88147Y148912D01*
X88046Y148761D01*
X88011Y148584D01*
X88046Y148407D01*
X88147Y148256D01*
X88297Y148156D01*
X88331Y148149D01*
Y148019D01*
X88297Y148012D01*
X88147Y147912D01*
X88046Y147761D01*
X88041Y147734D01*
X89338D01*
X90635D01*
X90630Y147761D01*
X90529Y147912D01*
X90379Y148012D01*
X90345Y148019D01*
Y148149D01*
X90379Y148156D01*
X90529Y148256D01*
X90547Y148282D01*
X90602Y148287D01*
X90730Y148234D01*
X90870D01*
X90998Y148287D01*
X91097Y148386D01*
X91150Y148514D01*
Y148654D01*
X91097Y148782D01*
X90998Y148881D01*
X90870Y148934D01*
X90730D01*
X90602Y148881D01*
X90547Y148886D01*
X90529Y148912D01*
X90379Y149012D01*
X90345Y149019D01*
Y149149D01*
X90379Y149156D01*
X90529Y149256D01*
X90547Y149282D01*
X90602Y149287D01*
X90730Y149234D01*
X90870D01*
X90998Y149287D01*
X91097Y149386D01*
X91150Y149514D01*
Y149654D01*
X91097Y149782D01*
X90998Y149881D01*
X90870Y149934D01*
X90730D01*
X90602Y149881D01*
X90547Y149886D01*
X90529Y149912D01*
X90379Y150012D01*
X90345Y150019D01*
Y150149D01*
X90379Y150156D01*
X90529Y150256D01*
X90547Y150282D01*
X90602Y150287D01*
X90730Y150234D01*
X90870D01*
X90998Y150287D01*
X91097Y150386D01*
X91150Y150514D01*
Y150654D01*
X91097Y150782D01*
X90998Y150881D01*
X90870Y150934D01*
X90730D01*
X90602Y150881D01*
X90547Y150886D01*
X90529Y150912D01*
X90379Y151012D01*
X90345Y151019D01*
Y151149D01*
X90379Y151156D01*
X90529Y151256D01*
X90547Y151282D01*
X90602Y151287D01*
X90730Y151234D01*
X90870D01*
X90998Y151287D01*
X91097Y151386D01*
X91150Y151514D01*
Y151654D01*
X91097Y151782D01*
X90998Y151881D01*
X90870Y151934D01*
X90730D01*
X90602Y151881D01*
X90547Y151886D01*
X90529Y151912D01*
X90379Y152012D01*
X90345Y152019D01*
Y152149D01*
X90379Y152156D01*
X90529Y152256D01*
X90547Y152282D01*
X90602Y152287D01*
X90730Y152234D01*
X90870D01*
X90998Y152287D01*
X91097Y152386D01*
X91150Y152514D01*
Y152654D01*
X91097Y152782D01*
X90998Y152881D01*
X90870Y152934D01*
X90730D01*
X90602Y152881D01*
X90547Y152886D01*
X90529Y152912D01*
X90379Y153012D01*
X90345Y153019D01*
Y153149D01*
X90379Y153156D01*
X90529Y153256D01*
X90547Y153282D01*
X90602Y153287D01*
X90730Y153234D01*
X90870D01*
X90998Y153287D01*
X91097Y153386D01*
X91150Y153514D01*
Y153654D01*
X91097Y153782D01*
X90998Y153881D01*
X90870Y153934D01*
X90730D01*
X90602Y153881D01*
X90547Y153886D01*
X90529Y153912D01*
X90379Y154012D01*
X90345Y154019D01*
Y154149D01*
X90379Y154156D01*
X90529Y154256D01*
X90547Y154282D01*
X90602Y154287D01*
X90730Y154234D01*
X90870D01*
X90998Y154287D01*
X91097Y154386D01*
X91150Y154514D01*
Y154654D01*
X91097Y154782D01*
X90998Y154881D01*
X90870Y154934D01*
X90730D01*
X90602Y154881D01*
X90547Y154886D01*
X90529Y154912D01*
X90379Y155012D01*
X90345Y155019D01*
Y155149D01*
X90379Y155156D01*
X90529Y155256D01*
X90547Y155282D01*
X90602Y155287D01*
X90730Y155234D01*
X90870D01*
X90998Y155287D01*
X91097Y155386D01*
X91150Y155514D01*
Y155654D01*
X91097Y155782D01*
X90998Y155881D01*
X90870Y155934D01*
X90730D01*
X90602Y155881D01*
X90547Y155886D01*
X90529Y155912D01*
X90379Y156012D01*
X90345Y156019D01*
Y156149D01*
X90379Y156156D01*
X90529Y156256D01*
X90547Y156282D01*
X90602Y156287D01*
X90730Y156234D01*
X90870D01*
X90998Y156287D01*
X91097Y156386D01*
X91150Y156514D01*
Y156654D01*
X91097Y156782D01*
X90998Y156881D01*
X90870Y156934D01*
X90730D01*
X90602Y156881D01*
X90547Y156886D01*
X90529Y156912D01*
X90379Y157012D01*
X90345Y157019D01*
Y157149D01*
X90379Y157156D01*
X90529Y157256D01*
X90547Y157282D01*
X90602Y157287D01*
X90730Y157234D01*
X90870D01*
X90998Y157287D01*
X91097Y157386D01*
X91150Y157514D01*
Y157654D01*
X91097Y157782D01*
X90998Y157881D01*
X90870Y157934D01*
X90730D01*
X90602Y157881D01*
X90547Y157886D01*
X90529Y157912D01*
X90379Y158012D01*
X90345Y158019D01*
Y158149D01*
X90379Y158156D01*
X90529Y158256D01*
X90547Y158282D01*
X90602Y158287D01*
X90730Y158234D01*
X90870D01*
X90998Y158287D01*
X91097Y158386D01*
X91150Y158514D01*
Y158654D01*
X91097Y158782D01*
X90998Y158881D01*
X90870Y158934D01*
X90730D01*
X90602Y158881D01*
X90547Y158886D01*
X90529Y158912D01*
X90379Y159012D01*
X90345Y159019D01*
Y159149D01*
X90379Y159156D01*
X90529Y159256D01*
X90547Y159282D01*
X90602Y159287D01*
X90730Y159234D01*
X90870D01*
X90998Y159287D01*
X91097Y159386D01*
X91150Y159514D01*
Y159654D01*
X91097Y159782D01*
X90998Y159881D01*
X90870Y159934D01*
X90730D01*
X90602Y159881D01*
X90547Y159886D01*
X90529Y159912D01*
X90379Y160012D01*
X90345Y160019D01*
Y160149D01*
X90379Y160156D01*
X90529Y160256D01*
X90547Y160282D01*
X90602Y160287D01*
X90730Y160234D01*
X90870D01*
X90998Y160287D01*
X91097Y160386D01*
X91150Y160514D01*
Y160654D01*
X91097Y160782D01*
X90998Y160881D01*
X90870Y160934D01*
X90730D01*
X90602Y160881D01*
X90547Y160886D01*
X90529Y160912D01*
X90379Y161012D01*
X90345Y161019D01*
Y161149D01*
X90379Y161156D01*
X90529Y161256D01*
X90547Y161282D01*
X90602Y161287D01*
X90730Y161234D01*
X90870D01*
X90998Y161287D01*
X91097Y161386D01*
X91150Y161514D01*
Y161654D01*
X91097Y161782D01*
X90998Y161881D01*
X90870Y161934D01*
X90730D01*
X90602Y161881D01*
X90547Y161886D01*
X90529Y161912D01*
X90379Y162012D01*
X90345Y162019D01*
Y162149D01*
X90379Y162156D01*
X90529Y162256D01*
X90547Y162282D01*
X90602Y162287D01*
X90730Y162234D01*
X90870D01*
X90998Y162287D01*
X91097Y162386D01*
X91150Y162514D01*
Y162654D01*
X91097Y162782D01*
X90998Y162881D01*
X90870Y162934D01*
X90730D01*
X90602Y162881D01*
X90547Y162886D01*
X90529Y162912D01*
X90379Y163012D01*
X90345Y163019D01*
Y163149D01*
X90379Y163156D01*
X90529Y163256D01*
X90547Y163282D01*
X90602Y163287D01*
X90730Y163234D01*
X90870D01*
X90998Y163287D01*
X91097Y163386D01*
X91150Y163514D01*
Y163654D01*
X91097Y163782D01*
X90998Y163881D01*
X90870Y163934D01*
X90730D01*
X90602Y163881D01*
X90547Y163886D01*
X90529Y163912D01*
X90379Y164012D01*
X90345Y164019D01*
Y164149D01*
X90379Y164156D01*
X90529Y164256D01*
X90630Y164407D01*
X90635Y164434D01*
D02*
G37*
G36*
X60900Y154609D02*
X58900D01*
X58856Y154600D01*
X58810D01*
X58769Y154583D01*
X58724Y154574D01*
X58687Y154549D01*
X58645Y154531D01*
X58613Y154500D01*
X58576Y154474D01*
X58550Y154437D01*
X58519Y154405D01*
X58501Y154363D01*
X58476Y154326D01*
X58467Y154281D01*
X58450Y154240D01*
Y154194D01*
X58441Y154150D01*
X58450Y154106D01*
Y154060D01*
X58467Y154019D01*
X58476Y153974D01*
X58501Y153937D01*
X58519Y153895D01*
X58550Y153863D01*
X58576Y153826D01*
X58613Y153800D01*
X58645Y153769D01*
X58687Y153751D01*
X58724Y153726D01*
X58769Y153717D01*
X58810Y153700D01*
X58856D01*
X58900Y153691D01*
X60900D01*
X60944Y153700D01*
X60990D01*
X61031Y153717D01*
X61076Y153726D01*
X61113Y153751D01*
X61155Y153769D01*
X61187Y153800D01*
X61224Y153826D01*
X61250Y153863D01*
X61281Y153895D01*
X61299Y153937D01*
X61324Y153974D01*
X61333Y154019D01*
X61350Y154060D01*
Y154106D01*
X61359Y154150D01*
X61350Y154194D01*
Y154240D01*
X61333Y154281D01*
X61324Y154326D01*
X61299Y154363D01*
X61281Y154405D01*
X61250Y154437D01*
X61224Y154474D01*
X61187Y154500D01*
X61155Y154531D01*
X61113Y154549D01*
X61076Y154574D01*
X61031Y154583D01*
X60990Y154600D01*
X60944D01*
X60900Y154609D01*
D02*
G37*
G36*
X76900Y154609D02*
X74900D01*
X74856Y154600D01*
X74810D01*
X74769Y154583D01*
X74724Y154574D01*
X74687Y154549D01*
X74645Y154531D01*
X74613Y154500D01*
X74576Y154474D01*
X74550Y154437D01*
X74519Y154405D01*
X74501Y154363D01*
X74476Y154326D01*
X74467Y154281D01*
X74450Y154240D01*
Y154194D01*
X74441Y154150D01*
X74450Y154106D01*
Y154060D01*
X74467Y154019D01*
X74476Y153974D01*
X74501Y153937D01*
X74519Y153895D01*
X74550Y153863D01*
X74576Y153826D01*
X74613Y153800D01*
X74645Y153769D01*
X74687Y153751D01*
X74724Y153726D01*
X74769Y153717D01*
X74810Y153700D01*
X74856D01*
X74900Y153691D01*
X76900D01*
X76944Y153700D01*
X76990D01*
X77031Y153717D01*
X77076Y153726D01*
X77113Y153751D01*
X77155Y153769D01*
X77187Y153800D01*
X77224Y153826D01*
X77250Y153863D01*
X77281Y153895D01*
X77299Y153937D01*
X77324Y153974D01*
X77333Y154019D01*
X77350Y154060D01*
Y154106D01*
X77359Y154150D01*
X77350Y154194D01*
Y154240D01*
X77333Y154281D01*
X77324Y154326D01*
X77299Y154363D01*
X77281Y154405D01*
X77250Y154437D01*
X77224Y154474D01*
X77187Y154500D01*
X77155Y154531D01*
X77113Y154549D01*
X77076Y154574D01*
X77031Y154583D01*
X76990Y154600D01*
X76944D01*
X76900Y154609D01*
D02*
G37*
G36*
X68900D02*
X66900D01*
X66856Y154600D01*
X66810D01*
X66769Y154583D01*
X66724Y154574D01*
X66687Y154549D01*
X66645Y154531D01*
X66613Y154500D01*
X66576Y154474D01*
X66550Y154437D01*
X66519Y154405D01*
X66501Y154363D01*
X66476Y154326D01*
X66467Y154281D01*
X66450Y154240D01*
Y154194D01*
X66441Y154150D01*
X66450Y154106D01*
Y154060D01*
X66467Y154019D01*
X66476Y153974D01*
X66501Y153937D01*
X66519Y153895D01*
X66550Y153863D01*
X66576Y153826D01*
X66613Y153800D01*
X66645Y153769D01*
X66687Y153751D01*
X66724Y153726D01*
X66769Y153717D01*
X66810Y153700D01*
X66856D01*
X66900Y153691D01*
X68900D01*
X68944Y153700D01*
X68990D01*
X69031Y153717D01*
X69076Y153726D01*
X69113Y153751D01*
X69155Y153769D01*
X69187Y153800D01*
X69224Y153826D01*
X69250Y153863D01*
X69281Y153895D01*
X69299Y153937D01*
X69324Y153974D01*
X69333Y154019D01*
X69350Y154060D01*
Y154106D01*
X69359Y154150D01*
X69350Y154194D01*
Y154240D01*
X69333Y154281D01*
X69324Y154326D01*
X69299Y154363D01*
X69281Y154405D01*
X69250Y154437D01*
X69224Y154474D01*
X69187Y154500D01*
X69155Y154531D01*
X69113Y154549D01*
X69076Y154574D01*
X69031Y154583D01*
X68990Y154600D01*
X68944D01*
X68900Y154609D01*
D02*
G37*
G36*
X80640Y153250D02*
X80460D01*
X80295Y153181D01*
X80169Y153055D01*
X80100Y152890D01*
Y152710D01*
X80169Y152545D01*
X80295Y152419D01*
X80460Y152350D01*
X80640D01*
X80805Y152419D01*
X80931Y152545D01*
X81000Y152710D01*
Y152890D01*
X80931Y153055D01*
X80805Y153181D01*
X80640Y153250D01*
D02*
G37*
G36*
X79340D02*
X79160D01*
X78995Y153181D01*
X78869Y153055D01*
X78800Y152890D01*
Y152710D01*
X78869Y152545D01*
X78995Y152419D01*
X79160Y152350D01*
X79340D01*
X79505Y152419D01*
X79631Y152545D01*
X79700Y152710D01*
Y152890D01*
X79631Y153055D01*
X79505Y153181D01*
X79340Y153250D01*
D02*
G37*
G36*
X76640D02*
X76460D01*
X76295Y153181D01*
X76169Y153055D01*
X76100Y152890D01*
Y152710D01*
X76169Y152545D01*
X76295Y152419D01*
X76460Y152350D01*
X76640D01*
X76805Y152419D01*
X76931Y152545D01*
X77000Y152710D01*
Y152890D01*
X76931Y153055D01*
X76805Y153181D01*
X76640Y153250D01*
D02*
G37*
G36*
X75340D02*
X75160D01*
X74995Y153181D01*
X74869Y153055D01*
X74800Y152890D01*
Y152710D01*
X74869Y152545D01*
X74995Y152419D01*
X75160Y152350D01*
X75340D01*
X75505Y152419D01*
X75631Y152545D01*
X75700Y152710D01*
Y152890D01*
X75631Y153055D01*
X75505Y153181D01*
X75340Y153250D01*
D02*
G37*
G36*
X72640D02*
X72460D01*
X72295Y153181D01*
X72169Y153055D01*
X72100Y152890D01*
Y152710D01*
X72169Y152545D01*
X72295Y152419D01*
X72460Y152350D01*
X72640D01*
X72805Y152419D01*
X72931Y152545D01*
X73000Y152710D01*
Y152890D01*
X72931Y153055D01*
X72805Y153181D01*
X72640Y153250D01*
D02*
G37*
G36*
X71340D02*
X71160D01*
X70995Y153181D01*
X70869Y153055D01*
X70800Y152890D01*
Y152710D01*
X70869Y152545D01*
X70995Y152419D01*
X71160Y152350D01*
X71340D01*
X71505Y152419D01*
X71631Y152545D01*
X71700Y152710D01*
Y152890D01*
X71631Y153055D01*
X71505Y153181D01*
X71340Y153250D01*
D02*
G37*
G36*
X68640D02*
X68460D01*
X68295Y153181D01*
X68169Y153055D01*
X68100Y152890D01*
Y152710D01*
X68169Y152545D01*
X68295Y152419D01*
X68460Y152350D01*
X68640D01*
X68805Y152419D01*
X68931Y152545D01*
X69000Y152710D01*
Y152890D01*
X68931Y153055D01*
X68805Y153181D01*
X68640Y153250D01*
D02*
G37*
G36*
X67340D02*
X67160D01*
X66995Y153181D01*
X66869Y153055D01*
X66800Y152890D01*
Y152710D01*
X66869Y152545D01*
X66995Y152419D01*
X67160Y152350D01*
X67340D01*
X67505Y152419D01*
X67631Y152545D01*
X67700Y152710D01*
Y152890D01*
X67631Y153055D01*
X67505Y153181D01*
X67340Y153250D01*
D02*
G37*
G36*
X79000Y148359D02*
X78956Y148350D01*
X78910D01*
X78869Y148333D01*
X78824Y148324D01*
X78787Y148299D01*
X78745Y148281D01*
X78713Y148250D01*
X78676Y148224D01*
X78650Y148187D01*
X78619Y148155D01*
X78601Y148113D01*
X78576Y148076D01*
X78567Y148031D01*
X78550Y147990D01*
Y147944D01*
X78541Y147900D01*
Y147300D01*
X78550Y147256D01*
Y147210D01*
X78567Y147169D01*
X78576Y147124D01*
X78601Y147087D01*
X78619Y147045D01*
X78650Y147013D01*
X78676Y146976D01*
X78713Y146950D01*
X78745Y146919D01*
X78787Y146901D01*
X78824Y146876D01*
X78869Y146867D01*
X78910Y146850D01*
X78956D01*
X79000Y146841D01*
X79044Y146850D01*
X79090D01*
X79131Y146867D01*
X79176Y146876D01*
X79213Y146901D01*
X79255Y146919D01*
X79287Y146950D01*
X79324Y146976D01*
X79350Y147013D01*
X79381Y147045D01*
X79399Y147087D01*
X79424Y147124D01*
X79433Y147169D01*
X79450Y147210D01*
Y147256D01*
X79459Y147300D01*
Y147900D01*
X79450Y147944D01*
Y147990D01*
X79433Y148031D01*
X79424Y148076D01*
X79399Y148113D01*
X79381Y148155D01*
X79350Y148187D01*
X79324Y148224D01*
X79287Y148250D01*
X79255Y148281D01*
X79213Y148299D01*
X79176Y148324D01*
X79131Y148333D01*
X79090Y148350D01*
X79044D01*
X79000Y148359D01*
D02*
G37*
G36*
X75000D02*
X74956Y148350D01*
X74910D01*
X74869Y148333D01*
X74824Y148324D01*
X74787Y148299D01*
X74745Y148281D01*
X74713Y148250D01*
X74676Y148224D01*
X74650Y148187D01*
X74619Y148155D01*
X74601Y148113D01*
X74576Y148076D01*
X74567Y148031D01*
X74550Y147990D01*
Y147944D01*
X74541Y147900D01*
Y147300D01*
X74550Y147256D01*
Y147210D01*
X74567Y147169D01*
X74576Y147124D01*
X74601Y147087D01*
X74619Y147045D01*
X74650Y147013D01*
X74676Y146976D01*
X74713Y146950D01*
X74745Y146919D01*
X74787Y146901D01*
X74824Y146876D01*
X74869Y146867D01*
X74910Y146850D01*
X74956D01*
X75000Y146841D01*
X75044Y146850D01*
X75090D01*
X75131Y146867D01*
X75176Y146876D01*
X75213Y146901D01*
X75255Y146919D01*
X75287Y146950D01*
X75324Y146976D01*
X75350Y147013D01*
X75381Y147045D01*
X75399Y147087D01*
X75424Y147124D01*
X75433Y147169D01*
X75450Y147210D01*
Y147256D01*
X75459Y147300D01*
Y147900D01*
X75450Y147944D01*
Y147990D01*
X75433Y148031D01*
X75424Y148076D01*
X75399Y148113D01*
X75381Y148155D01*
X75350Y148187D01*
X75324Y148224D01*
X75287Y148250D01*
X75255Y148281D01*
X75213Y148299D01*
X75176Y148324D01*
X75131Y148333D01*
X75090Y148350D01*
X75044D01*
X75000Y148359D01*
D02*
G37*
G36*
X71000D02*
X70956Y148350D01*
X70910D01*
X70869Y148333D01*
X70824Y148324D01*
X70787Y148299D01*
X70745Y148281D01*
X70713Y148250D01*
X70676Y148224D01*
X70650Y148187D01*
X70619Y148155D01*
X70601Y148113D01*
X70576Y148076D01*
X70567Y148031D01*
X70550Y147990D01*
Y147944D01*
X70541Y147900D01*
Y147300D01*
X70550Y147256D01*
Y147210D01*
X70567Y147169D01*
X70576Y147124D01*
X70601Y147087D01*
X70619Y147045D01*
X70650Y147013D01*
X70676Y146976D01*
X70713Y146950D01*
X70745Y146919D01*
X70787Y146901D01*
X70824Y146876D01*
X70869Y146867D01*
X70910Y146850D01*
X70956D01*
X71000Y146841D01*
X71044Y146850D01*
X71090D01*
X71131Y146867D01*
X71176Y146876D01*
X71213Y146901D01*
X71255Y146919D01*
X71287Y146950D01*
X71324Y146976D01*
X71350Y147013D01*
X71381Y147045D01*
X71399Y147087D01*
X71424Y147124D01*
X71433Y147169D01*
X71450Y147210D01*
Y147256D01*
X71459Y147300D01*
Y147900D01*
X71450Y147944D01*
Y147990D01*
X71433Y148031D01*
X71424Y148076D01*
X71399Y148113D01*
X71381Y148155D01*
X71350Y148187D01*
X71324Y148224D01*
X71287Y148250D01*
X71255Y148281D01*
X71213Y148299D01*
X71176Y148324D01*
X71131Y148333D01*
X71090Y148350D01*
X71044D01*
X71000Y148359D01*
D02*
G37*
G36*
X67000D02*
X66956Y148350D01*
X66910D01*
X66869Y148333D01*
X66824Y148324D01*
X66787Y148299D01*
X66745Y148281D01*
X66713Y148250D01*
X66676Y148224D01*
X66650Y148187D01*
X66619Y148155D01*
X66601Y148113D01*
X66576Y148076D01*
X66567Y148031D01*
X66550Y147990D01*
Y147944D01*
X66541Y147900D01*
Y147300D01*
X66550Y147256D01*
Y147210D01*
X66567Y147169D01*
X66576Y147124D01*
X66601Y147087D01*
X66619Y147045D01*
X66650Y147013D01*
X66676Y146976D01*
X66713Y146950D01*
X66745Y146919D01*
X66787Y146901D01*
X66824Y146876D01*
X66869Y146867D01*
X66910Y146850D01*
X66956D01*
X67000Y146841D01*
X67044Y146850D01*
X67090D01*
X67131Y146867D01*
X67176Y146876D01*
X67213Y146901D01*
X67255Y146919D01*
X67287Y146950D01*
X67324Y146976D01*
X67350Y147013D01*
X67381Y147045D01*
X67399Y147087D01*
X67424Y147124D01*
X67433Y147169D01*
X67450Y147210D01*
Y147256D01*
X67459Y147300D01*
Y147900D01*
X67450Y147944D01*
Y147990D01*
X67433Y148031D01*
X67424Y148076D01*
X67399Y148113D01*
X67381Y148155D01*
X67350Y148187D01*
X67324Y148224D01*
X67287Y148250D01*
X67255Y148281D01*
X67213Y148299D01*
X67176Y148324D01*
X67131Y148333D01*
X67090Y148350D01*
X67044D01*
X67000Y148359D01*
D02*
G37*
G36*
X90635Y147434D02*
X89338D01*
X88041D01*
X88046Y147407D01*
X88147Y147256D01*
X88297Y147156D01*
X88331Y147149D01*
Y147019D01*
X88297Y147012D01*
X88147Y146912D01*
X88046Y146761D01*
X88011Y146584D01*
X88046Y146407D01*
X88147Y146256D01*
X88297Y146156D01*
X88331Y146149D01*
Y146019D01*
X88297Y146012D01*
X88147Y145912D01*
X88046Y145761D01*
X88041Y145734D01*
X89338D01*
X90635D01*
X90630Y145761D01*
X90529Y145912D01*
X90379Y146012D01*
X90345Y146019D01*
Y146149D01*
X90379Y146156D01*
X90529Y146256D01*
X90630Y146407D01*
X90665Y146584D01*
X90630Y146761D01*
X90529Y146912D01*
X90379Y147012D01*
X90345Y147019D01*
Y147149D01*
X90379Y147156D01*
X90529Y147256D01*
X90630Y147407D01*
X90635Y147434D01*
D02*
G37*
G36*
X86635D02*
X85338D01*
X84041D01*
X84046Y147407D01*
X84146Y147256D01*
X84297Y147156D01*
X84331Y147149D01*
Y147019D01*
X84297Y147012D01*
X84146Y146912D01*
X84046Y146761D01*
X84011Y146584D01*
X84046Y146407D01*
X84146Y146256D01*
X84297Y146156D01*
X84331Y146149D01*
Y146019D01*
X84297Y146012D01*
X84146Y145912D01*
X84046Y145761D01*
X84041Y145734D01*
X85338D01*
X86635D01*
X86630Y145761D01*
X86529Y145912D01*
X86379Y146012D01*
X86345Y146019D01*
Y146149D01*
X86379Y146156D01*
X86529Y146256D01*
X86630Y146407D01*
X86665Y146584D01*
X86630Y146761D01*
X86529Y146912D01*
X86379Y147012D01*
X86345Y147019D01*
Y147149D01*
X86379Y147156D01*
X86529Y147256D01*
X86630Y147407D01*
X86635Y147434D01*
D02*
G37*
G36*
X73400Y143781D02*
X72900D01*
X72763Y143754D01*
X72648Y143676D01*
X72584Y143581D01*
X72324D01*
X72187Y143554D01*
X72072Y143476D01*
X71898Y143302D01*
X71820Y143187D01*
X71793Y143050D01*
Y142942D01*
X71777Y142931D01*
X71716Y142840D01*
X71715Y142834D01*
X71585D01*
X71584Y142840D01*
X71523Y142931D01*
X71432Y142992D01*
X71325Y143013D01*
X71300D01*
Y142607D01*
X71150D01*
Y142457D01*
X70700D01*
X70716Y142375D01*
X70777Y142284D01*
X70868Y142223D01*
X70893Y142218D01*
Y142089D01*
X70868Y142084D01*
X70777Y142023D01*
X70716Y141932D01*
X70700Y141850D01*
X71150D01*
Y141550D01*
X70700D01*
X70716Y141468D01*
X70777Y141377D01*
X70820Y141348D01*
X70841Y141322D01*
X70853Y141210D01*
X70850Y141190D01*
X70840Y141166D01*
X70820Y141137D01*
X70813Y141102D01*
X70800Y141070D01*
Y141034D01*
X70793Y141000D01*
X70793Y141000D01*
Y140334D01*
X70777Y140323D01*
X70716Y140232D01*
X70715Y140226D01*
X70585D01*
X70584Y140232D01*
X70523Y140323D01*
X70432Y140384D01*
X70325Y140405D01*
X70300D01*
Y140000D01*
Y139595D01*
X70325D01*
X70432Y139616D01*
X70523Y139677D01*
X70584Y139768D01*
X70585Y139774D01*
X70715D01*
X70716Y139768D01*
X70777Y139677D01*
X70868Y139616D01*
X70975Y139595D01*
X71325D01*
X71432Y139616D01*
X71523Y139677D01*
X71584Y139768D01*
X71605Y139875D01*
Y140125D01*
X71584Y140232D01*
X71523Y140323D01*
X71507Y140334D01*
Y141000D01*
X71500Y141035D01*
Y141070D01*
X71487Y141102D01*
X71480Y141137D01*
X71460Y141166D01*
X71450Y141190D01*
X71447Y141210D01*
X71459Y141322D01*
X71480Y141348D01*
X71523Y141377D01*
X71584Y141468D01*
X71585Y141474D01*
X71715D01*
X71716Y141468D01*
X71777Y141377D01*
X71793Y141366D01*
Y140600D01*
X71800Y140566D01*
Y140530D01*
X71813Y140498D01*
X71820Y140463D01*
X71840Y140434D01*
X71853Y140402D01*
X71878Y140377D01*
X71898Y140348D01*
X71927Y140328D01*
X71952Y140303D01*
X71984Y140290D01*
X72013Y140270D01*
X72048Y140263D01*
X72080Y140250D01*
X72116D01*
X72150Y140243D01*
X72184Y140250D01*
X72220D01*
X72252Y140263D01*
X72287Y140270D01*
X72316Y140290D01*
X72348Y140303D01*
X72373Y140328D01*
X72402Y140348D01*
X72422Y140377D01*
X72447Y140402D01*
X72460Y140434D01*
X72480Y140463D01*
X72487Y140498D01*
X72500Y140530D01*
Y140566D01*
X72507Y140600D01*
Y141230D01*
X72634Y141268D01*
X72648Y141248D01*
X72763Y141170D01*
X72843Y141154D01*
Y140334D01*
X72827Y140323D01*
X72766Y140232D01*
X72745Y140125D01*
Y139875D01*
X72766Y139768D01*
X72827Y139677D01*
X72918Y139616D01*
X73025Y139595D01*
X73375D01*
X73482Y139616D01*
X73573Y139677D01*
X73634Y139768D01*
X73635Y139774D01*
X73765D01*
X73766Y139768D01*
X73827Y139677D01*
X73918Y139616D01*
X74025Y139595D01*
X74050D01*
Y140000D01*
Y140405D01*
X74025D01*
X73918Y140384D01*
X73827Y140323D01*
X73766Y140232D01*
X73765Y140226D01*
X73635D01*
X73634Y140232D01*
X73573Y140323D01*
X73557Y140334D01*
Y141184D01*
X73652Y141248D01*
X73730Y141363D01*
X73757Y141500D01*
Y141900D01*
X73730Y142037D01*
X73652Y142152D01*
X73537Y142230D01*
X73400Y142257D01*
X72900D01*
X72763Y142230D01*
X72662Y142162D01*
X72592Y142180D01*
X72533Y142210D01*
X72528Y142249D01*
X72527Y142290D01*
X72584Y142375D01*
X72605Y142482D01*
Y142647D01*
X72732Y142715D01*
X72763Y142694D01*
X72900Y142667D01*
X73400D01*
X73537Y142694D01*
X73652Y142772D01*
X73730Y142887D01*
X73757Y143024D01*
Y143424D01*
X73730Y143561D01*
X73652Y143676D01*
X73537Y143754D01*
X73400Y143781D01*
D02*
G37*
G36*
X71000Y143013D02*
X70975D01*
X70868Y142992D01*
X70777Y142931D01*
X70716Y142840D01*
X70700Y142757D01*
X71000D01*
Y143013D01*
D02*
G37*
G36*
X90635Y145434D02*
X89338D01*
X88041D01*
X88046Y145407D01*
X88147Y145256D01*
X88297Y145156D01*
X88331Y145149D01*
Y145019D01*
X88297Y145012D01*
X88147Y144912D01*
X88046Y144761D01*
X88011Y144584D01*
X88046Y144407D01*
X88147Y144256D01*
X88297Y144156D01*
X88331Y144149D01*
Y144019D01*
X88297Y144012D01*
X88147Y143912D01*
X88046Y143761D01*
X88011Y143584D01*
X88046Y143407D01*
X88147Y143256D01*
X88297Y143156D01*
X88331Y143149D01*
Y143019D01*
X88297Y143012D01*
X88147Y142912D01*
X88046Y142761D01*
X88041Y142734D01*
X89338D01*
X90635D01*
X90630Y142761D01*
X90529Y142912D01*
X90379Y143012D01*
X90345Y143019D01*
Y143149D01*
X90379Y143156D01*
X90529Y143256D01*
X90630Y143407D01*
X90665Y143584D01*
X90630Y143761D01*
X90529Y143912D01*
X90379Y144012D01*
X90345Y144019D01*
Y144149D01*
X90379Y144156D01*
X90529Y144256D01*
X90630Y144407D01*
X90665Y144584D01*
X90630Y144761D01*
X90529Y144912D01*
X90379Y145012D01*
X90345Y145019D01*
Y145149D01*
X90379Y145156D01*
X90529Y145256D01*
X90630Y145407D01*
X90635Y145434D01*
D02*
G37*
G36*
X86635D02*
X85338D01*
X84041D01*
X84046Y145407D01*
X84146Y145256D01*
X84297Y145156D01*
X84331Y145149D01*
Y145019D01*
X84297Y145012D01*
X84146Y144912D01*
X84046Y144761D01*
X84011Y144584D01*
X84046Y144407D01*
X84146Y144256D01*
X84297Y144156D01*
X84331Y144149D01*
Y144019D01*
X84297Y144012D01*
X84146Y143912D01*
X84046Y143761D01*
X84011Y143584D01*
X84046Y143407D01*
X84146Y143256D01*
X84297Y143156D01*
X84331Y143149D01*
Y143019D01*
X84297Y143012D01*
X84146Y142912D01*
X84046Y142761D01*
X84041Y142734D01*
X85338D01*
X86635D01*
X86630Y142761D01*
X86529Y142912D01*
X86379Y143012D01*
X86345Y143019D01*
Y143149D01*
X86379Y143156D01*
X86529Y143256D01*
X86630Y143407D01*
X86665Y143584D01*
X86630Y143761D01*
X86529Y143912D01*
X86379Y144012D01*
X86345Y144019D01*
Y144149D01*
X86379Y144156D01*
X86529Y144256D01*
X86630Y144407D01*
X86665Y144584D01*
X86630Y144761D01*
X86529Y144912D01*
X86379Y145012D01*
X86345Y145019D01*
Y145149D01*
X86379Y145156D01*
X86529Y145256D01*
X86630Y145407D01*
X86635Y145434D01*
D02*
G37*
G36*
X52700Y142787D02*
X52641Y142779D01*
X52447Y142699D01*
X52279Y142571D01*
X52151Y142403D01*
X52108Y142300D01*
X52700D01*
Y142787D01*
D02*
G37*
G36*
X55150Y142807D02*
X54850D01*
X54641Y142779D01*
X54447Y142699D01*
X54279Y142571D01*
X54151Y142403D01*
X54071Y142209D01*
X54064Y142159D01*
X53936D01*
X53929Y142209D01*
X53849Y142403D01*
X53721Y142571D01*
X53553Y142699D01*
X53359Y142779D01*
X53300Y142787D01*
Y142000D01*
Y141213D01*
X53359Y141221D01*
X53553Y141301D01*
X53721Y141429D01*
X53849Y141597D01*
X53929Y141791D01*
X53936Y141841D01*
X54064D01*
X54071Y141791D01*
X54151Y141597D01*
X54279Y141429D01*
X54447Y141301D01*
X54641Y141221D01*
X54850Y141193D01*
X55150D01*
X55359Y141221D01*
X55553Y141301D01*
X55721Y141429D01*
X55849Y141597D01*
X55929Y141791D01*
X55957Y142000D01*
X55929Y142209D01*
X55849Y142403D01*
X55721Y142571D01*
X55553Y142699D01*
X55359Y142779D01*
X55150Y142807D01*
D02*
G37*
G36*
X69020Y142125D02*
X68880D01*
X68752Y142072D01*
X68653Y141973D01*
X68600Y141845D01*
Y141705D01*
X68653Y141577D01*
X68752Y141478D01*
X68880Y141425D01*
X69020D01*
X69148Y141478D01*
X69247Y141577D01*
X69300Y141705D01*
Y141845D01*
X69247Y141973D01*
X69148Y142072D01*
X69020Y142125D01*
D02*
G37*
G36*
X52700Y141700D02*
X52108D01*
X52151Y141597D01*
X52279Y141429D01*
X52447Y141301D01*
X52641Y141221D01*
X52700Y141213D01*
Y141700D01*
D02*
G37*
G36*
X90635Y142434D02*
X89338D01*
X88041D01*
X88046Y142407D01*
X88147Y142256D01*
X88254Y142184D01*
X88262Y142140D01*
X88255Y142047D01*
X88253Y142044D01*
X88110Y141948D01*
X87999Y141781D01*
X87960Y141584D01*
X87999Y141387D01*
X88110Y141220D01*
X88200Y141160D01*
Y141008D01*
X88110Y140948D01*
X87999Y140781D01*
X87960Y140584D01*
X87999Y140387D01*
X88110Y140220D01*
X88253Y140124D01*
X88255Y140121D01*
X88262Y140028D01*
X88254Y139984D01*
X88147Y139912D01*
X88046Y139761D01*
X88041Y139734D01*
X89338D01*
X90635D01*
X90630Y139761D01*
X90529Y139912D01*
X90422Y139984D01*
X90414Y140028D01*
X90421Y140121D01*
X90423Y140124D01*
X90566Y140220D01*
X90589Y140255D01*
X90720Y140200D01*
X90880D01*
X91027Y140261D01*
X91139Y140373D01*
X91200Y140520D01*
Y140680D01*
X91139Y140827D01*
X91027Y140939D01*
X90880Y141000D01*
X90720D01*
X90575Y140940D01*
X90567Y140945D01*
X90566Y140948D01*
X90487Y141001D01*
X90476Y141008D01*
Y141160D01*
X90566Y141220D01*
X90589Y141255D01*
X90720Y141200D01*
X90880D01*
X91027Y141261D01*
X91139Y141373D01*
X91200Y141520D01*
Y141680D01*
X91139Y141827D01*
X91027Y141939D01*
X90880Y142000D01*
X90720D01*
X90573Y141939D01*
X90571Y141939D01*
X90566Y141948D01*
X90423Y142044D01*
X90421Y142047D01*
X90414Y142140D01*
X90422Y142184D01*
X90529Y142256D01*
X90630Y142407D01*
X90635Y142434D01*
D02*
G37*
G36*
X68295Y141400D02*
X68155D01*
X68027Y141347D01*
X67928Y141248D01*
X67875Y141120D01*
Y140980D01*
X67928Y140852D01*
X68027Y140753D01*
X68155Y140700D01*
X68295D01*
X68423Y140753D01*
X68522Y140852D01*
X68575Y140980D01*
Y141120D01*
X68522Y141248D01*
X68423Y141347D01*
X68295Y141400D01*
D02*
G37*
G36*
X52700Y140787D02*
X52641Y140779D01*
X52447Y140699D01*
X52279Y140571D01*
X52151Y140403D01*
X52108Y140300D01*
X52700D01*
Y140787D01*
D02*
G37*
G36*
X55150Y140807D02*
X54850D01*
X54641Y140779D01*
X54447Y140699D01*
X54279Y140571D01*
X54151Y140403D01*
X54071Y140209D01*
X54064Y140159D01*
X53936D01*
X53929Y140209D01*
X53849Y140403D01*
X53721Y140571D01*
X53553Y140699D01*
X53359Y140779D01*
X53300Y140787D01*
Y140000D01*
Y139213D01*
X53359Y139221D01*
X53553Y139301D01*
X53721Y139429D01*
X53849Y139597D01*
X53929Y139791D01*
X53936Y139841D01*
X54064D01*
X54071Y139791D01*
X54151Y139597D01*
X54279Y139429D01*
X54447Y139301D01*
X54641Y139221D01*
X54850Y139193D01*
X55150D01*
X55359Y139221D01*
X55553Y139301D01*
X55721Y139429D01*
X55849Y139597D01*
X55929Y139791D01*
X55957Y140000D01*
X55929Y140209D01*
X55849Y140403D01*
X55721Y140571D01*
X55553Y140699D01*
X55359Y140779D01*
X55150Y140807D01*
D02*
G37*
G36*
X74375Y140405D02*
X74350D01*
Y140150D01*
X74650D01*
X74634Y140232D01*
X74573Y140323D01*
X74482Y140384D01*
X74375Y140405D01*
D02*
G37*
G36*
X70000D02*
X69975D01*
X69868Y140384D01*
X69777Y140323D01*
X69716Y140232D01*
X69700Y140150D01*
X70000D01*
Y140405D01*
D02*
G37*
G36*
X74650Y139850D02*
X74350D01*
Y139595D01*
X74375D01*
X74482Y139616D01*
X74573Y139677D01*
X74634Y139768D01*
X74650Y139850D01*
D02*
G37*
G36*
X70000Y139850D02*
X69700D01*
X69716Y139768D01*
X69777Y139677D01*
X69868Y139616D01*
X69975Y139595D01*
X70000D01*
Y139850D01*
D02*
G37*
G36*
X52700Y139700D02*
X52108D01*
X52151Y139597D01*
X52279Y139429D01*
X52447Y139301D01*
X52641Y139221D01*
X52700Y139213D01*
Y139700D01*
D02*
G37*
G36*
X52700Y138787D02*
X52641Y138779D01*
X52447Y138699D01*
X52279Y138571D01*
X52151Y138403D01*
X52108Y138300D01*
X52700D01*
Y138787D01*
D02*
G37*
G36*
X90635Y139434D02*
X89338D01*
X88041D01*
X88046Y139407D01*
X88147Y139256D01*
X88297Y139156D01*
X88331Y139149D01*
Y139019D01*
X88297Y139012D01*
X88147Y138912D01*
X88046Y138761D01*
X88011Y138584D01*
X88046Y138407D01*
X88147Y138256D01*
X88297Y138156D01*
X88331Y138149D01*
Y138019D01*
X88297Y138012D01*
X88147Y137912D01*
X88046Y137761D01*
X88041Y137734D01*
X89338D01*
X90635D01*
X90630Y137761D01*
X90529Y137912D01*
X90379Y138012D01*
X90345Y138019D01*
Y138149D01*
X90379Y138156D01*
X90529Y138256D01*
X90547Y138282D01*
X90602Y138287D01*
X90730Y138234D01*
X90870D01*
X90998Y138287D01*
X91097Y138386D01*
X91150Y138514D01*
Y138654D01*
X91097Y138782D01*
X90998Y138881D01*
X90870Y138934D01*
X90730D01*
X90602Y138881D01*
X90547Y138886D01*
X90529Y138912D01*
X90379Y139012D01*
X90345Y139019D01*
Y139149D01*
X90379Y139156D01*
X90529Y139256D01*
X90630Y139407D01*
X90635Y139434D01*
D02*
G37*
G36*
X55150Y138807D02*
X54850D01*
X54641Y138779D01*
X54447Y138699D01*
X54279Y138571D01*
X54151Y138403D01*
X54071Y138209D01*
X54064Y138159D01*
X53936D01*
X53929Y138209D01*
X53849Y138403D01*
X53721Y138571D01*
X53553Y138699D01*
X53359Y138779D01*
X53300Y138787D01*
Y138000D01*
Y137213D01*
X53359Y137221D01*
X53553Y137301D01*
X53721Y137429D01*
X53849Y137597D01*
X53929Y137791D01*
X53936Y137841D01*
X54064D01*
X54071Y137791D01*
X54151Y137597D01*
X54279Y137429D01*
X54447Y137301D01*
X54641Y137221D01*
X54850Y137193D01*
X55150D01*
X55359Y137221D01*
X55553Y137301D01*
X55721Y137429D01*
X55849Y137597D01*
X55929Y137791D01*
X55957Y138000D01*
X55929Y138209D01*
X55849Y138403D01*
X55721Y138571D01*
X55553Y138699D01*
X55359Y138779D01*
X55150Y138807D01*
D02*
G37*
G36*
X77050Y138207D02*
X77000D01*
Y137750D01*
X77407D01*
Y137850D01*
X77380Y137987D01*
X77302Y138102D01*
X77187Y138180D01*
X77050Y138207D01*
D02*
G37*
G36*
X76700D02*
X76650D01*
X76513Y138180D01*
X76398Y138102D01*
X76320Y137987D01*
X76293Y137850D01*
Y137750D01*
X76700D01*
Y138207D01*
D02*
G37*
G36*
X52700Y137700D02*
X52108D01*
X52151Y137597D01*
X52279Y137429D01*
X52447Y137301D01*
X52641Y137221D01*
X52700Y137213D01*
Y137700D01*
D02*
G37*
G36*
X70150Y137300D02*
Y137000D01*
X70405D01*
Y137025D01*
X70384Y137132D01*
X70323Y137223D01*
X70232Y137284D01*
X70150Y137300D01*
D02*
G37*
G36*
X77407Y137450D02*
X77000D01*
Y136993D01*
X77050D01*
X77187Y137020D01*
X77302Y137098D01*
X77380Y137213D01*
X77407Y137350D01*
Y137450D01*
D02*
G37*
G36*
X76700D02*
X76293D01*
Y137350D01*
X76320Y137213D01*
X76398Y137098D01*
X76513Y137020D01*
X76650Y136993D01*
X76700D01*
Y137450D01*
D02*
G37*
G36*
X75650Y138207D02*
X75250D01*
X75250Y138207D01*
X74850D01*
X74816Y138200D01*
X74780D01*
X74748Y138187D01*
X74713Y138180D01*
X74684Y138160D01*
X74652Y138147D01*
X74627Y138122D01*
X74598Y138102D01*
X74578Y138073D01*
X74553Y138048D01*
X74540Y138016D01*
X74520Y137987D01*
X74513Y137952D01*
X74500Y137920D01*
Y137884D01*
X74493Y137850D01*
Y137350D01*
X74500Y137316D01*
Y137280D01*
X74513Y137248D01*
X74520Y137213D01*
X74540Y137184D01*
X74553Y137152D01*
X74578Y137127D01*
X74598Y137098D01*
X74627Y137078D01*
X74652Y137053D01*
X74684Y137040D01*
X74713Y137020D01*
X74748Y137013D01*
X74780Y137000D01*
X74816D01*
X74850Y136993D01*
X75250D01*
X75250Y136993D01*
X75650D01*
X75787Y137020D01*
X75902Y137098D01*
X75980Y137213D01*
X76007Y137350D01*
Y137850D01*
X75980Y137987D01*
X75902Y138102D01*
X75787Y138180D01*
X75650Y138207D01*
D02*
G37*
G36*
X86635Y142434D02*
X85338D01*
X84041D01*
X84046Y142407D01*
X84146Y142256D01*
X84297Y142156D01*
X84331Y142149D01*
Y142019D01*
X84297Y142012D01*
X84146Y141912D01*
X84046Y141761D01*
X84011Y141584D01*
X84046Y141407D01*
X84146Y141256D01*
X84297Y141156D01*
X84331Y141149D01*
Y141019D01*
X84297Y141012D01*
X84146Y140912D01*
X84046Y140761D01*
X84011Y140584D01*
X84046Y140407D01*
X84146Y140256D01*
X84297Y140156D01*
X84331Y140149D01*
Y140019D01*
X84297Y140012D01*
X84146Y139912D01*
X84046Y139761D01*
X84011Y139584D01*
X84046Y139407D01*
X84146Y139256D01*
X84297Y139156D01*
X84331Y139149D01*
Y139019D01*
X84297Y139012D01*
X84146Y138912D01*
X84046Y138761D01*
X84011Y138584D01*
X84046Y138407D01*
X84146Y138256D01*
X84297Y138156D01*
X84331Y138149D01*
Y138019D01*
X84297Y138012D01*
X84146Y137912D01*
X84046Y137761D01*
X84011Y137584D01*
X84046Y137407D01*
X84146Y137256D01*
X84297Y137156D01*
X84331Y137149D01*
Y137019D01*
X84297Y137012D01*
X84146Y136912D01*
X84129Y136886D01*
X84074Y136881D01*
X83946Y136934D01*
X83806D01*
X83678Y136881D01*
X83579Y136782D01*
X83526Y136654D01*
Y136514D01*
X83579Y136386D01*
X83678Y136287D01*
X83806Y136234D01*
X83946D01*
X84074Y136287D01*
X84129Y136282D01*
X84146Y136256D01*
X84297Y136156D01*
X84331Y136149D01*
Y136019D01*
X84297Y136012D01*
X84146Y135912D01*
X84129Y135886D01*
X84074Y135881D01*
X83946Y135934D01*
X83806D01*
X83678Y135881D01*
X83579Y135782D01*
X83526Y135654D01*
Y135514D01*
X83579Y135386D01*
X83678Y135287D01*
X83806Y135234D01*
X83946D01*
X84074Y135287D01*
X84129Y135282D01*
X84146Y135256D01*
X84297Y135156D01*
X84331Y135149D01*
Y135019D01*
X84297Y135012D01*
X84146Y134912D01*
X84046Y134761D01*
X84041Y134734D01*
X85338D01*
X86635D01*
X86630Y134761D01*
X86529Y134912D01*
X86379Y135012D01*
X86345Y135019D01*
Y135149D01*
X86379Y135156D01*
X86529Y135256D01*
X86630Y135407D01*
X86665Y135584D01*
X86630Y135761D01*
X86529Y135912D01*
X86379Y136012D01*
X86345Y136019D01*
Y136149D01*
X86379Y136156D01*
X86529Y136256D01*
X86630Y136407D01*
X86665Y136584D01*
X86630Y136761D01*
X86529Y136912D01*
X86379Y137012D01*
X86345Y137019D01*
Y137149D01*
X86379Y137156D01*
X86529Y137256D01*
X86630Y137407D01*
X86665Y137584D01*
X86630Y137761D01*
X86529Y137912D01*
X86379Y138012D01*
X86345Y138019D01*
Y138149D01*
X86379Y138156D01*
X86529Y138256D01*
X86630Y138407D01*
X86665Y138584D01*
X86630Y138761D01*
X86529Y138912D01*
X86379Y139012D01*
X86345Y139019D01*
Y139149D01*
X86379Y139156D01*
X86529Y139256D01*
X86630Y139407D01*
X86665Y139584D01*
X86630Y139761D01*
X86529Y139912D01*
X86379Y140012D01*
X86345Y140019D01*
Y140149D01*
X86379Y140156D01*
X86529Y140256D01*
X86630Y140407D01*
X86665Y140584D01*
X86630Y140761D01*
X86529Y140912D01*
X86379Y141012D01*
X86345Y141019D01*
Y141149D01*
X86379Y141156D01*
X86529Y141256D01*
X86630Y141407D01*
X86665Y141584D01*
X86630Y141761D01*
X86529Y141912D01*
X86379Y142012D01*
X86345Y142019D01*
Y142149D01*
X86379Y142156D01*
X86529Y142256D01*
X86630Y142407D01*
X86635Y142434D01*
D02*
G37*
G36*
X52700Y136787D02*
X52641Y136779D01*
X52447Y136699D01*
X52279Y136571D01*
X52151Y136403D01*
X52108Y136300D01*
X52700D01*
Y136787D01*
D02*
G37*
G36*
X90635Y137434D02*
X89338D01*
X88041D01*
X88046Y137407D01*
X88147Y137256D01*
X88254Y137184D01*
X88262Y137140D01*
X88255Y137047D01*
X88253Y137044D01*
X88110Y136948D01*
X87999Y136781D01*
X87960Y136584D01*
X87999Y136387D01*
X88110Y136220D01*
X88200Y136160D01*
Y136008D01*
X88110Y135948D01*
X87999Y135781D01*
X87960Y135584D01*
X87999Y135387D01*
X88110Y135220D01*
X88253Y135124D01*
X88255Y135121D01*
X88262Y135028D01*
X88254Y134984D01*
X88147Y134912D01*
X88046Y134761D01*
X88041Y134734D01*
X89338D01*
X90635D01*
X90630Y134761D01*
X90529Y134912D01*
X90422Y134984D01*
X90414Y135028D01*
X90421Y135121D01*
X90423Y135124D01*
X90566Y135220D01*
X90589Y135255D01*
X90720Y135200D01*
X90880D01*
X91027Y135261D01*
X91139Y135373D01*
X91200Y135520D01*
Y135680D01*
X91139Y135827D01*
X91027Y135939D01*
X90880Y136000D01*
X90720D01*
X90575Y135940D01*
X90567Y135945D01*
X90566Y135948D01*
X90487Y136001D01*
X90476Y136008D01*
Y136160D01*
X90566Y136220D01*
X90589Y136255D01*
X90720Y136200D01*
X90880D01*
X91027Y136261D01*
X91139Y136373D01*
X91200Y136520D01*
Y136680D01*
X91139Y136827D01*
X91027Y136939D01*
X90880Y137000D01*
X90720D01*
X90573Y136939D01*
X90571Y136939D01*
X90566Y136948D01*
X90423Y137044D01*
X90421Y137047D01*
X90414Y137140D01*
X90422Y137184D01*
X90529Y137256D01*
X90630Y137407D01*
X90635Y137434D01*
D02*
G37*
G36*
X55150Y136807D02*
X54850D01*
X54641Y136779D01*
X54447Y136699D01*
X54279Y136571D01*
X54151Y136403D01*
X54071Y136209D01*
X54064Y136159D01*
X53936D01*
X53929Y136209D01*
X53849Y136403D01*
X53721Y136571D01*
X53553Y136699D01*
X53359Y136779D01*
X53300Y136787D01*
Y136000D01*
Y135213D01*
X53359Y135221D01*
X53553Y135301D01*
X53721Y135429D01*
X53849Y135597D01*
X53929Y135791D01*
X53936Y135841D01*
X54064D01*
X54071Y135791D01*
X54151Y135597D01*
X54279Y135429D01*
X54447Y135301D01*
X54641Y135221D01*
X54850Y135193D01*
X55150D01*
X55359Y135221D01*
X55553Y135301D01*
X55721Y135429D01*
X55849Y135597D01*
X55929Y135791D01*
X55957Y136000D01*
X55929Y136209D01*
X55849Y136403D01*
X55721Y136571D01*
X55553Y136699D01*
X55359Y136779D01*
X55150Y136807D01*
D02*
G37*
G36*
X73500Y135605D02*
X73475D01*
X73368Y135584D01*
X73277Y135523D01*
X73216Y135432D01*
X73215Y135426D01*
X73085D01*
X73084Y135432D01*
X73023Y135523D01*
X72932Y135584D01*
X72825Y135605D01*
X72475D01*
X72368Y135584D01*
X72277Y135523D01*
X72216Y135432D01*
X72195Y135325D01*
Y135075D01*
X72216Y134968D01*
X72277Y134877D01*
X72293Y134866D01*
Y134200D01*
X72300Y134165D01*
Y134130D01*
X72313Y134098D01*
X72320Y134063D01*
X72340Y134034D01*
X72353Y134002D01*
X72378Y133977D01*
X72398Y133948D01*
X72398Y133948D01*
X72427Y133928D01*
X72452Y133903D01*
X72484Y133890D01*
X72513Y133870D01*
X72548Y133863D01*
X72580Y133850D01*
X72616D01*
X72650Y133843D01*
X72684Y133850D01*
X72720D01*
X72752Y133863D01*
X72787Y133870D01*
X72816Y133890D01*
X72848Y133903D01*
X72873Y133928D01*
X72902Y133948D01*
X72922Y133977D01*
X72947Y134002D01*
X72960Y134034D01*
X72980Y134063D01*
X72987Y134098D01*
X73000Y134130D01*
Y134166D01*
X73007Y134200D01*
X73007Y134200D01*
Y134866D01*
X73023Y134877D01*
X73084Y134968D01*
X73085Y134974D01*
X73215D01*
X73216Y134968D01*
X73277Y134877D01*
X73368Y134816D01*
X73475Y134795D01*
X73500D01*
Y135200D01*
Y135605D01*
D02*
G37*
G36*
X69420Y139200D02*
X69280D01*
X69152Y139147D01*
X69053Y139048D01*
X69000Y138920D01*
Y138780D01*
X69053Y138652D01*
X69105Y138600D01*
X69053Y138548D01*
X69000Y138420D01*
Y138280D01*
X69053Y138152D01*
X69105Y138100D01*
X69053Y138048D01*
X69000Y137920D01*
Y137780D01*
X69053Y137652D01*
X69105Y137600D01*
X69053Y137548D01*
X69000Y137420D01*
Y137280D01*
X69053Y137152D01*
X69105Y137100D01*
X69053Y137048D01*
X69000Y136920D01*
Y136780D01*
X69053Y136652D01*
X69152Y136553D01*
X69280Y136500D01*
X69420D01*
X69498Y136533D01*
X69555Y136550D01*
X69667Y136492D01*
X69677Y136477D01*
X69768Y136416D01*
X69774Y136415D01*
Y136285D01*
X69768Y136284D01*
X69677Y136223D01*
X69666Y136207D01*
X69000D01*
X68966Y136200D01*
X68930D01*
X68898Y136187D01*
X68863Y136180D01*
X68834Y136160D01*
X68802Y136147D01*
X68777Y136122D01*
X68748Y136102D01*
X68728Y136073D01*
X68703Y136048D01*
X68690Y136016D01*
X68670Y135987D01*
X68663Y135952D01*
X68650Y135920D01*
Y135884D01*
X68643Y135850D01*
X68650Y135816D01*
Y135780D01*
X68663Y135748D01*
X68670Y135713D01*
X68690Y135684D01*
X68703Y135652D01*
X68728Y135627D01*
X68748Y135598D01*
X68777Y135578D01*
X68802Y135553D01*
X68834Y135540D01*
X68863Y135520D01*
X68898Y135513D01*
X68930Y135500D01*
X68966D01*
X69000Y135493D01*
X69666D01*
X69677Y135477D01*
X69768Y135416D01*
X69875Y135395D01*
X70125D01*
X70232Y135416D01*
X70323Y135477D01*
X70384Y135568D01*
X70405Y135675D01*
Y136025D01*
X70384Y136132D01*
X70323Y136223D01*
X70232Y136284D01*
X70226Y136285D01*
Y136415D01*
X70232Y136416D01*
X70323Y136477D01*
X70384Y136568D01*
X70405Y136675D01*
Y136700D01*
X70000D01*
Y136850D01*
X69850D01*
Y137300D01*
X69827Y137296D01*
X69711Y137372D01*
X69700Y137390D01*
Y137420D01*
X69647Y137548D01*
X69595Y137600D01*
X69647Y137652D01*
X69700Y137780D01*
Y137920D01*
X69647Y138048D01*
X69595Y138100D01*
X69647Y138152D01*
X69700Y138280D01*
Y138420D01*
X69647Y138548D01*
X69595Y138600D01*
X69647Y138652D01*
X69700Y138780D01*
Y138920D01*
X69647Y139048D01*
X69548Y139147D01*
X69420Y139200D01*
D02*
G37*
G36*
X73825Y135605D02*
X73800D01*
Y135350D01*
X74100D01*
X74084Y135432D01*
X74023Y135523D01*
X73932Y135584D01*
X73825Y135605D01*
D02*
G37*
G36*
X52700Y135700D02*
X52108D01*
X52151Y135597D01*
X52279Y135429D01*
X52447Y135301D01*
X52641Y135221D01*
X52700Y135213D01*
Y135700D01*
D02*
G37*
G36*
X74100Y135050D02*
X73800D01*
Y134795D01*
X73825D01*
X73932Y134816D01*
X74023Y134877D01*
X74084Y134968D01*
X74100Y135050D01*
D02*
G37*
G36*
X52700Y134787D02*
X52641Y134779D01*
X52447Y134699D01*
X52279Y134571D01*
X52151Y134403D01*
X52108Y134300D01*
X52700D01*
Y134787D01*
D02*
G37*
G36*
X55150Y134807D02*
X54850D01*
X54641Y134779D01*
X54447Y134699D01*
X54279Y134571D01*
X54151Y134403D01*
X54071Y134209D01*
X54064Y134159D01*
X53936D01*
X53929Y134209D01*
X53849Y134403D01*
X53721Y134571D01*
X53553Y134699D01*
X53359Y134779D01*
X53300Y134787D01*
Y134000D01*
Y133213D01*
X53359Y133221D01*
X53553Y133301D01*
X53721Y133429D01*
X53849Y133597D01*
X53929Y133791D01*
X53936Y133841D01*
X54064D01*
X54071Y133791D01*
X54151Y133597D01*
X54279Y133429D01*
X54447Y133301D01*
X54641Y133221D01*
X54850Y133193D01*
X55150D01*
X55359Y133221D01*
X55553Y133301D01*
X55721Y133429D01*
X55849Y133597D01*
X55929Y133791D01*
X55957Y134000D01*
X55929Y134209D01*
X55849Y134403D01*
X55721Y134571D01*
X55553Y134699D01*
X55359Y134779D01*
X55150Y134807D01*
D02*
G37*
G36*
X90635Y134434D02*
X89488D01*
Y134120D01*
X90202D01*
X90379Y134156D01*
X90529Y134256D01*
X90630Y134407D01*
X90635Y134434D01*
D02*
G37*
G36*
X89188D02*
X88041D01*
X88046Y134407D01*
X88147Y134256D01*
X88297Y134156D01*
X88474Y134120D01*
X89188D01*
Y134434D01*
D02*
G37*
G36*
X86635D02*
X85488D01*
Y134120D01*
X86202D01*
X86379Y134156D01*
X86529Y134256D01*
X86630Y134407D01*
X86635Y134434D01*
D02*
G37*
G36*
X85188D02*
X84041D01*
X84046Y134407D01*
X84146Y134256D01*
X84297Y134156D01*
X84474Y134120D01*
X85188D01*
Y134434D01*
D02*
G37*
G36*
X52700Y133700D02*
X52108D01*
X52151Y133597D01*
X52279Y133429D01*
X52447Y133301D01*
X52641Y133221D01*
X52700Y133213D01*
Y133700D01*
D02*
G37*
G36*
X73820Y133350D02*
X73680D01*
X73552Y133297D01*
X73453Y133198D01*
X73400Y133070D01*
Y132930D01*
X73453Y132802D01*
X73552Y132703D01*
X73680Y132650D01*
X73820D01*
X73948Y132703D01*
X74047Y132802D01*
X74100Y132930D01*
Y133070D01*
X74047Y133198D01*
X73948Y133297D01*
X73820Y133350D01*
D02*
G37*
G36*
X70120D02*
X69980D01*
X69852Y133297D01*
X69753Y133198D01*
X69700Y133070D01*
Y132930D01*
X69753Y132802D01*
X69852Y132703D01*
X69980Y132650D01*
X70120D01*
X70248Y132703D01*
X70347Y132802D01*
X70400Y132930D01*
Y133070D01*
X70347Y133198D01*
X70248Y133297D01*
X70120Y133350D01*
D02*
G37*
G36*
X52700Y132787D02*
X52641Y132779D01*
X52447Y132699D01*
X52279Y132571D01*
X52151Y132403D01*
X52108Y132300D01*
X52700D01*
Y132787D01*
D02*
G37*
G36*
X55150Y132807D02*
X54850D01*
X54641Y132779D01*
X54447Y132699D01*
X54279Y132571D01*
X54151Y132403D01*
X54071Y132209D01*
X54064Y132159D01*
X53936D01*
X53929Y132209D01*
X53849Y132403D01*
X53721Y132571D01*
X53553Y132699D01*
X53359Y132779D01*
X53300Y132787D01*
Y132000D01*
Y131213D01*
X53359Y131221D01*
X53553Y131301D01*
X53721Y131429D01*
X53849Y131597D01*
X53929Y131791D01*
X53936Y131841D01*
X54064D01*
X54071Y131791D01*
X54151Y131597D01*
X54279Y131429D01*
X54447Y131301D01*
X54641Y131221D01*
X54850Y131193D01*
X55150D01*
X55359Y131221D01*
X55553Y131301D01*
X55721Y131429D01*
X55849Y131597D01*
X55929Y131791D01*
X55957Y132000D01*
X55929Y132209D01*
X55849Y132403D01*
X55721Y132571D01*
X55553Y132699D01*
X55359Y132779D01*
X55150Y132807D01*
D02*
G37*
G36*
X87470Y133884D02*
X87206D01*
X86952Y133816D01*
X86724Y133684D01*
X86538Y133498D01*
X86406Y133270D01*
X86338Y133016D01*
Y132752D01*
X86406Y132498D01*
X86538Y132270D01*
X86724Y132084D01*
X86952Y131952D01*
X87206Y131884D01*
X87470D01*
X87724Y131952D01*
X87952Y132084D01*
X88138Y132270D01*
X88270Y132498D01*
X88338Y132752D01*
Y133016D01*
X88270Y133270D01*
X88138Y133498D01*
X87952Y133684D01*
X87724Y133816D01*
X87470Y133884D01*
D02*
G37*
G36*
X52700Y131700D02*
X52108D01*
X52151Y131597D01*
X52279Y131429D01*
X52447Y131301D01*
X52641Y131221D01*
X52700Y131213D01*
Y131700D01*
D02*
G37*
G36*
X95080Y131475D02*
X94920D01*
X94773Y131414D01*
X94661Y131302D01*
X94600Y131155D01*
Y130995D01*
X94538Y130884D01*
X94524Y130879D01*
X94462Y130874D01*
X94402Y130881D01*
X94358Y130946D01*
X94259Y131012D01*
X94142Y131036D01*
X93842D01*
X93725Y131012D01*
X93626Y130946D01*
X93559Y130847D01*
X93536Y130730D01*
Y130590D01*
X93409Y130520D01*
X93400Y130522D01*
X93391Y130520D01*
X93264Y130590D01*
Y130730D01*
X93241Y130847D01*
X93174Y130946D01*
X93075Y131012D01*
X92958Y131036D01*
X92658D01*
X92541Y131012D01*
X92442Y130946D01*
X92398Y130881D01*
X92338Y130874D01*
X92276Y130879D01*
X92262Y130884D01*
X92200Y130995D01*
Y131155D01*
X92139Y131302D01*
X92027Y131414D01*
X91880Y131475D01*
X91720D01*
X91573Y131414D01*
X91461Y131302D01*
X91400Y131155D01*
Y130995D01*
X91402Y130990D01*
X91390Y130982D01*
X91312Y130866D01*
X91285Y130730D01*
Y130420D01*
X91312Y130284D01*
X91390Y130168D01*
X91505Y130091D01*
X91642Y130063D01*
X91942D01*
X92079Y130091D01*
X92194Y130168D01*
X92260Y130265D01*
X92276Y130271D01*
X92338Y130276D01*
X92398Y130269D01*
X92442Y130204D01*
X92541Y130138D01*
X92658Y130114D01*
X92958D01*
X92970Y130117D01*
X92981Y130106D01*
X93058Y130054D01*
X93115Y130042D01*
X93126Y129938D01*
X93122Y129911D01*
X93029Y129849D01*
X92963Y129750D01*
X92939Y129633D01*
Y129333D01*
X92963Y129216D01*
X93029Y129117D01*
X93128Y129050D01*
X93182Y129040D01*
Y128910D01*
X93128Y128900D01*
X93029Y128833D01*
X92963Y128734D01*
X92939Y128617D01*
D01*
X93400D01*
X93861D01*
X93837Y128734D01*
X93771Y128833D01*
X93672Y128900D01*
X93618Y128910D01*
Y129040D01*
X93672Y129050D01*
X93771Y129117D01*
X93837Y129216D01*
X93861Y129333D01*
Y129633D01*
X93837Y129750D01*
X93771Y129849D01*
X93678Y129911D01*
X93674Y129938D01*
X93685Y130042D01*
X93742Y130054D01*
X93819Y130106D01*
X93830Y130117D01*
X93842Y130114D01*
X94142D01*
X94259Y130138D01*
X94358Y130204D01*
X94402Y130269D01*
X94462Y130276D01*
X94524Y130271D01*
X94540Y130265D01*
X94606Y130168D01*
X94721Y130091D01*
X94858Y130063D01*
X95158D01*
X95295Y130091D01*
X95410Y130168D01*
X95488Y130284D01*
X95515Y130420D01*
Y130730D01*
X95488Y130866D01*
X95410Y130982D01*
X95398Y130990D01*
X95400Y130995D01*
Y131155D01*
X95339Y131302D01*
X95227Y131414D01*
X95080Y131475D01*
D02*
G37*
G36*
X86080D02*
X85920D01*
X85773Y131414D01*
X85661Y131302D01*
X85600Y131155D01*
Y130995D01*
X85538Y130884D01*
X85524Y130879D01*
X85462Y130874D01*
X85402Y130881D01*
X85358Y130946D01*
X85259Y131012D01*
X85142Y131036D01*
X84842D01*
X84725Y131012D01*
X84626Y130946D01*
X84559Y130847D01*
X84536Y130730D01*
Y130590D01*
X84409Y130520D01*
X84400Y130522D01*
X84391Y130520D01*
X84264Y130590D01*
Y130730D01*
X84241Y130847D01*
X84174Y130946D01*
X84075Y131012D01*
X83958Y131036D01*
X83658D01*
X83541Y131012D01*
X83442Y130946D01*
X83398Y130881D01*
X83338Y130874D01*
X83276Y130879D01*
X83262Y130884D01*
X83200Y130995D01*
Y131155D01*
X83139Y131302D01*
X83027Y131414D01*
X82880Y131475D01*
X82720D01*
X82573Y131414D01*
X82461Y131302D01*
X82400Y131155D01*
Y130995D01*
X82402Y130990D01*
X82390Y130982D01*
X82312Y130866D01*
X82285Y130730D01*
Y130420D01*
X82312Y130284D01*
X82390Y130168D01*
X82505Y130091D01*
X82642Y130063D01*
X82942D01*
X83079Y130091D01*
X83194Y130168D01*
X83260Y130265D01*
X83276Y130271D01*
X83338Y130276D01*
X83398Y130269D01*
X83442Y130204D01*
X83541Y130138D01*
X83658Y130114D01*
X83958D01*
X83970Y130117D01*
X83981Y130106D01*
X84058Y130054D01*
X84115Y130042D01*
X84126Y129938D01*
X84122Y129911D01*
X84029Y129849D01*
X83963Y129750D01*
X83939Y129633D01*
Y129333D01*
X83963Y129216D01*
X84029Y129117D01*
X84128Y129050D01*
X84182Y129040D01*
Y128910D01*
X84128Y128900D01*
X84029Y128833D01*
X83963Y128734D01*
X83939Y128617D01*
X84400D01*
X84861D01*
X84837Y128734D01*
X84771Y128833D01*
X84672Y128900D01*
X84618Y128910D01*
Y129040D01*
X84672Y129050D01*
X84771Y129117D01*
X84837Y129216D01*
X84861Y129333D01*
Y129633D01*
X84837Y129750D01*
X84771Y129849D01*
X84678Y129911D01*
X84674Y129938D01*
X84685Y130042D01*
X84742Y130054D01*
X84819Y130106D01*
X84830Y130117D01*
X84842Y130114D01*
X85142D01*
X85259Y130138D01*
X85358Y130204D01*
X85402Y130269D01*
X85462Y130276D01*
X85524Y130271D01*
X85540Y130265D01*
X85606Y130168D01*
X85721Y130091D01*
X85858Y130063D01*
X86158D01*
X86295Y130091D01*
X86410Y130168D01*
X86488Y130284D01*
X86515Y130420D01*
Y130730D01*
X86488Y130866D01*
X86410Y130982D01*
X86398Y130990D01*
X86400Y130995D01*
Y131155D01*
X86339Y131302D01*
X86227Y131414D01*
X86080Y131475D01*
D02*
G37*
G36*
X52700Y130787D02*
X52641Y130779D01*
X52447Y130699D01*
X52279Y130571D01*
X52151Y130403D01*
X52108Y130300D01*
X52700D01*
Y130787D01*
D02*
G37*
G36*
X55150Y130807D02*
X54850D01*
X54641Y130779D01*
X54447Y130699D01*
X54279Y130571D01*
X54151Y130403D01*
X54071Y130209D01*
X54064Y130159D01*
X53936D01*
X53929Y130209D01*
X53849Y130403D01*
X53721Y130571D01*
X53553Y130699D01*
X53359Y130779D01*
X53300Y130787D01*
Y130000D01*
Y129213D01*
X53359Y129221D01*
X53553Y129301D01*
X53721Y129429D01*
X53849Y129597D01*
X53929Y129791D01*
X53936Y129841D01*
X54064D01*
X54071Y129791D01*
X54151Y129597D01*
X54279Y129429D01*
X54447Y129301D01*
X54641Y129221D01*
X54850Y129193D01*
X55150D01*
X55359Y129221D01*
X55553Y129301D01*
X55721Y129429D01*
X55849Y129597D01*
X55929Y129791D01*
X55957Y130000D01*
X55929Y130209D01*
X55849Y130403D01*
X55721Y130571D01*
X55553Y130699D01*
X55359Y130779D01*
X55150Y130807D01*
D02*
G37*
G36*
X66090Y130450D02*
X65910D01*
X65745Y130381D01*
X65619Y130255D01*
X65550Y130090D01*
Y129910D01*
X65619Y129745D01*
X65745Y129619D01*
X65910Y129550D01*
X66090D01*
X66255Y129619D01*
X66381Y129745D01*
X66450Y129910D01*
Y130090D01*
X66381Y130255D01*
X66255Y130381D01*
X66090Y130450D01*
D02*
G37*
G36*
X72530Y129850D02*
X72370D01*
X72223Y129789D01*
X72111Y129677D01*
X72079Y129599D01*
X71967Y129513D01*
X71964Y129509D01*
X71837D01*
X71833Y129513D01*
X71721Y129599D01*
X71689Y129677D01*
X71577Y129789D01*
X71430Y129850D01*
X71270D01*
X71123Y129789D01*
X71011Y129677D01*
X70950Y129530D01*
Y129370D01*
X71011Y129223D01*
X71123Y129111D01*
X71270Y129050D01*
X71384D01*
X71436Y129042D01*
X71488Y128971D01*
X71504Y128850D01*
X71504D01*
X71538Y128500D01*
X71641Y128163D01*
X71807Y127852D01*
X72030Y127580D01*
X72302Y127357D01*
X72613Y127191D01*
X72950Y127088D01*
X73300Y127054D01*
Y127057D01*
X85393D01*
X85406Y127060D01*
X85959Y127016D01*
X86511Y126884D01*
X87036Y126667D01*
X87520Y126370D01*
X87951Y126001D01*
X88320Y125570D01*
X88617Y125086D01*
X88834Y124561D01*
X88966Y124009D01*
X89010Y123456D01*
X89007Y123443D01*
Y122863D01*
X88998Y122841D01*
X88848Y122644D01*
X88822Y122581D01*
X88800D01*
X88673Y122556D01*
X88566Y122484D01*
X88518Y122412D01*
X88396Y122403D01*
X88374Y122409D01*
X88348Y122448D01*
X88257Y122509D01*
X88150Y122530D01*
X88125D01*
Y122125D01*
X87975D01*
Y121975D01*
X87525D01*
X87541Y121893D01*
X87484Y121750D01*
X87447Y121734D01*
X87348Y121636D01*
X87295Y121507D01*
Y121368D01*
X87348Y121239D01*
X87447Y121141D01*
X87575Y121088D01*
X87715D01*
X87843Y121141D01*
X87881Y121179D01*
X87947Y121113D01*
X88075Y121060D01*
X88215D01*
X88343Y121113D01*
X88405Y121175D01*
X88452Y121128D01*
X88580Y121075D01*
X88720D01*
X88848Y121128D01*
X88865Y121145D01*
X88923Y121086D01*
X89070Y121025D01*
X89230D01*
X89377Y121086D01*
X89400Y121109D01*
X89423Y121086D01*
X89570Y121025D01*
X89730D01*
X89877Y121086D01*
X89989Y121198D01*
X90050Y121345D01*
Y121505D01*
X90033Y121546D01*
X90110Y121691D01*
X90127Y121694D01*
X90234Y121766D01*
X90242Y121777D01*
X90390Y121779D01*
X90423Y121729D01*
X90424Y121723D01*
X90408Y121678D01*
X90353Y121623D01*
X90300Y121495D01*
Y121355D01*
X90353Y121227D01*
X90452Y121128D01*
X90580Y121075D01*
X90720D01*
X90848Y121128D01*
X90947Y121227D01*
X91000Y121355D01*
Y121495D01*
X90959Y121593D01*
X90983Y121665D01*
X90991Y121680D01*
X91025Y121725D01*
X91107Y121741D01*
X91198Y121802D01*
X91259Y121893D01*
X91275Y121975D01*
X90825D01*
Y122125D01*
X90675D01*
Y122530D01*
X90650D01*
X90543Y122509D01*
X90452Y122448D01*
X90426Y122409D01*
X90404Y122403D01*
X90282Y122412D01*
X90234Y122484D01*
X90127Y122556D01*
X90000Y122581D01*
X89978D01*
X89952Y122644D01*
X89802Y122841D01*
X89793Y122863D01*
Y123443D01*
X89797D01*
X89759Y124018D01*
X89647Y124583D01*
X89462Y125129D01*
X89207Y125645D01*
X88887Y126124D01*
X88507Y126557D01*
X88074Y126937D01*
X87595Y127257D01*
X87079Y127512D01*
X86533Y127697D01*
X85968Y127809D01*
X85393Y127847D01*
Y127843D01*
X73300D01*
X73297Y127842D01*
X73039Y127876D01*
X72796Y127977D01*
X72587Y128137D01*
X72427Y128346D01*
X72326Y128589D01*
X72292Y128847D01*
X72293Y128850D01*
Y128945D01*
X72364Y129042D01*
X72416Y129050D01*
X72530D01*
X72677Y129111D01*
X72789Y129223D01*
X72850Y129370D01*
Y129530D01*
X72789Y129677D01*
X72677Y129789D01*
X72530Y129850D01*
D02*
G37*
G36*
X52700Y129700D02*
X52108D01*
X52151Y129597D01*
X52279Y129429D01*
X52447Y129301D01*
X52641Y129221D01*
X52700Y129213D01*
Y129700D01*
D02*
G37*
G36*
X73750Y130257D02*
X73716Y130250D01*
X73680D01*
X73648Y130237D01*
X73613Y130230D01*
X73584Y130210D01*
X73552Y130197D01*
X73527Y130172D01*
X73498Y130152D01*
X73478Y130123D01*
X73453Y130098D01*
X73440Y130066D01*
X73420Y130037D01*
X73413Y130002D01*
X73400Y129970D01*
Y129934D01*
X73393Y129900D01*
Y129500D01*
X73400Y129466D01*
Y129430D01*
X73413Y129398D01*
X73420Y129363D01*
X73440Y129334D01*
X73453Y129302D01*
X73478Y129277D01*
X73498Y129248D01*
X73527Y129228D01*
X73552Y129203D01*
X73584Y129190D01*
X73613Y129170D01*
X73648Y129163D01*
X73680Y129150D01*
X73716D01*
X73750Y129143D01*
X73784Y129150D01*
X73820D01*
X73852Y129163D01*
X73887Y129170D01*
X73916Y129190D01*
X73948Y129203D01*
X73973Y129228D01*
X74002Y129248D01*
X74022Y129277D01*
X74047Y129302D01*
X74060Y129334D01*
X74080Y129363D01*
X74087Y129398D01*
X74100Y129430D01*
Y129466D01*
X74107Y129500D01*
Y129900D01*
X74100Y129934D01*
Y129970D01*
X74087Y130002D01*
X74080Y130037D01*
X74060Y130066D01*
X74047Y130098D01*
X74022Y130123D01*
X74002Y130152D01*
X73973Y130172D01*
X73948Y130197D01*
X73916Y130210D01*
X73887Y130230D01*
X73852Y130237D01*
X73820Y130250D01*
X73784D01*
X73750Y130257D01*
D02*
G37*
G36*
X93861Y128317D02*
X93550D01*
Y128011D01*
X93555D01*
X93672Y128034D01*
X93771Y128101D01*
X93837Y128200D01*
X93861Y128317D01*
D01*
D02*
G37*
G36*
X93250D02*
X92939D01*
X92963Y128200D01*
X93029Y128101D01*
X93128Y128034D01*
X93245Y128011D01*
X93250D01*
Y128317D01*
D02*
G37*
G36*
X84861Y128317D02*
X84550D01*
Y128011D01*
X84555D01*
X84672Y128034D01*
X84771Y128101D01*
X84837Y128200D01*
X84861Y128317D01*
Y128317D01*
D02*
G37*
G36*
X84250D02*
X83939D01*
Y128317D01*
X83963Y128200D01*
X84029Y128101D01*
X84128Y128034D01*
X84245Y128011D01*
X84250D01*
Y128317D01*
D02*
G37*
G36*
X84555Y126839D02*
X84550D01*
Y126533D01*
X84861D01*
X84837Y126650D01*
X84771Y126749D01*
X84672Y126816D01*
X84555Y126839D01*
D02*
G37*
G36*
X84250D02*
X84245D01*
X84128Y126816D01*
X84029Y126749D01*
X83963Y126650D01*
X83939Y126533D01*
X84250D01*
Y126839D01*
D02*
G37*
G36*
X93555Y126839D02*
X93550D01*
Y126533D01*
X93861D01*
X93837Y126650D01*
X93771Y126749D01*
X93672Y126816D01*
X93555Y126839D01*
D02*
G37*
G36*
X93250D02*
X93245D01*
X93128Y126816D01*
X93029Y126749D01*
X92963Y126650D01*
X92939Y126533D01*
X93250D01*
Y126839D01*
D02*
G37*
G36*
X90150Y127209D02*
X90106Y127200D01*
X90060D01*
X90019Y127183D01*
X89974Y127174D01*
X89937Y127149D01*
X89895Y127131D01*
X89863Y127100D01*
X89826Y127074D01*
X89800Y127037D01*
X89769Y127005D01*
X89751Y126963D01*
X89726Y126926D01*
X89717Y126881D01*
X89700Y126840D01*
Y126794D01*
X89691Y126750D01*
Y126150D01*
X89700Y126106D01*
Y126060D01*
X89717Y126019D01*
X89726Y125974D01*
X89751Y125937D01*
X89769Y125895D01*
X89800Y125863D01*
X89826Y125826D01*
X89863Y125800D01*
X89895Y125769D01*
X89937Y125751D01*
X89974Y125726D01*
X90019Y125717D01*
X90060Y125700D01*
X90106D01*
X90150Y125691D01*
X90194Y125700D01*
X90240D01*
X90281Y125717D01*
X90326Y125726D01*
X90363Y125751D01*
X90405Y125769D01*
X90437Y125800D01*
X90474Y125826D01*
X90500Y125863D01*
X90531Y125895D01*
X90549Y125937D01*
X90574Y125974D01*
X90583Y126019D01*
X90600Y126060D01*
Y126106D01*
X90609Y126150D01*
Y126750D01*
X90600Y126794D01*
Y126840D01*
X90583Y126881D01*
X90574Y126926D01*
X90549Y126963D01*
X90531Y127005D01*
X90500Y127037D01*
X90474Y127074D01*
X90437Y127100D01*
X90405Y127131D01*
X90363Y127149D01*
X90326Y127174D01*
X90281Y127183D01*
X90240Y127200D01*
X90194D01*
X90150Y127209D01*
D02*
G37*
G36*
X93861Y126233D02*
X93400D01*
X92939D01*
Y126233D01*
X92963Y126116D01*
X93029Y126017D01*
X93128Y125950D01*
X93182Y125940D01*
Y125810D01*
X93128Y125800D01*
X93029Y125733D01*
X92963Y125634D01*
X92939Y125517D01*
Y125217D01*
X92963Y125100D01*
X93029Y125001D01*
X93122Y124939D01*
X93126Y124912D01*
X93115Y124808D01*
X93058Y124796D01*
X92981Y124744D01*
X92970Y124733D01*
X92958Y124736D01*
X92658D01*
X92541Y124712D01*
X92442Y124646D01*
X92398Y124581D01*
X92338Y124574D01*
X92276Y124579D01*
X92260Y124585D01*
X92194Y124682D01*
X92079Y124759D01*
X91942Y124787D01*
X91642D01*
X91505Y124759D01*
X91390Y124682D01*
X91312Y124566D01*
X91285Y124430D01*
Y124120D01*
X91312Y123984D01*
X91390Y123868D01*
X91402Y123860D01*
X91400Y123855D01*
Y123695D01*
X91461Y123548D01*
X91573Y123436D01*
X91720Y123375D01*
X91880D01*
X92027Y123436D01*
X92139Y123548D01*
X92200Y123695D01*
Y123855D01*
X92262Y123966D01*
X92276Y123971D01*
X92338Y123976D01*
X92398Y123969D01*
X92442Y123904D01*
X92541Y123838D01*
X92658Y123814D01*
X92958D01*
X93075Y123838D01*
X93174Y123904D01*
X93241Y124003D01*
X93264Y124120D01*
Y124260D01*
X93391Y124330D01*
X93400Y124328D01*
X93409Y124330D01*
X93536Y124260D01*
Y124120D01*
X93559Y124003D01*
X93626Y123904D01*
X93725Y123838D01*
X93842Y123814D01*
X94142D01*
X94259Y123838D01*
X94358Y123904D01*
X94402Y123969D01*
X94462Y123976D01*
X94524Y123971D01*
X94538Y123966D01*
X94600Y123855D01*
Y123695D01*
X94661Y123548D01*
X94773Y123436D01*
X94920Y123375D01*
X95080D01*
X95227Y123436D01*
X95339Y123548D01*
X95400Y123695D01*
Y123855D01*
X95398Y123860D01*
X95410Y123868D01*
X95488Y123984D01*
X95515Y124120D01*
Y124430D01*
X95488Y124566D01*
X95410Y124682D01*
X95295Y124759D01*
X95158Y124787D01*
X94858D01*
X94721Y124759D01*
X94606Y124682D01*
X94540Y124585D01*
X94524Y124579D01*
X94462Y124574D01*
X94402Y124581D01*
X94358Y124646D01*
X94259Y124712D01*
X94142Y124736D01*
X93842D01*
X93830Y124733D01*
X93819Y124744D01*
X93742Y124796D01*
X93685Y124808D01*
X93674Y124912D01*
X93678Y124939D01*
X93771Y125001D01*
X93837Y125100D01*
X93861Y125217D01*
Y125517D01*
X93837Y125634D01*
X93771Y125733D01*
X93672Y125800D01*
X93618Y125810D01*
Y125940D01*
X93672Y125950D01*
X93771Y126017D01*
X93837Y126116D01*
X93861Y126233D01*
Y126233D01*
D02*
G37*
G36*
X84861Y126233D02*
X84400D01*
X83939D01*
Y126233D01*
X83963Y126116D01*
X84029Y126017D01*
X84128Y125950D01*
X84182Y125940D01*
Y125810D01*
X84128Y125800D01*
X84029Y125733D01*
X83963Y125634D01*
X83939Y125517D01*
Y125217D01*
X83963Y125100D01*
X84029Y125001D01*
X84122Y124939D01*
X84126Y124912D01*
X84115Y124808D01*
X84058Y124796D01*
X83981Y124744D01*
X83970Y124733D01*
X83958Y124736D01*
X83658D01*
X83541Y124712D01*
X83442Y124646D01*
X83398Y124581D01*
X83338Y124574D01*
X83276Y124579D01*
X83260Y124585D01*
X83194Y124682D01*
X83079Y124759D01*
X82942Y124787D01*
X82642D01*
X82505Y124759D01*
X82390Y124682D01*
X82312Y124566D01*
X82285Y124430D01*
Y124120D01*
X82312Y123984D01*
X82390Y123868D01*
X82402Y123860D01*
X82400Y123855D01*
Y123695D01*
X82461Y123548D01*
X82573Y123436D01*
X82720Y123375D01*
X82880D01*
X83027Y123436D01*
X83139Y123548D01*
X83200Y123695D01*
Y123855D01*
X83262Y123966D01*
X83276Y123971D01*
X83338Y123976D01*
X83398Y123969D01*
X83442Y123904D01*
X83541Y123838D01*
X83658Y123814D01*
X83958D01*
X84075Y123838D01*
X84174Y123904D01*
X84241Y124003D01*
X84264Y124120D01*
Y124260D01*
X84391Y124330D01*
X84400Y124328D01*
X84409Y124330D01*
X84536Y124260D01*
Y124120D01*
X84559Y124003D01*
X84626Y123904D01*
X84725Y123838D01*
X84842Y123814D01*
X85142D01*
X85259Y123838D01*
X85358Y123904D01*
X85402Y123969D01*
X85462Y123976D01*
X85524Y123971D01*
X85538Y123966D01*
X85600Y123855D01*
Y123695D01*
X85661Y123548D01*
X85773Y123436D01*
X85920Y123375D01*
X86080D01*
X86227Y123436D01*
X86339Y123548D01*
X86400Y123695D01*
Y123855D01*
X86398Y123860D01*
X86410Y123868D01*
X86488Y123984D01*
X86515Y124120D01*
Y124430D01*
X86488Y124566D01*
X86410Y124682D01*
X86295Y124759D01*
X86158Y124787D01*
X85858D01*
X85721Y124759D01*
X85606Y124682D01*
X85540Y124585D01*
X85524Y124579D01*
X85462Y124574D01*
X85402Y124581D01*
X85358Y124646D01*
X85259Y124712D01*
X85142Y124736D01*
X84842D01*
X84830Y124733D01*
X84819Y124744D01*
X84742Y124796D01*
X84685Y124808D01*
X84674Y124912D01*
X84678Y124939D01*
X84771Y125001D01*
X84837Y125100D01*
X84861Y125217D01*
Y125517D01*
X84837Y125634D01*
X84771Y125733D01*
X84672Y125800D01*
X84618Y125810D01*
Y125940D01*
X84672Y125950D01*
X84771Y126017D01*
X84837Y126116D01*
X84861Y126233D01*
Y126233D01*
D02*
G37*
G36*
X87600Y124284D02*
X87556Y124275D01*
X87510D01*
X87469Y124258D01*
X87424Y124249D01*
X87387Y124224D01*
X87345Y124206D01*
X87313Y124175D01*
X87276Y124149D01*
X87250Y124112D01*
X87219Y124080D01*
X87201Y124038D01*
X87176Y124001D01*
X87167Y123956D01*
X87150Y123915D01*
Y123869D01*
X87141Y123825D01*
Y123225D01*
X87150Y123181D01*
Y123135D01*
X87167Y123094D01*
X87176Y123049D01*
X87201Y123012D01*
X87219Y122970D01*
X87250Y122938D01*
X87276Y122901D01*
X87313Y122875D01*
X87345Y122844D01*
X87387Y122826D01*
X87424Y122801D01*
X87469Y122792D01*
X87510Y122775D01*
X87556D01*
X87600Y122766D01*
X87644Y122775D01*
X87690D01*
X87731Y122792D01*
X87776Y122801D01*
X87813Y122826D01*
X87855Y122844D01*
X87887Y122875D01*
X87924Y122901D01*
X87950Y122938D01*
X87981Y122970D01*
X87999Y123012D01*
X88024Y123049D01*
X88033Y123094D01*
X88050Y123135D01*
Y123181D01*
X88059Y123225D01*
Y123825D01*
X88050Y123869D01*
Y123915D01*
X88033Y123956D01*
X88024Y124001D01*
X87999Y124038D01*
X87981Y124080D01*
X87950Y124112D01*
X87924Y124149D01*
X87887Y124175D01*
X87855Y124206D01*
X87813Y124224D01*
X87776Y124249D01*
X87731Y124258D01*
X87690Y124275D01*
X87644D01*
X87600Y124284D01*
D02*
G37*
G36*
X87825Y122530D02*
X87800D01*
X87693Y122509D01*
X87602Y122448D01*
X87541Y122357D01*
X87525Y122275D01*
X87825D01*
Y122530D01*
D02*
G37*
G36*
X91000D02*
X90975D01*
Y122275D01*
X91275D01*
X91259Y122357D01*
X91198Y122448D01*
X91107Y122509D01*
X91000Y122530D01*
D02*
G37*
G36*
X97055Y118639D02*
X96745D01*
X96628Y118616D01*
X96530Y118550D01*
X96470Y118575D01*
X96330D01*
X96202Y118522D01*
X96103Y118423D01*
X96050Y118295D01*
Y118155D01*
X96103Y118027D01*
X96202Y117928D01*
X96330Y117875D01*
X96470D01*
X96486Y117882D01*
X96529Y117817D01*
X96628Y117750D01*
X96682Y117740D01*
Y117610D01*
X96628Y117600D01*
X96529Y117533D01*
X96463Y117434D01*
X96439Y117317D01*
Y117317D01*
X96900D01*
X97361D01*
Y117317D01*
X97337Y117434D01*
X97271Y117533D01*
X97172Y117600D01*
X97118Y117610D01*
Y117740D01*
X97172Y117750D01*
X97271Y117817D01*
X97337Y117916D01*
X97361Y118033D01*
Y118333D01*
X97337Y118450D01*
X97271Y118549D01*
X97172Y118616D01*
X97055Y118639D01*
D02*
G37*
G36*
X70520Y118550D02*
X70380D01*
X70252Y118497D01*
X70200Y118445D01*
X70148Y118497D01*
X70020Y118550D01*
X69880D01*
X69752Y118497D01*
X69700Y118445D01*
X69648Y118497D01*
X69520Y118550D01*
X69380D01*
X69252Y118497D01*
X69153Y118398D01*
X69100Y118270D01*
Y118130D01*
X69153Y118002D01*
X69252Y117903D01*
X69380Y117850D01*
X69520D01*
X69648Y117903D01*
X69700Y117955D01*
X69752Y117903D01*
X69880Y117850D01*
X70020D01*
X70148Y117903D01*
X70200Y117955D01*
X70252Y117903D01*
X70380Y117850D01*
X70520D01*
X70648Y117903D01*
X70747Y118002D01*
X70800Y118130D01*
Y118270D01*
X70747Y118398D01*
X70648Y118497D01*
X70520Y118550D01*
D02*
G37*
G36*
X74370D02*
X74230D01*
X74102Y118497D01*
X74050Y118445D01*
X73998Y118497D01*
X73870Y118550D01*
X73730D01*
X73602Y118497D01*
X73550Y118445D01*
X73498Y118497D01*
X73370Y118550D01*
X73230D01*
X73102Y118497D01*
X73003Y118398D01*
X72950Y118270D01*
Y118130D01*
X73003Y118002D01*
X73102Y117903D01*
X73230Y117850D01*
X73370D01*
X73498Y117903D01*
X73550Y117955D01*
X73602Y117903D01*
X73730Y117850D01*
X73870D01*
X73998Y117903D01*
X74050Y117955D01*
X74102Y117903D01*
X74230Y117850D01*
X74370D01*
X74498Y117903D01*
X74597Y118002D01*
X74650Y118130D01*
Y118270D01*
X74597Y118398D01*
X74498Y118497D01*
X74370Y118550D01*
D02*
G37*
G36*
X68670D02*
X68530D01*
X68402Y118497D01*
X68350Y118445D01*
X68298Y118497D01*
X68170Y118550D01*
X68030D01*
X67902Y118497D01*
X67850Y118445D01*
X67798Y118497D01*
X67670Y118550D01*
X67530D01*
X67402Y118497D01*
X67350Y118445D01*
X67298Y118497D01*
X67170Y118550D01*
X67030D01*
X66902Y118497D01*
X66803Y118398D01*
X66750Y118270D01*
Y118130D01*
X66803Y118002D01*
X66902Y117903D01*
X67030Y117850D01*
X67170D01*
X67298Y117903D01*
X67350Y117955D01*
X67402Y117903D01*
X67530Y117850D01*
X67670D01*
X67798Y117903D01*
X67850Y117955D01*
X67902Y117903D01*
X68030Y117850D01*
X68170D01*
X68298Y117903D01*
X68350Y117955D01*
X68402Y117903D01*
X68530Y117850D01*
X68670D01*
X68798Y117903D01*
X68897Y118002D01*
X68950Y118130D01*
Y118270D01*
X68897Y118398D01*
X68798Y118497D01*
X68670Y118550D01*
D02*
G37*
G36*
X66320D02*
X66180D01*
X66052Y118497D01*
X66000Y118445D01*
X65948Y118497D01*
X65820Y118550D01*
X65680D01*
X65552Y118497D01*
X65500Y118445D01*
X65448Y118497D01*
X65320Y118550D01*
X65180D01*
X65052Y118497D01*
X65000Y118445D01*
X64948Y118497D01*
X64820Y118550D01*
X64680D01*
X64552Y118497D01*
X64453Y118398D01*
X64400Y118270D01*
Y118130D01*
X64453Y118002D01*
X64552Y117903D01*
X64680Y117850D01*
X64820D01*
X64948Y117903D01*
X65000Y117955D01*
X65052Y117903D01*
X65180Y117850D01*
X65320D01*
X65448Y117903D01*
X65500Y117955D01*
X65552Y117903D01*
X65680Y117850D01*
X65820D01*
X65948Y117903D01*
X66000Y117955D01*
X66052Y117903D01*
X66180Y117850D01*
X66320D01*
X66448Y117903D01*
X66547Y118002D01*
X66600Y118130D01*
Y118270D01*
X66547Y118398D01*
X66448Y118497D01*
X66320Y118550D01*
D02*
G37*
G36*
X63970D02*
X63830D01*
X63702Y118497D01*
X63650Y118445D01*
X63598Y118497D01*
X63470Y118550D01*
X63330D01*
X63202Y118497D01*
X63150Y118445D01*
X63098Y118497D01*
X62970Y118550D01*
X62830D01*
X62702Y118497D01*
X62650Y118445D01*
X62598Y118497D01*
X62470Y118550D01*
X62330D01*
X62202Y118497D01*
X62103Y118398D01*
X62050Y118270D01*
Y118130D01*
X62103Y118002D01*
X62202Y117903D01*
X62330Y117850D01*
X62470D01*
X62598Y117903D01*
X62650Y117955D01*
X62702Y117903D01*
X62830Y117850D01*
X62970D01*
X63098Y117903D01*
X63150Y117955D01*
X63202Y117903D01*
X63330Y117850D01*
X63470D01*
X63598Y117903D01*
X63650Y117955D01*
X63702Y117903D01*
X63830Y117850D01*
X63970D01*
X64098Y117903D01*
X64197Y118002D01*
X64250Y118130D01*
Y118270D01*
X64197Y118398D01*
X64098Y118497D01*
X63970Y118550D01*
D02*
G37*
G36*
X61620D02*
X61480D01*
X61352Y118497D01*
X61300Y118445D01*
X61248Y118497D01*
X61120Y118550D01*
X60980D01*
X60852Y118497D01*
X60800Y118445D01*
X60748Y118497D01*
X60620Y118550D01*
X60480D01*
X60352Y118497D01*
X60300Y118445D01*
X60248Y118497D01*
X60120Y118550D01*
X59980D01*
X59852Y118497D01*
X59753Y118398D01*
X59700Y118270D01*
Y118130D01*
X59753Y118002D01*
X59852Y117903D01*
X59980Y117850D01*
X60120D01*
X60248Y117903D01*
X60300Y117955D01*
X60352Y117903D01*
X60480Y117850D01*
X60620D01*
X60748Y117903D01*
X60800Y117955D01*
X60852Y117903D01*
X60980Y117850D01*
X61120D01*
X61248Y117903D01*
X61300Y117955D01*
X61352Y117903D01*
X61480Y117850D01*
X61620D01*
X61748Y117903D01*
X61847Y118002D01*
X61900Y118130D01*
Y118270D01*
X61847Y118398D01*
X61748Y118497D01*
X61620Y118550D01*
D02*
G37*
G36*
X59270D02*
X59130D01*
X59002Y118497D01*
X58950Y118445D01*
X58898Y118497D01*
X58770Y118550D01*
X58630D01*
X58502Y118497D01*
X58450Y118445D01*
X58398Y118497D01*
X58270Y118550D01*
X58130D01*
X58002Y118497D01*
X57950Y118445D01*
X57898Y118497D01*
X57770Y118550D01*
X57630D01*
X57502Y118497D01*
X57403Y118398D01*
X57350Y118270D01*
Y118130D01*
X57403Y118002D01*
X57502Y117903D01*
X57630Y117850D01*
X57770D01*
X57898Y117903D01*
X57950Y117955D01*
X58002Y117903D01*
X58130Y117850D01*
X58270D01*
X58398Y117903D01*
X58450Y117955D01*
X58502Y117903D01*
X58630Y117850D01*
X58770D01*
X58898Y117903D01*
X58950Y117955D01*
X59002Y117903D01*
X59130Y117850D01*
X59270D01*
X59398Y117903D01*
X59497Y118002D01*
X59550Y118130D01*
Y118270D01*
X59497Y118398D01*
X59398Y118497D01*
X59270Y118550D01*
D02*
G37*
G36*
X71945Y118608D02*
X71805D01*
X71677Y118555D01*
X71578Y118456D01*
X71525Y118328D01*
Y118188D01*
X71578Y118060D01*
X71677Y117961D01*
X71805Y117908D01*
X71945D01*
X72073Y117961D01*
X72172Y118060D01*
X72225Y118188D01*
Y118328D01*
X72172Y118456D01*
X72073Y118555D01*
X71945Y118608D01*
D02*
G37*
G36*
X81055Y118639D02*
X80745D01*
X80628Y118616D01*
X80529Y118549D01*
X80463Y118450D01*
X80439Y118333D01*
Y118033D01*
X80463Y117916D01*
X80529Y117817D01*
X80628Y117750D01*
X80682Y117740D01*
Y117610D01*
X80628Y117600D01*
X80529Y117533D01*
X80463Y117434D01*
X80439Y117317D01*
Y117317D01*
X80900D01*
X81361D01*
Y117317D01*
X81337Y117434D01*
X81271Y117533D01*
X81172Y117600D01*
X81118Y117610D01*
Y117740D01*
X81172Y117750D01*
X81271Y117817D01*
X81314Y117882D01*
X81330Y117875D01*
X81470D01*
X81598Y117928D01*
X81697Y118027D01*
X81750Y118155D01*
Y118295D01*
X81697Y118423D01*
X81598Y118522D01*
X81470Y118575D01*
X81330D01*
X81270Y118550D01*
X81172Y118616D01*
X81055Y118639D01*
D02*
G37*
G36*
X97361Y117017D02*
X97050D01*
Y116711D01*
X97055D01*
X97172Y116734D01*
X97271Y116801D01*
X97337Y116900D01*
X97361Y117017D01*
D02*
G37*
G36*
X96750D02*
X96439D01*
X96463Y116900D01*
X96529Y116801D01*
X96628Y116734D01*
X96745Y116711D01*
X96750D01*
Y117017D01*
D02*
G37*
G36*
X81361D02*
X81050D01*
Y116711D01*
X81055D01*
X81172Y116734D01*
X81271Y116801D01*
X81337Y116900D01*
X81361Y117017D01*
D02*
G37*
G36*
X80750D02*
X80439D01*
X80463Y116900D01*
X80529Y116801D01*
X80628Y116734D01*
X80745Y116711D01*
X80750D01*
Y117017D01*
D02*
G37*
G36*
X60120Y116650D02*
X59980D01*
X59852Y116597D01*
X59753Y116498D01*
X59700Y116370D01*
Y116230D01*
X59753Y116102D01*
X59852Y116003D01*
X59980Y115950D01*
X60120D01*
X60248Y116003D01*
X60347Y116102D01*
X60400Y116230D01*
Y116370D01*
X60347Y116498D01*
X60248Y116597D01*
X60120Y116650D01*
D02*
G37*
G36*
X71945Y116592D02*
X71805D01*
X71677Y116539D01*
X71578Y116440D01*
X71525Y116312D01*
Y116172D01*
X71578Y116044D01*
X71677Y115945D01*
X71805Y115892D01*
X71945D01*
X72073Y115945D01*
X72172Y116044D01*
X72225Y116172D01*
Y116312D01*
X72172Y116440D01*
X72073Y116539D01*
X71945Y116592D01*
D02*
G37*
G36*
X90220Y115800D02*
X90080D01*
X89952Y115747D01*
X89853Y115648D01*
X89800Y115520D01*
Y115380D01*
X89853Y115252D01*
X89952Y115153D01*
X90080Y115100D01*
X90220D01*
X90348Y115153D01*
X90447Y115252D01*
X90500Y115380D01*
Y115520D01*
X90447Y115648D01*
X90348Y115747D01*
X90220Y115800D01*
D02*
G37*
G36*
X85275Y114159D02*
X84675D01*
X84631Y114150D01*
X84585D01*
X84544Y114133D01*
X84499Y114124D01*
X84462Y114099D01*
X84420Y114081D01*
X84388Y114050D01*
X84351Y114024D01*
X84325Y113987D01*
X84294Y113955D01*
X84276Y113913D01*
X84251Y113876D01*
X84242Y113831D01*
X84225Y113790D01*
Y113744D01*
X84216Y113700D01*
X84225Y113656D01*
Y113610D01*
X84242Y113569D01*
X84251Y113524D01*
X84276Y113487D01*
X84294Y113445D01*
X84325Y113413D01*
X84351Y113376D01*
X84388Y113350D01*
X84420Y113319D01*
X84462Y113301D01*
X84499Y113276D01*
X84544Y113267D01*
X84585Y113250D01*
X84631D01*
X84675Y113241D01*
X85275D01*
X85319Y113250D01*
X85365D01*
X85406Y113267D01*
X85451Y113276D01*
X85488Y113301D01*
X85530Y113319D01*
X85562Y113350D01*
X85599Y113376D01*
X85625Y113413D01*
X85656Y113445D01*
X85674Y113487D01*
X85699Y113524D01*
X85708Y113569D01*
X85725Y113610D01*
Y113656D01*
X85734Y113700D01*
X85725Y113744D01*
Y113790D01*
X85708Y113831D01*
X85699Y113876D01*
X85674Y113913D01*
X85656Y113955D01*
X85625Y113987D01*
X85599Y114024D01*
X85562Y114050D01*
X85530Y114081D01*
X85488Y114099D01*
X85451Y114124D01*
X85406Y114133D01*
X85365Y114150D01*
X85319D01*
X85275Y114159D01*
D02*
G37*
G36*
X86970Y113500D02*
X86830D01*
X86702Y113447D01*
X86603Y113348D01*
X86550Y113220D01*
Y113080D01*
X86603Y112952D01*
X86702Y112853D01*
X86830Y112800D01*
X86970D01*
X87098Y112853D01*
X87197Y112952D01*
X87250Y113080D01*
Y113220D01*
X87197Y113348D01*
X87098Y113447D01*
X86970Y113500D01*
D02*
G37*
G36*
X62570Y112850D02*
X62430D01*
X62302Y112797D01*
X62203Y112698D01*
X62150Y112570D01*
Y112430D01*
X62133Y112405D01*
X61825D01*
X61718Y112384D01*
X61627Y112323D01*
X61566Y112232D01*
X61565Y112226D01*
X61435D01*
X61434Y112232D01*
X61373Y112323D01*
X61282Y112384D01*
X61175Y112405D01*
X60991D01*
X60850Y112547D01*
Y112570D01*
X60797Y112698D01*
X60698Y112797D01*
X60570Y112850D01*
X60430D01*
X60302Y112797D01*
X60203Y112698D01*
X60150Y112570D01*
Y112430D01*
X60203Y112302D01*
X60302Y112203D01*
X60430Y112150D01*
X60453D01*
X60545Y112059D01*
Y111875D01*
X60566Y111768D01*
X60627Y111677D01*
X60718Y111616D01*
X60825Y111595D01*
X61175D01*
X61282Y111616D01*
X61373Y111677D01*
X61434Y111768D01*
X61435Y111774D01*
X61565D01*
X61566Y111768D01*
X61627Y111677D01*
X61718Y111616D01*
X61825Y111595D01*
X61850D01*
Y112000D01*
X62150D01*
Y111595D01*
X62175D01*
X62282Y111616D01*
X62373Y111677D01*
X62434Y111768D01*
X62455Y111875D01*
Y112125D01*
X62476Y112150D01*
X62570D01*
X62698Y112203D01*
X62797Y112302D01*
X62850Y112430D01*
Y112570D01*
X62797Y112698D01*
X62698Y112797D01*
X62570Y112850D01*
D02*
G37*
G36*
X89795Y112242D02*
X89655D01*
X89527Y112189D01*
X89428Y112090D01*
X89375Y111962D01*
Y111822D01*
X89428Y111694D01*
X89527Y111595D01*
X89655Y111542D01*
X89795D01*
X89923Y111595D01*
X90022Y111694D01*
X90075Y111822D01*
Y111962D01*
X90022Y112090D01*
X89923Y112189D01*
X89795Y112242D01*
D02*
G37*
G36*
X69570Y111850D02*
X69430D01*
X69302Y111797D01*
X69203Y111698D01*
X69150Y111570D01*
Y111547D01*
X69009Y111405D01*
X68825D01*
X68718Y111384D01*
X68627Y111323D01*
X68566Y111232D01*
X68565Y111226D01*
X68435D01*
X68434Y111232D01*
X68373Y111323D01*
X68282Y111384D01*
X68175Y111405D01*
X68150D01*
Y111000D01*
Y110595D01*
X68175D01*
X68282Y110616D01*
X68373Y110677D01*
X68434Y110768D01*
X68435Y110774D01*
X68565D01*
X68566Y110768D01*
X68627Y110677D01*
X68718Y110616D01*
X68825Y110595D01*
X69175D01*
X69282Y110616D01*
X69373Y110677D01*
X69434Y110768D01*
X69455Y110875D01*
Y111059D01*
X69547Y111150D01*
X69570D01*
X69698Y111203D01*
X69797Y111302D01*
X69850Y111430D01*
Y111570D01*
X69797Y111698D01*
X69698Y111797D01*
X69570Y111850D01*
D02*
G37*
G36*
X63570D02*
X63430D01*
X63302Y111797D01*
X63203Y111698D01*
X63150Y111570D01*
Y111430D01*
X63203Y111302D01*
X63302Y111203D01*
X63430Y111150D01*
X63570D01*
X63698Y111203D01*
X63797Y111302D01*
X63850Y111430D01*
Y111570D01*
X63797Y111698D01*
X63698Y111797D01*
X63570Y111850D01*
D02*
G37*
G36*
X67850Y111405D02*
X67825D01*
X67718Y111384D01*
X67627Y111323D01*
X67566Y111232D01*
X67550Y111150D01*
X67850D01*
Y111405D01*
D02*
G37*
G36*
Y110850D02*
X67550D01*
X67566Y110768D01*
X67627Y110677D01*
X67718Y110616D01*
X67825Y110595D01*
X67850D01*
Y110850D01*
D02*
G37*
G36*
X71570Y110850D02*
X71430D01*
X71302Y110797D01*
X71203Y110698D01*
X71150Y110570D01*
Y110547D01*
X71009Y110405D01*
X70825D01*
X70718Y110384D01*
X70627Y110323D01*
X70566Y110232D01*
X70565Y110226D01*
X70435D01*
X70434Y110232D01*
X70373Y110323D01*
X70282Y110384D01*
X70175Y110405D01*
X70150D01*
Y110000D01*
Y109595D01*
X70175D01*
X70282Y109616D01*
X70373Y109677D01*
X70434Y109768D01*
X70435Y109774D01*
X70565D01*
X70566Y109768D01*
X70627Y109677D01*
X70718Y109616D01*
X70825Y109595D01*
X71175D01*
X71282Y109616D01*
X71373Y109677D01*
X71434Y109768D01*
X71455Y109875D01*
Y110059D01*
X71547Y110150D01*
X71570D01*
X71698Y110203D01*
X71797Y110302D01*
X71850Y110430D01*
Y110570D01*
X71797Y110698D01*
X71698Y110797D01*
X71570Y110850D01*
D02*
G37*
G36*
X66150Y110450D02*
Y110150D01*
X66405D01*
Y110175D01*
X66384Y110282D01*
X66323Y110373D01*
X66232Y110434D01*
X66150Y110450D01*
D02*
G37*
G36*
X66850Y110450D02*
X66768Y110434D01*
X66677Y110373D01*
X66616Y110282D01*
X66595Y110175D01*
Y110150D01*
X66850D01*
Y110450D01*
D02*
G37*
G36*
X69850Y110405D02*
X69825D01*
X69718Y110384D01*
X69627Y110323D01*
X69566Y110232D01*
X69550Y110150D01*
X69850D01*
Y110405D01*
D02*
G37*
G36*
X68150Y110450D02*
Y110000D01*
X67850D01*
Y110450D01*
X67768Y110434D01*
X67677Y110373D01*
X67616Y110282D01*
X67595Y110175D01*
Y109867D01*
X67570Y109850D01*
X67430D01*
X67405Y109867D01*
Y110175D01*
X67384Y110282D01*
X67323Y110373D01*
X67232Y110434D01*
X67150Y110450D01*
Y110000D01*
X67000D01*
Y109850D01*
X66595D01*
Y109825D01*
X66616Y109718D01*
X66677Y109627D01*
X66768Y109566D01*
X66774Y109565D01*
Y109435D01*
X66768Y109434D01*
X66677Y109373D01*
X66616Y109282D01*
X66595Y109175D01*
Y108825D01*
X66616Y108718D01*
X66677Y108627D01*
X66768Y108566D01*
X66875Y108545D01*
X67125D01*
X67232Y108566D01*
X67323Y108627D01*
X67384Y108718D01*
X67405Y108825D01*
Y108967D01*
X67468Y109015D01*
X67595Y108955D01*
Y108825D01*
X67616Y108718D01*
X67677Y108627D01*
X67768Y108566D01*
X67875Y108545D01*
X68125D01*
X68232Y108566D01*
X68323Y108627D01*
X68384Y108718D01*
X68405Y108825D01*
Y108965D01*
X68423Y108977D01*
X68597Y109150D01*
X68620D01*
X68748Y109203D01*
X68847Y109302D01*
X68900Y109430D01*
Y109570D01*
X68847Y109698D01*
X68748Y109797D01*
X68620Y109850D01*
X68520D01*
X68480Y109850D01*
X68405Y109956D01*
Y110175D01*
X68384Y110282D01*
X68323Y110373D01*
X68232Y110434D01*
X68150Y110450D01*
D02*
G37*
G36*
X65150D02*
Y110000D01*
X64850D01*
Y110450D01*
X64768Y110434D01*
X64677Y110373D01*
X64616Y110282D01*
X64595Y110175D01*
Y109867D01*
X64570Y109850D01*
X64430D01*
X64302Y109797D01*
X64203Y109698D01*
X64150Y109570D01*
Y109430D01*
X64203Y109302D01*
X64302Y109203D01*
X64430Y109150D01*
X64453D01*
X64595Y109009D01*
Y108825D01*
X64616Y108718D01*
X64677Y108627D01*
X64768Y108566D01*
X64875Y108545D01*
X65125D01*
X65232Y108566D01*
X65323Y108627D01*
X65384Y108718D01*
X65405Y108825D01*
Y108955D01*
X65532Y109015D01*
X65595Y108967D01*
Y108825D01*
X65616Y108718D01*
X65677Y108627D01*
X65768Y108566D01*
X65875Y108545D01*
X66125D01*
X66232Y108566D01*
X66323Y108627D01*
X66384Y108718D01*
X66405Y108825D01*
Y109175D01*
X66384Y109282D01*
X66323Y109373D01*
X66232Y109434D01*
X66226Y109435D01*
Y109565D01*
X66232Y109566D01*
X66323Y109627D01*
X66384Y109718D01*
X66405Y109825D01*
Y109850D01*
X66000D01*
Y110000D01*
X65850D01*
Y110450D01*
X65768Y110434D01*
X65677Y110373D01*
X65616Y110282D01*
X65595Y110175D01*
Y109867D01*
X65570Y109850D01*
X65430D01*
X65405Y109867D01*
Y110175D01*
X65384Y110282D01*
X65323Y110373D01*
X65232Y110434D01*
X65150Y110450D01*
D02*
G37*
G36*
X69850Y109850D02*
X69550D01*
X69566Y109768D01*
X69627Y109677D01*
X69718Y109616D01*
X69825Y109595D01*
X69850D01*
Y109850D01*
D02*
G37*
G36*
X73570Y109850D02*
X73430D01*
X73302Y109797D01*
X73203Y109698D01*
X73150Y109570D01*
Y109430D01*
X73203Y109302D01*
X73302Y109203D01*
X73430Y109150D01*
X73570D01*
X73698Y109203D01*
X73797Y109302D01*
X73850Y109430D01*
Y109570D01*
X73797Y109698D01*
X73698Y109797D01*
X73570Y109850D01*
D02*
G37*
G36*
X58570D02*
X58430D01*
X58302Y109797D01*
X58203Y109698D01*
X58150Y109570D01*
Y109430D01*
X58203Y109302D01*
X58302Y109203D01*
X58430Y109150D01*
X58570D01*
X58698Y109203D01*
X58797Y109302D01*
X58850Y109430D01*
Y109570D01*
X58797Y109698D01*
X58698Y109797D01*
X58570Y109850D01*
D02*
G37*
G36*
X88620Y108000D02*
X88480D01*
X88352Y107947D01*
X88253Y107848D01*
X88200Y107720D01*
Y107580D01*
X88215Y107544D01*
X88102Y107497D01*
X88003Y107398D01*
X87956Y107285D01*
X87920Y107300D01*
X87780D01*
X87652Y107247D01*
X87553Y107148D01*
X87500Y107020D01*
Y106880D01*
X87553Y106752D01*
X87652Y106653D01*
X87780Y106600D01*
X87920D01*
X88048Y106653D01*
X88147Y106752D01*
X88194Y106865D01*
X88230Y106850D01*
X88370D01*
X88498Y106903D01*
X88597Y107002D01*
X88650Y107130D01*
Y107270D01*
X88635Y107306D01*
X88748Y107353D01*
X88847Y107452D01*
X88900Y107580D01*
Y107720D01*
X88847Y107848D01*
X88748Y107947D01*
X88620Y108000D01*
D02*
G37*
G36*
X70450Y106850D02*
X70150D01*
Y106595D01*
X70175D01*
X70282Y106616D01*
X70373Y106677D01*
X70434Y106768D01*
X70450Y106850D01*
D02*
G37*
G36*
X69570Y108850D02*
X69430D01*
X69302Y108797D01*
X69203Y108698D01*
X69150Y108570D01*
Y108547D01*
X69009Y108405D01*
X68825D01*
X68718Y108384D01*
X68627Y108323D01*
X68566Y108232D01*
X68545Y108125D01*
Y107875D01*
X68566Y107768D01*
X68627Y107677D01*
X68718Y107616D01*
X68825Y107595D01*
X68955D01*
X69015Y107468D01*
X68967Y107405D01*
X68825D01*
X68718Y107384D01*
X68627Y107323D01*
X68566Y107232D01*
X68545Y107125D01*
Y106875D01*
X68566Y106768D01*
X68627Y106677D01*
X68718Y106616D01*
X68825Y106595D01*
X69175D01*
X69282Y106616D01*
X69373Y106677D01*
X69434Y106768D01*
X69435Y106774D01*
X69565D01*
X69566Y106768D01*
X69627Y106677D01*
X69718Y106616D01*
X69825Y106595D01*
X69850D01*
Y107000D01*
X70000D01*
Y107150D01*
X70450D01*
X70434Y107232D01*
X70373Y107323D01*
X70282Y107384D01*
X70175Y107405D01*
X69867D01*
X69850Y107430D01*
Y107570D01*
X69867Y107595D01*
X70175D01*
X70282Y107616D01*
X70373Y107677D01*
X70434Y107768D01*
X70450Y107850D01*
X70000D01*
Y108150D01*
X70450D01*
X70434Y108232D01*
X70373Y108323D01*
X70282Y108384D01*
X70175Y108405D01*
X69867D01*
X69850Y108430D01*
Y108570D01*
X69797Y108698D01*
X69698Y108797D01*
X69570Y108850D01*
D02*
G37*
G36*
X63570D02*
X63430D01*
X63302Y108797D01*
X63203Y108698D01*
X63150Y108570D01*
Y108430D01*
X63133Y108405D01*
X62825D01*
X62718Y108384D01*
X62627Y108323D01*
X62566Y108232D01*
X62550Y108150D01*
X63000D01*
Y107850D01*
X62550D01*
X62566Y107768D01*
X62627Y107677D01*
X62718Y107616D01*
X62825Y107595D01*
X63133D01*
X63150Y107570D01*
Y107430D01*
X63133Y107405D01*
X62825D01*
X62718Y107384D01*
X62627Y107323D01*
X62566Y107232D01*
X62550Y107150D01*
X63000D01*
Y107000D01*
X63150D01*
Y106595D01*
X63175D01*
X63282Y106616D01*
X63373Y106677D01*
X63434Y106768D01*
X63435Y106774D01*
X63565D01*
X63566Y106768D01*
X63627Y106677D01*
X63718Y106616D01*
X63825Y106595D01*
X64175D01*
X64282Y106616D01*
X64373Y106677D01*
X64434Y106768D01*
X64455Y106875D01*
Y107125D01*
X64434Y107232D01*
X64373Y107323D01*
X64282Y107384D01*
X64175Y107405D01*
X64033D01*
X63985Y107468D01*
X64045Y107595D01*
X64175D01*
X64282Y107616D01*
X64373Y107677D01*
X64434Y107768D01*
X64455Y107875D01*
Y108125D01*
X64434Y108232D01*
X64373Y108323D01*
X64282Y108384D01*
X64175Y108405D01*
X63991D01*
X63850Y108547D01*
Y108570D01*
X63797Y108698D01*
X63698Y108797D01*
X63570Y108850D01*
D02*
G37*
G36*
X62850Y106850D02*
X62550D01*
X62566Y106768D01*
X62627Y106677D01*
X62718Y106616D01*
X62825Y106595D01*
X62850D01*
Y106850D01*
D02*
G37*
G36*
X77870Y108100D02*
X77730D01*
X77602Y108047D01*
X77503Y107948D01*
X77450Y107820D01*
Y107680D01*
X77503Y107552D01*
X77555Y107500D01*
X77503Y107448D01*
X77450Y107320D01*
Y107180D01*
X77503Y107052D01*
X77555Y107000D01*
X77503Y106948D01*
X77450Y106820D01*
Y106680D01*
X77503Y106552D01*
X77602Y106453D01*
X77730Y106400D01*
X77870D01*
X77998Y106453D01*
X78097Y106552D01*
X78150Y106680D01*
Y106820D01*
X78097Y106948D01*
X78045Y107000D01*
X78097Y107052D01*
X78150Y107180D01*
Y107320D01*
X78097Y107448D01*
X78045Y107500D01*
X78097Y107552D01*
X78150Y107680D01*
Y107820D01*
X78097Y107948D01*
X77998Y108047D01*
X77870Y108100D01*
D02*
G37*
G36*
X81750Y107759D02*
X81706Y107750D01*
X81660D01*
X81619Y107733D01*
X81574Y107724D01*
X81537Y107699D01*
X81495Y107681D01*
X81463Y107650D01*
X81426Y107624D01*
X81400Y107587D01*
X81369Y107555D01*
X81351Y107513D01*
X81326Y107476D01*
X81317Y107431D01*
X81300Y107390D01*
Y107344D01*
X81291Y107300D01*
Y106700D01*
X81300Y106656D01*
Y106610D01*
X81317Y106569D01*
X81326Y106524D01*
X81351Y106487D01*
X81369Y106445D01*
X81400Y106413D01*
X81426Y106376D01*
X81463Y106350D01*
X81495Y106319D01*
X81537Y106301D01*
X81574Y106276D01*
X81619Y106267D01*
X81660Y106250D01*
X81706D01*
X81750Y106241D01*
X81794Y106250D01*
X81840D01*
X81881Y106267D01*
X81926Y106276D01*
X81963Y106301D01*
X82005Y106319D01*
X82037Y106350D01*
X82074Y106376D01*
X82100Y106413D01*
X82131Y106445D01*
X82149Y106487D01*
X82174Y106524D01*
X82183Y106569D01*
X82200Y106610D01*
Y106656D01*
X82209Y106700D01*
Y107300D01*
X82200Y107344D01*
Y107390D01*
X82183Y107431D01*
X82174Y107476D01*
X82149Y107513D01*
X82131Y107555D01*
X82100Y107587D01*
X82074Y107624D01*
X82037Y107650D01*
X82005Y107681D01*
X81963Y107699D01*
X81926Y107724D01*
X81881Y107733D01*
X81840Y107750D01*
X81794D01*
X81750Y107759D01*
D02*
G37*
G36*
X69850Y106405D02*
X69825D01*
X69718Y106384D01*
X69627Y106323D01*
X69566Y106232D01*
X69565Y106226D01*
X69435D01*
X69434Y106232D01*
X69373Y106323D01*
X69282Y106384D01*
X69175Y106405D01*
X68825D01*
X68718Y106384D01*
X68627Y106323D01*
X68566Y106232D01*
X68545Y106125D01*
Y105875D01*
X68566Y105768D01*
X68627Y105677D01*
X68718Y105616D01*
X68825Y105595D01*
X68967D01*
X69015Y105532D01*
X68955Y105405D01*
X68825D01*
X68718Y105384D01*
X68627Y105323D01*
X68566Y105232D01*
X68545Y105125D01*
Y104875D01*
X68566Y104768D01*
X68627Y104677D01*
X68718Y104616D01*
X68825Y104595D01*
X68965D01*
X68977Y104577D01*
X69150Y104403D01*
Y104380D01*
X69203Y104252D01*
X69302Y104153D01*
X69430Y104100D01*
X69570D01*
X69698Y104153D01*
X69797Y104252D01*
X69850Y104380D01*
Y104480D01*
X69850Y104520D01*
X69956Y104595D01*
X70175D01*
X70282Y104616D01*
X70373Y104677D01*
X70434Y104768D01*
X70450Y104850D01*
X70000D01*
Y105150D01*
X70450D01*
X70434Y105232D01*
X70373Y105323D01*
X70282Y105384D01*
X70175Y105405D01*
X69867D01*
X69850Y105430D01*
Y105570D01*
X69867Y105595D01*
X70175D01*
X70282Y105616D01*
X70373Y105677D01*
X70434Y105768D01*
X70450Y105850D01*
X70000D01*
Y106000D01*
X69850D01*
Y106405D01*
D02*
G37*
G36*
X64175Y106405D02*
X63825D01*
X63718Y106384D01*
X63627Y106323D01*
X63566Y106232D01*
X63565Y106226D01*
X63435D01*
X63434Y106232D01*
X63373Y106323D01*
X63282Y106384D01*
X63175Y106405D01*
X63150D01*
Y106000D01*
X63000D01*
Y105850D01*
X62550D01*
X62566Y105768D01*
X62627Y105677D01*
X62718Y105616D01*
X62825Y105595D01*
X63133D01*
X63150Y105570D01*
Y105430D01*
X63133Y105405D01*
X62825D01*
X62718Y105384D01*
X62627Y105323D01*
X62566Y105232D01*
X62550Y105150D01*
X63000D01*
Y104850D01*
X62550D01*
X62566Y104768D01*
X62627Y104677D01*
X62718Y104616D01*
X62825Y104595D01*
X63133D01*
X63150Y104570D01*
Y104430D01*
X63203Y104302D01*
X63302Y104203D01*
X63430Y104150D01*
X63570D01*
X63698Y104203D01*
X63797Y104302D01*
X63850Y104430D01*
Y104453D01*
X63991Y104595D01*
X64175D01*
X64282Y104616D01*
X64373Y104677D01*
X64434Y104768D01*
X64455Y104875D01*
Y105125D01*
X64434Y105232D01*
X64373Y105323D01*
X64282Y105384D01*
X64175Y105405D01*
X64045D01*
X63985Y105532D01*
X64033Y105595D01*
X64175D01*
X64282Y105616D01*
X64373Y105677D01*
X64434Y105768D01*
X64455Y105875D01*
Y106125D01*
X64434Y106232D01*
X64373Y106323D01*
X64282Y106384D01*
X64175Y106405D01*
D02*
G37*
G36*
X70175Y106405D02*
X70150D01*
Y106150D01*
X70450D01*
X70434Y106232D01*
X70373Y106323D01*
X70282Y106384D01*
X70175Y106405D01*
D02*
G37*
G36*
X62850Y106405D02*
X62825D01*
X62718Y106384D01*
X62627Y106323D01*
X62566Y106232D01*
X62550Y106150D01*
X62850D01*
Y106405D01*
D02*
G37*
G36*
X73570Y104850D02*
X73430D01*
X73302Y104797D01*
X73203Y104698D01*
X73150Y104570D01*
Y104430D01*
X73203Y104302D01*
X73302Y104203D01*
X73430Y104150D01*
X73570D01*
X73698Y104203D01*
X73797Y104302D01*
X73850Y104430D01*
Y104570D01*
X73797Y104698D01*
X73698Y104797D01*
X73570Y104850D01*
D02*
G37*
G36*
X66125Y104455D02*
X65875D01*
X65768Y104434D01*
X65677Y104373D01*
X65616Y104282D01*
X65595Y104175D01*
Y104033D01*
X65532Y103985D01*
X65405Y104045D01*
Y104175D01*
X65384Y104282D01*
X65323Y104373D01*
X65232Y104434D01*
X65125Y104455D01*
X64875D01*
X64768Y104434D01*
X64677Y104373D01*
X64616Y104282D01*
X64595Y104175D01*
Y103991D01*
X64453Y103850D01*
X64430D01*
X64302Y103797D01*
X64203Y103698D01*
X64150Y103570D01*
Y103430D01*
X64203Y103302D01*
X64302Y103203D01*
X64430Y103150D01*
X64570D01*
X64595Y103133D01*
Y102825D01*
X64616Y102718D01*
X64677Y102627D01*
X64768Y102566D01*
X64850Y102550D01*
Y103000D01*
X65150D01*
Y102550D01*
X65232Y102566D01*
X65323Y102627D01*
X65384Y102718D01*
X65405Y102825D01*
Y103133D01*
X65430Y103150D01*
X65570D01*
X65595Y103133D01*
Y102825D01*
X65616Y102718D01*
X65677Y102627D01*
X65768Y102566D01*
X65850Y102550D01*
Y103000D01*
X66000D01*
Y103150D01*
X66405D01*
Y103175D01*
X66384Y103282D01*
X66323Y103373D01*
X66232Y103434D01*
X66226Y103435D01*
Y103565D01*
X66232Y103566D01*
X66323Y103627D01*
X66384Y103718D01*
X66405Y103825D01*
Y104175D01*
X66384Y104282D01*
X66323Y104373D01*
X66232Y104434D01*
X66125Y104455D01*
D02*
G37*
G36*
X57170Y104350D02*
X57030D01*
X56902Y104297D01*
X56803Y104198D01*
X56750Y104070D01*
Y103930D01*
X56803Y103802D01*
X56902Y103703D01*
X57030Y103650D01*
X57170D01*
X57298Y103703D01*
X57397Y103802D01*
X57450Y103930D01*
Y104070D01*
X57397Y104198D01*
X57298Y104297D01*
X57170Y104350D01*
D02*
G37*
G36*
X71175Y103405D02*
X70825D01*
X70718Y103384D01*
X70627Y103323D01*
X70566Y103232D01*
X70565Y103226D01*
X70435D01*
X70434Y103232D01*
X70373Y103323D01*
X70282Y103384D01*
X70175Y103405D01*
X70150D01*
Y103000D01*
Y102595D01*
X70175D01*
X70282Y102616D01*
X70373Y102677D01*
X70434Y102768D01*
X70435Y102774D01*
X70565D01*
X70566Y102768D01*
X70627Y102677D01*
X70718Y102616D01*
X70825Y102595D01*
X71009D01*
X71150Y102453D01*
Y102430D01*
X71203Y102302D01*
X71302Y102203D01*
X71430Y102150D01*
X71570D01*
X71698Y102203D01*
X71797Y102302D01*
X71850Y102430D01*
Y102570D01*
X71797Y102698D01*
X71698Y102797D01*
X71570Y102850D01*
X71547D01*
X71455Y102941D01*
Y103125D01*
X71434Y103232D01*
X71373Y103323D01*
X71282Y103384D01*
X71175Y103405D01*
D02*
G37*
G36*
X69850D02*
X69825D01*
X69718Y103384D01*
X69627Y103323D01*
X69566Y103232D01*
X69550Y103150D01*
X69850D01*
Y103405D01*
D02*
G37*
G36*
X55270Y105350D02*
X55130D01*
X55002Y105297D01*
X54903Y105198D01*
X54850Y105070D01*
Y104930D01*
X54903Y104802D01*
X54955Y104750D01*
X54903Y104698D01*
X54850Y104570D01*
Y104430D01*
X54903Y104302D01*
X54955Y104250D01*
X54903Y104198D01*
X54850Y104070D01*
Y103930D01*
X54903Y103802D01*
X54955Y103750D01*
X54903Y103698D01*
X54850Y103570D01*
Y103430D01*
X54903Y103302D01*
X55002Y103203D01*
X55130Y103150D01*
X55270D01*
X55398Y103203D01*
X55497Y103302D01*
X55550Y103430D01*
Y103570D01*
X55497Y103698D01*
X55445Y103750D01*
X55497Y103802D01*
X55550Y103930D01*
Y104070D01*
X55497Y104198D01*
X55445Y104250D01*
X55497Y104302D01*
X55550Y104430D01*
Y104570D01*
X55497Y104698D01*
X55445Y104750D01*
X55497Y104802D01*
X55550Y104930D01*
Y105070D01*
X55497Y105198D01*
X55398Y105297D01*
X55270Y105350D01*
D02*
G37*
G36*
X82220Y103825D02*
X82080D01*
X81952Y103772D01*
X81853Y103673D01*
X81800Y103545D01*
Y103405D01*
X81853Y103277D01*
X81952Y103178D01*
X82080Y103125D01*
X82220D01*
X82348Y103178D01*
X82447Y103277D01*
X82500Y103405D01*
Y103545D01*
X82447Y103673D01*
X82348Y103772D01*
X82220Y103825D01*
D02*
G37*
G36*
X69850Y102850D02*
X69550D01*
X69566Y102768D01*
X69627Y102677D01*
X69718Y102616D01*
X69825Y102595D01*
X69850D01*
Y102850D01*
D02*
G37*
G36*
X67125Y104455D02*
X66875D01*
X66768Y104434D01*
X66677Y104373D01*
X66616Y104282D01*
X66595Y104175D01*
Y103825D01*
X66616Y103718D01*
X66677Y103627D01*
X66768Y103566D01*
X66774Y103565D01*
Y103435D01*
X66768Y103434D01*
X66677Y103373D01*
X66616Y103282D01*
X66595Y103175D01*
Y103150D01*
X67000D01*
Y103000D01*
X67150D01*
Y102550D01*
X67232Y102566D01*
X67323Y102627D01*
X67384Y102718D01*
X67405Y102825D01*
Y103133D01*
X67430Y103150D01*
X67570D01*
X67698Y103203D01*
X67797Y103302D01*
X67850Y103430D01*
Y103570D01*
X67797Y103698D01*
X67698Y103797D01*
X67570Y103850D01*
X67547D01*
X67405Y103991D01*
Y104175D01*
X67384Y104282D01*
X67323Y104373D01*
X67232Y104434D01*
X67125Y104455D01*
D02*
G37*
G36*
X66850Y102850D02*
X66595D01*
Y102825D01*
X66616Y102718D01*
X66677Y102627D01*
X66768Y102566D01*
X66850Y102550D01*
Y102850D01*
D02*
G37*
G36*
X66405D02*
X66150D01*
Y102550D01*
X66232Y102566D01*
X66323Y102627D01*
X66384Y102718D01*
X66405Y102825D01*
Y102850D01*
D02*
G37*
G36*
X65850Y102405D02*
X65825D01*
X65718Y102384D01*
X65627Y102323D01*
X65566Y102232D01*
X65565Y102226D01*
X65435D01*
X65434Y102232D01*
X65373Y102323D01*
X65282Y102384D01*
X65175Y102405D01*
X64825D01*
X64718Y102384D01*
X64627Y102323D01*
X64566Y102232D01*
X64545Y102125D01*
Y101941D01*
X64453Y101850D01*
X64430D01*
X64302Y101797D01*
X64203Y101698D01*
X64150Y101570D01*
Y101430D01*
X64203Y101302D01*
X64302Y101203D01*
X64430Y101150D01*
X64570D01*
X64698Y101203D01*
X64797Y101302D01*
X64850Y101430D01*
Y101453D01*
X64991Y101595D01*
X65175D01*
X65282Y101616D01*
X65373Y101677D01*
X65434Y101768D01*
X65435Y101774D01*
X65565D01*
X65566Y101768D01*
X65627Y101677D01*
X65718Y101616D01*
X65825Y101595D01*
X65850D01*
Y102000D01*
X66000D01*
D01*
X65850D01*
Y102405D01*
D02*
G37*
G36*
X66175D02*
X66150D01*
Y102150D01*
X66450D01*
X66434Y102232D01*
X66373Y102323D01*
X66282Y102384D01*
X66175Y102405D01*
D02*
G37*
G36*
X66450Y101850D02*
X66150D01*
Y101595D01*
X66175D01*
X66282Y101616D01*
X66373Y101677D01*
X66434Y101768D01*
X66450Y101850D01*
D02*
G37*
G36*
X81750Y103059D02*
X81706Y103050D01*
X81660D01*
X81619Y103033D01*
X81574Y103024D01*
X81537Y102999D01*
X81495Y102981D01*
X81463Y102950D01*
X81426Y102924D01*
X81400Y102887D01*
X81369Y102855D01*
X81351Y102813D01*
X81326Y102776D01*
X81317Y102731D01*
X81300Y102690D01*
Y102644D01*
X81291Y102600D01*
Y102000D01*
X81300Y101956D01*
Y101910D01*
X81317Y101869D01*
X81326Y101824D01*
X81351Y101787D01*
X81369Y101745D01*
X81400Y101713D01*
X81426Y101676D01*
X81463Y101650D01*
X81495Y101619D01*
X81537Y101601D01*
X81574Y101576D01*
X81619Y101567D01*
X81660Y101550D01*
X81706D01*
X81750Y101541D01*
X81794Y101550D01*
X81840D01*
X81881Y101567D01*
X81926Y101576D01*
X81963Y101601D01*
X82005Y101619D01*
X82037Y101650D01*
X82074Y101676D01*
X82100Y101713D01*
X82131Y101745D01*
X82149Y101787D01*
X82174Y101824D01*
X82183Y101869D01*
X82200Y101910D01*
Y101956D01*
X82209Y102000D01*
Y102600D01*
X82200Y102644D01*
Y102690D01*
X82183Y102731D01*
X82174Y102776D01*
X82149Y102813D01*
X82131Y102855D01*
X82100Y102887D01*
X82074Y102924D01*
X82037Y102950D01*
X82005Y102981D01*
X81963Y102999D01*
X81926Y103024D01*
X81881Y103033D01*
X81840Y103050D01*
X81794D01*
X81750Y103059D01*
D02*
G37*
G36*
X90930Y101885D02*
X90886Y101877D01*
X90841D01*
X90799Y101859D01*
X90755Y101851D01*
X90717Y101825D01*
X90676Y101808D01*
X90644Y101776D01*
X90606Y101751D01*
X90182Y101327D01*
X90157Y101289D01*
X90125Y101257D01*
X90107Y101216D01*
X90082Y101178D01*
X90073Y101134D01*
X90056Y101092D01*
Y101047D01*
X90047Y101002D01*
X90056Y100958D01*
Y100913D01*
X90073Y100871D01*
X90082Y100827D01*
X90107Y100789D01*
X90125Y100747D01*
X90157Y100716D01*
X90182Y100678D01*
X90219Y100653D01*
X90251Y100621D01*
X90293Y100604D01*
X90331Y100578D01*
X90375Y100570D01*
X90417Y100552D01*
X90462D01*
X90506Y100544D01*
X90550Y100552D01*
X90596D01*
X90637Y100570D01*
X90682Y100578D01*
X90719Y100604D01*
X90761Y100621D01*
X90793Y100653D01*
X90831Y100678D01*
X91255Y101102D01*
X91280Y101140D01*
X91312Y101172D01*
X91329Y101213D01*
X91354Y101251D01*
X91363Y101295D01*
X91380Y101337D01*
Y101382D01*
X91389Y101427D01*
X91380Y101471D01*
Y101516D01*
X91363Y101558D01*
X91354Y101602D01*
X91329Y101640D01*
X91312Y101682D01*
X91280Y101713D01*
X91255Y101751D01*
X91217Y101776D01*
X91185Y101808D01*
X91144Y101825D01*
X91106Y101851D01*
X91062Y101859D01*
X91020Y101877D01*
X90975D01*
X90930Y101885D01*
D02*
G37*
G36*
X73570Y98850D02*
X73430D01*
X73302Y98797D01*
X73203Y98698D01*
X73150Y98570D01*
Y98430D01*
X73203Y98302D01*
X73302Y98203D01*
X73430Y98150D01*
X73570D01*
X73698Y98203D01*
X73797Y98302D01*
X73850Y98430D01*
Y98570D01*
X73797Y98698D01*
X73698Y98797D01*
X73570Y98850D01*
D02*
G37*
G36*
X72570D02*
X72430D01*
X72302Y98797D01*
X72203Y98698D01*
X72150Y98570D01*
Y98430D01*
X72203Y98302D01*
X72302Y98203D01*
X72430Y98150D01*
X72570D01*
X72698Y98203D01*
X72797Y98302D01*
X72850Y98430D01*
Y98570D01*
X72797Y98698D01*
X72698Y98797D01*
X72570Y98850D01*
D02*
G37*
G36*
X65570D02*
X65430D01*
X65302Y98797D01*
X65203Y98698D01*
X65150Y98570D01*
Y98430D01*
X65203Y98302D01*
X65302Y98203D01*
X65430Y98150D01*
X65570D01*
X65698Y98203D01*
X65797Y98302D01*
X65850Y98430D01*
Y98570D01*
X65797Y98698D01*
X65698Y98797D01*
X65570Y98850D01*
D02*
G37*
G36*
X64570D02*
X64430D01*
X64302Y98797D01*
X64203Y98698D01*
X64150Y98570D01*
Y98430D01*
X64203Y98302D01*
X64302Y98203D01*
X64430Y98150D01*
X64570D01*
X64698Y98203D01*
X64797Y98302D01*
X64850Y98430D01*
Y98570D01*
X64797Y98698D01*
X64698Y98797D01*
X64570Y98850D01*
D02*
G37*
G36*
X82220Y99125D02*
X82080D01*
X81952Y99072D01*
X81853Y98973D01*
X81800Y98845D01*
Y98705D01*
X81853Y98577D01*
X81897Y98533D01*
X81938Y98450D01*
X81897Y98367D01*
X81853Y98323D01*
X81800Y98195D01*
Y98055D01*
X81853Y97927D01*
X81952Y97828D01*
X82080Y97775D01*
X82220D01*
X82348Y97828D01*
X82447Y97927D01*
X82500Y98055D01*
Y98195D01*
X82447Y98323D01*
X82403Y98367D01*
X82362Y98450D01*
X82403Y98533D01*
X82447Y98577D01*
X82500Y98705D01*
Y98845D01*
X82447Y98973D01*
X82348Y99072D01*
X82220Y99125D01*
D02*
G37*
G36*
X62100Y93309D02*
X60800D01*
X60756Y93300D01*
X60710D01*
X60669Y93283D01*
X60624Y93274D01*
X60587Y93249D01*
X60545Y93231D01*
X60513Y93200D01*
X60476Y93174D01*
X60450Y93137D01*
X60419Y93105D01*
X60401Y93063D01*
X60376Y93026D01*
X60367Y92981D01*
X60350Y92940D01*
Y92894D01*
X60341Y92850D01*
X60350Y92806D01*
Y92760D01*
X60367Y92719D01*
X60376Y92674D01*
X60401Y92637D01*
X60419Y92595D01*
X60450Y92563D01*
X60476Y92526D01*
X60513Y92500D01*
X60545Y92469D01*
X60587Y92451D01*
X60624Y92426D01*
X60669Y92417D01*
X60710Y92400D01*
X60756D01*
X60800Y92391D01*
X62100D01*
X62144Y92400D01*
X62190D01*
X62231Y92417D01*
X62276Y92426D01*
X62313Y92451D01*
X62355Y92469D01*
X62387Y92500D01*
X62424Y92526D01*
X62450Y92563D01*
X62481Y92595D01*
X62499Y92637D01*
X62524Y92674D01*
X62533Y92719D01*
X62550Y92760D01*
Y92806D01*
X62559Y92850D01*
X62550Y92894D01*
Y92940D01*
X62533Y92981D01*
X62524Y93026D01*
X62499Y93063D01*
X62481Y93105D01*
X62450Y93137D01*
X62424Y93174D01*
X62387Y93200D01*
X62355Y93231D01*
X62313Y93249D01*
X62276Y93274D01*
X62231Y93283D01*
X62190Y93300D01*
X62144D01*
X62100Y93309D01*
D02*
G37*
G36*
X94100Y92159D02*
X94056Y92150D01*
X94010D01*
X93969Y92133D01*
X93924Y92124D01*
X93887Y92099D01*
X93845Y92081D01*
X93813Y92050D01*
X93776Y92024D01*
X93750Y91987D01*
X93719Y91955D01*
X93701Y91913D01*
X93676Y91876D01*
X93667Y91831D01*
X93650Y91790D01*
Y91744D01*
X93641Y91700D01*
Y91100D01*
X93650Y91056D01*
Y91010D01*
X93667Y90969D01*
X93676Y90924D01*
X93701Y90887D01*
X93719Y90845D01*
X93750Y90813D01*
X93776Y90776D01*
X93813Y90750D01*
X93845Y90719D01*
X93887Y90701D01*
X93924Y90676D01*
X93969Y90667D01*
X94010Y90650D01*
X94056D01*
X94100Y90641D01*
X94144Y90650D01*
X94190D01*
X94231Y90667D01*
X94276Y90676D01*
X94313Y90701D01*
X94355Y90719D01*
X94387Y90750D01*
X94424Y90776D01*
X94450Y90813D01*
X94481Y90845D01*
X94499Y90887D01*
X94524Y90924D01*
X94533Y90969D01*
X94550Y91010D01*
Y91056D01*
X94559Y91100D01*
Y91700D01*
X94550Y91744D01*
Y91790D01*
X94533Y91831D01*
X94524Y91876D01*
X94499Y91913D01*
X94481Y91955D01*
X94450Y91987D01*
X94424Y92024D01*
X94387Y92050D01*
X94355Y92081D01*
X94313Y92099D01*
X94276Y92124D01*
X94231Y92133D01*
X94190Y92150D01*
X94144D01*
X94100Y92159D01*
D02*
G37*
G36*
X79950Y90059D02*
X78750D01*
X78706Y90050D01*
X78660D01*
X78619Y90033D01*
X78574Y90024D01*
X78537Y89999D01*
X78495Y89981D01*
X78463Y89950D01*
X78426Y89924D01*
X78400Y89887D01*
X78369Y89855D01*
X78351Y89813D01*
X78326Y89776D01*
X78317Y89731D01*
X78300Y89690D01*
Y89644D01*
X78291Y89600D01*
X78300Y89556D01*
Y89510D01*
X78317Y89469D01*
X78326Y89424D01*
X78351Y89387D01*
X78369Y89345D01*
X78400Y89313D01*
X78426Y89276D01*
X78463Y89250D01*
X78495Y89219D01*
X78537Y89201D01*
X78574Y89176D01*
X78619Y89167D01*
X78660Y89150D01*
X78706D01*
X78750Y89141D01*
X79950D01*
X79994Y89150D01*
X80040D01*
X80081Y89167D01*
X80126Y89176D01*
X80163Y89201D01*
X80205Y89219D01*
X80237Y89250D01*
X80274Y89276D01*
X80300Y89313D01*
X80331Y89345D01*
X80349Y89387D01*
X80374Y89424D01*
X80383Y89469D01*
X80400Y89510D01*
Y89556D01*
X80409Y89600D01*
X80400Y89644D01*
Y89690D01*
X80383Y89731D01*
X80374Y89776D01*
X80349Y89813D01*
X80331Y89855D01*
X80300Y89887D01*
X80274Y89924D01*
X80237Y89950D01*
X80205Y89981D01*
X80163Y89999D01*
X80126Y90024D01*
X80081Y90033D01*
X80040Y90050D01*
X79994D01*
X79950Y90059D01*
D02*
G37*
G36*
X68495Y89500D02*
X68355D01*
X68227Y89447D01*
X68128Y89348D01*
X68075Y89220D01*
Y89080D01*
X68128Y88952D01*
X68227Y88853D01*
X68355Y88800D01*
X68495D01*
X68623Y88853D01*
X68722Y88952D01*
X68775Y89080D01*
Y89220D01*
X68722Y89348D01*
X68623Y89447D01*
X68495Y89500D01*
D02*
G37*
G36*
X104525Y87147D02*
X104481Y87138D01*
X104435D01*
X104394Y87121D01*
X104349Y87112D01*
X104312Y87087D01*
X104270Y87070D01*
X104238Y87038D01*
X104201Y87013D01*
X104175Y86975D01*
X104144Y86943D01*
X104126Y86901D01*
X104101Y86864D01*
X104092Y86820D01*
X104075Y86778D01*
Y86733D01*
X104066Y86688D01*
Y86088D01*
X104075Y86044D01*
Y85999D01*
X104092Y85957D01*
X104101Y85913D01*
X104126Y85875D01*
X104144Y85833D01*
X104175Y85801D01*
X104201Y85764D01*
X104238Y85739D01*
X104270Y85707D01*
X104312Y85690D01*
X104349Y85664D01*
X104394Y85656D01*
X104435Y85638D01*
X104481D01*
X104525Y85629D01*
X104569Y85638D01*
X104615D01*
X104656Y85656D01*
X104701Y85664D01*
X104738Y85690D01*
X104780Y85707D01*
X104812Y85739D01*
X104849Y85764D01*
X104875Y85801D01*
X104906Y85833D01*
X104924Y85875D01*
X104949Y85913D01*
X104958Y85957D01*
X104975Y85999D01*
Y86044D01*
X104984Y86088D01*
Y86688D01*
X104975Y86733D01*
Y86778D01*
X104958Y86820D01*
X104949Y86864D01*
X104924Y86901D01*
X104906Y86943D01*
X104875Y86975D01*
X104849Y87013D01*
X104812Y87038D01*
X104780Y87070D01*
X104738Y87087D01*
X104701Y87112D01*
X104656Y87121D01*
X104615Y87138D01*
X104569D01*
X104525Y87147D01*
D02*
G37*
G36*
X73745Y84725D02*
X73605D01*
X73477Y84672D01*
X73378Y84573D01*
X73325Y84445D01*
Y84305D01*
X73378Y84177D01*
X73477Y84078D01*
X73605Y84025D01*
X73745D01*
X73873Y84078D01*
X73972Y84177D01*
X74025Y84305D01*
Y84445D01*
X73972Y84573D01*
X73873Y84672D01*
X73745Y84725D01*
D02*
G37*
G36*
X66245Y84175D02*
X66105D01*
X65977Y84122D01*
X65878Y84023D01*
X65825Y83895D01*
Y83755D01*
X65878Y83627D01*
X65977Y83528D01*
X66105Y83475D01*
X66245D01*
X66373Y83528D01*
X66472Y83627D01*
X66525Y83755D01*
Y83895D01*
X66472Y84023D01*
X66373Y84122D01*
X66245Y84175D01*
D02*
G37*
G36*
X101690Y80600D02*
X101510D01*
X101345Y80531D01*
X101219Y80405D01*
X101150Y80240D01*
Y80060D01*
X101219Y79895D01*
X101345Y79769D01*
X101510Y79700D01*
X101690D01*
X101855Y79769D01*
X101981Y79895D01*
X102050Y80060D01*
Y80240D01*
X101981Y80405D01*
X101855Y80531D01*
X101690Y80600D01*
D02*
G37*
G36*
X104620Y80050D02*
X104480D01*
X104352Y79997D01*
X104253Y79898D01*
X104200Y79770D01*
Y79630D01*
X104253Y79502D01*
X104352Y79403D01*
X104480Y79350D01*
X104620D01*
X104748Y79403D01*
X104847Y79502D01*
X104900Y79630D01*
Y79770D01*
X104847Y79898D01*
X104748Y79997D01*
X104620Y80050D01*
D02*
G37*
G36*
X91098Y80408D02*
X91053Y80400D01*
X91008D01*
X90966Y80382D01*
X90922Y80374D01*
X90885Y80348D01*
X90843Y80331D01*
X90811Y80299D01*
X90773Y80274D01*
X90748Y80236D01*
X90716Y80205D01*
X90699Y80163D01*
X90674Y80125D01*
X90665Y80081D01*
X90648Y80039D01*
Y79994D01*
X90639Y79950D01*
X90648Y79905D01*
Y79860D01*
X90665Y79818D01*
X90674Y79774D01*
X90699Y79736D01*
X90716Y79695D01*
X90748Y79663D01*
X90773Y79625D01*
X91198Y79201D01*
X91235Y79176D01*
X91267Y79144D01*
X91309Y79127D01*
X91346Y79101D01*
X91391Y79093D01*
X91432Y79075D01*
X91478D01*
X91522Y79067D01*
X91566Y79075D01*
X91611D01*
X91653Y79093D01*
X91698Y79101D01*
X91735Y79127D01*
X91777Y79144D01*
X91809Y79176D01*
X91846Y79201D01*
X91872Y79239D01*
X91903Y79270D01*
X91921Y79312D01*
X91946Y79350D01*
X91955Y79394D01*
X91972Y79436D01*
Y79481D01*
X91981Y79525D01*
X91972Y79570D01*
Y79615D01*
X91955Y79657D01*
X91946Y79701D01*
X91921Y79739D01*
X91903Y79780D01*
X91872Y79812D01*
X91846Y79850D01*
X91422Y80274D01*
X91385Y80299D01*
X91353Y80331D01*
X91311Y80348D01*
X91273Y80374D01*
X91229Y80382D01*
X91187Y80400D01*
X91142D01*
X91098Y80408D01*
D02*
G37*
G36*
X93178Y79951D02*
X93038D01*
X92910Y79898D01*
X92811Y79799D01*
X92758Y79671D01*
Y79598D01*
X92685D01*
X92556Y79544D01*
X92458Y79446D01*
X92404Y79317D01*
Y79178D01*
X92458Y79049D01*
X92556Y78951D01*
X92685Y78898D01*
X92824D01*
X92953Y78951D01*
X93051Y79049D01*
X93104Y79178D01*
Y79251D01*
X93178D01*
X93306Y79304D01*
X93405Y79403D01*
X93458Y79531D01*
Y79671D01*
X93405Y79799D01*
X93306Y79898D01*
X93178Y79951D01*
D02*
G37*
G36*
X71900Y76059D02*
X71300D01*
X71256Y76050D01*
X71210D01*
X71169Y76033D01*
X71124Y76024D01*
X71087Y75999D01*
X71045Y75981D01*
X71013Y75950D01*
X70976Y75924D01*
X70950Y75887D01*
X70919Y75855D01*
X70901Y75813D01*
X70876Y75776D01*
X70867Y75731D01*
X70850Y75690D01*
Y75644D01*
X70841Y75600D01*
X70850Y75556D01*
Y75510D01*
X70867Y75469D01*
X70876Y75424D01*
X70901Y75387D01*
X70919Y75345D01*
X70950Y75313D01*
X70976Y75276D01*
X71013Y75250D01*
X71045Y75219D01*
X71087Y75201D01*
X71124Y75176D01*
X71169Y75167D01*
X71210Y75150D01*
X71256D01*
X71300Y75141D01*
X71900D01*
X71944Y75150D01*
X71990D01*
X72031Y75167D01*
X72076Y75176D01*
X72113Y75201D01*
X72155Y75219D01*
X72187Y75250D01*
X72224Y75276D01*
X72250Y75313D01*
X72281Y75345D01*
X72299Y75387D01*
X72324Y75424D01*
X72333Y75469D01*
X72350Y75510D01*
Y75556D01*
X72359Y75600D01*
X72350Y75644D01*
Y75690D01*
X72333Y75731D01*
X72324Y75776D01*
X72299Y75813D01*
X72281Y75855D01*
X72250Y75887D01*
X72224Y75924D01*
X72187Y75950D01*
X72155Y75981D01*
X72113Y75999D01*
X72076Y76024D01*
X72031Y76033D01*
X71990Y76050D01*
X71944D01*
X71900Y76059D01*
D02*
G37*
G36*
X69840Y75900D02*
X69660D01*
X69495Y75831D01*
X69369Y75705D01*
X69300Y75540D01*
Y75360D01*
X69369Y75195D01*
X69495Y75069D01*
X69660Y75000D01*
X69840D01*
X70005Y75069D01*
X70131Y75195D01*
X70200Y75360D01*
Y75540D01*
X70131Y75705D01*
X70005Y75831D01*
X69840Y75900D01*
D02*
G37*
G36*
X66040D02*
X65860D01*
X65695Y75831D01*
X65569Y75705D01*
X65500Y75540D01*
Y75360D01*
X65569Y75195D01*
X65695Y75069D01*
X65860Y75000D01*
X66040D01*
X66205Y75069D01*
X66331Y75195D01*
X66400Y75360D01*
Y75540D01*
X66331Y75705D01*
X66205Y75831D01*
X66040Y75900D01*
D02*
G37*
G36*
X59800Y75659D02*
X59225D01*
X59181Y75650D01*
X59135D01*
X59094Y75633D01*
X59049Y75624D01*
X59012Y75599D01*
X58970Y75581D01*
X58938Y75550D01*
X58901Y75524D01*
X58875Y75487D01*
X58844Y75455D01*
X58826Y75413D01*
X58801Y75376D01*
X58792Y75331D01*
X58775Y75290D01*
Y75244D01*
X58766Y75200D01*
X58775Y75156D01*
Y75110D01*
X58792Y75069D01*
X58801Y75024D01*
X58826Y74987D01*
X58844Y74945D01*
X58875Y74913D01*
X58901Y74876D01*
X58938Y74850D01*
X58970Y74819D01*
X59012Y74801D01*
X59049Y74776D01*
X59094Y74767D01*
X59135Y74750D01*
X59181D01*
X59225Y74741D01*
X59800D01*
X59844Y74750D01*
X59890D01*
X59931Y74767D01*
X59976Y74776D01*
X60013Y74801D01*
X60055Y74819D01*
X60087Y74850D01*
X60124Y74876D01*
X60150Y74913D01*
X60181Y74945D01*
X60199Y74987D01*
X60224Y75024D01*
X60233Y75069D01*
X60250Y75110D01*
Y75156D01*
X60259Y75200D01*
X60250Y75244D01*
Y75290D01*
X60233Y75331D01*
X60224Y75376D01*
X60199Y75413D01*
X60181Y75455D01*
X60150Y75487D01*
X60124Y75524D01*
X60087Y75550D01*
X60055Y75581D01*
X60013Y75599D01*
X59976Y75624D01*
X59931Y75633D01*
X59890Y75650D01*
X59844D01*
X59800Y75659D01*
D02*
G37*
G36*
X54400D02*
X53800D01*
X53756Y75650D01*
X53710D01*
X53669Y75633D01*
X53624Y75624D01*
X53587Y75599D01*
X53545Y75581D01*
X53513Y75550D01*
X53476Y75524D01*
X53450Y75487D01*
X53419Y75455D01*
X53401Y75413D01*
X53376Y75376D01*
X53367Y75331D01*
X53350Y75290D01*
Y75244D01*
X53341Y75200D01*
X53350Y75156D01*
Y75110D01*
X53367Y75069D01*
X53376Y75024D01*
X53401Y74987D01*
X53419Y74945D01*
X53450Y74913D01*
X53476Y74876D01*
X53513Y74850D01*
X53545Y74819D01*
X53587Y74801D01*
X53624Y74776D01*
X53669Y74767D01*
X53710Y74750D01*
X53756D01*
X53800Y74741D01*
X54400D01*
X54444Y74750D01*
X54490D01*
X54531Y74767D01*
X54576Y74776D01*
X54613Y74801D01*
X54655Y74819D01*
X54687Y74850D01*
X54724Y74876D01*
X54750Y74913D01*
X54781Y74945D01*
X54799Y74987D01*
X54824Y75024D01*
X54833Y75069D01*
X54850Y75110D01*
Y75156D01*
X54859Y75200D01*
X54850Y75244D01*
Y75290D01*
X54833Y75331D01*
X54824Y75376D01*
X54799Y75413D01*
X54781Y75455D01*
X54750Y75487D01*
X54724Y75524D01*
X54687Y75550D01*
X54655Y75581D01*
X54613Y75599D01*
X54576Y75624D01*
X54531Y75633D01*
X54490Y75650D01*
X54444D01*
X54400Y75659D01*
D02*
G37*
G36*
X68890Y71950D02*
X68710D01*
X68545Y71881D01*
X68419Y71755D01*
X68350Y71590D01*
Y71410D01*
X68419Y71245D01*
X68545Y71119D01*
X68710Y71050D01*
X68890D01*
X69055Y71119D01*
X69181Y71245D01*
X69250Y71410D01*
Y71590D01*
X69181Y71755D01*
X69055Y71881D01*
X68890Y71950D01*
D02*
G37*
G36*
X65090D02*
X64910D01*
X64745Y71881D01*
X64619Y71755D01*
X64550Y71590D01*
Y71410D01*
X64619Y71245D01*
X64745Y71119D01*
X64910Y71050D01*
X65090D01*
X65255Y71119D01*
X65381Y71245D01*
X65450Y71410D01*
Y71590D01*
X65381Y71755D01*
X65255Y71881D01*
X65090Y71950D01*
D02*
G37*
G36*
X57525Y65559D02*
X57481Y65550D01*
X57435D01*
X57394Y65533D01*
X57349Y65524D01*
X57312Y65499D01*
X57270Y65481D01*
X57238Y65450D01*
X57201Y65424D01*
X57175Y65387D01*
X57144Y65355D01*
X57126Y65313D01*
X57101Y65276D01*
X57092Y65231D01*
X57075Y65190D01*
Y65144D01*
X57066Y65100D01*
Y64500D01*
X57075Y64456D01*
Y64410D01*
X57092Y64369D01*
X57101Y64324D01*
X57126Y64287D01*
X57144Y64245D01*
X57175Y64213D01*
X57201Y64176D01*
X57238Y64150D01*
X57270Y64119D01*
X57312Y64101D01*
X57349Y64076D01*
X57394Y64067D01*
X57435Y64050D01*
X57481D01*
X57525Y64041D01*
X57569Y64050D01*
X57615D01*
X57656Y64067D01*
X57701Y64076D01*
X57738Y64101D01*
X57780Y64119D01*
X57812Y64150D01*
X57849Y64176D01*
X57875Y64213D01*
X57906Y64245D01*
X57924Y64287D01*
X57949Y64324D01*
X57958Y64369D01*
X57975Y64410D01*
Y64456D01*
X57984Y64500D01*
Y65100D01*
X57975Y65144D01*
Y65190D01*
X57958Y65231D01*
X57949Y65276D01*
X57924Y65313D01*
X57906Y65355D01*
X57875Y65387D01*
X57849Y65424D01*
X57812Y65450D01*
X57780Y65481D01*
X57738Y65499D01*
X57701Y65524D01*
X57656Y65533D01*
X57615Y65550D01*
X57569D01*
X57525Y65559D01*
D02*
G37*
G36*
X56270Y63800D02*
X56130D01*
X56002Y63747D01*
X55903Y63648D01*
X55850Y63520D01*
Y63380D01*
X55903Y63252D01*
X56002Y63153D01*
X56130Y63100D01*
X56270D01*
X56398Y63153D01*
X56497Y63252D01*
X56550Y63380D01*
Y63520D01*
X56497Y63648D01*
X56398Y63747D01*
X56270Y63800D01*
D02*
G37*
G36*
X97650Y62700D02*
Y62400D01*
X97905D01*
Y62425D01*
X97884Y62532D01*
X97823Y62623D01*
X97732Y62684D01*
X97650Y62700D01*
D02*
G37*
G36*
X95650D02*
Y62400D01*
X95905D01*
Y62425D01*
X95884Y62532D01*
X95823Y62623D01*
X95732Y62684D01*
X95650Y62700D01*
D02*
G37*
G36*
X95350D02*
X95268Y62684D01*
X95177Y62623D01*
X95116Y62532D01*
X95095Y62425D01*
Y62400D01*
X95350D01*
Y62700D01*
D02*
G37*
G36*
X97350Y62700D02*
X97268Y62684D01*
X97177Y62623D01*
X97116Y62532D01*
X97095Y62425D01*
Y62400D01*
X97350D01*
Y62700D01*
D02*
G37*
G36*
X68790Y60150D02*
X68610D01*
X68445Y60081D01*
X68319Y59955D01*
X68250Y59790D01*
Y59610D01*
X68319Y59445D01*
X68445Y59319D01*
X68610Y59250D01*
X68790D01*
X68955Y59319D01*
X69081Y59445D01*
X69150Y59610D01*
Y59790D01*
X69081Y59955D01*
X68955Y60081D01*
X68790Y60150D01*
D02*
G37*
G36*
X65190D02*
X65010D01*
X64845Y60081D01*
X64719Y59955D01*
X64650Y59790D01*
Y59610D01*
X64719Y59445D01*
X64845Y59319D01*
X65010Y59250D01*
X65190D01*
X65355Y59319D01*
X65481Y59445D01*
X65550Y59610D01*
Y59790D01*
X65481Y59955D01*
X65355Y60081D01*
X65190Y60150D01*
D02*
G37*
G36*
X93648Y59257D02*
Y58697D01*
X94208D01*
X94174Y58827D01*
X94078Y58992D01*
X93943Y59127D01*
X93778Y59223D01*
X93648Y59257D01*
D02*
G37*
G36*
X93348D02*
X93218Y59223D01*
X93053Y59127D01*
X92918Y58992D01*
X92822Y58827D01*
X92788Y58697D01*
X93348D01*
Y59257D01*
D02*
G37*
G36*
X91648D02*
Y58697D01*
X92208D01*
X92174Y58827D01*
X92078Y58992D01*
X91943Y59127D01*
X91778Y59223D01*
X91648Y59257D01*
D02*
G37*
G36*
X91348D02*
X91218Y59223D01*
X91053Y59127D01*
X90918Y58992D01*
X90822Y58827D01*
X90788Y58697D01*
X91348D01*
Y59257D01*
D02*
G37*
G36*
X94208Y58397D02*
X93648D01*
Y57837D01*
X93778Y57871D01*
X93943Y57967D01*
X94078Y58102D01*
X94174Y58267D01*
X94208Y58397D01*
D02*
G37*
G36*
X93348D02*
X92788D01*
X92822Y58267D01*
X92918Y58102D01*
X93053Y57967D01*
X93218Y57871D01*
X93348Y57837D01*
Y58397D01*
D02*
G37*
G36*
X92208D02*
X91648D01*
Y57837D01*
X91778Y57871D01*
X91943Y57967D01*
X92078Y58102D01*
X92174Y58267D01*
X92208Y58397D01*
D02*
G37*
G36*
X91348D02*
X90788D01*
X90822Y58267D01*
X90918Y58102D01*
X91053Y57967D01*
X91218Y57871D01*
X91348Y57837D01*
Y58397D01*
D02*
G37*
G36*
X97905Y62100D02*
X97500D01*
X97095D01*
Y62075D01*
X97116Y61968D01*
X97177Y61877D01*
X97268Y61816D01*
X97274Y61815D01*
Y61685D01*
X97268Y61684D01*
X97177Y61623D01*
X97116Y61532D01*
X97095Y61425D01*
Y61272D01*
X97092Y61259D01*
Y61208D01*
X97090Y61198D01*
X97090Y61198D01*
Y59272D01*
X96773D01*
Y57822D01*
X98223D01*
Y59272D01*
X97906D01*
Y61190D01*
X97908Y61200D01*
X97908Y61200D01*
Y61259D01*
X97905Y61272D01*
Y61425D01*
X97884Y61532D01*
X97823Y61623D01*
X97732Y61684D01*
X97726Y61685D01*
Y61815D01*
X97732Y61816D01*
X97823Y61877D01*
X97884Y61968D01*
X97905Y62075D01*
Y62100D01*
D02*
G37*
G36*
X95905D02*
X95500D01*
X95095D01*
Y62075D01*
X95116Y61968D01*
X95177Y61877D01*
X95268Y61816D01*
X95274Y61815D01*
Y61685D01*
X95268Y61684D01*
X95177Y61623D01*
X95116Y61532D01*
X95095Y61425D01*
Y61262D01*
X95092Y61250D01*
Y59150D01*
X95053Y59127D01*
X94918Y58992D01*
X94822Y58827D01*
X94773Y58642D01*
Y58452D01*
X94822Y58267D01*
X94918Y58102D01*
X95053Y57967D01*
X95218Y57871D01*
X95403Y57822D01*
X95593D01*
X95778Y57871D01*
X95943Y57967D01*
X96078Y58102D01*
X96174Y58267D01*
X96223Y58452D01*
Y58642D01*
X96174Y58827D01*
X96078Y58992D01*
X95943Y59127D01*
X95908Y59148D01*
Y61250D01*
X95905Y61262D01*
Y61425D01*
X95884Y61532D01*
X95823Y61623D01*
X95732Y61684D01*
X95726Y61685D01*
Y61815D01*
X95732Y61816D01*
X95823Y61877D01*
X95884Y61968D01*
X95905Y62075D01*
Y62100D01*
D02*
G37*
G36*
X68790Y58550D02*
X68610D01*
X68445Y58481D01*
X68319Y58355D01*
X68250Y58190D01*
Y58010D01*
X68319Y57845D01*
X68445Y57719D01*
X68610Y57650D01*
X68790D01*
X68955Y57719D01*
X69081Y57845D01*
X69150Y58010D01*
Y58190D01*
X69081Y58355D01*
X68955Y58481D01*
X68790Y58550D01*
D02*
G37*
G36*
X65190D02*
X65010D01*
X64845Y58481D01*
X64719Y58355D01*
X64650Y58190D01*
Y58010D01*
X64719Y57845D01*
X64845Y57719D01*
X65010Y57650D01*
X65190D01*
X65355Y57719D01*
X65481Y57845D01*
X65550Y58010D01*
Y58190D01*
X65481Y58355D01*
X65355Y58481D01*
X65190Y58550D01*
D02*
G37*
%LPD*%
D11*
X60825Y112125D02*
Y112175D01*
X60500Y112500D02*
Y112500D01*
X60950Y112000D02*
X61000D01*
X60825Y112125D02*
X60950Y112000D01*
X60500Y112500D02*
X60825Y112175D01*
X69175Y111175D02*
X69500Y111500D01*
X69000Y111000D02*
X69050D01*
X69175Y111125D01*
Y111175D01*
X71050Y110000D02*
X71175Y110125D01*
X71000Y110000D02*
X71050D01*
X71175Y110175D02*
X71500Y110500D01*
X71175Y110125D02*
Y110175D01*
X64500Y101500D02*
X64825Y101825D01*
Y101875D02*
X64950Y102000D01*
X64825Y101825D02*
Y101875D01*
X64950Y102000D02*
X65000D01*
X65825Y103825D02*
X65875D01*
X66000Y103950D01*
X65500Y103500D02*
X65825Y103825D01*
X66000Y103950D02*
Y104000D01*
X64500Y103500D02*
X64500D01*
X65000Y103950D02*
Y104000D01*
X64825Y103825D02*
X64875D01*
X65000Y103950D01*
X64500Y103500D02*
X64825Y103825D01*
X69175Y104775D02*
Y104875D01*
Y104775D02*
X69500Y104450D01*
X69050Y105000D02*
X69175Y104875D01*
X69000Y105000D02*
X69050D01*
X69000Y106000D02*
X69050D01*
X69175Y105875D01*
Y105825D02*
X69500Y105500D01*
X69175Y105825D02*
Y105875D01*
Y107125D02*
Y107175D01*
X69000Y107000D02*
X69050D01*
X69175Y107125D01*
Y107175D02*
X69500Y107500D01*
X69050Y108000D02*
X69175Y108125D01*
Y108175D01*
X69500Y108500D01*
X69000Y108000D02*
X69050D01*
X68225Y109175D02*
X68550Y109500D01*
X68125Y109175D02*
X68225D01*
X68000Y109050D02*
X68125Y109175D01*
X68000Y109000D02*
Y109050D01*
X67125Y109175D02*
X67175D01*
X67500Y109500D01*
X67500D01*
X67000Y109000D02*
Y109050D01*
X67125Y109175D01*
X65500Y109500D02*
X65825Y109175D01*
X65875D02*
X66000Y109050D01*
X65825Y109175D02*
X65875D01*
X66000Y109000D02*
Y109050D01*
X64875Y109175D02*
X65000Y109050D01*
X64500Y109500D02*
X64825Y109175D01*
X65000Y109000D02*
Y109050D01*
X64825Y109175D02*
X64875D01*
X63825Y108125D02*
Y108175D01*
Y108125D02*
X63950Y108000D01*
X64000D01*
X63500Y108500D02*
X63825Y108175D01*
Y107125D02*
X63950Y107000D01*
X63825Y107125D02*
Y107175D01*
X63500Y107500D02*
X63825Y107175D01*
X63950Y107000D02*
X64000D01*
X63825Y105875D02*
X63950Y106000D01*
X64000D01*
X63825Y105825D02*
Y105875D01*
X63500Y105500D02*
X63825Y105825D01*
Y104825D02*
Y104875D01*
X63950Y105000D02*
X64000D01*
X63825Y104875D02*
X63950Y105000D01*
X63500Y104500D02*
X63825Y104825D01*
X71050Y103000D02*
X71175Y102875D01*
Y102825D02*
Y102875D01*
X71000Y103000D02*
X71050D01*
X71175Y102825D02*
X71500Y102500D01*
X67175Y103825D02*
X67500Y103500D01*
X67000Y103950D02*
Y104000D01*
Y103950D02*
X67125Y103825D01*
X67175D01*
X85104Y164364D02*
X85335Y164594D01*
X85104Y163373D02*
X85335Y163604D01*
X85116Y164814D02*
X85335Y164594D01*
X85116Y163823D02*
X85335Y163604D01*
X83857Y164814D02*
X85116D01*
X83482Y164364D02*
X85104D01*
X83857Y163823D02*
X85116D01*
X83482Y163373D02*
X85104D01*
D17*
X62000Y112000D02*
X62772D01*
X63127Y110000D02*
X65000D01*
X62743D02*
X63127D01*
X63000Y109872D02*
X63127Y110000D01*
X62000Y110743D02*
X62743Y110000D01*
X62000Y110743D02*
Y112000D01*
X68000Y110000D02*
X70000D01*
X70000Y110000D01*
X68000Y110000D02*
X68000Y110000D01*
X63000Y108000D02*
Y109872D01*
X67000Y103000D02*
X70000D01*
X63495D02*
X65000D01*
X63000Y103495D02*
X63495Y103000D01*
X63000Y103495D02*
Y105000D01*
X70000Y108000D02*
Y110000D01*
Y103000D02*
Y105000D01*
X62000Y112000D02*
Y112775D01*
X65000Y103000D02*
X66000D01*
X70000Y105000D02*
Y106000D01*
Y107000D02*
Y108000D01*
X63000Y105000D02*
Y106000D01*
Y107000D02*
Y108000D01*
X65000Y110000D02*
X66000D01*
X67000D02*
X68000D01*
X83900Y145600D02*
X83908Y145592D01*
X83900Y142600D02*
X83908Y142592D01*
X85330Y145592D02*
X85338Y145584D01*
X85330Y142592D02*
X85338Y142584D01*
D22*
X92808Y124275D02*
D03*
X91792D02*
D03*
X95008D02*
D03*
X93992D02*
D03*
X86008Y124275D02*
D03*
X84992D02*
D03*
X83808D02*
D03*
X82792D02*
D03*
X86008Y130575D02*
D03*
X84992D02*
D03*
X83808D02*
D03*
X82792D02*
D03*
X93992Y130575D02*
D03*
X95008D02*
D03*
X91792D02*
D03*
X92808D02*
D03*
D27*
X89825Y122125D02*
D03*
X71150Y141700D02*
D03*
X72150D02*
D03*
X71150Y142607D02*
D03*
X72150D02*
D03*
X70150Y140000D02*
D03*
X71150D02*
D03*
X73200D02*
D03*
X74200D02*
D03*
X73650Y135200D02*
D03*
X72650D02*
D03*
X90825Y122125D02*
D03*
X88975D02*
D03*
X87975D02*
D03*
X69000Y111000D02*
D03*
X68000D02*
D03*
X71000Y110000D02*
D03*
X70000D02*
D03*
Y108000D02*
D03*
X69000D02*
D03*
X70000Y107000D02*
D03*
X69000D02*
D03*
X70000Y106000D02*
D03*
X69000D02*
D03*
X70000Y105000D02*
D03*
X69000D02*
D03*
X71000Y103000D02*
D03*
X70000D02*
D03*
X65000Y102000D02*
D03*
X66000D02*
D03*
X63000Y105000D02*
D03*
X64000D02*
D03*
X63000Y106000D02*
D03*
X64000D02*
D03*
X63000Y108000D02*
D03*
X64000D02*
D03*
X63000Y107000D02*
D03*
X64000D02*
D03*
X61000Y112000D02*
D03*
X62000D02*
D03*
D28*
X95500Y61250D02*
D03*
X97500D02*
D03*
Y62250D02*
D03*
X95500D02*
D03*
X70000Y136850D02*
D03*
Y135850D02*
D03*
X68000Y110000D02*
D03*
Y109000D02*
D03*
X67000Y110000D02*
D03*
Y109000D02*
D03*
X65000Y110000D02*
D03*
Y109000D02*
D03*
X66000Y110000D02*
D03*
Y109000D02*
D03*
X65000Y103000D02*
D03*
Y104000D02*
D03*
X67000Y103000D02*
D03*
Y104000D02*
D03*
X66000Y103000D02*
D03*
Y104000D02*
D03*
D37*
X75450Y137600D02*
D03*
X76850D02*
D03*
D42*
X84400Y128467D02*
D03*
Y129483D02*
D03*
Y126383D02*
D03*
Y125367D02*
D03*
X93400Y129483D02*
D03*
Y128467D02*
D03*
Y126383D02*
D03*
Y125367D02*
D03*
X80900Y118183D02*
D03*
Y117167D02*
D03*
X96900Y118183D02*
D03*
Y117167D02*
D03*
D52*
X73150Y141700D02*
D03*
Y143224D02*
D03*
D76*
X95498Y58547D02*
X95500Y58549D01*
Y61250D01*
X97498Y61198D02*
X97500Y61200D01*
X97498Y58547D02*
Y61198D01*
X97500Y61200D02*
Y61259D01*
D78*
X73750Y129500D02*
Y129900D01*
X74850Y137350D02*
Y137850D01*
X73200Y141000D02*
Y141650D01*
Y140600D02*
Y141000D01*
Y140050D02*
Y140600D01*
X73150Y141700D02*
X73200Y141650D01*
X73150Y140000D02*
X73200Y140050D01*
X83850Y161600D02*
X85322D01*
X85338Y161584D01*
X83850Y162600D02*
X85322D01*
X85338Y162584D01*
X72150Y142607D02*
X72150Y142607D01*
Y143050D01*
X72324Y143224D02*
X73150D01*
X72150Y143050D02*
X72324Y143224D01*
X72150Y141700D02*
Y142607D01*
X72150Y142607D02*
X72150Y142607D01*
Y140600D02*
Y141000D01*
X71150Y140600D02*
Y141000D01*
Y140000D02*
Y140600D01*
X71150Y141000D02*
X71150Y141000D01*
X69000Y135850D02*
X69400D01*
X70000D01*
X72650Y134600D02*
Y135200D01*
Y134200D02*
Y134600D01*
Y134200D02*
X72650Y134200D01*
X75250Y137850D02*
X75450Y137650D01*
Y137600D02*
Y137650D01*
X75250Y137350D02*
X75450Y137550D01*
Y137600D01*
X74850Y137350D02*
X75250D01*
X74850Y137850D02*
X75250D01*
X72150Y141000D02*
Y141650D01*
X72150Y141650D02*
X72150Y141650D01*
D79*
X53800Y75200D02*
X54400D01*
X60800Y92850D02*
X61450D01*
X62100D01*
X75900Y166800D02*
X76900D01*
X74900D02*
X75900D01*
X67900D02*
X68900D01*
X66900D02*
X67900D01*
X59900D02*
X60900D01*
X58900D02*
X59900D01*
X58900Y154150D02*
X60900D01*
X75900Y154150D02*
X76900D01*
X74900D02*
X75900D01*
X67900D02*
X68900D01*
X66900D02*
X67900D01*
X90150Y126150D02*
Y126750D01*
X84675Y113700D02*
X85275D01*
X81750Y106700D02*
Y107300D01*
Y102000D02*
Y102600D01*
X90506Y101002D02*
X90930Y101427D01*
X87600Y123225D02*
Y123825D01*
X94100Y91100D02*
Y91700D01*
X104525Y86088D02*
Y86688D01*
X91098Y79950D02*
X91522Y79525D01*
X57525Y64500D02*
Y65100D01*
X59225Y75200D02*
X59800D01*
X71300Y75600D02*
X71900D01*
X79350Y89600D02*
X79950D01*
X78750D02*
X79350D01*
X79000Y147300D02*
Y147900D01*
X75000Y147300D02*
Y147900D01*
X71000Y147300D02*
Y147900D01*
X67000Y147300D02*
Y147900D01*
X77200Y168850D02*
Y169450D01*
Y168850D02*
X77800D01*
Y169450D01*
X77200D02*
X77800D01*
X68250Y169800D02*
Y170400D01*
Y169800D02*
X68850D01*
Y170400D01*
X68250D02*
X68850D01*
D147*
X89150Y121950D02*
G03*
X88975Y122125I-175J0D01*
G01*
X89825D02*
G03*
X89650Y121950I0J-175D01*
G01*
X86008Y123775D02*
Y124275D01*
X82800Y123775D02*
Y124275D01*
X82792Y130575D02*
Y131075D01*
X86008Y130575D02*
Y131075D01*
X89150Y121425D02*
Y121950D01*
X89650Y121425D02*
Y121950D01*
X83850Y130575D02*
X84150Y130275D01*
X84400Y129483D02*
Y130275D01*
X84150Y130275D02*
X84400D01*
X84650D02*
X84950Y130575D01*
X84400Y130275D02*
X84650D01*
X82792Y124275D02*
X82800D01*
X84400Y124575D02*
Y125367D01*
X84150Y124575D02*
X84400D01*
X83850Y124275D02*
X84150Y124575D01*
X84400D02*
X84650D01*
X84950Y124275D01*
X80942Y118225D02*
X81400D01*
X93400Y130275D02*
X93650D01*
X93950Y130575D01*
X95000Y123775D02*
Y124275D01*
X93650Y124575D02*
X93950Y124275D01*
X93400Y124575D02*
X93650D01*
X93400Y129483D02*
Y130275D01*
X93150Y130275D02*
X93400D01*
X92850Y130575D02*
X93150Y130275D01*
X91792Y123775D02*
Y124275D01*
X92850Y124275D02*
X93150Y124575D01*
X93400D01*
X93400Y124575D02*
Y125367D01*
D148*
X89270Y123443D02*
G03*
X85393Y127320I-3877J0D01*
G01*
X89530Y123443D02*
G03*
X85393Y127580I-4137J0D01*
G01*
X71770Y128850D02*
G03*
X73300Y127320I1530J0D01*
G01*
X71770Y129030D02*
G03*
X71350Y129450I-420J0D01*
G01*
X89201Y122671D02*
G03*
X89270Y122837I-166J166D01*
G01*
X89201Y122671D02*
G03*
X88975Y122125I546J-546D01*
G01*
X72030Y128850D02*
G03*
X73300Y127580I1270J0D01*
G01*
X72450Y129450D02*
G03*
X72030Y129030I0J-420D01*
G01*
X89825Y122125D02*
G03*
X89599Y122671I-773J0D01*
G01*
X89530Y122837D02*
G03*
X89599Y122671I235J0D01*
G01*
X89530Y122837D02*
Y123443D01*
X73300Y127580D02*
X85393D01*
X73300Y127320D02*
X85393D01*
X89270Y122837D02*
Y123443D01*
X71770Y128850D02*
Y129030D01*
X72030Y128850D02*
Y129030D01*
D149*
X90761Y141584D02*
G03*
X90800Y141600I0J55D01*
G01*
X90761Y140584D02*
G03*
X90800Y140600I0J55D01*
G01*
X80942Y118225D02*
G03*
X80900Y118183I0J-42D01*
G01*
X96900D02*
G03*
X96858Y118225I-42J0D01*
G01*
X95008Y130575D02*
Y131075D01*
X89338Y141584D02*
X90761D01*
X91792Y130575D02*
Y131075D01*
X89338Y140584D02*
X90761D01*
X89338Y136584D02*
X90800D01*
X89338Y135584D02*
X90800D01*
X83939Y160591D02*
X85362D01*
X83939Y159591D02*
X85362D01*
X83876Y135584D02*
X85338D01*
X83876Y136584D02*
X85338D01*
X89338Y163584D02*
X90800D01*
X83876Y158584D02*
X85338D01*
X83876Y157584D02*
X85338D01*
X83876Y156584D02*
X85338D01*
X83876Y155584D02*
X85338D01*
X83876Y151584D02*
X85338D01*
X83876Y150584D02*
X85338D01*
X83876Y149584D02*
X85338D01*
X83876Y148584D02*
X85338D01*
X89338Y138584D02*
X90800D01*
X89338Y148584D02*
X90800D01*
X89338Y149584D02*
X90800D01*
X89338Y150584D02*
X90800D01*
X89338Y151584D02*
X90800D01*
X89338Y152584D02*
X90800D01*
X89338Y153584D02*
X90800D01*
X89338Y154584D02*
X90800D01*
X89338Y155584D02*
X90800D01*
X89338Y156584D02*
X90800D01*
X89338Y157584D02*
X90800D01*
X89338Y158584D02*
X90800D01*
X89338Y159584D02*
X90800D01*
X89338Y160584D02*
X90800D01*
X89338Y161584D02*
X90800D01*
X89338Y162584D02*
X90800D01*
Y135584D02*
Y135600D01*
Y136584D02*
Y136600D01*
X83800Y130575D02*
X83850D01*
X82792Y131075D02*
X82800D01*
X84400Y130275D02*
X84400Y130275D01*
X86000Y131075D02*
X86008D01*
X84950Y130575D02*
X85000D01*
X86000Y123775D02*
X86008D01*
X83800Y124275D02*
X83850D01*
X84400Y124575D02*
X84400Y124575D01*
X84950Y124275D02*
X85000D01*
X93950Y130575D02*
X94000D01*
X93400Y124575D02*
X93400Y124575D01*
X93950Y124275D02*
X94000D01*
X96400Y118225D02*
X96858D01*
X91792Y131075D02*
X91800D01*
X95000D02*
X95008D01*
X91792Y123775D02*
X91800D01*
X93400Y130275D02*
X93400Y130275D01*
X92800Y130575D02*
X92850D01*
X92800Y124275D02*
X92850D01*
D151*
X81750Y53810D02*
D03*
X109690Y74130D02*
D03*
X76670Y175730D02*
D03*
X99530Y149695D02*
D03*
X53810Y154775D02*
D03*
X109690Y103340D02*
D03*
X53810Y88735D02*
D03*
X86068D02*
D03*
D152*
X97498Y58547D02*
D03*
D153*
X95498D02*
D03*
X91498D02*
D03*
X93498D02*
D03*
D154*
X55000Y142000D02*
D03*
Y140000D02*
D03*
Y138000D02*
D03*
Y136000D02*
D03*
Y134000D02*
D03*
Y132000D02*
D03*
Y130000D02*
D03*
X53000Y142000D02*
D03*
Y140000D02*
D03*
Y138000D02*
D03*
Y136000D02*
D03*
Y134000D02*
D03*
Y132000D02*
D03*
Y130000D02*
D03*
D155*
X88900Y118425D02*
D03*
D156*
X72350Y169150D02*
D03*
D157*
X71900Y137600D02*
D03*
D158*
X95630Y85575D02*
D03*
D159*
X53810Y53810D02*
D03*
X109690D02*
D03*
X99530Y175730D02*
D03*
X53810Y185890D02*
D03*
Y123660D02*
D03*
X109690D02*
D03*
D160*
X87338Y132884D02*
D03*
Y167284D02*
D03*
D161*
X79900Y151300D02*
D03*
X75900Y151300D02*
D03*
X71900D02*
D03*
X67900D02*
D03*
D162*
X90648Y105917D02*
D03*
D163*
X94191Y77811D02*
D03*
D164*
X96000Y137000D02*
D03*
Y141000D02*
D03*
X79250Y175000D02*
D03*
X88750Y88750D02*
D03*
X83250D02*
D03*
X86000Y91500D02*
D03*
Y86000D02*
D03*
X54000D02*
D03*
Y91500D02*
D03*
Y95000D02*
D03*
X108000Y101000D02*
D03*
X112000Y105000D02*
D03*
Y73000D02*
D03*
X82000Y51000D02*
D03*
X102000Y151000D02*
D03*
X56000Y153000D02*
D03*
X51000Y155000D02*
D03*
X74000Y175000D02*
D03*
X60800Y92850D02*
D03*
X61450D02*
D03*
X62100D02*
D03*
X54400Y75200D02*
D03*
X53800D02*
D03*
X83800Y145600D02*
D03*
X83150Y147600D02*
D03*
X83800D02*
D03*
X91550Y164584D02*
D03*
X90900D02*
D03*
X91550Y165584D02*
D03*
X90900D02*
D03*
X83150D02*
D03*
X83800D02*
D03*
X74000Y55000D02*
D03*
X66000D02*
D03*
X72250Y67000D02*
D03*
X69750Y69750D02*
D03*
X67000D02*
D03*
X72250D02*
D03*
X63750D02*
D03*
X58356Y188580D02*
D03*
X65100Y58100D02*
D03*
X68700D02*
D03*
Y59700D02*
D03*
X65100D02*
D03*
X68800Y71500D02*
D03*
X65000D02*
D03*
X58000Y139000D02*
D03*
Y143000D02*
D03*
X68000Y125000D02*
D03*
X70000Y127000D02*
D03*
X66000D02*
D03*
X60000Y125000D02*
D03*
Y129000D02*
D03*
Y133000D02*
D03*
Y137000D02*
D03*
X90900Y139600D02*
D03*
X91550D02*
D03*
X82650Y119900D02*
D03*
X105000Y82375D02*
D03*
X81750Y106700D02*
D03*
Y107300D02*
D03*
X53500Y119000D02*
D03*
Y115000D02*
D03*
Y111000D02*
D03*
Y107000D02*
D03*
Y103000D02*
D03*
Y99000D02*
D03*
X62000Y75500D02*
D03*
X61000Y73500D02*
D03*
Y69000D02*
D03*
Y65000D02*
D03*
X56500Y146500D02*
D03*
X51000Y183000D02*
D03*
Y179000D02*
D03*
Y175000D02*
D03*
Y171000D02*
D03*
Y167000D02*
D03*
Y163000D02*
D03*
Y159000D02*
D03*
Y147000D02*
D03*
Y151000D02*
D03*
Y119000D02*
D03*
Y115000D02*
D03*
Y111000D02*
D03*
Y107000D02*
D03*
Y103000D02*
D03*
Y99000D02*
D03*
Y95000D02*
D03*
Y91000D02*
D03*
Y87500D02*
D03*
Y83000D02*
D03*
Y79000D02*
D03*
Y75000D02*
D03*
Y71000D02*
D03*
Y67000D02*
D03*
Y63000D02*
D03*
Y59000D02*
D03*
X94000Y178500D02*
D03*
X90000D02*
D03*
X86000D02*
D03*
X60000Y187000D02*
D03*
X62000Y185000D02*
D03*
X64000Y183000D02*
D03*
X68000Y179000D02*
D03*
X66000Y181000D02*
D03*
X70000Y178500D02*
D03*
X82000D02*
D03*
X74000D02*
D03*
X78000D02*
D03*
X93250Y141250D02*
D03*
X94250Y138750D02*
D03*
X92500D02*
D03*
X94250Y136250D02*
D03*
X92500D02*
D03*
X91550Y145600D02*
D03*
X90900D02*
D03*
X83150D02*
D03*
X91550Y142600D02*
D03*
X90900D02*
D03*
Y134600D02*
D03*
X83800D02*
D03*
X83150Y142600D02*
D03*
X83800D02*
D03*
X91550Y134600D02*
D03*
X83150D02*
D03*
X98800Y117675D02*
D03*
X93991Y117683D02*
D03*
X78991D02*
D03*
X83800Y117675D02*
D03*
X66500Y146000D02*
D03*
X64000D02*
D03*
X95800Y126600D02*
D03*
X93400Y127425D02*
D03*
X91000Y128250D02*
D03*
X92550Y128975D02*
D03*
X91050Y131350D02*
D03*
X92200Y132500D02*
D03*
X93400Y131300D02*
D03*
X94600Y132500D02*
D03*
X95750Y131350D02*
D03*
X94250Y128950D02*
D03*
X95800Y128250D02*
D03*
X91000Y126600D02*
D03*
X92550Y125875D02*
D03*
X91050Y123500D02*
D03*
X92200Y122350D02*
D03*
X93400Y123550D02*
D03*
X94600Y122350D02*
D03*
X95750Y123500D02*
D03*
X94250Y125875D02*
D03*
X85250D02*
D03*
X86750Y123500D02*
D03*
X85600Y122350D02*
D03*
X84400Y123550D02*
D03*
X83200Y122350D02*
D03*
X82050Y123500D02*
D03*
X83550Y125875D02*
D03*
X82000Y126600D02*
D03*
X86800Y128250D02*
D03*
X85250Y128975D02*
D03*
X86750Y131350D02*
D03*
X85600Y132500D02*
D03*
X92450Y117700D02*
D03*
X93300Y115950D02*
D03*
Y119450D02*
D03*
X95150Y119900D02*
D03*
Y115500D02*
D03*
X97636Y119892D02*
D03*
Y115492D02*
D03*
X80164D02*
D03*
Y119892D02*
D03*
X82650Y115500D02*
D03*
X84500Y119450D02*
D03*
Y115950D02*
D03*
X85350Y117700D02*
D03*
X71300Y75600D02*
D03*
X71900D02*
D03*
X94100Y91700D02*
D03*
Y91100D02*
D03*
X66000Y130000D02*
D03*
X84400Y131300D02*
D03*
X79350Y89600D02*
D03*
X78750D02*
D03*
X79950D02*
D03*
X69750Y75450D02*
D03*
X65950D02*
D03*
X62000Y127000D02*
D03*
Y131000D02*
D03*
Y135000D02*
D03*
Y139000D02*
D03*
X60000Y141000D02*
D03*
X59800Y75200D02*
D03*
X102000Y163000D02*
D03*
X81750Y102600D02*
D03*
Y102000D02*
D03*
X52000Y189000D02*
D03*
X78000Y115000D02*
D03*
X58000Y95000D02*
D03*
X108000Y57000D02*
D03*
X52000D02*
D03*
X90000Y119525D02*
D03*
Y118425D02*
D03*
Y117325D02*
D03*
X88900Y119525D02*
D03*
Y118425D02*
D03*
Y117325D02*
D03*
X87800Y119525D02*
D03*
Y118425D02*
D03*
X87800Y117325D02*
D03*
X68850Y170400D02*
D03*
X68250D02*
D03*
Y169800D02*
D03*
X68850D02*
D03*
X72350Y168650D02*
D03*
Y169650D02*
D03*
X77800Y168850D02*
D03*
Y169450D02*
D03*
X77200Y168850D02*
D03*
Y169450D02*
D03*
X76900Y166800D02*
D03*
X75900D02*
D03*
Y154150D02*
D03*
X74900D02*
D03*
X76900D02*
D03*
X74900Y166800D02*
D03*
X53810Y55910D02*
D03*
X52325Y55295D02*
D03*
X51710Y53810D02*
D03*
X52325Y52325D02*
D03*
X53810Y51710D02*
D03*
X55295Y52325D02*
D03*
X55910Y53810D02*
D03*
X55295Y55295D02*
D03*
X109690Y55910D02*
D03*
X108205Y55295D02*
D03*
X107590Y53810D02*
D03*
X108205Y52325D02*
D03*
X109690Y51710D02*
D03*
X111175Y52325D02*
D03*
X111790Y53810D02*
D03*
X111175Y55295D02*
D03*
X109690Y125760D02*
D03*
X108205Y125145D02*
D03*
X107590Y123660D02*
D03*
X108205Y122175D02*
D03*
X109690Y121560D02*
D03*
X111175Y122175D02*
D03*
X111790Y123660D02*
D03*
X111175Y125145D02*
D03*
X99530Y177830D02*
D03*
X98045Y177215D02*
D03*
X97430Y175730D02*
D03*
X98045Y174245D02*
D03*
X99530Y173630D02*
D03*
X101015Y174245D02*
D03*
X101630Y175730D02*
D03*
X101015Y177215D02*
D03*
X53810Y187990D02*
D03*
X52325Y187375D02*
D03*
X51710Y185890D02*
D03*
X52325Y184405D02*
D03*
X53810Y183790D02*
D03*
X55295Y184405D02*
D03*
X55910Y185890D02*
D03*
X55295Y187375D02*
D03*
X53810Y125760D02*
D03*
X52325Y125145D02*
D03*
X51710Y123660D02*
D03*
X52325Y122175D02*
D03*
X53810Y121560D02*
D03*
X55295Y122175D02*
D03*
X55910Y123660D02*
D03*
X55295Y125145D02*
D03*
X76000Y78000D02*
D03*
X52000Y51000D02*
D03*
X102000Y59000D02*
D03*
X98000Y143000D02*
D03*
X56000Y81000D02*
D03*
Y85000D02*
D03*
X54000Y83000D02*
D03*
X52000Y85000D02*
D03*
X66000Y79000D02*
D03*
X62000D02*
D03*
X102000Y51000D02*
D03*
X98000D02*
D03*
X96000Y53000D02*
D03*
X92000D02*
D03*
X94000Y51000D02*
D03*
X88000Y53000D02*
D03*
X90000Y51000D02*
D03*
X86000D02*
D03*
X106000D02*
D03*
X100000Y53000D02*
D03*
X102000Y55000D02*
D03*
X98000D02*
D03*
X94000D02*
D03*
X90000D02*
D03*
X86000D02*
D03*
X84000Y57000D02*
D03*
X82000Y59000D02*
D03*
X86000D02*
D03*
X88000Y57000D02*
D03*
X92000Y61000D02*
D03*
X94000Y63000D02*
D03*
X104000Y57000D02*
D03*
X106000Y55000D02*
D03*
X104000Y53000D02*
D03*
X106000Y59000D02*
D03*
X112000Y57000D02*
D03*
X110000Y59000D02*
D03*
X112000Y61000D02*
D03*
X108000D02*
D03*
X110000Y63000D02*
D03*
X112000Y65000D02*
D03*
X106000Y63000D02*
D03*
X104000Y61000D02*
D03*
X108000Y65000D02*
D03*
X100000Y145000D02*
D03*
Y141000D02*
D03*
X102000Y147000D02*
D03*
Y143000D02*
D03*
Y139000D02*
D03*
X104000Y137000D02*
D03*
X106000Y135000D02*
D03*
X108000Y133000D02*
D03*
X110000Y131000D02*
D03*
Y127000D02*
D03*
X108000Y129000D02*
D03*
X106000Y127000D02*
D03*
X112000Y129000D02*
D03*
Y109000D02*
D03*
Y113000D02*
D03*
X110000Y111000D02*
D03*
X112000Y117000D02*
D03*
X110000Y115000D02*
D03*
X112000Y121000D02*
D03*
X110000Y119000D02*
D03*
X106000Y123000D02*
D03*
X108000Y117000D02*
D03*
Y113000D02*
D03*
Y109000D02*
D03*
X106000Y111000D02*
D03*
X104000Y109000D02*
D03*
X100000D02*
D03*
X98000Y107000D02*
D03*
X96000Y109000D02*
D03*
X102000Y111000D02*
D03*
X104000Y113000D02*
D03*
X102000Y115000D02*
D03*
X106000D02*
D03*
X104000Y117000D02*
D03*
X102000Y119000D02*
D03*
X106000D02*
D03*
X104000Y121000D02*
D03*
X102000Y123000D02*
D03*
X104000Y125000D02*
D03*
X80000Y78000D02*
D03*
X84000D02*
D03*
X102000Y127000D02*
D03*
X100000Y129000D02*
D03*
X104000D02*
D03*
X106000Y131000D02*
D03*
X102000D02*
D03*
X100000Y137000D02*
D03*
X102000Y135000D02*
D03*
X98000Y131000D02*
D03*
X104000Y133000D02*
D03*
X100000D02*
D03*
X98000Y139000D02*
D03*
Y135000D02*
D03*
X52000Y117000D02*
D03*
X80000Y142000D02*
D03*
X81000Y145000D02*
D03*
X80000Y146000D02*
D03*
X78000D02*
D03*
X76000D02*
D03*
X74000D02*
D03*
X72000D02*
D03*
X70000D02*
D03*
X52000Y149000D02*
D03*
X60000Y145000D02*
D03*
X54000Y147000D02*
D03*
X56000Y149000D02*
D03*
X54000Y151000D02*
D03*
X52000Y161000D02*
D03*
X54000Y159000D02*
D03*
X56000Y157000D02*
D03*
Y161000D02*
D03*
X54000Y163000D02*
D03*
X52000Y165000D02*
D03*
X54000Y167000D02*
D03*
X56000Y165000D02*
D03*
X52000Y169000D02*
D03*
Y173000D02*
D03*
X56000Y169000D02*
D03*
X54000Y171000D02*
D03*
Y175000D02*
D03*
X56000Y173000D02*
D03*
X52000Y177000D02*
D03*
X56000D02*
D03*
X54000Y179000D02*
D03*
X52000Y181000D02*
D03*
X56000D02*
D03*
X60000Y177000D02*
D03*
X58000Y179000D02*
D03*
Y183000D02*
D03*
X60000Y181000D02*
D03*
X58000Y187000D02*
D03*
X60000Y185000D02*
D03*
X56000Y189000D02*
D03*
X62000Y179000D02*
D03*
X64000Y177000D02*
D03*
X62000Y183000D02*
D03*
X64000Y181000D02*
D03*
X70000Y175000D02*
D03*
X68000Y177000D02*
D03*
X66000Y179000D02*
D03*
Y175000D02*
D03*
X58000D02*
D03*
X62000D02*
D03*
X72000Y177000D02*
D03*
X80000D02*
D03*
X84000D02*
D03*
X88000D02*
D03*
X96000D02*
D03*
X92000D02*
D03*
X86000Y175000D02*
D03*
X94000D02*
D03*
X96000Y173000D02*
D03*
X90000Y175000D02*
D03*
X102000Y171000D02*
D03*
X82000Y175000D02*
D03*
X100000Y169000D02*
D03*
X98000Y171000D02*
D03*
Y167000D02*
D03*
X100000Y165000D02*
D03*
X102000Y167000D02*
D03*
X94000Y171000D02*
D03*
X96000Y165000D02*
D03*
Y169000D02*
D03*
X94000Y167000D02*
D03*
X100000Y161000D02*
D03*
X98000Y163000D02*
D03*
X102000Y159000D02*
D03*
Y155000D02*
D03*
X94000D02*
D03*
X100000Y153000D02*
D03*
X98000Y155000D02*
D03*
X94000Y163000D02*
D03*
X96000Y161000D02*
D03*
X98000Y159000D02*
D03*
X100000Y157000D02*
D03*
X94000Y159000D02*
D03*
X96000Y157000D02*
D03*
Y153000D02*
D03*
X98000Y147000D02*
D03*
X94000Y151000D02*
D03*
X96000Y149000D02*
D03*
Y145000D02*
D03*
X62000Y143000D02*
D03*
X94000Y147000D02*
D03*
X92000Y145000D02*
D03*
X94000Y143000D02*
D03*
X96000Y133000D02*
D03*
X72000Y78000D02*
D03*
X100000Y125000D02*
D03*
X78000Y123000D02*
D03*
X98000Y127000D02*
D03*
X80000Y125000D02*
D03*
X98000Y123000D02*
D03*
X100000Y121000D02*
D03*
Y117000D02*
D03*
Y113000D02*
D03*
X98000Y111000D02*
D03*
X96000Y113000D02*
D03*
X92000D02*
D03*
X94000Y111000D02*
D03*
X78000Y119000D02*
D03*
X86000Y107000D02*
D03*
X80000Y113000D02*
D03*
X78000Y111000D02*
D03*
X82000D02*
D03*
X86000Y103000D02*
D03*
X88000Y101000D02*
D03*
X86000Y99000D02*
D03*
X102000Y107000D02*
D03*
X106000D02*
D03*
X98000Y75000D02*
D03*
X110000Y67000D02*
D03*
X108000Y69000D02*
D03*
X112000D02*
D03*
X110000Y71000D02*
D03*
X112000Y77000D02*
D03*
Y81000D02*
D03*
Y85000D02*
D03*
Y89000D02*
D03*
X110000Y79000D02*
D03*
Y83000D02*
D03*
Y87000D02*
D03*
Y91000D02*
D03*
X112000Y93000D02*
D03*
X110000Y107000D02*
D03*
X112000Y101000D02*
D03*
X110000Y99000D02*
D03*
X112000Y97000D02*
D03*
X110000Y95000D02*
D03*
X108000Y97000D02*
D03*
Y93000D02*
D03*
Y89000D02*
D03*
Y85000D02*
D03*
Y81000D02*
D03*
X106000Y75000D02*
D03*
X108000Y77000D02*
D03*
X100000D02*
D03*
X102000Y75000D02*
D03*
X104000Y73000D02*
D03*
X106000Y71000D02*
D03*
Y67000D02*
D03*
X104000Y65000D02*
D03*
X100000Y61000D02*
D03*
X102000Y63000D02*
D03*
X98000D02*
D03*
X104000Y69000D02*
D03*
Y77000D02*
D03*
X100000Y81000D02*
D03*
Y85000D02*
D03*
Y89000D02*
D03*
X90000Y59000D02*
D03*
X88000Y61000D02*
D03*
X84000D02*
D03*
X80000D02*
D03*
X90000Y63000D02*
D03*
X92000Y57000D02*
D03*
X100000D02*
D03*
X96000D02*
D03*
Y65000D02*
D03*
X100000D02*
D03*
X98000Y67000D02*
D03*
X92000Y65000D02*
D03*
X94000Y67000D02*
D03*
X102000D02*
D03*
Y71000D02*
D03*
X100000Y69000D02*
D03*
Y73000D02*
D03*
X96000Y69000D02*
D03*
Y73000D02*
D03*
X98000Y71000D02*
D03*
X86000Y95000D02*
D03*
X90000Y91000D02*
D03*
X88000Y93000D02*
D03*
X84000D02*
D03*
X82000Y95000D02*
D03*
X74000D02*
D03*
X90000D02*
D03*
X82000Y87000D02*
D03*
X90000D02*
D03*
X88000Y97000D02*
D03*
X90000Y99000D02*
D03*
X82000Y91000D02*
D03*
X78000Y95000D02*
D03*
X70000D02*
D03*
X66000D02*
D03*
X52000Y113000D02*
D03*
Y109000D02*
D03*
Y105000D02*
D03*
Y101000D02*
D03*
X62000Y95000D02*
D03*
X52000Y97000D02*
D03*
Y81000D02*
D03*
Y93000D02*
D03*
X56000D02*
D03*
X86000Y83000D02*
D03*
X88000Y81000D02*
D03*
Y85000D02*
D03*
X90000Y83000D02*
D03*
X84000Y85000D02*
D03*
X86000Y79000D02*
D03*
X84000Y81000D02*
D03*
X82000Y83000D02*
D03*
Y79000D02*
D03*
X78000D02*
D03*
X74000D02*
D03*
X76000Y61000D02*
D03*
X78000Y59000D02*
D03*
X74000D02*
D03*
X72000Y61000D02*
D03*
X80000Y57000D02*
D03*
X76000Y53000D02*
D03*
X78000Y55000D02*
D03*
X78000Y51000D02*
D03*
X74000D02*
D03*
X72000Y53000D02*
D03*
X70000Y51000D02*
D03*
X76000Y57000D02*
D03*
X72000D02*
D03*
X70000Y55000D02*
D03*
X68000Y53000D02*
D03*
X70000Y79000D02*
D03*
X54000D02*
D03*
X58000D02*
D03*
X52000Y77000D02*
D03*
Y73000D02*
D03*
X62000Y71000D02*
D03*
X52000Y69000D02*
D03*
X62000Y59000D02*
D03*
X60000Y61000D02*
D03*
X52000Y65000D02*
D03*
X62000Y67000D02*
D03*
Y63000D02*
D03*
X56000Y61000D02*
D03*
X52000D02*
D03*
X62000Y55000D02*
D03*
X60000Y57000D02*
D03*
X58000Y59000D02*
D03*
X54000D02*
D03*
X56000Y57000D02*
D03*
X58000Y55000D02*
D03*
X66000Y51000D02*
D03*
X64000Y53000D02*
D03*
X62000Y51000D02*
D03*
X60000Y53000D02*
D03*
X58000Y51000D02*
D03*
X71350Y138700D02*
D03*
X72450D02*
D03*
X71350Y137600D02*
D03*
X72450D02*
D03*
X71350Y136500D02*
D03*
X72450D02*
D03*
X95884Y85321D02*
D03*
Y85829D02*
D03*
X95376D02*
D03*
Y85321D02*
D03*
X104525Y86688D02*
D03*
Y86088D02*
D03*
X103875Y82350D02*
D03*
X102750Y82375D02*
D03*
X101600Y80150D02*
D03*
X91550Y147600D02*
D03*
X90900D02*
D03*
X80400Y151300D02*
D03*
X79400D02*
D03*
X75400Y151300D02*
D03*
X76400D02*
D03*
X71400D02*
D03*
X72400D02*
D03*
X68400D02*
D03*
X67400D02*
D03*
X89870Y105917D02*
D03*
X90648Y105139D02*
D03*
X91425Y105917D02*
D03*
X90648Y106695D02*
D03*
X58900Y154150D02*
D03*
X59900Y154150D02*
D03*
X60900Y154150D02*
D03*
X94191Y77811D02*
D03*
X66900Y154150D02*
D03*
X68900D02*
D03*
X67900D02*
D03*
X66900Y166800D02*
D03*
X68900D02*
D03*
X67900D02*
D03*
X58900D02*
D03*
X60900D02*
D03*
X59900D02*
D03*
X80550Y152800D02*
D03*
X79250D02*
D03*
X76550D02*
D03*
X75250D02*
D03*
X67250D02*
D03*
X68550D02*
D03*
X72550D02*
D03*
X71250D02*
D03*
X67000Y147900D02*
D03*
X75000Y147300D02*
D03*
X71000Y147900D02*
D03*
Y147300D02*
D03*
X79000Y147900D02*
D03*
X67000Y147300D02*
D03*
X75000Y147900D02*
D03*
X79000Y147300D02*
D03*
X59225Y75200D02*
D03*
X57525Y65100D02*
D03*
Y64500D02*
D03*
X91522Y79525D02*
D03*
X91098Y79950D02*
D03*
X90506Y101002D02*
D03*
X90930Y101427D02*
D03*
X84675Y113700D02*
D03*
X85275D02*
D03*
X83200Y132500D02*
D03*
X82050Y131350D02*
D03*
X83550Y128975D02*
D03*
X82000Y128250D02*
D03*
X87600Y123225D02*
D03*
Y123825D02*
D03*
X90150Y126150D02*
D03*
Y126750D02*
D03*
X96400Y117125D02*
D03*
X81400D02*
D03*
D165*
X89700Y108650D02*
D03*
X89350Y109250D02*
D03*
X88150Y109950D02*
D03*
Y111950D02*
D03*
X89150D02*
D03*
X88150Y110950D02*
D03*
X89150D02*
D03*
Y109950D02*
D03*
X92775Y104150D02*
D03*
X93650Y103275D02*
D03*
X103745Y85400D02*
D03*
X102725Y85400D02*
D03*
X103745Y86400D02*
D03*
X102725Y86400D02*
D03*
Y87400D02*
D03*
X103745Y87400D02*
D03*
Y88400D02*
D03*
X102725D02*
D03*
X103745Y89400D02*
D03*
X102725Y89400D02*
D03*
X103745Y90400D02*
D03*
X102725Y90400D02*
D03*
X95882Y104107D02*
D03*
X93643Y104682D02*
D03*
X94350Y103975D02*
D03*
X96589Y104814D02*
D03*
X96200Y103150D02*
D03*
X95175Y103400D02*
D03*
X102725Y91400D02*
D03*
X103750D02*
D03*
X103245Y95875D02*
D03*
X101895Y92500D02*
D03*
X104570D02*
D03*
X102370Y91900D02*
D03*
X104145Y91925D02*
D03*
X104420Y95525D02*
D03*
X102045D02*
D03*
X101870Y93500D02*
D03*
Y94500D02*
D03*
X104595Y94525D02*
D03*
Y93525D02*
D03*
X94150Y102500D02*
D03*
X95605Y99125D02*
D03*
X96955Y102500D02*
D03*
X94430Y99475D02*
D03*
X96805D02*
D03*
X96980Y101500D02*
D03*
Y100500D02*
D03*
X94255Y100475D02*
D03*
Y101475D02*
D03*
X96975Y93525D02*
D03*
Y94525D02*
D03*
X94250Y94500D02*
D03*
Y93500D02*
D03*
X94425Y95525D02*
D03*
X96800D02*
D03*
X96525Y91925D02*
D03*
X94750Y91900D02*
D03*
X96950Y92500D02*
D03*
X94275D02*
D03*
X95625Y95875D02*
D03*
X96150Y87525D02*
D03*
X95100D02*
D03*
X96125Y91400D02*
D03*
X95125D02*
D03*
X96125Y88075D02*
D03*
Y88900D02*
D03*
X94725Y87825D02*
D03*
Y89175D02*
D03*
X96300Y90750D02*
D03*
X94971Y89856D02*
D03*
X96279Y89856D02*
D03*
X94971Y90740D02*
D03*
X96125Y83600D02*
D03*
Y82900D02*
D03*
X95125Y83475D02*
D03*
X94725Y83175D02*
D03*
Y81825D02*
D03*
X96125Y82075D02*
D03*
Y79800D02*
D03*
X95975Y79000D02*
D03*
X91150Y75700D02*
D03*
X92100Y74750D02*
D03*
X91775Y76325D02*
D03*
X92725Y75375D02*
D03*
X94971Y81312D02*
D03*
X96279Y80428D02*
D03*
X94971Y80428D02*
D03*
X96279Y81312D02*
D03*
X95125Y79775D02*
D03*
X93100Y75950D02*
D03*
X92350Y76700D02*
D03*
X91600Y74250D02*
D03*
X90650Y75200D02*
D03*
X89250Y72900D02*
D03*
X90050Y72600D02*
D03*
X89000Y73650D02*
D03*
X90700Y73000D02*
D03*
X89400Y74300D02*
D03*
X91250Y73550D02*
D03*
X89950Y74850D02*
D03*
X84850Y67150D02*
D03*
X83550Y68450D02*
D03*
X85400Y67700D02*
D03*
X84100Y69000D02*
D03*
X85800Y68350D02*
D03*
X84750Y69400D02*
D03*
X85550Y69100D02*
D03*
X84150Y66800D02*
D03*
X83200Y67750D02*
D03*
X82050Y67450D02*
D03*
X83850Y65650D02*
D03*
X81600Y66700D02*
D03*
X83100Y65200D02*
D03*
X82500Y65500D02*
D03*
X81900Y66100D02*
D03*
X81550Y63350D02*
D03*
X80800Y62900D02*
D03*
X80250Y63250D02*
D03*
X81700Y64700D02*
D03*
X82000Y64100D02*
D03*
X80500Y65600D02*
D03*
X81100Y65300D02*
D03*
X79650Y63850D02*
D03*
X79550Y65100D02*
D03*
X78400Y63750D02*
D03*
X76450D02*
D03*
X77500D02*
D03*
X79350Y65650D02*
D03*
X78400Y65850D02*
D03*
X77450D02*
D03*
X76450D02*
D03*
X75650Y65650D02*
D03*
X75600Y63900D02*
D03*
X75400Y64900D02*
D03*
X73600D02*
D03*
X74600D02*
D03*
X73600Y63900D02*
D03*
X74600D02*
D03*
X72600Y64900D02*
D03*
Y63900D02*
D03*
X71600Y64900D02*
D03*
X65690Y64400D02*
D03*
X66190Y63400D02*
D03*
Y65400D02*
D03*
X67040Y65600D02*
D03*
Y63200D02*
D03*
X67790Y63550D02*
D03*
Y65250D02*
D03*
X68600Y64900D02*
D03*
Y63900D02*
D03*
X69600D02*
D03*
Y64900D02*
D03*
X71600Y63900D02*
D03*
X70600D02*
D03*
Y64900D02*
D03*
X87645Y121438D02*
D03*
X88145Y121410D02*
D03*
X68225Y141050D02*
D03*
X68950Y141775D02*
D03*
X73200Y141000D02*
D03*
Y140600D02*
D03*
X72650D02*
D03*
X73675Y84375D02*
D03*
X63500Y111500D02*
D03*
X71875Y116242D02*
D03*
Y118258D02*
D03*
X83876Y136584D02*
D03*
X82150Y103475D02*
D03*
X65500Y98500D02*
D03*
X64500D02*
D03*
X58500Y109500D02*
D03*
X68425Y89150D02*
D03*
X66175Y83825D02*
D03*
X55200Y103500D02*
D03*
Y104000D02*
D03*
Y104500D02*
D03*
Y105000D02*
D03*
X57100Y104000D02*
D03*
X82150Y98125D02*
D03*
Y98775D02*
D03*
X77800Y107750D02*
D03*
Y107250D02*
D03*
Y106750D02*
D03*
X60050Y116300D02*
D03*
X74300Y118200D02*
D03*
X73800D02*
D03*
X73300D02*
D03*
X70450D02*
D03*
X69950D02*
D03*
X69450D02*
D03*
X68600D02*
D03*
X68100D02*
D03*
X67600D02*
D03*
X67100D02*
D03*
X66250D02*
D03*
X65750D02*
D03*
X65250D02*
D03*
X64750D02*
D03*
X63900D02*
D03*
X63400D02*
D03*
X62900D02*
D03*
X62400D02*
D03*
X61550D02*
D03*
X61050D02*
D03*
X60550D02*
D03*
X60050D02*
D03*
X59200D02*
D03*
X58700D02*
D03*
X58200D02*
D03*
X57700D02*
D03*
X90800Y163584D02*
D03*
X69350Y136850D02*
D03*
Y138850D02*
D03*
X91800Y131075D02*
D03*
X86900Y113150D02*
D03*
X104550Y79700D02*
D03*
X70050Y133000D02*
D03*
X62500Y112500D02*
D03*
X89725Y111892D02*
D03*
X73500Y109500D02*
D03*
X93108Y79601D02*
D03*
X92754Y79248D02*
D03*
X72500Y98500D02*
D03*
X73500D02*
D03*
X73500Y104500D02*
D03*
X69500Y109500D02*
D03*
X65500D02*
D03*
X64500D02*
D03*
X63500D02*
D03*
X69500Y103500D02*
D03*
X63500D02*
D03*
X67500Y104500D02*
D03*
X65500D02*
D03*
X67500Y105500D02*
D03*
X68500D02*
D03*
Y104500D02*
D03*
X68450Y107500D02*
D03*
X65500Y105500D02*
D03*
X64500D02*
D03*
Y104500D02*
D03*
Y107500D02*
D03*
X67500Y108500D02*
D03*
X68500D02*
D03*
X65500D02*
D03*
X64500D02*
D03*
X67450Y107500D02*
D03*
X65500D02*
D03*
X71500Y102500D02*
D03*
X64500Y101500D02*
D03*
X60500Y112500D02*
D03*
X71500Y110500D02*
D03*
X69500Y111500D02*
D03*
Y105500D02*
D03*
Y104450D02*
D03*
Y107500D02*
D03*
Y108500D02*
D03*
X67500Y103500D02*
D03*
X65500D02*
D03*
X64500D02*
D03*
X63500Y104500D02*
D03*
Y105500D02*
D03*
Y107500D02*
D03*
Y108500D02*
D03*
X68550Y109500D02*
D03*
X67500D02*
D03*
X83850Y161600D02*
D03*
Y162600D02*
D03*
X73750Y129500D02*
D03*
Y129900D02*
D03*
X73750Y133000D02*
D03*
X56200Y63450D02*
D03*
X83876Y158584D02*
D03*
Y157584D02*
D03*
Y156584D02*
D03*
Y155584D02*
D03*
Y151584D02*
D03*
Y150584D02*
D03*
Y149584D02*
D03*
Y148584D02*
D03*
Y135584D02*
D03*
X90800Y138584D02*
D03*
Y148584D02*
D03*
Y149584D02*
D03*
Y150584D02*
D03*
Y151584D02*
D03*
Y152584D02*
D03*
Y153584D02*
D03*
Y154584D02*
D03*
Y155584D02*
D03*
Y156584D02*
D03*
Y157584D02*
D03*
Y158584D02*
D03*
Y159584D02*
D03*
Y160584D02*
D03*
Y161584D02*
D03*
Y162584D02*
D03*
X83900Y159575D02*
D03*
Y160575D02*
D03*
X88550Y107650D02*
D03*
X88300Y107200D02*
D03*
X87850Y106950D02*
D03*
X90800Y140600D02*
D03*
Y141600D02*
D03*
Y136600D02*
D03*
Y135600D02*
D03*
X86000Y131075D02*
D03*
X82800D02*
D03*
X86000Y123775D02*
D03*
X82800D02*
D03*
X72450Y129450D02*
D03*
X71350D02*
D03*
X88650Y121425D02*
D03*
X95000Y123775D02*
D03*
X95000Y131075D02*
D03*
X96400Y118225D02*
D03*
X90725Y115200D02*
D03*
X89150Y115450D02*
D03*
X90150D02*
D03*
X87150D02*
D03*
X88150D02*
D03*
X89150Y121425D02*
D03*
X89650D02*
D03*
X90650D02*
D03*
X81400Y118225D02*
D03*
X91800Y123775D02*
D03*
X72650Y134600D02*
D03*
X72650Y134200D02*
D03*
X69350Y138350D02*
D03*
Y137850D02*
D03*
Y137350D02*
D03*
X74850D02*
D03*
Y137850D02*
D03*
X69000Y135850D02*
D03*
X72150Y141000D02*
D03*
Y140600D02*
D03*
X71150Y141000D02*
D03*
X69400Y135850D02*
D03*
X71150Y140600D02*
D03*
X71150Y134600D02*
D03*
X74400Y138850D02*
D03*
Y136850D02*
D03*
X83482Y164364D02*
D03*
X83857Y164814D02*
D03*
X83482Y163373D02*
D03*
X83857Y163823D02*
D03*
D166*
X98536Y96687D02*
D03*
X96758D02*
D03*
X94980D02*
D03*
Y98313D02*
D03*
X96758D02*
D03*
X98536D02*
D03*
X100314D02*
D03*
Y96687D02*
D03*
X102092D02*
D03*
Y98313D02*
D03*
X103870D02*
D03*
Y96687D02*
D03*
X98536Y103012D02*
D03*
X100314D02*
D03*
X98536Y104587D02*
D03*
X100314D02*
D03*
X103235Y103012D02*
D03*
Y104587D02*
D03*
X98536Y91988D02*
D03*
Y90413D02*
D03*
X100314Y91988D02*
D03*
Y90413D02*
D03*
D180*
X85338Y148584D02*
D03*
Y164584D02*
D03*
Y165584D02*
D03*
Y163584D02*
D03*
Y151584D02*
D03*
Y160584D02*
D03*
Y154584D02*
D03*
Y144584D02*
D03*
Y161584D02*
D03*
Y147584D02*
D03*
Y152584D02*
D03*
Y146584D02*
D03*
Y155584D02*
D03*
Y159584D02*
D03*
Y157584D02*
D03*
Y156584D02*
D03*
Y158584D02*
D03*
Y145584D02*
D03*
Y153584D02*
D03*
Y162584D02*
D03*
Y143584D02*
D03*
Y150584D02*
D03*
Y149584D02*
D03*
Y142584D02*
D03*
X89338Y153584D02*
D03*
Y162584D02*
D03*
Y154584D02*
D03*
X85338Y139584D02*
D03*
Y134584D02*
D03*
Y141584D02*
D03*
Y138584D02*
D03*
Y135584D02*
D03*
Y137584D02*
D03*
X89338Y138584D02*
D03*
Y137584D02*
D03*
Y134584D02*
D03*
Y140584D02*
D03*
Y135584D02*
D03*
X85338Y136584D02*
D03*
Y140584D02*
D03*
X89338Y165584D02*
D03*
Y164584D02*
D03*
Y163584D02*
D03*
Y161584D02*
D03*
Y160584D02*
D03*
Y159584D02*
D03*
Y158584D02*
D03*
Y157584D02*
D03*
Y156584D02*
D03*
Y155584D02*
D03*
Y152584D02*
D03*
Y151584D02*
D03*
Y150584D02*
D03*
Y149584D02*
D03*
Y148584D02*
D03*
Y147584D02*
D03*
Y146584D02*
D03*
Y145584D02*
D03*
Y144584D02*
D03*
Y143584D02*
D03*
Y142584D02*
D03*
Y141584D02*
D03*
Y139584D02*
D03*
Y136584D02*
D03*
M02*
