M48
;Layer_Color=9474304
;FILE_FORMAT=4:3
METRIC,LZ
;TYPE=PLATED
T1F00S00C0.200
T2F00S00C0.300
T3F00S00C0.400
T4F00S00C0.800
T5F00S00C1.000
T6F00S00C3.200
;TYPE=NON_PLATED
T7F00S00C1.500
%
T01
X008025Y006325
X00808Y00629
X008155Y006335
X0082Y00641
X00817Y00647
X00811Y00653
X00805Y00656
X007955Y00651
X007965Y006385
X00819Y00661
X00816Y00667
X008205Y006745
X00832Y006775
X008355Y006845
X00841Y0069
X008475Y00694
X008555Y00691
X00858Y006835
X00854Y00677
X008485Y006715
X008415Y00668
X008385Y006565
X00831Y00652
X00825Y00655
X008925Y00729
X0089Y007365
X00894Y00743
X008995Y007485
X009065Y00752
X009115Y00757
X0091775Y0076325
X009235Y00767
X00931Y007595
X0092725Y0075375
X00921Y007475
X00916Y007425
X009125Y007355
X00907Y0073
X009005Y00726
X0092754Y0079248
X0095975Y0079
X007935Y006565
X00784Y006585
X007745
X007645
X007565Y006565
X00754Y00649
X00746
X00736
Y00639
X00746
X00756
X007645Y006375
X00775
X00784
X00726Y00639
Y00649
X00716
X00706
X00696
X00686
Y00639
X00696
X00706
X00716
X006779Y006355
X006704Y00632
X006619Y00634
X006569Y00644
X006619Y00654
X006704Y00656
X006779Y006525
X00562Y006345
X0066175Y0083825
X0068425Y008915
X0073675Y0084375
X00735Y00985
X00725
X00715Y01025
X00695Y01035
Y010445
X00685Y01045
X00675
Y01035
Y01055
X00685
X00695
Y01075
Y01085
Y01095
X006855
X00675
Y01085
X00685
X006845Y01075
X006745
X00655
Y01085
Y01095
X00645
X00635
Y01085
Y01075
X00645
Y01085
Y01055
X00655
Y01045
Y01035
X00645
Y01045
X00635
Y01035
Y01055
X00645Y01015
X00645Y00985
X00655
X00571Y0104
X00552
Y01045
Y0105
Y01035
X00585Y01095
X00605Y01125
X00625
X00635Y01115
X00695
X00715Y01105
X00735Y01095
Y01045
X00778Y010675
Y010725
Y010775
X00743Y01182
X00738
X00733
X0071875Y0118258
X007045Y01182
X006995
X006945
X00686
X00681
X00676
X00671
X006625
X006575
X006525
X006475
X00639
X00634
X00629
X00624
X006155
X006105
X006055
X006005
X00592
X00587
X00582
X00577
X006005Y01163
X0071875Y0116242
X00814Y0118225
X008715Y011545
X008815
X008915
X009015
X0090725Y01152
X0089725Y0111892
X008915Y011195
X008815
Y011095
Y010995
X008915Y010995
X008935Y010925
X00897Y010865
X008855Y010765
X00883Y01072
X008785Y010695
X008915Y011095
X00869Y011315
X008215Y0103475
Y0098775
Y0098125
X009443Y0099475
X0094255Y0100475
Y0101475
X009415Y01025
X009365Y0103275
X009435Y0103975
X0095175Y01034
X00962Y010315
X0095882Y0104107
X0096589Y0104814
X0096955Y01025
X009698Y01015
Y01005
X0096805Y0099475
X0095605Y0099125
X0095625Y0095875
X00968Y0095525
X0096975Y0094525
Y0093525
X009695Y00925
X0096525Y0091925
X0096125Y00914
X00963Y009075
X0096279Y0089856
X0096125Y00889
Y0088075
X009615Y0087525
X00951
X0094725Y0087825
Y0089175
X0094971Y0089856
Y009074
X0095125Y00914
X009475Y00919
X0094275Y00925
X009425Y00935
Y00945
X0094425Y0095525
X0102045
X010187Y00945
Y00935
X0101895Y00925
X010237Y00919
X0102725Y00914
Y00904
Y00894
Y00884
Y00874
Y00864
Y00854
X0103745Y00854
Y00864
Y00874
Y00884
Y00894
Y00904
X010375Y00914
X0104145Y0091925
X010457Y00925
X0104595Y0093525
Y0094525
X010442Y0095525
X0103245Y0095875
X010455Y00797
X0096125Y00798
X0096279Y0080428
Y0081312
X0096125Y0082075
Y00829
Y00836
X0095125Y0083475
X0094725Y0083175
Y0081825
X0094971Y0081312
Y0080428
X0095125Y0079775
X0093108Y0079601
X0092775Y010415
X0093643Y0104682
X00964Y0118225
X0095Y0123775
X00918
X009065Y0121425
X008965
X008915
X008865
X0088145Y012141
X0087645Y0121438
X0086Y0123775
X00828
Y0131075
X0086
X00918
X0095
X00908Y01356
Y01366
Y0138584
Y01406
Y01416
Y0148584
Y0149584
Y0150584
Y0151584
Y0152584
Y0153584
Y0154584
Y0155584
Y0156584
Y0157584
Y0158584
X0083876
Y0157584
Y0156584
Y0155584
Y0151584
Y0150584
Y0149584
Y0148584
Y0136584
Y0135584
X00744Y013685
X007485Y013735
Y013785
X00744Y013885
X00732Y01406
Y0141
X007265Y01406
X007215Y01406
Y0141
X007115
X007115Y01406
X0068225Y014105
X006895Y0141775
X006935Y013885
Y013835
Y013785
Y013735
Y013685
X00694Y013585
X0069
X007115Y01346
X007265Y01346
X007265Y01342
X007375Y0133
X007375Y01299
Y01295
X007245Y012945
X007135
X007005Y0133
X00839Y0159575
Y0160575
X008385Y01616
Y01626
X0083482Y0163373
X0083857Y0163823
X0083482Y0164364
X0083857Y0164814
X00908Y0163584
Y0162584
Y0161584
Y0160584
Y0159584
T02
X0082Y0051
X0086
X0088Y0053
X0086Y0055
X009
X0092Y0053
X009Y0051
X0094
X0098
X0096Y0053
X0098Y0055
X01Y0053
X0102Y0055
Y0059
X01Y0057
X0104
X0106Y0059
X0108Y0057
X0108205Y0055295
X010969Y005591
X0111175Y0055295
X011179Y005381
X0111175Y0052325
X010969Y005171
X0108205Y0052325
X010759Y005381
X0106Y0055
X0104Y0053
X0102Y0051
X0106
X0112Y0057
X011Y0059
X0112Y0061
X0108
X0104
X0106Y0063
X0104Y0065
X0108
X011Y0063
X0112Y0065
X011Y0067
X0112Y0069
X0108
X0106Y0067
X0104Y0069
Y0073
X0106Y0071
Y0075
X0102
X0098
X0096Y0073
X0098Y0071
Y0067
X0096Y0069
Y0065
X0098Y0063
X0094
X009
X0092Y0065
Y0061
X009Y0059
X0092Y0057
X0088
X0086Y0059
X0084Y0057
X0082Y0059
X0084Y0061
X0088
X008
Y0057
X0094Y0055
X0096Y0057
X01Y0061
X0102Y0063
X01Y0065
X0102Y0067
X01Y0069
X0102Y0071
X01Y0073
Y0077
X0104
X0108
X0112
X011Y0079
X0112Y0073
X011Y0071
X0094Y0067
X0094191Y0077811
X0086Y0079
X0084Y0078
X0082Y0079
X008Y0078
X0078Y0079
X0076Y0078
X0074Y0079
X0072Y0078
X00719Y00756
X00713
X006975Y007545
X006595
X0066Y0079
X0062
Y00755
X00598Y00752
X0059225
X0061Y00735
X0062Y0071
X006375Y006975
X0065Y00715
X0067Y006975
X006975
X007225
Y0067
X0072Y0061
X0076
X0078Y0059
X0076Y0057
X0074Y0059
X0072Y0057
X0074Y0055
X0072Y0053
X0076
X0078Y0055
X0078Y0051
X0074
X007
Y0055
X0068Y0053
X0066Y0055
X0062
X0064Y0053
X0062Y0051
X0066
X0058
Y0055
X0055295Y0055295
X005381Y005591
X0052325Y0055295
X0052Y0057
X0051Y0059
X0052Y0061
X0051Y0063
X0052Y0065
X0051Y0067
X0052Y0069
X0051Y0071
X0052Y0073
X0051Y0075
X00538Y00752
X00544
X0054Y0079
X0051
X0052Y0077
X0058Y0079
X007
X00688Y00715
X0061Y0069
X0062Y0067
X0061Y0065
X0062Y0063
Y0059
X00651Y00597
Y00581
X00687
Y00597
X006Y0061
X0056
X0054Y0059
X0056Y0057
X005591Y005381
X0055295Y0052325
X005381Y005171
X0052325Y0052325
X0052Y0051
X005171Y005381
X006Y0053
Y0057
X0058Y0059
X0057525Y00645
Y00651
X0056Y0081
X0054Y0083
X0051
X0052Y0081
Y0085
X0054Y0086
X0056Y0085
X0051Y00875
Y0091
X0052Y0093
X0051Y0095
X0052Y0097
X0051Y0099
X00535
X0052Y0101
X0051Y0103
X00535
X0052Y0105
X0051Y0107
X00535
X0052Y0109
X0051Y0111
X00535
X0052Y0113
X0051Y0115
X00535
X0052Y0117
X0051Y0119
X00535
X0078
X0078991Y0117683
X0078Y0115
Y0111
Y0095
X0074
X007
X0066
X0062
X00621Y009285
X006145
X00608
X0058Y0095
X0054
Y00915
X0056Y0093
X007875Y00896
X007935
X007995
X0082Y0091
X008325Y008875
X0082Y0087
X0084Y0085
X0086Y0086
X0088Y0085
X0086Y0083
X0088Y0081
X009Y0083
Y0087
X008875Y008875
X009Y0091
X0088Y0093
X0086Y00915
Y0095
X0088Y0097
X0086Y0099
Y0103
X0088Y0101
X0090506Y0101002
X009093Y0101427
X009Y0099
Y0095
X00941Y00917
Y00911
X0095376Y0085829
X0095884
Y0085321
X0095376
X01Y0085
Y0081
X01016Y008015
X010275Y0082375
X0103875Y008235
X0105Y0082375
X0104525Y0086088
Y0086688
X0108Y0085
X0112
Y0081
X011Y0083
X0108Y0081
Y0089
X0112
X011Y0087
Y0091
X0112Y0093
Y0097
X011Y0095
Y0099
X0112Y0101
X0108
Y0097
Y0093
X01Y0089
X0091522Y0079525
X0091098Y007995
X0084Y0081
X0082Y0083
X0084Y0093
X0082Y0095
X008175Y0102
Y01026
Y01067
Y01073
X0082Y0111
X008Y0113
X0080164Y0115492
X008265Y01155
X00845Y011595
X0084675Y01137
X0085275
X008535Y01177
X00838Y0117675
X00814Y0117125
X00878Y0117325
X00889Y0117325
Y0118425
X00878
X009
Y0117325
X009245Y01177
X0093991Y0117683
X00933Y011595
X009515Y01155
X0097636Y0115492
X00964Y0117125
X00988Y0117675
X01Y0117
X0102Y0115
X0106
X0104Y0117
X0108
X0112
X011Y0115
X0112Y0113
Y0109
Y0105
X011Y0107
Y0111
X0108Y0109
Y0113
X0104
X0106Y0111
X0104Y0109
X01
X0102Y0111
X01Y0113
X0096
Y0109
X0098Y0111
Y0107
X0102
X0106
Y0119
X0102
X011
X0092Y0113
X0094Y0111
X0090648Y0106695
X0091425Y0105917
X008987
X0090648Y0105139
X0086Y0107
X00845Y011945
X008265Y01199
X0080164Y0119892
X008Y0125
X008205Y01235
X00832Y012235
X00856
X008675Y01235
X00876Y0123225
Y0123825
X00844Y012355
X008355Y0125875
X008525
Y0128975
X008355
X0082Y012825
Y01266
X008205Y013135
X00832Y01325
X008315Y01346
X00838
X00856Y01325
X008675Y013135
X00844Y01313
X00868Y012825
X0091Y012825
Y01266
X009015Y012675
Y012615
X009255Y0125875
X009425
X00958Y01266
X00958Y012825
X009425Y012895
X009255Y0128975
X00934Y0127425
X00934Y012355
X009105Y01235
X00922Y012235
X00946
X009575Y01235
X0098Y0123
X0097636Y0119892
X009515Y01199
X00933Y011945
X009Y0119525
X00889
X00878
X01Y0121
X0104
X0106Y0123
X010759Y012366
X0108205Y0125145
X010969Y012576
X011Y0127
X0111175Y0125145
X011179Y012366
X0111175Y0122175
X0112Y0121
X010969Y012156
X0108205Y0122175
X0104Y0125
X0106Y0127
X0102
Y0123
X01Y0125
Y0129
X0102Y0131
X0104Y0129
X0106Y0131
Y0135
X0104Y0133
Y0137
X0102Y0139
X01Y0137
X0096
X009425Y013625
X00925
Y013875
X009425
X009325Y014125
X0094Y0143
X009155Y01426
X00909
Y01396
X009155
Y01346
X00909
X009105Y013135
X00922Y01325
X00946
X0096Y0133
X009575Y013135
X00934Y01313
X0098Y0131
Y0135
X0102
X01Y0133
Y0141
X0096
X0098Y0143
X0096Y0145
X01
X0102Y0143
Y0147
Y0151
X01Y0153
X0102Y0155
X0098
X0094
Y0151
X0096Y0153
Y0149
X0098Y0147
X0094
X009155Y01476
X00909
Y01456
X009155
X0092Y0145
X00838Y01456
X008315
Y01476
X00838
Y01426
X008315
X008Y0142
X0081Y0145
X008Y0146
X00804Y01513
X00794
X008055Y01528
X0096Y0157
X01
X0098Y0139
Y0127
X0108Y0129
Y0133
X011Y0131
X0112Y0129
X0078Y0123
X0068Y0125
X007Y0127
X0066
Y013
X0062Y0131
X006Y0129
Y0133
Y0137
X0058Y0139
X0062
Y0135
Y0127
X006Y0125
X0055295Y0125145
X005381Y012576
X0052325Y0125145
X005171Y012366
X0052325Y0122175
X005381Y012156
X0055295Y0122175
X005591Y012366
X006Y0141
X0058Y0143
X006Y0145
X0062Y0143
X0064Y0146
X00665
X0067Y01473
Y01479
X00674Y01513
X00684
X006855Y01528
X006725
X00669Y015415
X00679
X00689
X007125Y01528
X007255
X00724Y01513
X00714
X0071Y01479
Y01473
X0072Y0146
X0074
X0076
X0078
X0079Y01473
Y01479
X0075
Y01473
X00754Y01513
X00764
X007655Y01528
X007525
X00749Y015415
X00759
X00769
X007925Y01528
X007Y0146
X007135Y01387
X007245
Y01376
X007135
Y01365
X007245
X00565Y01465
X0054Y0147
X0051
X0052Y0149
X0051Y0151
X0054
X0056Y0153
Y0157
X00589Y015415
X00599Y015415
X00609Y015415
X0056Y0149
X0051Y0155
Y0159
X0052Y0161
X0051Y0163
X0054
X0056Y0161
X0054Y0159
Y0167
X0051
X0052Y0165
X0056
Y0169
X0052
X0051Y0171
X0052Y0173
X0051Y0175
X0052Y0177
X0051Y0179
X0054
Y0175
X0056Y0177
Y0173
X0054Y0171
X0058Y0175
X006Y0177
X0058Y0179
Y0183
X006Y0181
X0056
X0052
X0051Y0183
X0052325Y0184405
X005171Y018589
X0052325Y0187375
X0052Y0189
X005381Y018799
X0055295Y0187375
X005591Y018589
X0055295Y0184405
X005381Y018379
X0058Y0187
X0058356Y018858
X0056Y0189
X006Y0187
Y0185
X0062
Y0183
X0064
Y0181
X0066
Y0179
X0068
Y0177
X007Y01785
Y0175
X0074
Y01785
X0072Y0177
X0078Y01785
X007925Y0175
X00778Y016945
Y016885
X00772
Y016945
X00769Y01668
X00759
X00749
X007235Y016865
Y016965
X006885Y01698
Y01704
X006825
Y01698
X00679Y01668
X00669
X00689
X00609
X00599
X00589
X0062Y0175
X0064Y0177
X0062Y0179
X0066Y0175
X008Y0177
X0082Y01785
X0084Y0177
X0086Y01785
X0088Y0177
X009Y01785
X0092Y0177
X0094Y01785
Y0175
X0096Y0177
X0098045Y0177215
X009953Y017783
X0101015Y0177215
X010163Y017573
X0101015Y0174245
X009953Y017363
X0098045Y0174245
X009743Y017573
X0096Y0173
X0098Y0171
X0102
X01Y0169
Y0165
X0102Y0167
Y0163
X01Y0161
X0098Y0163
X0096Y0161
Y0165
X0098Y0167
X0096Y0169
X0094Y0171
Y0167
X009155Y0165584
X00909
Y0164584
X009155
X0094Y0163
Y0159
X0098
X0102
X00838Y0165584
X008315
X0082Y0175
X0086
X009
T03
X0098536Y0090413
Y0091988
X0100314
Y0090413
Y0096687
Y0098313
X0098536
Y0096687
X0096758
Y0098313
X009498
Y0096687
X0102092
Y0098313
X010387
Y0096687
X0103235Y0103012
Y0104587
X0100314
Y0103012
X0098536
Y0104587
T04
X0091498Y0058547
X0093498
X0095498
X0097498
T05
X0053Y013
X0055
Y0132
Y0134
Y0136
Y0138
Y014
Y0142
X0053
Y014
Y0138
Y0136
Y0134
Y0132
T06
X008175Y005381
X010969Y005381
X010969Y007413
X005381Y005381
Y0088735
X0086068
X010969Y010334
Y012366
X009953Y0149695
X005381Y0154775
Y012366
Y018589
X007667Y017573
X009953Y017573
T07
X0087338Y0132884
Y0167284
M30
