G04*
G04 #@! TF.GenerationSoftware,Altium Limited,Altium Designer,21.7.2 (23)*
G04*
G04 Layer_Color=128*
%FSLAX43Y43*%
%MOMM*%
G71*
G04*
G04 #@! TF.SameCoordinates,4C2FF4CC-5A0A-4329-9E61-CD26E28B66C0*
G04*
G04*
G04 #@! TF.FilePolarity,Positive*
G04*
G01*
G75*
G04:AMPARAMS|DCode=28|XSize=0.61mm|YSize=0.6mm|CornerRadius=0.15mm|HoleSize=0mm|Usage=FLASHONLY|Rotation=270.000|XOffset=0mm|YOffset=0mm|HoleType=Round|Shape=RoundedRectangle|*
%AMROUNDEDRECTD28*
21,1,0.610,0.300,0,0,270.0*
21,1,0.310,0.600,0,0,270.0*
1,1,0.300,-0.150,-0.155*
1,1,0.300,-0.150,0.155*
1,1,0.300,0.150,0.155*
1,1,0.300,0.150,-0.155*
%
%ADD28ROUNDEDRECTD28*%
G04:AMPARAMS|DCode=33|XSize=0.5mm|YSize=0.6mm|CornerRadius=0.125mm|HoleSize=0mm|Usage=FLASHONLY|Rotation=270.000|XOffset=0mm|YOffset=0mm|HoleType=Round|Shape=RoundedRectangle|*
%AMROUNDEDRECTD33*
21,1,0.500,0.350,0,0,270.0*
21,1,0.250,0.600,0,0,270.0*
1,1,0.250,-0.175,-0.125*
1,1,0.250,-0.175,0.125*
1,1,0.250,0.175,0.125*
1,1,0.250,0.175,-0.125*
%
%ADD33ROUNDEDRECTD33*%
G04:AMPARAMS|DCode=34|XSize=0.5mm|YSize=0.6mm|CornerRadius=0.125mm|HoleSize=0mm|Usage=FLASHONLY|Rotation=0.000|XOffset=0mm|YOffset=0mm|HoleType=Round|Shape=RoundedRectangle|*
%AMROUNDEDRECTD34*
21,1,0.500,0.350,0,0,0.0*
21,1,0.250,0.600,0,0,0.0*
1,1,0.250,0.125,-0.175*
1,1,0.250,-0.125,-0.175*
1,1,0.250,-0.125,0.175*
1,1,0.250,0.125,0.175*
%
%ADD34ROUNDEDRECTD34*%
G04:AMPARAMS|DCode=41|XSize=0.9mm|YSize=0.8mm|CornerRadius=0.2mm|HoleSize=0mm|Usage=FLASHONLY|Rotation=270.000|XOffset=0mm|YOffset=0mm|HoleType=Round|Shape=RoundedRectangle|*
%AMROUNDEDRECTD41*
21,1,0.900,0.400,0,0,270.0*
21,1,0.500,0.800,0,0,270.0*
1,1,0.400,-0.200,-0.250*
1,1,0.400,-0.200,0.250*
1,1,0.400,0.200,0.250*
1,1,0.400,0.200,-0.250*
%
%ADD41ROUNDEDRECTD41*%
G04:AMPARAMS|DCode=46|XSize=0.61mm|YSize=0.6mm|CornerRadius=0.15mm|HoleSize=0mm|Usage=FLASHONLY|Rotation=180.000|XOffset=0mm|YOffset=0mm|HoleType=Round|Shape=RoundedRectangle|*
%AMROUNDEDRECTD46*
21,1,0.610,0.300,0,0,180.0*
21,1,0.310,0.600,0,0,180.0*
1,1,0.300,-0.155,0.150*
1,1,0.300,0.155,0.150*
1,1,0.300,0.155,-0.150*
1,1,0.300,-0.155,-0.150*
%
%ADD46ROUNDEDRECTD46*%
G04:AMPARAMS|DCode=54|XSize=0.9mm|YSize=0.8mm|CornerRadius=0.2mm|HoleSize=0mm|Usage=FLASHONLY|Rotation=0.000|XOffset=0mm|YOffset=0mm|HoleType=Round|Shape=RoundedRectangle|*
%AMROUNDEDRECTD54*
21,1,0.900,0.400,0,0,0.0*
21,1,0.500,0.800,0,0,0.0*
1,1,0.400,0.250,-0.200*
1,1,0.400,-0.250,-0.200*
1,1,0.400,-0.250,0.200*
1,1,0.400,0.250,0.200*
%
%ADD54ROUNDEDRECTD54*%
%ADD177O,2.337X0.610*%
D28*
X84992Y130575D02*
D03*
X86008D02*
D03*
X84992Y124275D02*
D03*
X86008D02*
D03*
X82792Y130575D02*
D03*
X83808D02*
D03*
X82792Y124275D02*
D03*
X83808D02*
D03*
X93992Y130575D02*
D03*
X95008D02*
D03*
X93992Y124275D02*
D03*
X95008D02*
D03*
X91792Y130575D02*
D03*
X92808D02*
D03*
X91792Y124275D02*
D03*
X92808D02*
D03*
D33*
X90825Y122125D02*
D03*
X89825D02*
D03*
X87975D02*
D03*
X88975D02*
D03*
X62000Y112000D02*
D03*
X61000D02*
D03*
X70000Y110000D02*
D03*
X71000D02*
D03*
X70000Y103000D02*
D03*
X71000D02*
D03*
X66000Y102000D02*
D03*
X65000D02*
D03*
X68000Y111000D02*
D03*
X69000D02*
D03*
Y106000D02*
D03*
X70000D02*
D03*
X69000Y105000D02*
D03*
X70000D02*
D03*
X69000Y107000D02*
D03*
X70000D02*
D03*
X69000Y108000D02*
D03*
X70000D02*
D03*
X64000Y106000D02*
D03*
X63000D02*
D03*
X64000Y105000D02*
D03*
X63000D02*
D03*
X64000Y107000D02*
D03*
X63000D02*
D03*
X64000Y108000D02*
D03*
X63000D02*
D03*
X71150Y140000D02*
D03*
X70150D02*
D03*
X74200D02*
D03*
X73200D02*
D03*
X72650Y135200D02*
D03*
X73650D02*
D03*
X72150Y141700D02*
D03*
X71150D02*
D03*
X72150Y142607D02*
D03*
X71150D02*
D03*
D34*
X67000Y104000D02*
D03*
Y103000D02*
D03*
X67000Y109000D02*
D03*
Y110000D02*
D03*
X65000Y104000D02*
D03*
Y103000D02*
D03*
X66000Y104000D02*
D03*
Y103000D02*
D03*
X65000Y109000D02*
D03*
Y110000D02*
D03*
X66000Y109000D02*
D03*
Y110000D02*
D03*
X70000Y135850D02*
D03*
Y136850D02*
D03*
X95500Y61250D02*
D03*
Y62250D02*
D03*
X97500Y61250D02*
D03*
Y62250D02*
D03*
X68000Y109000D02*
D03*
Y110000D02*
D03*
D41*
X76850Y137600D02*
D03*
X75450D02*
D03*
D46*
X84400Y129483D02*
D03*
Y128467D02*
D03*
Y126383D02*
D03*
Y125367D02*
D03*
X93400Y129483D02*
D03*
Y128467D02*
D03*
Y126383D02*
D03*
Y125367D02*
D03*
X80900Y118183D02*
D03*
Y117167D02*
D03*
X96900Y118183D02*
D03*
Y117167D02*
D03*
D54*
X73150Y143224D02*
D03*
Y141700D02*
D03*
D177*
X85338Y148584D02*
D03*
Y164584D02*
D03*
Y165584D02*
D03*
Y163584D02*
D03*
Y151584D02*
D03*
Y160584D02*
D03*
Y154584D02*
D03*
Y144584D02*
D03*
Y161584D02*
D03*
Y147584D02*
D03*
Y152584D02*
D03*
Y146584D02*
D03*
Y155584D02*
D03*
Y159584D02*
D03*
Y157584D02*
D03*
Y156584D02*
D03*
Y158584D02*
D03*
Y145584D02*
D03*
Y153584D02*
D03*
Y162584D02*
D03*
Y143584D02*
D03*
Y150584D02*
D03*
Y149584D02*
D03*
Y142584D02*
D03*
X89338Y153584D02*
D03*
Y162584D02*
D03*
Y154584D02*
D03*
X85338Y139584D02*
D03*
Y134584D02*
D03*
Y141584D02*
D03*
Y138584D02*
D03*
Y135584D02*
D03*
Y137584D02*
D03*
X89338Y138584D02*
D03*
Y137584D02*
D03*
Y134584D02*
D03*
Y140584D02*
D03*
Y135584D02*
D03*
X85338Y136584D02*
D03*
Y140584D02*
D03*
X89338Y165584D02*
D03*
Y164584D02*
D03*
Y163584D02*
D03*
Y161584D02*
D03*
Y160584D02*
D03*
Y159584D02*
D03*
Y158584D02*
D03*
Y157584D02*
D03*
Y156584D02*
D03*
Y155584D02*
D03*
Y152584D02*
D03*
Y151584D02*
D03*
Y150584D02*
D03*
Y149584D02*
D03*
Y148584D02*
D03*
Y147584D02*
D03*
Y146584D02*
D03*
Y145584D02*
D03*
Y144584D02*
D03*
Y143584D02*
D03*
Y142584D02*
D03*
Y141584D02*
D03*
Y139584D02*
D03*
Y136584D02*
D03*
M02*
