  0
SECTION
  2
HEADER
  9
$ACADVER
  1
AC1027
  9
$ACADMAINTVER
 70
     8
  9
$DWGCODEPAGE
  3
ANSI_1251
  9
$REQUIREDVERSIONS
160
                 0
  9
$INSBASE
 10
0.0
 20
0.0
 30
0.0
  9
$EXTMIN
 10
1.000000000000000E+20
 20
1.000000000000000E+20
 30
1.000000000000000E+20
  9
$EXTMAX
 10
-1.000000000000000E+20
 20
-1.000000000000000E+20
 30
-1.000000000000000E+20
  9
$LIMMIN
 10
1260.976269
 20
1261.75135
  9
$LIMMAX
 10
1298.09106142
 20
1278.2428207
  9
$ORTHOMODE
 70
     0
  9
$REGENMODE
 70
     1
  9
$FILLMODE
 70
     1
  9
$QTEXTMODE
 70
     0
  9
$MIRRTEXT
 70
     1
  9
$LTSCALE
 40
1.0
  9
$ATTMODE
 70
     1
  9
$TEXTSIZE
 40
2.5
  9
$TRACEWID
 40
1.0
  9
$TEXTSTYLE
  7
Standard
  9
$CLAYER
  8
0
  9
$CELTYPE
  6
ByLayer
  9
$CECOLOR
 62
   256
  9
$CELTSCALE
 40
1.0
  9
$DISPSILH
 70
     0
  9
$DIMSCALE
 40
1.0
  9
$DIMASZ
 40
2.5
  9
$DIMEXO
 40
0.625
  9
$DIMDLI
 40
3.75
  9
$DIMRND
 40
0.0
  9
$DIMDLE
 40
0.0
  9
$DIMEXE
 40
1.25
  9
$DIMTP
 40
0.0
  9
$DIMTM
 40
0.0
  9
$DIMTXT
 40
2.5
  9
$DIMCEN
 40
2.5
  9
$DIMTSZ
 40
0.0
  9
$DIMTOL
 70
     0
  9
$DIMLIM
 70
     0
  9
$DIMTIH
 70
     0
  9
$DIMTOH
 70
     0
  9
$DIMSE1
 70
     0
  9
$DIMSE2
 70
     0
  9
$DIMTAD
 70
     1
  9
$DIMZIN
 70
     8
  9
$DIMBLK
  1

  9
$DIMASO
 70
     1
  9
$DIMSHO
 70
     1
  9
$DIMPOST
  1

  9
$DIMAPOST
  1

  9
$DIMALT
 70
     0
  9
$DIMALTD
 70
     3
  9
$DIMALTF
 40
0.03937007874016
  9
$DIMLFAC
 40
1.0
  9
$DIMTOFL
 70
     1
  9
$DIMTVP
 40
0.0
  9
$DIMTIX
 70
     0
  9
$DIMSOXD
 70
     0
  9
$DIMSAH
 70
     0
  9
$DIMBLK1
  1

  9
$DIMBLK2
  1

  9
$DIMSTYLE
  2
ISO-25
  9
$DIMCLRD
 70
     0
  9
$DIMCLRE
 70
     0
  9
$DIMCLRT
 70
     0
  9
$DIMTFAC
 40
1.0
  9
$DIMGAP
 40
0.625
  9
$DIMJUST
 70
     0
  9
$DIMSD1
 70
     0
  9
$DIMSD2
 70
     0
  9
$DIMTOLJ
 70
     0
  9
$DIMTZIN
 70
     8
  9
$DIMALTZ
 70
     0
  9
$DIMALTTZ
 70
     0
  9
$DIMUPT
 70
     0
  9
$DIMDEC
 70
     2
  9
$DIMTDEC
 70
     2
  9
$DIMALTU
 70
     2
  9
$DIMALTTD
 70
     3
  9
$DIMTXSTY
  7
Standard
  9
$DIMAUNIT
 70
     0
  9
$DIMADEC
 70
     0
  9
$DIMALTRND
 40
0.0
  9
$DIMAZIN
 70
     0
  9
$DIMDSEP
 70
    44
  9
$DIMATFIT
 70
     3
  9
$DIMFRAC
 70
     0
  9
$DIMLDRBLK
  1

  9
$DIMLUNIT
 70
     2
  9
$DIMLWD
 70
    -2
  9
$DIMLWE
 70
    -2
  9
$DIMTMOVE
 70
     0
  9
$DIMFXL
 40
1.0
  9
$DIMFXLON
 70
     0
  9
$DIMJOGANG
 40
0.7853981633974483
  9
$DIMTFILL
 70
     0
  9
$DIMTFILLCLR
 70
     0
  9
$DIMARCSYM
 70
     0
  9
$DIMLTYPE
  6

  9
$DIMLTEX1
  6

  9
$DIMLTEX2
  6

  9
$DIMTXTDIRECTION
 70
     0
  9
$LUNITS
 70
     2
  9
$LUPREC
 70
     4
  9
$SKETCHINC
 40
1.0
  9
$FILLETRAD
 40
10.0
  9
$AUNITS
 70
     0
  9
$AUPREC
 70
     0
  9
$MENU
  1
.
  9
$ELEVATION
 40
0.0
  9
$PELEVATION
 40
0.0
  9
$THICKNESS
 40
0.0
  9
$LIMCHECK
 70
     0
  9
$CHAMFERA
 40
0.0
  9
$CHAMFERB
 40
0.0
  9
$CHAMFERC
 40
0.0
  9
$CHAMFERD
 40
0.0
  9
$SKPOLY
 70
     0
  9
$TDCREATE
 40
2458203.703846632
  9
$TDUCREATE
 40
2458203.578846632
  9
$TDUPDATE
 40
2458203.703846759
  9
$TDUUPDATE
 40
2458203.578846759
  9
$TDINDWG
 40
0.0000000116
  9
$TDUSRTIMER
 40
0.0000000116
  9
$USRTIMER
 70
     1
  9
$ANGBASE
 50
0.0
  9
$ANGDIR
 70
     0
  9
$PDMODE
 70
     0
  9
$PDSIZE
 40
0.0
  9
$PLINEWID
 40
0.0
  9
$SPLFRAME
 70
     0
  9
$SPLINETYPE
 70
     6
  9
$SPLINESEGS
 70
     8
  9
$HANDSEED
  5
202
  9
$SURFTAB1
 70
     6
  9
$SURFTAB2
 70
     6
  9
$SURFTYPE
 70
     6
  9
$SURFU
 70
     6
  9
$SURFV
 70
     6
  9
$UCSBASE
  2

  9
$UCSNAME
  2

  9
$UCSORG
 10
0.0
 20
0.0
 30
0.0
  9
$UCSXDIR
 10
1.0
 20
0.0
 30
0.0
  9
$UCSYDIR
 10
0.0
 20
1.0
 30
0.0
  9
$UCSORTHOREF
  2

  9
$UCSORTHOVIEW
 70
     0
  9
$UCSORGTOP
 10
0.0
 20
0.0
 30
0.0
  9
$UCSORGBOTTOM
 10
0.0
 20
0.0
 30
0.0
  9
$UCSORGLEFT
 10
0.0
 20
0.0
 30
0.0
  9
$UCSORGRIGHT
 10
0.0
 20
0.0
 30
0.0
  9
$UCSORGFRONT
 10
0.0
 20
0.0
 30
0.0
  9
$UCSORGBACK
 10
0.0
 20
0.0
 30
0.0
  9
$PUCSBASE
  2

  9
$PUCSNAME
  2

  9
$PUCSORG
 10
0.0
 20
0.0
 30
0.0
  9
$PUCSXDIR
 10
1.0
 20
0.0
 30
0.0
  9
$PUCSYDIR
 10
0.0
 20
1.0
 30
0.0
  9
$PUCSORTHOREF
  2

  9
$PUCSORTHOVIEW
 70
     0
  9
$PUCSORGTOP
 10
0.0
 20
0.0
 30
0.0
  9
$PUCSORGBOTTOM
 10
0.0
 20
0.0
 30
0.0
  9
$PUCSORGLEFT
 10
0.0
 20
0.0
 30
0.0
  9
$PUCSORGRIGHT
 10
0.0
 20
0.0
 30
0.0
  9
$PUCSORGFRONT
 10
0.0
 20
0.0
 30
0.0
  9
$PUCSORGBACK
 10
0.0
 20
0.0
 30
0.0
  9
$USERI1
 70
     0
  9
$USERI2
 70
     0
  9
$USERI3
 70
     0
  9
$USERI4
 70
     0
  9
$USERI5
 70
     0
  9
$USERR1
 40
0.0
  9
$USERR2
 40
0.0
  9
$USERR3
 40
0.0
  9
$USERR4
 40
0.0
  9
$USERR5
 40
0.0
  9
$WORLDVIEW
 70
     1
  9
$SHADEDGE
 70
     3
  9
$SHADEDIF
 70
    70
  9
$TILEMODE
 70
     1
  9
$MAXACTVP
 70
    64
  9
$PINSBASE
 10
0.0
 20
0.0
 30
0.0
  9
$PLIMCHECK
 70
     0
  9
$PEXTMIN
 10
1.000000000000000E+20
 20
1.000000000000000E+20
 30
1.000000000000000E+20
  9
$PEXTMAX
 10
-1.000000000000000E+20
 20
-1.000000000000000E+20
 30
-1.000000000000000E+20
  9
$PLIMMIN
 10
0.0
 20
0.0
  9
$PLIMMAX
 10
420.0
 20
297.0
  9
$UNITMODE
 70
     0
  9
$VISRETAIN
 70
     1
  9
$PLINEGEN
 70
     0
  9
$PSLTSCALE
 70
     1
  9
$TREEDEPTH
 70
  3020
  9
$CMLSTYLE
  2
Standard
  9
$CMLJUST
 70
     0
  9
$CMLSCALE
 40
20.0
  9
$PROXYGRAPHICS
 70
     1
  9
$MEASUREMENT
 70
     1
  9
$CELWEIGHT
370
    -1
  9
$ENDCAPS
280
     0
  9
$JOINSTYLE
280
     0
  9
$LWDISPLAY
290
     0
  9
$INSUNITS
 70
     4
  9
$HYPERLINKBASE
  1

  9
$STYLESHEET
  1

  9
$XEDIT
290
     1
  9
$CEPSNTYPE
380
     0
  9
$PSTYLEMODE
290
     1
  9
$FINGERPRINTGUID
  2
{9E9B947F-420E-4DCB-A4C7-471C8D052E54}
  9
$VERSIONGUID
  2
{FAEB1C32-E019-11D5-929B-00C0DF256EC4}
  9
$EXTNAMES
290
     1
  9
$PSVPSCALE
 40
0.0
  9
$OLESTARTUP
290
     0
  9
$SORTENTS
280
   127
  9
$INDEXCTL
280
     0
  9
$HIDETEXT
280
     1
  9
$XCLIPFRAME
280
     2
  9
$HALOGAP
280
     0
  9
$OBSCOLOR
 70
   257
  9
$OBSLTYPE
280
     0
  9
$INTERSECTIONDISPLAY
280
     0
  9
$INTERSECTIONCOLOR
 70
   257
  9
$DIMASSOC
280
     2
  9
$PROJECTNAME
  1

  9
$CAMERADISPLAY
290
     0
  9
$LENSLENGTH
 40
50.0
  9
$CAMERAHEIGHT
 40
0.0
  9
$STEPSPERSEC
 40
2.0
  9
$STEPSIZE
 40
6.0
  9
$3DDWFPREC
 40
2.0
  9
$PSOLWIDTH
 40
5.0
  9
$PSOLHEIGHT
 40
80.0
  9
$LOFTANG1
 40
1.570796326794897
  9
$LOFTANG2
 40
1.570796326794897
  9
$LOFTMAG1
 40
0.0
  9
$LOFTMAG2
 40
0.0
  9
$LOFTPARAM
 70
     7
  9
$LOFTNORMALS
280
     1
  9
$LATITUDE
 40
37.795
  9
$LONGITUDE
 40
-122.394
  9
$NORTHDIRECTION
 40
0.0
  9
$TIMEZONE
 70
 -8000
  9
$LIGHTGLYPHDISPLAY
280
     1
  9
$TILEMODELIGHTSYNCH
280
     1
  9
$CMATERIAL
347
44
  9
$SOLIDHIST
280
     1
  9
$SHOWHIST
280
     1
  9
$DWFFRAME
280
     2
  9
$DGNFRAME
280
     2
  9
$REALWORLDSCALE
290
     1
  9
$INTERFERECOLOR
 62
   256
  9
$CSHADOW
280
     0
  9
$SHADOWPLANELOCATION
 40
0.0
  0
ENDSEC
  0
SECTION
  2
CLASSES
  0
CLASS
  1
ACDBDICTIONARYWDFLT
  2
AcDbDictionaryWithDefault
  3
ObjectDBX Classes
 90
        0
 91
        4
280
     0
281
     0
  0
CLASS
  1
VISUALSTYLE
  2
AcDbVisualStyle
  3
ObjectDBX Classes
 90
     4095
 91
        4
280
     0
281
     0
  0
CLASS
  1
MATERIAL
  2
AcDbMaterial
  3
ObjectDBX Classes
 90
     1153
 91
        4
280
     0
281
     0
  0
CLASS
  1
SCALE
  2
AcDbScale
  3
ObjectDBX Classes
 90
     1153
 91
        4
280
     0
281
     0
  0
CLASS
  1
SUN
  2
AcDbSun
  3
SCENEOE
 90
     1153
 91
        4
280
     0
281
     0
  0
CLASS
  1
DICTIONARYVAR
  2
AcDbDictionaryVar
  3
ObjectDBX Classes
 90
        0
 91
        4
280
     0
281
     0
  0
ENDSEC
  0
SECTION
  2
TABLES
  0
TABLE
  2
VPORT
  5
8
330
0
100
AcDbSymbolTable
 70
     1
  0
VPORT
  5
29
330
8
100
AcDbSymbolTableRecord
100
AcDbViewportTableRecord
  2
*Active
 70
     0
 10
0.0
 20
0.0
 11
1.0
 21
1.0
 12
344.1869158878504
 22
148.5
 13
0.0
 23
0.0
 14
10.0
 24
10.0
 15
10.0
 25
10.0
 16
0.0
 26
0.0
 36
1.0
 17
0.0
 27
0.0
 37
0.0
 40
297.0
 41
1.972972972850329
 42
50.0
 43
0.0
 44
0.0
 50
0.0
 51
0.0
 71
     0
 72
   100
 73
     1
 74
     3
 75
     0
 76
     0
 77
     0
 78
     0
281
     0
 65
     1
110
0.0
120
0.0
130
0.0
111
1.0
121
0.0
131
0.0
112
0.0
122
1.0
132
0.0
 79
     0
146
0.0
 60
     3
 61
     5
292
     1
282
     1
141
0.0
142
0.0
 63
   250
361
69
  0
ENDTAB
  0
TABLE
  2
LTYPE
  5
5
330
0
100
AcDbSymbolTable
 70
     1
  0
LTYPE
  5
14
330
5
100
AcDbSymbolTableRecord
100
AcDbLinetypeTableRecord
  2
ByBlock
 70
     0
  3

 72
    65
 73
     0
 40
0.0
  0
LTYPE
  5
15
330
5
100
AcDbSymbolTableRecord
100
AcDbLinetypeTableRecord
  2
ByLayer
 70
     0
  3

 72
    65
 73
     0
 40
0.0
  0
LTYPE
  5
16
330
5
100
AcDbSymbolTableRecord
100
AcDbLinetypeTableRecord
  2
Continuous
 70
     0
  3
Solid line
 72
    65
 73
     0
 40
0.0
  0
ENDTAB
  0
TABLE
  2
LAYER
  5
2
330
0
100
AcDbSymbolTable
 70
     9
  0
LAYER
  5
10
330
2
100
AcDbSymbolTableRecord
100
AcDbLayerTableRecord
  2
0
 70
     0
 62
     7
  6
Continuous
370
    -3
390
F
347
46
348
0
  0
LAYER
  5
6A
330
2
100
AcDbSymbolTableRecord
100
AcDbLayerTableRecord
  2
TopLayer
 70
     0
 62
     1
  6
Continuous
370
    -3
390
F
347
46
348
0
  0
LAYER
  5
6B
330
2
100
AcDbSymbolTableRecord
100
AcDbLayerTableRecord
  2
BottomLayer
 70
     0
 62
     5
  6
Continuous
370
    -3
390
F
347
46
348
0
  0
LAYER
  5
6C
330
2
100
AcDbSymbolTableRecord
100
AcDbLayerTableRecord
  2
TopPaste
 70
     0
 62
     8
  6
Continuous
370
    -3
390
F
347
46
348
0
  0
LAYER
  5
6D
330
2
100
AcDbSymbolTableRecord
100
AcDbLayerTableRecord
  2
BottomPaste
 70
     0
 62
    16
  6
Continuous
370
    -3
390
F
347
46
348
0
  0
LAYER
  5
6E
330
2
100
AcDbSymbolTableRecord
100
AcDbLayerTableRecord
  2
TopSolder
 70
     0
 62
   216
  6
Continuous
370
    -3
390
F
347
46
348
0
  0
LAYER
  5
6F
330
2
100
AcDbSymbolTableRecord
100
AcDbLayerTableRecord
  2
BottomSolder
 70
     0
 62
     6
  6
Continuous
370
    -3
390
F
347
46
348
0
  0
LAYER
  5
70
330
2
100
AcDbSymbolTableRecord
100
AcDbLayerTableRecord
  2
PadHoleLayer
 70
     0
 62
   156
  6
Continuous
370
    -3
390
F
347
46
348
0
  0
LAYER
  5
71
330
2
100
AcDbSymbolTableRecord
100
AcDbLayerTableRecord
  2
ViaHoleLayer
 70
     0
 62
    16
  6
Continuous
370
    -3
390
F
347
46
348
0
  0
ENDTAB
  0
TABLE
  2
STYLE
  5
3
330
0
100
AcDbSymbolTable
 70
     1
  0
STYLE
  5
11
330
3
100
AcDbSymbolTableRecord
100
AcDbTextStyleTableRecord
  2
Standard
 70
     0
 40
0.0
 41
1.0
 50
0.0
 71
     0
 42
2.5
  3
txt
  4

  0
ENDTAB
  0
TABLE
  2
VIEW
  5
6
330
0
100
AcDbSymbolTable
 70
     0
  0
ENDTAB
  0
TABLE
  2
UCS
  5
7
330
0
100
AcDbSymbolTable
 70
     0
  0
ENDTAB
  0
TABLE
  2
APPID
  5
9
330
0
100
AcDbSymbolTable
 70
     1
  0
APPID
  5
12
330
9
100
AcDbSymbolTableRecord
100
AcDbRegAppTableRecord
  2
ACAD
 70
     0
  0
ENDTAB
  0
TABLE
  2
DIMSTYLE
  5
A
330
0
100
AcDbSymbolTable
 70
     1
100
AcDbDimStyleTable
  0
DIMSTYLE
105
27
330
A
100
AcDbSymbolTableRecord
100
AcDbDimStyleTableRecord
  2
ISO-25
 70
     0
 41
2.5
 42
0.625
 43
3.75
 44
1.25
 73
     0
 74
     0
 77
     1
 78
     8
140
2.5
141
2.5
143
0.03937007874016
147
0.625
171
     3
172
     1
178
     0
271
     2
272
     2
274
     3
278
    44
283
     0
284
     8
340
11
  0
ENDTAB
  0
TABLE
  2
BLOCK_RECORD
  5
1
330
0
100
AcDbSymbolTable
 70
     1
  0
BLOCK_RECORD
  5
1F
330
1
100
AcDbSymbolTableRecord
100
AcDbBlockTableRecord
  2
*Model_Space
340
22
 70
     0
280
     1
281
     0
  0
BLOCK_RECORD
  5
1B
330
1
100
AcDbSymbolTableRecord
100
AcDbBlockTableRecord
  2
*Paper_Space
340
1E
 70
     0
280
     1
281
     0
  0
BLOCK_RECORD
  5
23
330
1
100
AcDbSymbolTableRecord
100
AcDbBlockTableRecord
  2
*Paper_Space0
340
26
 70
     0
280
     1
281
     0
  0
ENDTAB
  0
ENDSEC
  0
SECTION
  2
BLOCKS
  0
BLOCK
  5
20
330
1F
100
AcDbEntity
  8
0
100
AcDbBlockBegin
  2
*Model_Space
 70
     0
 10
0.0
 20
0.0
 30
0.0
  3
*Model_Space
  1
*Model_Space
  0
ENDBLK
  5
21
330
1F
100
AcDbEntity
  8
0
100
AcDbBlockEnd
  0
BLOCK
  5
1C
330
1B
100
AcDbEntity
 67
     1
  8
0
100
AcDbBlockBegin
  2
*Paper_Space
 70
     0
 10
0.0
 20
0.0
 30
0.0
  3
*Paper_Space
  1
*Paper_Space
  0
ENDBLK
  5
1D
330
1B
100
AcDbEntity
 67
     1
  8
0
100
AcDbBlockEnd
  0
BLOCK
  5
24
330
23
100
AcDbEntity
  8
0
100
AcDbBlockBegin
  2
*Paper_Space0
 70
     0
 10
0.0
 20
0.0
 30
0.0
  3
*Paper_Space0
  1
*Paper_Space0
  0
ENDBLK
  5
25
330
23
100
AcDbEntity
  8
0
100
AcDbBlockEnd
  0
ENDSEC
  0
SECTION
  2
ENTITIES
  0
LINE
  5
72
330
1F
100
AcDbEntity
  8
TopLayer
100
AcDbLine
 10
1291.082
 20
1270.0
 30
0.0
 11
1292.51686378
 21
1270.0
 31
0.0
  0
LINE
  5
73
330
1F
100
AcDbEntity
  8
TopLayer
100
AcDbLine
 10
1282.19202794
 20
1270.0
 30
0.0
 11
1284.605
 21
1270.0
 31
0.0
  0
LINE
  5
74
330
1F
100
AcDbEntity
  8
TopLayer
100
AcDbLine
 10
1290.0025
 20
1270.0
 30
0.0
 11
1291.082
 21
1270.0
 31
0.0
  0
LINE
  5
75
330
1F
100
AcDbEntity
  8
TopLayer
100
AcDbLine
 10
1290.0025
 20
1268.99999946
 30
0.0
 11
1290.0025
 21
1270.0
 31
0.0
  0
LINE
  5
76
330
1F
100
AcDbEntity
  8
TopLayer
100
AcDbLine
 10
1289.3675
 20
1268.99999946
 30
0.0
 11
1290.0025
 21
1268.99999946
 31
0.0
  0
LINE
  5
77
330
1F
100
AcDbEntity
  8
TopLayer
100
AcDbLine
 10
1289.3675
 20
1268.99999946
 30
0.0
 11
1289.3675
 21
1270.0
 31
0.0
  0
LINE
  5
78
330
1F
100
AcDbEntity
  8
TopLayer
100
AcDbLine
 10
1289.3675
 20
1270.0
 30
0.0
 11
1289.3675
 21
1271.00000054
 31
0.0
  0
LINE
  5
79
330
1F
100
AcDbEntity
  8
TopLayer
100
AcDbLine
 10
1288.7325
 20
1271.00000054
 30
0.0
 11
1289.3675
 21
1271.00000054
 31
0.0
  0
LINE
  5
7A
330
1F
100
AcDbEntity
  8
TopLayer
100
AcDbLine
 10
1288.7325
 20
1270.0
 30
0.0
 11
1288.7325
 21
1271.00000054
 31
0.0
  0
LINE
  5
7B
330
1F
100
AcDbEntity
  8
TopLayer
100
AcDbLine
 10
1288.7325
 20
1268.99999946
 30
0.0
 11
1288.7325
 21
1270.0
 31
0.0
  0
LINE
  5
7C
330
1F
100
AcDbEntity
  8
TopLayer
100
AcDbLine
 10
1288.0975
 20
1268.99999946
 30
0.0
 11
1288.7325
 21
1268.99999946
 31
0.0
  0
LINE
  5
7D
330
1F
100
AcDbEntity
  8
TopLayer
100
AcDbLine
 10
1288.0975
 20
1268.99999946
 30
0.0
 11
1288.0975
 21
1270.0
 31
0.0
  0
LINE
  5
7E
330
1F
100
AcDbEntity
  8
TopLayer
100
AcDbLine
 10
1288.0975
 20
1270.0
 30
0.0
 11
1288.0975
 21
1271.00000054
 31
0.0
  0
LINE
  5
7F
330
1F
100
AcDbEntity
  8
TopLayer
100
AcDbLine
 10
1287.4625
 20
1271.00000054
 30
0.0
 11
1288.0975
 21
1271.00000054
 31
0.0
  0
LINE
  5
80
330
1F
100
AcDbEntity
  8
TopLayer
100
AcDbLine
 10
1287.4625
 20
1270.0
 30
0.0
 11
1287.4625
 21
1271.00000054
 31
0.0
  0
LINE
  5
81
330
1F
100
AcDbEntity
  8
TopLayer
100
AcDbLine
 10
1287.4625
 20
1268.99999946
 30
0.0
 11
1287.4625
 21
1270.0
 31
0.0
  0
LINE
  5
82
330
1F
100
AcDbEntity
  8
TopLayer
100
AcDbLine
 10
1286.8275
 20
1268.99999946
 30
0.0
 11
1287.4625
 21
1268.99999946
 31
0.0
  0
LINE
  5
83
330
1F
100
AcDbEntity
  8
TopLayer
100
AcDbLine
 10
1286.8275
 20
1268.99999946
 30
0.0
 11
1286.8275
 21
1270.0
 31
0.0
  0
LINE
  5
84
330
1F
100
AcDbEntity
  8
TopLayer
100
AcDbLine
 10
1286.8275
 20
1270.0
 30
0.0
 11
1286.8275
 21
1271.00000054
 31
0.0
  0
LINE
  5
85
330
1F
100
AcDbEntity
  8
TopLayer
100
AcDbLine
 10
1286.1925
 20
1271.00000054
 30
0.0
 11
1286.8275
 21
1271.00000054
 31
0.0
  0
LINE
  5
86
330
1F
100
AcDbEntity
  8
TopLayer
100
AcDbLine
 10
1286.1925
 20
1270.0
 30
0.0
 11
1286.1925
 21
1271.00000054
 31
0.0
  0
LINE
  5
87
330
1F
100
AcDbEntity
  8
TopLayer
100
AcDbLine
 10
1286.1925
 20
1268.99999946
 30
0.0
 11
1286.1925
 21
1270.0
 31
0.0
  0
LINE
  5
88
330
1F
100
AcDbEntity
  8
TopLayer
100
AcDbLine
 10
1285.5575
 20
1268.99999946
 30
0.0
 11
1286.1925
 21
1268.99999946
 31
0.0
  0
LINE
  5
89
330
1F
100
AcDbEntity
  8
TopLayer
100
AcDbLine
 10
1285.5575
 20
1268.99999946
 30
0.0
 11
1285.5575
 21
1270.0
 31
0.0
  0
LINE
  5
8A
330
1F
100
AcDbEntity
  8
TopLayer
100
AcDbLine
 10
1285.5575
 20
1270.0
 30
0.0
 11
1285.5575
 21
1271.00000054
 31
0.0
  0
LINE
  5
8B
330
1F
100
AcDbEntity
  8
TopLayer
100
AcDbLine
 10
1284.9225
 20
1271.00000054
 30
0.0
 11
1285.5575
 21
1271.00000054
 31
0.0
  0
LINE
  5
8C
330
1F
100
AcDbEntity
  8
TopLayer
100
AcDbLine
 10
1284.9225
 20
1270.0
 30
0.0
 11
1284.9225
 21
1271.00000054
 31
0.0
  0
LINE
  5
8D
330
1F
100
AcDbEntity
  8
TopLayer
100
AcDbLine
 10
1284.605
 20
1270.0
 30
0.0
 11
1284.9225
 21
1270.0
 31
0.0
  0
LINE
  5
8E
330
1F
100
AcDbEntity
  8
TopLayer
100
AcDbLine
 10
1268.857
 20
1269.99708662
 30
0.0
 11
1269.91940834
 21
1269.99708662
 31
0.0
  0
LINE
  5
8F
330
1F
100
AcDbEntity
  8
TopLayer
100
AcDbLine
 10
1263.60834908
 20
1269.99708662
 30
0.0
 11
1264.158
 21
1269.99708662
 31
0.0
  0
LINE
  5
90
330
1F
100
AcDbEntity
  8
TopLayer
100
AcDbLine
 10
1268.2855
 20
1269.99708662
 30
0.0
 11
1268.857
 21
1269.99708662
 31
0.0
  0
LINE
  5
91
330
1F
100
AcDbEntity
  8
TopLayer
100
AcDbLine
 10
1268.2855
 20
1269.0763417
 30
0.0
 11
1268.2855
 21
1269.99708662
 31
0.0
  0
LINE
  5
92
330
1F
100
AcDbEntity
  8
TopLayer
100
AcDbLine
 10
1267.6505
 20
1269.0763417
 30
0.0
 11
1268.2855
 21
1269.0763417
 31
0.0
  0
LINE
  5
93
330
1F
100
AcDbEntity
  8
TopLayer
100
AcDbLine
 10
1267.6505
 20
1269.0763417
 30
0.0
 11
1267.6505
 21
1269.99708662
 31
0.0
  0
LINE
  5
94
330
1F
100
AcDbEntity
  8
TopLayer
100
AcDbLine
 10
1267.6505
 20
1269.99708662
 30
0.0
 11
1267.6505
 21
1270.91783154
 31
0.0
  0
LINE
  5
95
330
1F
100
AcDbEntity
  8
TopLayer
100
AcDbLine
 10
1267.0155
 20
1270.91783154
 30
0.0
 11
1267.6505
 21
1270.91783154
 31
0.0
  0
LINE
  5
96
330
1F
100
AcDbEntity
  8
TopLayer
100
AcDbLine
 10
1267.0155
 20
1269.99708662
 30
0.0
 11
1267.0155
 21
1270.91783154
 31
0.0
  0
LINE
  5
97
330
1F
100
AcDbEntity
  8
TopLayer
100
AcDbLine
 10
1267.0155
 20
1269.0763417
 30
0.0
 11
1267.0155
 21
1269.99708662
 31
0.0
  0
LINE
  5
98
330
1F
100
AcDbEntity
  8
TopLayer
100
AcDbLine
 10
1266.3805
 20
1269.0763417
 30
0.0
 11
1267.0155
 21
1269.0763417
 31
0.0
  0
LINE
  5
99
330
1F
100
AcDbEntity
  8
TopLayer
100
AcDbLine
 10
1266.3805
 20
1269.0763417
 30
0.0
 11
1266.3805
 21
1269.99708662
 31
0.0
  0
LINE
  5
9A
330
1F
100
AcDbEntity
  8
TopLayer
100
AcDbLine
 10
1266.3805
 20
1269.99708662
 30
0.0
 11
1266.3805
 21
1270.91783154
 31
0.0
  0
LINE
  5
9B
330
1F
100
AcDbEntity
  8
TopLayer
100
AcDbLine
 10
1265.7455
 20
1270.91783154
 30
0.0
 11
1266.3805
 21
1270.91783154
 31
0.0
  0
LINE
  5
9C
330
1F
100
AcDbEntity
  8
TopLayer
100
AcDbLine
 10
1265.7455
 20
1269.99708662
 30
0.0
 11
1265.7455
 21
1270.91783154
 31
0.0
  0
LINE
  5
9D
330
1F
100
AcDbEntity
  8
TopLayer
100
AcDbLine
 10
1265.7455
 20
1269.0763417
 30
0.0
 11
1265.7455
 21
1269.99708662
 31
0.0
  0
LINE
  5
9E
330
1F
100
AcDbEntity
  8
TopLayer
100
AcDbLine
 10
1265.1105
 20
1269.0763417
 30
0.0
 11
1265.7455
 21
1269.0763417
 31
0.0
  0
LINE
  5
9F
330
1F
100
AcDbEntity
  8
TopLayer
100
AcDbLine
 10
1265.1105
 20
1269.0763417
 30
0.0
 11
1265.1105
 21
1269.99708662
 31
0.0
  0
LINE
  5
A0
330
1F
100
AcDbEntity
  8
TopLayer
100
AcDbLine
 10
1265.1105
 20
1269.99708662
 30
0.0
 11
1265.1105
 21
1270.91783154
 31
0.0
  0
LINE
  5
A1
330
1F
100
AcDbEntity
  8
TopLayer
100
AcDbLine
 10
1264.4755
 20
1270.91783154
 30
0.0
 11
1265.1105
 21
1270.91783154
 31
0.0
  0
LINE
  5
A2
330
1F
100
AcDbEntity
  8
TopLayer
100
AcDbLine
 10
1264.4755
 20
1269.99708662
 30
0.0
 11
1264.4755
 21
1270.91783154
 31
0.0
  0
LINE
  5
A3
330
1F
100
AcDbEntity
  8
TopLayer
100
AcDbLine
 10
1264.158
 20
1269.99708662
 30
0.0
 11
1264.4755
 21
1269.99708662
 31
0.0
  0
LINE
  5
A4
330
1F
100
AcDbEntity
  8
TopLayer
100
AcDbLine
 10
1280.668
 20
1270.0
 30
0.0
 11
1281.938
 21
1270.0
 31
0.0
  0
LINE
  5
A5
330
1F
100
AcDbEntity
  8
TopLayer
100
AcDbLine
 10
1270.17340834
 20
1270.0
 30
0.0
 11
1273.048
 21
1270.0
 31
0.0
  0
LINE
  5
A6
330
1F
100
AcDbEntity
  8
TopLayer
100
AcDbLine
 10
1279.0805
 20
1270.0
 30
0.0
 11
1280.668
 21
1270.0
 31
0.0
  0
LINE
  5
A7
330
1F
100
AcDbEntity
  8
TopLayer
100
AcDbLine
 10
1279.0805
 20
1270.0
 30
0.0
 11
1279.0805
 21
1270.96657922
 31
0.0
  0
LINE
  5
A8
330
1F
100
AcDbEntity
  8
TopLayer
100
AcDbLine
 10
1278.4455
 20
1270.96657922
 30
0.0
 11
1279.0805
 21
1270.96657922
 31
0.0
  0
LINE
  5
A9
330
1F
100
AcDbEntity
  8
TopLayer
100
AcDbLine
 10
1278.4455
 20
1270.0
 30
0.0
 11
1278.4455
 21
1270.96657922
 31
0.0
  0
LINE
  5
AA
330
1F
100
AcDbEntity
  8
TopLayer
100
AcDbLine
 10
1278.4455
 20
1269.03342078
 30
0.0
 11
1278.4455
 21
1270.0
 31
0.0
  0
LINE
  5
AB
330
1F
100
AcDbEntity
  8
TopLayer
100
AcDbLine
 10
1277.8105
 20
1269.03342078
 30
0.0
 11
1278.4455
 21
1269.03342078
 31
0.0
  0
LINE
  5
AC
330
1F
100
AcDbEntity
  8
TopLayer
100
AcDbLine
 10
1277.8105
 20
1269.03342078
 30
0.0
 11
1277.8105
 21
1270.0
 31
0.0
  0
LINE
  5
AD
330
1F
100
AcDbEntity
  8
TopLayer
100
AcDbLine
 10
1277.8105
 20
1270.0
 30
0.0
 11
1277.8105
 21
1270.96657922
 31
0.0
  0
LINE
  5
AE
330
1F
100
AcDbEntity
  8
TopLayer
100
AcDbLine
 10
1277.1755
 20
1270.96657922
 30
0.0
 11
1277.8105
 21
1270.96657922
 31
0.0
  0
LINE
  5
AF
330
1F
100
AcDbEntity
  8
TopLayer
100
AcDbLine
 10
1277.1755
 20
1270.0
 30
0.0
 11
1277.1755
 21
1270.96657922
 31
0.0
  0
LINE
  5
B0
330
1F
100
AcDbEntity
  8
TopLayer
100
AcDbLine
 10
1277.1755
 20
1269.03342078
 30
0.0
 11
1277.1755
 21
1270.0
 31
0.0
  0
LINE
  5
B1
330
1F
100
AcDbEntity
  8
TopLayer
100
AcDbLine
 10
1276.5405
 20
1269.03342078
 30
0.0
 11
1277.1755
 21
1269.03342078
 31
0.0
  0
LINE
  5
B2
330
1F
100
AcDbEntity
  8
TopLayer
100
AcDbLine
 10
1276.5405
 20
1269.03342078
 30
0.0
 11
1276.5405
 21
1270.0
 31
0.0
  0
LINE
  5
B3
330
1F
100
AcDbEntity
  8
TopLayer
100
AcDbLine
 10
1276.5405
 20
1270.0
 30
0.0
 11
1276.5405
 21
1270.96657922
 31
0.0
  0
LINE
  5
B4
330
1F
100
AcDbEntity
  8
TopLayer
100
AcDbLine
 10
1275.9055
 20
1270.96657922
 30
0.0
 11
1276.5405
 21
1270.96657922
 31
0.0
  0
LINE
  5
B5
330
1F
100
AcDbEntity
  8
TopLayer
100
AcDbLine
 10
1275.9055
 20
1270.0
 30
0.0
 11
1275.9055
 21
1270.96657922
 31
0.0
  0
LINE
  5
B6
330
1F
100
AcDbEntity
  8
TopLayer
100
AcDbLine
 10
1275.9055
 20
1269.03342332
 30
0.0
 11
1275.9055
 21
1270.0
 31
0.0
  0
LINE
  5
B7
330
1F
100
AcDbEntity
  8
TopLayer
100
AcDbLine
 10
1275.2705
 20
1269.03342332
 30
0.0
 11
1275.9055
 21
1269.03342332
 31
0.0
  0
LINE
  5
B8
330
1F
100
AcDbEntity
  8
TopLayer
100
AcDbLine
 10
1275.2705
 20
1269.03342332
 30
0.0
 11
1275.2705
 21
1270.0
 31
0.0
  0
LINE
  5
B9
330
1F
100
AcDbEntity
  8
TopLayer
100
AcDbLine
 10
1275.2705
 20
1270.0
 30
0.0
 11
1275.2705
 21
1270.96657668
 31
0.0
  0
LINE
  5
BA
330
1F
100
AcDbEntity
  8
TopLayer
100
AcDbLine
 10
1274.6355
 20
1270.96657668
 30
0.0
 11
1275.2705
 21
1270.96657668
 31
0.0
  0
LINE
  5
BB
330
1F
100
AcDbEntity
  8
TopLayer
100
AcDbLine
 10
1274.6355
 20
1270.0
 30
0.0
 11
1274.6355
 21
1270.96657668
 31
0.0
  0
LINE
  5
BC
330
1F
100
AcDbEntity
  8
TopLayer
100
AcDbLine
 10
1274.6355
 20
1269.03342332
 30
0.0
 11
1274.6355
 21
1270.0
 31
0.0
  0
LINE
  5
BD
330
1F
100
AcDbEntity
  8
TopLayer
100
AcDbLine
 10
1274.0005
 20
1269.03342332
 30
0.0
 11
1274.6355
 21
1269.03342332
 31
0.0
  0
LINE
  5
BE
330
1F
100
AcDbEntity
  8
TopLayer
100
AcDbLine
 10
1274.0005
 20
1269.03342332
 30
0.0
 11
1274.0005
 21
1270.0
 31
0.0
  0
LINE
  5
BF
330
1F
100
AcDbEntity
  8
TopLayer
100
AcDbLine
 10
1274.0005
 20
1270.0
 30
0.0
 11
1274.0005
 21
1270.96657668
 31
0.0
  0
LINE
  5
C0
330
1F
100
AcDbEntity
  8
TopLayer
100
AcDbLine
 10
1273.3655
 20
1270.96657668
 30
0.0
 11
1274.0005
 21
1270.96657668
 31
0.0
  0
LINE
  5
C1
330
1F
100
AcDbEntity
  8
TopLayer
100
AcDbLine
 10
1273.3655
 20
1270.0
 30
0.0
 11
1273.3655
 21
1270.96657668
 31
0.0
  0
LINE
  5
C2
330
1F
100
AcDbEntity
  8
TopLayer
100
AcDbLine
 10
1273.048
 20
1270.0
 30
0.0
 11
1273.3655
 21
1270.0
 31
0.0
  0
LINE
  5
C3
330
1F
100
AcDbEntity
  8
TopLayer
100
AcDbLine
 10
1279.0805
 20
1270.0
 30
0.0
 11
1280.668
 21
1270.0
 31
0.0
  0
LINE
  5
C4
330
1F
100
AcDbEntity
  8
TopLayer
100
AcDbLine
 10
1279.0805
 20
1270.0
 30
0.0
 11
1279.0805
 21
1270.96657922
 31
0.0
  0
LINE
  5
C5
330
1F
100
AcDbEntity
  8
TopLayer
100
AcDbLine
 10
1278.4455
 20
1270.96657922
 30
0.0
 11
1279.0805
 21
1270.96657922
 31
0.0
  0
LINE
  5
C6
330
1F
100
AcDbEntity
  8
TopLayer
100
AcDbLine
 10
1278.4455
 20
1270.0
 30
0.0
 11
1278.4455
 21
1270.96657922
 31
0.0
  0
LINE
  5
C7
330
1F
100
AcDbEntity
  8
TopLayer
100
AcDbLine
 10
1278.4455
 20
1269.03342078
 30
0.0
 11
1278.4455
 21
1270.0
 31
0.0
  0
LINE
  5
C8
330
1F
100
AcDbEntity
  8
TopLayer
100
AcDbLine
 10
1277.8105
 20
1269.03342078
 30
0.0
 11
1278.4455
 21
1269.03342078
 31
0.0
  0
LINE
  5
C9
330
1F
100
AcDbEntity
  8
TopLayer
100
AcDbLine
 10
1277.8105
 20
1269.03342078
 30
0.0
 11
1277.8105
 21
1270.0
 31
0.0
  0
LINE
  5
CA
330
1F
100
AcDbEntity
  8
TopLayer
100
AcDbLine
 10
1277.8105
 20
1270.0
 30
0.0
 11
1277.8105
 21
1270.96657922
 31
0.0
  0
LINE
  5
CB
330
1F
100
AcDbEntity
  8
TopLayer
100
AcDbLine
 10
1277.1755
 20
1270.96657922
 30
0.0
 11
1277.8105
 21
1270.96657922
 31
0.0
  0
LINE
  5
CC
330
1F
100
AcDbEntity
  8
TopLayer
100
AcDbLine
 10
1277.1755
 20
1270.0
 30
0.0
 11
1277.1755
 21
1270.96657922
 31
0.0
  0
LINE
  5
CD
330
1F
100
AcDbEntity
  8
TopLayer
100
AcDbLine
 10
1277.1755
 20
1269.03342078
 30
0.0
 11
1277.1755
 21
1270.0
 31
0.0
  0
LINE
  5
CE
330
1F
100
AcDbEntity
  8
TopLayer
100
AcDbLine
 10
1276.5405
 20
1269.03342078
 30
0.0
 11
1277.1755
 21
1269.03342078
 31
0.0
  0
LINE
  5
CF
330
1F
100
AcDbEntity
  8
TopLayer
100
AcDbLine
 10
1276.5405
 20
1269.03342078
 30
0.0
 11
1276.5405
 21
1270.0
 31
0.0
  0
LINE
  5
D0
330
1F
100
AcDbEntity
  8
TopLayer
100
AcDbLine
 10
1276.5405
 20
1270.0
 30
0.0
 11
1276.5405
 21
1270.96657922
 31
0.0
  0
LINE
  5
D1
330
1F
100
AcDbEntity
  8
TopLayer
100
AcDbLine
 10
1275.9055
 20
1270.96657922
 30
0.0
 11
1276.5405
 21
1270.96657922
 31
0.0
  0
LINE
  5
D2
330
1F
100
AcDbEntity
  8
TopLayer
100
AcDbLine
 10
1275.9055
 20
1270.0
 30
0.0
 11
1275.9055
 21
1270.96657922
 31
0.0
  0
LINE
  5
D3
330
1F
100
AcDbEntity
  8
TopLayer
100
AcDbLine
 10
1275.9055
 20
1269.03342332
 30
0.0
 11
1275.9055
 21
1270.0
 31
0.0
  0
LINE
  5
D4
330
1F
100
AcDbEntity
  8
TopLayer
100
AcDbLine
 10
1275.2705
 20
1269.03342332
 30
0.0
 11
1275.9055
 21
1269.03342332
 31
0.0
  0
LINE
  5
D5
330
1F
100
AcDbEntity
  8
TopLayer
100
AcDbLine
 10
1275.2705
 20
1269.03342332
 30
0.0
 11
1275.2705
 21
1270.0
 31
0.0
  0
LINE
  5
D6
330
1F
100
AcDbEntity
  8
TopLayer
100
AcDbLine
 10
1275.2705
 20
1270.0
 30
0.0
 11
1275.2705
 21
1270.96657668
 31
0.0
  0
LINE
  5
D7
330
1F
100
AcDbEntity
  8
TopLayer
100
AcDbLine
 10
1274.6355
 20
1270.96657668
 30
0.0
 11
1275.2705
 21
1270.96657668
 31
0.0
  0
LINE
  5
D8
330
1F
100
AcDbEntity
  8
TopLayer
100
AcDbLine
 10
1274.6355
 20
1270.0
 30
0.0
 11
1274.6355
 21
1270.96657668
 31
0.0
  0
LINE
  5
D9
330
1F
100
AcDbEntity
  8
TopLayer
100
AcDbLine
 10
1274.6355
 20
1269.03342332
 30
0.0
 11
1274.6355
 21
1270.0
 31
0.0
  0
LINE
  5
DA
330
1F
100
AcDbEntity
  8
TopLayer
100
AcDbLine
 10
1274.0005
 20
1269.03342332
 30
0.0
 11
1274.6355
 21
1269.03342332
 31
0.0
  0
LINE
  5
DB
330
1F
100
AcDbEntity
  8
TopLayer
100
AcDbLine
 10
1274.0005
 20
1269.03342332
 30
0.0
 11
1274.0005
 21
1270.0
 31
0.0
  0
LINE
  5
DC
330
1F
100
AcDbEntity
  8
TopLayer
100
AcDbLine
 10
1274.0005
 20
1270.0
 30
0.0
 11
1274.0005
 21
1270.96657668
 31
0.0
  0
LINE
  5
DD
330
1F
100
AcDbEntity
  8
TopLayer
100
AcDbLine
 10
1273.3655
 20
1270.96657668
 30
0.0
 11
1274.0005
 21
1270.96657668
 31
0.0
  0
LINE
  5
DE
330
1F
100
AcDbEntity
  8
TopLayer
100
AcDbLine
 10
1273.3655
 20
1270.0
 30
0.0
 11
1273.3655
 21
1270.96657668
 31
0.0
  0
LINE
  5
DF
330
1F
100
AcDbEntity
  8
TopLayer
100
AcDbLine
 10
1273.048
 20
1270.0
 30
0.0
 11
1273.3655
 21
1270.0
 31
0.0
  0
LINE
  5
E0
330
1F
100
AcDbEntity
  8
TopLayer
100
AcDbLine
 10
1268.2855
 20
1269.99708662
 30
0.0
 11
1268.857
 21
1269.99708662
 31
0.0
  0
LINE
  5
E1
330
1F
100
AcDbEntity
  8
TopLayer
100
AcDbLine
 10
1268.2855
 20
1269.0763417
 30
0.0
 11
1268.2855
 21
1269.99708662
 31
0.0
  0
LINE
  5
E2
330
1F
100
AcDbEntity
  8
TopLayer
100
AcDbLine
 10
1267.6505
 20
1269.0763417
 30
0.0
 11
1268.2855
 21
1269.0763417
 31
0.0
  0
LINE
  5
E3
330
1F
100
AcDbEntity
  8
TopLayer
100
AcDbLine
 10
1267.6505
 20
1269.0763417
 30
0.0
 11
1267.6505
 21
1269.99708662
 31
0.0
  0
LINE
  5
E4
330
1F
100
AcDbEntity
  8
TopLayer
100
AcDbLine
 10
1267.6505
 20
1269.99708662
 30
0.0
 11
1267.6505
 21
1270.91783154
 31
0.0
  0
LINE
  5
E5
330
1F
100
AcDbEntity
  8
TopLayer
100
AcDbLine
 10
1267.0155
 20
1270.91783154
 30
0.0
 11
1267.6505
 21
1270.91783154
 31
0.0
  0
LINE
  5
E6
330
1F
100
AcDbEntity
  8
TopLayer
100
AcDbLine
 10
1267.0155
 20
1269.99708662
 30
0.0
 11
1267.0155
 21
1270.91783154
 31
0.0
  0
LINE
  5
E7
330
1F
100
AcDbEntity
  8
TopLayer
100
AcDbLine
 10
1267.0155
 20
1269.0763417
 30
0.0
 11
1267.0155
 21
1269.99708662
 31
0.0
  0
LINE
  5
E8
330
1F
100
AcDbEntity
  8
TopLayer
100
AcDbLine
 10
1266.3805
 20
1269.0763417
 30
0.0
 11
1267.0155
 21
1269.0763417
 31
0.0
  0
LINE
  5
E9
330
1F
100
AcDbEntity
  8
TopLayer
100
AcDbLine
 10
1266.3805
 20
1269.0763417
 30
0.0
 11
1266.3805
 21
1269.99708662
 31
0.0
  0
LINE
  5
EA
330
1F
100
AcDbEntity
  8
TopLayer
100
AcDbLine
 10
1266.3805
 20
1269.99708662
 30
0.0
 11
1266.3805
 21
1270.91783154
 31
0.0
  0
LINE
  5
EB
330
1F
100
AcDbEntity
  8
TopLayer
100
AcDbLine
 10
1265.7455
 20
1270.91783154
 30
0.0
 11
1266.3805
 21
1270.91783154
 31
0.0
  0
LINE
  5
EC
330
1F
100
AcDbEntity
  8
TopLayer
100
AcDbLine
 10
1265.7455
 20
1269.99708662
 30
0.0
 11
1265.7455
 21
1270.91783154
 31
0.0
  0
LINE
  5
ED
330
1F
100
AcDbEntity
  8
TopLayer
100
AcDbLine
 10
1265.7455
 20
1269.0763417
 30
0.0
 11
1265.7455
 21
1269.99708662
 31
0.0
  0
LINE
  5
EE
330
1F
100
AcDbEntity
  8
TopLayer
100
AcDbLine
 10
1265.1105
 20
1269.0763417
 30
0.0
 11
1265.7455
 21
1269.0763417
 31
0.0
  0
LINE
  5
EF
330
1F
100
AcDbEntity
  8
TopLayer
100
AcDbLine
 10
1265.1105
 20
1269.0763417
 30
0.0
 11
1265.1105
 21
1269.99708662
 31
0.0
  0
LINE
  5
F0
330
1F
100
AcDbEntity
  8
TopLayer
100
AcDbLine
 10
1265.1105
 20
1269.99708662
 30
0.0
 11
1265.1105
 21
1270.91783154
 31
0.0
  0
LINE
  5
F1
330
1F
100
AcDbEntity
  8
TopLayer
100
AcDbLine
 10
1264.4755
 20
1270.91783154
 30
0.0
 11
1265.1105
 21
1270.91783154
 31
0.0
  0
LINE
  5
F2
330
1F
100
AcDbEntity
  8
TopLayer
100
AcDbLine
 10
1264.4755
 20
1269.99708662
 30
0.0
 11
1264.4755
 21
1270.91783154
 31
0.0
  0
LINE
  5
F3
330
1F
100
AcDbEntity
  8
TopLayer
100
AcDbLine
 10
1264.158
 20
1269.99708662
 30
0.0
 11
1264.4755
 21
1269.99708662
 31
0.0
  0
LINE
  5
F4
330
1F
100
AcDbEntity
  8
TopLayer
100
AcDbLine
 10
1290.0025
 20
1270.0
 30
0.0
 11
1291.082
 21
1270.0
 31
0.0
  0
LINE
  5
F5
330
1F
100
AcDbEntity
  8
TopLayer
100
AcDbLine
 10
1290.0025
 20
1268.99999946
 30
0.0
 11
1290.0025
 21
1270.0
 31
0.0
  0
LINE
  5
F6
330
1F
100
AcDbEntity
  8
TopLayer
100
AcDbLine
 10
1289.3675
 20
1268.99999946
 30
0.0
 11
1290.0025
 21
1268.99999946
 31
0.0
  0
LINE
  5
F7
330
1F
100
AcDbEntity
  8
TopLayer
100
AcDbLine
 10
1289.3675
 20
1268.99999946
 30
0.0
 11
1289.3675
 21
1270.0
 31
0.0
  0
LINE
  5
F8
330
1F
100
AcDbEntity
  8
TopLayer
100
AcDbLine
 10
1289.3675
 20
1270.0
 30
0.0
 11
1289.3675
 21
1271.00000054
 31
0.0
  0
LINE
  5
F9
330
1F
100
AcDbEntity
  8
TopLayer
100
AcDbLine
 10
1288.7325
 20
1271.00000054
 30
0.0
 11
1289.3675
 21
1271.00000054
 31
0.0
  0
LINE
  5
FA
330
1F
100
AcDbEntity
  8
TopLayer
100
AcDbLine
 10
1288.7325
 20
1270.0
 30
0.0
 11
1288.7325
 21
1271.00000054
 31
0.0
  0
LINE
  5
FB
330
1F
100
AcDbEntity
  8
TopLayer
100
AcDbLine
 10
1288.7325
 20
1268.99999946
 30
0.0
 11
1288.7325
 21
1270.0
 31
0.0
  0
LINE
  5
FC
330
1F
100
AcDbEntity
  8
TopLayer
100
AcDbLine
 10
1288.0975
 20
1268.99999946
 30
0.0
 11
1288.7325
 21
1268.99999946
 31
0.0
  0
LINE
  5
FD
330
1F
100
AcDbEntity
  8
TopLayer
100
AcDbLine
 10
1288.0975
 20
1268.99999946
 30
0.0
 11
1288.0975
 21
1270.0
 31
0.0
  0
LINE
  5
FE
330
1F
100
AcDbEntity
  8
TopLayer
100
AcDbLine
 10
1288.0975
 20
1270.0
 30
0.0
 11
1288.0975
 21
1271.00000054
 31
0.0
  0
LINE
  5
FF
330
1F
100
AcDbEntity
  8
TopLayer
100
AcDbLine
 10
1287.4625
 20
1271.00000054
 30
0.0
 11
1288.0975
 21
1271.00000054
 31
0.0
  0
LINE
  5
100
330
1F
100
AcDbEntity
  8
TopLayer
100
AcDbLine
 10
1287.4625
 20
1270.0
 30
0.0
 11
1287.4625
 21
1271.00000054
 31
0.0
  0
LINE
  5
101
330
1F
100
AcDbEntity
  8
TopLayer
100
AcDbLine
 10
1287.4625
 20
1268.99999946
 30
0.0
 11
1287.4625
 21
1270.0
 31
0.0
  0
LINE
  5
102
330
1F
100
AcDbEntity
  8
TopLayer
100
AcDbLine
 10
1286.8275
 20
1268.99999946
 30
0.0
 11
1287.4625
 21
1268.99999946
 31
0.0
  0
LINE
  5
103
330
1F
100
AcDbEntity
  8
TopLayer
100
AcDbLine
 10
1286.8275
 20
1268.99999946
 30
0.0
 11
1286.8275
 21
1270.0
 31
0.0
  0
LINE
  5
104
330
1F
100
AcDbEntity
  8
TopLayer
100
AcDbLine
 10
1286.8275
 20
1270.0
 30
0.0
 11
1286.8275
 21
1271.00000054
 31
0.0
  0
LINE
  5
105
330
1F
100
AcDbEntity
  8
TopLayer
100
AcDbLine
 10
1286.1925
 20
1271.00000054
 30
0.0
 11
1286.8275
 21
1271.00000054
 31
0.0
  0
LINE
  5
106
330
1F
100
AcDbEntity
  8
TopLayer
100
AcDbLine
 10
1286.1925
 20
1270.0
 30
0.0
 11
1286.1925
 21
1271.00000054
 31
0.0
  0
LINE
  5
107
330
1F
100
AcDbEntity
  8
TopLayer
100
AcDbLine
 10
1286.1925
 20
1268.99999946
 30
0.0
 11
1286.1925
 21
1270.0
 31
0.0
  0
LINE
  5
108
330
1F
100
AcDbEntity
  8
TopLayer
100
AcDbLine
 10
1285.5575
 20
1268.99999946
 30
0.0
 11
1286.1925
 21
1268.99999946
 31
0.0
  0
LINE
  5
109
330
1F
100
AcDbEntity
  8
TopLayer
100
AcDbLine
 10
1285.5575
 20
1268.99999946
 30
0.0
 11
1285.5575
 21
1270.0
 31
0.0
  0
LINE
  5
10A
330
1F
100
AcDbEntity
  8
TopLayer
100
AcDbLine
 10
1285.5575
 20
1270.0
 30
0.0
 11
1285.5575
 21
1271.00000054
 31
0.0
  0
LINE
  5
10B
330
1F
100
AcDbEntity
  8
TopLayer
100
AcDbLine
 10
1284.9225
 20
1271.00000054
 30
0.0
 11
1285.5575
 21
1271.00000054
 31
0.0
  0
LINE
  5
10C
330
1F
100
AcDbEntity
  8
TopLayer
100
AcDbLine
 10
1284.9225
 20
1270.0
 30
0.0
 11
1284.9225
 21
1271.00000054
 31
0.0
  0
LINE
  5
10D
330
1F
100
AcDbEntity
  8
TopLayer
100
AcDbLine
 10
1284.605
 20
1270.0
 30
0.0
 11
1284.9225
 21
1270.0
 31
0.0
  0
LINE
  5
10E
330
1F
100
AcDbEntity
  8
TopLayer
100
AcDbLine
 10
1295.273
 20
1269.99708662
 30
0.0
 11
1295.55106142
 21
1269.99708662
 31
0.0
  0
LINE
  5
10F
330
1F
100
AcDbEntity
  8
TopLayer
100
AcDbLine
 10
1292.77086378
 20
1269.99708662
 30
0.0
 11
1293.495
 21
1269.99708662
 31
0.0
  0
LINE
  5
110
330
1F
100
AcDbEntity
  8
TopLayer
100
AcDbLine
 10
1295.0825
 20
1269.99708662
 30
0.0
 11
1295.273
 21
1269.99708662
 31
0.0
  0
LINE
  5
111
330
1F
100
AcDbEntity
  8
TopLayer
100
AcDbLine
 10
1295.0825
 20
1269.26713634
 30
0.0
 11
1295.0825
 21
1269.99708662
 31
0.0
  0
LINE
  5
112
330
1F
100
AcDbEntity
  8
TopLayer
100
AcDbLine
 10
1294.4475
 20
1269.26713634
 30
0.0
 11
1295.0825
 21
1269.26713634
 31
0.0
  0
LINE
  5
113
330
1F
100
AcDbEntity
  8
TopLayer
100
AcDbLine
 10
1294.4475
 20
1269.26713634
 30
0.0
 11
1294.4475
 21
1269.99708662
 31
0.0
  0
LINE
  5
114
330
1F
100
AcDbEntity
  8
TopLayer
100
AcDbLine
 10
1294.4475
 20
1269.99708662
 30
0.0
 11
1294.4475
 21
1270.7270369
 31
0.0
  0
LINE
  5
115
330
1F
100
AcDbEntity
  8
TopLayer
100
AcDbLine
 10
1293.8125
 20
1270.7270369
 30
0.0
 11
1294.4475
 21
1270.7270369
 31
0.0
  0
LINE
  5
116
330
1F
100
AcDbEntity
  8
TopLayer
100
AcDbLine
 10
1293.8125
 20
1269.99708662
 30
0.0
 11
1293.8125
 21
1270.7270369
 31
0.0
  0
LINE
  5
117
330
1F
100
AcDbEntity
  8
TopLayer
100
AcDbLine
 10
1293.495
 20
1269.99708662
 30
0.0
 11
1293.8125
 21
1269.99708662
 31
0.0
  0
LINE
  5
118
330
1F
100
AcDbEntity
  8
TopLayer
100
AcDbLine
 10
1264.78541302
 20
1264.5995917
 30
0.0
 11
1264.78541556
 21
1264.5995917
 31
0.0
  0
LINE
  5
119
330
1F
100
AcDbEntity
  8
TopLayer
100
AcDbLine
 10
1264.78541556
 20
1264.5995917
 30
0.0
 11
1269.91940834
 21
1269.73358702
 31
0.0
  0
LINE
  5
11A
330
1F
100
AcDbEntity
  8
TopLayer
100
AcDbLine
 10
1269.91940834
 20
1269.73358702
 30
0.0
 11
1269.91940834
 21
1270.26058622
 31
0.0
  0
LINE
  5
11B
330
1F
100
AcDbEntity
  8
TopLayer
100
AcDbLine
 10
1269.91940834
 20
1270.26058622
 30
0.0
 11
1264.78541302
 21
1275.394579
 31
0.0
  0
LINE
  5
11C
330
1F
100
AcDbEntity
  8
TopLayer
100
AcDbLine
 10
1264.78541302
 20
1275.394579
 30
0.0
 11
1265.04386818
 21
1275.6530367
 31
0.0
  0
LINE
  5
11D
330
1F
100
AcDbEntity
  8
TopLayer
100
AcDbLine
 10
1265.04386818
 20
1275.6530367
 30
0.0
 11
1265.60895976
 21
1276.11679244
 31
0.0
  0
LINE
  5
11E
330
1F
100
AcDbEntity
  8
TopLayer
100
AcDbLine
 10
1265.60895976
 20
1276.11679244
 30
0.0
 11
1266.21678176
 21
1276.52292828
 31
0.0
  0
LINE
  5
11F
330
1F
100
AcDbEntity
  8
TopLayer
100
AcDbLine
 10
1266.21678176
 20
1276.52292828
 30
0.0
 11
1266.86148964
 21
1276.86753008
 31
0.0
  0
LINE
  5
120
330
1F
100
AcDbEntity
  8
TopLayer
100
AcDbLine
 10
1266.86148964
 20
1276.86753008
 30
0.0
 11
1267.53686548
 21
1277.1472806
 31
0.0
  0
LINE
  5
121
330
1F
100
AcDbEntity
  8
TopLayer
100
AcDbLine
 10
1267.53686548
 20
1277.1472806
 30
0.0
 11
1268.23641196
 21
1277.3594849
 31
0.0
  0
LINE
  5
122
330
1F
100
AcDbEntity
  8
TopLayer
100
AcDbLine
 10
1268.23641196
 20
1277.3594849
 30
0.0
 11
1268.95339046
 21
1277.50210082
 31
0.0
  0
LINE
  5
123
330
1F
100
AcDbEntity
  8
TopLayer
100
AcDbLine
 10
1268.95339046
 20
1277.50210082
 30
0.0
 11
1269.68089472
 21
1277.57375422
 31
0.0
  0
LINE
  5
124
330
1F
100
AcDbEntity
  8
TopLayer
100
AcDbLine
 10
1269.68089472
 20
1277.57375422
 30
0.0
 11
1270.0464058
 21
1277.57375422
 31
0.0
  0
LINE
  5
125
330
1F
100
AcDbEntity
  8
TopLayer
100
AcDbLine
 10
1270.0464058
 20
1277.57375422
 30
0.0
 11
1270.41191942
 21
1277.57375422
 31
0.0
  0
LINE
  5
126
330
1F
100
AcDbEntity
  8
TopLayer
100
AcDbLine
 10
1270.41191942
 20
1277.57375422
 30
0.0
 11
1271.13942368
 21
1277.50210082
 31
0.0
  0
LINE
  5
127
330
1F
100
AcDbEntity
  8
TopLayer
100
AcDbLine
 10
1271.13942368
 20
1277.50210082
 30
0.0
 11
1271.85639964
 21
1277.3594849
 31
0.0
  0
LINE
  5
128
330
1F
100
AcDbEntity
  8
TopLayer
100
AcDbLine
 10
1271.85639964
 20
1277.3594849
 30
0.0
 11
1272.55594612
 21
1277.1472806
 31
0.0
  0
LINE
  5
129
330
1F
100
AcDbEntity
  8
TopLayer
100
AcDbLine
 10
1272.55594612
 20
1277.1472806
 30
0.0
 11
1273.2313245
 21
1276.86753008
 31
0.0
  0
LINE
  5
12A
330
1F
100
AcDbEntity
  8
TopLayer
100
AcDbLine
 10
1273.2313245
 20
1276.86753008
 30
0.0
 11
1273.87603238
 21
1276.52292828
 31
0.0
  0
LINE
  5
12B
330
1F
100
AcDbEntity
  8
TopLayer
100
AcDbLine
 10
1273.87603238
 20
1276.52292828
 30
0.0
 11
1274.48385692
 21
1276.11679244
 31
0.0
  0
LINE
  5
12C
330
1F
100
AcDbEntity
  8
TopLayer
100
AcDbLine
 10
1274.48385692
 20
1276.11679244
 30
0.0
 11
1275.04894596
 21
1275.6530367
 31
0.0
  0
LINE
  5
12D
330
1F
100
AcDbEntity
  8
TopLayer
100
AcDbLine
 10
1275.04894596
 20
1275.6530367
 30
0.0
 11
1275.30740112
 21
1275.39458154
 31
0.0
  0
LINE
  5
12E
330
1F
100
AcDbEntity
  8
TopLayer
100
AcDbLine
 10
1275.30740112
 20
1275.39458154
 30
0.0
 11
1275.30740366
 21
1275.39458154
 31
0.0
  0
LINE
  5
12F
330
1F
100
AcDbEntity
  8
TopLayer
100
AcDbLine
 10
1275.30740366
 20
1275.39458154
 30
0.0
 11
1270.17340834
 21
1270.26058622
 31
0.0
  0
LINE
  5
130
330
1F
100
AcDbEntity
  8
TopLayer
100
AcDbLine
 10
1270.17340834
 20
1270.26058622
 30
0.0
 11
1270.17340834
 21
1269.73358702
 31
0.0
  0
LINE
  5
131
330
1F
100
AcDbEntity
  8
TopLayer
100
AcDbLine
 10
1270.17340834
 20
1269.73358702
 30
0.0
 11
1275.30740112
 21
1264.59958916
 31
0.0
  0
LINE
  5
132
330
1F
100
AcDbEntity
  8
TopLayer
100
AcDbLine
 10
1275.30740112
 20
1264.59958916
 30
0.0
 11
1275.04894596
 21
1264.341134
 31
0.0
  0
LINE
  5
133
330
1F
100
AcDbEntity
  8
TopLayer
100
AcDbLine
 10
1275.04894596
 20
1264.341134
 30
0.0
 11
1274.48385692
 21
1263.87737826
 31
0.0
  0
LINE
  5
134
330
1F
100
AcDbEntity
  8
TopLayer
100
AcDbLine
 10
1274.48385692
 20
1263.87737826
 30
0.0
 11
1273.87603238
 21
1263.47124242
 31
0.0
  0
LINE
  5
135
330
1F
100
AcDbEntity
  8
TopLayer
100
AcDbLine
 10
1273.87603238
 20
1263.47124242
 30
0.0
 11
1273.2313245
 21
1263.12664062
 31
0.0
  0
LINE
  5
136
330
1F
100
AcDbEntity
  8
TopLayer
100
AcDbLine
 10
1273.2313245
 20
1263.12664062
 30
0.0
 11
1272.55594612
 21
1262.8468901
 31
0.0
  0
LINE
  5
137
330
1F
100
AcDbEntity
  8
TopLayer
100
AcDbLine
 10
1272.55594612
 20
1262.8468901
 30
0.0
 11
1271.85639964
 21
1262.6346858
 31
0.0
  0
LINE
  5
138
330
1F
100
AcDbEntity
  8
TopLayer
100
AcDbLine
 10
1271.85639964
 20
1262.6346858
 30
0.0
 11
1271.13942368
 21
1262.49206988
 31
0.0
  0
LINE
  5
139
330
1F
100
AcDbEntity
  8
TopLayer
100
AcDbLine
 10
1271.13942368
 20
1262.49206988
 30
0.0
 11
1270.41191942
 21
1262.42041648
 31
0.0
  0
LINE
  5
13A
330
1F
100
AcDbEntity
  8
TopLayer
100
AcDbLine
 10
1270.41191942
 20
1262.42041648
 30
0.0
 11
1270.0464058
 21
1262.42041648
 31
0.0
  0
LINE
  5
13B
330
1F
100
AcDbEntity
  8
TopLayer
100
AcDbLine
 10
1270.0464058
 20
1262.42041648
 30
0.0
 11
1269.68089472
 21
1262.42041648
 31
0.0
  0
LINE
  5
13C
330
1F
100
AcDbEntity
  8
TopLayer
100
AcDbLine
 10
1269.68089472
 20
1262.42041648
 30
0.0
 11
1268.95339046
 21
1262.49206988
 31
0.0
  0
LINE
  5
13D
330
1F
100
AcDbEntity
  8
TopLayer
100
AcDbLine
 10
1268.95339046
 20
1262.49206988
 30
0.0
 11
1268.23641196
 21
1262.6346858
 31
0.0
  0
LINE
  5
13E
330
1F
100
AcDbEntity
  8
TopLayer
100
AcDbLine
 10
1268.23641196
 20
1262.6346858
 30
0.0
 11
1267.53686548
 21
1262.8468901
 31
0.0
  0
LINE
  5
13F
330
1F
100
AcDbEntity
  8
TopLayer
100
AcDbLine
 10
1267.53686548
 20
1262.8468901
 30
0.0
 11
1266.86148964
 21
1263.12664062
 31
0.0
  0
LINE
  5
140
330
1F
100
AcDbEntity
  8
TopLayer
100
AcDbLine
 10
1266.86148964
 20
1263.12664062
 30
0.0
 11
1266.21678176
 21
1263.47124242
 31
0.0
  0
LINE
  5
141
330
1F
100
AcDbEntity
  8
TopLayer
100
AcDbLine
 10
1266.21678176
 20
1263.47124242
 30
0.0
 11
1265.60895976
 21
1263.87737826
 31
0.0
  0
LINE
  5
142
330
1F
100
AcDbEntity
  8
TopLayer
100
AcDbLine
 10
1265.60895976
 20
1263.87737826
 30
0.0
 11
1265.04386818
 21
1264.341134
 31
0.0
  0
LINE
  5
143
330
1F
100
AcDbEntity
  8
TopLayer
100
AcDbLine
 10
1265.04386818
 20
1264.341134
 30
0.0
 11
1264.78541302
 21
1264.5995917
 31
0.0
  0
LINE
  5
144
330
1F
100
AcDbEntity
  8
TopLayer
100
AcDbLine
 10
1261.25800072
 20
1267.11023946
 30
0.0
 11
1261.25800072
 21
1267.11023946
 31
0.0
  0
LINE
  5
145
330
1F
100
AcDbEntity
  8
TopLayer
100
AcDbLine
 10
1261.25800072
 20
1267.11023946
 30
0.0
 11
1261.2570533
 21
1267.11118434
 31
0.0
  0
LINE
  5
146
330
1F
100
AcDbEntity
  8
TopLayer
100
AcDbLine
 10
1261.2570533
 20
1267.11118434
 30
0.0
 11
1261.25602968
 21
1267.1136583
 31
0.0
  0
LINE
  5
147
330
1F
100
AcDbEntity
  8
TopLayer
100
AcDbLine
 10
1261.25602968
 20
1267.1136583
 30
0.0
 11
1261.25602714
 21
1267.116338
 31
0.0
  0
LINE
  5
148
330
1F
100
AcDbEntity
  8
TopLayer
100
AcDbLine
 10
1261.25602714
 20
1267.116338
 30
0.0
 11
1261.2570533
 21
1267.11881196
 31
0.0
  0
LINE
  5
149
330
1F
100
AcDbEntity
  8
TopLayer
100
AcDbLine
 10
1261.2570533
 20
1267.11881196
 30
0.0
 11
1261.25800072
 21
1267.11975684
 31
0.0
  0
LINE
  5
14A
330
1F
100
AcDbEntity
  8
TopLayer
100
AcDbLine
 10
1261.25800072
 20
1267.11975684
 30
0.0
 11
1261.25800072
 21
1267.11975938
 31
0.0
  0
LINE
  5
14B
330
1F
100
AcDbEntity
  8
TopLayer
100
AcDbLine
 10
1261.25800072
 20
1267.11975938
 30
0.0
 11
1263.34761808
 21
1269.20937674
 31
0.0
  0
LINE
  5
14C
330
1F
100
AcDbEntity
  8
TopLayer
100
AcDbLine
 10
1263.34761808
 20
1269.20937674
 30
0.0
 11
1263.34761808
 21
1269.39985642
 31
0.0
  0
LINE
  5
14D
330
1F
100
AcDbEntity
  8
TopLayer
100
AcDbLine
 10
1263.34761808
 20
1269.39985642
 30
0.0
 11
1260.983
 21
1269.39985642
 31
0.0
  0
LINE
  5
14E
330
1F
100
AcDbEntity
  8
TopLayer
100
AcDbLine
 10
1260.983
 20
1269.39985642
 30
0.0
 11
1260.98165888
 21
1269.39985642
 31
0.0
  0
LINE
  5
14F
330
1F
100
AcDbEntity
  8
TopLayer
100
AcDbLine
 10
1260.98165888
 20
1269.39985642
 30
0.0
 11
1260.97918492
 21
1269.40088004
 31
0.0
  0
LINE
  5
150
330
1F
100
AcDbEntity
  8
TopLayer
100
AcDbLine
 10
1260.97918492
 20
1269.40088004
 30
0.0
 11
1260.97729262
 21
1269.40277234
 31
0.0
  0
LINE
  5
151
330
1F
100
AcDbEntity
  8
TopLayer
100
AcDbLine
 10
1260.97729262
 20
1269.40277234
 30
0.0
 11
1260.976269
 21
1269.4052463
 31
0.0
  0
LINE
  5
152
330
1F
100
AcDbEntity
  8
TopLayer
100
AcDbLine
 10
1260.976269
 20
1269.4052463
 30
0.0
 11
1260.976269
 21
1269.40658742
 31
0.0
  0
LINE
  5
153
330
1F
100
AcDbEntity
  8
TopLayer
100
AcDbLine
 10
1260.976269
 20
1269.40658742
 30
0.0
 11
1260.976269
 21
1269.40658742
 31
0.0
  0
LINE
  5
154
330
1F
100
AcDbEntity
  8
TopLayer
100
AcDbLine
 10
1260.976269
 20
1269.40658742
 30
0.0
 11
1260.976269
 21
1270.58758582
 31
0.0
  0
LINE
  5
155
330
1F
100
AcDbEntity
  8
TopLayer
100
AcDbLine
 10
1260.976269
 20
1270.58758582
 30
0.0
 11
1260.976269
 21
1270.5889244
 31
0.0
  0
LINE
  5
156
330
1F
100
AcDbEntity
  8
TopLayer
100
AcDbLine
 10
1260.976269
 20
1270.5889244
 30
0.0
 11
1260.97729262
 21
1270.59139836
 31
0.0
  0
LINE
  5
157
330
1F
100
AcDbEntity
  8
TopLayer
100
AcDbLine
 10
1260.97729262
 20
1270.59139836
 30
0.0
 11
1260.97918492
 21
1270.59329066
 31
0.0
  0
LINE
  5
158
330
1F
100
AcDbEntity
  8
TopLayer
100
AcDbLine
 10
1260.97918492
 20
1270.59329066
 30
0.0
 11
1260.98165888
 21
1270.59431682
 31
0.0
  0
LINE
  5
159
330
1F
100
AcDbEntity
  8
TopLayer
100
AcDbLine
 10
1260.98165888
 20
1270.59431682
 30
0.0
 11
1260.983
 21
1270.59431682
 31
0.0
  0
LINE
  5
15A
330
1F
100
AcDbEntity
  8
TopLayer
100
AcDbLine
 10
1260.983
 20
1270.59431682
 30
0.0
 11
1260.983
 21
1270.59431682
 31
0.0
  0
LINE
  5
15B
330
1F
100
AcDbEntity
  8
TopLayer
100
AcDbLine
 10
1260.983
 20
1270.59431682
 30
0.0
 11
1263.34761808
 21
1270.59431682
 31
0.0
  0
LINE
  5
15C
330
1F
100
AcDbEntity
  8
TopLayer
100
AcDbLine
 10
1263.34761808
 20
1270.59431682
 30
0.0
 11
1263.34761808
 21
1270.7847965
 31
0.0
  0
LINE
  5
15D
330
1F
100
AcDbEntity
  8
TopLayer
100
AcDbLine
 10
1263.34761808
 20
1270.7847965
 30
0.0
 11
1261.25800072
 21
1272.87441386
 31
0.0
  0
LINE
  5
15E
330
1F
100
AcDbEntity
  8
TopLayer
100
AcDbLine
 10
1261.25800072
 20
1272.87441386
 30
0.0
 11
1261.2570533
 21
1272.87535874
 31
0.0
  0
LINE
  5
15F
330
1F
100
AcDbEntity
  8
TopLayer
100
AcDbLine
 10
1261.2570533
 20
1272.87535874
 30
0.0
 11
1261.25602714
 21
1272.8778327
 31
0.0
  0
LINE
  5
160
330
1F
100
AcDbEntity
  8
TopLayer
100
AcDbLine
 10
1261.25602714
 20
1272.8778327
 30
0.0
 11
1261.25602968
 21
1272.8805124
 31
0.0
  0
LINE
  5
161
330
1F
100
AcDbEntity
  8
TopLayer
100
AcDbLine
 10
1261.25602968
 20
1272.8805124
 30
0.0
 11
1261.2570533
 21
1272.88298636
 31
0.0
  0
LINE
  5
162
330
1F
100
AcDbEntity
  8
TopLayer
100
AcDbLine
 10
1261.2570533
 20
1272.88298636
 30
0.0
 11
1261.25800072
 21
1272.88393124
 31
0.0
  0
LINE
  5
163
330
1F
100
AcDbEntity
  8
TopLayer
100
AcDbLine
 10
1261.25800072
 20
1272.88393124
 30
0.0
 11
1261.3672258
 21
1272.99315886
 31
0.0
  0
LINE
  5
164
330
1F
100
AcDbEntity
  8
TopLayer
100
AcDbLine
 10
1261.3672258
 20
1272.99315886
 30
0.0
 11
1261.60603914
 21
1273.18914526
 31
0.0
  0
LINE
  5
165
330
1F
100
AcDbEntity
  8
TopLayer
100
AcDbLine
 10
1261.60603914
 20
1273.18914526
 30
0.0
 11
1261.86291188
 21
1273.36078322
 31
0.0
  0
LINE
  5
166
330
1F
100
AcDbEntity
  8
TopLayer
100
AcDbLine
 10
1261.86291188
 20
1273.36078322
 30
0.0
 11
1262.13537006
 21
1273.50641412
 31
0.0
  0
LINE
  5
167
330
1F
100
AcDbEntity
  8
TopLayer
100
AcDbLine
 10
1262.13537006
 20
1273.50641412
 30
0.0
 11
1262.4207924
 21
1273.62464096
 31
0.0
  0
LINE
  5
168
330
1F
100
AcDbEntity
  8
TopLayer
100
AcDbLine
 10
1262.4207924
 20
1273.62464096
 30
0.0
 11
1262.71642808
 21
1273.71432074
 31
0.0
  0
LINE
  5
169
330
1F
100
AcDbEntity
  8
TopLayer
100
AcDbLine
 10
1262.71642808
 20
1273.71432074
 30
0.0
 11
1263.01942976
 21
1273.7745924
 31
0.0
  0
LINE
  5
16A
330
1F
100
AcDbEntity
  8
TopLayer
100
AcDbLine
 10
1263.01942976
 20
1273.7745924
 30
0.0
 11
1263.32687898
 21
1273.80487174
 31
0.0
  0
LINE
  5
16B
330
1F
100
AcDbEntity
  8
TopLayer
100
AcDbLine
 10
1263.32687898
 20
1273.80487174
 30
0.0
 11
1263.48134654
 21
1273.80487174
 31
0.0
  0
LINE
  5
16C
330
1F
100
AcDbEntity
  8
TopLayer
100
AcDbLine
 10
1263.48134654
 20
1273.80487174
 30
0.0
 11
1263.48134908
 21
1273.80487174
 31
0.0
  0
LINE
  5
16D
330
1F
100
AcDbEntity
  8
TopLayer
100
AcDbLine
 10
1263.48134908
 20
1273.80487174
 30
0.0
 11
1263.63581664
 21
1273.80487174
 31
0.0
  0
LINE
  5
16E
330
1F
100
AcDbEntity
  8
TopLayer
100
AcDbLine
 10
1263.63581664
 20
1273.80487174
 30
0.0
 11
1263.94326586
 21
1273.7745924
 31
0.0
  0
LINE
  5
16F
330
1F
100
AcDbEntity
  8
TopLayer
100
AcDbLine
 10
1263.94326586
 20
1273.7745924
 30
0.0
 11
1264.24626754
 21
1273.71432074
 31
0.0
  0
LINE
  5
170
330
1F
100
AcDbEntity
  8
TopLayer
100
AcDbLine
 10
1264.24626754
 20
1273.71432074
 30
0.0
 11
1264.54190322
 21
1273.62464096
 31
0.0
  0
LINE
  5
171
330
1F
100
AcDbEntity
  8
TopLayer
100
AcDbLine
 10
1264.54190322
 20
1273.62464096
 30
0.0
 11
1264.82732556
 21
1273.50641412
 31
0.0
  0
LINE
  5
172
330
1F
100
AcDbEntity
  8
TopLayer
100
AcDbLine
 10
1264.82732556
 20
1273.50641412
 30
0.0
 11
1265.09978374
 21
1273.36078322
 31
0.0
  0
LINE
  5
173
330
1F
100
AcDbEntity
  8
TopLayer
100
AcDbLine
 10
1265.09978374
 20
1273.36078322
 30
0.0
 11
1265.35665648
 21
1273.18914526
 31
0.0
  0
LINE
  5
174
330
1F
100
AcDbEntity
  8
TopLayer
100
AcDbLine
 10
1265.35665648
 20
1273.18914526
 30
0.0
 11
1265.59546982
 21
1272.99315886
 31
0.0
  0
LINE
  5
175
330
1F
100
AcDbEntity
  8
TopLayer
100
AcDbLine
 10
1265.59546982
 20
1272.99315886
 30
0.0
 11
1265.7046949
 21
1272.88393124
 31
0.0
  0
LINE
  5
176
330
1F
100
AcDbEntity
  8
TopLayer
100
AcDbLine
 10
1265.7046949
 20
1272.88393124
 30
0.0
 11
1265.7051648
 21
1272.88346388
 31
0.0
  0
LINE
  5
177
330
1F
100
AcDbEntity
  8
TopLayer
100
AcDbLine
 10
1265.7051648
 20
1272.88346388
 30
0.0
 11
1265.7059014
 21
1272.88236152
 31
0.0
  0
LINE
  5
178
330
1F
100
AcDbEntity
  8
TopLayer
100
AcDbLine
 10
1265.7059014
 20
1272.88236152
 30
0.0
 11
1265.7064094
 21
1272.8811347
 31
0.0
  0
LINE
  5
179
330
1F
100
AcDbEntity
  8
TopLayer
100
AcDbLine
 10
1265.7064094
 20
1272.8811347
 30
0.0
 11
1265.70666848
 21
1272.87983676
 31
0.0
  0
LINE
  5
17A
330
1F
100
AcDbEntity
  8
TopLayer
100
AcDbLine
 10
1265.70666848
 20
1272.87983676
 30
0.0
 11
1265.70666848
 21
1272.87917382
 31
0.0
  0
LINE
  5
17B
330
1F
100
AcDbEntity
  8
TopLayer
100
AcDbLine
 10
1265.70666848
 20
1272.87917382
 30
0.0
 11
1265.70666848
 21
1272.87850834
 31
0.0
  0
LINE
  5
17C
330
1F
100
AcDbEntity
  8
TopLayer
100
AcDbLine
 10
1265.70666848
 20
1272.87850834
 30
0.0
 11
1265.7064094
 21
1272.8772104
 31
0.0
  0
LINE
  5
17D
330
1F
100
AcDbEntity
  8
TopLayer
100
AcDbLine
 10
1265.7064094
 20
1272.8772104
 30
0.0
 11
1265.7059014
 21
1272.87598358
 31
0.0
  0
LINE
  5
17E
330
1F
100
AcDbEntity
  8
TopLayer
100
AcDbLine
 10
1265.7059014
 20
1272.87598358
 30
0.0
 11
1265.7051648
 21
1272.87488122
 31
0.0
  0
LINE
  5
17F
330
1F
100
AcDbEntity
  8
TopLayer
100
AcDbLine
 10
1265.7051648
 20
1272.87488122
 30
0.0
 11
1265.7046949
 21
1272.87441386
 31
0.0
  0
LINE
  5
180
330
1F
100
AcDbEntity
  8
TopLayer
100
AcDbLine
 10
1265.7046949
 20
1272.87441386
 30
0.0
 11
1265.70469744
 21
1272.87441386
 31
0.0
  0
LINE
  5
181
330
1F
100
AcDbEntity
  8
TopLayer
100
AcDbLine
 10
1265.70469744
 20
1272.87441386
 30
0.0
 11
1263.61508008
 21
1270.7847965
 31
0.0
  0
LINE
  5
182
330
1F
100
AcDbEntity
  8
TopLayer
100
AcDbLine
 10
1263.61508008
 20
1270.7847965
 30
0.0
 11
1263.61508008
 21
1269.20937674
 31
0.0
  0
LINE
  5
183
330
1F
100
AcDbEntity
  8
TopLayer
100
AcDbLine
 10
1263.61508008
 20
1269.20937674
 30
0.0
 11
1265.7046949
 21
1267.11975684
 31
0.0
  0
LINE
  5
184
330
1F
100
AcDbEntity
  8
TopLayer
100
AcDbLine
 10
1265.7046949
 20
1267.11975684
 30
0.0
 11
1265.7051648
 21
1267.11928948
 31
0.0
  0
LINE
  5
185
330
1F
100
AcDbEntity
  8
TopLayer
100
AcDbLine
 10
1265.7051648
 20
1267.11928948
 30
0.0
 11
1265.7059014
 21
1267.11818712
 31
0.0
  0
LINE
  5
186
330
1F
100
AcDbEntity
  8
TopLayer
100
AcDbLine
 10
1265.7059014
 20
1267.11818712
 30
0.0
 11
1265.7064094
 21
1267.1169603
 31
0.0
  0
LINE
  5
187
330
1F
100
AcDbEntity
  8
TopLayer
100
AcDbLine
 10
1265.7064094
 20
1267.1169603
 30
0.0
 11
1265.70666848
 21
1267.11566236
 31
0.0
  0
LINE
  5
188
330
1F
100
AcDbEntity
  8
TopLayer
100
AcDbLine
 10
1265.70666848
 20
1267.11566236
 30
0.0
 11
1265.70666848
 21
1267.11499942
 31
0.0
  0
LINE
  5
189
330
1F
100
AcDbEntity
  8
TopLayer
100
AcDbLine
 10
1265.70666848
 20
1267.11499942
 30
0.0
 11
1265.70666848
 21
1267.11433394
 31
0.0
  0
LINE
  5
18A
330
1F
100
AcDbEntity
  8
TopLayer
100
AcDbLine
 10
1265.70666848
 20
1267.11433394
 30
0.0
 11
1265.7064094
 21
1267.113036
 31
0.0
  0
LINE
  5
18B
330
1F
100
AcDbEntity
  8
TopLayer
100
AcDbLine
 10
1265.7064094
 20
1267.113036
 30
0.0
 11
1265.7059014
 21
1267.11180918
 31
0.0
  0
LINE
  5
18C
330
1F
100
AcDbEntity
  8
TopLayer
100
AcDbLine
 10
1265.7059014
 20
1267.11180918
 30
0.0
 11
1265.7051648
 21
1267.11070682
 31
0.0
  0
LINE
  5
18D
330
1F
100
AcDbEntity
  8
TopLayer
100
AcDbLine
 10
1265.7051648
 20
1267.11070682
 30
0.0
 11
1265.7046949
 21
1267.11023946
 31
0.0
  0
LINE
  5
18E
330
1F
100
AcDbEntity
  8
TopLayer
100
AcDbLine
 10
1265.7046949
 20
1267.11023946
 30
0.0
 11
1265.59546982
 21
1267.00101184
 31
0.0
  0
LINE
  5
18F
330
1F
100
AcDbEntity
  8
TopLayer
100
AcDbLine
 10
1265.59546982
 20
1267.00101184
 30
0.0
 11
1265.35665648
 21
1266.80502544
 31
0.0
  0
LINE
  5
190
330
1F
100
AcDbEntity
  8
TopLayer
100
AcDbLine
 10
1265.35665648
 20
1266.80502544
 30
0.0
 11
1265.09978374
 21
1266.63338748
 31
0.0
  0
LINE
  5
191
330
1F
100
AcDbEntity
  8
TopLayer
100
AcDbLine
 10
1265.09978374
 20
1266.63338748
 30
0.0
 11
1264.82732556
 21
1266.48775658
 31
0.0
  0
LINE
  5
192
330
1F
100
AcDbEntity
  8
TopLayer
100
AcDbLine
 10
1264.82732556
 20
1266.48775658
 30
0.0
 11
1264.54190322
 21
1266.36952974
 31
0.0
  0
LINE
  5
193
330
1F
100
AcDbEntity
  8
TopLayer
100
AcDbLine
 10
1264.54190322
 20
1266.36952974
 30
0.0
 11
1264.24626754
 21
1266.27984996
 31
0.0
  0
LINE
  5
194
330
1F
100
AcDbEntity
  8
TopLayer
100
AcDbLine
 10
1264.24626754
 20
1266.27984996
 30
0.0
 11
1263.94326586
 21
1266.2195783
 31
0.0
  0
LINE
  5
195
330
1F
100
AcDbEntity
  8
TopLayer
100
AcDbLine
 10
1263.94326586
 20
1266.2195783
 30
0.0
 11
1263.63581664
 21
1266.18929896
 31
0.0
  0
LINE
  5
196
330
1F
100
AcDbEntity
  8
TopLayer
100
AcDbLine
 10
1263.63581664
 20
1266.18929896
 30
0.0
 11
1263.48134908
 21
1266.18929896
 31
0.0
  0
LINE
  5
197
330
1F
100
AcDbEntity
  8
TopLayer
100
AcDbLine
 10
1263.48134908
 20
1266.18929896
 30
0.0
 11
1263.32687898
 21
1266.18929896
 31
0.0
  0
LINE
  5
198
330
1F
100
AcDbEntity
  8
TopLayer
100
AcDbLine
 10
1263.32687898
 20
1266.18929896
 30
0.0
 11
1263.01942976
 21
1266.2195783
 31
0.0
  0
LINE
  5
199
330
1F
100
AcDbEntity
  8
TopLayer
100
AcDbLine
 10
1263.01942976
 20
1266.2195783
 30
0.0
 11
1262.71642808
 21
1266.27984996
 31
0.0
  0
LINE
  5
19A
330
1F
100
AcDbEntity
  8
TopLayer
100
AcDbLine
 10
1262.71642808
 20
1266.27984996
 30
0.0
 11
1262.4207924
 21
1266.36952974
 31
0.0
  0
LINE
  5
19B
330
1F
100
AcDbEntity
  8
TopLayer
100
AcDbLine
 10
1262.4207924
 20
1266.36952974
 30
0.0
 11
1262.13537006
 21
1266.48775658
 31
0.0
  0
LINE
  5
19C
330
1F
100
AcDbEntity
  8
TopLayer
100
AcDbLine
 10
1262.13537006
 20
1266.48775658
 30
0.0
 11
1261.86291188
 21
1266.63338748
 31
0.0
  0
LINE
  5
19D
330
1F
100
AcDbEntity
  8
TopLayer
100
AcDbLine
 10
1261.86291188
 20
1266.63338748
 30
0.0
 11
1261.60603914
 21
1266.80502544
 31
0.0
  0
LINE
  5
19E
330
1F
100
AcDbEntity
  8
TopLayer
100
AcDbLine
 10
1261.60603914
 20
1266.80502544
 30
0.0
 11
1261.3672258
 21
1267.00101184
 31
0.0
  0
LINE
  5
19F
330
1F
100
AcDbEntity
  8
TopLayer
100
AcDbLine
 10
1261.3672258
 20
1267.00101184
 30
0.0
 11
1261.25800072
 21
1267.11023946
 31
0.0
  0
LINE
  5
1A0
330
1F
100
AcDbEntity
  8
TopLayer
100
AcDbLine
 10
1276.33093222
 20
1264.12648876
 30
0.0
 11
1276.33093222
 21
1264.1264913
 31
0.0
  0
LINE
  5
1A1
330
1F
100
AcDbEntity
  8
TopLayer
100
AcDbLine
 10
1276.33093222
 20
1264.1264913
 30
0.0
 11
1281.93802794
 21
1269.73358702
 31
0.0
  0
LINE
  5
1A2
330
1F
100
AcDbEntity
  8
TopLayer
100
AcDbLine
 10
1281.93802794
 20
1269.73358702
 30
0.0
 11
1281.93802794
 21
1270.26058622
 31
0.0
  0
LINE
  5
1A3
330
1F
100
AcDbEntity
  8
TopLayer
100
AcDbLine
 10
1281.93802794
 20
1270.26058622
 30
0.0
 11
1276.33093222
 21
1275.86768194
 31
0.0
  0
LINE
  5
1A4
330
1F
100
AcDbEntity
  8
TopLayer
100
AcDbLine
 10
1276.33093222
 20
1275.86768194
 30
0.0
 11
1276.61263092
 21
1276.1493781
 31
0.0
  0
LINE
  5
1A5
330
1F
100
AcDbEntity
  8
TopLayer
100
AcDbLine
 10
1276.61263092
 20
1276.1493781
 30
0.0
 11
1277.2285352
 21
1276.6548381
 31
0.0
  0
LINE
  5
1A6
330
1F
100
AcDbEntity
  8
TopLayer
100
AcDbLine
 10
1277.2285352
 20
1276.6548381
 30
0.0
 11
1277.89102054
 21
1277.0974966
 31
0.0
  0
LINE
  5
1A7
330
1F
100
AcDbEntity
  8
TopLayer
100
AcDbLine
 10
1277.89102054
 20
1277.0974966
 30
0.0
 11
1278.59370138
 21
1277.4730864
 31
0.0
  0
LINE
  5
1A8
330
1F
100
AcDbEntity
  8
TopLayer
100
AcDbLine
 10
1278.59370138
 20
1277.4730864
 30
0.0
 11
1279.3298137
 21
1277.77799562
 31
0.0
  0
LINE
  5
1A9
330
1F
100
AcDbEntity
  8
TopLayer
100
AcDbLine
 10
1279.3298137
 20
1277.77799562
 30
0.0
 11
1280.09226836
 21
1278.00928294
 31
0.0
  0
LINE
  5
1AA
330
1F
100
AcDbEntity
  8
TopLayer
100
AcDbLine
 10
1280.09226836
 20
1278.00928294
 30
0.0
 11
1280.87371968
 21
1278.16472586
 31
0.0
  0
LINE
  5
1AB
330
1F
100
AcDbEntity
  8
TopLayer
100
AcDbLine
 10
1280.87371968
 20
1278.16472586
 30
0.0
 11
1281.66664672
 21
1278.2428207
 31
0.0
  0
LINE
  5
1AC
330
1F
100
AcDbEntity
  8
TopLayer
100
AcDbLine
 10
1281.66664672
 20
1278.2428207
 30
0.0
 11
1282.06502794
 21
1278.2428207
 31
0.0
  0
LINE
  5
1AD
330
1F
100
AcDbEntity
  8
TopLayer
100
AcDbLine
 10
1282.06502794
 20
1278.2428207
 30
0.0
 11
1282.46340662
 21
1278.2428207
 31
0.0
  0
LINE
  5
1AE
330
1F
100
AcDbEntity
  8
TopLayer
100
AcDbLine
 10
1282.46340662
 20
1278.2428207
 30
0.0
 11
1283.25633366
 21
1278.16472586
 31
0.0
  0
LINE
  5
1AF
330
1F
100
AcDbEntity
  8
TopLayer
100
AcDbLine
 10
1283.25633366
 20
1278.16472586
 30
0.0
 11
1284.03778498
 21
1278.00928294
 31
0.0
  0
LINE
  5
1B0
330
1F
100
AcDbEntity
  8
TopLayer
100
AcDbLine
 10
1284.03778498
 20
1278.00928294
 30
0.0
 11
1284.80023964
 21
1277.77799562
 31
0.0
  0
LINE
  5
1B1
330
1F
100
AcDbEntity
  8
TopLayer
100
AcDbLine
 10
1284.80023964
 20
1277.77799562
 30
0.0
 11
1285.53635196
 21
1277.4730864
 31
0.0
  0
LINE
  5
1B2
330
1F
100
AcDbEntity
  8
TopLayer
100
AcDbLine
 10
1285.53635196
 20
1277.4730864
 30
0.0
 11
1286.2390328
 21
1277.0974966
 31
0.0
  0
LINE
  5
1B3
330
1F
100
AcDbEntity
  8
TopLayer
100
AcDbLine
 10
1286.2390328
 20
1277.0974966
 30
0.0
 11
1286.90151814
 21
1276.6548381
 31
0.0
  0
LINE
  5
1B4
330
1F
100
AcDbEntity
  8
TopLayer
100
AcDbLine
 10
1286.90151814
 20
1276.6548381
 30
0.0
 11
1287.51742242
 21
1276.1493781
 31
0.0
  0
LINE
  5
1B5
330
1F
100
AcDbEntity
  8
TopLayer
100
AcDbLine
 10
1287.51742242
 20
1276.1493781
 30
0.0
 11
1287.79912112
 21
1275.86768194
 31
0.0
  0
LINE
  5
1B6
330
1F
100
AcDbEntity
  8
TopLayer
100
AcDbLine
 10
1287.79912112
 20
1275.86768194
 30
0.0
 11
1287.79912366
 21
1275.86768194
 31
0.0
  0
LINE
  5
1B7
330
1F
100
AcDbEntity
  8
TopLayer
100
AcDbLine
 10
1287.79912366
 20
1275.86768194
 30
0.0
 11
1282.19202794
 21
1270.26058622
 31
0.0
  0
LINE
  5
1B8
330
1F
100
AcDbEntity
  8
TopLayer
100
AcDbLine
 10
1282.19202794
 20
1270.26058622
 30
0.0
 11
1282.19202794
 21
1269.73358702
 31
0.0
  0
LINE
  5
1B9
330
1F
100
AcDbEntity
  8
TopLayer
100
AcDbLine
 10
1282.19202794
 20
1269.73358702
 30
0.0
 11
1287.79912112
 21
1264.12648876
 31
0.0
  0
LINE
  5
1BA
330
1F
100
AcDbEntity
  8
TopLayer
100
AcDbLine
 10
1287.79912112
 20
1264.12648876
 30
0.0
 11
1287.51742242
 21
1263.8447926
 31
0.0
  0
LINE
  5
1BB
330
1F
100
AcDbEntity
  8
TopLayer
100
AcDbLine
 10
1287.51742242
 20
1263.8447926
 30
0.0
 11
1286.90151814
 21
1263.3393326
 31
0.0
  0
LINE
  5
1BC
330
1F
100
AcDbEntity
  8
TopLayer
100
AcDbLine
 10
1286.90151814
 20
1263.3393326
 30
0.0
 11
1286.2390328
 21
1262.8966741
 31
0.0
  0
LINE
  5
1BD
330
1F
100
AcDbEntity
  8
TopLayer
100
AcDbLine
 10
1286.2390328
 20
1262.8966741
 30
0.0
 11
1285.53635196
 21
1262.5210843
 31
0.0
  0
LINE
  5
1BE
330
1F
100
AcDbEntity
  8
TopLayer
100
AcDbLine
 10
1285.53635196
 20
1262.5210843
 30
0.0
 11
1284.80023964
 21
1262.21617508
 31
0.0
  0
LINE
  5
1BF
330
1F
100
AcDbEntity
  8
TopLayer
100
AcDbLine
 10
1284.80023964
 20
1262.21617508
 30
0.0
 11
1284.03778498
 21
1261.98488776
 31
0.0
  0
LINE
  5
1C0
330
1F
100
AcDbEntity
  8
TopLayer
100
AcDbLine
 10
1284.03778498
 20
1261.98488776
 30
0.0
 11
1283.25633366
 21
1261.82944484
 31
0.0
  0
LINE
  5
1C1
330
1F
100
AcDbEntity
  8
TopLayer
100
AcDbLine
 10
1283.25633366
 20
1261.82944484
 30
0.0
 11
1282.46340662
 21
1261.75135
 31
0.0
  0
LINE
  5
1C2
330
1F
100
AcDbEntity
  8
TopLayer
100
AcDbLine
 10
1282.46340662
 20
1261.75135
 30
0.0
 11
1282.0650254
 21
1261.75135
 31
0.0
  0
LINE
  5
1C3
330
1F
100
AcDbEntity
  8
TopLayer
100
AcDbLine
 10
1282.0650254
 20
1261.75135
 30
0.0
 11
1281.66664672
 21
1261.75135
 31
0.0
  0
LINE
  5
1C4
330
1F
100
AcDbEntity
  8
TopLayer
100
AcDbLine
 10
1281.66664672
 20
1261.75135
 30
0.0
 11
1280.87371968
 21
1261.82944484
 31
0.0
  0
LINE
  5
1C5
330
1F
100
AcDbEntity
  8
TopLayer
100
AcDbLine
 10
1280.87371968
 20
1261.82944484
 30
0.0
 11
1280.09226836
 21
1261.98488776
 31
0.0
  0
LINE
  5
1C6
330
1F
100
AcDbEntity
  8
TopLayer
100
AcDbLine
 10
1280.09226836
 20
1261.98488776
 30
0.0
 11
1279.3298137
 21
1262.21617508
 31
0.0
  0
LINE
  5
1C7
330
1F
100
AcDbEntity
  8
TopLayer
100
AcDbLine
 10
1279.3298137
 20
1262.21617508
 30
0.0
 11
1278.59370138
 21
1262.5210843
 31
0.0
  0
LINE
  5
1C8
330
1F
100
AcDbEntity
  8
TopLayer
100
AcDbLine
 10
1278.59370138
 20
1262.5210843
 30
0.0
 11
1277.89102054
 21
1262.8966741
 31
0.0
  0
LINE
  5
1C9
330
1F
100
AcDbEntity
  8
TopLayer
100
AcDbLine
 10
1277.89102054
 20
1262.8966741
 30
0.0
 11
1277.2285352
 21
1263.3393326
 31
0.0
  0
LINE
  5
1CA
330
1F
100
AcDbEntity
  8
TopLayer
100
AcDbLine
 10
1277.2285352
 20
1263.3393326
 30
0.0
 11
1276.61263092
 21
1263.8447926
 31
0.0
  0
LINE
  5
1CB
330
1F
100
AcDbEntity
  8
TopLayer
100
AcDbLine
 10
1276.61263092
 20
1263.8447926
 30
0.0
 11
1276.33093222
 21
1264.12648876
 31
0.0
  0
LINE
  5
1CC
330
1F
100
AcDbEntity
  8
TopLayer
100
AcDbLine
 10
1288.11744154
 20
1265.33416224
 30
0.0
 11
1288.11744408
 21
1265.33416478
 31
0.0
  0
LINE
  5
1CD
330
1F
100
AcDbEntity
  8
TopLayer
100
AcDbLine
 10
1288.11744408
 20
1265.33416478
 30
0.0
 11
1292.51686378
 21
1269.73358702
 31
0.0
  0
LINE
  5
1CE
330
1F
100
AcDbEntity
  8
TopLayer
100
AcDbLine
 10
1292.51686378
 20
1269.73358702
 30
0.0
 11
1292.51686378
 21
1270.26058622
 31
0.0
  0
LINE
  5
1CF
330
1F
100
AcDbEntity
  8
TopLayer
100
AcDbLine
 10
1292.51686378
 20
1270.26058622
 30
0.0
 11
1288.11744154
 21
1274.66000846
 31
0.0
  0
LINE
  5
1D0
330
1F
100
AcDbEntity
  8
TopLayer
100
AcDbLine
 10
1288.11744154
 20
1274.66000846
 30
0.0
 11
1288.33981092
 21
1274.8823753
 31
0.0
  0
LINE
  5
1D1
330
1F
100
AcDbEntity
  8
TopLayer
100
AcDbLine
 10
1288.33981092
 20
1274.8823753
 30
0.0
 11
1288.82599994
 21
1275.28137882
 31
0.0
  0
LINE
  5
1D2
330
1F
100
AcDbEntity
  8
TopLayer
100
AcDbLine
 10
1288.82599994
 20
1275.28137882
 30
0.0
 11
1289.34895546
 21
1275.63080662
 31
0.0
  0
LINE
  5
1D3
330
1F
100
AcDbEntity
  8
TopLayer
100
AcDbLine
 10
1289.34895546
 20
1275.63080662
 30
0.0
 11
1289.9036432
 21
1275.9272932
 31
0.0
  0
LINE
  5
1D4
330
1F
100
AcDbEntity
  8
TopLayer
100
AcDbLine
 10
1289.9036432
 20
1275.9272932
 30
0.0
 11
1290.48472154
 21
1276.1679836
 31
0.0
  0
LINE
  5
1D5
330
1F
100
AcDbEntity
  8
TopLayer
100
AcDbLine
 10
1290.48472154
 20
1276.1679836
 30
0.0
 11
1291.08659232
 21
1276.3505588
 31
0.0
  0
LINE
  5
1D6
330
1F
100
AcDbEntity
  8
TopLayer
100
AcDbLine
 10
1291.08659232
 20
1276.3505588
 30
0.0
 11
1291.70345926
 21
1276.47326112
 31
0.0
  0
LINE
  5
1D7
330
1F
100
AcDbEntity
  8
TopLayer
100
AcDbLine
 10
1291.70345926
 20
1276.47326112
 30
0.0
 11
1292.32938384
 21
1276.53490946
 31
0.0
  0
LINE
  5
1D8
330
1F
100
AcDbEntity
  8
TopLayer
100
AcDbLine
 10
1292.32938384
 20
1276.53490946
 30
0.0
 11
1292.64386124
 21
1276.53490946
 31
0.0
  0
LINE
  5
1D9
330
1F
100
AcDbEntity
  8
TopLayer
100
AcDbLine
 10
1292.64386124
 20
1276.53490946
 30
0.0
 11
1292.95833864
 21
1276.53490946
 31
0.0
  0
LINE
  5
1DA
330
1F
100
AcDbEntity
  8
TopLayer
100
AcDbLine
 10
1292.95833864
 20
1276.53490946
 30
0.0
 11
1293.58426576
 21
1276.47326112
 31
0.0
  0
LINE
  5
1DB
330
1F
100
AcDbEntity
  8
TopLayer
100
AcDbLine
 10
1293.58426576
 20
1276.47326112
 30
0.0
 11
1294.2011327
 21
1276.3505588
 31
0.0
  0
LINE
  5
1DC
330
1F
100
AcDbEntity
  8
TopLayer
100
AcDbLine
 10
1294.2011327
 20
1276.3505588
 30
0.0
 11
1294.80300602
 21
1276.1679836
 31
0.0
  0
LINE
  5
1DD
330
1F
100
AcDbEntity
  8
TopLayer
100
AcDbLine
 10
1294.80300602
 20
1276.1679836
 30
0.0
 11
1295.38408182
 21
1275.9272932
 31
0.0
  0
LINE
  5
1DE
330
1F
100
AcDbEntity
  8
TopLayer
100
AcDbLine
 10
1295.38408182
 20
1275.9272932
 30
0.0
 11
1295.9387721
 21
1275.63080662
 31
0.0
  0
LINE
  5
1DF
330
1F
100
AcDbEntity
  8
TopLayer
100
AcDbLine
 10
1295.9387721
 20
1275.63080662
 30
0.0
 11
1296.46172762
 21
1275.28137882
 31
0.0
  0
LINE
  5
1E0
330
1F
100
AcDbEntity
  8
TopLayer
100
AcDbLine
 10
1296.46172762
 20
1275.28137882
 30
0.0
 11
1296.94791664
 21
1274.8823753
 31
0.0
  0
LINE
  5
1E1
330
1F
100
AcDbEntity
  8
TopLayer
100
AcDbLine
 10
1296.94791664
 20
1274.8823753
 30
0.0
 11
1297.17028602
 21
1274.66000592
 31
0.0
  0
LINE
  5
1E2
330
1F
100
AcDbEntity
  8
TopLayer
100
AcDbLine
 10
1297.17028602
 20
1274.66000592
 30
0.0
 11
1297.17028602
 21
1274.66000846
 31
0.0
  0
LINE
  5
1E3
330
1F
100
AcDbEntity
  8
TopLayer
100
AcDbLine
 10
1297.17028602
 20
1274.66000846
 30
0.0
 11
1292.77086378
 21
1270.26058622
 31
0.0
  0
LINE
  5
1E4
330
1F
100
AcDbEntity
  8
TopLayer
100
AcDbLine
 10
1292.77086378
 20
1270.26058622
 30
0.0
 11
1292.77086378
 21
1269.73358702
 31
0.0
  0
LINE
  5
1E5
330
1F
100
AcDbEntity
  8
TopLayer
100
AcDbLine
 10
1292.77086378
 20
1269.73358702
 30
0.0
 11
1297.17028602
 21
1265.33416478
 31
0.0
  0
LINE
  5
1E6
330
1F
100
AcDbEntity
  8
TopLayer
100
AcDbLine
 10
1297.17028602
 20
1265.33416478
 30
0.0
 11
1296.94791664
 21
1265.1117954
 31
0.0
  0
LINE
  5
1E7
330
1F
100
AcDbEntity
  8
TopLayer
100
AcDbLine
 10
1296.94791664
 20
1265.1117954
 30
0.0
 11
1296.46172762
 21
1264.71279188
 31
0.0
  0
LINE
  5
1E8
330
1F
100
AcDbEntity
  8
TopLayer
100
AcDbLine
 10
1296.46172762
 20
1264.71279188
 30
0.0
 11
1295.9387721
 21
1264.36336408
 31
0.0
  0
LINE
  5
1E9
330
1F
100
AcDbEntity
  8
TopLayer
100
AcDbLine
 10
1295.9387721
 20
1264.36336408
 30
0.0
 11
1295.38408182
 21
1264.0668775
 31
0.0
  0
LINE
  5
1EA
330
1F
100
AcDbEntity
  8
TopLayer
100
AcDbLine
 10
1295.38408182
 20
1264.0668775
 30
0.0
 11
1294.80300602
 21
1263.8261871
 31
0.0
  0
LINE
  5
1EB
330
1F
100
AcDbEntity
  8
TopLayer
100
AcDbLine
 10
1294.80300602
 20
1263.8261871
 30
0.0
 11
1294.2011327
 21
1263.6436119
 31
0.0
  0
LINE
  5
1EC
330
1F
100
AcDbEntity
  8
TopLayer
100
AcDbLine
 10
1294.2011327
 20
1263.6436119
 30
0.0
 11
1293.58426576
 21
1263.52090958
 31
0.0
  0
LINE
  5
1ED
330
1F
100
AcDbEntity
  8
TopLayer
100
AcDbLine
 10
1293.58426576
 20
1263.52090958
 30
0.0
 11
1292.95833864
 21
1263.45926124
 31
0.0
  0
LINE
  5
1EE
330
1F
100
AcDbEntity
  8
TopLayer
100
AcDbLine
 10
1292.95833864
 20
1263.45926124
 30
0.0
 11
1292.64386124
 21
1263.45926124
 31
0.0
  0
LINE
  5
1EF
330
1F
100
AcDbEntity
  8
TopLayer
100
AcDbLine
 10
1292.64386124
 20
1263.45926124
 30
0.0
 11
1292.32938384
 21
1263.45926124
 31
0.0
  0
LINE
  5
1F0
330
1F
100
AcDbEntity
  8
TopLayer
100
AcDbLine
 10
1292.32938384
 20
1263.45926124
 30
0.0
 11
1291.70345926
 21
1263.52090958
 31
0.0
  0
LINE
  5
1F1
330
1F
100
AcDbEntity
  8
TopLayer
100
AcDbLine
 10
1291.70345926
 20
1263.52090958
 30
0.0
 11
1291.08659232
 21
1263.6436119
 31
0.0
  0
LINE
  5
1F2
330
1F
100
AcDbEntity
  8
TopLayer
100
AcDbLine
 10
1291.08659232
 20
1263.6436119
 30
0.0
 11
1290.48472154
 21
1263.8261871
 31
0.0
  0
LINE
  5
1F3
330
1F
100
AcDbEntity
  8
TopLayer
100
AcDbLine
 10
1290.48472154
 20
1263.8261871
 30
0.0
 11
1289.9036432
 21
1264.0668775
 31
0.0
  0
LINE
  5
1F4
330
1F
100
AcDbEntity
  8
TopLayer
100
AcDbLine
 10
1289.9036432
 20
1264.0668775
 30
0.0
 11
1289.34895546
 21
1264.36336408
 31
0.0
  0
LINE
  5
1F5
330
1F
100
AcDbEntity
  8
TopLayer
100
AcDbLine
 10
1289.34895546
 20
1264.36336408
 30
0.0
 11
1288.82599994
 21
1264.71279188
 31
0.0
  0
LINE
  5
1F6
330
1F
100
AcDbEntity
  8
TopLayer
100
AcDbLine
 10
1288.82599994
 20
1264.71279188
 30
0.0
 11
1288.33981092
 21
1265.1117954
 31
0.0
  0
LINE
  5
1F7
330
1F
100
AcDbEntity
  8
TopLayer
100
AcDbLine
 10
1288.33981092
 20
1265.1117954
 30
0.0
 11
1288.11744154
 21
1265.33416224
 31
0.0
  0
LINE
  5
1F8
330
1F
100
AcDbEntity
  8
TopLayer
100
AcDbLine
 10
1295.55106142
 20
1270.58467244
 30
0.0
 11
1295.55106142
 21
1269.40367404
 31
0.0
  0
LINE
  5
1F9
330
1F
100
AcDbEntity
  8
TopLayer
100
AcDbLine
 10
1295.55106142
 20
1269.40367404
 30
0.0
 11
1298.09106142
 21
1269.40367404
 31
0.0
  0
LINE
  5
1FA
330
1F
100
AcDbEntity
  8
TopLayer
100
AcDbLine
 10
1298.09106142
 20
1269.40367404
 30
0.0
 11
1298.09106142
 21
1270.58467244
 31
0.0
  0
LINE
  5
1FB
330
1F
100
AcDbEntity
  8
TopLayer
100
AcDbLine
 10
1298.09106142
 20
1270.58467244
 30
0.0
 11
1295.55106142
 21
1270.58467244
 31
0.0
  0
ENDSEC
  0
SECTION
  2
OBJECTS
  0
DICTIONARY
  5
C
330
0
100
AcDbDictionary
281
     1
  3
ACAD_DETAILVIEWSTYLE
350
200
  3
ACAD_GROUP
350
D
  3
ACAD_LAYOUT
350
1A
  3
ACAD_MATERIAL
350
43
  3
ACAD_MLEADERSTYLE
350
1FF
  3
ACAD_MLINESTYLE
350
17
  3
ACAD_PLOTSETTINGS
350
19
  3
ACAD_PLOTSTYLENAME
350
E
  3
ACAD_SCALELIST
350
47
  3
ACAD_SECTIONVIEWSTYLE
350
201
  3
ACAD_TABLESTYLE
350
1FE
  3
ACAD_VISUALSTYLE
350
2A
  3
AcDbVariableDictionary
350
1FC
  0
SUN
  5
69
330
29
100
AcDbSun
 90
        1
290
     0
 63
     7
421
 16777215
 40
1.0
291
     1
 91
  2455826
 92
 54000000
292
     0
 70
     2
 71
   256
280
     1
  0
DICTIONARY
  5
200
102
{ACAD_REACTORS
330
C
102
}
330
C
100
AcDbDictionary
281
     1
  0
DICTIONARY
  5
D
102
{ACAD_REACTORS
330
C
102
}
330
C
100
AcDbDictionary
281
     1
  0
DICTIONARY
  5
1A
102
{ACAD_REACTORS
330
C
102
}
330
C
100
AcDbDictionary
281
     1
  3
Layout1
350
1E
  3
Layout2
350
26
  3
Model
350
22
  0
DICTIONARY
  5
43
102
{ACAD_REACTORS
330
C
102
}
330
C
100
AcDbDictionary
281
     1
  3
ByBlock
350
45
  3
ByLayer
350
44
  3
Global
350
46
  0
DICTIONARY
  5
1FF
102
{ACAD_REACTORS
330
C
102
}
330
C
100
AcDbDictionary
281
     1
  0
DICTIONARY
  5
17
102
{ACAD_REACTORS
330
C
102
}
330
C
100
AcDbDictionary
281
     1
  3
Standard
350
18
  0
DICTIONARY
  5
19
102
{ACAD_REACTORS
330
C
102
}
330
C
100
AcDbDictionary
281
     1
  0
ACDBDICTIONARYWDFLT
  5
E
102
{ACAD_REACTORS
330
C
102
}
330
C
100
AcDbDictionary
281
     1
  3
Normal
350
F
100
AcDbDictionaryWithDefault
340
F
  0
DICTIONARY
  5
47
102
{ACAD_REACTORS
330
C
102
}
330
C
100
AcDbDictionary
281
     1
  3
A0
350
48
  3
A1
350
49
  3
A2
350
4A
  3
A3
350
4B
  3
A4
350
4C
  3
A5
350
4D
  3
A6
350
4E
  3
A7
350
4F
  3
A8
350
50
  3
A9
350
51
  3
B0
350
52
  3
B1
350
53
  3
B2
350
54
  3
B3
350
55
  3
B4
350
56
  3
B5
350
57
  3
B6
350
58
  3
B7
350
59
  3
B8
350
5A
  3
B9
350
5B
  3
C0
350
5C
  3
C1
350
5D
  3
C2
350
5E
  3
C3
350
5F
  3
C4
350
60
  3
C5
350
61
  3
C6
350
62
  3
C7
350
63
  3
C8
350
64
  3
C9
350
65
  3
D0
350
66
  3
D1
350
67
  3
D2
350
68
  0
DICTIONARY
  5
201
102
{ACAD_REACTORS
330
C
102
}
330
C
100
AcDbDictionary
281
     1
  0
DICTIONARY
  5
1FE
102
{ACAD_REACTORS
330
C
102
}
330
C
100
AcDbDictionary
281
     1
  0
DICTIONARY
  5
2A
102
{ACAD_REACTORS
330
C
102
}
330
C
100
AcDbDictionary
281
     1
  3
2dWireframe
350
2F
  3
Basic
350
32
  3
Brighten
350
36
  3
ColorChange
350
3A
  3
Conceptual
350
34
  3
Dim
350
35
  3
EdgeColorOff
350
3D
  3
Facepattern
350
39
  3
Flat
350
2B
  3
FlatWithEdges
350
2C
  3
Gouraud
350
2D
  3
GouraudWithEdges
350
2E
  3
Hidden
350
31
  3
JitterOff
350
3B
  3
Linepattern
350
38
  3
OverhangOff
350
3C
  3
Realistic
350
33
  3
Shaded
350
42
  3
Shaded with edges
350
41
  3
Shades of Gray
350
3E
  3
Sketchy
350
3F
  3
Thicken
350
37
  3
Wireframe
350
30
  3
X-Ray
350
40
  0
DICTIONARY
  5
1FC
102
{ACAD_REACTORS
330
C
102
}
330
C
100
AcDbDictionary
281
     1
  3
CANNOSCALE
350
1FD
  0
LAYOUT
  5
1E
102
{ACAD_REACTORS
330
1A
102
}
330
1A
100
AcDbPlotSettings
  1

  2
none_device
  4

  6

 40
0.0
 41
0.0
 42
0.0
 43
0.0
 44
0.0
 45
0.0
 46
0.0
 47
0.0
 48
0.0
 49
0.0
140
0.0
141
0.0
142
1.0
143
1.0
 70
   688
 72
     1
 73
     0
 74
     5
  7

 75
    16
 76
     0
 77
     2
 78
   300
147
1.0
148
0.0
149
0.0
100
AcDbLayout
  1
Layout1
 70
     1
 71
     1
 10
0.0
 20
0.0
 11
420.0
 21
297.0
 12
0.0
 22
0.0
 32
0.0
 14
1.000000000000000E+20
 24
1.000000000000000E+20
 34
1.000000000000000E+20
 15
-1.000000000000000E+20
 25
-1.000000000000000E+20
 35
-1.000000000000000E+20
146
0.0
 13
0.0
 23
0.0
 33
0.0
 16
1.0
 26
0.0
 36
0.0
 17
0.0
 27
1.0
 37
0.0
 76
     0
330
1B
  0
LAYOUT
  5
26
102
{ACAD_REACTORS
330
1A
102
}
330
1A
100
AcDbPlotSettings
  1

  2
none_device
  4

  6

 40
0.0
 41
0.0
 42
0.0
 43
0.0
 44
0.0
 45
0.0
 46
0.0
 47
0.0
 48
0.0
 49
0.0
140
0.0
141
0.0
142
1.0
143
1.0
 70
   688
 72
     1
 73
     0
 74
     5
  7

 75
    16
 76
     0
 77
     2
 78
   300
147
1.0
148
0.0
149
0.0
100
AcDbLayout
  1
Layout2
 70
     1
 71
     2
 10
0.0
 20
0.0
 11
0.0
 21
0.0
 12
0.0
 22
0.0
 32
0.0
 14
0.0
 24
0.0
 34
0.0
 15
0.0
 25
0.0
 35
0.0
146
0.0
 13
0.0
 23
0.0
 33
0.0
 16
1.0
 26
0.0
 36
0.0
 17
0.0
 27
1.0
 37
0.0
 76
     0
330
23
  0
LAYOUT
  5
22
102
{ACAD_REACTORS
330
1A
102
}
330
1A
100
AcDbPlotSettings
  1

  2
none_device
  4
Letter_(8.50_x_11.00_Inches)
  6

 40
6.35
 41
6.35
 42
6.35000508
 43
6.35000508
 44
215.9
 45
279.4
 46
0.0
 47
0.0
 48
0.0
 49
0.0
140
0.0
141
0.0
142
1.0
143
1.0
 70
  1712
 72
     1
 73
     0
 74
     0
  7

 75
     0
 76
     0
 77
     2
 78
   300
147
1.0
148
0.0
149
0.0
100
AcDbLayout
  1
Model
 70
     1
 71
     0
 10
1260.976269
 20
1261.75135
 11
1298.09106142
 21
1278.2428207
 12
0.0
 22
0.0
 32
0.0
 14
1.000000000000000E+20
 24
1.000000000000000E+20
 34
1.000000000000000E+20
 15
-1.000000000000000E+20
 25
-1.000000000000000E+20
 35
-1.000000000000000E+20
146
0.0
 13
0.0
 23
0.0
 33
0.0
 16
1.0
 26
0.0
 36
0.0
 17
0.0
 27
1.0
 37
0.0
 76
     0
330
1F
331
29
  0
MATERIAL
  5
45
102
{ACAD_REACTORS
330
43
102
}
330
43
100
AcDbMaterial
  1
ByBlock
 72
     1
 94
      127
  0
MATERIAL
  5
44
102
{ACAD_REACTORS
330
43
102
}
330
43
100
AcDbMaterial
  1
ByLayer
 72
     1
 94
      127
  0
MATERIAL
  5
46
102
{ACAD_REACTORS
330
43
102
}
330
43
100
AcDbMaterial
  1
Global
 72
     1
 94
      127
  0
MLINESTYLE
  5
18
102
{ACAD_REACTORS
330
17
102
}
330
17
100
AcDbMlineStyle
  2
Standard
 70
     0
  3

 62
   256
 51
90.0
 52
90.0
 71
     2
 49
0.5
 62
   256
  6
BYLAYER
 49
-0.5
 62
   256
  6
BYLAYER
  0
ACDBPLACEHOLDER
  5
F
102
{ACAD_REACTORS
330
E
102
}
330
E
  0
SCALE
  5
48
102
{ACAD_REACTORS
330
47
102
}
330
47
100
AcDbScale
 70
     0
300
1:1
140
1.0
141
1.0
290
     1
  0
SCALE
  5
49
102
{ACAD_REACTORS
330
47
102
}
330
47
100
AcDbScale
 70
     0
300
1:2
140
1.0
141
2.0
290
     0
  0
SCALE
  5
4A
102
{ACAD_REACTORS
330
47
102
}
330
47
100
AcDbScale
 70
     0
300
1:4
140
1.0
141
4.0
290
     0
  0
SCALE
  5
4B
102
{ACAD_REACTORS
330
47
102
}
330
47
100
AcDbScale
 70
     0
300
1:5
140
1.0
141
5.0
290
     0
  0
SCALE
  5
4C
102
{ACAD_REACTORS
330
47
102
}
330
47
100
AcDbScale
 70
     0
300
1:8
140
1.0
141
8.0
290
     0
  0
SCALE
  5
4D
102
{ACAD_REACTORS
330
47
102
}
330
47
100
AcDbScale
 70
     0
300
1:10
140
1.0
141
10.0
290
     0
  0
SCALE
  5
4E
102
{ACAD_REACTORS
330
47
102
}
330
47
100
AcDbScale
 70
     0
300
1:16
140
1.0
141
16.0
290
     0
  0
SCALE
  5
4F
102
{ACAD_REACTORS
330
47
102
}
330
47
100
AcDbScale
 70
     0
300
1:20
140
1.0
141
20.0
290
     0
  0
SCALE
  5
50
102
{ACAD_REACTORS
330
47
102
}
330
47
100
AcDbScale
 70
     0
300
1:30
140
1.0
141
30.0
290
     0
  0
SCALE
  5
51
102
{ACAD_REACTORS
330
47
102
}
330
47
100
AcDbScale
 70
     0
300
1:40
140
1.0
141
40.0
290
     0
  0
SCALE
  5
52
102
{ACAD_REACTORS
330
47
102
}
330
47
100
AcDbScale
 70
     0
300
1:50
140
1.0
141
50.0
290
     0
  0
SCALE
  5
53
102
{ACAD_REACTORS
330
47
102
}
330
47
100
AcDbScale
 70
     0
300
1:100
140
1.0
141
100.0
290
     0
  0
SCALE
  5
54
102
{ACAD_REACTORS
330
47
102
}
330
47
100
AcDbScale
 70
     0
300
2:1
140
2.0
141
1.0
290
     0
  0
SCALE
  5
55
102
{ACAD_REACTORS
330
47
102
}
330
47
100
AcDbScale
 70
     0
300
4:1
140
4.0
141
1.0
290
     0
  0
SCALE
  5
56
102
{ACAD_REACTORS
330
47
102
}
330
47
100
AcDbScale
 70
     0
300
8:1
140
8.0
141
1.0
290
     0
  0
SCALE
  5
57
102
{ACAD_REACTORS
330
47
102
}
330
47
100
AcDbScale
 70
     0
300
10:1
140
10.0
141
1.0
290
     0
  0
SCALE
  5
58
102
{ACAD_REACTORS
330
47
102
}
330
47
100
AcDbScale
 70
     0
300
100:1
140
100.0
141
1.0
290
     0
  0
SCALE
  5
59
102
{ACAD_REACTORS
330
47
102
}
330
47
100
AcDbScale
 70
     0
300
1/128" = 1'-0"
140
0.0078125
141
12.0
290
     0
  0
SCALE
  5
5A
102
{ACAD_REACTORS
330
47
102
}
330
47
100
AcDbScale
 70
     0
300
1/64" = 1'-0"
140
0.015625
141
12.0
290
     0
  0
SCALE
  5
5B
102
{ACAD_REACTORS
330
47
102
}
330
47
100
AcDbScale
 70
     0
300
1/32" = 1'-0"
140
0.03125
141
12.0
290
     0
  0
SCALE
  5
5C
102
{ACAD_REACTORS
330
47
102
}
330
47
100
AcDbScale
 70
     0
300
1/16" = 1'-0"
140
0.0625
141
12.0
290
     0
  0
SCALE
  5
5D
102
{ACAD_REACTORS
330
47
102
}
330
47
100
AcDbScale
 70
     0
300
3/32" = 1'-0"
140
0.09375
141
12.0
290
     0
  0
SCALE
  5
5E
102
{ACAD_REACTORS
330
47
102
}
330
47
100
AcDbScale
 70
     0
300
1/8" = 1'-0"
140
0.125
141
12.0
290
     0
  0
SCALE
  5
5F
102
{ACAD_REACTORS
330
47
102
}
330
47
100
AcDbScale
 70
     0
300
3/16" = 1'-0"
140
0.1875
141
12.0
290
     0
  0
SCALE
  5
60
102
{ACAD_REACTORS
330
47
102
}
330
47
100
AcDbScale
 70
     0
300
1/4" = 1'-0"
140
0.25
141
12.0
290
     0
  0
SCALE
  5
61
102
{ACAD_REACTORS
330
47
102
}
330
47
100
AcDbScale
 70
     0
300
3/8" = 1'-0"
140
0.375
141
12.0
290
     0
  0
SCALE
  5
62
102
{ACAD_REACTORS
330
47
102
}
330
47
100
AcDbScale
 70
     0
300
1/2" = 1'-0"
140
0.5
141
12.0
290
     0
  0
SCALE
  5
63
102
{ACAD_REACTORS
330
47
102
}
330
47
100
AcDbScale
 70
     0
300
3/4" = 1'-0"
140
0.75
141
12.0
290
     0
  0
SCALE
  5
64
102
{ACAD_REACTORS
330
47
102
}
330
47
100
AcDbScale
 70
     0
300
1" = 1'-0"
140
1.0
141
12.0
290
     0
  0
SCALE
  5
65
102
{ACAD_REACTORS
330
47
102
}
330
47
100
AcDbScale
 70
     0
300
1-1/2" = 1'-0"
140
1.5
141
12.0
290
     0
  0
SCALE
  5
66
102
{ACAD_REACTORS
330
47
102
}
330
47
100
AcDbScale
 70
     0
300
3" = 1'-0"
140
3.0
141
12.0
290
     0
  0
SCALE
  5
67
102
{ACAD_REACTORS
330
47
102
}
330
47
100
AcDbScale
 70
     0
300
6" = 1'-0"
140
6.0
141
12.0
290
     0
  0
SCALE
  5
68
102
{ACAD_REACTORS
330
47
102
}
330
47
100
AcDbScale
 70
     0
300
1'-0" = 1'-0"
140
12.0
141
12.0
290
     0
  0
VISUALSTYLE
  5
2F
102
{ACAD_REACTORS
330
2A
102
}
330
2A
100
AcDbVisualStyle
  2
2dWireframe
 70
     4
177
     3
291
     0
 70
    58
 90
        0
176
     1
 90
        2
176
     1
 90
        0
176
     1
 90
        0
176
     1
 40
0.6
176
     1
 40
30.0
176
     1
 62
     7
420
 16777215
176
     1
 90
        1
176
     1
 90
        4
176
     1
 62
     7
176
     1
 62
   257
176
     1
 90
        1
176
     1
 90
        1
176
     1
 40
1.0
176
     1
 90
        0
176
     1
 62
   257
176
     1
 40
1.0
176
     1
 90
        1
176
     1
 90
        6
176
     1
 90
        2
176
     1
 62
     7
176
     1
 90
        5
176
     1
 90
        0
176
     1
 90
        0
176
     1
290
     0
176
     1
 90
        1
176
     1
 40
0.0
176
     1
 90
        0
176
     1
290
     1
176
     1
290
     1
176
     1
290
     0
176
     1
290
     0
176
     1
290
     0
176
     1
290
     0
176
     1
290
     0
176
     1
290
     0
176
     1
290
     0
176
     1
 90
       50
176
     1
 40
0.0
176
     1
 40
1.0
176
     1
 90
        0
176
     1
 62
    18
420
        0
176
     1
 90
       50
176
     1
 90
        3
176
     1
 62
     5
420
      255
176
     1
290
     0
176
     1
 90
       50
176
     1
 90
       50
176
     1
 90
       50
176
     1
290
     0
176
     1
 90
       50
176
     1
 62
   256
176
     0
 40
1.0
176
     0
 90
        2
176
     1
  1
strokes_ogs.tif
176
     1
290
     0
176
     1
 40
1.0
176
     1
 40
1.0
176
     1
  0
VISUALSTYLE
  5
32
102
{ACAD_REACTORS
330
2A
102
}
330
2A
100
AcDbVisualStyle
  2
Basic
 70
     7
177
     3
291
     1
 70
    58
 90
        1
176
     1
 90
        0
176
     1
 90
        1
176
     1
 90
        0
176
     1
 40
0.6
176
     1
 40
30.0
176
     1
 62
     7
420
 16777215
176
     1
 90
        0
176
     1
 90
        4
176
     1
 62
     7
176
     1
 62
   257
176
     1
 90
        1
176
     1
 90
        1
176
     1
 40
1.0
176
     1
 90
        8
176
     1
 62
     7
176
     1
 40
1.0
176
     1
 90
        1
176
     1
 90
        6
176
     1
 90
        2
176
     1
 62
     7
176
     1
 90
        5
176
     1
 90
        0
176
     1
 90
        0
176
     1
290
     0
176
     1
 90
        1
176
     1
 40
0.0
176
     1
 90
        0
176
     1
290
     0
176
     1
290
     1
176
     1
290
     1
176
     1
290
     0
176
     1
290
     0
176
     1
290
     0
176
     1
290
     0
176
     1
290
     0
176
     1
290
     0
176
     1
 90
       50
176
     1
 40
0.0
176
     1
 40
1.0
176
     1
 90
        0
176
     1
 62
    18
420
        0
176
     1
 90
       50
176
     1
 90
        3
176
     1
 62
     5
420
      255
176
     1
290
     0
176
     1
 90
       50
176
     1
 90
       50
176
     1
 90
       50
176
     1
290
     0
176
     1
 90
       50
176
     1
 62
   256
176
     0
 40
1.0
176
     0
 90
        2
176
     1
  1
strokes_ogs.tif
176
     1
290
     0
176
     1
 40
1.0
176
     1
 40
1.0
176
     1
  0
VISUALSTYLE
  5
36
102
{ACAD_REACTORS
330
2A
102
}
330
2A
100
AcDbVisualStyle
  2
Brighten
 70
    12
177
     3
291
     1
 70
    58
 90
        2
176
     1
 90
        2
176
     1
 90
        0
176
     1
 90
        0
176
     1
 40
0.6
176
     1
 40
30.0
176
     1
 62
     7
420
 16777215
176
     1
 90
        1
176
     1
 90
        4
176
     1
 62
     7
176
     1
 62
   257
176
     1
 90
        1
176
     1
 90
        1
176
     1
 40
1.0
176
     1
 90
        8
176
     1
 62
     7
176
     1
 40
1.0
176
     1
 90
        1
176
     1
 90
        6
176
     1
 90
        2
176
     1
 62
     7
176
     1
 90
        5
176
     1
 90
        0
176
     1
 90
        0
176
     1
290
     0
176
     1
 90
        1
176
     1
 40
50.0
176
     1
 90
        0
176
     1
290
     0
176
     1
290
     1
176
     1
290
     1
176
     1
290
     0
176
     1
290
     0
176
     1
290
     0
176
     1
290
     0
176
     1
290
     0
176
     1
290
     0
176
     1
 90
       50
176
     1
 40
0.0
176
     1
 40
1.0
176
     1
 90
        0
176
     1
 62
    18
420
        0
176
     1
 90
       50
176
     1
 90
        3
176
     1
 62
     5
420
      255
176
     1
290
     0
176
     1
 90
       50
176
     1
 90
       50
176
     1
 90
       50
176
     1
290
     0
176
     1
 90
       50
176
     1
 62
   256
176
     0
 40
1.0
176
     0
 90
        2
176
     1
  1
strokes_ogs.tif
176
     1
290
     0
176
     1
 40
1.0
176
     1
 40
1.0
176
     1
  0
VISUALSTYLE
  5
3A
102
{ACAD_REACTORS
330
2A
102
}
330
2A
100
AcDbVisualStyle
  2
ColorChange
 70
    16
177
     3
291
     1
 70
    58
 90
        2
176
     1
 90
        2
176
     1
 90
        3
176
     1
 90
        0
176
     1
 40
0.6
176
     1
 40
30.0
176
     1
 62
     8
420
  8421504
176
     1
 90
        1
176
     1
 90
        4
176
     1
 62
     7
176
     1
 62
   257
176
     1
 90
        1
176
     1
 90
        1
176
     1
 40
1.0
176
     1
 90
        8
176
     1
 62
     8
420
  8421504
176
     1
 40
1.0
176
     1
 90
        1
176
     1
 90
        6
176
     1
 90
        2
176
     1
 62
     7
176
     1
 90
        5
176
     1
 90
        0
176
     1
 90
        0
176
     1
290
     0
176
     1
 90
        1
176
     1
 40
0.0
176
     1
 90
        0
176
     1
290
     0
176
     1
290
     1
176
     1
290
     1
176
     1
290
     0
176
     1
290
     0
176
     1
290
     0
176
     1
290
     0
176
     1
290
     0
176
     1
290
     0
176
     1
 90
       50
176
     1
 40
0.0
176
     1
 40
1.0
176
     1
 90
        0
176
     1
 62
    18
420
        0
176
     1
 90
       50
176
     1
 90
        3
176
     1
 62
     5
420
      255
176
     1
290
     0
176
     1
 90
       50
176
     1
 90
       50
176
     1
 90
       50
176
     1
290
     0
176
     1
 90
       50
176
     1
 62
   256
176
     0
 40
1.0
176
     0
 90
        2
176
     1
  1
strokes_ogs.tif
176
     1
290
     0
176
     1
 40
1.0
176
     1
 40
1.0
176
     1
  0
VISUALSTYLE
  5
34
102
{ACAD_REACTORS
330
2A
102
}
330
2A
100
AcDbVisualStyle
  2
Conceptual
 70
     9
177
     3
291
     0
 70
    58
 90
        3
176
     1
 90
        2
176
     1
 90
        0
176
     1
 90
        0
176
     1
 40
0.6
176
     1
 40
30.0
176
     1
 62
     7
420
 16777215
176
     1
 90
        2
176
     1
 90
        2
176
     1
 62
     7
176
     1
 62
   257
176
     1
 90
        1
176
     1
 90
        1
176
     1
 40
179.0
176
     1
 90
        8
176
     1
 62
     7
176
     1
 40
1.0
176
     1
 90
        1
176
     1
 90
        6
176
     1
 90
        2
176
     1
 62
     7
176
     1
 90
        3
176
     1
 90
        0
176
     1
 90
        0
176
     1
290
     0
176
     1
 90
        1
176
     1
 40
0.0
176
     1
 90
        0
176
     1
290
     0
176
     1
290
     1
176
     1
290
     1
176
     1
290
     0
176
     1
290
     0
176
     1
290
     0
176
     1
290
     0
176
     1
290
     0
176
     1
290
     0
176
     1
 90
       50
176
     1
 40
0.0
176
     1
 40
1.0
176
     1
 90
        0
176
     1
 62
    18
420
        0
176
     1
 90
       50
176
     1
 90
        3
176
     1
 62
     5
420
      255
176
     1
290
     0
176
     1
 90
       50
176
     1
 90
       50
176
     1
 90
       50
176
     1
290
     0
176
     1
 90
       50
176
     1
 62
   256
176
     0
 40
1.0
176
     0
 90
        2
176
     1
  1
strokes_ogs.tif
176
     1
290
     0
176
     1
 40
1.0
176
     1
 40
1.0
176
     1
  0
VISUALSTYLE
  5
35
102
{ACAD_REACTORS
330
2A
102
}
330
2A
100
AcDbVisualStyle
  2
Dim
 70
    11
177
     3
291
     1
 70
    58
 90
        2
176
     1
 90
        2
176
     1
 90
        0
176
     1
 90
        0
176
     1
 40
0.6
176
     1
 40
30.0
176
     1
 62
     7
420
 16777215
176
     1
 90
        1
176
     1
 90
        4
176
     1
 62
     7
176
     1
 62
   257
176
     1
 90
        1
176
     1
 90
        1
176
     1
 40
1.0
176
     1
 90
        8
176
     1
 62
     7
176
     1
 40
1.0
176
     1
 90
        1
176
     1
 90
        6
176
     1
 90
        2
176
     1
 62
     7
176
     1
 90
        5
176
     1
 90
        0
176
     1
 90
        0
176
     1
290
     0
176
     1
 90
        1
176
     1
 40
-50.0
176
     1
 90
        0
176
     1
290
     0
176
     1
290
     1
176
     1
290
     1
176
     1
290
     0
176
     1
290
     0
176
     1
290
     0
176
     1
290
     0
176
     1
290
     0
176
     1
290
     0
176
     1
 90
       50
176
     1
 40
0.0
176
     1
 40
1.0
176
     1
 90
        0
176
     1
 62
    18
420
        0
176
     1
 90
       50
176
     1
 90
        3
176
     1
 62
     5
420
      255
176
     1
290
     0
176
     1
 90
       50
176
     1
 90
       50
176
     1
 90
       50
176
     1
290
     0
176
     1
 90
       50
176
     1
 62
   256
176
     0
 40
1.0
176
     0
 90
        2
176
     1
  1
strokes_ogs.tif
176
     1
290
     0
176
     1
 40
1.0
176
     1
 40
1.0
176
     1
  0
VISUALSTYLE
  5
3D
102
{ACAD_REACTORS
330
2A
102
}
330
2A
100
AcDbVisualStyle
  2
EdgeColorOff
 70
    22
177
     3
291
     1
 70
    58
 90
        2
176
     0
 90
        2
176
     0
 90
        0
176
     0
 90
        0
176
     0
 40
0.6
176
     0
 40
30.0
176
     0
 62
     7
420
 16777215
176
     0
 90
        1
176
     0
 90
        4
176
     0
 62
     7
176
     0
 62
   257
176
     0
 90
        1
176
     0
 90
        1
176
     0
 40
1.0
176
     0
 90
        8
176
     2
 62
     7
176
     0
 40
1.0
176
     0
 90
        1
176
     0
 90
        6
176
     0
 90
        2
176
     0
 62
     7
176
     0
 90
        5
176
     0
 90
        0
176
     0
 90
        0
176
     0
290
     0
176
     0
 90
        1
176
     0
 40
0.0
176
     0
 90
        0
176
     0
290
     0
176
     0
290
     1
176
     0
290
     1
176
     0
290
     0
176
     0
290
     0
176
     0
290
     0
176
     0
290
     0
176
     0
290
     0
176
     0
290
     0
176
     0
 90
       50
176
     0
 40
0.0
176
     0
 40
1.0
176
     0
 90
        0
176
     0
 62
    18
420
        0
176
     0
 90
       50
176
     0
 90
        3
176
     0
 62
     5
420
      255
176
     0
290
     0
176
     0
 90
       50
176
     0
 90
       50
176
     0
 90
       50
176
     0
290
     0
176
     0
 90
       50
176
     0
 62
   256
176
     0
 40
1.0
176
     0
 90
        2
176
     0
  1
strokes_ogs.tif
176
     0
290
     0
176
     0
 40
1.0
176
     0
 40
1.0
176
     0
  0
VISUALSTYLE
  5
39
102
{ACAD_REACTORS
330
2A
102
}
330
2A
100
AcDbVisualStyle
  2
Facepattern
 70
    15
177
     3
291
     1
 70
    58
 90
        2
176
     1
 90
        2
176
     1
 90
        0
176
     1
 90
        0
176
     1
 40
0.6
176
     1
 40
30.0
176
     1
 62
     7
420
 16777215
176
     1
 90
        1
176
     1
 90
        4
176
     1
 62
     7
176
     1
 62
   257
176
     1
 90
        1
176
     1
 90
        1
176
     1
 40
1.0
176
     1
 90
        8
176
     1
 62
     7
176
     1
 40
1.0
176
     1
 90
        1
176
     1
 90
        6
176
     1
 90
        2
176
     1
 62
     7
176
     1
 90
        5
176
     1
 90
        0
176
     1
 90
        0
176
     1
290
     0
176
     1
 90
        1
176
     1
 40
0.0
176
     1
 90
        0
176
     1
290
     0
176
     1
290
     1
176
     1
290
     1
176
     1
290
     0
176
     1
290
     0
176
     1
290
     0
176
     1
290
     0
176
     1
290
     0
176
     1
290
     0
176
     1
 90
       50
176
     1
 40
0.0
176
     1
 40
1.0
176
     1
 90
        0
176
     1
 62
    18
420
        0
176
     1
 90
       50
176
     1
 90
        3
176
     1
 62
     5
420
      255
176
     1
290
     0
176
     1
 90
       50
176
     1
 90
       50
176
     1
 90
       50
176
     1
290
     0
176
     1
 90
       50
176
     1
 62
   256
176
     0
 40
1.0
176
     0
 90
        2
176
     1
  1
strokes_ogs.tif
176
     1
290
     0
176
     1
 40
1.0
176
     1
 40
1.0
176
     1
  0
VISUALSTYLE
  5
2B
102
{ACAD_REACTORS
330
2A
102
}
330
2A
100
AcDbVisualStyle
  2
Flat
 70
     0
177
     3
291
     1
 70
    58
 90
        2
176
     1
 90
        1
176
     1
 90
        1
176
     1
 90
        2
176
     1
 40
0.6
176
     1
 40
30.0
176
     1
 62
     7
420
 16777215
176
     1
 90
        0
176
     1
 90
        0
176
     1
 62
     7
176
     1
 62
   257
176
     1
 90
        1
176
     1
 90
        1
176
     1
 40
1.0
176
     1
 90
        8
176
     1
 62
     7
176
     1
 40
1.0
176
     1
 90
        1
176
     1
 90
        6
176
     1
 90
        2
176
     1
 62
     7
176
     1
 90
        5
176
     1
 90
        0
176
     1
 90
        0
176
     1
290
     0
176
     1
 90
       13
176
     1
 40
0.0
176
     1
 90
        0
176
     1
290
     0
176
     1
290
     1
176
     1
290
     1
176
     1
290
     0
176
     1
290
     0
176
     1
290
     0
176
     1
290
     0
176
     1
290
     0
176
     1
290
     0
176
     1
 90
       50
176
     1
 40
0.0
176
     1
 40
1.0
176
     1
 90
        0
176
     1
 62
    18
420
        0
176
     1
 90
       50
176
     1
 90
        3
176
     1
 62
     5
420
      255
176
     1
290
     0
176
     1
 90
       50
176
     1
 90
       50
176
     1
 90
       50
176
     1
290
     0
176
     1
 90
       50
176
     1
 62
   256
176
     0
 40
1.0
176
     0
 90
        2
176
     1
  1
strokes_ogs.tif
176
     1
290
     0
176
     1
 40
1.0
176
     1
 40
1.0
176
     1
  0
VISUALSTYLE
  5
2C
102
{ACAD_REACTORS
330
2A
102
}
330
2A
100
AcDbVisualStyle
  2
FlatWithEdges
 70
     1
177
     3
291
     1
 70
    58
 90
        2
176
     1
 90
        1
176
     1
 90
        1
176
     1
 90
        2
176
     1
 40
0.6
176
     1
 40
30.0
176
     1
 62
     7
420
 16777215
176
     1
 90
        1
176
     1
 90
        0
176
     1
 62
     7
176
     1
 62
   257
176
     1
 90
        1
176
     1
 90
        1
176
     1
 40
1.0
176
     1
 90
        0
176
     1
 62
   257
176
     1
 40
1.0
176
     1
 90
        1
176
     1
 90
        6
176
     1
 90
        2
176
     1
 62
     7
176
     1
 90
        5
176
     1
 90
        0
176
     1
 90
        0
176
     1
290
     0
176
     1
 90
       13
176
     1
 40
0.0
176
     1
 90
        0
176
     1
290
     0
176
     1
290
     1
176
     1
290
     1
176
     1
290
     0
176
     1
290
     0
176
     1
290
     0
176
     1
290
     0
176
     1
290
     0
176
     1
290
     0
176
     1
 90
       50
176
     1
 40
0.0
176
     1
 40
1.0
176
     1
 90
        0
176
     1
 62
    18
420
        0
176
     1
 90
       50
176
     1
 90
        3
176
     1
 62
     5
420
      255
176
     1
290
     0
176
     1
 90
       50
176
     1
 90
       50
176
     1
 90
       50
176
     1
290
     0
176
     1
 90
       50
176
     1
 62
   256
176
     0
 40
1.0
176
     0
 90
        2
176
     1
  1
strokes_ogs.tif
176
     1
290
     0
176
     1
 40
1.0
176
     1
 40
1.0
176
     1
  0
VISUALSTYLE
  5
2D
102
{ACAD_REACTORS
330
2A
102
}
330
2A
100
AcDbVisualStyle
  2
Gouraud
 70
     2
177
     3
291
     1
 70
    58
 90
        2
176
     1
 90
        2
176
     1
 90
        1
176
     1
 90
        2
176
     1
 40
0.6
176
     1
 40
30.0
176
     1
 62
     7
420
 16777215
176
     1
 90
        0
176
     1
 90
        0
176
     1
 62
     7
176
     1
 62
   257
176
     1
 90
        1
176
     1
 90
        1
176
     1
 40
1.0
176
     1
 90
        0
176
     1
 62
     7
176
     1
 40
1.0
176
     1
 90
        1
176
     1
 90
        6
176
     1
 90
        2
176
     1
 62
     7
176
     1
 90
        5
176
     1
 90
        0
176
     1
 90
        0
176
     1
290
     0
176
     1
 90
       13
176
     1
 40
0.0
176
     1
 90
        0
176
     1
290
     0
176
     1
290
     1
176
     1
290
     1
176
     1
290
     0
176
     1
290
     0
176
     1
290
     0
176
     1
290
     0
176
     1
290
     0
176
     1
290
     0
176
     1
 90
       50
176
     1
 40
0.0
176
     1
 40
1.0
176
     1
 90
        0
176
     1
 62
    18
420
        0
176
     1
 90
       50
176
     1
 90
        3
176
     1
 62
     5
420
      255
176
     1
290
     0
176
     1
 90
       50
176
     1
 90
       50
176
     1
 90
       50
176
     1
290
     0
176
     1
 90
       50
176
     1
 62
   256
176
     0
 40
1.0
176
     0
 90
        2
176
     1
  1
strokes_ogs.tif
176
     1
290
     0
176
     1
 40
1.0
176
     1
 40
1.0
176
     1
  0
VISUALSTYLE
  5
2E
102
{ACAD_REACTORS
330
2A
102
}
330
2A
100
AcDbVisualStyle
  2
GouraudWithEdges
 70
     3
177
     3
291
     1
 70
    58
 90
        2
176
     1
 90
        2
176
     1
 90
        1
176
     1
 90
        2
176
     1
 40
0.6
176
     1
 40
30.0
176
     1
 62
     7
420
 16777215
176
     1
 90
        1
176
     1
 90
        0
176
     1
 62
     7
176
     1
 62
   257
176
     1
 90
        1
176
     1
 90
        1
176
     1
 40
1.0
176
     1
 90
        0
176
     1
 62
   257
176
     1
 40
1.0
176
     1
 90
        1
176
     1
 90
        6
176
     1
 90
        2
176
     1
 62
     7
176
     1
 90
        5
176
     1
 90
        0
176
     1
 90
        0
176
     1
290
     0
176
     1
 90
       13
176
     1
 40
0.0
176
     1
 90
        0
176
     1
290
     0
176
     1
290
     1
176
     1
290
     1
176
     1
290
     0
176
     1
290
     0
176
     1
290
     0
176
     1
290
     0
176
     1
290
     0
176
     1
290
     0
176
     1
 90
       50
176
     1
 40
0.0
176
     1
 40
1.0
176
     1
 90
        0
176
     1
 62
    18
420
        0
176
     1
 90
       50
176
     1
 90
        3
176
     1
 62
     5
420
      255
176
     1
290
     0
176
     1
 90
       50
176
     1
 90
       50
176
     1
 90
       50
176
     1
290
     0
176
     1
 90
       50
176
     1
 62
   256
176
     0
 40
1.0
176
     0
 90
        2
176
     1
  1
strokes_ogs.tif
176
     1
290
     0
176
     1
 40
1.0
176
     1
 40
1.0
176
     1
  0
VISUALSTYLE
  5
31
102
{ACAD_REACTORS
330
2A
102
}
330
2A
100
AcDbVisualStyle
  2
Hidden
 70
     6
177
     3
291
     0
 70
    58
 90
        1
176
     1
 90
        2
176
     1
 90
        2
176
     1
 90
        0
176
     1
 40
0.6
176
     1
 40
30.0
176
     1
 62
     7
420
 16777215
176
     1
 90
        2
176
     1
 90
        2
176
     1
 62
     7
176
     1
 62
   257
176
     1
 90
        2
176
     1
 90
        1
176
     1
 40
40.0
176
     1
 90
        0
176
     1
 62
   257
176
     1
 40
1.0
176
     1
 90
        1
176
     1
 90
        6
176
     1
 90
        2
176
     1
 62
     7
176
     1
 90
        3
176
     1
 90
        0
176
     1
 90
        0
176
     1
290
     0
176
     1
 90
        1
176
     1
 40
0.0
176
     1
 90
        0
176
     1
290
     0
176
     1
290
     1
176
     1
290
     1
176
     1
290
     0
176
     1
290
     0
176
     1
290
     0
176
     1
290
     0
176
     1
290
     0
176
     1
290
     0
176
     1
 90
       50
176
     1
 40
0.0
176
     1
 40
1.0
176
     1
 90
        0
176
     1
 62
    18
420
        0
176
     1
 90
       50
176
     1
 90
        3
176
     1
 62
     5
420
      255
176
     1
290
     0
176
     1
 90
       50
176
     1
 90
       50
176
     1
 90
       50
176
     1
290
     0
176
     1
 90
       50
176
     1
 62
   256
176
     0
 40
1.0
176
     0
 90
        2
176
     1
  1
strokes_ogs.tif
176
     1
290
     0
176
     1
 40
1.0
176
     1
 40
1.0
176
     1
  0
VISUALSTYLE
  5
3B
102
{ACAD_REACTORS
330
2A
102
}
330
2A
100
AcDbVisualStyle
  2
JitterOff
 70
    20
177
     3
291
     1
 70
    58
 90
        2
176
     0
 90
        2
176
     0
 90
        0
176
     0
 90
        0
176
     0
 40
0.6
176
     0
 40
30.0
176
     0
 62
     7
420
 16777215
176
     0
 90
        1
176
     0
 90
        4
176
     0
 62
     7
176
     0
 62
   257
176
     0
 90
        1
176
     0
 90
        1
176
     0
 40
1.0
176
     0
 90
       10
176
     2
 62
     7
176
     0
 40
1.0
176
     0
 90
        1
176
     0
 90
        6
176
     0
 90
        2
176
     0
 62
     7
176
     0
 90
        5
176
     0
 90
        0
176
     0
 90
        0
176
     0
290
     0
176
     0
 90
        1
176
     0
 40
0.0
176
     0
 90
        0
176
     0
290
     0
176
     0
290
     1
176
     0
290
     1
176
     0
290
     0
176
     0
290
     0
176
     0
290
     0
176
     0
290
     0
176
     0
290
     0
176
     0
290
     0
176
     0
 90
       50
176
     0
 40
0.0
176
     0
 40
1.0
176
     0
 90
        0
176
     0
 62
    18
420
        0
176
     0
 90
       50
176
     0
 90
        3
176
     0
 62
     5
420
      255
176
     0
290
     0
176
     0
 90
       50
176
     0
 90
       50
176
     0
 90
       50
176
     0
290
     0
176
     0
 90
       50
176
     0
 62
   256
176
     0
 40
1.0
176
     0
 90
        2
176
     0
  1
strokes_ogs.tif
176
     0
290
     0
176
     0
 40
1.0
176
     0
 40
1.0
176
     0
  0
VISUALSTYLE
  5
38
102
{ACAD_REACTORS
330
2A
102
}
330
2A
100
AcDbVisualStyle
  2
Linepattern
 70
    14
177
     3
291
     1
 70
    58
 90
        2
176
     1
 90
        2
176
     1
 90
        0
176
     1
 90
        0
176
     1
 40
0.6
176
     1
 40
30.0
176
     1
 62
     7
420
 16777215
176
     1
 90
        1
176
     1
 90
        4
176
     1
 62
     7
176
     1
 62
   257
176
     1
 90
        7
176
     1
 90
        7
176
     1
 40
1.0
176
     1
 90
        8
176
     1
 62
     7
176
     1
 40
1.0
176
     1
 90
        1
176
     1
 90
        6
176
     1
 90
        2
176
     1
 62
     7
176
     1
 90
        5
176
     1
 90
        0
176
     1
 90
        0
176
     1
290
     0
176
     1
 90
        1
176
     1
 40
0.0
176
     1
 90
        0
176
     1
290
     0
176
     1
290
     1
176
     1
290
     1
176
     1
290
     0
176
     1
290
     0
176
     1
290
     0
176
     1
290
     0
176
     1
290
     0
176
     1
290
     0
176
     1
 90
       50
176
     1
 40
0.0
176
     1
 40
1.0
176
     1
 90
        0
176
     1
 62
    18
420
        0
176
     1
 90
       50
176
     1
 90
        3
176
     1
 62
     5
420
      255
176
     1
290
     0
176
     1
 90
       50
176
     1
 90
       50
176
     1
 90
       50
176
     1
290
     0
176
     1
 90
       50
176
     1
 62
   256
176
     0
 40
1.0
176
     0
 90
        2
176
     1
  1
strokes_ogs.tif
176
     1
290
     0
176
     1
 40
1.0
176
     1
 40
1.0
176
     1
  0
VISUALSTYLE
  5
3C
102
{ACAD_REACTORS
330
2A
102
}
330
2A
100
AcDbVisualStyle
  2
OverhangOff
 70
    21
177
     3
291
     1
 70
    58
 90
        2
176
     0
 90
        2
176
     0
 90
        0
176
     0
 90
        0
176
     0
 40
0.6
176
     0
 40
30.0
176
     0
 62
     7
420
 16777215
176
     0
 90
        1
176
     0
 90
        4
176
     0
 62
     7
176
     0
 62
   257
176
     0
 90
        1
176
     0
 90
        1
176
     0
 40
1.0
176
     0
 90
        9
176
     2
 62
     7
176
     0
 40
1.0
176
     0
 90
        1
176
     0
 90
        6
176
     0
 90
        2
176
     0
 62
     7
176
     0
 90
        5
176
     0
 90
        0
176
     0
 90
        0
176
     0
290
     0
176
     0
 90
        1
176
     0
 40
0.0
176
     0
 90
        0
176
     0
290
     0
176
     0
290
     1
176
     0
290
     1
176
     0
290
     0
176
     0
290
     0
176
     0
290
     0
176
     0
290
     0
176
     0
290
     0
176
     0
290
     0
176
     0
 90
       50
176
     0
 40
0.0
176
     0
 40
1.0
176
     0
 90
        0
176
     0
 62
    18
420
        0
176
     0
 90
       50
176
     0
 90
        3
176
     0
 62
     5
420
      255
176
     0
290
     0
176
     0
 90
       50
176
     0
 90
       50
176
     0
 90
       50
176
     0
290
     0
176
     0
 90
       50
176
     0
 62
   256
176
     0
 40
1.0
176
     0
 90
        2
176
     0
  1
strokes_ogs.tif
176
     0
290
     0
176
     0
 40
1.0
176
     0
 40
1.0
176
     0
  0
VISUALSTYLE
  5
33
102
{ACAD_REACTORS
330
2A
102
}
330
2A
100
AcDbVisualStyle
  2
Realistic
 70
     8
177
     3
291
     0
 70
    58
 90
        2
176
     1
 90
        3
176
     1
 90
        0
176
     1
 90
        2
176
     1
 40
0.6
176
     1
 40
30.0
176
     1
 62
     7
420
 16777215
176
     1
 90
        0
176
     1
 90
        0
176
     1
 62
     7
176
     1
 62
   257
176
     1
 90
        1
176
     1
 90
        1
176
     1
 40
1.0
176
     1
 90
        8
176
     1
 62
   257
176
     1
 40
1.0
176
     1
 90
        1
176
     1
 90
        6
176
     1
 90
        2
176
     1
 62
     7
176
     1
 90
        3
176
     1
 90
        0
176
     1
 90
        0
176
     1
290
     0
176
     1
 90
       13
176
     1
 40
0.0
176
     1
 90
        0
176
     1
290
     0
176
     1
290
     1
176
     1
290
     1
176
     1
290
     0
176
     1
290
     0
176
     1
290
     0
176
     1
290
     0
176
     1
290
     0
176
     1
290
     0
176
     1
 90
       50
176
     1
 40
0.0
176
     1
 40
1.0
176
     1
 90
        0
176
     1
 62
    18
420
        0
176
     1
 90
       50
176
     1
 90
        3
176
     1
 62
     5
420
      255
176
     1
290
     0
176
     1
 90
       50
176
     1
 90
       50
176
     1
 90
       50
176
     1
290
     0
176
     1
 90
       50
176
     1
 62
   256
176
     0
 40
1.0
176
     0
 90
        2
176
     1
  1
strokes_ogs.tif
176
     1
290
     0
176
     1
 40
1.0
176
     1
 40
1.0
176
     1
  0
VISUALSTYLE
  5
42
102
{ACAD_REACTORS
330
2A
102
}
330
2A
100
AcDbVisualStyle
  2
Shaded
 70
    27
177
     3
291
     0
 70
    58
 90
        2
176
     1
 90
        2
176
     1
 90
        1
176
     1
 90
        2
176
     1
 40
0.6
176
     1
 40
30.0
176
     1
 62
     7
420
 16777215
176
     1
 90
        0
176
     1
 90
        4
176
     1
 62
     7
176
     1
 62
   257
176
     1
 90
        1
176
     1
 90
        1
176
     1
 40
1.0
176
     1
 90
        8
176
     1
 62
   257
176
     1
 40
1.0
176
     1
 90
        1
176
     1
 90
        6
176
     1
 90
        2
176
     1
 62
     8
420
  7895160
176
     1
 90
        3
176
     1
 90
        0
176
     1
 90
        0
176
     1
290
     0
176
     1
 90
        5
176
     1
 40
0.0
176
     1
 90
        0
176
     1
290
     0
176
     1
290
     1
176
     1
290
     1
176
     1
290
     0
176
     1
290
     0
176
     1
290
     0
176
     1
290
     0
176
     1
290
     0
176
     1
290
     0
176
     1
 90
       50
176
     1
 40
0.0
176
     1
 40
1.0
176
     1
 90
        0
176
     1
 62
    18
420
        0
176
     1
 90
       50
176
     1
 90
        3
176
     1
 62
     5
420
      255
176
     1
290
     0
176
     1
 90
       50
176
     1
 90
       50
176
     1
 90
       50
176
     1
290
     0
176
     1
 90
       50
176
     1
 62
   256
176
     0
 40
1.0
176
     0
 90
        2
176
     1
  1
strokes_ogs.tif
176
     1
290
     0
176
     1
 40
1.0
176
     1
 40
1.0
176
     1
  0
VISUALSTYLE
  5
41
102
{ACAD_REACTORS
330
2A
102
}
330
2A
100
AcDbVisualStyle
  2
Shaded with edges
 70
    26
177
     3
291
     0
 70
    58
 90
        2
176
     1
 90
        2
176
     1
 90
        1
176
     1
 90
        2
176
     1
 40
0.6
176
     1
 40
30.0
176
     1
 62
     7
420
 16777215
176
     1
 90
        1
176
     1
 90
       10
176
     1
 62
     7
176
     1
 62
   257
176
     1
 90
        2
176
     1
 90
        1
176
     1
 40
1.0
176
     1
 90
        8
176
     1
 62
   257
176
     1
 40
1.0
176
     1
 90
        1
176
     1
 90
        6
176
     1
 90
        2
176
     1
 62
     7
176
     1
 90
        3
176
     1
 90
        0
176
     1
 90
        0
176
     1
290
     0
176
     1
 90
        5
176
     1
 40
0.0
176
     1
 90
        0
176
     1
290
     0
176
     1
290
     1
176
     1
290
     1
176
     1
290
     0
176
     1
290
     0
176
     1
290
     0
176
     1
290
     0
176
     1
290
     0
176
     1
290
     0
176
     1
 90
       50
176
     1
 40
0.0
176
     1
 40
1.0
176
     1
 90
        0
176
     1
 62
    18
420
        0
176
     1
 90
       50
176
     1
 90
        3
176
     1
 62
     5
420
      255
176
     1
290
     0
176
     1
 90
       50
176
     1
 90
       50
176
     1
 90
       50
176
     1
290
     0
176
     1
 90
       50
176
     1
 62
   256
176
     0
 40
1.0
176
     0
 90
        2
176
     1
  1
strokes_ogs.tif
176
     1
290
     0
176
     1
 40
1.0
176
     1
 40
1.0
176
     1
  0
VISUALSTYLE
  5
3E
102
{ACAD_REACTORS
330
2A
102
}
330
2A
100
AcDbVisualStyle
  2
Shades of Gray
 70
    23
177
     3
291
     0
 70
    58
 90
        2
176
     1
 90
        2
176
     1
 90
        3
176
     1
 90
        0
176
     1
 40
0.6
176
     1
 40
30.0
176
     1
 62
     7
420
 16777215
176
     1
 90
        2
176
     1
 90
        2
176
     1
 62
     7
176
     1
 62
     7
176
     1
 90
        1
176
     1
 90
        1
176
     1
 40
40.0
176
     1
 90
        8
176
     1
 62
     7
176
     1
 40
1.0
176
     1
 90
        1
176
     1
 90
        6
176
     1
 90
        2
176
     1
 62
     7
176
     1
 90
        3
176
     1
 90
        0
176
     1
 90
        0
176
     1
290
     0
176
     1
 90
        1
176
     1
 40
0.0
176
     1
 90
        0
176
     1
290
     0
176
     1
290
     1
176
     1
290
     1
176
     1
290
     0
176
     1
290
     0
176
     1
290
     0
176
     1
290
     0
176
     1
290
     0
176
     1
290
     0
176
     1
 90
       50
176
     1
 40
0.0
176
     1
 40
1.0
176
     1
 90
        0
176
     1
 62
    18
420
        0
176
     1
 90
       50
176
     1
 90
        3
176
     1
 62
     5
420
      255
176
     1
290
     0
176
     1
 90
       50
176
     1
 90
       50
176
     1
 90
       50
176
     1
290
     0
176
     1
 90
       50
176
     1
 62
   256
176
     0
 40
1.0
176
     0
 90
        2
176
     1
  1
strokes_ogs.tif
176
     1
290
     0
176
     1
 40
1.0
176
     1
 40
1.0
176
     1
  0
VISUALSTYLE
  5
3F
102
{ACAD_REACTORS
330
2A
102
}
330
2A
100
AcDbVisualStyle
  2
Sketchy
 70
    24
177
     3
291
     0
 70
    58
 90
        1
176
     1
 90
        2
176
     1
 90
        2
176
     1
 90
        0
176
     1
 40
0.6
176
     1
 40
30.0
176
     1
 62
     7
420
 16777215
176
     1
 90
        2
176
     1
 90
        2
176
     1
 62
     7
176
     1
 62
     7
176
     1
 90
        1
176
     1
 90
        1
176
     1
 40
40.0
176
     1
 90
       11
176
     1
 62
     7
176
     1
 40
1.0
176
     1
 90
        1
176
     1
 90
        6
176
     1
 90
        2
176
     1
 62
     7
176
     1
 90
        6
176
     1
 90
        0
176
     1
 90
        0
176
     1
290
     0
176
     1
 90
        1
176
     1
 40
0.0
176
     1
 90
        0
176
     1
290
     0
176
     1
290
     1
176
     1
290
     1
176
     1
290
     0
176
     1
290
     0
176
     1
290
     0
176
     1
290
     0
176
     1
290
     0
176
     1
290
     0
176
     1
 90
       50
176
     1
 40
0.0
176
     1
 40
1.0
176
     1
 90
        0
176
     1
 62
    18
420
        0
176
     1
 90
       50
176
     1
 90
        3
176
     1
 62
     5
420
      255
176
     1
290
     0
176
     1
 90
       50
176
     1
 90
       50
176
     1
 90
       50
176
     1
290
     0
176
     1
 90
       50
176
     1
 62
   256
176
     0
 40
1.0
176
     0
 90
        2
176
     1
  1
strokes_ogs.tif
176
     1
290
     0
176
     1
 40
1.0
176
     1
 40
1.0
176
     1
  0
VISUALSTYLE
  5
37
102
{ACAD_REACTORS
330
2A
102
}
330
2A
100
AcDbVisualStyle
  2
Thicken
 70
    13
177
     3
291
     1
 70
    58
 90
        2
176
     1
 90
        2
176
     1
 90
        0
176
     1
 90
        0
176
     1
 40
0.6
176
     1
 40
30.0
176
     1
 62
     7
420
 16777215
176
     1
 90
        1
176
     1
 90
        4
176
     1
 62
     7
176
     1
 62
   257
176
     1
 90
        1
176
     1
 90
        1
176
     1
 40
1.0
176
     1
 90
       12
176
     1
 62
     7
176
     1
 40
1.0
176
     1
 90
        1
176
     1
 90
        6
176
     1
 90
        2
176
     1
 62
     7
176
     1
 90
        5
176
     1
 90
        0
176
     1
 90
        0
176
     1
290
     0
176
     1
 90
        1
176
     1
 40
0.0
176
     1
 90
        0
176
     1
290
     0
176
     1
290
     1
176
     1
290
     1
176
     1
290
     0
176
     1
290
     0
176
     1
290
     0
176
     1
290
     0
176
     1
290
     0
176
     1
290
     0
176
     1
 90
       50
176
     1
 40
0.0
176
     1
 40
1.0
176
     1
 90
        0
176
     1
 62
    18
420
        0
176
     1
 90
       50
176
     1
 90
        3
176
     1
 62
     5
420
      255
176
     1
290
     0
176
     1
 90
       50
176
     1
 90
       50
176
     1
 90
       50
176
     1
290
     0
176
     1
 90
       50
176
     1
 62
   256
176
     0
 40
1.0
176
     0
 90
        2
176
     1
  1
strokes_ogs.tif
176
     1
290
     0
176
     1
 40
1.0
176
     1
 40
1.0
176
     1
  0
VISUALSTYLE
  5
30
102
{ACAD_REACTORS
330
2A
102
}
330
2A
100
AcDbVisualStyle
  2
Wireframe
 70
     5
177
     3
291
     0
 70
    58
 90
        0
176
     1
 90
        2
176
     1
 90
        0
176
     1
 90
        0
176
     1
 40
0.6
176
     1
 40
30.0
176
     1
 62
     7
420
 16777215
176
     1
 90
        1
176
     1
 90
        4
176
     1
 62
     7
176
     1
 62
   257
176
     1
 90
        1
176
     1
 90
        1
176
     1
 40
1.0
176
     1
 90
        0
176
     1
 62
   257
176
     1
 40
1.0
176
     1
 90
        1
176
     1
 90
        6
176
     1
 90
        2
176
     1
 62
     7
176
     1
 90
        3
176
     1
 90
        0
176
     1
 90
        0
176
     1
290
     0
176
     1
 90
        1
176
     1
 40
0.0
176
     1
 90
        0
176
     1
290
     0
176
     1
290
     1
176
     1
290
     1
176
     1
290
     0
176
     1
290
     0
176
     1
290
     0
176
     1
290
     0
176
     1
290
     0
176
     1
290
     0
176
     1
 90
       50
176
     1
 40
0.0
176
     1
 40
1.0
176
     1
 90
        0
176
     1
 62
    18
420
        0
176
     1
 90
       50
176
     1
 90
        3
176
     1
 62
     5
420
      255
176
     1
290
     0
176
     1
 90
       50
176
     1
 90
       50
176
     1
 90
       50
176
     1
290
     0
176
     1
 90
       50
176
     1
 62
   256
176
     0
 40
1.0
176
     0
 90
        2
176
     1
  1
strokes_ogs.tif
176
     1
290
     0
176
     1
 40
1.0
176
     1
 40
1.0
176
     1
  0
VISUALSTYLE
  5
40
102
{ACAD_REACTORS
330
2A
102
}
330
2A
100
AcDbVisualStyle
  2
X-Ray
 70
    25
177
     3
291
     0
 70
    58
 90
        2
176
     1
 90
        2
176
     1
 90
        1
176
     1
 90
        1
176
     1
 40
0.5
176
     1
 40
30.0
176
     1
 62
     7
420
 16777215
176
     1
 90
        1
176
     1
 90
        0
176
     1
 62
     7
176
     1
 62
   257
176
     1
 90
        1
176
     1
 90
        1
176
     1
 40
1.0
176
     1
 90
        8
176
     1
 62
     7
176
     1
 40
1.0
176
     1
 90
        1
176
     1
 90
        6
176
     1
 90
        2
176
     1
 62
     7
176
     1
 90
        3
176
     1
 90
        0
176
     1
 90
        0
176
     1
290
     0
176
     1
 90
       13
176
     1
 40
0.0
176
     1
 90
        0
176
     1
290
     0
176
     1
290
     1
176
     1
290
     1
176
     1
290
     0
176
     1
290
     0
176
     1
290
     0
176
     1
290
     0
176
     1
290
     0
176
     1
290
     0
176
     1
 90
       50
176
     1
 40
0.0
176
     1
 40
1.0
176
     1
 90
        0
176
     1
 62
    18
420
        0
176
     1
 90
       50
176
     1
 90
        3
176
     1
 62
     5
420
      255
176
     1
290
     0
176
     1
 90
       50
176
     1
 90
       50
176
     1
 90
       50
176
     1
290
     0
176
     1
 90
       50
176
     1
 62
   256
176
     0
 40
1.0
176
     0
 90
        2
176
     1
  1
strokes_ogs.tif
176
     1
290
     0
176
     1
 40
1.0
176
     1
 40
1.0
176
     1
  0
DICTIONARYVAR
  5
1FD
102
{ACAD_REACTORS
330
1FC
102
}
330
1FC
100
DictionaryVariables
280
     0
  1
1:1
  0
ENDSEC
  0
EOF
